<?xml version="1.0" standalone="no"?>
<!DOCTYPE svg PUBLIC "-//W3C//DTD SVG 1.1//EN" "http://www.w3.org/Graphics/SVG/1.1/DTD/svg11.dtd" >
<svg xmlns="http://www.w3.org/2000/svg" xmlns:xlink="http://www.w3.org/1999/xlink" version="1.1">
<metadata>
Created by FontForge 20201107 at Fri May 11 10:06:22 2018
 By 
Copyright (c) 2018 by Adam Ladd. All rights reserved.
</metadata>
<defs>
<font id="QuicheText-Regular" horiz-adv-x="1296" >
  <font-face 
    font-family="Quiche Text Regular"
    font-weight="400"
    font-stretch="normal"
    units-per-em="2048"
    panose-1="0 0 5 0 0 0 0 0 0 0"
    ascent="1475"
    descent="-573"
    x-height="1024"
    cap-height="1434"
    bbox="-1501 -573 2879 1915"
    underline-thickness="0"
    underline-position="0"
    unicode-range="U+0020-FB02"
  />
<missing-glyph horiz-adv-x="1024" 
d="M840 1475v-2048h-650v2048h650zM682 1337h-338v-67h133v-76h-135v-68h340v68h-135v76h135v67zM547 1073h-205v-213h340v70h-135v143zM477 1004v-74h-67v74h67zM682 805h-340v-68h135v-75h-135v-68h205v143h135v68zM682 682h-68v-135h-272v-70h340v205zM682 432h-205v-115
h70v48h67v-97h-204v164h-68v-231h340v231zM682 78h-340v-232h340v232zM614 10v-96h-204v96h204zM682 -201h-340v-67h143l-143 -97v-67h340v67h-209l143 97h66v67z" />
    <glyph glyph-name="uniFB01" unicode="fi" horiz-adv-x="1298" 
d="M1018 1319q0 -45 -27.5 -72.5t-70.5 -27.5q-45 0 -75 27.5t-30 72.5q0 41 31 72q-61 14 -117 14q-135 0 -218 -78t-83 -197v-106h234v-90h-234v-934h-178v934h-131v90h131v88q0 166 126 274.5t320 108.5q135 0 228.5 -50t93.5 -126zM901 989l178 45v-1034h-178v989z" />
    <glyph glyph-name="uniFB02" unicode="fl" horiz-adv-x="1382" 
d="M987 1450l178 45v-1495h-178v1362q-82 39 -217 39q-158 0 -250 -81t-92 -206v-90h236v-90h-236v-934h-178v934h-131v90h131v72q0 170 135 284.5t346 114.5q156 0 256 -45z" />
    <glyph glyph-name="f_f.liga" unicode="ff" horiz-adv-x="1402" 
d="M1208 1495q113 0 187.5 -50t74.5 -126q0 -45 -28.5 -72.5t-69.5 -27.5q-47 0 -75.5 27.5t-28.5 72.5q0 49 35 78q-45 8 -72 8q-82 0 -133 -57.5t-51 -145.5v-178h239v-90h-239v-934h-179v934h-440v-934h-178v934h-131v90h131v88q0 156 121 259.5t301 103.5q182 0 270 -95
q98 115 266 115zM868 1024v160q0 68 29 129q-20 29 -76.5 48t-124.5 19q-119 0 -193.5 -70.5t-74.5 -179.5v-106h440z" />
    <glyph glyph-name="f_f_i.liga" unicode="ffi" horiz-adv-x="1955" 
d="M1677 1319q0 -45 -27.5 -72.5t-70.5 -27.5q-47 0 -75.5 27.5t-28.5 72.5q0 39 26 70q-61 16 -135 16q-127 0 -203 -78t-76 -197v-106h232v-90h-232v-934h-178v934h-481v-934h-178v934h-131v90h131v68q0 164 126 273.5t316 109.5q106 0 190.5 -32t123.5 -83
q123 135 337 135q137 0 235.5 -51t98.5 -125zM909 1024v86q0 98 43 174q-25 43 -91 69.5t-148 26.5q-127 0 -206 -75.5t-79 -190.5v-90h481zM1561 989l178 45v-1034h-178v989z" />
    <glyph glyph-name="f_f_l.liga" unicode="ffl" horiz-adv-x="1994" 
d="M1604 1452l172 43v-1495h-179v1368q-78 33 -186 33q-150 0 -237 -75t-87 -191v-111h236v-90h-236v-934h-178v934h-481v-934h-178v934h-131v90h131v72q0 162 125 270.5t313 108.5q109 0 193 -35t116 -92q133 147 375 147q136 0 232 -43zM909 1024v92q0 98 49 178
q-70 86 -233 86q-131 0 -214 -75.5t-83 -190.5v-90h481z" />
    <glyph glyph-name=".notdef" horiz-adv-x="1024" 
d="M840 1475v-2048h-650v2048h650zM682 1337h-338v-67h133v-76h-135v-68h340v68h-135v76h135v67zM547 1073h-205v-213h340v70h-135v143zM477 1004v-74h-67v74h67zM682 805h-340v-68h135v-75h-135v-68h205v143h135v68zM682 682h-68v-135h-272v-70h340v205zM682 432h-205v-115
h70v48h67v-97h-204v164h-68v-231h340v231zM682 78h-340v-232h340v232zM614 10v-96h-204v96h204zM682 -201h-340v-67h143l-143 -97v-67h340v67h-209l143 97h66v67z" />
    <glyph glyph-name="glyph1" horiz-adv-x="0" 
 />
    <glyph glyph-name="glyph2" horiz-adv-x="681" 
 />
    <glyph glyph-name="space" unicode=" " horiz-adv-x="600" 
 />
    <glyph glyph-name="exclam" unicode="!" horiz-adv-x="614" 
d="M268 446q-2 193 -20.5 391.5t-35.5 328.5t-17 159q0 51 31.5 85t80.5 34q51 0 83 -34t32 -85q0 -6 -36 -311t-38 -568h-80zM309 -10q-53 0 -90 35.5t-37 87.5q0 53 37 90t90 37q51 0 87 -37t36 -90q0 -51 -36 -87t-87 -36z" />
    <glyph glyph-name="quotedbl" unicode="&#x22;" horiz-adv-x="806" 
d="M201 985q-6 106 -34 220t-28 145q0 45 29 74.5t72 29.5t71.5 -29.5t28.5 -74.5q0 -31 -27.5 -144.5t-33.5 -220.5h-78zM528 985q-6 106 -33.5 220t-27.5 145q0 45 28.5 74.5t71.5 29.5t72 -29.5t29 -74.5q0 -31 -28 -144.5t-34 -220.5h-78z" />
    <glyph glyph-name="numbersign" unicode="#" horiz-adv-x="1613" 
d="M1499 918h-317l-90 -402h297v-90h-318l-96 -426h-129l96 426h-399l-97 -426h-129l97 426h-297v90h317l90 402h-297v90h318l96 426h129l-96 -426h399l96 426h129l-96 -426h297v-90zM963 516l90 402h-400l-90 -402h400z" />
    <glyph glyph-name="dollar" unicode="$" horiz-adv-x="1280" 
d="M1137 371q0 -166 -123 -271.5t-320 -117.5v-166h-90v166q-193 10 -322.5 103t-129.5 226q0 45 30.5 74t77.5 29q43 0 71.5 -29t28.5 -74q0 -74 -65 -98q41 -63 123 -102t186 -43v575q-78 33 -121 53.5t-108.5 61.5t-100 80t-62.5 99t-28 130q0 160 118 266.5t302 118.5
v166h90v-166q166 -10 276.5 -97t110.5 -210q0 -45 -28.5 -74t-71.5 -29q-47 0 -78 29t-31 74q0 76 70 98q-72 111 -248 123v-569l13 -6q88 -35 132 -55.5t111.5 -60.5t101 -78t59.5 -97t26 -129zM340 1116q0 -88 69.5 -153.5t194.5 -126.5v526q-117 -16 -190.5 -83
t-73.5 -163zM694 72q127 14 206 79.5t79 163.5q0 92 -75 159t-210 130v-532z" />
    <glyph glyph-name="percent" unicode="%" horiz-adv-x="1554" 
d="M422 799q-127 0 -213 94t-86 233.5t86 233.5t213 94t212 -94t85 -233.5t-85 -233.5t-212 -94zM264 0l922 1434h102l-921 -1434h-103zM422 883q76 0 121 65.5t45 178t-45 178t-121 65.5q-78 0 -123 -65.5t-45 -178t45 -178t123 -65.5zM1135 -20q-127 0 -213 94t-86 233
t86 233.5t213 94.5t212 -94.5t85 -233.5t-85 -233t-212 -94zM1135 63q76 0 120.5 66t44.5 178.5t-45 178t-120 65.5q-78 0 -123 -65.5t-45 -178t45 -178.5t123 -66z" />
    <glyph glyph-name="ampersand" unicode="&#x26;" horiz-adv-x="1507" 
d="M1440 164l55 -58q-29 -57 -88 -91.5t-129 -34.5q-135 0 -289 147q-158 -147 -387 -147q-199 0 -328 113.5t-129 277.5q0 141 90.5 267t241.5 202q-96 176 -96 309q0 131 94 218t234 87q123 0 203.5 -70.5t80.5 -175.5q0 -201 -317 -362q53 -92 151 -236
q106 -158 203 -278q84 150 92 348h90q-12 -252 -118 -424q145 -162 235 -162q37 0 68 20.5t43 49.5zM729 1362q-82 0 -131 -49t-49 -127q0 -106 86 -268q254 119 254 288q0 68 -43 112t-117 44zM317 418q0 -145 95.5 -234.5t251.5 -89.5q147 0 260 101q-104 117 -260 346
q-100 150 -146 225q-92 -47 -146.5 -140t-54.5 -208z" />
    <glyph glyph-name="quotesingle" unicode="'" horiz-adv-x="479" 
d="M201 985q-6 106 -34 220t-28 145q0 45 29 74.5t72 29.5t71.5 -29.5t28.5 -74.5q0 -31 -27.5 -144.5t-33.5 -220.5h-78z" />
    <glyph glyph-name="parenleft" unicode="(" horiz-adv-x="778" 
d="M653 -266q-197 119 -324.5 368.5t-127.5 512t128 512t324 368.5l21 -72q-137 -100 -216 -318t-79 -490.5t79 -490.5t216 -319z" />
    <glyph glyph-name="parenright" unicode=")" horiz-adv-x="778" 
d="M125 -266l-21 71q137 100 216 318.5t79 491t-78.5 490.5t-216.5 318l21 72q197 -119 325 -368.5t128 -512t-128 -512t-325 -368.5z" />
    <glyph glyph-name="asterisk" unicode="*" horiz-adv-x="790" 
d="M623 1137q47 -29 20 -74q-10 -18 -30.5 -21.5t-43.5 9.5q-12 6 -60 47t-89 67q2 -49 14 -111.5t12 -76.5q0 -25 -14 -40t-37 -15q-20 0 -35.5 14t-15.5 39q0 16 12.5 79.5t16.5 112.5q-43 -27 -92.5 -68.5t-59.5 -47.5q-23 -12 -43 -9.5t-31 21.5q-27 45 21 74
q14 8 75.5 27.5t106.5 41.5q-43 23 -105.5 44.5t-74.5 29.5q-49 27 -25 72q27 41 74 16q12 -8 61.5 -51t92.5 -72q-2 51 -15.5 115.5t-13.5 79.5q0 25 15.5 40t35.5 15q23 0 37 -15.5t14 -41.5q0 -12 -12 -77t-14 -116q43 29 91 72t60 51q47 27 74 -16q10 -16 3 -38t-27 -34
q-12 -8 -74 -29.5t-107 -44.5q43 -20 106 -40.5t77 -28.5z" />
    <glyph glyph-name="plus" unicode="+" horiz-adv-x="1210" 
d="M1016 659v-90h-365v-364h-92v364h-362v90h362v365h92v-365h365z" />
    <glyph glyph-name="comma" unicode="," horiz-adv-x="522" 
d="M262 240q57 0 93 -42t36 -106q0 -102 -56 -203.5t-140 -146.5l-43 59q96 63 120 189h-8q-53 0 -89 34.5t-36 88t36 90.5t87 37z" />
    <glyph glyph-name="hyphen" unicode="-" horiz-adv-x="962" 
d="M197 496v114h571v-114h-571z" />
    <glyph glyph-name="period" unicode="." horiz-adv-x="526" 
d="M264 -10q-53 0 -89 35.5t-36 87.5q0 53 36 90t89 37t88 -37t35 -90.5t-35 -88t-88 -34.5z" />
    <glyph glyph-name="slash" unicode="/" horiz-adv-x="1038" 
d="M109 -266l677 1761h103l-678 -1761h-102z" />
    <glyph glyph-name="zero" unicode="0" horiz-adv-x="1554" 
d="M778 -20q-258 0 -431 210.5t-173 526t173 526.5t431 211t430 -211t172 -526.5t-172 -526t-430 -210.5zM778 70q188 0 302 176t114 471t-113.5 471t-302.5 176q-190 0 -304 -175t-114 -472t114 -472t304 -175z" />
    <glyph glyph-name="one" unicode="1" horiz-adv-x="892" 
d="M518 1434h105v-1434h-179v1249q-104 -113 -297 -157l-14 90q102 27 213 98.5t172 153.5z" />
    <glyph glyph-name="two" unicode="2" horiz-adv-x="1273" 
d="M389 147h694v-147h-899v55l394 443q88 98 125.5 143t92 124t76 149.5t21.5 152.5q0 135 -79 212t-218 77q-102 0 -178 -40t-111 -110q37 -8 59.5 -35.5t22.5 -68.5q0 -47 -29.5 -77t-74.5 -30q-47 0 -79 31t-32 76q0 150 129 251t320 101q197 0 326.5 -108.5
t129.5 -272.5q0 -104 -58 -216t-125 -187.5t-194 -204.5z" />
    <glyph glyph-name="three" unicode="3" horiz-adv-x="1304" 
d="M831 745q141 -45 227.5 -147t86.5 -231q0 -166 -140.5 -276.5t-357.5 -110.5q-195 0 -327 89t-132 222q0 45 32 74.5t79 29.5q43 0 72.5 -29.5t29.5 -74.5q0 -78 -69 -103q82 -113 284 -112q164 0 255.5 81t91.5 218q0 147 -93.5 235t-248.5 88h-142v90h142q139 0 221 81
t82 216q0 125 -80 199t-228 74q-190 0 -266 -113q72 -25 72 -102q0 -45 -30 -75t-73 -30q-47 0 -78.5 30t-31.5 75q0 133 126 222t314 89q197 0 325 -101.5t128 -256.5q0 -115 -75 -210.5t-196 -140.5z" />
    <glyph glyph-name="four" unicode="4" horiz-adv-x="1318" 
d="M1212 473v-90h-229v-383h-178v383h-696v55l720 996h154v-961h229zM246 473h559v776z" />
    <glyph glyph-name="five" unicode="5" horiz-adv-x="1302" 
d="M651 948q219 0 365.5 -138t146.5 -349q0 -209 -146.5 -345t-375.5 -136q-193 0 -324 96t-131 235q0 45 32 76t79 31q45 0 74.5 -30t29.5 -77q0 -39 -21.5 -67.5t-55.5 -36.5q35 -59 110.5 -95t169.5 -36q176 0 274.5 103.5t98.5 279.5q0 178 -98.5 285.5t-262.5 107.5
q-78 0 -153.5 -28.5t-120.5 -75.5l-86 49l82 637h721l-17 -148h-630l-58 -432q119 94 297 94z" />
    <glyph glyph-name="six" unicode="6" horiz-adv-x="1376" 
d="M741 913q203 0 344.5 -131t141.5 -327q0 -203 -147.5 -339t-360.5 -136q-238 0 -391.5 178t-153.5 479q0 213 78 400.5t221 302t318 114.5q141 0 241.5 -70.5t100.5 -173.5q0 -47 -32 -76.5t-81 -29.5q-45 0 -75 30.5t-30 75.5q0 70 58 97q-59 53 -160 53
q-199 0 -319.5 -176t-131.5 -482q41 92 143.5 151.5t235.5 59.5zM721 70q150 0 234.5 102t84.5 277q0 172 -85 270t-234 98q-166 0 -261 -99.5t-95 -271.5q0 -174 95 -275t261 -101z" />
    <glyph glyph-name="seven" unicode="7" horiz-adv-x="1220" 
d="M154 1434h958v-48q-201 -258 -339 -652t-146 -734h-224q33 256 182.5 618.5t354.5 667.5h-786v148z" />
    <glyph glyph-name="eight" unicode="8" horiz-adv-x="1347" 
d="M856 743q154 -70 236 -152.5t82 -213.5q0 -176 -144.5 -286.5t-359.5 -110.5q-211 0 -353.5 109.5t-142.5 277.5q0 111 76 212t196 154q-238 133 -237 336q0 168 133 276.5t330 108.5q188 0 315 -102.5t127 -249.5q0 -115 -70.5 -212.5t-187.5 -146.5zM369 1130
q0 -113 90 -183t276 -150l33 -15q106 41 173 127t67 185q0 117 -93.5 193.5t-234.5 76.5q-133 0 -222 -66t-89 -168zM664 70q154 0 252 65.5t98 167.5q0 49 -22.5 93t-52.5 75t-87 64.5t-97 53t-114 52.5q-57 25 -109 49q-111 -41 -181 -129t-70 -188q0 -129 109.5 -216
t273.5 -87z" />
    <glyph glyph-name="nine" unicode="9" horiz-adv-x="1376" 
d="M657 1454q240 0 392.5 -178t152.5 -479q0 -330 -174 -573.5t-434 -243.5q-145 0 -247.5 70.5t-102.5 172.5q0 47 31.5 77t80.5 30q45 0 75 -30t30 -77q0 -66 -58 -96q59 -53 164 -53q199 0 318 174t129 481q-41 -92 -142.5 -150.5t-236.5 -58.5q-203 0 -344 131t-141 328
q0 203 147 339t360 136zM655 616q166 0 261.5 99.5t95.5 271.5q0 174 -95.5 275.5t-261.5 101.5q-150 0 -234.5 -102.5t-84.5 -276.5q0 -172 84.5 -270.5t234.5 -98.5z" />
    <glyph glyph-name="colon" unicode=":" horiz-adv-x="563" 
d="M282.5 700q-53.5 0 -89 36t-35.5 87q0 53 35.5 90t89 37t88.5 -36.5t35 -90t-35 -88.5t-88.5 -35zM282.5 -10q-53.5 0 -89 35.5t-35.5 87.5q0 53 35.5 90t89 37t88.5 -37t35 -90.5t-35 -88t-88.5 -34.5z" />
    <glyph glyph-name="semicolon" unicode=";" horiz-adv-x="561" 
d="M282.5 700q-53.5 0 -89 36t-35.5 87q0 53 35.5 90t89 37t88.5 -36.5t35 -90t-35 -88.5t-88.5 -35zM283 240q55 0 92 -42t37 -106q0 -102 -56.5 -202.5t-140.5 -147.5l-45 59q96 63 121 189h-8q-53 0 -89 34.5t-36 88t36 90.5t89 37z" />
    <glyph glyph-name="less" unicode="&#x3c;" horiz-adv-x="1085" 
d="M891 1024v-100l-555 -310l555 -309v-100l-694 397v25z" />
    <glyph glyph-name="equal" unicode="=" horiz-adv-x="1210" 
d="M197 733v90h819v-90h-819zM197 406v90h819v-90h-819z" />
    <glyph glyph-name="greater" unicode="&#x3e;" horiz-adv-x="1085" 
d="M197 1024l694 -397v-25l-694 -397v100l553 309l-553 310v100z" />
    <glyph glyph-name="question" unicode="?" horiz-adv-x="1069" 
d="M530 1454q176 0 293 -91t117 -228q0 -74 -38 -143.5t-91 -122t-107.5 -103.5t-92.5 -111.5t-38 -122.5v-86h-92v103q0 68 44 142.5t95.5 131t95.5 138t44 163.5q0 106 -69.5 172t-192.5 66q-164 0 -236 -105q74 -20 74 -104q0 -45 -30 -75.5t-75 -30.5q-49 0 -80.5 29.5
t-31.5 76.5q0 129 118.5 215t292.5 86zM530 240q51 0 87 -37t36 -90q0 -51 -35.5 -87t-87.5 -36q-53 0 -90 35.5t-37 87.5q0 53 37 90t90 37z" />
    <glyph glyph-name="at" unicode="@" horiz-adv-x="1947" 
d="M1393 899l-90 -580q-18 -119 102 -118q111 0 181.5 114.5t70.5 288.5q0 289 -178.5 458t-472.5 169q-319 0 -513 -197.5t-194 -521.5q0 -332 204 -527.5t544 -195.5q131 0 243.5 35t165.5 92l49 -84q-59 -57 -192 -95t-279 -38q-365 0 -609.5 233.5t-244.5 583.5
q0 344 236.5 574.5t591.5 230.5q326 0 543.5 -195.5t217.5 -498.5q0 -215 -112.5 -366.5t-284.5 -151.5q-82 0 -140 34.5t-75 92.5q-104 -127 -262 -127q-141 0 -238.5 108.5t-97.5 269.5q0 180 120 302t288 122q184 0 256 -147l14 98zM934 213q156 0 229 156l45 295
q-53 150 -215 149q-119 0 -198.5 -96t-79.5 -244q0 -121 60.5 -190.5t158.5 -69.5z" />
    <glyph glyph-name="A" unicode="A" horiz-adv-x="1540" 
d="M1251 0l-174 401h-690l-172 -401h-113l629 1434h80l627 -1434h-187zM426 492h610l-305 704z" />
    <glyph glyph-name="B" unicode="B" horiz-adv-x="1482" 
d="M1065 748q137 -45 218 -144.5t81 -230.5q0 -160 -126 -266.5t-312 -106.5h-688v1434h626q188 0 313.5 -101.5t125.5 -251.5q0 -111 -63.5 -197.5t-174.5 -135.5zM815 1343h-399v-561h368q152 0 242 78t90 213q0 125 -82 197.5t-219 72.5zM877 90q137 0 219 77t82 204
q0 154 -94.5 237.5t-237.5 83.5h-430v-602h461z" />
    <glyph glyph-name="C" unicode="C" horiz-adv-x="1611" 
d="M1407 319l66 -57q-68 -125 -222.5 -203.5t-349.5 -78.5q-322 0 -540 209.5t-218 527.5q0 313 215 525t541 212q233 0 395 -109.5t162 -257.5q0 -47 -29.5 -76.5t-76.5 -29.5t-79 30.5t-32 75.5q0 82 76 103q-43 76 -140.5 121t-230.5 45q-281 0 -447.5 -173t-166.5 -464
q0 -293 167 -467t439 -174q156 0 279.5 64t191.5 177z" />
    <glyph glyph-name="D" unicode="D" horiz-adv-x="1679" 
d="M770 1434q328 0 547 -206t219 -511t-219 -511t-547 -206h-532v1434h532zM748 90q272 0 437 171t165 455.5t-165 455.5t-437 171h-332v-1253h332z" />
    <glyph glyph-name="E" unicode="E" horiz-adv-x="1370" 
d="M416 90h831v-90h-1009v1434h989v-91h-811v-571h647v-90h-647v-592z" />
    <glyph glyph-name="F" unicode="F" horiz-adv-x="1306" 
d="M1206 1343h-790v-591h626v-90h-626v-662h-178v1434h968v-91z" />
    <glyph glyph-name="G" unicode="G" horiz-adv-x="1701" 
d="M1325 606h174v-606h-69l-58 119q-152 -139 -465 -139q-326 0 -545 210.5t-219 526t220.5 526.5t551.5 211q231 0 387 -100.5t156 -249.5q0 -47 -29.5 -77t-74.5 -30q-47 0 -79 31t-32 76q0 80 76 104q-41 72 -136.5 111t-224.5 39q-291 0 -459.5 -175t-168.5 -472
q0 -291 162.5 -466t435.5 -175q147 0 251.5 43t145.5 120v373z" />
    <glyph glyph-name="H" unicode="H" horiz-adv-x="1685" 
d="M1268 1434h178v-1434h-178v682h-852v-682h-178v1434h178v-662h852v662z" />
    <glyph glyph-name="I" unicode="I" horiz-adv-x="655" 
d="M238 0v1434h178v-1434h-178z" />
    <glyph glyph-name="J" unicode="J" horiz-adv-x="1286" 
d="M883 1434h178v-977q0 -225 -136.5 -351t-353.5 -126q-197 0 -326.5 96t-129.5 243q0 47 31.5 77t80.5 30q45 0 75 -29.5t30 -77.5q0 -39 -23.5 -67.5t-60.5 -36.5q35 -66 110.5 -103.5t173.5 -37.5q166 0 258.5 101t92.5 276v983z" />
    <glyph glyph-name="K" unicode="K" horiz-adv-x="1478" 
d="M1206 0l-577 766l-213 -191v-575h-178v1434h178v-738l813 738h141l-616 -553l661 -881h-209z" />
    <glyph glyph-name="L" unicode="L" horiz-adv-x="1308" 
d="M416 90h780v-90h-958v1434h178v-1344z" />
    <glyph glyph-name="M" unicode="M" horiz-adv-x="1914" 
d="M1491 1434h186v-1434h-178v1266l-541 -891h-81l-541 889v-1264h-98v1434h196l529 -869z" />
    <glyph glyph-name="N" unicode="N" horiz-adv-x="1654" 
d="M1319 1434h98v-1434h-69l-1012 1231v-1231h-98v1434h153l928 -1133v1133z" />
    <glyph glyph-name="O" unicode="O" horiz-adv-x="1779" 
d="M890.5 -20q-319.5 0 -533.5 210.5t-214 526t214 526.5t533.5 211t532.5 -211t213 -526.5t-213 -526t-532.5 -210.5zM891 70q254 0 406.5 177t152.5 470t-152.5 470t-406.5 177t-407.5 -177t-153.5 -470t153.5 -470t407.5 -177z" />
    <glyph glyph-name="P" unicode="P" horiz-adv-x="1470" 
d="M842 1434q221 0 370.5 -127t149.5 -319.5t-149.5 -319.5t-370.5 -127h-426v-541h-178v1434h604zM803 631q168 0 270.5 97t102.5 259t-102.5 259t-270.5 97h-387v-712h387z" />
    <glyph glyph-name="Q" unicode="Q" horiz-adv-x="1792" 
d="M1645 -33q41 0 68.5 -27.5t27.5 -70.5q0 -141 -90 -235.5t-224 -94.5q-76 0 -161.5 35t-141 73t-141.5 103q-84 66 -122 93.5t-108.5 58t-131.5 30.5q-74 0 -121 -41q53 -27 53 -88q0 -45 -28.5 -72.5t-69.5 -27.5q-45 0 -75 27.5t-30 72.5q0 88 79 151.5t192 72.5
q-217 78 -347.5 263t-130.5 427q0 315 214 526t533.5 211t532.5 -211t213 -526.5t-213 -526t-532 -210.5q-33 0 -51 2q80 -35 235 -142q86 -57 132 -84.5t121 -56.5t138 -29q113 0 166 99q-41 4 -66.5 31.5t-25.5 68.5q0 43 30 70.5t75 27.5zM330 717q0 -293 153.5 -470
t407.5 -177t406.5 177t152.5 470t-152.5 470t-406.5 177t-407.5 -177t-153.5 -470z" />
    <glyph glyph-name="R" unicode="R" horiz-adv-x="1482" 
d="M1292 156q61 -106 133 -156h-206q-63 45 -105 119l-213 368q-39 68 -90 103h-10h-385v-590h-178v1434h563q221 0 370.5 -119t149.5 -299q0 -150 -101.5 -260.5t-265.5 -147.5q100 -43 152 -137zM416 1343v-663h350q168 0 268.5 90t100.5 241.5t-100.5 241.5t-268.5 90
h-350z" />
    <glyph glyph-name="S" unicode="S" horiz-adv-x="1335" 
d="M731 795q78 -31 119 -48.5t105.5 -48t99.5 -59.5t71.5 -70t53 -90t16.5 -108q0 -176 -145.5 -283.5t-372.5 -107.5q-221 0 -373.5 95t-152.5 236q0 43 30.5 72t75.5 29q41 0 69.5 -29t28.5 -72q0 -70 -61 -94q43 -68 140 -107.5t218 -39.5q168 0 271.5 67.5t103.5 181.5
q0 53 -28.5 98.5t-90 85.5t-117 67.5t-149.5 66.5q-84 33 -130 53.5t-118.5 61.5t-110.5 80.5t-69 102t-31 134.5q0 168 140.5 276.5t355.5 108.5q195 0 328 -89t133 -220q0 -43 -29 -72t-70 -29q-45 0 -74.5 29t-29.5 72q0 68 61 92q-37 59 -116.5 93t-184.5 34
q-152 0 -251 -69.5t-99 -182.5q0 -55 31 -102t93.5 -87t115.5 -65.5t143 -62.5z" />
    <glyph glyph-name="T" unicode="T" horiz-adv-x="1341" 
d="M1245 1434v-91h-483v-1343h-178v1343h-486v91h1147z" />
    <glyph glyph-name="U" unicode="U" horiz-adv-x="1642" 
d="M848 -20q-276 0 -450.5 161.5t-174.5 425.5v867h178v-899q0 -203 130.5 -324t342.5 -121q205 0 326 121t121 324v899h98v-902q0 -252 -153.5 -402t-417.5 -150z" />
    <glyph glyph-name="V" unicode="V" horiz-adv-x="1540" 
d="M1325 1434h113l-629 -1434h-80l-627 1434h189l520 -1196z" />
    <glyph glyph-name="W" unicode="W" horiz-adv-x="2359" 
d="M2144 1434h113l-629 -1434h-80l-368 844l-371 -844h-80l-627 1434h189l520 -1196l311 735l-200 461h188l520 -1196z" />
    <glyph glyph-name="X" unicode="X" horiz-adv-x="1452" 
d="M1317 0h-197l-415 606l-412 -606h-123l477 688l-512 746h197l409 -596l408 596h123l-473 -680z" />
    <glyph glyph-name="Y" unicode="Y" horiz-adv-x="1472" 
d="M1253 1434h117l-545 -820v-614h-178v614l-545 820h199l477 -719z" />
    <glyph glyph-name="Z" unicode="Z" horiz-adv-x="1382" 
d="M1243 1434v-33l-870 -1311h868v-90h-1102v33l871 1310h-842v91h1075z" />
    <glyph glyph-name="bracketleft" unicode="[" horiz-adv-x="722" 
d="M616 1384h-231v-1540h231v-90h-389v1721h389v-91z" />
    <glyph glyph-name="backslash" unicode="\" horiz-adv-x="1038" 
d="M827 -266l-677 1761h102l678 -1761h-103z" />
    <glyph glyph-name="bracketright" unicode="]" horiz-adv-x="722" 
d="M494 1475v-1721h-390v90h232v1540h-232v91h390z" />
    <glyph glyph-name="asciicircum" unicode="^" horiz-adv-x="1097" 
d="M958 819h-100l-309 486l-307 -486h-103l398 615h24z" />
    <glyph glyph-name="underscore" unicode="_" horiz-adv-x="1052" 
d="M139 -254v90h774v-90h-774z" />
    <glyph glyph-name="grave" unicode="`" horiz-adv-x="374" 
d="M281 1202l-281 246h246l129 -246h-94z" />
    <glyph glyph-name="a" unicode="a" horiz-adv-x="1267" 
d="M618 1044q199 0 327 -102t128 -258v-684h-178v137q-63 -70 -171 -113.5t-218 -43.5q-150 0 -256.5 82.5t-106.5 205.5q0 129 122 213t313 84q213 0 317 -67v184q0 119 -82 195.5t-215 76.5q-145 0 -221 -69q45 -29 45 -86q0 -45 -28.5 -74t-71.5 -29q-47 0 -78 29t-31 74
q0 104 118.5 174.5t286.5 70.5zM578 92q203 0 317 137v185q-84 68 -264 67q-143 0 -222 -52t-79 -144q0 -86 67.5 -139.5t180.5 -53.5z" />
    <glyph glyph-name="b" unicode="b" horiz-adv-x="1380" 
d="M754 1044q201 0 343 -153.5t142 -378.5t-142.5 -378.5t-346.5 -153.5q-219 0 -355 165v-145h-178v1450l178 45v-635q59 86 153.5 135t205.5 49zM705 86q156 0 252 116.5t96 309.5q0 190 -95.5 308t-246.5 118q-96 0 -180.5 -50t-135.5 -138v-486q47 -84 129.5 -131
t180.5 -47z" />
    <glyph glyph-name="c" unicode="c" horiz-adv-x="1220" 
d="M1014 217l63 -55q-41 -80 -146.5 -131t-240.5 -51q-238 0 -393.5 153.5t-155.5 378.5q0 227 157 379.5t390 152.5q162 0 270.5 -73.5t108.5 -184.5q0 -45 -28.5 -74.5t-71.5 -29.5q-47 0 -78 29.5t-31 74.5q0 68 64 95q-66 70 -197 69q-184 0 -290.5 -118.5
t-106.5 -319.5q0 -199 108.5 -317.5t290.5 -118.5q94 0 173 39t114 102z" />
    <glyph glyph-name="d" unicode="d" horiz-adv-x="1380" 
d="M983 1450l178 45v-1495h-178v143q-133 -164 -352 -163q-205 0 -347.5 153.5t-142.5 378.5t142.5 378.5t343.5 153.5q111 0 204 -49t152 -135v590zM676 86q96 0 178 47t129 127v494q-51 88 -134 136t-179 48q-152 0 -247 -118t-95 -308q0 -193 96 -309.5t252 -116.5z" />
    <glyph glyph-name="e" unicode="e" 
d="M1034 352q43 0 72 -29.5t29 -72.5q0 -115 -126 -192.5t-302 -77.5q-246 0 -406 152.5t-160 379.5t154 379.5t375 152.5q213 0 349 -149.5t136 -372.5h-827q2 -211 113.5 -330.5t306.5 -119.5q162 0 237 86q-57 27 -57 92q0 43 30.5 72.5t75.5 29.5zM666 954
q-133 0 -223.5 -93t-110.5 -249h643q-12 158 -95 250t-214 92z" />
    <glyph glyph-name="f" unicode="f" horiz-adv-x="784" 
d="M590 1495q113 0 187.5 -50t74.5 -126q0 -45 -27.5 -72.5t-70.5 -27.5q-45 0 -75 27.5t-30 72.5q0 47 37 78q-25 8 -59 8q-88 0 -143.5 -57.5t-55.5 -145.5v-178h240v-90h-240v-934h-178v934h-131v90h131v160q0 133 98.5 222t241.5 89z" />
    <glyph glyph-name="g" unicode="g" horiz-adv-x="1372" 
d="M985 989l178 45v-1104q0 -172 -140 -286.5t-357 -114.5q-178 0 -302 76t-124 186q0 45 29.5 74t76.5 29q43 0 71.5 -29t28.5 -74q0 -66 -55 -92q84 -80 242 -80q154 0 253 88t99 223v215q-135 -166 -354 -165q-205 0 -347.5 153.5t-142.5 378.5t142.5 378.5t343.5 153.5
q111 0 205 -50t153 -136v131zM676 86q98 0 180 47t129 131v486q-51 88 -135 138t-180 50q-152 0 -247 -118t-95 -308q0 -193 96 -309.5t252 -116.5z" />
    <glyph glyph-name="h" unicode="h" horiz-adv-x="1347" 
d="M784 1044q160 0 265.5 -99t105.5 -249v-696h-178v692q0 102 -69.5 171t-178.5 69q-102 0 -195.5 -61.5t-138.5 -161.5v-709h-178v1450l178 45v-670q53 98 159.5 158.5t229.5 60.5z" />
    <glyph glyph-name="i" unicode="i" horiz-adv-x="614" 
d="M311 1221q-49 0 -81.5 30.5t-32.5 77.5q0 49 32.5 80t81.5 31q47 0 78 -31t31 -80q0 -47 -31 -77.5t-78 -30.5zM219 0v989l178 45v-1034h-178z" />
    <glyph glyph-name="j" unicode="j" horiz-adv-x="624" 
d="M319 1221q-49 0 -81.5 30.5t-32.5 77.5q0 49 32.5 80t81.5 31q47 0 78 -31t31 -80q0 -47 -31 -77.5t-78 -30.5zM229 -180v1169l179 45v-1198q0 -133 -96.5 -220t-239.5 -87q-109 0 -180.5 50t-71.5 126q0 45 28.5 72.5t69.5 27.5q47 0 77 -27.5t30 -72.5q0 -51 -39 -80
q23 -6 49 -6q86 0 140 57.5t54 143.5z" />
    <glyph glyph-name="k" unicode="k" horiz-adv-x="1144" 
d="M897 0l-412 549l-90 -82v-467h-178v1450l178 45v-905l488 434h141l-412 -365l492 -659h-207z" />
    <glyph glyph-name="l" unicode="l" horiz-adv-x="614" 
d="M217 0v1450l178 45v-1495h-178z" />
    <glyph glyph-name="m" unicode="m" horiz-adv-x="2000" 
d="M1458 1044q150 0 249 -99t99 -249v-696h-178v690q0 102 -63.5 171t-157.5 69t-179 -63.5t-126 -164.5v-6v-696h-178v690q0 102 -64.5 171t-159 69t-179.5 -62.5t-126 -160.5v-707h-178v989l178 45v-205q49 96 147.5 155.5t211.5 59.5q117 0 206 -62t123 -167
q47 102 150.5 165.5t224.5 63.5z" />
    <glyph glyph-name="n" unicode="n" horiz-adv-x="1347" 
d="M786 1044q160 0 264.5 -99t104.5 -249v-696h-178v692q0 102 -70.5 171t-177.5 69q-102 0 -195.5 -61.5t-138.5 -161.5v-709h-178v989l178 45v-207q53 96 159.5 156.5t231.5 60.5z" />
    <glyph glyph-name="o" unicode="o" horiz-adv-x="1361" 
d="M682 -20q-231 0 -386 152.5t-155 379.5t155 379.5t386 152.5q229 0 384 -152.5t155 -379.5t-155 -379.5t-384 -152.5zM682 70q160 0 256 119.5t96 322.5t-96 322.5t-256 119.5q-162 0 -258 -119.5t-96 -322.5t96 -322.5t258 -119.5z" />
    <glyph glyph-name="p" unicode="p" horiz-adv-x="1380" 
d="M754 1044q201 0 343 -153.5t142 -378.5t-142.5 -378.5t-346.5 -153.5q-219 0 -355 165v-596h-178v1440l178 45v-174q59 86 153.5 135t205.5 49zM705 86q156 0 252 116.5t96 309.5q0 190 -95.5 308t-246.5 118q-96 0 -180.5 -50t-135.5 -138v-486q47 -84 129.5 -131
t180.5 -47z" />
    <glyph glyph-name="q" unicode="q" horiz-adv-x="1380" 
d="M983 989l178 45v-1485h-178v594q-133 -164 -352 -163q-205 0 -347.5 153.5t-142.5 378.5t142.5 378.5t343.5 153.5q111 0 204 -49t152 -135v129zM676 86q96 0 178 47t129 127v494q-51 88 -134 136t-179 48q-152 0 -247 -118t-95 -308q0 -193 96 -309.5t252 -116.5z" />
    <glyph glyph-name="r" unicode="r" horiz-adv-x="1024" 
d="M940 854q0 -43 -28.5 -72.5t-73.5 -29.5t-76 29.5t-31 72.5t31 74q-29 14 -72 14q-98 0 -179 -68.5t-116 -181.5v-692h-178v989l178 45v-209q41 100 125 159.5t186.5 59.5t168 -54t65.5 -136z" />
    <glyph glyph-name="s" unicode="s" horiz-adv-x="1062" 
d="M590 594q80 -33 123 -54.5t103.5 -61.5t89 -93t28.5 -119q0 -127 -106.5 -206.5t-284.5 -79.5q-168 0 -284 64.5t-116 160.5q0 43 28 69.5t73 26.5q41 0 67.5 -26.5t26.5 -69.5q0 -53 -41 -80q76 -66 221 -66q115 0 184.5 46.5t69.5 117.5q0 70 -64.5 115t-195.5 96
q-74 29 -121 52.5t-106.5 63.5t-89 94t-29.5 120q0 125 107.5 202.5t275.5 77.5q147 0 248.5 -58t101.5 -144q0 -41 -26.5 -69t-67.5 -28q-45 0 -74 28t-29 69q0 51 39 78q-61 45 -172 45q-106 0 -174.5 -46.5t-68.5 -116t66.5 -114.5t197.5 -94z" />
    <glyph glyph-name="t" unicode="t" horiz-adv-x="856" 
d="M735 172l49 -53q-18 -59 -92 -99t-164 -40q-121 0 -203.5 73.5t-82.5 184.5v696h-131v90h131v231l178 50v-281h311v-90h-311v-686q0 -72 46 -121t116 -49q47 0 93 27.5t60 66.5z" />
    <glyph glyph-name="u" unicode="u" horiz-adv-x="1341" 
d="M944 989l178 45v-1034h-178v195q-55 -96 -157.5 -155.5t-223.5 -59.5q-156 0 -260 99t-104 249v661l178 45v-702q0 -102 68.5 -171t172.5 -69q98 0 189.5 62.5t136.5 160.5v674z" />
    <glyph glyph-name="v" unicode="v" horiz-adv-x="1120" 
d="M940 1024h113l-449 -1024h-80l-448 1024h186l342 -786z" />
    <glyph glyph-name="w" unicode="w" horiz-adv-x="1740" 
d="M1561 1024h112l-448 -1024h-82l-269 614l-270 -614h-80l-448 1024h186l342 -786l213 503l-123 283h187l342 -788z" />
    <glyph glyph-name="x" unicode="x" horiz-adv-x="1073" 
d="M987 0h-203l-276 406l-264 -406h-123l330 492l-363 532h203l270 -397l258 397h123l-321 -483z" />
    <glyph glyph-name="y" unicode="y" horiz-adv-x="1126" 
d="M946 1024h113l-600 -1368q-55 -127 -191 -127q-68 0 -118 42t-50 101q0 39 30 68t71 29t67.5 -28t26.5 -69q0 -37 -19 -61q68 0 95 65l149 353l-436 995h186l340 -786z" />
    <glyph glyph-name="z" unicode="z" horiz-adv-x="1081" 
d="M952 1024v-33l-587 -901h583v-90h-815v33l588 901h-557v90h788z" />
    <glyph glyph-name="braceleft" unicode="{" horiz-adv-x="765" 
d="M623 1415q-225 6 -226 -176q0 -61 50.5 -196.5t50.5 -211.5q0 -152 -123 -217q123 -66 123 -217q0 -76 -50.5 -211t-50.5 -194q0 -184 226 -178v-80q-168 -6 -274.5 60.5t-106.5 197.5q0 70 50 211t50 217q0 70 -38 109.5t-103 39.5h-51v90h51q66 0 103.5 40t37.5 110
q0 76 -50 217t-50 211q0 131 106.5 197.5t274.5 60.5v-80z" />
    <glyph glyph-name="bar" unicode="|" horiz-adv-x="614" 
d="M258 -266v1761h98v-1761h-98z" />
    <glyph glyph-name="braceright" unicode="}" horiz-adv-x="765" 
d="M563 659h51v-90h-51q-66 0 -102.5 -40t-36.5 -109q0 -76 50 -217.5t50 -210.5q0 -131 -106.5 -197.5t-274.5 -60.5v80q225 -6 226 178q0 59 -50.5 194.5t-50.5 210.5q0 152 123 217q-123 66 -123 217q0 76 50.5 211.5t50.5 196.5q0 182 -226 176v80q168 6 274.5 -60.5
t106.5 -197.5q0 -70 -50 -211t-50 -217q0 -70 36.5 -110t102.5 -40z" />
    <glyph glyph-name="asciitilde" unicode="~" horiz-adv-x="1277" 
d="M842 451q-76 0 -210 89t-200 89q-61 0 -102 -44t-41 -110h-92q0 131 68.5 217t172.5 86q74 0 208 -89t200 -89q61 0 102 44t41 110h94q0 -131 -68.5 -217t-172.5 -86z" />
    <glyph glyph-name="exclamdown" unicode="&#xa1;" horiz-adv-x="573" 
d="M289 784q-53 0 -90 37t-37 90q0 51 37 87t90 36q51 0 87 -35.5t36 -87.5q0 -53 -36 -90t-87 -37zM287 -420q-49 0 -81 34t-32 85q0 29 17.5 159t36 328.5t20.5 391.5h80q2 -262 37.5 -567.5t35.5 -311.5q0 -51 -31.5 -85t-82.5 -34z" />
    <glyph glyph-name="cent" unicode="&#xa2;" horiz-adv-x="1253" 
d="M1020 217l63 -55q-41 -80 -141 -131t-231 -51q-25 0 -70 4l-27 -168h-88l31 186q-166 47 -268.5 187.5t-102.5 322.5q0 227 151.5 379.5t373.5 152.5h12l27 164h88l-29 -172q119 -23 191.5 -90t72.5 -160q0 -41 -25.5 -67.5t-66.5 -26.5t-69.5 26.5t-28.5 67.5
q0 59 53 84q-45 61 -141 74l-138 -860q57 -8 88 -8q90 0 165 39t110 102zM369 512q0 -143 53 -246.5t151 -150.5l136 831q-158 -14 -249 -130t-91 -304z" />
    <glyph glyph-name="sterling" unicode="&#xa3;" horiz-adv-x="1234" 
d="M389 127h703v-127h-904v55q96 63 158 179t62 231q0 76 -35 186h-203v90h172l-12 31q-82 225 -82 326q0 156 122 256t306 100q168 0 278.5 -84t110.5 -211q0 -45 -30.5 -73.5t-78.5 -28.5q-43 0 -71.5 28.5t-28.5 73.5q0 80 70 101q-66 96 -221 96q-125 0 -202 -61.5
t-77 -166.5q0 -96 74 -313l24 -74h385v-90h-358q18 -72 18 -137q0 -248 -180 -387z" />
    <glyph glyph-name="currency" unicode="&#xa4;" horiz-adv-x="1265" 
d="M1028 635q0 -141 -80 -240l127 -127l-53 -53l-125 125q-106 -90 -260 -90t-266 92l-127 -127l-54 53l127 127q-82 104 -81 238q0 137 83 244l-129 129l54 53l129 -129q111 94 264.5 94t259.5 -94l125 129l53 -53l-129 -129q82 -101 82 -242zM637 346q127 0 201.5 78
t74.5 209q0 133 -75.5 214t-200.5 81q-127 0 -206 -82t-79 -213t78 -209t207 -78z" />
    <glyph glyph-name="yen" unicode="&#xa5;" horiz-adv-x="1378" 
d="M1249 1434l-442 -775h258v-90h-285v-172h285v-90h-285v-307h-178v307h-283v90h283v172h-283v90h256l-444 775h195l411 -723l410 723h102z" />
    <glyph glyph-name="brokenbar" unicode="&#xa6;" horiz-adv-x="614" 
d="M258 717v778h98v-778h-98zM258 -266v778h98v-778h-98z" />
    <glyph glyph-name="section" unicode="&#xa7;" horiz-adv-x="1177" 
d="M707 279q119 -57 184 -126t65 -180q0 -135 -101 -218t-263 -83q-150 0 -260.5 67.5t-110.5 166.5q0 43 29 69.5t72 26.5t70.5 -27.5t27.5 -68.5q0 -57 -45 -84q78 -63 198 -64q106 0 173 46t67 120q0 45 -19.5 83t-63.5 71t-79 52.5t-102 51.5q-70 33 -116 59.5t-99 69.5
t-80 99.5t-27 126.5q0 117 69 196.5t187 116.5q-117 57 -183.5 128t-66.5 181q0 129 101.5 212t257.5 83q133 0 226 -61.5t93 -149.5q0 -41 -27.5 -68.5t-68.5 -27.5q-43 0 -72.5 27.5t-29.5 68.5q0 53 41 80q-57 45 -152 45q-98 0 -161.5 -46t-63.5 -118q0 -57 38 -105
t85 -78t116 -65q16 -6 23 -10q78 -39 119 -62.5t95 -67.5t78.5 -99t24.5 -125q0 -117 -65 -196.5t-184 -116.5zM371 590q0 -86 58 -143.5t175 -116.5q96 18 152.5 73.5t56.5 137.5q0 88 -59.5 144t-169.5 114q-96 -18 -154.5 -72.5t-58.5 -136.5z" />
    <glyph glyph-name="dieresis" unicode="&#xa8;" horiz-adv-x="593" 
d="M102 1194q-43 0 -72.5 27.5t-29.5 70.5q0 45 29.5 74t74.5 29q43 0 72 -29t29 -72t-29 -71.5t-74 -28.5zM494 1194q-43 0 -73 28.5t-30 71.5t30 72t75 29q41 0 69.5 -29t28.5 -72t-28.5 -71.5t-71.5 -28.5z" />
    <glyph glyph-name="copyright" unicode="&#xa9;" horiz-adv-x="1814" 
d="M909 1454q315 0 525.5 -210t210.5 -525q0 -317 -210 -528t-525.5 -211t-527.5 210.5t-212 528.5q0 315 211 525t528 210zM909 66q274 0 458.5 186t184.5 467q0 279 -184 464t-459 185q-276 0 -460.5 -185.5t-184.5 -463.5q0 -281 184.5 -467t460.5 -186zM977 410
q70 0 128 27.5t85 70.5l53 -47q-31 -61 -109.5 -100t-183.5 -39q-180 0 -297.5 116.5t-117.5 286.5q0 172 118.5 287.5t294.5 115.5q125 0 208 -56t83 -140q0 -35 -21.5 -57.5t-54.5 -22.5q-37 0 -59.5 22.5t-22.5 57.5q0 41 33 63q-45 45 -135 45q-137 0 -219 -86t-82 -229
t81 -229t218 -86z" />
    <glyph glyph-name="ordfeminine" unicode="&#xaa;" horiz-adv-x="837" 
d="M424 1454q119 0 195.5 -61.5t76.5 -153.5v-408h-121v76q-88 -88 -223 -88q-90 0 -151.5 49.5t-61.5 118.5q0 78 75 128t187 50q100 0 174 -32v96q0 70 -45 110.5t-127 40.5q-61 0 -98 -26q16 -20 17 -47q0 -31 -19.5 -50.5t-48.5 -19.5q-33 0 -52.5 19.5t-19.5 50.5
q0 63 71 105t171 42zM408 899q102 0 167 76v98q-51 31 -133 31t-127 -28.5t-45 -76.5q0 -45 38.5 -72.5t99.5 -27.5z" />
    <glyph glyph-name="guillemotleft" unicode="&#xab;" horiz-adv-x="1081" 
d="M520 905q-35 -90 -104.5 -189.5t-145.5 -162.5q76 -66 145.5 -163t104.5 -187l-69 -27q-49 78 -152.5 182.5t-210.5 182.5v24q104 78 208.5 182.5t154.5 182.5zM707 553q76 -66 146.5 -163t104.5 -187l-69 -27q-49 78 -152.5 182.5t-210.5 182.5v24q104 78 209 182.5
t154 182.5l69 -25q-35 -90 -105 -188t-146 -164z" />
    <glyph glyph-name="registered" unicode="&#xae;" horiz-adv-x="966" 
d="M483.5 1454q147.5 0 245.5 -98.5t98 -243.5q0 -147 -98 -246.5t-245.5 -99.5t-246 99.5t-98.5 246.5q0 145 98.5 243.5t246 98.5zM483 821q121 0 201 83t80 208q0 123 -80 205t-201 82t-200.5 -82t-79.5 -205q0 -125 79.5 -208t200.5 -83zM643 1190q0 -80 -82 -105
l103 -139h-91l-96 135h-47v-135h-78v350h174q51 0 84 -29.5t33 -76.5zM430 1245v-112h72q57 0 57 55q0 57 -57 57h-72z" />
    <glyph glyph-name="macron" unicode="&#xaf;" horiz-adv-x="491" 
d="M0 1260v122h492v-122h-492z" />
    <glyph glyph-name="degree" unicode="&#xb0;" horiz-adv-x="749" 
d="M374.5 985q-100.5 0 -168 66.5t-67.5 169.5q0 100 67.5 166.5t168 66.5t168 -66.5t67.5 -166.5q0 -102 -67.5 -169t-168 -67zM374.5 1055q67.5 0 114 48t46.5 117.5t-46.5 116.5t-114 47t-113.5 -47t-46 -116.5t46 -117.5t113.5 -48z" />
    <glyph glyph-name="plusminus" unicode="&#xb1;" horiz-adv-x="1210" 
d="M651 659h365v-90h-365v-364h-92v364h-362v90h362v365h92v-365zM197 0v90h819v-90h-819z" />
    <glyph glyph-name="uni00B2" unicode="&#xb2;" horiz-adv-x="1024" 
d="M412 905h381v-127h-553v33l221 262q86 100 129 176t43 156q0 78 -40 121t-114 43q-90 0 -137 -58q51 -20 51 -75q0 -33 -22.5 -56.5t-55.5 -23.5q-35 0 -59.5 23.5t-24.5 56.5q0 90 79 152.5t198 62.5q121 0 202 -65.5t81 -162.5q0 -92 -53.5 -178t-166.5 -190z" />
    <glyph glyph-name="uni00B3" unicode="&#xb3;" horiz-adv-x="1048" 
d="M655 1227q74 -31 118 -89.5t44 -129.5q0 -104 -85 -173t-218 -69q-123 0 -203 54t-80 136q0 33 25 56.5t59 23.5q33 0 55.5 -23.5t22.5 -56.5q0 -51 -43 -71q49 -39 137 -39q84 0 132.5 44t48.5 120q0 80 -50.5 130t-132.5 50h-84v70h84q72 0 116 45t44 116q0 68 -42 109
t-116 41q-78 0 -127 -39q45 -16 46 -72q0 -33 -23 -56.5t-55 -23.5q-35 0 -59.5 23.5t-24.5 56.5q0 84 75.5 137.5t194.5 53.5q121 0 200 -62.5t79 -163.5q0 -61 -37.5 -114t-100.5 -84z" />
    <glyph glyph-name="acute" unicode="&#xb4;" horiz-adv-x="374" 
d="M94 1202h-94l129 246h246z" />
    <glyph glyph-name="paragraph" unicode="&#xb6;" horiz-adv-x="1394" 
d="M1174 1434v-91h-111v-1671h-98v1671h-148v-1671h-98v828h-29q-201 0 -335 133t-134 333.5t134 334t335 133.5h484z" />
    <glyph glyph-name="periodcentered" unicode="&#xb7;" horiz-adv-x="641" 
d="M321.5 432q-53.5 0 -89 35t-35.5 88q0 51 36.5 88t88.5 37q53 0 87.5 -36t34.5 -89t-34.5 -88t-88 -35z" />
    <glyph glyph-name="cedilla" unicode="&#xb8;" horiz-adv-x="380" 
d="M205 -113q74 0 125 -47t51 -112q0 -72 -61.5 -119t-149.5 -47q-106 0 -170 67l43 56q43 -39 109 -39q49 0 79.5 24.5t30.5 63.5q0 37 -26.5 61.5t-65.5 24.5q-51 0 -80 -35l-51 33l106 192h99l-82 -129q23 6 43 6z" />
    <glyph glyph-name="uni00B9" unicode="&#xb9;" horiz-adv-x="792" 
d="M463 1638h98v-860h-151v723q-61 -61 -170 -88l-9 74q61 16 128 59t104 92z" />
    <glyph glyph-name="ordmasculine" unicode="&#xba;" horiz-adv-x="950" 
d="M475 819q-143 0 -239.5 91t-96.5 226.5t96.5 226.5t239.5 91t239.5 -91t96.5 -226.5t-96.5 -226.5t-239.5 -91zM475 893q94 0 149.5 65.5t55.5 178t-55.5 178t-149.5 65.5t-149.5 -65.5t-55.5 -178t55.5 -178t149.5 -65.5z" />
    <glyph glyph-name="guillemotright" unicode="&#xbb;" horiz-adv-x="1081" 
d="M193 930q47 -76 151.5 -181.5t210.5 -183.5v-24q-109 -80 -212 -183.5t-150 -181.5l-70 27q35 90 104.5 187t145.5 163q-76 63 -145.5 162.5t-104.5 189.5zM629 930q49 -78 153.5 -182.5t210.5 -182.5v-24q-109 -78 -212 -182.5t-152 -182.5l-68 27q33 90 103.5 187
t146.5 163q-76 66 -146.5 164t-103.5 188z" />
    <glyph glyph-name="onequarter" unicode="&#xbc;" horiz-adv-x="2189" 
d="M561 573h-151v723q-61 -61 -170 -88l-9 74q61 16 128 59t104 93h98v-861zM1483 1434h104l-921 -1434h-105zM1958 293v-74h-129v-219h-152v219h-401v43l426 598h127v-567h129zM1384 293h293v416z" />
    <glyph glyph-name="onehalf" unicode="&#xbd;" horiz-adv-x="2273" 
d="M561 573h-151v723q-61 -61 -170 -88l-9 74q61 16 128 59t104 93h98v-861zM1483 1434h104l-921 -1434h-105zM1661 127h381v-127h-553v33l221 262q86 100 129 176t43 156q0 78 -40 121t-113 43q-90 0 -138 -58q51 -20 51 -76q0 -33 -22.5 -56t-54.5 -23q-35 0 -59.5 23.5
t-24.5 55.5q0 90 78.5 152.5t197.5 62.5q121 0 202 -65.5t81 -161.5q0 -92 -53.5 -178t-165.5 -191z" />
    <glyph glyph-name="threequarters" unicode="&#xbe;" horiz-adv-x="2334" 
d="M817 803q0 -104 -85 -173t-218 -69q-123 0 -203 54.5t-80 136.5q0 33 25 56t59 23q33 0 55.5 -23.5t22.5 -55.5q0 -51 -43 -72q49 -39 137 -39q84 0 132.5 44t48.5 120q0 80 -50.5 130t-132.5 50h-84v70h84q72 0 116 45t44 117q0 68 -42 108.5t-116 40.5q-78 0 -127 -39
q45 -16 46 -72q0 -33 -23 -56t-55 -23q-35 0 -59.5 23.5t-24.5 55.5q0 84 75.5 137.5t194.5 53.5q121 0 200 -62.5t79 -162.5q0 -61 -37 -114.5t-101 -84.5q74 -31 118 -89t44 -130zM1628 1434h105l-922 -1434h-104zM2103 293v-74h-129v-219h-151v219h-402v43l426 598h127
v-567h129zM1530 293h293v416z" />
    <glyph glyph-name="questiondown" unicode="&#xbf;" horiz-adv-x="1028" 
d="M518 784q-51 0 -87 37t-36 90q0 51 36 87t87 36q53 0 90 -35.5t37 -87.5q0 -53 -37 -90t-90 -37zM817 -23q49 0 81 -29.5t32 -76.5q0 -129 -119 -215t-293 -86q-176 0 -292.5 91t-116.5 228q0 74 37.5 143.5t91 122t107.5 103.5t92 111.5t38 122.5v86h92v-103
q0 -68 -44 -142.5t-96 -131t-96 -138t-44 -163.5q0 -106 69.5 -172t192.5 -66q166 0 237 105q-33 10 -53 37.5t-20 66.5q0 45 29.5 75.5t74.5 30.5z" />
    <glyph glyph-name="Agrave" unicode="&#xc0;" horiz-adv-x="1540" 
d="M850 1591h-94l-281 246h246zM1251 0l-174 401h-690l-172 -401h-113l629 1434h80l627 -1434h-187zM426 492h610l-305 704z" />
    <glyph glyph-name="Aacute" unicode="&#xc1;" horiz-adv-x="1540" 
d="M1069 1837l-281 -246h-94l129 246h246zM1251 0l-174 401h-690l-172 -401h-113l629 1434h80l627 -1434h-187zM426 492h610l-305 704z" />
    <glyph glyph-name="Acircumflex" unicode="&#xc2;" horiz-adv-x="1540" 
d="M770 1720l-231 -139l-47 45l239 227h78l242 -227l-47 -45zM1251 0l-174 401h-690l-172 -401h-113l629 1434h80l627 -1434h-187zM426 492h610l-305 704z" />
    <glyph glyph-name="Atilde" unicode="&#xc3;" horiz-adv-x="1540" 
d="M641 1726q-37 0 -63.5 -31.5t-28.5 -84.5h-86q0 100 52 165.5t132 65.5q66 0 139.5 -64.5t112.5 -64.5t63.5 32t28.5 87h86q0 -100 -52 -166t-134 -66q-55 0 -99 32t-80 63.5t-71 31.5zM1251 0l-174 401h-690l-172 -401h-113l629 1434h80l627 -1434h-187zM426 492h610
l-305 704z" />
    <glyph glyph-name="Adieresis" unicode="&#xc4;" horiz-adv-x="1540" 
d="M575 1583q-43 0 -72.5 27.5t-29.5 70.5q0 45 29.5 74t75.5 29q43 0 71.5 -29t28.5 -72t-29 -71.5t-74 -28.5zM967 1583q-43 0 -73 28.5t-30 71.5t30 72t75 29q41 0 69.5 -29t28.5 -72t-28.5 -71.5t-71.5 -28.5zM1251 0l-174 401h-690l-172 -401h-113l629 1434h80
l627 -1434h-187zM426 492h610l-305 704z" />
    <glyph glyph-name="Aring" unicode="&#xc5;" horiz-adv-x="1540" 
d="M774 1556q-70 0 -118 45.5t-48 110.5q0 70 47 115t117 45t115 -45t45 -115q0 -66 -45 -111t-113 -45zM774 1806q-41 0 -67.5 -25.5t-26.5 -68.5q0 -41 26.5 -65.5t67.5 -24.5q37 0 61.5 24.5t24.5 65.5q0 43 -24.5 68.5t-61.5 25.5zM1251 0l-174 401h-690l-172 -401h-113
l629 1434h80l627 -1434h-187zM426 492h610l-305 704z" />
    <glyph glyph-name="AE" unicode="&#xc6;" horiz-adv-x="1959" 
d="M1073 90h764v-90h-942v416h-510l-240 -416h-114l833 1434h953v-91h-744v-571h580v-90h-580v-592zM438 506h457v790z" />
    <glyph glyph-name="Ccedilla" unicode="&#xc7;" horiz-adv-x="1611" 
d="M1473 262q-63 -119 -209 -196.5t-328 -85.5l-64 -99q20 6 43 6q74 0 125.5 -47t51.5 -112q0 -72 -61.5 -119t-149.5 -47q-106 0 -170 67l43 56q43 -39 108 -39q49 0 80 24.5t31 63.5q0 37 -26.5 61.5t-65.5 24.5q-51 0 -80 -35l-51 33l90 164q-301 23 -499 228.5
t-198 506.5q0 313 215 525t541 212q233 0 395 -109.5t162 -257.5q0 -47 -29.5 -76.5t-76.5 -29.5t-79 30.5t-32 75.5q0 82 76 103q-43 76 -140.5 121t-230.5 45q-281 0 -447.5 -173t-166.5 -464q0 -293 167 -467t439 -174q156 0 279.5 64.5t191.5 176.5z" />
    <glyph glyph-name="Egrave" unicode="&#xc8;" horiz-adv-x="1370" 
d="M844 1591h-94l-281 246h246zM416 90h831v-90h-1009v1434h989v-91h-811v-571h647v-90h-647v-592z" />
    <glyph glyph-name="Eacute" unicode="&#xc9;" horiz-adv-x="1370" 
d="M1063 1837l-281 -246h-94l129 246h246zM416 90h831v-90h-1009v1434h989v-91h-811v-571h647v-90h-647v-592z" />
    <glyph glyph-name="Ecircumflex" unicode="&#xca;" horiz-adv-x="1370" 
d="M764 1720l-232 -139l-47 45l240 227h78l241 -227l-47 -45zM416 90h831v-90h-1009v1434h989v-91h-811v-571h647v-90h-647v-592z" />
    <glyph glyph-name="Edieresis" unicode="&#xcb;" horiz-adv-x="1370" 
d="M569 1583q-43 0 -72.5 27.5t-29.5 70.5q0 45 29.5 74t74.5 29q43 0 72 -29t29 -72t-29 -71.5t-74 -28.5zM961 1583q-43 0 -73 28.5t-30 71.5t30 72t75 29q41 0 69.5 -29t28.5 -72t-28.5 -71.5t-71.5 -28.5zM416 90h831v-90h-1009v1434h989v-91h-811v-571h647v-90h-647
v-592z" />
    <glyph glyph-name="Igrave" unicode="&#xcc;" horiz-adv-x="655" 
d="M311 1591l-280 246h245l130 -246h-95zM238 0v1434h178v-1434h-178z" />
    <glyph glyph-name="Iacute" unicode="&#xcd;" horiz-adv-x="655" 
d="M344 1591h-94l129 246h246zM238 0v1434h178v-1434h-178z" />
    <glyph glyph-name="Icircumflex" unicode="&#xce;" horiz-adv-x="655" 
d="M367 1853l241 -227l-47 -45l-233 139l-232 -139l-47 45l240 227h78zM238 0v1434h178v-1434h-178z" />
    <glyph glyph-name="Idieresis" unicode="&#xcf;" horiz-adv-x="655" 
d="M131 1583q-43 0 -72.5 27.5t-29.5 70.5q0 45 29.5 74t74.5 29q43 0 71.5 -29t28.5 -72t-28.5 -71.5t-73.5 -28.5zM522 1583q-43 0 -72.5 28.5t-29.5 71.5t29.5 72t74.5 29q41 0 70 -29t29 -72t-29 -71.5t-72 -28.5zM238 0v1434h178v-1434h-178z" />
    <glyph glyph-name="Eth" unicode="&#xd0;" horiz-adv-x="1679" 
d="M770 1434q328 0 547 -206t219 -511t-219 -511t-547 -206h-532v672h-140v90h140v672h532zM748 90q272 0 437 171t165 455.5t-165 455.5t-437 171h-332v-581h241v-90h-241v-582h332z" />
    <glyph glyph-name="Ntilde" unicode="&#xd1;" horiz-adv-x="1654" 
d="M723 1726q-37 0 -63.5 -31.5t-28.5 -84.5h-86q0 100 52 165.5t132 65.5q66 0 139.5 -64.5t112.5 -64.5t63.5 32t28.5 87h86q0 -100 -52 -166t-134 -66q-55 0 -99.5 32t-80 63.5t-70.5 31.5zM1319 1434h98v-1434h-69l-1012 1231v-1231h-98v1434h153l928 -1133v1133z" />
    <glyph glyph-name="Ograve" unicode="&#xd2;" horiz-adv-x="1779" 
d="M874 1591l-280 246h246l129 -246h-95zM890.5 -20q-319.5 0 -533.5 210.5t-214 526t214 526.5t533.5 211t532.5 -211t213 -526.5t-213 -526t-532.5 -210.5zM891 70q254 0 406.5 177t152.5 470t-152.5 470t-406.5 177t-407.5 -177t-153.5 -470t153.5 -470t407.5 -177z" />
    <glyph glyph-name="Oacute" unicode="&#xd3;" horiz-adv-x="1779" 
d="M907 1591h-94l129 246h246zM890.5 -20q-319.5 0 -533.5 210.5t-214 526t214 526.5t533.5 211t532.5 -211t213 -526.5t-213 -526t-532.5 -210.5zM891 70q254 0 406.5 177t152.5 470t-152.5 470t-406.5 177t-407.5 -177t-153.5 -470t153.5 -470t407.5 -177z" />
    <glyph glyph-name="Ocircumflex" unicode="&#xd4;" horiz-adv-x="1779" 
d="M889 1720l-232 -139l-47 45l240 227h78l241 -227l-47 -45zM890.5 1454q319.5 0 532.5 -211t213 -526.5t-213 -526t-532.5 -210.5t-533.5 210.5t-214 526t214 526.5t533.5 211zM891 70q254 0 406.5 177t152.5 470t-152.5 470t-406.5 177t-407.5 -177t-153.5 -470
t153.5 -470t407.5 -177z" />
    <glyph glyph-name="Otilde" unicode="&#xd5;" horiz-adv-x="1779" 
d="M1010 1599q-55 0 -99.5 32t-80 63.5t-70.5 31.5q-37 0 -63.5 -31.5t-28.5 -84.5h-86q0 100 52 165.5t132 65.5q66 0 139.5 -64.5t112.5 -64.5t63.5 32t28.5 87h86q0 -100 -52 -166t-134 -66zM890.5 -20q-319.5 0 -533.5 210.5t-214 526t214 526.5t533.5 211t532.5 -211
t213 -526.5t-213 -526t-532.5 -210.5zM891 70q254 0 406.5 177t152.5 470t-152.5 470t-406.5 177t-407.5 -177t-153.5 -470t153.5 -470t407.5 -177z" />
    <glyph glyph-name="Odieresis" unicode="&#xd6;" horiz-adv-x="1779" 
d="M694 1583q-43 0 -72.5 27.5t-29.5 70.5q0 45 29.5 74t74.5 29q43 0 72 -29t29 -72t-29 -71.5t-74 -28.5zM1085 1583q-43 0 -72.5 28.5t-29.5 71.5t29.5 72t74.5 29q41 0 70 -29t29 -72t-29 -71.5t-72 -28.5zM890.5 -20q-319.5 0 -533.5 210.5t-214 526t214 526.5
t533.5 211t532.5 -211t213 -526.5t-213 -526t-532.5 -210.5zM891 70q254 0 406.5 177t152.5 470t-152.5 470t-406.5 177t-407.5 -177t-153.5 -470t153.5 -470t407.5 -177z" />
    <glyph glyph-name="multiply" unicode="&#xd7;" horiz-adv-x="1036" 
d="M840 872l-258 -258l258 -258l-64 -63l-258 258l-258 -258l-63 63l258 258l-258 258l63 64l258 -258l258 258z" />
    <glyph glyph-name="Oslash" unicode="&#xd8;" horiz-adv-x="1779" 
d="M1382 1280q254 -215 254 -563q0 -315 -213 -526t-532 -211q-240 0 -426 124l-98 -124h-103l135 172q-256 219 -256 565q0 315 214 526t534 211q240 0 426 -125l98 125h103zM330 717q0 -287 147 -463l770 983q-145 127 -356 127q-254 0 -407.5 -177t-153.5 -470zM891 70
q254 0 406.5 177t152.5 470q0 287 -147 463l-768 -985q147 -125 356 -125z" />
    <glyph glyph-name="Ugrave" unicode="&#xd9;" horiz-adv-x="1642" 
d="M831 1591l-280 246h246l129 -246h-95zM848 -20q-276 0 -450.5 161.5t-174.5 425.5v867h178v-899q0 -203 130.5 -324t342.5 -121q205 0 326 121t121 324v899h98v-902q0 -252 -153.5 -402t-417.5 -150z" />
    <glyph glyph-name="Uacute" unicode="&#xda;" horiz-adv-x="1642" 
d="M864 1591h-94l129 246h246zM848 -20q-276 0 -450.5 161.5t-174.5 425.5v867h178v-899q0 -203 130.5 -324t342.5 -121q205 0 326 121t121 324v899h98v-902q0 -252 -153.5 -402t-417.5 -150z" />
    <glyph glyph-name="Ucircumflex" unicode="&#xdb;" horiz-adv-x="1642" 
d="M846 1720l-232 -139l-47 45l240 227h78l241 -227l-47 -45zM1321 1434h98v-902q0 -252 -153.5 -402t-417.5 -150q-276 0 -450.5 161.5t-174.5 425.5v867h178v-899q0 -203 130.5 -324t342.5 -121q205 0 326 121t121 324v899z" />
    <glyph glyph-name="Udieresis" unicode="&#xdc;" horiz-adv-x="1642" 
d="M651 1583q-43 0 -72.5 27.5t-29.5 70.5q0 45 29.5 74t74.5 29q43 0 72 -29t29 -72t-29 -71.5t-74 -28.5zM1042 1583q-43 0 -72.5 28.5t-29.5 71.5t29.5 72t74.5 29q41 0 70 -29t29 -72t-29 -71.5t-72 -28.5zM848 -20q-276 0 -450.5 161.5t-174.5 425.5v867h178v-899
q0 -203 130.5 -324t342.5 -121q205 0 326 121t121 324v899h98v-902q0 -252 -153.5 -402t-417.5 -150z" />
    <glyph glyph-name="Yacute" unicode="&#xdd;" horiz-adv-x="1472" 
d="M1034 1837l-280 -246h-95l129 246h246zM1253 1434h117l-545 -820v-614h-178v614l-545 820h199l477 -719z" />
    <glyph glyph-name="Thorn" unicode="&#xde;" horiz-adv-x="1423" 
d="M825 1143q209 0 349.5 -119t140.5 -297t-140.5 -297t-349.5 -119h-409v-311h-178v1434h178v-291h409zM782 401q158 0 252 89.5t94 236.5t-94 236.5t-252 89.5h-366v-652h366z" />
    <glyph glyph-name="germandbls" unicode="&#xdf;" horiz-adv-x="1263" 
d="M926 594q51 -27 88 -50.5t81 -62.5t66.5 -92t22.5 -117q0 -129 -95.5 -210.5t-248.5 -81.5q-141 0 -236.5 65.5t-95.5 159.5q0 43 28.5 69.5t71.5 26.5q41 0 67.5 -26.5t26.5 -69.5q0 -55 -45 -84q59 -59 166 -60q90 0 140.5 43t50.5 115q0 133 -191 230q-59 29 -94 50
t-83 59t-71.5 87t-23.5 109q0 135 160 262q53 43 74.5 61.5t45 60.5t23.5 89q0 82 -57.5 130t-151.5 48q-119 0 -190.5 -72.5t-71.5 -193.5v-1139h-178v1077q0 178 120.5 298t299.5 120q143 0 237 -76t94 -190q0 -121 -139 -232q-41 -33 -59.5 -49t-38 -51t-19.5 -74
q0 -41 14.5 -72.5t53.5 -61.5t67 -46t91 -49z" />
    <glyph glyph-name="agrave" unicode="&#xe0;" horiz-adv-x="1267" 
d="M717 1202h-94l-281 246h246zM618 1044q199 0 327 -102t128 -258v-684h-178v137q-63 -70 -171 -113.5t-218 -43.5q-150 0 -256.5 82.5t-106.5 205.5q0 129 122 213t313 84q213 0 317 -67v184q0 119 -82 195.5t-215 76.5q-145 0 -221 -69q45 -29 45 -86q0 -45 -28.5 -74
t-71.5 -29q-47 0 -78 29t-31 74q0 104 118.5 174.5t286.5 70.5zM578 92q203 0 317 137v185q-84 68 -264 67q-143 0 -222 -52t-79 -144q0 -86 67.5 -139.5t180.5 -53.5z" />
    <glyph glyph-name="aacute" unicode="&#xe1;" horiz-adv-x="1267" 
d="M936 1448l-281 -246h-94l129 246h246zM618 1044q199 0 327 -102t128 -258v-684h-178v137q-63 -70 -171 -113.5t-218 -43.5q-150 0 -256.5 82.5t-106.5 205.5q0 129 122 213t313 84q213 0 317 -67v184q0 119 -82 195.5t-215 76.5q-145 0 -221 -69q45 -29 45 -86
q0 -45 -28.5 -74t-71.5 -29q-47 0 -78 29t-31 74q0 104 118.5 174.5t286.5 70.5zM578 92q203 0 317 137v185q-84 68 -264 67q-143 0 -222 -52t-79 -144q0 -86 67.5 -139.5t180.5 -53.5z" />
    <glyph glyph-name="acircumflex" unicode="&#xe2;" horiz-adv-x="1267" 
d="M639 1331l-231 -139l-48 45l240 227h78l242 -227l-48 -45zM618 1044q199 0 327 -102t128 -258v-684h-178v137q-63 -70 -171 -113.5t-218 -43.5q-150 0 -256.5 82.5t-106.5 205.5q0 129 122 213t313 84q213 0 317 -67v184q0 119 -82 195.5t-215 76.5q-145 0 -221 -69
q45 -29 45 -86q0 -45 -28.5 -74t-71.5 -29q-47 0 -78 29t-31 74q0 104 118.5 174.5t286.5 70.5zM578 92q203 0 317 137v185q-84 68 -264 67q-143 0 -222 -52t-79 -144q0 -86 67.5 -139.5t180.5 -53.5z" />
    <glyph glyph-name="atilde" unicode="&#xe3;" horiz-adv-x="1267" 
d="M510 1337q-37 0 -63.5 -31.5t-28.5 -84.5h-86q0 100 52 165.5t132 65.5q66 0 139.5 -64.5t112.5 -64.5t63.5 31.5t28.5 87.5h86q0 -100 -52 -166t-134 -66q-55 0 -99.5 32t-80 63.5t-70.5 31.5zM618 1044q199 0 327 -102t128 -258v-684h-178v137q-63 -70 -171 -113.5
t-218 -43.5q-150 0 -256.5 82.5t-106.5 205.5q0 129 122 213t313 84q213 0 317 -67v184q0 119 -82 195.5t-215 76.5q-145 0 -221 -69q45 -29 45 -86q0 -45 -28.5 -74t-71.5 -29q-47 0 -78 29t-31 74q0 104 118.5 174.5t286.5 70.5zM578 92q203 0 317 137v185q-84 68 -264 67
q-143 0 -222 -52t-79 -144q0 -86 67.5 -139.5t180.5 -53.5z" />
    <glyph glyph-name="adieresis" unicode="&#xe4;" horiz-adv-x="1267" 
d="M444 1194q-43 0 -72.5 27.5t-29.5 70.5q0 45 29.5 74t74.5 29q43 0 72 -29t29 -72t-29 -71.5t-74 -28.5zM836 1194q-43 0 -73 28.5t-30 71.5t30 72t75 29q41 0 69.5 -29t28.5 -72t-28.5 -71.5t-71.5 -28.5zM618 1044q199 0 327 -102t128 -258v-684h-178v137
q-63 -70 -171 -113.5t-218 -43.5q-150 0 -256.5 82.5t-106.5 205.5q0 129 122 213t313 84q213 0 317 -67v184q0 119 -82 195.5t-215 76.5q-145 0 -221 -69q45 -29 45 -86q0 -45 -28.5 -74t-71.5 -29q-47 0 -78 29t-31 74q0 104 118.5 174.5t286.5 70.5zM578 92
q203 0 317 137v185q-84 68 -264 67q-143 0 -222 -52t-79 -144q0 -86 67.5 -139.5t180.5 -53.5z" />
    <glyph glyph-name="aring" unicode="&#xe5;" horiz-adv-x="1267" 
d="M643 1167q-70 0 -118 45t-48 111q0 70 47 115t117 45t115 -45t45 -115q0 -66 -45 -111t-113 -45zM643 1417q-41 0 -67.5 -25.5t-26.5 -68.5q0 -41 26.5 -65.5t67.5 -24.5q37 0 61.5 24.5t24.5 65.5q0 43 -24.5 68.5t-61.5 25.5zM618 1044q199 0 327 -102t128 -258v-684
h-178v137q-63 -70 -171 -113.5t-218 -43.5q-150 0 -256.5 82.5t-106.5 205.5q0 129 122 213t313 84q213 0 317 -67v184q0 119 -82 195.5t-215 76.5q-145 0 -221 -69q45 -29 45 -86q0 -45 -28.5 -74t-71.5 -29q-47 0 -78 29t-31 74q0 104 118.5 174.5t286.5 70.5zM578 92
q203 0 317 137v185q-84 68 -264 67q-143 0 -222 -52t-79 -144q0 -86 67.5 -139.5t180.5 -53.5z" />
    <glyph glyph-name="ae" unicode="&#xe6;" horiz-adv-x="2050" 
d="M1788 352q43 0 71.5 -29.5t28.5 -72.5q0 -115 -126 -192.5t-304 -77.5q-150 0 -271.5 59t-195.5 164q-68 -98 -196.5 -160.5t-272.5 -62.5q-156 0 -267.5 83.5t-111.5 204.5q0 129 122 213t313 84q213 0 317 -67v186q0 119 -86 195.5t-223 76.5t-211 -69q47 -27 47 -88
q0 -45 -28.5 -74t-71.5 -29q-47 0 -78 29t-31 74q0 104 116.5 174.5t284.5 70.5q135 0 241 -54t161 -142q156 197 411 196q209 0 345.5 -149.5t136.5 -372.5h-828q2 -211 115 -330.5t307 -119.5q162 0 236 86q-57 25 -58 92q0 43 31 72.5t76 29.5zM1417 954q-133 0 -222 -93
t-110 -249h644q-12 158 -95.5 250t-216.5 92zM594 92q109 0 203 50.5t149 136.5q-31 61 -43 133q-84 70 -270 69q-143 0 -223 -53t-80 -141t73.5 -141.5t190.5 -53.5z" />
    <glyph glyph-name="ccedilla" unicode="&#xe7;" horiz-adv-x="1220" 
d="M1077 162q-41 -80 -144.5 -130t-236.5 -52l-63 -99q23 6 43 6q74 0 125 -47t51 -112q0 -72 -61.5 -119t-149.5 -47q-106 0 -170 67l43 56q43 -39 109 -39q49 0 79.5 24.5t30.5 63.5q0 37 -26.5 61.5t-65.5 24.5q-51 0 -80 -35l-51 33l92 168q-205 29 -333 176t-128 350
q0 227 157 379.5t390 152.5q162 0 270.5 -73.5t108.5 -184.5q0 -45 -28.5 -74.5t-71.5 -29.5q-47 0 -78 29.5t-31 74.5q0 68 64 95q-66 70 -197 69q-184 0 -290.5 -118.5t-106.5 -319.5q0 -199 108.5 -317.5t290.5 -118.5q94 0 173 39t114 102z" />
    <glyph glyph-name="egrave" unicode="&#xe8;" 
d="M737 1202h-94l-281 246h246zM1034 352q43 0 72 -29.5t29 -72.5q0 -115 -126 -192.5t-302 -77.5q-246 0 -406 152.5t-160 379.5t154 379.5t375 152.5q213 0 349 -149.5t136 -372.5h-827q2 -211 113.5 -330.5t306.5 -119.5q162 0 237 86q-57 27 -57 92q0 43 30.5 72.5
t75.5 29.5zM666 954q-133 0 -223.5 -93t-110.5 -249h643q-12 158 -95 250t-214 92z" />
    <glyph glyph-name="eacute" unicode="&#xe9;" 
d="M956 1448l-280 -246h-94l129 246h245zM1034 352q43 0 72 -29.5t29 -72.5q0 -115 -126 -192.5t-302 -77.5q-246 0 -406 152.5t-160 379.5t154 379.5t375 152.5q213 0 349 -149.5t136 -372.5h-827q2 -211 113.5 -330.5t306.5 -119.5q162 0 237 86q-57 27 -57 92
q0 43 30.5 72.5t75.5 29.5zM666 954q-133 0 -223.5 -93t-110.5 -249h643q-12 158 -95 250t-214 92z" />
    <glyph glyph-name="ecircumflex" unicode="&#xea;" 
d="M657 1331l-231 -139l-47 45l239 227h78l242 -227l-47 -45zM1034 352q43 0 72 -29.5t29 -72.5q0 -115 -126 -192.5t-302 -77.5q-246 0 -406 152.5t-160 379.5t154 379.5t375 152.5q213 0 349 -149.5t136 -372.5h-827q2 -211 113.5 -330.5t306.5 -119.5q162 0 237 86
q-57 27 -57 92q0 43 30.5 72.5t75.5 29.5zM666 954q-133 0 -223.5 -93t-110.5 -249h643q-12 158 -95 250t-214 92z" />
    <glyph glyph-name="edieresis" unicode="&#xeb;" 
d="M463 1194q-43 0 -73 27.5t-30 70.5q0 45 30 74t75 29q43 0 71.5 -29t28.5 -72t-28.5 -71.5t-73.5 -28.5zM854 1194q-43 0 -72.5 28.5t-29.5 71.5t29.5 72t74.5 29q41 0 69.5 -29t28.5 -72t-28.5 -71.5t-71.5 -28.5zM1034 352q43 0 72 -29.5t29 -72.5q0 -115 -126 -192.5
t-302 -77.5q-246 0 -406 152.5t-160 379.5t154 379.5t375 152.5q213 0 349 -149.5t136 -372.5h-827q2 -211 113.5 -330.5t306.5 -119.5q162 0 237 86q-57 27 -57 92q0 43 30.5 72.5t75.5 29.5zM666 954q-133 0 -223.5 -93t-110.5 -249h643q-12 158 -95 250t-214 92z" />
    <glyph glyph-name="igrave" unicode="&#xec;" horiz-adv-x="614" 
d="M291 1202l-281 246h246l129 -246h-94zM217 0v989l178 45v-1034h-178z" />
    <glyph glyph-name="iacute" unicode="&#xed;" horiz-adv-x="614" 
d="M324 1202h-95l129 246h246zM217 0v989l178 45v-1034h-178z" />
    <glyph glyph-name="icircumflex" unicode="&#xee;" horiz-adv-x="614" 
d="M346 1464l242 -227l-47 -45l-234 139l-231 -139l-47 45l239 227h78zM217 0v989l178 45v-1034h-178z" />
    <glyph glyph-name="idieresis" unicode="&#xef;" horiz-adv-x="614" 
d="M111 1194q-43 0 -73 27.5t-30 70.5q0 45 30 74t75 29q43 0 71.5 -29t28.5 -72t-28.5 -71.5t-73.5 -28.5zM502 1194q-43 0 -73 28.5t-30 71.5t30 72t75 29q41 0 69.5 -29t28.5 -72t-28.5 -71.5t-71.5 -28.5zM217 0v989l178 45v-1034h-178z" />
    <glyph glyph-name="eth" unicode="&#xf0;" horiz-adv-x="1361" 
d="M942 1307q133 -121 206 -297t73 -383q0 -307 -149.5 -477t-387.5 -170q-231 0 -387 152.5t-156 379.5t155 379.5t384 152.5q186 0 317 -108q-51 199 -159 313l-197 -106l-41 69l174 95q-109 84 -266 106l12 82q203 -25 354 -133l170 92l41 -70zM680 70q162 0 258 122.5
t96 325.5q0 201 -96 318.5t-256 117.5q-162 0 -258 -119.5t-96 -322.5t97 -322.5t255 -119.5z" />
    <glyph glyph-name="ntilde" unicode="&#xf1;" horiz-adv-x="1347" 
d="M557 1337q-37 0 -63.5 -31.5t-28.5 -84.5h-86q0 100 52 165.5t132 65.5q66 0 139.5 -64.5t112.5 -64.5t63.5 31.5t28.5 87.5h86q0 -100 -52 -166t-134 -66q-55 0 -99 32t-80 63.5t-71 31.5zM786 1044q160 0 264.5 -99t104.5 -249v-696h-178v692q0 102 -70.5 171
t-177.5 69q-102 0 -195.5 -61.5t-138.5 -161.5v-709h-178v989l178 45v-207q53 96 159.5 156.5t231.5 60.5z" />
    <glyph glyph-name="ograve" unicode="&#xf2;" horiz-adv-x="1361" 
d="M666 1202l-281 246h246l129 -246h-94zM682 -20q-231 0 -386 152.5t-155 379.5t155 379.5t386 152.5q229 0 384 -152.5t155 -379.5t-155 -379.5t-384 -152.5zM682 70q160 0 256 119.5t96 322.5t-96 322.5t-256 119.5q-162 0 -258 -119.5t-96 -322.5t96 -322.5t258 -119.5z
" />
    <glyph glyph-name="oacute" unicode="&#xf3;" horiz-adv-x="1361" 
d="M698 1202h-94l129 246h246zM682 -20q-231 0 -386 152.5t-155 379.5t155 379.5t386 152.5q229 0 384 -152.5t155 -379.5t-155 -379.5t-384 -152.5zM682 70q160 0 256 119.5t96 322.5t-96 322.5t-256 119.5q-162 0 -258 -119.5t-96 -322.5t96 -322.5t258 -119.5z" />
    <glyph glyph-name="ocircumflex" unicode="&#xf4;" horiz-adv-x="1361" 
d="M680 1331l-231 -139l-48 45l240 227h78l242 -227l-48 -45zM682 1044q229 0 384 -152.5t155 -379.5t-155 -379.5t-384 -152.5q-231 0 -386 152.5t-155 379.5t155 379.5t386 152.5zM682 70q160 0 256 119.5t96 322.5t-96 322.5t-256 119.5q-162 0 -258 -119.5t-96 -322.5
t96 -322.5t258 -119.5z" />
    <glyph glyph-name="otilde" unicode="&#xf5;" horiz-adv-x="1361" 
d="M801 1210q-55 0 -99.5 32t-80 63.5t-70.5 31.5q-37 0 -63.5 -31.5t-28.5 -84.5h-86q0 100 52 165.5t132 65.5q66 0 139.5 -64.5t112.5 -64.5t63.5 31.5t28.5 87.5h86q0 -100 -52 -166t-134 -66zM682 -20q-231 0 -386 152.5t-155 379.5t155 379.5t386 152.5
q229 0 384 -152.5t155 -379.5t-155 -379.5t-384 -152.5zM682 70q160 0 256 119.5t96 322.5t-96 322.5t-256 119.5q-162 0 -258 -119.5t-96 -322.5t96 -322.5t258 -119.5z" />
    <glyph glyph-name="odieresis" unicode="&#xf6;" horiz-adv-x="1361" 
d="M485 1194q-43 0 -72.5 27.5t-29.5 70.5q0 45 29.5 74t74.5 29q43 0 72 -29t29 -72t-29 -71.5t-74 -28.5zM877 1194q-43 0 -73 28.5t-30 71.5t30 72t75 29q41 0 69.5 -29t28.5 -72t-28.5 -71.5t-71.5 -28.5zM682 -20q-231 0 -386 152.5t-155 379.5t155 379.5t386 152.5
q229 0 384 -152.5t155 -379.5t-155 -379.5t-384 -152.5zM682 70q160 0 256 119.5t96 322.5t-96 322.5t-256 119.5q-162 0 -258 -119.5t-96 -322.5t96 -322.5t258 -119.5z" />
    <glyph glyph-name="divide" unicode="&#xf7;" horiz-adv-x="1210" 
d="M610 805q-45 0 -72.5 26.5t-27.5 67.5q0 43 27.5 69.5t72.5 26.5q41 0 66.5 -26.5t25.5 -69.5q0 -41 -25.5 -67.5t-66.5 -26.5zM197 569v90h819v-90h-819zM610 233q-45 0 -72.5 27t-27.5 70q0 41 27.5 67.5t72.5 26.5q41 0 66.5 -26.5t25.5 -67.5q0 -43 -25.5 -70
t-66.5 -27z" />
    <glyph glyph-name="oslash" unicode="&#xf8;" horiz-adv-x="1361" 
d="M1044 911q176 -154 177 -399q0 -227 -155 -379.5t-384 -152.5q-166 0 -299 83l-66 -83h-102l102 133q-176 156 -176 399q0 227 155 379.5t386 152.5q166 0 299 -83l66 83h102zM328 512q0 -176 75 -293l504 647q-88 88 -225 88q-162 0 -258 -119.5t-96 -322.5zM682 70
q160 0 256 119.5t96 322.5q0 176 -73 291l-506 -647q92 -86 227 -86z" />
    <glyph glyph-name="ugrave" unicode="&#xf9;" horiz-adv-x="1341" 
d="M741 1202h-94l-280 246h245zM944 989l178 45v-1034h-178v195q-55 -96 -157.5 -155.5t-223.5 -59.5q-156 0 -260 99t-104 249v661l178 45v-702q0 -102 68.5 -171t172.5 -69q98 0 189.5 62.5t136.5 160.5v674z" />
    <glyph glyph-name="uacute" unicode="&#xfa;" horiz-adv-x="1341" 
d="M963 1448l-281 -246h-94l129 246h246zM944 989l178 45v-1034h-178v195q-55 -96 -157.5 -155.5t-223.5 -59.5q-156 0 -260 99t-104 249v661l178 45v-702q0 -102 68.5 -171t172.5 -69q98 0 189.5 62.5t136.5 160.5v674z" />
    <glyph glyph-name="ucircumflex" unicode="&#xfb;" horiz-adv-x="1341" 
d="M664 1331l-232 -139l-47 45l240 227h77l242 -227l-47 -45zM944 989l178 45v-1034h-178v195q-55 -96 -157.5 -155.5t-223.5 -59.5q-156 0 -260 99t-104 249v661l178 45v-702q0 -102 68.5 -171t172.5 -69q98 0 189.5 62.5t136.5 160.5v674z" />
    <glyph glyph-name="udieresis" unicode="&#xfc;" horiz-adv-x="1341" 
d="M469 1194q-43 0 -72.5 27.5t-29.5 70.5q0 45 29.5 74t74.5 29q43 0 71.5 -29t28.5 -72t-28.5 -71.5t-73.5 -28.5zM860 1194q-43 0 -72.5 28.5t-29.5 71.5t29.5 72t74.5 29q41 0 70 -29t29 -72t-29 -71.5t-72 -28.5zM944 989l178 45v-1034h-178v195q-55 -96 -157.5 -155.5
t-223.5 -59.5q-156 0 -260 99t-104 249v661l178 45v-702q0 -102 68.5 -171t172.5 -69q98 0 189.5 62.5t136.5 160.5v674z" />
    <glyph glyph-name="yacute" unicode="&#xfd;" horiz-adv-x="1126" 
d="M883 1448l-281 -246h-94l129 246h246zM946 1024h113l-600 -1368q-55 -127 -191 -127q-68 0 -118 42t-50 101q0 39 30 68t71 29t67.5 -28t26.5 -69q0 -37 -19 -61q68 0 95 65l149 353l-436 995h186l340 -786z" />
    <glyph glyph-name="thorn" unicode="&#xfe;" horiz-adv-x="1380" 
d="M754 1044q201 0 343 -153.5t142 -378.5t-142.5 -378.5t-346.5 -153.5q-219 0 -355 165v-596h-178v1901l178 45v-635q59 86 153.5 135t205.5 49zM705 86q156 0 252 116.5t96 309.5q0 190 -95.5 308t-246.5 118q-96 0 -180.5 -50t-135.5 -138v-486q47 -84 129.5 -131
t180.5 -47z" />
    <glyph glyph-name="ydieresis" unicode="&#xff;" horiz-adv-x="1126" 
d="M389 1194q-43 0 -72.5 27.5t-29.5 70.5q0 45 29.5 74t74.5 29q43 0 72 -29t29 -72t-29 -71.5t-74 -28.5zM780 1194q-43 0 -72.5 28.5t-29.5 71.5t29.5 72t74.5 29q41 0 70 -29t29 -72t-29 -71.5t-72 -28.5zM946 1024h113l-600 -1368q-55 -127 -191 -127q-68 0 -118 42
t-50 101q0 39 30 68t71 29t67.5 -28t26.5 -69q0 -37 -19 -61q68 0 95 65l149 353l-436 995h186l340 -786z" />
    <glyph glyph-name="Amacron" unicode="&#x100;" horiz-adv-x="1540" 
d="M1016 1772v-123h-492v123h492zM1251 0l-174 401h-690l-172 -401h-113l629 1434h80l627 -1434h-187zM426 492h610l-305 704z" />
    <glyph glyph-name="amacron" unicode="&#x101;" horiz-adv-x="1267" 
d="M885 1382v-122h-492v122h492zM618 1044q199 0 327 -102t128 -258v-684h-178v137q-63 -70 -171 -113.5t-218 -43.5q-150 0 -256.5 82.5t-106.5 205.5q0 129 122 213t313 84q213 0 317 -67v184q0 119 -82 195.5t-215 76.5q-145 0 -221 -69q45 -29 45 -86q0 -45 -28.5 -74
t-71.5 -29q-47 0 -78 29t-31 74q0 104 118.5 174.5t286.5 70.5zM578 92q203 0 317 137v185q-84 68 -264 67q-143 0 -222 -52t-79 -144q0 -86 67.5 -139.5t180.5 -53.5z" />
    <glyph glyph-name="Abreve" unicode="&#x102;" horiz-adv-x="1540" 
d="M770.5 1579q-108.5 0 -193.5 75t-85 179h90q8 -57 61 -93t127 -36q76 0 128 36t63 93h90q-2 -104 -87 -179t-193.5 -75zM1251 0l-174 401h-690l-172 -401h-113l629 1434h80l627 -1434h-187zM426 492h610l-305 704z" />
    <glyph glyph-name="abreve" unicode="&#x103;" horiz-adv-x="1267" 
d="M639 1190q-109 0 -194 74.5t-85 179.5h91q8 -57 61 -93t127 -36q76 0 128 35.5t62 93.5h91q-2 -104 -87 -179t-194 -75zM618 1044q199 0 327 -102t128 -258v-684h-178v137q-63 -70 -171 -113.5t-218 -43.5q-150 0 -256.5 82.5t-106.5 205.5q0 129 122 213t313 84
q213 0 317 -67v184q0 119 -82 195.5t-215 76.5q-145 0 -221 -69q45 -29 45 -86q0 -45 -28.5 -74t-71.5 -29q-47 0 -78 29t-31 74q0 104 118.5 174.5t286.5 70.5zM578 92q203 0 317 137v185q-84 68 -264 67q-143 0 -222 -52t-79 -144q0 -86 67.5 -139.5t180.5 -53.5z" />
    <glyph glyph-name="Aogonek" unicode="&#x104;" horiz-adv-x="1540" 
d="M1434 -305l39 -66q-53 -68 -170 -67q-84 0 -141.5 46t-57.5 113q0 74 63.5 153t159.5 126h-76l-174 401h-690l-172 -401h-113l629 1434h80l627 -1434h-4q-94 -45 -150.5 -109.5t-56.5 -123.5q0 -47 30.5 -78t81.5 -31q54 0 95 37zM426 492h610l-305 704z" />
    <glyph glyph-name="aogonek" unicode="&#x105;" horiz-adv-x="1267" 
d="M1071 -305l39 -66q-53 -68 -170 -67q-84 0 -141.5 46t-57.5 113q0 74 63.5 153t160.5 126h-70v137q-63 -70 -171 -113.5t-218 -43.5q-150 0 -256.5 82.5t-106.5 205.5q0 129 122 213t313 84q213 0 317 -67v184q0 119 -82 195.5t-215 76.5q-145 0 -221 -69q45 -29 45 -86
q0 -45 -28.5 -74t-71.5 -29q-47 0 -78 29t-31 74q0 104 119 174.5t286 70.5q199 0 327 -102t128 -258v-684h-2q-94 -45 -150.5 -109.5t-56.5 -123.5q0 -47 31 -78t82 -31q53 0 94 37zM578 92q203 0 317 137v185q-84 68 -264 67q-143 0 -222 -52t-79 -144q0 -86 67.5 -139.5
t180.5 -53.5z" />
    <glyph glyph-name="Cacute" unicode="&#x106;" horiz-adv-x="1611" 
d="M1196 1837l-281 -246h-94l129 246h246zM1407 319l66 -57q-68 -125 -222.5 -203.5t-349.5 -78.5q-322 0 -540 209.5t-218 527.5q0 313 215 525t541 212q233 0 395 -109.5t162 -257.5q0 -47 -29.5 -76.5t-76.5 -29.5t-79 30.5t-32 75.5q0 82 76 103q-43 76 -140.5 121
t-230.5 45q-281 0 -447.5 -173t-166.5 -464q0 -293 167 -467t439 -174q156 0 279.5 64t191.5 177z" />
    <glyph glyph-name="cacute" unicode="&#x107;" horiz-adv-x="1220" 
d="M948 1448l-280 -246h-95l129 246h246zM1014 217l63 -55q-41 -80 -146.5 -131t-240.5 -51q-238 0 -393.5 153.5t-155.5 378.5q0 227 157 379.5t390 152.5q162 0 270.5 -73.5t108.5 -184.5q0 -45 -28.5 -74.5t-71.5 -29.5q-47 0 -78 29.5t-31 74.5q0 68 64 95
q-66 70 -197 69q-184 0 -290.5 -118.5t-106.5 -319.5q0 -199 108.5 -317.5t290.5 -118.5q94 0 173 39t114 102z" />
    <glyph glyph-name="Ccircumflex" unicode="&#x108;" horiz-adv-x="1611" 
d="M897 1720l-231 -139l-48 45l240 227h78l242 -227l-48 -45zM1407 319l66 -57q-68 -125 -222.5 -203.5t-349.5 -78.5q-322 0 -540 209.5t-218 527.5q0 313 215 525t541 212q233 0 395 -109.5t162 -257.5q0 -47 -29.5 -76.5t-76.5 -29.5t-79 30.5t-32 75.5q0 82 76 103
q-43 76 -140.5 121t-230.5 45q-281 0 -447.5 -173t-166.5 -464q0 -293 167 -467t439 -174q156 0 279.5 64t191.5 177z" />
    <glyph glyph-name="ccircumflex" unicode="&#x109;" horiz-adv-x="1220" 
d="M649 1331l-231 -139l-47 45l239 227h78l242 -227l-47 -45zM1014 217l63 -55q-41 -80 -146.5 -131t-240.5 -51q-238 0 -393.5 153.5t-155.5 378.5q0 227 157 379.5t390 152.5q162 0 270.5 -73.5t108.5 -184.5q0 -45 -28.5 -74.5t-71.5 -29.5q-47 0 -78 29.5t-31 74.5
q0 68 64 95q-66 70 -197 69q-184 0 -290.5 -118.5t-106.5 -319.5q0 -199 108.5 -317.5t290.5 -118.5q94 0 173 39t114 102z" />
    <glyph glyph-name="Cdotaccent" unicode="&#x10a;" horiz-adv-x="1611" 
d="M899 1579q-45 0 -78 28.5t-33 75.5q0 45 33 76t80 31q45 0 75 -29.5t30 -77t-30 -76t-77 -28.5zM1407 319l66 -57q-68 -125 -222.5 -203.5t-349.5 -78.5q-322 0 -540 209.5t-218 527.5q0 313 215 525t541 212q233 0 395 -109.5t162 -257.5q0 -47 -29.5 -76.5t-76.5 -29.5
t-79 30.5t-32 75.5q0 82 76 103q-43 76 -140.5 121t-230.5 45q-281 0 -447.5 -173t-166.5 -464q0 -293 167 -467t439 -174q156 0 279.5 64t191.5 177z" />
    <glyph glyph-name="cdotaccent" unicode="&#x10b;" horiz-adv-x="1220" 
d="M651 1190q-45 0 -77.5 28.5t-32.5 75.5q0 45 32.5 76t79.5 31q45 0 75 -30t30 -77t-30 -75.5t-77 -28.5zM1014 217l63 -55q-41 -80 -146.5 -131t-240.5 -51q-238 0 -393.5 153.5t-155.5 378.5q0 227 157 379.5t390 152.5q162 0 270.5 -73.5t108.5 -184.5
q0 -45 -28.5 -74.5t-71.5 -29.5q-47 0 -78 29.5t-31 74.5q0 68 64 95q-66 70 -197 69q-184 0 -290.5 -118.5t-106.5 -319.5q0 -199 108.5 -317.5t290.5 -118.5q94 0 173 39t114 102z" />
    <glyph glyph-name="Ccaron" unicode="&#x10c;" horiz-adv-x="1611" 
d="M936 1581h-78l-240 227l48 45l231 -139l233 139l48 -45zM1407 319l66 -57q-68 -125 -222.5 -203.5t-349.5 -78.5q-322 0 -540 209.5t-218 527.5q0 313 215 525t541 212q233 0 395 -109.5t162 -257.5q0 -47 -29.5 -76.5t-76.5 -29.5t-79 30.5t-32 75.5q0 82 76 103
q-43 76 -140.5 121t-230.5 45q-281 0 -447.5 -173t-166.5 -464q0 -293 167 -467t439 -174q156 0 279.5 64t191.5 177z" />
    <glyph glyph-name="ccaron" unicode="&#x10d;" horiz-adv-x="1220" 
d="M688 1192h-78l-239 227l47 45l231 -139l234 139l47 -45zM1014 217l63 -55q-41 -80 -146.5 -131t-240.5 -51q-238 0 -393.5 153.5t-155.5 378.5q0 227 157 379.5t390 152.5q162 0 270.5 -73.5t108.5 -184.5q0 -45 -28.5 -74.5t-71.5 -29.5q-47 0 -78 29.5t-31 74.5
q0 68 64 95q-66 70 -197 69q-184 0 -290.5 -118.5t-106.5 -319.5q0 -199 108.5 -317.5t290.5 -118.5q94 0 173 39t114 102z" />
    <glyph glyph-name="Dcaron" unicode="&#x10e;" horiz-adv-x="1679" 
d="M866 1581h-78l-239 227l47 45l231 -139l234 139l47 -45zM770 1434q328 0 547 -206t219 -511t-219 -511t-547 -206h-532v1434h532zM748 90q272 0 437 171t165 455.5t-165 455.5t-437 171h-332v-1253h332z" />
    <glyph glyph-name="dcaron" unicode="&#x10f;" horiz-adv-x="1562" 
d="M983 860v590l178 45v-1495h-178v143q-133 -164 -352 -163q-205 0 -347.5 153.5t-142.5 378.5t142.5 378.5t343.5 153.5q111 0 204 -49t152 -135zM1354 1475h176l-131 -287h-86zM676 86q96 0 178 47t129 127v494q-51 88 -134 136t-179 48q-152 0 -247 -118t-95 -308
q0 -193 96 -309.5t252 -116.5z" />
    <glyph glyph-name="Dcroat" unicode="&#x110;" horiz-adv-x="1679" 
d="M770 1434q328 0 547 -206t219 -511t-219 -511t-547 -206h-532v672h-140v90h140v672h532zM748 90q272 0 437 171t165 455.5t-165 455.5t-437 171h-332v-581h241v-90h-241v-582h332z" />
    <glyph glyph-name="dcroat" unicode="&#x111;" horiz-adv-x="1380" 
d="M1294 1294v-90h-133v-1204h-178v143q-133 -164 -352 -163q-205 0 -347.5 153.5t-142.5 378.5t142.5 378.5t343.5 153.5q111 0 204 -49t152 -135v344h-248v90h248v156l178 45v-201h133zM676 86q96 0 178 47t129 127v494q-51 88 -134 136t-179 48q-152 0 -247 -118
t-95 -308q0 -193 96 -309.5t252 -116.5z" />
    <glyph glyph-name="Emacron" unicode="&#x112;" horiz-adv-x="1370" 
d="M1010 1772v-123h-492v123h492zM416 90h831v-90h-1009v1434h989v-91h-811v-571h647v-90h-647v-592z" />
    <glyph glyph-name="emacron" unicode="&#x113;" 
d="M903 1382v-122h-491v122h491zM1034 352q43 0 72 -29.5t29 -72.5q0 -115 -126 -192.5t-302 -77.5q-246 0 -406 152.5t-160 379.5t154 379.5t375 152.5q213 0 349 -149.5t136 -372.5h-827q2 -211 113.5 -330.5t306.5 -119.5q162 0 237 86q-57 27 -57 92q0 43 30.5 72.5
t75.5 29.5zM666 954q-133 0 -223.5 -93t-110.5 -249h643q-12 158 -95 250t-214 92z" />
    <glyph glyph-name="Ebreve" unicode="&#x114;" horiz-adv-x="1370" 
d="M763.5 1579q-108.5 0 -193.5 75t-85 179h90q8 -57 61.5 -93t127.5 -36q76 0 128 36t62 93h90q-2 -104 -87 -179t-193.5 -75zM416 90h831v-90h-1009v1434h989v-91h-811v-571h647v-90h-647v-592z" />
    <glyph glyph-name="ebreve" unicode="&#x115;" 
d="M657.5 1190q-108.5 0 -193.5 74.5t-85 179.5h90q8 -57 61.5 -93t126.5 -36q76 0 128.5 35.5t62.5 93.5h90q-2 -104 -87 -179t-193.5 -75zM1034 352q43 0 72 -29.5t29 -72.5q0 -115 -126 -192.5t-302 -77.5q-246 0 -406 152.5t-160 379.5t154 379.5t375 152.5
q213 0 349 -149.5t136 -372.5h-827q2 -211 113.5 -330.5t306.5 -119.5q162 0 237 86q-57 27 -57 92q0 43 30.5 72.5t75.5 29.5zM666 954q-133 0 -223.5 -93t-110.5 -249h643q-12 158 -95 250t-214 92z" />
    <glyph glyph-name="Edotaccent" unicode="&#x116;" horiz-adv-x="1370" 
d="M766 1579q-45 0 -78 28.5t-33 75.5q0 45 33 76t80 31q45 0 74.5 -29.5t29.5 -77t-29.5 -76t-76.5 -28.5zM416 90h831v-90h-1009v1434h989v-91h-811v-571h647v-90h-647v-592z" />
    <glyph glyph-name="edotaccent" unicode="&#x117;" 
d="M659 1190q-45 0 -77.5 28.5t-32.5 75.5q0 45 32.5 76t80.5 31q45 0 74.5 -30t29.5 -77t-30 -75.5t-77 -28.5zM1034 352q43 0 72 -29.5t29 -72.5q0 -115 -126 -192.5t-302 -77.5q-246 0 -406 152.5t-160 379.5t154 379.5t375 152.5q213 0 349 -149.5t136 -372.5h-827
q2 -211 113.5 -330.5t306.5 -119.5q162 0 237 86q-57 27 -57 92q0 43 30.5 72.5t75.5 29.5zM666 954q-133 0 -223.5 -93t-110.5 -249h643q-12 158 -95 250t-214 92z" />
    <glyph glyph-name="Eogonek" unicode="&#x118;" horiz-adv-x="1370" 
d="M1245 -305l39 -66q-53 -68 -170 -67q-84 0 -141.5 46t-57.5 113q0 74 63.5 153t160.5 126h-901v1434h989v-91h-811v-571h647v-90h-647v-592h831v-90h-2q-94 -45 -150.5 -109.5t-56.5 -123.5q0 -47 31 -78t82 -31q53 0 94 37z" />
    <glyph glyph-name="eogonek" unicode="&#x119;" 
d="M1034 352q43 0 72 -29.5t29 -72.5q0 -88 -77 -155.5t-202 -98.5q-90 -45 -144.5 -107.5t-54.5 -121.5q0 -47 31 -78t82 -31q53 0 94 37l39 -66q-53 -68 -170 -67q-84 0 -141 46t-57 113q0 66 51 137.5t135 121.5h-14q-246 0 -406 152.5t-160 379.5t154 379.5t375 152.5
q213 0 349 -149.5t136 -372.5h-827q2 -211 113.5 -330.5t306.5 -119.5q162 0 237 86q-57 27 -57 92q0 43 30.5 72.5t75.5 29.5zM666 954q-133 0 -223.5 -93t-110.5 -249h643q-12 158 -95 250t-214 92z" />
    <glyph glyph-name="Ecaron" unicode="&#x11a;" horiz-adv-x="1370" 
d="M803 1581h-78l-240 227l47 45l232 -139l233 139l47 -45zM416 90h831v-90h-1009v1434h989v-91h-811v-571h647v-90h-647v-592z" />
    <glyph glyph-name="ecaron" unicode="&#x11b;" 
d="M696 1192h-78l-239 227l47 45l231 -139l234 139l47 -45zM1034 352q43 0 72 -29.5t29 -72.5q0 -115 -126 -192.5t-302 -77.5q-246 0 -406 152.5t-160 379.5t154 379.5t375 152.5q213 0 349 -149.5t136 -372.5h-827q2 -211 113.5 -330.5t306.5 -119.5q162 0 237 86
q-57 27 -57 92q0 43 30.5 72.5t75.5 29.5zM666 954q-133 0 -223.5 -93t-110.5 -249h643q-12 158 -95 250t-214 92z" />
    <glyph glyph-name="Gcircumflex" unicode="&#x11c;" horiz-adv-x="1701" 
d="M901 1720l-231 -139l-47 45l239 227h78l242 -227l-47 -45zM1325 606h174v-606h-69l-58 119q-152 -139 -465 -139q-326 0 -545 210.5t-219 526t220.5 526.5t551.5 211q231 0 387 -100.5t156 -249.5q0 -47 -29.5 -77t-74.5 -30q-47 0 -79 31t-32 76q0 80 76 104
q-41 72 -136.5 111t-224.5 39q-291 0 -459.5 -175t-168.5 -472q0 -291 162.5 -466t435.5 -175q147 0 251.5 43t145.5 120v373z" />
    <glyph glyph-name="gcircumflex" unicode="&#x11d;" horiz-adv-x="1372" 
d="M682 1331l-231 -139l-48 45l240 227h78l242 -227l-48 -45zM985 989l178 45v-1104q0 -172 -140 -286.5t-357 -114.5q-178 0 -302 76t-124 186q0 45 29.5 74t76.5 29q43 0 71.5 -29t28.5 -74q0 -66 -55 -92q84 -80 242 -80q154 0 253 88t99 223v215q-135 -166 -354 -165
q-205 0 -347.5 153.5t-142.5 378.5t142.5 378.5t343.5 153.5q111 0 205 -50t153 -136v131zM676 86q98 0 180 47t129 131v486q-51 88 -135 138t-180 50q-152 0 -247 -118t-95 -308q0 -193 96 -309.5t252 -116.5z" />
    <glyph glyph-name="Gbreve" unicode="&#x11e;" horiz-adv-x="1701" 
d="M901.5 1579q-108.5 0 -193.5 75t-85 179h90q8 -57 61 -93t127 -36q76 0 128 36t63 93h90q-2 -104 -87 -179t-193.5 -75zM1325 606h174v-606h-69l-58 119q-152 -139 -465 -139q-326 0 -545 210.5t-219 526t220.5 526.5t551.5 211q231 0 387 -100.5t156 -249.5
q0 -47 -29.5 -77t-74.5 -30q-47 0 -79 31t-32 76q0 80 76 104q-41 72 -136.5 111t-224.5 39q-291 0 -459.5 -175t-168.5 -472q0 -291 162.5 -466t435.5 -175q147 0 251.5 43t145.5 120v373z" />
    <glyph glyph-name="gbreve" unicode="&#x11f;" horiz-adv-x="1372" 
d="M682 1190q-109 0 -194 74.5t-85 179.5h91q8 -57 61 -93t127 -36q76 0 128 35.5t62 93.5h91q-2 -104 -87 -179t-194 -75zM985 989l178 45v-1104q0 -172 -140 -286.5t-357 -114.5q-178 0 -302 76t-124 186q0 45 29.5 74t76.5 29q43 0 71.5 -29t28.5 -74q0 -66 -55 -92
q84 -80 242 -80q154 0 253 88t99 223v215q-135 -166 -354 -165q-205 0 -347.5 153.5t-142.5 378.5t142.5 378.5t343.5 153.5q111 0 205 -50t153 -136v131zM676 86q98 0 180 47t129 131v486q-51 88 -135 138t-180 50q-152 0 -247 -118t-95 -308q0 -193 96 -309.5t252 -116.5z
" />
    <glyph glyph-name="Gdotaccent" unicode="&#x120;" horiz-adv-x="1701" 
d="M903 1579q-45 0 -77.5 28.5t-32.5 75.5q0 45 32.5 76t79.5 31q45 0 75 -29.5t30 -77t-30 -76t-77 -28.5zM1325 606h174v-606h-69l-58 119q-152 -139 -465 -139q-326 0 -545 210.5t-219 526t220.5 526.5t551.5 211q231 0 387 -100.5t156 -249.5q0 -47 -29.5 -77t-74.5 -30
q-47 0 -79 31t-32 76q0 80 76 104q-41 72 -136.5 111t-224.5 39q-291 0 -459.5 -175t-168.5 -472q0 -291 162.5 -466t435.5 -175q147 0 251.5 43t145.5 120v373z" />
    <glyph glyph-name="gdotaccent" unicode="&#x121;" horiz-adv-x="1372" 
d="M682 1190q-45 0 -78 28.5t-33 75.5q0 45 33 76t80 31q45 0 74.5 -30t29.5 -77t-29.5 -75.5t-76.5 -28.5zM985 989l178 45v-1104q0 -172 -140 -286.5t-357 -114.5q-178 0 -302 76t-124 186q0 45 29.5 74t76.5 29q43 0 71.5 -29t28.5 -74q0 -66 -55 -92q84 -80 242 -80
q154 0 253 88t99 223v215q-135 -166 -354 -165q-205 0 -347.5 153.5t-142.5 378.5t142.5 378.5t343.5 153.5q111 0 205 -50t153 -136v131zM676 86q98 0 180 47t129 131v486q-51 88 -135 138t-180 50q-152 0 -247 -118t-95 -308q0 -193 96 -309.5t252 -116.5z" />
    <glyph glyph-name="uni0122" unicode="&#x122;" horiz-adv-x="1701" 
d="M1325 606h174v-606h-69l-58 119q-152 -139 -465 -139q-326 0 -545 210.5t-219 526t220.5 526.5t551.5 211q231 0 387 -100.5t156 -249.5q0 -47 -29.5 -77t-74.5 -30q-47 0 -79 31t-32 76q0 80 76 104q-41 72 -136.5 111t-224.5 39q-291 0 -459.5 -175t-168.5 -472
q0 -291 162.5 -466t435.5 -175q147 0 251.5 43t145.5 120v373zM899 -145q49 0 82 -33t33 -86q0 -70 -49.5 -144.5t-116.5 -109.5l-37 41q55 49 80 123q-45 2 -72.5 32.5t-27.5 75.5q0 41 31.5 71t76.5 30z" />
    <glyph glyph-name="uni0123" unicode="&#x123;" horiz-adv-x="1372" 
d="M684 1167q-49 0 -81 33t-32 86q0 70 48.5 144.5t115.5 109.5l37 -43q-57 -47 -78 -121q43 -2 72 -32.5t29 -75.5q0 -43 -32 -72t-79 -29zM985 989l178 45v-1104q0 -172 -140 -286.5t-357 -114.5q-178 0 -302 76t-124 186q0 45 29.5 74t76.5 29q43 0 71.5 -29t28.5 -74
q0 -66 -55 -92q84 -80 242 -80q154 0 253 88t99 223v215q-135 -166 -354 -165q-205 0 -347.5 153.5t-142.5 378.5t142.5 378.5t343.5 153.5q111 0 205 -50t153 -136v131zM676 86q98 0 180 47t129 131v486q-51 88 -135 138t-180 50q-152 0 -247 -118t-95 -308
q0 -193 96 -309.5t252 -116.5z" />
    <glyph glyph-name="Hcircumflex" unicode="&#x124;" horiz-adv-x="1685" 
d="M842 1720l-232 -139l-47 45l240 227h78l241 -227l-47 -45zM1268 1434h178v-1434h-178v682h-852v-682h-178v1434h178v-662h852v662z" />
    <glyph glyph-name="hcircumflex" unicode="&#x125;" horiz-adv-x="1347" 
d="M547 1642l-234 140l-231 -140l-47 46l239 227h78l242 -227zM784 1044q160 0 265.5 -99t105.5 -249v-696h-178v692q0 102 -69.5 171t-178.5 69q-102 0 -195.5 -61.5t-138.5 -161.5v-709h-178v1450l178 45v-670q53 98 159.5 158.5t229.5 60.5z" />
    <glyph glyph-name="Hbar" unicode="&#x126;" horiz-adv-x="1685" 
d="M1591 1110v-90h-145v-1020h-178v682h-852v-682h-178v1020h-148v90h148v324h178v-324h852v324h178v-324h145zM1268 772v248h-852v-248h852z" />
    <glyph glyph-name="hbar" unicode="&#x127;" horiz-adv-x="1347" 
d="M784 1044q160 0 265.5 -99t105.5 -249v-696h-178v692q0 102 -69.5 171t-178.5 69q-102 0 -195.5 -61.5t-138.5 -161.5v-709h-178v1204h-135v90h135v156l178 45v-201h246v-90h-246v-379q53 98 159.5 158.5t229.5 60.5z" />
    <glyph glyph-name="Itilde" unicode="&#x128;" horiz-adv-x="655" 
d="M449 1599q-55 0 -99.5 32t-80.5 63.5t-70 31.5q-37 0 -63.5 -31.5t-29.5 -84.5h-86q0 100 52.5 165.5t132.5 65.5q66 0 139.5 -64.5t112.5 -64.5t63.5 32t28.5 87h86q0 -100 -52 -166t-134 -66zM238 0v1434h178v-1434h-178z" />
    <glyph glyph-name="itilde" unicode="&#x129;" horiz-adv-x="614" 
d="M428 1210q-55 0 -99 32t-80 63.5t-71 31.5q-37 0 -63.5 -31.5t-28.5 -84.5h-86q0 100 52 165.5t132 65.5q66 0 139.5 -64.5t112.5 -64.5t63.5 31.5t28.5 87.5h86q0 -100 -52 -166t-134 -66zM217 0v989l178 45v-1034h-178z" />
    <glyph glyph-name="Imacron" unicode="&#x12a;" horiz-adv-x="655" 
d="M80 1649v123h491v-123h-491zM238 0v1434h178v-1434h-178z" />
    <glyph glyph-name="imacron" unicode="&#x12b;" horiz-adv-x="614" 
d="M59 1260v122h492v-122h-492zM217 0v989l178 45v-1034h-178z" />
    <glyph glyph-name="Ibreve" unicode="&#x12c;" horiz-adv-x="655" 
d="M327.5 1579q-108.5 0 -193.5 75t-85 179h90q8 -57 61.5 -93t127.5 -36q76 0 128 36t62 93h90q-2 -104 -87 -179t-193.5 -75zM238 0v1434h178v-1434h-178z" />
    <glyph glyph-name="ibreve" unicode="&#x12d;" horiz-adv-x="614" 
d="M307.5 1190q-108.5 0 -193.5 74.5t-85 179.5h90q8 -57 61 -93t127 -36q76 0 128 35.5t63 93.5h90q-2 -104 -87 -179t-193.5 -75zM217 0v989l178 45v-1034h-178z" />
    <glyph glyph-name="Iogonek" unicode="&#x12e;" horiz-adv-x="655" 
d="M414 -305l39 -66q-53 -68 -170 -67q-84 0 -141.5 46t-57.5 113q0 74 63.5 153t159.5 126h-69v1434h178v-1434h-2q-94 -45 -150.5 -109.5t-56.5 -123.5q0 -47 30.5 -78t81.5 -31q54 0 95 37z" />
    <glyph glyph-name="iogonek" unicode="&#x12f;" horiz-adv-x="614" 
d="M307 1190q-45 0 -77.5 28.5t-32.5 75.5q0 45 32.5 76t79.5 31q45 0 75 -30t30 -77t-30 -75.5t-77 -28.5zM393 -305l39 -66q-53 -68 -170 -67q-84 0 -141.5 46t-57.5 113q0 74 63.5 153t160.5 126h-70v989l178 45v-1034h-2q-94 -45 -150.5 -109.5t-56.5 -123.5
q0 -47 31 -78t82 -31q53 0 94 37z" />
    <glyph glyph-name="Idotaccent" unicode="&#x130;" horiz-adv-x="655" 
d="M328 1579q-45 0 -78 28.5t-33 75.5q0 45 33 76t80 31q45 0 74.5 -29.5t29.5 -77t-29.5 -76t-76.5 -28.5zM238 0v1434h178v-1434h-178z" />
    <glyph glyph-name="dotlessi" unicode="&#x131;" horiz-adv-x="614" 
d="M217 0v989l178 45v-1034h-178z" />
    <glyph glyph-name="IJ" unicode="&#x132;" horiz-adv-x="1941" 
d="M238 0v1434h178v-1434h-178zM1538 1434h178v-977q0 -225 -136 -351t-353 -126q-197 0 -327 96t-130 243q0 47 32 77t81 30q45 0 74.5 -29.5t29.5 -77.5q0 -39 -23.5 -67.5t-60.5 -36.5q35 -66 111 -103.5t174 -37.5q166 0 258 101t92 276v983z" />
    <glyph glyph-name="ij" unicode="&#x133;" horiz-adv-x="1239" 
d="M311 1440q47 0 78 -31t31 -80q0 -47 -31 -77.5t-78 -30.5q-49 0 -81.5 30.5t-32.5 77.5q0 49 32.5 80t81.5 31zM934 1221q-49 0 -82 30.5t-33 77.5q0 49 33 80t82 31q47 0 77.5 -31t30.5 -80q0 -47 -30.5 -77.5t-77.5 -30.5zM219 0v989l178 45v-1034h-178zM844 -180v1169
l178 45v-1198q0 -133 -96.5 -220t-239.5 -87q-109 0 -180.5 50t-71.5 126q0 45 29 72.5t69 27.5q47 0 77 -27.5t30 -72.5q0 -51 -39 -80q23 -6 49 -6q86 0 140.5 57.5t54.5 143.5z" />
    <glyph glyph-name="Jcircumflex" unicode="&#x134;" horiz-adv-x="1286" 
d="M1014 1853l241 -227l-47 -45l-233 139l-232 -139l-47 45l240 227h78zM883 451v983h178v-977q0 -225 -136.5 -351t-353.5 -126q-197 0 -326.5 96t-129.5 243q0 47 31.5 77t80.5 30q45 0 75 -29.5t30 -77.5q0 -39 -23.5 -67.5t-60.5 -36.5q35 -66 110.5 -103.5t173.5 -37.5
q166 0 258.5 101.5t92.5 275.5z" />
    <glyph glyph-name="jcircumflex" unicode="&#x135;" horiz-adv-x="616" 
d="M352 1464l242 -227l-47 -45l-234 139l-231 -139l-47 45l239 227h78zM229 -180v1169l179 45v-1198q0 -133 -96.5 -220t-239.5 -87q-109 0 -180.5 50t-71.5 126q0 45 28.5 72.5t69.5 27.5q47 0 77 -27.5t30 -72.5q0 -47 -37 -78q29 -4 43 -4q90 0 144 55.5t54 141.5z" />
    <glyph glyph-name="uni0136" unicode="&#x136;" horiz-adv-x="1478" 
d="M754 881l661 -881h-209l-577 766l-213 -191v-575h-178v1434h178v-738l813 738h141zM821 -145q49 0 82 -33t33 -86q0 -70 -49 -144.5t-117 -109.5l-37 41q55 49 80 123q-45 2 -72.5 32.5t-27.5 75.5q0 41 31.5 71t76.5 30z" />
    <glyph glyph-name="uni0137" unicode="&#x137;" horiz-adv-x="1144" 
d="M612 659l492 -659h-207l-412 549l-90 -82v-467h-178v1450l178 45v-905l488 434h141zM651 -145q49 0 82 -33t33 -86q0 -70 -49 -144.5t-117 -109.5l-37 41q55 49 80 123q-45 2 -72.5 32.5t-27.5 75.5q0 41 31.5 71t76.5 30z" />
    <glyph glyph-name="kgreenlandic" unicode="&#x138;" horiz-adv-x="1144" 
d="M897 0l-416 494l-86 -84v-410h-178v989l178 45v-499l492 489h137l-422 -414l502 -610h-207z" />
    <glyph glyph-name="Lacute" unicode="&#x139;" horiz-adv-x="1308" 
d="M631 1837l-281 -246h-94l129 246h246zM416 90h780v-90h-958v1434h178v-1344z" />
    <glyph glyph-name="lacute" unicode="&#x13a;" horiz-adv-x="614" 
d="M324 1653h-95l129 245h246zM217 0v1450l178 45v-1495h-178z" />
    <glyph glyph-name="uni013B" unicode="&#x13b;" horiz-adv-x="1308" 
d="M416 90h780v-90h-958v1434h178v-1344zM719 -145q49 0 82 -33t33 -86q0 -70 -49.5 -144.5t-116.5 -109.5l-37 41q55 49 80 123q-45 2 -73 32.5t-28 75.5q0 41 32 71t77 30z" />
    <glyph glyph-name="uni013C" unicode="&#x13c;" horiz-adv-x="614" 
d="M395 1495v-1495h-178v1450zM305 -145q49 0 82 -33t33 -86q0 -70 -49 -144.5t-117 -109.5l-37 41q55 49 80 123q-45 2 -72.5 32.5t-27.5 75.5q0 41 31.5 71t76.5 30z" />
    <glyph glyph-name="Lcaron" unicode="&#x13d;" horiz-adv-x="1308" 
d="M416 90h780v-90h-958v1434h178v-1344zM827 1434l-131 -287h-86l41 287h176z" />
    <glyph glyph-name="lcaron" unicode="&#x13e;" horiz-adv-x="796" 
d="M217 0v1450l178 45v-1495h-178zM547 1188l41 287h176l-131 -287h-86z" />
    <glyph glyph-name="Ldot" unicode="&#x13f;" horiz-adv-x="1308" 
d="M416 90h780v-90h-958v1434h178v-1344zM821 600q-49 0 -84 34t-35 83t35 84t84 35t83 -35t34 -84t-34 -83t-83 -34z" />
    <glyph glyph-name="ldot" unicode="&#x140;" horiz-adv-x="827" 
d="M217 0v1450l178 45v-1495h-178zM627 621q-49 0 -84 33.5t-35 82.5t35 84t84 35t82.5 -35t33.5 -84t-33.5 -82.5t-82.5 -33.5z" />
    <glyph glyph-name="Lslash" unicode="&#x141;" horiz-adv-x="1327" 
d="M434 90h780v-90h-958v567l-162 -84v86l162 84v781h178v-686l236 122v-86l-236 -122v-572z" />
    <glyph glyph-name="lslash" unicode="&#x142;" horiz-adv-x="733" 
d="M647 930v-86l-190 -101v-743h-178v651l-193 -100v86l193 100v713l178 45v-666z" />
    <glyph glyph-name="Nacute" unicode="&#x143;" horiz-adv-x="1654" 
d="M1149 1837l-281 -246h-94l129 246h246zM1319 1434h98v-1434h-69l-1012 1231v-1231h-98v1434h153l928 -1133v1133z" />
    <glyph glyph-name="nacute" unicode="&#x144;" horiz-adv-x="1347" 
d="M985 1448l-280 -246h-95l129 246h246zM786 1044q160 0 264.5 -99t104.5 -249v-696h-178v692q0 102 -70.5 171t-177.5 69q-102 0 -195.5 -61.5t-138.5 -161.5v-709h-178v989l178 45v-207q53 96 159.5 156.5t231.5 60.5z" />
    <glyph glyph-name="uni0145" unicode="&#x145;" horiz-adv-x="1654" 
d="M1319 1434h98v-1434h-69l-1012 1231v-1231h-98v1434h153l928 -1133v1133zM850 -145q49 0 82 -33t33 -86q0 -70 -49.5 -144.5t-116.5 -109.5l-37 41q55 49 80 123q-45 2 -73 32.5t-28 75.5q0 41 32 71t77 30z" />
    <glyph glyph-name="uni0146" unicode="&#x146;" horiz-adv-x="1347" 
d="M786 1044q160 0 264.5 -99t104.5 -249v-696h-178v692q0 102 -70.5 171t-177.5 69q-102 0 -195.5 -61.5t-138.5 -161.5v-709h-178v989l178 45v-207q53 96 159.5 156.5t231.5 60.5zM684 -145q49 0 82 -33t33 -86q0 -70 -49.5 -144.5t-116.5 -109.5l-37 41q55 49 80 123
q-45 2 -73 32.5t-28 75.5q0 41 32 71t77 30z" />
    <glyph glyph-name="Ncaron" unicode="&#x147;" horiz-adv-x="1654" 
d="M891 1581h-78l-240 227l48 45l231 -139l233 139l48 -45zM1319 1434h98v-1434h-69l-1012 1231v-1231h-98v1434h153l928 -1133v1133z" />
    <glyph glyph-name="ncaron" unicode="&#x148;" horiz-adv-x="1347" 
d="M725 1192h-78l-239 227l47 45l231 -139l234 139l47 -45zM786 1044q160 0 264.5 -99t104.5 -249v-696h-178v692q0 102 -70.5 171t-177.5 69q-102 0 -195.5 -61.5t-138.5 -161.5v-709h-178v989l178 45v-207q53 96 159.5 156.5t231.5 60.5z" />
    <glyph glyph-name="Eng" unicode="&#x14a;" horiz-adv-x="1654" 
d="M1319 1434h98v-1538q0 -119 -68.5 -192t-183.5 -73q-125 0 -184 80l45 51q45 -49 125 -49q82 0 130 52.5t48 136.5v121l-993 1208v-1231h-98v1434h153l928 -1133v1133z" />
    <glyph glyph-name="eng" unicode="&#x14b;" horiz-adv-x="1347" 
d="M786 1044q160 0 264.5 -99t104.5 -249v-772q0 -125 -90 -209t-221 -84q-139 0 -209 80l24 70q47 -59 142 -60q78 0 127 49.5t49 129.5v792q0 102 -70.5 171t-177.5 69q-102 0 -195.5 -61.5t-138.5 -161.5v-709h-178v989l178 45v-207q53 96 159.5 156.5t231.5 60.5z" />
    <glyph glyph-name="Omacron" unicode="&#x14c;" horiz-adv-x="1779" 
d="M643 1649v123h492v-123h-492zM890.5 -20q-319.5 0 -533.5 210.5t-214 526t214 526.5t533.5 211t532.5 -211t213 -526.5t-213 -526t-532.5 -210.5zM891 70q254 0 406.5 177t152.5 470t-152.5 470t-406.5 177t-407.5 -177t-153.5 -470t153.5 -470t407.5 -177z" />
    <glyph glyph-name="omacron" unicode="&#x14d;" horiz-adv-x="1361" 
d="M434 1260v122h492v-122h-492zM682 -20q-231 0 -386 152.5t-155 379.5t155 379.5t386 152.5q229 0 384 -152.5t155 -379.5t-155 -379.5t-384 -152.5zM682 70q160 0 256 119.5t96 322.5t-96 322.5t-256 119.5q-162 0 -258 -119.5t-96 -322.5t96 -322.5t258 -119.5z" />
    <glyph glyph-name="Obreve" unicode="&#x14e;" horiz-adv-x="1779" 
d="M888.5 1579q-108.5 0 -193.5 75t-85 179h90q8 -57 61.5 -93t127.5 -36q76 0 128 36t62 93h90q-2 -104 -87 -179t-193.5 -75zM890.5 -20q-319.5 0 -533.5 210.5t-214 526t214 526.5t533.5 211t532.5 -211t213 -526.5t-213 -526t-532.5 -210.5zM891 70q254 0 406.5 177
t152.5 470t-152.5 470t-406.5 177t-407.5 -177t-153.5 -470t153.5 -470t407.5 -177z" />
    <glyph glyph-name="obreve" unicode="&#x14f;" horiz-adv-x="1361" 
d="M679.5 1190q-108.5 0 -193.5 74.5t-85 179.5h91q8 -57 61 -93t127 -36q76 0 128 35.5t62 93.5h91q-2 -104 -87.5 -179t-194 -75zM682 -20q-231 0 -386 152.5t-155 379.5t155 379.5t386 152.5q229 0 384 -152.5t155 -379.5t-155 -379.5t-384 -152.5zM682 70
q160 0 256 119.5t96 322.5t-96 322.5t-256 119.5q-162 0 -258 -119.5t-96 -322.5t96 -322.5t258 -119.5z" />
    <glyph glyph-name="Ohungarumlaut" unicode="&#x150;" horiz-adv-x="1779" 
d="M655 1591l133 246h205l-241 -246h-97zM993 1591l133 246h205l-241 -246h-97zM890.5 -20q-319.5 0 -533.5 210.5t-214 526t214 526.5t533.5 211t532.5 -211t213 -526.5t-213 -526t-532.5 -210.5zM891 70q254 0 406.5 177t152.5 470t-152.5 470t-406.5 177t-407.5 -177
t-153.5 -470t153.5 -470t407.5 -177z" />
    <glyph glyph-name="ohungarumlaut" unicode="&#x151;" horiz-adv-x="1361" 
d="M446 1202l134 246h204l-241 -246h-97zM784 1202l134 246h204l-241 -246h-97zM682 -20q-231 0 -386 152.5t-155 379.5t155 379.5t386 152.5q229 0 384 -152.5t155 -379.5t-155 -379.5t-384 -152.5zM682 70q160 0 256 119.5t96 322.5t-96 322.5t-256 119.5
q-162 0 -258 -119.5t-96 -322.5t96 -322.5t258 -119.5z" />
    <glyph glyph-name="OE" unicode="&#x152;" horiz-adv-x="2400" 
d="M1491 90h786v-90h-964q-147 -20 -342 -20q-360 0 -594 209.5t-234 527t233.5 527.5t594.5 210q195 0 342 -20h944v-91h-766v-571h602v-90h-602v-592zM981 70q211 0 332 69v1155q-109 70 -332 70q-299 0 -475 -176t-176 -471t176 -471t475 -176z" />
    <glyph glyph-name="oe" unicode="&#x153;" horiz-adv-x="2191" 
d="M1927 352q43 0 72 -30.5t29 -71.5q0 -115 -125 -192.5t-301 -77.5q-156 0 -279 67.5t-195 183.5q-68 -117 -185.5 -184t-264.5 -67q-227 0 -382 152.5t-155 379.5t155 379.5t382 152.5q145 0 263 -67.5t187 -183.5q68 117 183.5 184t255.5 67q211 0 346 -149.5
t135 -372.5h-827q2 -211 115.5 -329.5t308.5 -118.5q162 0 235 84q-59 25 -59 92q0 43 30.5 72.5t75.5 29.5zM682 70q160 0 256 119.5t96 322.5t-96 322.5t-256 119.5q-162 0 -258 -119.5t-96 -322.5t96 -322.5t258 -119.5zM1559 954q-133 0 -223.5 -93t-110.5 -249h643
q-12 158 -95 250t-214 92z" />
    <glyph glyph-name="Racute" unicode="&#x154;" horiz-adv-x="1482" 
d="M1057 1837l-281 -246h-94l129 246h246zM1292 156q61 -106 133 -156h-206q-63 45 -105 119l-213 368q-39 68 -90 103h-10h-385v-590h-178v1434h563q221 0 370.5 -119t149.5 -299q0 -150 -101.5 -260.5t-265.5 -147.5q100 -43 152 -137zM416 1343v-663h350q168 0 268.5 90
t100.5 241.5t-100.5 241.5t-268.5 90h-350z" />
    <glyph glyph-name="racute" unicode="&#x155;" horiz-adv-x="1024" 
d="M877 1448l-281 -246h-94l129 246h246zM940 854q0 -43 -28.5 -72.5t-73.5 -29.5t-76 29.5t-31 72.5t31 74q-29 14 -72 14q-98 0 -179 -68.5t-116 -181.5v-692h-178v989l178 45v-209q41 100 125 159.5t186.5 59.5t168 -54t65.5 -136z" />
    <glyph glyph-name="uni0156" unicode="&#x156;" horiz-adv-x="1482" 
d="M1292 156q61 -106 133 -156h-206q-63 45 -105 119l-213 368q-39 68 -90 103h-10h-385v-590h-178v1434h563q221 0 370.5 -119t149.5 -299q0 -150 -101.5 -260.5t-265.5 -147.5q100 -43 152 -137zM416 1343v-663h350q168 0 268.5 90t100.5 241.5t-100.5 241.5t-268.5 90
h-350zM809 -145q49 0 82 -33t33 -86q0 -70 -49.5 -144.5t-116.5 -109.5l-37 41q55 49 80 123q-45 2 -73 32.5t-28 75.5q0 41 32 71t77 30z" />
    <glyph glyph-name="uni0157" unicode="&#x157;" horiz-adv-x="1024" 
d="M940 854q0 -43 -28.5 -72.5t-73.5 -29.5t-76 29.5t-31 72.5t31 74q-29 14 -72 14q-98 0 -179 -68.5t-116 -181.5v-692h-178v989l178 45v-209q41 100 125 159.5t186.5 59.5t168 -54t65.5 -136zM309 -145q49 0 82 -33t33 -86q0 -70 -49 -144.5t-117 -109.5l-37 41
q55 49 80 123q-45 2 -72.5 32.5t-27.5 75.5q0 41 31.5 71t76.5 30z" />
    <glyph glyph-name="Rcaron" unicode="&#x158;" horiz-adv-x="1482" 
d="M797 1581h-78l-240 227l47 45l232 -139l233 139l47 -45zM1292 156q61 -106 133 -156h-206q-63 45 -105 119l-213 368q-39 68 -90 103h-10h-385v-590h-178v1434h563q221 0 370.5 -119t149.5 -299q0 -150 -101.5 -260.5t-265.5 -147.5q100 -43 152 -137zM416 1343v-663h350
q168 0 268.5 90t100.5 241.5t-100.5 241.5t-268.5 90h-350z" />
    <glyph glyph-name="rcaron" unicode="&#x159;" horiz-adv-x="1024" 
d="M618 1192h-77l-240 227l47 45l232 -139l233 139l47 -45zM940 854q0 -43 -28.5 -72.5t-73.5 -29.5t-76 29.5t-31 72.5t31 74q-29 14 -72 14q-98 0 -179 -68.5t-116 -181.5v-692h-178v989l178 45v-209q41 100 125 159.5t186.5 59.5t168 -54t65.5 -136z" />
    <glyph glyph-name="Sacute" unicode="&#x15a;" horiz-adv-x="1335" 
d="M973 1837l-281 -246h-94l129 246h246zM731 795q78 -31 119 -48.5t105.5 -48t99.5 -59.5t71.5 -70t53 -90t16.5 -108q0 -176 -145.5 -283.5t-372.5 -107.5q-221 0 -373.5 95t-152.5 236q0 43 30.5 72t75.5 29q41 0 69.5 -29t28.5 -72q0 -70 -61 -94q43 -68 140 -107.5
t218 -39.5q168 0 271.5 67.5t103.5 181.5q0 53 -28.5 98.5t-90 85.5t-117 67.5t-149.5 66.5q-84 33 -130 53.5t-118.5 61.5t-110.5 80.5t-69 102t-31 134.5q0 168 140.5 276.5t355.5 108.5q195 0 328 -89t133 -220q0 -43 -29 -72t-70 -29q-45 0 -74.5 29t-29.5 72
q0 68 61 92q-37 59 -116.5 93t-184.5 34q-152 0 -251 -69.5t-99 -182.5q0 -55 31 -102t93.5 -87t115.5 -65.5t143 -62.5z" />
    <glyph glyph-name="sacute" unicode="&#x15b;" horiz-adv-x="1062" 
d="M836 1448l-281 -246h-94l129 246h246zM590 594q80 -33 123 -54.5t103.5 -61.5t89 -93t28.5 -119q0 -127 -106.5 -206.5t-284.5 -79.5q-168 0 -284 64.5t-116 160.5q0 43 28 69.5t73 26.5q41 0 67.5 -26.5t26.5 -69.5q0 -53 -41 -80q76 -66 221 -66q115 0 184.5 46.5
t69.5 117.5q0 70 -64.5 115t-195.5 96q-74 29 -121 52.5t-106.5 63.5t-89 94t-29.5 120q0 125 107.5 202.5t275.5 77.5q147 0 248.5 -58t101.5 -144q0 -41 -26.5 -69t-67.5 -28q-45 0 -74 28t-29 69q0 51 39 78q-61 45 -172 45q-106 0 -174.5 -46.5t-68.5 -116t66.5 -114.5
t197.5 -94z" />
    <glyph glyph-name="Scircumflex" unicode="&#x15c;" horiz-adv-x="1335" 
d="M674 1720l-232 -139l-47 45l240 227h78l241 -227l-47 -45zM731 795q78 -31 119 -48.5t105.5 -48t99.5 -59.5t71.5 -70t53 -90t16.5 -108q0 -176 -145.5 -283.5t-372.5 -107.5q-221 0 -373.5 95t-152.5 236q0 43 30.5 72t75.5 29q41 0 69.5 -29t28.5 -72q0 -70 -61 -94
q43 -68 140 -107.5t218 -39.5q168 0 271.5 67.5t103.5 181.5q0 53 -28.5 98.5t-90 85.5t-117 67.5t-149.5 66.5q-84 33 -130 53.5t-118.5 61.5t-110.5 80.5t-69 102t-31 134.5q0 168 140.5 276.5t355.5 108.5q195 0 328 -89t133 -220q0 -43 -29 -72t-70 -29q-45 0 -74.5 29
t-29.5 72q0 68 61 92q-37 59 -116.5 93t-184.5 34q-152 0 -251 -69.5t-99 -182.5q0 -55 31 -102t93.5 -87t115.5 -65.5t143 -62.5z" />
    <glyph glyph-name="scircumflex" unicode="&#x15d;" horiz-adv-x="1062" 
d="M537 1331l-232 -139l-47 45l240 227h77l242 -227l-47 -45zM590 594q80 -33 123 -54.5t103.5 -61.5t89 -93t28.5 -119q0 -127 -106.5 -206.5t-284.5 -79.5q-168 0 -284 64.5t-116 160.5q0 43 28 69.5t73 26.5q41 0 67.5 -26.5t26.5 -69.5q0 -53 -41 -80q76 -66 221 -66
q115 0 184.5 46.5t69.5 117.5q0 70 -64.5 115t-195.5 96q-74 29 -121 52.5t-106.5 63.5t-89 94t-29.5 120q0 125 107.5 202.5t275.5 77.5q147 0 248.5 -58t101.5 -144q0 -41 -26.5 -69t-67.5 -28q-45 0 -74 28t-29 69q0 51 39 78q-61 45 -172 45q-106 0 -174.5 -46.5
t-68.5 -116t66.5 -114.5t197.5 -94z" />
    <glyph glyph-name="Scedilla" unicode="&#x15e;" horiz-adv-x="1335" 
d="M1196 371q0 -166 -128 -270.5t-335 -118.5l-63 -101q23 6 43 6q74 0 125 -47t51 -112q0 -72 -61.5 -119t-149.5 -47q-106 0 -170 67l43 56q43 -39 108 -39q49 0 80 24.5t31 63.5q0 37 -26.5 61.5t-65.5 24.5q-51 0 -80 -35l-51 33l90 162q-207 10 -346 104t-139 227
q0 43 30.5 72t75.5 29q41 0 69.5 -29t28.5 -72q0 -70 -61 -94q43 -68 140 -107.5t218 -39.5q168 0 271.5 67.5t103.5 181.5q0 53 -28.5 98.5t-90 85.5t-117 67.5t-149.5 66.5q-84 33 -130 53.5t-118.5 61.5t-110.5 80.5t-69 102t-31 134.5q0 168 140.5 276.5t355.5 108.5
q195 0 328 -89t133 -220q0 -43 -29 -72t-70 -29q-45 0 -74.5 29t-29.5 72q0 68 61 92q-37 59 -116.5 93t-184.5 34q-152 0 -251 -69.5t-99 -182.5q0 -55 31 -102t93.5 -87t115.5 -66t143 -62q78 -31 119 -48.5t105.5 -48t99.5 -59.5t71.5 -70t53 -90t16.5 -108z" />
    <glyph glyph-name="scedilla" unicode="&#x15f;" horiz-adv-x="1062" 
d="M934 266q0 -119 -94.5 -197.5t-255.5 -86.5l-64 -101q20 6 43 6q74 0 125 -47t51 -112q0 -72 -61.5 -119t-149.5 -47q-106 0 -170 67l43 56q43 -39 109 -39q49 0 80 24.5t31 63.5q0 37 -27 61.5t-66 24.5q-51 0 -79 -35l-52 33l90 164q-147 10 -245.5 72.5t-98.5 150.5
q0 43 28 69.5t73 26.5q41 0 67.5 -26.5t26.5 -69.5q0 -53 -41 -80q76 -66 221 -66q115 0 184.5 46.5t69.5 117.5q0 70 -64.5 115t-195.5 96q-74 29 -121 52.5t-106.5 63.5t-89 94t-29.5 120q0 125 107.5 202.5t275.5 77.5q147 0 248.5 -58t101.5 -144q0 -41 -26.5 -69
t-67.5 -28q-45 0 -74 28t-29 69q0 51 39 78q-61 45 -172 45q-106 0 -174.5 -46.5t-68.5 -116t66.5 -114.5t197.5 -94q80 -33 123 -54.5t103.5 -61.5t89 -93t28.5 -119z" />
    <glyph glyph-name="Scaron" unicode="&#x160;" horiz-adv-x="1335" 
d="M713 1581h-78l-240 227l47 45l232 -139l233 139l47 -45zM731 795q78 -31 119 -48.5t105.5 -48t99.5 -59.5t71.5 -70t53 -90t16.5 -108q0 -176 -145.5 -283.5t-372.5 -107.5q-221 0 -373.5 95t-152.5 236q0 43 30.5 72t75.5 29q41 0 69.5 -29t28.5 -72q0 -70 -61 -94
q43 -68 140 -107.5t218 -39.5q168 0 271.5 67.5t103.5 181.5q0 53 -28.5 98.5t-90 85.5t-117 67.5t-149.5 66.5q-84 33 -130 53.5t-118.5 61.5t-110.5 80.5t-69 102t-31 134.5q0 168 140.5 276.5t355.5 108.5q195 0 328 -89t133 -220q0 -43 -29 -72t-70 -29q-45 0 -74.5 29
t-29.5 72q0 68 61 92q-37 59 -116.5 93t-184.5 34q-152 0 -251 -69.5t-99 -182.5q0 -55 31 -102t93.5 -87t115.5 -65.5t143 -62.5z" />
    <glyph glyph-name="scaron" unicode="&#x161;" horiz-adv-x="1062" 
d="M575 1192h-77l-240 227l47 45l232 -139l233 139l47 -45zM590 594q80 -33 123 -54.5t103.5 -61.5t89 -93t28.5 -119q0 -127 -106.5 -206.5t-284.5 -79.5q-168 0 -284 64.5t-116 160.5q0 43 28 69.5t73 26.5q41 0 67.5 -26.5t26.5 -69.5q0 -53 -41 -80q76 -66 221 -66
q115 0 184.5 46.5t69.5 117.5q0 70 -64.5 115t-195.5 96q-74 29 -121 52.5t-106.5 63.5t-89 94t-29.5 120q0 125 107.5 202.5t275.5 77.5q147 0 248.5 -58t101.5 -144q0 -41 -26.5 -69t-67.5 -28q-45 0 -74 28t-29 69q0 51 39 78q-61 45 -172 45q-106 0 -174.5 -46.5
t-68.5 -116t66.5 -114.5t197.5 -94z" />
    <glyph glyph-name="uni0162" unicode="&#x162;" horiz-adv-x="1341" 
d="M762 0h-41l-76 -119q23 6 43 6q74 0 125 -47t51 -112q0 -72 -61.5 -119t-149.5 -47q-106 0 -170 67l43 56q43 -39 109 -39q49 0 79.5 24.5t30.5 63.5q0 37 -26.5 61.5t-65.5 24.5q-51 0 -80 -35l-51 33l101 182h-39v1343h-486v91h1147v-91h-483v-1343z" />
    <glyph glyph-name="uni0163" unicode="&#x163;" horiz-adv-x="856" 
d="M528 -20h-10l-63 -99q20 6 43 6q74 0 125 -47t51 -112q0 -72 -61.5 -119t-149.5 -47q-106 0 -170 67l43 56q43 -39 108 -39q49 0 80 24.5t31 63.5q0 37 -26.5 61.5t-65.5 24.5q-51 0 -80 -35l-51 33l98 176q-86 27 -137 92.5t-51 151.5v696h-131v90h131v231l178 50v-281
h311v-90h-311v-686q0 -72 46 -121t116 -49q47 0 93 27.5t60 66.5l49 -53q-18 -59 -92 -99t-164 -40z" />
    <glyph glyph-name="Tcaron" unicode="&#x164;" horiz-adv-x="1341" 
d="M711 1581h-78l-240 227l47 45l232 -139l233 139l47 -45zM1245 1434v-91h-483v-1343h-178v1343h-486v91h1147z" />
    <glyph glyph-name="tcaron" unicode="&#x165;" horiz-adv-x="856" 
d="M803 1483l-131 -287h-86l41 287h176zM582 78q47 0 93 27.5t60 66.5l49 -53q-18 -59 -92 -99t-164 -40q-121 0 -203.5 73.5t-82.5 184.5v696h-131v90h131v231l178 50v-281h311v-90h-311v-686q0 -72 46 -121t116 -49z" />
    <glyph glyph-name="Tbar" unicode="&#x166;" horiz-adv-x="1341" 
d="M1245 1343h-483v-581h188v-90h-188v-672h-178v672h-193v90h193v581h-486v91h1147v-91z" />
    <glyph glyph-name="tbar" unicode="&#x167;" horiz-adv-x="856" 
d="M735 172l49 -53q-18 -59 -92 -99t-164 -40q-121 0 -203.5 73.5t-82.5 184.5v331h-121v90h121v275h-131v90h131v231l178 50v-281h311v-90h-311v-275h260v-90h-260v-321q0 -72 46 -121t116 -49q47 0 93 27.5t60 66.5z" />
    <glyph glyph-name="Utilde" unicode="&#x168;" horiz-adv-x="1642" 
d="M967 1599q-55 0 -99.5 32t-80 63.5t-70.5 31.5q-37 0 -63.5 -31.5t-28.5 -84.5h-86q0 100 52 165.5t132 65.5q66 0 139.5 -64.5t112.5 -64.5t63.5 32t28.5 87h86q0 -100 -52 -166t-134 -66zM848 -20q-276 0 -450.5 161.5t-174.5 425.5v867h178v-899q0 -203 130.5 -324
t342.5 -121q205 0 326 121t121 324v899h98v-902q0 -252 -153.5 -402t-417.5 -150z" />
    <glyph glyph-name="utilde" unicode="&#x169;" horiz-adv-x="1341" 
d="M535 1337q-37 0 -64 -31.5t-29 -84.5h-86q0 100 52.5 165.5t132.5 65.5q66 0 139.5 -64.5t112 -64.5t63.5 31.5t29 87.5h86q0 -100 -52.5 -166t-134.5 -66q-55 0 -99 32t-79.5 63.5t-70.5 31.5zM944 989l178 45v-1034h-178v195q-55 -96 -157.5 -155.5t-223.5 -59.5
q-156 0 -260 99t-104 249v661l178 45v-702q0 -102 68.5 -171t172.5 -69q98 0 189.5 62.5t136.5 160.5v674z" />
    <glyph glyph-name="Umacron" unicode="&#x16a;" horiz-adv-x="1642" 
d="M600 1649v123h492v-123h-492zM848 -20q-276 0 -450.5 161.5t-174.5 425.5v867h178v-899q0 -203 130.5 -324t342.5 -121q205 0 326 121t121 324v899h98v-902q0 -252 -153.5 -402t-417.5 -150z" />
    <glyph glyph-name="umacron" unicode="&#x16b;" horiz-adv-x="1341" 
d="M909 1382v-122h-491v122h491zM944 989l178 45v-1034h-178v195q-55 -96 -157.5 -155.5t-223.5 -59.5q-156 0 -260 99t-104 249v661l178 45v-702q0 -102 68.5 -171t172.5 -69q98 0 189.5 62.5t136.5 160.5v674z" />
    <glyph glyph-name="Ubreve" unicode="&#x16c;" horiz-adv-x="1642" 
d="M845.5 1579q-108.5 0 -193.5 75t-85 179h90q8 -57 61.5 -93t127.5 -36q76 0 128 36t62 93h90q-2 -104 -87 -179t-193.5 -75zM848 -20q-276 0 -450.5 161.5t-174.5 425.5v867h178v-899q0 -203 130.5 -324t342.5 -121q205 0 326 121t121 324v899h98v-902
q0 -252 -153.5 -402t-417.5 -150z" />
    <glyph glyph-name="ubreve" unicode="&#x16d;" horiz-adv-x="1341" 
d="M663.5 1190q-108.5 0 -193.5 74.5t-85 179.5h90q8 -57 61.5 -93t127.5 -36q76 0 128 35.5t62 93.5h90q-2 -104 -87 -179t-193.5 -75zM944 989l178 45v-1034h-178v195q-55 -96 -157.5 -155.5t-223.5 -59.5q-156 0 -260 99t-104 249v661l178 45v-702q0 -102 68.5 -171
t172.5 -69q98 0 189.5 62.5t136.5 160.5v674z" />
    <glyph glyph-name="Uring" unicode="&#x16e;" horiz-adv-x="1642" 
d="M850 1556q-70 0 -118 45.5t-48 110.5q0 70 47 115t117 45t115 -45t45 -115q0 -66 -45 -111t-113 -45zM850 1622q37 0 61.5 24.5t24.5 65.5q0 43 -24.5 68.5t-61.5 25.5q-41 0 -67.5 -25.5t-26.5 -68.5q0 -41 26.5 -65.5t67.5 -24.5zM848 -20q-276 0 -450.5 161.5
t-174.5 425.5v867h178v-899q0 -203 130.5 -324t342.5 -121q205 0 326 121t121 324v899h98v-902q0 -252 -153.5 -402t-417.5 -150z" />
    <glyph glyph-name="uring" unicode="&#x16f;" horiz-adv-x="1341" 
d="M668 1167q-70 0 -118 45t-48 111q0 70 47 115t116.5 45t114.5 -45t45 -115q0 -66 -44.5 -111t-112.5 -45zM668 1417q-41 0 -68 -25.5t-27 -68.5q0 -41 27 -65.5t68 -24.5q37 0 61.5 24.5t24.5 65.5q0 43 -24.5 68.5t-61.5 25.5zM944 989l178 45v-1034h-178v195
q-55 -96 -157.5 -155.5t-223.5 -59.5q-156 0 -260 99t-104 249v661l178 45v-702q0 -102 68.5 -171t172.5 -69q98 0 189.5 62.5t136.5 160.5v674z" />
    <glyph glyph-name="Uhungarumlaut" unicode="&#x170;" horiz-adv-x="1642" 
d="M612 1591l133 246h205l-241 -246h-97zM950 1591l133 246h205l-241 -246h-97zM848 -20q-276 0 -450.5 161.5t-174.5 425.5v867h178v-899q0 -203 130.5 -324t342.5 -121q205 0 326 121t121 324v899h98v-902q0 -252 -153.5 -402t-417.5 -150z" />
    <glyph glyph-name="uhungarumlaut" unicode="&#x171;" horiz-adv-x="1341" 
d="M768 1448l-242 -246h-96l133 246h205zM864 1202h-96l133 246h205zM944 989l178 45v-1034h-178v195q-55 -96 -157.5 -155.5t-223.5 -59.5q-156 0 -260 99t-104 249v661l178 45v-702q0 -102 68.5 -171t172.5 -69q98 0 189.5 62.5t136.5 160.5v674z" />
    <glyph glyph-name="Uogonek" unicode="&#x172;" horiz-adv-x="1642" 
d="M1321 1434h98v-902q0 -215 -112.5 -357t-313.5 -181q-88 -45 -140 -106.5t-52 -120.5q0 -47 30.5 -78t81.5 -31q53 0 95 37l39 -66q-53 -68 -170 -67q-84 0 -141.5 46t-57.5 113q0 66 51 137.5t135 121.5h-16q-276 0 -450.5 161.5t-174.5 425.5v867h178v-899
q0 -203 130.5 -324t342.5 -121q205 0 326 121t121 324v899z" />
    <glyph glyph-name="uogonek" unicode="&#x173;" horiz-adv-x="1341" 
d="M1118 -305l39 -66q-53 -68 -170 -67q-84 0 -141.5 46t-57.5 113q0 74 63.5 153t160.5 126h-68v195q-55 -96 -157.5 -155.5t-223.5 -59.5q-156 0 -260 99t-104 249v661l178 45v-702q0 -102 68.5 -171t172.5 -69q98 0 189.5 62.5t136.5 160.5v674l178 45v-1034h-4
q-94 -45 -150.5 -109.5t-56.5 -123.5q0 -47 31 -78t82 -31q53 0 94 37z" />
    <glyph glyph-name="Wcircumflex" unicode="&#x174;" horiz-adv-x="2359" 
d="M1186 1720l-232 -139l-47 45l240 227h78l241 -227l-47 -45zM2144 1434h113l-629 -1434h-80l-368 844l-371 -844h-80l-627 1434h189l520 -1196l311 735l-200 461h188l520 -1196z" />
    <glyph glyph-name="wcircumflex" unicode="&#x175;" horiz-adv-x="1740" 
d="M877 1331l-232 -139l-47 45l240 227h77l242 -227l-47 -45zM1561 1024h112l-448 -1024h-82l-269 614l-270 -614h-80l-448 1024h186l342 -786l213 503l-123 283h187l342 -788z" />
    <glyph glyph-name="Ycircumflex" unicode="&#x176;" horiz-adv-x="1472" 
d="M735 1720l-231 -139l-47 45l239 227h78l242 -227l-47 -45zM1253 1434h117l-545 -820v-614h-178v614l-545 820h199l477 -719z" />
    <glyph glyph-name="ycircumflex" unicode="&#x177;" horiz-adv-x="1126" 
d="M586 1331l-232 -139l-47 45l240 227h78l241 -227l-47 -45zM946 1024h113l-600 -1368q-55 -127 -191 -127q-68 0 -118 42t-50 101q0 39 30 68t71 29t67.5 -28t26.5 -69q0 -37 -19 -61q68 0 95 65l149 353l-436 995h186l340 -786z" />
    <glyph glyph-name="Ydieresis" unicode="&#x178;" horiz-adv-x="1472" 
d="M541 1583q-43 0 -73 27.5t-30 70.5q0 45 30 74t75 29q43 0 71.5 -29t28.5 -72t-28.5 -71.5t-73.5 -28.5zM932 1583q-43 0 -73 28.5t-30 71.5t30 72t75 29q41 0 69.5 -29t28.5 -72t-28.5 -71.5t-71.5 -28.5zM1253 1434h117l-545 -820v-614h-178v614l-545 820h199l477 -719
z" />
    <glyph glyph-name="Zacute" unicode="&#x179;" horiz-adv-x="1382" 
d="M1024 1837l-281 -246h-94l129 246h246zM1243 1434v-33l-870 -1311h868v-90h-1102v33l871 1310h-842v91h1075z" />
    <glyph glyph-name="zacute" unicode="&#x17a;" horiz-adv-x="1081" 
d="M862 1448l-280 -246h-95l129 246h246zM952 1024v-33l-587 -901h583v-90h-815v33l588 901h-557v90h788z" />
    <glyph glyph-name="Zdotaccent" unicode="&#x17b;" horiz-adv-x="1382" 
d="M727 1579q-45 0 -78 28.5t-33 75.5q0 45 33 76t80 31q45 0 75 -29.5t30 -77t-30 -76t-77 -28.5zM1243 1434v-33l-870 -1311h868v-90h-1102v33l871 1310h-842v91h1075z" />
    <glyph glyph-name="zdotaccent" unicode="&#x17c;" horiz-adv-x="1081" 
d="M565 1190q-45 0 -77.5 28.5t-32.5 75.5q0 45 32.5 76t79.5 31q45 0 75 -30t30 -77t-30 -75.5t-77 -28.5zM952 1024v-33l-587 -901h583v-90h-815v33l588 901h-557v90h788z" />
    <glyph glyph-name="Zcaron" unicode="&#x17d;" horiz-adv-x="1382" 
d="M764 1581h-78l-240 227l48 45l231 -139l233 139l48 -45zM1243 1434v-33l-870 -1311h868v-90h-1102v33l871 1310h-842v91h1075z" />
    <glyph glyph-name="zcaron" unicode="&#x17e;" horiz-adv-x="1081" 
d="M602 1192h-78l-239 227l47 45l231 -139l234 139l47 -45zM952 1024v-33l-587 -901h583v-90h-815v33l588 901h-557v90h788z" />
    <glyph glyph-name="florin" unicode="&#x192;" horiz-adv-x="1323" 
d="M1214 1270q0 -43 -28.5 -71t-69.5 -28q-45 0 -73.5 28t-28.5 71q0 51 39 80q-23 8 -54 8q-164 0 -190 -189l-47 -325h223l-4 -90h-231l-113 -797q-18 -131 -116.5 -217t-229.5 -86q-102 0 -171 53t-69 131q0 43 27.5 71t68.5 28q45 0 75 -28t30 -71q0 -51 -39 -80
q18 -8 51 -8q164 0 191 189l114 815h-129l4 90h140l43 307q18 131 116.5 217t229.5 86q102 0 171.5 -53t69.5 -131z" />
    <glyph glyph-name="uni01C4" unicode="&#x1c4;" horiz-adv-x="2985" 
d="M2367 1581h-75l-242 227l47 45l234 -139l231 139l47 -45zM770 1434q328 0 547 -206t219 -511t-219 -511t-547 -206h-532v1434h532zM2847 1434v-33l-871 -1311h869v-90h-1102v33l870 1310h-841v91h1075zM748 90q272 0 437 171t165 455.5t-165 455.5t-437 171h-332v-1253
h332z" />
    <glyph glyph-name="uni01C5" unicode="&#x1c5;" horiz-adv-x="2766" 
d="M2288 1192h-78l-240 227l47 45l232 -139l233 139l47 -45zM770 1434q328 0 547 -206t219 -511t-219 -511t-547 -206h-532v1434h532zM748 90q272 0 437 171t165 455.5t-165 455.5t-437 171h-332v-1253h332zM2638 1024v-33l-588 -901h584v-90h-815v33l587 901h-557v90h789z
" />
    <glyph glyph-name="uni01C6" unicode="&#x1c6;" horiz-adv-x="2461" 
d="M983 860v590l178 45v-1495h-178v143q-133 -164 -352 -163q-205 0 -347.5 153.5t-142.5 378.5t142.5 378.5t343.5 153.5q111 0 204 -49t152 -135zM1982 1192h-77l-240 227l47 45l232 -139l233 139l47 -45zM2333 1024v-33l-588 -901h584v-90h-816v33l588 901h-557v90h789z
M676 86q96 0 178 47t129 127v494q-51 88 -134 136t-179 48q-152 0 -247 -118t-95 -308q0 -193 96 -309.5t252 -116.5z" />
    <glyph glyph-name="uni01C7" unicode="&#x1c7;" horiz-adv-x="2574" 
d="M416 1434v-1344h780v-90h-958v1434h178zM2171 1434h178v-977q0 -225 -136 -351t-353 -126q-197 0 -327 96t-130 243q0 47 31.5 77t81.5 30q45 0 74.5 -29.5t29.5 -77.5q0 -39 -23.5 -67.5t-60.5 -36.5q35 -66 110.5 -103.5t174.5 -37.5q166 0 258 101t92 276v983z" />
    <glyph glyph-name="uni01C8" unicode="&#x1c8;" horiz-adv-x="1974" 
d="M1669 1221q-49 0 -82 30.5t-33 77.5q0 49 33 80t82 31q47 0 78 -31t31 -80q0 -47 -31 -77.5t-78 -30.5zM1196 90v-90h-958v1434h178v-1344h780zM1579 -180v1169l178 45v-1198q0 -133 -96 -220t-240 -87q-109 0 -180.5 50t-71.5 126q0 45 28 72.5t71 27.5q47 0 76.5 -27.5
t29.5 -72.5q0 -51 -39 -80q20 -6 49 -6q86 0 140.5 57.5t54.5 143.5z" />
    <glyph glyph-name="uni01C9" unicode="&#x1c9;" horiz-adv-x="1239" 
d="M217 0v1450l178 45v-1495h-178zM934 1221q-49 0 -82 30.5t-33 77.5q0 49 33 80t82 31q47 0 77.5 -31t30.5 -80q0 -47 -30.5 -77.5t-77.5 -30.5zM844 -180v1169l178 45v-1198q0 -133 -96.5 -220t-239.5 -87q-109 0 -180.5 50t-71.5 126q0 45 29 72.5t69 27.5
q47 0 77 -27.5t30 -72.5q0 -51 -39 -80q23 -6 49 -6q86 0 140.5 57.5t54.5 143.5z" />
    <glyph glyph-name="uni01CA" unicode="&#x1ca;" horiz-adv-x="2940" 
d="M1319 301v1133h98v-1434h-69l-1012 1231v-1231h-98v1434h153zM2537 1434h179v-977q0 -225 -136.5 -351t-353.5 -126q-197 0 -327 96t-130 243q0 47 32 77t81 30q45 0 75 -29.5t30 -77.5q0 -39 -24 -67.5t-60 -36.5q35 -66 110.5 -103.5t173.5 -37.5q166 0 258 101t92 276
v983z" />
    <glyph glyph-name="uni01CB" unicode="&#x1cb;" horiz-adv-x="2283" 
d="M1978 1221q-49 0 -81.5 30.5t-32.5 77.5q0 49 32.5 80t81.5 31q47 0 78 -31t31 -80q0 -47 -31 -77.5t-78 -30.5zM1319 301v1133h98v-1434h-69l-1012 1231v-1231h-98v1434h153zM1888 -180v1169l178 45v-1198q0 -133 -96 -220t-239 -87q-109 0 -180.5 50t-71.5 126
q0 45 28.5 72.5t69.5 27.5q47 0 76.5 -27.5t29.5 -72.5q0 -51 -38 -80q23 -6 49 -6q86 0 140 57.5t54 143.5z" />
    <glyph glyph-name="uni01CC" unicode="&#x1cc;" horiz-adv-x="1992" 
d="M1688 1221q-49 0 -82 30.5t-33 77.5q0 49 32.5 80t82.5 31q47 0 77.5 -31t30.5 -80q0 -47 -30.5 -77.5t-77.5 -30.5zM786 1044q160 0 264.5 -99t104.5 -249v-696h-178v692q0 102 -70.5 171t-177.5 69q-102 0 -195.5 -61.5t-138.5 -161.5v-709h-178v989l178 45v-207
q53 96 159.5 156.5t231.5 60.5zM1597 -180v1169l179 45v-1198q0 -133 -96.5 -220t-239.5 -87q-109 0 -180.5 50t-71.5 126q0 45 28.5 72.5t69.5 27.5q47 0 77 -27.5t30 -72.5q0 -51 -39 -80q23 -6 49 -6q86 0 140 57.5t54 143.5z" />
    <glyph glyph-name="uni01CD" unicode="&#x1cd;" horiz-adv-x="1540" 
d="M809 1581h-78l-239 227l47 45l231 -139l234 139l47 -45zM1251 0l-174 401h-690l-172 -401h-113l629 1434h80l627 -1434h-187zM426 492h610l-305 704z" />
    <glyph glyph-name="uni01CE" unicode="&#x1ce;" horiz-adv-x="1267" 
d="M678 1192h-78l-240 227l48 45l231 -139l233 139l48 -45zM618 1044q199 0 327 -102t128 -258v-684h-178v137q-63 -70 -171 -113.5t-218 -43.5q-150 0 -256.5 82.5t-106.5 205.5q0 129 122 213t313 84q213 0 317 -67v184q0 119 -82 195.5t-215 76.5q-145 0 -221 -69
q45 -29 45 -86q0 -45 -28.5 -74t-71.5 -29q-47 0 -78 29t-31 74q0 104 118.5 174.5t286.5 70.5zM578 92q203 0 317 137v185q-84 68 -264 67q-143 0 -222 -52t-79 -144q0 -86 67.5 -139.5t180.5 -53.5z" />
    <glyph glyph-name="Gcaron" unicode="&#x1e6;" horiz-adv-x="1701" 
d="M940 1581h-78l-239 227l47 45l231 -139l234 139l47 -45zM1325 606h174v-606h-69l-58 119q-152 -139 -465 -139q-326 0 -545 210.5t-219 526t220.5 526.5t551.5 211q231 0 387 -100.5t156 -249.5q0 -47 -29.5 -77t-74.5 -30q-47 0 -79 31t-32 76q0 80 76 104
q-41 72 -136.5 111t-224.5 39q-291 0 -459.5 -175t-168.5 -472q0 -291 162.5 -466t435.5 -175q147 0 251.5 43t145.5 120v373z" />
    <glyph glyph-name="gcaron" unicode="&#x1e7;" horiz-adv-x="1372" 
d="M721 1192h-78l-240 227l48 45l231 -139l233 139l48 -45zM985 989l178 45v-1104q0 -172 -140 -286.5t-357 -114.5q-178 0 -302 76t-124 186q0 45 29.5 74t76.5 29q43 0 71.5 -29t28.5 -74q0 -66 -55 -92q84 -80 242 -80q154 0 253 88t99 223v215q-135 -166 -354 -165
q-205 0 -347.5 153.5t-142.5 378.5t142.5 378.5t343.5 153.5q111 0 205 -50t153 -136v131zM676 86q98 0 180 47t129 131v486q-51 88 -135 138t-180 50q-152 0 -247 -118t-95 -308q0 -193 96 -309.5t252 -116.5z" />
    <glyph glyph-name="uni01EA" unicode="&#x1ea;" horiz-adv-x="1779" 
d="M1061 -2q-90 -45 -145.5 -108.5t-55.5 -122.5q0 -47 31 -78t82 -31q53 0 94 37l39 -66q-53 -68 -170 -67q-84 0 -141.5 46t-57.5 113q0 66 52.5 137.5t134.5 121.5h-33q-319 0 -533.5 210.5t-214.5 526t214 526.5t533.5 211t532.5 -211t213 -526q0 -270 -159.5 -468
t-415.5 -251zM330 717q0 -293 153.5 -470t407.5 -177t406.5 177t152.5 470t-152.5 470t-406.5 177t-407.5 -177t-153.5 -470z" />
    <glyph glyph-name="uni01EB" unicode="&#x1eb;" horiz-adv-x="1361" 
d="M817 -4q-88 -45 -142 -107.5t-54 -121.5q0 -47 30.5 -78t81.5 -31q53 0 94 37l39 -66q-53 -68 -170 -67q-84 0 -141 46t-57 113q0 66 51 137.5t135 121.5h-2q-231 0 -386 152.5t-155 379.5t155 379.5t386 152.5q229 0 384 -152.5t155 -379.5q0 -190 -112 -332.5
t-292 -183.5zM328 512q0 -203 96 -322.5t258 -119.5q160 0 256 119.5t96 322.5t-96 322.5t-256 119.5q-162 0 -258 -119.5t-96 -322.5z" />
    <glyph glyph-name="uni01F1" unicode="&#x1f1;" horiz-adv-x="2985" 
d="M770 1434q328 0 547 -206t219 -511t-219 -511t-547 -206h-532v1434h532zM2847 1434v-33l-871 -1311h869v-90h-1102v33l870 1310h-841v91h1075zM748 90q272 0 437 171t165 455.5t-165 455.5t-437 171h-332v-1253h332z" />
    <glyph glyph-name="uni01F2" unicode="&#x1f2;" horiz-adv-x="2766" 
d="M770 1434q328 0 547 -206t219 -511t-219 -511t-547 -206h-532v1434h532zM748 90q272 0 437 171t165 455.5t-165 455.5t-437 171h-332v-1253h332zM2638 1024v-33l-588 -901h584v-90h-815v33l587 901h-557v90h789z" />
    <glyph glyph-name="uni01F3" unicode="&#x1f3;" horiz-adv-x="2461" 
d="M983 860v590l178 45v-1495h-178v143q-133 -164 -352 -163q-205 0 -347.5 153.5t-142.5 378.5t142.5 378.5t343.5 153.5q111 0 204 -49t152 -135zM2333 1024v-33l-588 -901h584v-90h-816v33l588 901h-557v90h789zM676 86q96 0 178 47t129 127v494q-51 88 -134 136t-179 48
q-152 0 -247 -118t-95 -308q0 -193 96 -309.5t252 -116.5z" />
    <glyph glyph-name="uni01F4" unicode="&#x1f4;" horiz-adv-x="1701" 
d="M1200 1837l-280 -246h-95l129 246h246zM1325 606h174v-606h-69l-58 119q-152 -139 -465 -139q-326 0 -545 210.5t-219 526t220.5 526.5t551.5 211q231 0 387 -100.5t156 -249.5q0 -47 -29.5 -77t-74.5 -30q-47 0 -79 31t-32 76q0 80 76 104q-41 72 -136.5 111t-224.5 39
q-291 0 -459.5 -175t-168.5 -472q0 -291 162.5 -466t435.5 -175q147 0 251.5 43t145.5 120v373z" />
    <glyph glyph-name="uni01F5" unicode="&#x1f5;" horiz-adv-x="1372" 
d="M979 1448l-281 -246h-94l129 246h246zM985 989l178 45v-1104q0 -172 -140 -286.5t-357 -114.5q-178 0 -302 76t-124 186q0 45 29.5 74t76.5 29q43 0 71.5 -29t28.5 -74q0 -66 -55 -92q84 -80 242 -80q154 0 253 88t99 223v215q-135 -166 -354 -165q-205 0 -347.5 153.5
t-142.5 378.5t142.5 378.5t343.5 153.5q111 0 205 -50t153 -136v131zM676 86q98 0 180 47t129 131v486q-51 88 -135 138t-180 50q-152 0 -247 -118t-95 -308q0 -193 96 -309.5t252 -116.5z" />
    <glyph glyph-name="AEacute" unicode="&#x1fc;" horiz-adv-x="1959" 
d="M1487 1837l-281 -246h-94l129 246h246zM1073 90h764v-90h-942v416h-510l-240 -416h-114l833 1434h953v-91h-744v-571h580v-90h-580v-592zM438 506h457v790z" />
    <glyph glyph-name="aeacute" unicode="&#x1fd;" horiz-adv-x="2050" 
d="M1327 1448l-280 -246h-95l129 246h246zM1788 352q43 0 71.5 -29.5t28.5 -72.5q0 -115 -126 -192.5t-304 -77.5q-150 0 -271.5 59t-195.5 164q-68 -98 -196.5 -160.5t-272.5 -62.5q-156 0 -267.5 83.5t-111.5 204.5q0 129 122 213t313 84q213 0 317 -67v186
q0 119 -86 195.5t-223 76.5t-211 -69q47 -27 47 -88q0 -45 -28.5 -74t-71.5 -29q-47 0 -78 29t-31 74q0 104 116.5 174.5t284.5 70.5q135 0 241 -54t161 -142q156 197 411 196q209 0 345.5 -149.5t136.5 -372.5h-828q2 -211 115 -330.5t307 -119.5q162 0 236 86
q-57 25 -58 92q0 43 31 72.5t76 29.5zM1417 954q-133 0 -222 -93t-110 -249h644q-12 158 -95.5 250t-216.5 92zM594 92q109 0 203 50.5t149 136.5q-31 61 -43 133q-84 70 -270 69q-143 0 -223 -53t-80 -141t73.5 -141.5t190.5 -53.5z" />
    <glyph glyph-name="Oslashacute" unicode="&#x1fe;" horiz-adv-x="1779" 
d="M1149 1837l-281 -246h-94l129 246h246zM1382 1280q254 -215 254 -563q0 -315 -213 -526t-532 -211q-240 0 -426 124l-98 -124h-103l135 172q-256 219 -256 565q0 315 214 526t534 211q240 0 426 -125l98 125h103zM330 717q0 -287 147 -463l770 983q-145 127 -356 127
q-254 0 -407.5 -177t-153.5 -470zM891 70q254 0 406.5 177t152.5 470q0 287 -147 463l-768 -985q147 -125 356 -125z" />
    <glyph glyph-name="oslashacute" unicode="&#x1ff;" horiz-adv-x="1361" 
d="M938 1448l-281 -246h-94l129 246h246zM1044 911q176 -154 177 -399q0 -227 -155 -379.5t-384 -152.5q-166 0 -299 83l-66 -83h-102l102 133q-176 156 -176 399q0 227 155 379.5t386 152.5q166 0 299 -83l66 83h102zM328 512q0 -176 75 -293l504 647q-88 88 -225 88
q-162 0 -258 -119.5t-96 -322.5zM682 70q160 0 256 119.5t96 322.5q0 176 -73 291l-506 -647q92 -86 227 -86z" />
    <glyph glyph-name="uni0200" unicode="&#x200;" horiz-adv-x="1540" 
d="M662 1591h-95l-243 246h206zM999 1591h-94l-243 246h206zM1251 0l-174 401h-690l-172 -401h-113l629 1434h80l627 -1434h-187zM426 492h610l-305 704z" />
    <glyph glyph-name="uni0201" unicode="&#x201;" horiz-adv-x="1267" 
d="M530 1202h-94l-243 246h206zM868 1202h-94l-244 246h207zM618 1044q199 0 327 -102t128 -258v-684h-178v137q-63 -70 -171 -113.5t-218 -43.5q-150 0 -256.5 82.5t-106.5 205.5q0 129 122 213t313 84q213 0 317 -67v184q0 119 -82 195.5t-215 76.5q-145 0 -221 -69
q45 -29 45 -86q0 -45 -28.5 -74t-71.5 -29q-47 0 -78 29t-31 74q0 104 118.5 174.5t286.5 70.5zM578 92q203 0 317 137v185q-84 68 -264 67q-143 0 -222 -52t-79 -144q0 -86 67.5 -139.5t180.5 -53.5z" />
    <glyph glyph-name="uni0202" unicode="&#x202;" horiz-adv-x="1540" 
d="M770 1731q-74 0 -127 -36t-61 -93h-90q0 104 85 178.5t193.5 74.5t193.5 -74.5t87 -178.5h-90q-10 57 -62.5 93t-128.5 36zM1251 0l-174 401h-690l-172 -401h-113l629 1434h80l627 -1434h-187zM426 492h610l-305 704z" />
    <glyph glyph-name="uni0203" unicode="&#x203;" horiz-adv-x="1267" 
d="M639 1341q-74 0 -127 -35.5t-61 -93.5h-91q0 104 85 179t194 75t194 -74.5t87 -179.5h-91q-10 57 -62 93t-128 36zM618 1044q199 0 327 -102t128 -258v-684h-178v137q-63 -70 -171 -113.5t-218 -43.5q-150 0 -256.5 82.5t-106.5 205.5q0 129 122 213t313 84
q213 0 317 -67v184q0 119 -82 195.5t-215 76.5q-145 0 -221 -69q45 -29 45 -86q0 -45 -28.5 -74t-71.5 -29q-47 0 -78 29t-31 74q0 104 118.5 174.5t286.5 70.5zM578 92q203 0 317 137v185q-84 68 -264 67q-143 0 -222 -52t-79 -144q0 -86 67.5 -139.5t180.5 -53.5z" />
    <glyph glyph-name="uni0204" unicode="&#x204;" horiz-adv-x="1370" 
d="M655 1591h-94l-244 246h207zM993 1591h-94l-244 246h207zM416 90h831v-90h-1009v1434h989v-91h-811v-571h647v-90h-647v-592z" />
    <glyph glyph-name="uni0205" unicode="&#x205;" 
d="M549 1202h-94l-244 246h207zM887 1202h-94l-244 246h207zM1034 352q43 0 72 -29.5t29 -72.5q0 -115 -126 -192.5t-302 -77.5q-246 0 -406 152.5t-160 379.5t154 379.5t375 152.5q213 0 349 -149.5t136 -372.5h-827q2 -211 113.5 -330.5t306.5 -119.5q162 0 237 86
q-57 27 -57 92q0 43 30.5 72.5t75.5 29.5zM666 954q-133 0 -223.5 -93t-110.5 -249h643q-12 158 -95 250t-214 92z" />
    <glyph glyph-name="uni0206" unicode="&#x206;" horiz-adv-x="1370" 
d="M764 1731q-74 0 -127 -36t-62 -93h-90q0 104 85 178.5t193.5 74.5t193.5 -74.5t87 -178.5h-90q-10 57 -62 93t-128 36zM416 90h831v-90h-1009v1434h989v-91h-811v-571h647v-90h-647v-592z" />
    <glyph glyph-name="uni0207" unicode="&#x207;" 
d="M657 1341q-74 0 -127 -35.5t-61 -93.5h-90q0 104 85 179t193.5 75t193.5 -74.5t87 -179.5h-90q-10 57 -62.5 93t-128.5 36zM1034 352q43 0 72 -29.5t29 -72.5q0 -115 -126 -192.5t-302 -77.5q-246 0 -406 152.5t-160 379.5t154 379.5t375 152.5q213 0 349 -149.5
t136 -372.5h-827q2 -211 113.5 -330.5t306.5 -119.5q162 0 237 86q-57 27 -57 92q0 43 30.5 72.5t75.5 29.5zM666 954q-133 0 -223.5 -93t-110.5 -249h643q-12 158 -95 250t-214 92z" />
    <glyph glyph-name="uni0208" unicode="&#x208;" horiz-adv-x="655" 
d="M217 1591h-94l-244 246h207zM555 1591h-94l-244 246h207zM238 0v1434h178v-1434h-178z" />
    <glyph glyph-name="uni0209" unicode="&#x209;" horiz-adv-x="614" 
d="M197 1202h-95l-243 246h207zM535 1202h-95l-243 246h206zM217 0v989l178 45v-1034h-178z" />
    <glyph glyph-name="uni020A" unicode="&#x20a;" horiz-adv-x="655" 
d="M327.5 1855q108.5 0 193.5 -74.5t87 -178.5h-90q-10 57 -62.5 93t-127.5 36q-74 0 -127.5 -36t-61.5 -93h-90q0 104 85 178.5t193.5 74.5zM238 0v1434h178v-1434h-178z" />
    <glyph glyph-name="uni020B" unicode="&#x20b;" horiz-adv-x="614" 
d="M307.5 1466q108.5 0 193.5 -74.5t87 -179.5h-90q-10 57 -62.5 93t-128.5 36q-74 0 -127 -35.5t-61 -93.5h-90q0 104 85 179t193.5 75zM217 0v989l178 45v-1034h-178z" />
    <glyph glyph-name="uni020C" unicode="&#x20c;" horiz-adv-x="1779" 
d="M780 1591h-94l-244 246h207zM1118 1591h-94l-244 246h207zM890.5 -20q-319.5 0 -533.5 210.5t-214 526t214 526.5t533.5 211t532.5 -211t213 -526.5t-213 -526t-532.5 -210.5zM891 70q254 0 406.5 177t152.5 470t-152.5 470t-406.5 177t-407.5 -177t-153.5 -470
t153.5 -470t407.5 -177z" />
    <glyph glyph-name="uni020D" unicode="&#x20d;" horiz-adv-x="1361" 
d="M571 1202h-94l-244 246h207zM909 1202h-94l-244 246h207zM682 -20q-231 0 -386 152.5t-155 379.5t155 379.5t386 152.5q229 0 384 -152.5t155 -379.5t-155 -379.5t-384 -152.5zM682 70q160 0 256 119.5t96 322.5t-96 322.5t-256 119.5q-162 0 -258 -119.5t-96 -322.5
t96 -322.5t258 -119.5z" />
    <glyph glyph-name="uni020E" unicode="&#x20e;" horiz-adv-x="1779" 
d="M888.5 1855q108.5 0 193.5 -74.5t87 -178.5h-90q-10 57 -62 93t-128 36q-74 0 -127 -36t-62 -93h-90q0 104 85 178.5t193.5 74.5zM890.5 -20q-319.5 0 -533.5 210.5t-214 526t214 526.5t533.5 211t532.5 -211t213 -526.5t-213 -526t-532.5 -210.5zM891 70
q254 0 406.5 177t152.5 470t-152.5 470t-406.5 177t-407.5 -177t-153.5 -470t153.5 -470t407.5 -177z" />
    <glyph glyph-name="uni020F" unicode="&#x20f;" horiz-adv-x="1361" 
d="M679.5 1466q108.5 0 193.5 -74.5t88 -179.5h-91q-10 57 -62 93t-128 36q-74 0 -127 -35.5t-61 -93.5h-91q0 104 85 179t193.5 75zM682 -20q-231 0 -386 152.5t-155 379.5t155 379.5t386 152.5q229 0 384 -152.5t155 -379.5t-155 -379.5t-384 -152.5zM682 70
q160 0 256 119.5t96 322.5t-96 322.5t-256 119.5q-162 0 -258 -119.5t-96 -322.5t96 -322.5t258 -119.5z" />
    <glyph glyph-name="uni0210" unicode="&#x210;" horiz-adv-x="1482" 
d="M649 1591h-94l-244 246h207zM987 1591h-94l-244 246h207zM1292 156q61 -106 133 -156h-206q-63 45 -105 119l-213 368q-39 68 -90 103h-10h-385v-590h-178v1434h563q221 0 370.5 -119t149.5 -299q0 -150 -101.5 -260.5t-265.5 -147.5q100 -43 152 -137zM416 1343v-663
h350q168 0 268.5 90t100.5 241.5t-100.5 241.5t-268.5 90h-350z" />
    <glyph glyph-name="uni0211" unicode="&#x211;" horiz-adv-x="1024" 
d="M469 1202h-94l-244 246h207zM807 1202h-94l-244 246h207zM940 854q0 -43 -28.5 -72.5t-73.5 -29.5t-76 29.5t-31 72.5t31 74q-29 14 -72 14q-98 0 -179 -68.5t-116 -181.5v-692h-178v989l178 45v-209q41 100 125 159.5t186.5 59.5t168 -54t65.5 -136z" />
    <glyph glyph-name="uni0212" unicode="&#x212;" horiz-adv-x="1482" 
d="M758 1731q-74 0 -127 -36t-62 -93h-90q0 104 85 178.5t193.5 74.5t193.5 -74.5t87 -178.5h-90q-10 57 -62 93t-128 36zM1292 156q61 -106 133 -156h-206q-63 45 -105 119l-213 368q-39 68 -90 103h-10h-385v-590h-178v1434h563q221 0 370.5 -119t149.5 -299
q0 -150 -101.5 -260.5t-265.5 -147.5q100 -43 152 -137zM416 1343v-663h350q168 0 268.5 90t100.5 241.5t-100.5 241.5t-268.5 90h-350z" />
    <glyph glyph-name="uni0213" unicode="&#x213;" horiz-adv-x="1024" 
d="M580 1341q-74 0 -127.5 -35.5t-61.5 -93.5h-90q0 104 85 179t193.5 75t193.5 -74.5t87 -179.5h-90q-10 57 -62 93t-128 36zM940 854q0 -43 -28.5 -72.5t-73.5 -29.5t-76 29.5t-31 72.5t31 74q-29 14 -72 14q-98 0 -179 -68.5t-116 -181.5v-692h-178v989l178 45v-209
q41 100 125 159.5t186.5 59.5t168 -54t65.5 -136z" />
    <glyph glyph-name="uni0214" unicode="&#x214;" horiz-adv-x="1642" 
d="M737 1591h-94l-244 246h207zM1075 1591h-94l-244 246h207zM848 -20q-276 0 -450.5 161.5t-174.5 425.5v867h178v-899q0 -203 130.5 -324t342.5 -121q205 0 326 121t121 324v899h98v-902q0 -252 -153.5 -402t-417.5 -150z" />
    <glyph glyph-name="uni0215" unicode="&#x215;" horiz-adv-x="1341" 
d="M555 1202h-94l-244 246h207zM893 1202h-94l-244 246h207zM944 989l178 45v-1034h-178v195q-55 -96 -157.5 -155.5t-223.5 -59.5q-156 0 -260 99t-104 249v661l178 45v-702q0 -102 68.5 -171t172.5 -69q98 0 189.5 62.5t136.5 160.5v674z" />
    <glyph glyph-name="uni0216" unicode="&#x216;" horiz-adv-x="1642" 
d="M845.5 1855q108.5 0 193.5 -74.5t87 -178.5h-90q-10 57 -62 93t-128 36q-74 0 -127 -36t-62 -93h-90q0 104 85 178.5t193.5 74.5zM848 -20q-276 0 -450.5 161.5t-174.5 425.5v867h178v-899q0 -203 130.5 -324t342.5 -121q205 0 326 121t121 324v899h98v-902
q0 -252 -153.5 -402t-417.5 -150z" />
    <glyph glyph-name="uni0217" unicode="&#x217;" horiz-adv-x="1341" 
d="M664 1341q-74 0 -127.5 -35.5t-61.5 -93.5h-90q0 104 85 179t193.5 75t193.5 -74.5t87 -179.5h-90q-10 57 -62 93t-128 36zM944 989l178 45v-1034h-178v195q-55 -96 -157.5 -155.5t-223.5 -59.5q-156 0 -260 99t-104 249v661l178 45v-702q0 -102 68.5 -171t172.5 -69
q98 0 189.5 62.5t136.5 160.5v674z" />
    <glyph glyph-name="uni0218" unicode="&#x218;" horiz-adv-x="1335" 
d="M731 795q78 -31 119 -48.5t105.5 -48t99.5 -59.5t71.5 -70t53 -90t16.5 -108q0 -176 -145.5 -283.5t-372.5 -107.5q-221 0 -373.5 95t-152.5 236q0 43 30.5 72t75.5 29q41 0 69.5 -29t28.5 -72q0 -70 -61 -94q43 -68 140 -107.5t218 -39.5q168 0 271.5 67.5t103.5 181.5
q0 53 -28.5 98.5t-90 85.5t-117 67.5t-149.5 66.5q-84 33 -130 53.5t-118.5 61.5t-110.5 80.5t-69 102t-31 134.5q0 168 140.5 276.5t355.5 108.5q195 0 328 -89t133 -220q0 -43 -29 -72t-70 -29q-45 0 -74.5 29t-29.5 72q0 68 61 92q-37 59 -116.5 93t-184.5 34
q-152 0 -251 -69.5t-99 -182.5q0 -55 31 -102t93.5 -87t115.5 -65.5t143 -62.5zM692 -145q49 0 82 -33t33 -86q0 -70 -49 -144.5t-117 -109.5l-37 41q55 49 80 123q-45 2 -72.5 32.5t-27.5 75.5q0 41 31.5 71t76.5 30z" />
    <glyph glyph-name="uni0219" unicode="&#x219;" horiz-adv-x="1062" 
d="M590 594q80 -33 123 -54.5t103.5 -61.5t89 -93t28.5 -119q0 -127 -106.5 -206.5t-284.5 -79.5q-168 0 -284 64.5t-116 160.5q0 43 28 69.5t73 26.5q41 0 67.5 -26.5t26.5 -69.5q0 -53 -41 -80q76 -66 221 -66q115 0 184.5 46.5t69.5 117.5q0 70 -64.5 115t-195.5 96
q-74 29 -121 52.5t-106.5 63.5t-89 94t-29.5 120q0 125 107.5 202.5t275.5 77.5q147 0 248.5 -58t101.5 -144q0 -41 -26.5 -69t-67.5 -28q-45 0 -74 28t-29 69q0 51 39 78q-61 45 -172 45q-106 0 -174.5 -46.5t-68.5 -116t66.5 -114.5t197.5 -94zM543 -145q49 0 81.5 -33
t32.5 -86q0 -70 -49 -144.5t-116 -109.5l-37 41q55 49 80 123q-45 2 -73 32.5t-28 75.5q0 41 32 71t77 30z" />
    <glyph glyph-name="uni021A" unicode="&#x21a;" horiz-adv-x="1341" 
d="M1245 1434v-91h-483v-1343h-178v1343h-486v91h1147zM670 -145q49 0 81.5 -33t32.5 -86q0 -70 -49 -144.5t-117 -109.5l-36 41q55 49 80 123q-45 2 -73 32.5t-28 75.5q0 41 32 71t77 30z" />
    <glyph glyph-name="uni021B" unicode="&#x21b;" horiz-adv-x="856" 
d="M735 172l49 -53q-18 -59 -92 -99t-164 -40q-121 0 -203.5 73.5t-82.5 184.5v696h-131v90h131v231l178 50v-281h311v-90h-311v-686q0 -72 46 -121t116 -49q47 0 93 27.5t60 66.5zM479 -145q49 0 82 -33t33 -86q0 -70 -49 -144.5t-117 -109.5l-37 41q55 49 80 123
q-45 2 -72.5 32.5t-27.5 75.5q0 41 31.5 71t76.5 30z" />
    <glyph glyph-name="uni0232" unicode="&#x232;" horiz-adv-x="1472" 
d="M981 1772v-123h-492v123h492zM1253 1434h117l-545 -820v-614h-178v614l-545 820h199l477 -719z" />
    <glyph glyph-name="uni0233" unicode="&#x233;" horiz-adv-x="1126" 
d="M829 1382v-122h-491v122h491zM946 1024h113l-600 -1368q-55 -127 -191 -127q-68 0 -118 42t-50 101q0 39 30 68t71 29t67.5 -28t26.5 -69q0 -37 -19 -61q68 0 95 65l149 353l-436 995h186l340 -786z" />
    <glyph glyph-name="uni0237" unicode="&#x237;" horiz-adv-x="616" 
d="M229 989l179 45v-1198q0 -133 -96.5 -220t-239.5 -87q-109 0 -180.5 50t-71.5 126q0 45 28.5 72.5t69.5 27.5q47 0 77 -27.5t30 -72.5q0 -47 -37 -78q29 -4 43 -4q90 0 144 55.5t54 141.5v1169z" />
    <glyph glyph-name="uni02BC" unicode="&#x2bc;" horiz-adv-x="217" 
d="M0 1167l41 287h176l-131 -287h-86z" />
    <glyph glyph-name="circumflex" unicode="&#x2c6;" horiz-adv-x="559" 
d="M559 1237l-47 -45l-233 139l-232 -139l-47 45l240 227h77z" />
    <glyph glyph-name="caron" unicode="&#x2c7;" horiz-adv-x="559" 
d="M512 1464l47 -45l-242 -227h-77l-240 227l47 45l232 -139z" />
    <glyph glyph-name="breve" unicode="&#x2d8;" horiz-adv-x="559" 
d="M278.5 1190q-108.5 0 -193.5 74.5t-85 179.5h90q8 -57 61.5 -93t127.5 -36q76 0 128 35.5t62 93.5h90q-2 -104 -87 -179t-193.5 -75z" />
    <glyph glyph-name="dotaccent" unicode="&#x2d9;" horiz-adv-x="217" 
d="M111 1190q-45 0 -78 28.5t-33 75.5q0 45 33 76t80 31q45 0 74.5 -30t29.5 -77t-29.5 -75.5t-76.5 -28.5z" />
    <glyph glyph-name="ring" unicode="&#x2da;" horiz-adv-x="323" 
d="M166 1167q-70 0 -118 45t-48 111q0 70 47 115t116.5 45t115 -45t45.5 -115q0 -66 -45 -111t-113 -45zM166 1233q37 0 61.5 24.5t24.5 65.5q0 43 -24.5 68.5t-61.5 25.5q-41 0 -67.5 -25.5t-26.5 -68.5q0 -41 26.5 -65.5t67.5 -24.5z" />
    <glyph glyph-name="ogonek" unicode="&#x2db;" horiz-adv-x="368" 
d="M199 -438q-84 0 -141.5 46t-57.5 113q0 74 63.5 153t159.5 126l-14 14h104l17 -14q-94 -45 -150.5 -109.5t-56.5 -123.5q0 -47 30.5 -78t82.5 -31q53 0 94 37l39 -66q-53 -67 -170 -67z" />
    <glyph glyph-name="tilde" unicode="&#x2dc;" horiz-adv-x="614" 
d="M428 1210q-55 0 -99 32t-80 63.5t-71 31.5q-37 0 -63.5 -31.5t-28.5 -84.5h-86q0 100 52 165.5t132 65.5q66 0 139.5 -64.5t112.5 -64.5t63.5 31.5t28.5 87.5h86q0 -100 -52 -166t-134 -66z" />
    <glyph glyph-name="hungarumlaut" unicode="&#x2dd;" horiz-adv-x="675" 
d="M0 1202l133 246h205l-242 -246h-96zM338 1202l133 246h205l-242 -246h-96z" />
    <glyph glyph-name="gravecomb" unicode="&#x300;" horiz-adv-x="0" 
d="M-94 1202l-281 246h246l131 -246h-96z" />
    <glyph glyph-name="acutecomb" unicode="&#x301;" horiz-adv-x="0" 
d="M-281 1202h-94l129 246h248z" />
    <glyph glyph-name="uni0302" unicode="&#x302;" horiz-adv-x="0" 
d="M0 1237l-47 -45l-234 139l-231 -139l-47 45l240 227h77z" />
    <glyph glyph-name="tildecomb" unicode="&#x303;" horiz-adv-x="0" 
d="M-186 1210q-55 0 -99.5 32t-80 63.5t-70.5 31.5q-37 0 -63.5 -31.5t-28.5 -84.5h-86q0 100 52 165.5t132 65.5q66 0 139.5 -64.5t112.5 -64.5t63.5 31.5t28.5 87.5h86q0 -100 -52 -166t-134 -66z" />
    <glyph glyph-name="uni0304" unicode="&#x304;" horiz-adv-x="0" 
d="M-492 1260v122h492v-122h-492z" />
    <glyph glyph-name="uni0306" unicode="&#x306;" horiz-adv-x="0" 
d="M-280.5 1190q-108.5 0 -193.5 74.5t-85 179.5h90q8 -57 61.5 -93t126.5 -36q76 0 128.5 35.5t62.5 93.5h90q-2 -104 -87 -179t-193.5 -75z" />
    <glyph glyph-name="uni0307" unicode="&#x307;" horiz-adv-x="0" 
d="M-106 1190q-45 0 -78 28.5t-33 75.5q0 45 32.5 76t80.5 31q45 0 74.5 -30t29.5 -77t-29.5 -75.5t-76.5 -28.5z" />
    <glyph glyph-name="uni0308" unicode="&#x308;" horiz-adv-x="0" 
d="M-492 1194q-43 0 -72.5 27.5t-29.5 70.5q0 45 29.5 74t75.5 29q43 0 71.5 -29t28.5 -72t-29 -71.5t-74 -28.5zM-100 1194q-43 0 -73 28.5t-30 71.5t30 72t75 29q41 0 69.5 -29t28.5 -72t-28.5 -71.5t-71.5 -28.5z" />
    <glyph glyph-name="uni030A" unicode="&#x30a;" horiz-adv-x="0" 
d="M-158 1167q-70 0 -118 45t-48 111q0 70 47.5 115t117 45t114.5 -45t45 -115q0 -66 -45 -111t-113 -45zM-158 1233q37 0 61.5 24.5t24.5 65.5q0 43 -24.5 68.5t-61.5 25.5q-41 0 -67.5 -25.5t-26.5 -68.5q0 -41 26.5 -65.5t67.5 -24.5z" />
    <glyph glyph-name="uni030B" unicode="&#x30b;" horiz-adv-x="0" 
d="M-676 1202l133 246h205l-242 -246h-96zM-338 1202l133 246h205l-242 -246h-96z" />
    <glyph glyph-name="uni030C" unicode="&#x30c;" horiz-adv-x="0" 
d="M-47 1464l47 -45l-242 -227h-77l-240 227l47 45l231 -139z" />
    <glyph glyph-name="uni030F" unicode="&#x30f;" horiz-adv-x="0" 
d="M-338 1202h-94l-244 246h207zM0 1202h-94l-244 246h207z" />
    <glyph glyph-name="uni0311" unicode="&#x311;" horiz-adv-x="0" 
d="M-280.5 1466q108.5 0 193.5 -74.5t87 -179.5h-90q-10 57 -62.5 93t-128.5 36q-74 0 -127 -35.5t-61 -93.5h-90q0 104 85 179t193.5 75z" />
    <glyph glyph-name="uni0312" unicode="&#x312;" horiz-adv-x="0" 
d="M-100 1376q43 -2 72.5 -32.5t29.5 -75.5q0 -43 -32.5 -72t-80.5 -29q-49 0 -80.5 33t-31.5 86q0 70 48 144.5t116 109.5l36 -43q-57 -47 -77 -121z" />
    <glyph glyph-name="dotbelowcomb" unicode="&#x323;" horiz-adv-x="0" 
d="M-106 -358q-45 0 -78 28.5t-33 75.5q0 45 32.5 76t80.5 31q45 0 74.5 -30t29.5 -77t-29.5 -75.5t-76.5 -28.5z" />
    <glyph glyph-name="uni0326" unicode="&#x326;" horiz-adv-x="0" 
d="M-115 -145q49 0 83 -33t34 -86q0 -70 -50 -144.5t-118 -109.5l-37 41q55 49 80 123q-45 2 -72.5 32.5t-27.5 75.5q0 41 31.5 71t76.5 30z" />
    <glyph glyph-name="uni0327" unicode="&#x327;" horiz-adv-x="0" 
d="M-176 -113q74 0 125 -47t51 -112q0 -72 -61.5 -119t-149.5 -47q-106 0 -170 67l43 56q43 -39 109 -39q49 0 79.5 24.5t30.5 63.5q0 37 -26.5 61.5t-65.5 24.5q-51 0 -80 -35l-51 33l106 192h99l-82 -129q23 6 43 6z" />
    <glyph glyph-name="uni0328" unicode="&#x328;" horiz-adv-x="0" 
d="M-170 -438q-84 0 -141.5 46t-57.5 113q0 74 63.5 153t160.5 126l-15 14h105l16 -14q-94 -45 -150.5 -109.5t-56.5 -123.5q0 -47 31 -78t82 -31q53 0 94 37l39 -66q-53 -67 -170 -67z" />
    <glyph glyph-name="uni0335" unicode="&#x335;" horiz-adv-x="0" 
d="M-559 508v90h559v-90h-559z" />
    <glyph glyph-name="uni0336" unicode="&#x336;" horiz-adv-x="0" 
d="M-1501 508v90h1501v-90h-1501z" />
    <glyph glyph-name="uni0337" unicode="&#x337;" horiz-adv-x="0" 
d="M-934 -20l832 1064h102l-831 -1064h-103z" />
    <glyph glyph-name="uni0338" unicode="&#x338;" horiz-adv-x="0" 
d="M-1253 -20l1151 1474h102l-1151 -1474h-102z" />
    <glyph glyph-name="uni1E0C" unicode="&#x1e0c;" horiz-adv-x="1679" 
d="M770 1434q328 0 547 -206t219 -511t-219 -511t-547 -206h-532v1434h532zM748 90q272 0 437 171t165 455.5t-165 455.5t-437 171h-332v-1253h332zM831 -147q45 0 75 -30t30 -77t-29.5 -75.5t-77.5 -28.5q-45 0 -77.5 28.5t-32.5 75.5q0 45 32.5 76t79.5 31z" />
    <glyph glyph-name="uni1E0D" unicode="&#x1e0d;" horiz-adv-x="1380" 
d="M983 1450l178 45v-1495h-178v143q-133 -164 -352 -163q-205 0 -347.5 153.5t-142.5 378.5t142.5 378.5t343.5 153.5q111 0 204 -49t152 -135v590zM676 86q96 0 178 47t129 127v494q-51 88 -134 136t-179 48q-152 0 -247 -118t-95 -308q0 -193 96 -309.5t252 -116.5z
M702 -147q45 0 75 -30t30 -77t-29.5 -75.5t-77.5 -28.5q-45 0 -77.5 28.5t-32.5 75.5q0 45 32.5 76t79.5 31z" />
    <glyph glyph-name="uni1E24" unicode="&#x1e24;" horiz-adv-x="1685" 
d="M1268 1434h178v-1434h-178v682h-852v-682h-178v1434h178v-662h852v662zM846 -147q45 0 74.5 -30t29.5 -77t-29.5 -75.5t-76.5 -28.5q-45 0 -78 28.5t-33 75.5q0 45 33 76t80 31z" />
    <glyph glyph-name="uni1E25" unicode="&#x1e25;" horiz-adv-x="1347" 
d="M784 1044q160 0 265.5 -99t105.5 -249v-696h-178v692q0 102 -69.5 171t-178.5 69q-102 0 -195.5 -61.5t-138.5 -161.5v-709h-178v1450l178 45v-670q53 98 159.5 158.5t229.5 60.5zM692 -147q45 0 75 -30t30 -77t-30 -75.5t-77 -28.5q-45 0 -77.5 28.5t-32.5 75.5
q0 45 32.5 76t79.5 31z" />
    <glyph glyph-name="uni1E44" unicode="&#x1e44;" horiz-adv-x="1654" 
d="M852 1579q-45 0 -78 28.5t-33 75.5q0 45 33 76t80 31q45 0 74.5 -29.5t29.5 -77t-29.5 -76t-76.5 -28.5zM1319 1434h98v-1434h-69l-1012 1231v-1231h-98v1434h153l928 -1133v1133z" />
    <glyph glyph-name="uni1E45" unicode="&#x1e45;" horiz-adv-x="1347" 
d="M688 1190q-45 0 -77.5 28.5t-32.5 75.5q0 45 32.5 76t79.5 31q45 0 75 -30t30 -77t-30 -75.5t-77 -28.5zM786 1044q160 0 264.5 -99t104.5 -249v-696h-178v692q0 102 -70.5 171t-177.5 69q-102 0 -195.5 -61.5t-138.5 -161.5v-709h-178v989l178 45v-207
q53 96 159.5 156.5t231.5 60.5z" />
    <glyph glyph-name="uni1E5A" unicode="&#x1e5a;" horiz-adv-x="1482" 
d="M1292 156q61 -106 133 -156h-206q-63 45 -105 119l-213 368q-39 68 -90 103h-10h-385v-590h-178v1434h563q221 0 370.5 -119t149.5 -299q0 -150 -101.5 -260.5t-265.5 -147.5q100 -43 152 -137zM416 1343v-663h350q168 0 268.5 90t100.5 241.5t-100.5 241.5t-268.5 90
h-350zM813 -147q45 0 75 -30t30 -77t-30 -75.5t-77 -28.5q-45 0 -78 28.5t-33 75.5q0 45 33 76t80 31z" />
    <glyph glyph-name="uni1E5B" unicode="&#x1e5b;" horiz-adv-x="1024" 
d="M940 854q0 -43 -28.5 -72.5t-73.5 -29.5t-76 29.5t-31 72.5t31 74q-29 14 -72 14q-98 0 -179 -68.5t-116 -181.5v-692h-178v989l178 45v-209q41 100 125 159.5t186.5 59.5t168 -54t65.5 -136zM313 -147q45 0 75 -30t30 -77t-30 -75.5t-77 -28.5q-45 0 -77.5 28.5
t-32.5 75.5q0 45 32.5 76t79.5 31z" />
    <glyph glyph-name="uni1E62" unicode="&#x1e62;" horiz-adv-x="1335" 
d="M731 795q78 -31 119 -48.5t105.5 -48t99.5 -59.5t71.5 -70t53 -90t16.5 -108q0 -176 -145.5 -283.5t-372.5 -107.5q-221 0 -373.5 95t-152.5 236q0 43 30.5 72t75.5 29q41 0 69.5 -29t28.5 -72q0 -70 -61 -94q43 -68 140 -107.5t218 -39.5q168 0 271.5 67.5t103.5 181.5
q0 53 -28.5 98.5t-90 85.5t-117 67.5t-149.5 66.5q-84 33 -130 53.5t-118.5 61.5t-110.5 80.5t-69 102t-31 134.5q0 168 140.5 276.5t355.5 108.5q195 0 328 -89t133 -220q0 -43 -29 -72t-70 -29q-45 0 -74.5 29t-29.5 72q0 68 61 92q-37 59 -116.5 93t-184.5 34
q-152 0 -251 -69.5t-99 -182.5q0 -55 31 -102t93.5 -87t115.5 -65.5t143 -62.5zM698 -147q45 0 75 -30t30 -77t-30 -75.5t-77 -28.5q-45 0 -77.5 28.5t-32.5 75.5q0 45 32.5 76t79.5 31z" />
    <glyph glyph-name="uni1E63" unicode="&#x1e63;" horiz-adv-x="1062" 
d="M590 594q80 -33 123 -54.5t103.5 -61.5t89 -93t28.5 -119q0 -127 -106.5 -206.5t-284.5 -79.5q-168 0 -284 64.5t-116 160.5q0 43 28 69.5t73 26.5q41 0 67.5 -26.5t26.5 -69.5q0 -53 -41 -80q76 -66 221 -66q115 0 184.5 46.5t69.5 117.5q0 70 -64.5 115t-195.5 96
q-74 29 -121 52.5t-106.5 63.5t-89 94t-29.5 120q0 125 107.5 202.5t275.5 77.5q147 0 248.5 -58t101.5 -144q0 -41 -26.5 -69t-67.5 -28q-45 0 -74 28t-29 69q0 51 39 78q-61 45 -172 45q-106 0 -174.5 -46.5t-68.5 -116t66.5 -114.5t197.5 -94zM549 -147q45 0 74.5 -30
t29.5 -77t-29.5 -75.5t-76.5 -28.5q-45 0 -78 28.5t-33 75.5q0 45 33 76t80 31z" />
    <glyph glyph-name="uni1E6C" unicode="&#x1e6c;" horiz-adv-x="1341" 
d="M1245 1434v-91h-483v-1343h-178v1343h-486v91h1147zM676 -147q45 0 74.5 -30t29.5 -77t-29.5 -75.5t-76.5 -28.5q-45 0 -78 28.5t-33 75.5q0 45 33 76t80 31z" />
    <glyph glyph-name="uni1E6D" unicode="&#x1e6d;" horiz-adv-x="856" 
d="M735 172l49 -53q-18 -59 -92 -99t-164 -40q-121 0 -203.5 73.5t-82.5 184.5v696h-131v90h131v231l178 50v-281h311v-90h-311v-686q0 -72 46 -121t116 -49q47 0 93 27.5t60 66.5zM485 -147q45 0 75 -30t30 -77t-30 -75.5t-77 -28.5q-45 0 -77.5 28.5t-32.5 75.5
q0 45 32.5 76t79.5 31z" />
    <glyph glyph-name="Wgrave" unicode="&#x1e80;" horiz-adv-x="2359" 
d="M1266 1591h-95l-280 246h246zM2144 1434h113l-629 -1434h-80l-368 844l-371 -844h-80l-627 1434h189l520 -1196l311 735l-200 461h188l520 -1196z" />
    <glyph glyph-name="wgrave" unicode="&#x1e81;" horiz-adv-x="1740" 
d="M954 1202h-94l-280 246h245zM1561 1024h112l-448 -1024h-82l-269 614l-270 -614h-80l-448 1024h186l342 -786l213 503l-123 283h187l342 -788z" />
    <glyph glyph-name="Wacute" unicode="&#x1e82;" horiz-adv-x="2359" 
d="M1485 1837l-281 -246h-94l129 246h246zM2144 1434h113l-629 -1434h-80l-368 844l-371 -844h-80l-627 1434h189l520 -1196l311 735l-200 461h188l520 -1196z" />
    <glyph glyph-name="wacute" unicode="&#x1e83;" horiz-adv-x="1740" 
d="M1174 1448l-281 -246h-94l129 246h246zM1561 1024h112l-448 -1024h-82l-269 614l-270 -614h-80l-448 1024h186l342 -786l213 503l-123 283h187l342 -788z" />
    <glyph glyph-name="Wdieresis" unicode="&#x1e84;" horiz-adv-x="2359" 
d="M991 1583q-43 0 -72.5 27.5t-29.5 70.5q0 45 29.5 74t74.5 29q43 0 72 -29t29 -72t-29 -71.5t-74 -28.5zM1382 1583q-43 0 -72.5 28.5t-29.5 71.5t29.5 72t74.5 29q41 0 70 -29t29 -72t-29 -71.5t-72 -28.5zM2144 1434h113l-629 -1434h-80l-368 844l-371 -844h-80
l-627 1434h189l520 -1196l311 735l-200 461h188l520 -1196z" />
    <glyph glyph-name="wdieresis" unicode="&#x1e85;" horiz-adv-x="1740" 
d="M682 1194q-43 0 -72.5 27.5t-29.5 70.5q0 45 29.5 74t74.5 29q43 0 71.5 -29t28.5 -72t-28.5 -71.5t-73.5 -28.5zM1073 1194q-43 0 -72.5 28.5t-29.5 71.5t29.5 72t74.5 29q41 0 70 -29t29 -72t-29 -71.5t-72 -28.5zM1561 1024h112l-448 -1024h-82l-269 614l-270 -614
h-80l-448 1024h186l342 -786l213 503l-123 283h187l342 -788z" />
    <glyph glyph-name="uni1E92" unicode="&#x1e92;" horiz-adv-x="1382" 
d="M1243 1434v-33l-870 -1311h868v-90h-1102v33l871 1310h-842v91h1075zM729 -147q45 0 75 -30t30 -77t-30 -75.5t-77 -28.5q-45 0 -78 28.5t-33 75.5q0 45 33 76t80 31z" />
    <glyph glyph-name="uni1E93" unicode="&#x1e93;" horiz-adv-x="1081" 
d="M952 1024v-33l-587 -901h583v-90h-815v33l588 901h-557v90h788zM567 -147q45 0 75 -30t30 -77t-30 -75.5t-77 -28.5q-45 0 -77.5 28.5t-32.5 75.5q0 45 32.5 76t79.5 31z" />
    <glyph glyph-name="uni1E9E" unicode="&#x1e9e;" horiz-adv-x="1576" 
d="M940 844q221 -6 369.5 -129t148.5 -309q0 -182 -135 -304t-338 -122q-176 0 -296 90t-120 221q0 45 31 73.5t78 28.5q43 0 71.5 -28.5t28.5 -73.5q0 -80 -71 -101q70 -113 239 -112q154 0 242 91t88 243q0 156 -100.5 250t-262.5 94h-100v78l324 509h-506
q-96 0 -155.5 -61t-59.5 -162v-1120h-178v1112q0 137 104 229.5t260 92.5h733v-78z" />
    <glyph glyph-name="uni1EA0" unicode="&#x1ea0;" horiz-adv-x="1540" 
d="M1438 0h-187l-174 401h-690l-172 -401h-113l629 1434h80zM426 492h610l-305 704zM774 -147q45 0 75 -30t30 -77t-30 -75.5t-77 -28.5q-45 0 -77.5 28.5t-32.5 75.5q0 45 32.5 76t79.5 31z" />
    <glyph glyph-name="uni1EA1" unicode="&#x1ea1;" horiz-adv-x="1267" 
d="M618 1044q199 0 327 -102t128 -258v-684h-178v137q-63 -70 -171 -113.5t-218 -43.5q-150 0 -256.5 82.5t-106.5 205.5q0 129 122 213t313 84q213 0 317 -67v184q0 119 -82 195.5t-215 76.5q-145 0 -221 -69q45 -29 45 -86q0 -45 -28.5 -74t-71.5 -29q-47 0 -78 29t-31 74
q0 104 118.5 174.5t286.5 70.5zM578 92q203 0 317 137v185q-84 68 -264 67q-143 0 -222 -52t-79 -144q0 -86 67.5 -139.5t180.5 -53.5zM641 -147q45 0 74.5 -30t29.5 -77t-29.5 -75.5t-76.5 -28.5q-45 0 -78 28.5t-33 75.5q0 45 33 76t80 31z" />
    <glyph glyph-name="uni1EB8" unicode="&#x1eb8;" horiz-adv-x="1370" 
d="M416 90h831v-90h-1009v1434h989v-91h-811v-571h647v-90h-647v-592zM768 -147q45 0 74.5 -30t29.5 -77t-29.5 -75.5t-76.5 -28.5q-45 0 -78 28.5t-33 75.5q0 45 33 76t80 31z" />
    <glyph glyph-name="uni1EB9" unicode="&#x1eb9;" 
d="M1034 352q43 0 72 -29.5t29 -72.5q0 -115 -126 -192.5t-302 -77.5q-246 0 -406 152.5t-160 379.5t154 379.5t375 152.5q213 0 349 -149.5t136 -372.5h-827q2 -211 113.5 -330.5t306.5 -119.5q162 0 237 86q-57 27 -57 92q0 43 30.5 72.5t75.5 29.5zM666 954
q-133 0 -223.5 -93t-110.5 -249h643q-12 158 -95 250t-214 92zM664 -147q45 0 74.5 -30t29.5 -77t-29.5 -75.5t-76.5 -28.5q-45 0 -78 28.5t-33 75.5q0 45 33 76t80 31z" />
    <glyph glyph-name="uni1EBC" unicode="&#x1ebc;" horiz-adv-x="1370" 
d="M635 1726q-37 0 -63.5 -31.5t-28.5 -84.5h-86q0 100 52 165.5t132 65.5q66 0 139.5 -64.5t112.5 -64.5t63.5 32t28.5 87h86q0 -100 -52 -166t-134 -66q-55 0 -99.5 32t-80 63.5t-70.5 31.5zM416 90h831v-90h-1009v1434h989v-91h-811v-571h647v-90h-647v-592z" />
    <glyph glyph-name="uni1EBD" unicode="&#x1ebd;" 
d="M528 1337q-37 0 -63.5 -31.5t-28.5 -84.5h-86q0 100 52.5 165.5t132.5 65.5q66 0 139.5 -64.5t112 -64.5t63 31.5t29.5 87.5h86q0 -100 -52.5 -166t-134.5 -66q-55 0 -99 32t-80 63.5t-71 31.5zM1034 352q43 0 72 -29.5t29 -72.5q0 -115 -126 -192.5t-302 -77.5
q-246 0 -406 152.5t-160 379.5t154 379.5t375 152.5q213 0 349 -149.5t136 -372.5h-827q2 -211 113.5 -330.5t306.5 -119.5q162 0 237 86q-57 27 -57 92q0 43 30.5 72.5t75.5 29.5zM666 954q-133 0 -223.5 -93t-110.5 -249h643q-12 158 -95 250t-214 92z" />
    <glyph glyph-name="uni1ECA" unicode="&#x1eca;" horiz-adv-x="655" 
d="M238 0v1434h178v-1434h-178zM328 -358q-45 0 -78 28.5t-33 75.5q0 45 33 76t80 31q45 0 74.5 -30t29.5 -77t-29.5 -75.5t-76.5 -28.5z" />
    <glyph glyph-name="uni1ECB" unicode="&#x1ecb;" horiz-adv-x="614" 
d="M311 1221q-49 0 -81.5 30.5t-32.5 77.5q0 49 32.5 80t81.5 31q47 0 78 -31t31 -80q0 -47 -31 -77.5t-78 -30.5zM219 0v989l178 45v-1034h-178zM309 -358q-45 0 -77.5 28.5t-32.5 75.5q0 45 32.5 76t79.5 31q45 0 75 -30t30 -77t-30 -75.5t-77 -28.5z" />
    <glyph glyph-name="uni1ECC" unicode="&#x1ecc;" horiz-adv-x="1779" 
d="M890.5 -20q-319.5 0 -533.5 210.5t-214 526t214 526.5t533.5 211t532.5 -211t213 -526.5t-213 -526t-532.5 -210.5zM891 70q254 0 406.5 177t152.5 470t-152.5 470t-406.5 177t-407.5 -177t-153.5 -470t153.5 -470t407.5 -177zM891 -358q-45 0 -78 28.5t-33 75.5
q0 45 33 76t80 31q45 0 74.5 -30t29.5 -77t-29.5 -75.5t-76.5 -28.5z" />
    <glyph glyph-name="uni1ECD" unicode="&#x1ecd;" horiz-adv-x="1361" 
d="M682 -20q-231 0 -386 152.5t-155 379.5t155 379.5t386 152.5q229 0 384 -152.5t155 -379.5t-155 -379.5t-384 -152.5zM682 70q160 0 256 119.5t96 322.5t-96 322.5t-256 119.5q-162 0 -258 -119.5t-96 -322.5t96 -322.5t258 -119.5zM682 -358q-45 0 -78 28.5t-33 75.5
q0 45 33 76t80 31q45 0 74.5 -30t29.5 -77t-29.5 -75.5t-76.5 -28.5z" />
    <glyph glyph-name="uni1EE4" unicode="&#x1ee4;" horiz-adv-x="1642" 
d="M848 -20q-276 0 -450.5 161.5t-174.5 425.5v867h178v-899q0 -203 130.5 -324t342.5 -121q205 0 326 121t121 324v899h98v-902q0 -252 -153.5 -402t-417.5 -150zM848 -358q-45 0 -78 28.5t-33 75.5q0 45 33 76t80 31q45 0 74.5 -30t29.5 -77t-29.5 -75.5t-76.5 -28.5z" />
    <glyph glyph-name="uni1EE5" unicode="&#x1ee5;" horiz-adv-x="1341" 
d="M944 989l178 45v-1034h-178v195q-55 -96 -157.5 -155.5t-223.5 -59.5q-156 0 -260 99t-104 249v661l178 45v-702q0 -102 68.5 -171t172.5 -69q98 0 189.5 62.5t136.5 160.5v674zM668 -147q45 0 74.5 -30t29.5 -77t-29.5 -75.5t-76.5 -28.5q-45 0 -78 28.5t-33 75.5
q0 45 33 76t80 31z" />
    <glyph glyph-name="Ygrave" unicode="&#x1ef2;" horiz-adv-x="1472" 
d="M815 1591h-94l-281 246h246zM1253 1434h117l-545 -820v-614h-178v614l-545 820h199l477 -719z" />
    <glyph glyph-name="ygrave" unicode="&#x1ef3;" horiz-adv-x="1126" 
d="M664 1202h-95l-280 246h246zM946 1024h113l-600 -1368q-55 -127 -191 -127q-68 0 -118 42t-50 101q0 39 30 68t71 29t67.5 -28t26.5 -69q0 -37 -19 -61q68 0 95 65l149 353l-436 995h186l340 -786z" />
    <glyph glyph-name="uni1EF8" unicode="&#x1ef8;" horiz-adv-x="1472" 
d="M606 1726q-37 0 -63.5 -31.5t-28.5 -84.5h-86q0 100 52 165.5t132 65.5q66 0 139.5 -64.5t112.5 -64.5t63.5 32t28.5 87h86q0 -100 -52 -166t-134 -66q-55 0 -99 32t-80 63.5t-71 31.5zM1253 1434h117l-545 -820v-614h-178v614l-545 820h199l477 -719z" />
    <glyph glyph-name="uni1EF9" unicode="&#x1ef9;" horiz-adv-x="1126" 
d="M457 1337q-37 0 -63.5 -31.5t-28.5 -84.5h-86q0 100 52 165.5t132 65.5q66 0 139.5 -64.5t112.5 -64.5t63.5 31.5t28.5 87.5h86q0 -100 -52.5 -166t-133.5 -66q-55 0 -99.5 32t-80 63.5t-70.5 31.5zM946 1024h113l-600 -1368q-55 -127 -191 -127q-68 0 -118 42t-50 101
q0 39 30 68t71 29t67.5 -28t26.5 -69q0 -37 -19 -61q68 0 95 65l149 353l-436 995h186l340 -786z" />
    <glyph glyph-name="endash" unicode="&#x2013;" horiz-adv-x="1576" 
d="M197 508v90h1185v-90h-1185z" />
    <glyph glyph-name="emdash" unicode="&#x2014;" horiz-adv-x="2600" 
d="M197 508v90h2209v-90h-2209z" />
    <glyph glyph-name="quoteleft" unicode="&#x2018;" horiz-adv-x="499" 
d="M240 1227q53 0 90 -35t37 -88q0 -51 -36 -88t-89 -37q-55 0 -92 42t-37 105q0 98 56 199.5t140 149.5l43 -58q-94 -68 -119 -190h7z" />
    <glyph glyph-name="quoteright" unicode="&#x2019;" horiz-adv-x="499" 
d="M258 1454q55 0 92 -42t37 -105q0 -102 -56.5 -202.5t-140.5 -146.5l-43 58q94 66 119 190h-6q-53 0 -90 35t-37 88q0 51 36 88t89 37z" />
    <glyph glyph-name="quotesinglbase" unicode="&#x201a;" horiz-adv-x="522" 
d="M262 240q57 0 93 -42t36 -106q0 -102 -56 -203.5t-140 -146.5l-43 59q96 63 120 189h-8q-53 0 -89 34.5t-36 88t36 90.5t87 37z" />
    <glyph glyph-name="quotedblleft" unicode="&#x201c;" horiz-adv-x="868" 
d="M240 1227q53 0 90 -35t37 -88q0 -51 -36 -88t-89 -37q-55 0 -92 42t-37 105q0 98 56 199.5t140 149.5l43 -58q-94 -68 -119 -190h7zM610 1227q53 0 89 -35t36 -88t-35.5 -89t-89.5 -36q-55 0 -92 42t-37 105q0 98 56.5 199.5t140.5 149.5l45 -58q-96 -70 -121 -190h8z
" />
    <glyph glyph-name="quotedblright" unicode="&#x201d;" horiz-adv-x="868" 
d="M258 1454q55 0 92 -42t37 -105q0 -102 -56.5 -202.5t-140.5 -146.5l-43 58q94 66 119 190h-6q-53 0 -90 35t-37 88q0 51 36 88t89 37zM627 1454q55 0 92 -42t37 -105q0 -102 -56.5 -202.5t-140.5 -146.5l-43 58q96 68 121 190h-8q-53 0 -90 35t-37 88q0 51 36 88t89 37z
" />
    <glyph glyph-name="quotedblbase" unicode="&#x201e;" horiz-adv-x="890" 
d="M262 240q57 0 93 -42t36 -106q0 -102 -56 -203.5t-140 -146.5l-43 59q96 63 120 189h-8q-53 0 -89 34.5t-36 88t36 90.5t87 37zM633 240q55 0 92 -42t37 -106q0 -102 -56.5 -203.5t-140.5 -146.5l-45 59q96 63 121 189h-8q-53 0 -89 35.5t-36 87.5q0 53 36 90t89 37z" />
    <glyph glyph-name="dagger" unicode="&#x2020;" horiz-adv-x="886" 
d="M727 1130v-90h-223q-14 -348 -15 -608h-90q-2 322 -14 608h-225v90h221q-2 51 -5 106.5t-5 84.5t-2 41q0 39 21.5 65.5t54 26.5t55 -26.5t22.5 -65.5q0 -10 -14 -232h219z" />
    <glyph glyph-name="daggerdbl" unicode="&#x2021;" horiz-adv-x="886" 
d="M494 1040q-2 -33 -2 -106q0 -76 2 -109h233v-90h-227q4 -61 13 -136t9 -97q0 -39 -22.5 -64.5t-55 -25.5t-54 25.5t-21.5 64.5q0 23 9 97.5t13 135.5h-231v90h235q2 33 2 109q0 74 -2 106h-235v90h231q-4 61 -13 136t-9 98q0 39 21.5 64.5t54 25.5t55 -25.5t22.5 -64.5
q0 -23 -9 -97.5t-13 -136.5h227v-90h-233z" />
    <glyph glyph-name="bullet" unicode="&#x2022;" horiz-adv-x="727" 
d="M364.5 389q-71.5 0 -119.5 47t-48 119t48 120t119.5 48t118.5 -48t47 -120t-47 -119t-118.5 -47z" />
    <glyph glyph-name="ellipsis" unicode="&#x2026;" horiz-adv-x="1396" 
d="M264 -10q-53 0 -89 35.5t-36 87.5q0 53 36 90t89 37t88 -37t35 -90.5t-35 -88t-88 -34.5zM700.5 -10q-53.5 0 -90.5 35.5t-37 87.5q0 53 37 90t90 37q51 0 87 -37t36 -90q0 -51 -34.5 -87t-88 -36zM1134.5 -10q-53.5 0 -90 35.5t-36.5 87.5q0 53 36.5 90t90 37t88 -37
t34.5 -90.5t-34.5 -88t-88 -34.5z" />
    <glyph glyph-name="perthousand" unicode="&#x2030;" horiz-adv-x="2267" 
d="M422 799q-127 0 -213 94t-86 233.5t86 233.5t213 94t212 -94t85 -233.5t-85 -233.5t-212 -94zM264 0l922 1434h102l-921 -1434h-103zM422 883q76 0 121 65.5t45 178t-45 178t-121 65.5q-78 0 -123 -65.5t-45 -178t45 -178t123 -65.5zM1135 -20q-127 0 -213 94t-86 233
t86 233.5t213 94.5t212 -94.5t85 -233.5t-85 -233t-212 -94zM1845 -20q-127 0 -212 94t-85 233t85 233.5t212 94.5t213 -94.5t86 -233.5t-86 -233t-213 -94zM1135 63q76 0 120.5 66t44.5 178.5t-45 178t-120 65.5q-78 0 -123 -65.5t-45 -178t45 -178.5t123 -66zM1845 63
q78 0 123 66t45 178.5t-45 178t-123 65.5q-76 0 -121 -65.5t-45 -178t45 -178.5t121 -66z" />
    <glyph glyph-name="guilsinglleft" unicode="&#x2039;" horiz-adv-x="643" 
d="M270 553q76 -66 145.5 -163t104.5 -187l-69 -27q-49 78 -152.5 182.5t-210.5 182.5v24q104 78 208.5 182.5t154.5 182.5l69 -25q-35 -90 -104.5 -189.5t-145.5 -162.5z" />
    <glyph glyph-name="guilsinglright" unicode="&#x203a;" horiz-adv-x="643" 
d="M193 930q47 -76 151.5 -181.5t210.5 -183.5v-24q-109 -80 -212 -183.5t-150 -181.5l-70 27q35 90 104.5 187t145.5 163q-76 63 -145.5 162.5t-104.5 189.5z" />
    <glyph glyph-name="fraction" unicode="&#x2044;" horiz-adv-x="342" 
d="M-342 0l922 1434h104l-922 -1434h-104z" />
    <glyph glyph-name="uni2070" unicode="&#x2070;" horiz-adv-x="1200" 
d="M600 766q-158 0 -263.5 127t-105.5 315.5t105.5 315.5t263.5 127t263.5 -127t105.5 -315.5t-105.5 -315.5t-263.5 -127zM600 840q98 0 155.5 99t57.5 269t-57.5 269.5t-155.5 99.5t-155.5 -99.5t-57.5 -269.5t57.5 -269t155.5 -99z" />
    <glyph glyph-name="uni2074" unicode="&#x2074;" horiz-adv-x="1144" 
d="M913 1071v-74h-129v-219h-151v219h-402v43l426 598h127v-567h129zM340 1071h293v416z" />
    <glyph glyph-name="uni2075" unicode="&#x2075;" horiz-adv-x="1060" 
d="M518 1348q133 0 222 -83t89 -210t-88 -208t-229 -81q-121 0 -201 58.5t-80 144.5q0 33 25 56.5t59 23.5q33 0 55.5 -24t22.5 -56q0 -51 -43 -72q47 -47 137.5 -47t139.5 56.5t49 150.5q0 96 -49 153.5t-131 57.5q-94 0 -154 -60l-66 43l50 387h446l-12 -127h-379
l-29 -213q70 50 166 50z" />
    <glyph glyph-name="uni2076" unicode="&#x2076;" horiz-adv-x="1107" 
d="M594 1321q117 0 200 -78t83 -192q0 -121 -90.5 -203t-219.5 -82q-147 0 -241.5 108.5t-94.5 288.5q0 199 107.5 343.5t269.5 144.5q90 0 153.5 -47.5t63.5 -112.5q0 -33 -24.5 -56.5t-59.5 -23.5q-33 0 -55 23.5t-22 56.5q0 37 28 65q-20 12 -55 13q-113 0 -177.5 -94.5
t-72.5 -268.5q23 49 78 82t129 33zM557 840q78 0 121 54t43 148q0 92 -43 143.5t-121 51.5q-80 0 -124 -51t-44 -144q0 -94 45 -148t123 -54z" />
    <glyph glyph-name="uni2077" unicode="&#x2077;" horiz-adv-x="1052" 
d="M821 1638v-28q-135 -162 -213 -395.5t-67 -436.5h-174q10 137 87.5 341t211.5 392h-435v127h590z" />
    <glyph glyph-name="uni2078" unicode="&#x2078;" horiz-adv-x="1079" 
d="M678 1233q170 -86 170 -219q0 -111 -91 -179.5t-225 -68.5q-127 0 -214 61.5t-87 155.5q0 68 40 131.5t104 97.5q-123 80 -123 199q0 106 82 173t205 67q117 0 193.5 -60.5t76.5 -148.5q0 -63 -36 -119.5t-95 -89.5zM555 1575q-78 0 -129 -36t-51 -93q0 -35 34.5 -69
t70.5 -53t110 -52q20 -8 31 -15q109 57 108 158q0 70 -49 115t-125 45zM522 842q88 0 145.5 35.5t57.5 93.5q0 51 -54.5 89t-164.5 87q-37 14 -76 35q-53 -25 -86 -71t-33 -101q0 -72 60.5 -120t150.5 -48z" />
    <glyph glyph-name="uni2079" unicode="&#x2079;" horiz-adv-x="1107" 
d="M541 1651q147 0 241.5 -108.5t94.5 -289.5q0 -199 -105.5 -343t-261.5 -144q-94 0 -160.5 47t-66.5 113q0 35 23.5 57.5t60.5 22.5q33 0 55 -24t22 -56q0 -41 -28 -64q27 -14 63 -14q111 0 173.5 93t68.5 269q-23 -49 -77 -81.5t-130 -32.5q-117 0 -200 77.5t-83 192.5
q0 121 90.5 203t219.5 82zM553 1180q78 0 122 51t44 143q0 94 -44 148.5t-122 54.5t-122 -53.5t-44 -149.5q0 -92 43 -143t123 -51z" />
    <glyph glyph-name="uni2080" unicode="&#x2080;" horiz-adv-x="1200" 
d="M600 -217q-158 0 -263.5 127t-105.5 315.5t105.5 315.5t263.5 127t263.5 -127t105.5 -315.5t-105.5 -315.5t-263.5 -127zM600 -143q98 0 155.5 99t57.5 269t-57.5 269.5t-155.5 99.5t-155.5 -99.5t-57.5 -269.5t57.5 -269t155.5 -99z" />
    <glyph glyph-name="uni2081" unicode="&#x2081;" horiz-adv-x="792" 
d="M463 655h98v-860h-151v723q-61 -61 -170 -88l-9 74q61 16 128 59t104 92z" />
    <glyph glyph-name="uni2082" unicode="&#x2082;" horiz-adv-x="1024" 
d="M412 -78h381v-127h-553v33l221 262q86 100 129 176t43 156q0 78 -40 121t-114 43q-90 0 -137 -58q51 -20 51 -75q0 -33 -22.5 -56.5t-55.5 -23.5q-35 0 -59.5 23.5t-24.5 56.5q0 90 79 152.5t198 62.5q121 0 202 -65.5t81 -162.5q0 -92 -53.5 -178t-166.5 -190z" />
    <glyph glyph-name="uni2083" unicode="&#x2083;" horiz-adv-x="1048" 
d="M655 244q74 -31 118 -89.5t44 -129.5q0 -104 -85 -173t-218 -69q-123 0 -203 54t-80 136q0 33 25 56.5t59 23.5q33 0 55.5 -23.5t22.5 -56.5q0 -51 -43 -71q49 -39 137 -39q84 0 132.5 44t48.5 120q0 80 -50.5 130t-132.5 50h-84v69h84q72 0 116 45.5t44 116.5
q0 68 -42 109t-116 41q-78 0 -127 -39q45 -16 46 -72q0 -33 -23 -56.5t-55 -23.5q-35 0 -59.5 23.5t-24.5 56.5q0 84 75.5 137.5t194.5 53.5q121 0 200 -62.5t79 -163.5q0 -61 -37.5 -114t-100.5 -84z" />
    <glyph glyph-name="uni2084" unicode="&#x2084;" horiz-adv-x="1144" 
d="M913 88v-74h-129v-219h-151v219h-402v43l426 598h127v-567h129zM340 88h293v416z" />
    <glyph glyph-name="uni2085" unicode="&#x2085;" horiz-adv-x="1060" 
d="M518 365q133 0 222 -83t89 -210t-88 -208t-229 -81q-121 0 -201 58.5t-80 144.5q0 33 25 56.5t59 23.5q33 0 55.5 -24t22.5 -56q0 -51 -43 -72q47 -47 137.5 -47t139.5 56.5t49 150.5q0 96 -49 153.5t-131 57.5q-94 0 -154 -60l-66 43l50 387h446l-12 -127h-379l-29 -213
q70 50 166 50z" />
    <glyph glyph-name="uni2086" unicode="&#x2086;" horiz-adv-x="1107" 
d="M594 338q117 0 200 -78t83 -192q0 -121 -90.5 -203t-219.5 -82q-147 0 -241.5 108.5t-94.5 288.5q0 199 107.5 343.5t269.5 144.5q90 0 153.5 -47.5t63.5 -112.5q0 -33 -24.5 -56.5t-59.5 -23.5q-33 0 -55 23.5t-22 56.5q0 37 28 65q-20 12 -55 13q-113 0 -177.5 -94.5
t-72.5 -268.5q23 49 78 82t129 33zM557 -143q78 0 121 54t43 148q0 92 -43 143.5t-121 51.5q-80 0 -124 -51t-44 -144q0 -94 45 -148t123 -54z" />
    <glyph glyph-name="uni2087" unicode="&#x2087;" horiz-adv-x="1052" 
d="M821 655v-28q-135 -162 -213 -395.5t-67 -436.5h-174q10 137 87.5 341t211.5 392h-435v127h590z" />
    <glyph glyph-name="uni2088" unicode="&#x2088;" horiz-adv-x="1079" 
d="M678 250q170 -86 170 -219q0 -111 -91 -179.5t-225 -68.5q-127 0 -214 61.5t-87 155.5q0 68 40 131.5t104 97.5q-123 80 -123 199q0 106 82 173t205 67q117 0 193.5 -60.5t76.5 -148.5q0 -63 -36 -119.5t-95 -89.5zM555 592q-78 0 -129 -36t-51 -93q0 -35 34.5 -69
t70.5 -53t110 -52q20 -8 31 -15q109 57 108 158q0 70 -49 115t-125 45zM522 -141q88 0 145.5 35.5t57.5 93.5q0 51 -54.5 89t-164.5 87q-37 14 -76 35q-53 -25 -86 -71t-33 -101q0 -72 60.5 -120t150.5 -48z" />
    <glyph glyph-name="uni2089" unicode="&#x2089;" horiz-adv-x="1107" 
d="M541 668q147 0 241.5 -108.5t94.5 -289.5q0 -199 -105.5 -343t-261.5 -144q-94 0 -160.5 47t-66.5 113q0 35 23.5 57.5t60.5 22.5q33 0 55 -24t22 -56q0 -41 -28 -64q27 -14 63 -14q111 0 173.5 93t68.5 269q-23 -49 -77 -81.5t-130 -32.5q-117 0 -200 77.5t-83 192.5
q0 121 90.5 203t219.5 82zM553 197q78 0 122 51t44 143q0 94 -44 148.5t-122 54.5t-122 -53.5t-44 -149.5q0 -92 43 -143t123 -51z" />
    <glyph glyph-name="franc" unicode="&#x20a3;" horiz-adv-x="1253" 
d="M1145 1343h-696v-575h532v-90h-532v-254h303v-90h-303v-334h-179v334h-145v90h145v1010h875v-91z" />
    <glyph glyph-name="uni20A8" unicode="&#x20a8;" horiz-adv-x="2539" 
d="M1292 156q61 -106 133 -156h-206q-63 45 -105 119l-213 368q-39 68 -90 103h-10h-385v-590h-178v1434h563q221 0 370.5 -119t149.5 -299q0 -150 -101.5 -260.5t-265.5 -147.5q100 -43 152 -137zM416 1343v-663h350q168 0 268.5 90t100.5 241.5t-100.5 241.5t-268.5 90
h-350zM2066 594q80 -33 123 -54.5t103.5 -61.5t89 -93t28.5 -119q0 -127 -106 -206.5t-285 -79.5q-168 0 -283.5 64.5t-115.5 160.5q0 43 27.5 69.5t72.5 26.5q41 0 68 -26.5t27 -69.5q0 -53 -41 -80q76 -66 221 -66q115 0 184.5 46.5t69.5 117.5q0 70 -64.5 115t-195.5 96
q-74 29 -121 52.5t-106.5 63.5t-89.5 94t-30 120q0 125 108 202.5t275 77.5q147 0 249 -58t102 -144q0 -41 -27 -69t-68 -28q-45 0 -73.5 28t-28.5 69q0 51 39 78q-61 45 -172 45q-106 0 -175 -46.5t-69 -116t66.5 -114.5t197.5 -94z" />
    <glyph glyph-name="Euro" unicode="&#x20ac;" horiz-adv-x="1486" 
d="M1272 317l65 -55q-51 -125 -179 -203.5t-279 -78.5q-217 0 -379 155.5t-209 403.5h-178l20 90h146q-4 57 -5 88q0 29 5 82h-166l20 88h156q47 252 210 409.5t386 157.5q184 0 309 -100.5t125 -239.5q0 -45 -29.5 -74.5t-72.5 -29.5q-47 0 -78 29.5t-31 74.5q0 78 76 98
q-29 68 -96.5 107t-157.5 39q-178 0 -300 -126t-157 -345h537l-23 -88h-524q-2 -27 -2 -84q0 -29 4 -86h483l-22 -90h-451q35 -213 151.5 -337t286.5 -124q115 0 212.5 65t146.5 174z" />
    <glyph glyph-name="uni2116" unicode="&#x2116;" horiz-adv-x="2834" 
d="M2200 389q-231 0 -386 152.5t-155 380t154.5 380t386.5 152.5q229 0 383.5 -152.5t154.5 -380t-154.5 -380t-383.5 -152.5zM1319 301v1133h98v-1434h-69l-1012 1231v-1231h-98v1434h153zM2200 1364q-162 0 -258.5 -120t-96.5 -322.5t96.5 -322.5t258.5 -120
q160 0 256 120t96 322.5t-96 322.5t-256 120zM1804 0v90h791v-90h-791z" />
    <glyph glyph-name="trademark" unicode="&#x2122;" horiz-adv-x="1132" 
d="M467 1434v-56h-119v-354h-88v354h-121v56h328zM879 1434h114v-410h-88v330l-127 -281h-39l-127 281v-330h-59v410h119l104 -236z" />
    <glyph glyph-name="uni2150" unicode="&#x2150;" horiz-adv-x="2349" 
d="M561 573h-151v723q-61 -61 -170 -88l-9 74q61 16 128 59t104 93h98v-861zM1483 1434h104l-921 -1434h-105zM2118 860v-29q-135 -162 -213 -395t-68 -436h-174q10 137 88 341t211 392h-434v127h590z" />
    <glyph glyph-name="uni2151" unicode="&#x2151;" horiz-adv-x="2353" 
d="M561 573h-151v723q-61 -61 -170 -88l-9 74q61 16 128 59t104 93h98v-861zM1483 1434h104l-921 -1434h-105zM1786 872q147 0 241.5 -108.5t94.5 -288.5q0 -199 -105.5 -343t-261.5 -144q-94 0 -160.5 47t-66.5 112q0 35 23.5 57.5t60.5 22.5q33 0 55.5 -23.5t22.5 -56.5
q0 -41 -29 -63q27 -14 63 -14q111 0 173.5 94t68.5 268q-23 -49 -77 -82t-130 -33q-117 0 -199.5 78t-82.5 193q0 121 90 202.5t219 81.5zM1798 401q78 0 122 51.5t44 143.5q0 94 -44 148.5t-122 54.5t-122 -53.5t-44 -149.5q0 -92 43 -143.5t123 -51.5z" />
    <glyph glyph-name="uni2152" unicode="&#x2152;" horiz-adv-x="3110" 
d="M561 573h-151v723q-61 -61 -170 -88l-9 74q61 16 128 59t104 93h98v-861zM1483 1434h104l-921 -1434h-105zM2511 872q158 0 263 -127t105 -315t-105 -315t-263 -127t-263.5 127t-105.5 315t105.5 315t263.5 127zM1485 709q61 16 127.5 59t103.5 92h99v-860h-152v723
q-61 -61 -170 -88zM2511 61q98 0 155.5 99.5t57.5 269.5t-57.5 269.5t-155.5 99.5t-155.5 -99.5t-57.5 -269.5t57.5 -269.5t155.5 -99.5z" />
    <glyph glyph-name="onethird" unicode="&#x2153;" horiz-adv-x="2297" 
d="M561 573h-151v723q-61 -61 -170 -88l-9 74q61 16 128 59t104 93h98v-861zM1483 1434h104l-921 -1434h-105zM1905 449q74 -31 117.5 -89.5t43.5 -130.5q0 -104 -85 -172.5t-218 -68.5q-123 0 -202.5 54t-79.5 136q0 33 24.5 56.5t59.5 23.5q33 0 55 -23.5t22 -56.5
q0 -51 -43 -72q49 -39 138 -38q84 0 132 44t48 119q0 80 -50 130.5t-132 50.5h-84v69h84q72 0 115.5 45t43.5 117q0 68 -42 109t-115 41q-78 0 -127 -39q45 -16 45 -72q0 -33 -22.5 -56.5t-55.5 -23.5q-35 0 -59.5 23.5t-24.5 56.5q0 84 76 137t194 53q121 0 200 -62
t79 -163q0 -61 -37 -114t-100 -84z" />
    <glyph glyph-name="twothirds" unicode="&#x2154;" horiz-adv-x="2488" 
d="M240 606l221 262q86 100 129 176t43 156q0 78 -40 121t-114 43q-90 0 -137 -57q51 -20 51 -76q0 -33 -22.5 -56.5t-55.5 -23.5q-35 0 -59.5 23.5t-24.5 56.5q0 90 79 152.5t198 62.5q121 0 202 -65.5t81 -161.5q0 -92 -53.5 -178.5t-166.5 -190.5l-159 -150h381v-127
h-553v33zM1673 1434h105l-922 -1434h-104zM2095 449q74 -31 118 -89.5t44 -130.5q0 -104 -85 -172.5t-218 -68.5q-123 0 -203 54t-80 136q0 33 24.5 56.5t59.5 23.5q33 0 55.5 -23.5t22.5 -56.5q0 -51 -43 -72q49 -39 137 -38q84 0 132 44t48 119q0 80 -50 130.5t-132 50.5
h-84v69h84q72 0 116 45t44 117q0 68 -42 109t-116 41q-78 0 -127 -39q45 -16 45 -72q0 -33 -22.5 -56.5t-55.5 -23.5q-35 0 -59.5 23.5t-24.5 56.5q0 84 76 137t195 53q121 0 199.5 -62t78.5 -163q0 -61 -37 -114t-100 -84z" />
    <glyph glyph-name="uni2155" unicode="&#x2155;" horiz-adv-x="2306" 
d="M561 573h-151v723q-61 -61 -170 -88l-9 74q61 16 128 59t104 93h98v-861zM1483 1434h104l-921 -1434h-105zM1763 569q133 0 222.5 -83t89.5 -209.5t-88.5 -207.5t-229.5 -81q-121 0 -200.5 58t-79.5 144q0 33 24.5 56.5t59.5 23.5q33 0 55 -23.5t22 -56.5q0 -51 -43 -71
q47 -47 137.5 -47t139.5 56t49 151q0 96 -49 153t-131 57q-94 0 -154 -59l-65 43l49 387h446l-12 -127h-379l-29 -213q70 49 166 49z" />
    <glyph glyph-name="uni2156" unicode="&#x2156;" horiz-adv-x="2496" 
d="M240 606l221 262q86 100 129 176t43 156q0 78 -40 121t-114 43q-90 0 -137 -57q51 -20 51 -76q0 -33 -22.5 -56.5t-55.5 -23.5q-35 0 -59.5 23.5t-24.5 56.5q0 90 79 152.5t198 62.5q121 0 202 -65.5t81 -161.5q0 -92 -53.5 -178.5t-166.5 -190.5l-159 -150h381v-127
h-553v33zM1673 1434h105l-922 -1434h-104zM1954 569q133 0 222 -83t89 -209.5t-88 -207.5t-229 -81q-121 0 -201 58t-80 144q0 33 24.5 56.5t59.5 23.5q33 0 55.5 -23.5t22.5 -56.5q0 -51 -43 -71q47 -47 137 -47t139 56t49 151q0 96 -49 153t-131 57q-94 0 -153 -59l-66 43
l49 387h447l-13 -127h-378l-29 -213q70 49 166 49z" />
    <glyph glyph-name="uni2157" unicode="&#x2157;" horiz-adv-x="2451" 
d="M817 803q0 -104 -85 -173t-218 -69q-123 0 -203 54.5t-80 136.5q0 33 25 56t59 23q33 0 55.5 -23.5t22.5 -55.5q0 -51 -43 -72q49 -39 137 -39q84 0 132.5 44t48.5 120q0 80 -50.5 130t-132.5 50h-84v70h84q72 0 116 45t44 117q0 68 -42 108.5t-116 40.5q-78 0 -127 -39
q45 -16 46 -72q0 -33 -23 -56t-55 -23q-35 0 -59.5 23.5t-24.5 55.5q0 84 75.5 137.5t194.5 53.5q121 0 200 -62.5t79 -162.5q0 -61 -37 -114.5t-101 -84.5q74 -31 118 -89t44 -130zM1628 1434h105l-922 -1434h-104zM1909 569q133 0 222 -83t89 -209.5t-88 -207.5t-229 -81
q-121 0 -201 58t-80 144q0 33 24.5 56.5t59.5 23.5q33 0 55.5 -23.5t22.5 -56.5q0 -51 -43 -71q47 -47 137 -47t139 56t49 151q0 96 -49 153t-131 57q-94 0 -153 -59l-66 43l49 387h447l-13 -127h-378l-29 -213q70 49 166 49z" />
    <glyph glyph-name="uni2158" unicode="&#x2158;" horiz-adv-x="2557" 
d="M913 793h-129v-220h-151v220h-402v43l426 598h127v-568h129v-73zM1735 1434h104l-921 -1434h-105zM340 866h293v416zM2015 569q133 0 222.5 -83t89.5 -209.5t-88.5 -207.5t-229.5 -81q-121 0 -200.5 58t-79.5 144q0 33 24.5 56.5t58.5 23.5q33 0 55.5 -23.5t22.5 -56.5
q0 -51 -43 -71q47 -47 137.5 -47t139.5 56t49 151q0 96 -49 153t-131 57q-94 0 -154 -59l-65 43l49 387h446l-12 -127h-379l-29 -213q70 49 166 49z" />
    <glyph glyph-name="uni2159" unicode="&#x2159;" horiz-adv-x="2332" 
d="M561 573h-151v723q-61 -61 -170 -88l-9 74q61 16 128 59t104 93h98v-861zM1483 1434h104l-921 -1434h-105zM1819 543q117 0 199.5 -78t82.5 -193q0 -121 -90 -202.5t-219 -81.5q-147 0 -241.5 108.5t-94.5 288.5q0 199 107.5 343t269.5 144q90 0 153.5 -47t63.5 -112
q0 -33 -24.5 -56.5t-59.5 -23.5q-33 0 -55.5 23.5t-22.5 56.5q0 37 29 65q-20 12 -55 13q-113 0 -177.5 -94.5t-72.5 -268.5q23 49 78 82t129 33zM1782 61q78 0 121 54.5t43 148.5q0 92 -43 143.5t-121 51.5q-80 0 -124 -51.5t-44 -143.5q0 -94 45 -148.5t123 -54.5z" />
    <glyph glyph-name="uni215A" unicode="&#x215a;" horiz-adv-x="2490" 
d="M829 850q0 -127 -88 -208t-229 -81q-121 0 -201 58.5t-80 144.5q0 33 25 56.5t59 23.5q33 0 55.5 -23.5t22.5 -56.5q0 -51 -43 -72q47 -47 137.5 -47t139.5 56.5t49 150.5q0 96 -49 153.5t-131 57.5q-94 0 -154 -59l-66 43l50 387h446l-12 -127h-379l-29 -213
q70 49 166 49q133 0 222 -83t89 -210zM1640 1434h105l-922 -1434h-104zM1976 543q117 0 200 -78t83 -193q0 -121 -90 -202.5t-219 -81.5q-147 0 -241.5 108.5t-94.5 288.5q0 199 107.5 343t269.5 144q90 0 153.5 -47t63.5 -112q0 -33 -24.5 -56.5t-59.5 -23.5
q-33 0 -55.5 23.5t-22.5 56.5q0 37 29 65q-23 12 -56 13q-113 0 -177 -94.5t-73 -268.5q23 49 78 82t129 33zM1939.5 61q77.5 0 120.5 54.5t43 148.5q0 92 -43 143.5t-121 51.5q-80 0 -123.5 -51.5t-43.5 -143.5q0 -94 45 -148.5t122.5 -54.5z" />
    <glyph glyph-name="oneeighth" unicode="&#x215b;" horiz-adv-x="2324" 
d="M561 573h-151v723q-61 -61 -170 -88l-9 74q61 16 128 59t104 93h98v-861zM1483 1434h104l-921 -1434h-105zM1923 455q170 -86 170 -219q0 -111 -91 -179.5t-224 -68.5q-127 0 -214 61.5t-87 155.5q0 68 39.5 131t103.5 98q-123 80 -123 199q0 106 82 172.5t205 66.5
q117 0 193.5 -60t76.5 -148q0 -63 -36 -119.5t-95 -89.5zM1800 797q-78 0 -129 -36t-51 -93q0 -35 35 -69t70.5 -53.5t109.5 -51.5q20 -8 31 -15q109 57 108 158q0 70 -49 115t-125 45zM1767 63q88 0 145.5 36t57.5 94q0 51 -54 88.5t-165 87.5q-37 14 -76 34
q-53 -25 -86 -70.5t-33 -101.5q0 -72 60.5 -120t150.5 -48z" />
    <glyph glyph-name="threeeighths" unicode="&#x215c;" horiz-adv-x="2469" 
d="M817 803q0 -104 -85 -173t-218 -69q-123 0 -203 54.5t-80 136.5q0 33 25 56t59 23q33 0 55.5 -23.5t22.5 -55.5q0 -51 -43 -72q49 -39 137 -39q84 0 132.5 44t48.5 120q0 80 -50.5 130t-132.5 50h-84v70h84q72 0 116 45t44 117q0 68 -42 108.5t-116 40.5q-78 0 -127 -39
q45 -16 46 -72q0 -33 -23 -56t-55 -23q-35 0 -59.5 23.5t-24.5 55.5q0 84 75.5 137.5t194.5 53.5q121 0 200 -62.5t79 -162.5q0 -61 -37 -114.5t-101 -84.5q74 -31 118 -89t44 -130zM1628 1434h105l-922 -1434h-104zM2068 455q170 -86 170 -219q0 -111 -91 -179.5
t-224 -68.5q-127 0 -214 61.5t-87 155.5q0 68 40 131t103 98q-123 80 -123 199q0 106 82 172.5t205 66.5q117 0 194 -60t77 -148q0 -63 -36.5 -119.5t-95.5 -89.5zM1946 797q-78 0 -129.5 -36t-51.5 -93q0 -35 35 -69t71 -53.5t109 -51.5q20 -8 31 -15q109 57 109 158
q0 70 -49 115t-125 45zM1913 63q88 0 145.5 36t57.5 94q0 51 -54.5 88.5t-165.5 87.5q-37 14 -75 34q-53 -25 -86 -70.5t-33 -101.5q0 -72 60.5 -120t150.5 -48z" />
    <glyph glyph-name="fiveeighths" unicode="&#x215d;" horiz-adv-x="2482" 
d="M829 850q0 -127 -88 -208t-229 -81q-121 0 -201 58.5t-80 144.5q0 33 25 56.5t59 23.5q33 0 55.5 -23.5t22.5 -56.5q0 -51 -43 -72q47 -47 137.5 -47t139.5 56.5t49 150.5q0 96 -49 153.5t-131 57.5q-94 0 -154 -59l-66 43l50 387h446l-12 -127h-379l-29 -213
q70 49 166 49q133 0 222 -83t89 -210zM1640 1434h105l-922 -1434h-104zM2081 455q170 -86 170 -219q0 -111 -91.5 -179.5t-224.5 -68.5q-127 0 -214 61.5t-87 155.5q0 68 40 131t104 98q-123 80 -123 199q0 106 82 172.5t205 66.5q117 0 193.5 -60t76.5 -148
q0 -63 -36 -119.5t-95 -89.5zM1958 797q-78 0 -129 -36t-51 -93q0 -35 34.5 -69t70.5 -53.5t110 -51.5q20 -8 30 -15q109 57 109 158q0 70 -49 115t-125 45zM1925 63q88 0 145.5 36t57.5 94q0 51 -54.5 88.5t-164.5 87.5q-37 14 -76 34q-53 -25 -86 -70.5t-33 -101.5
q0 -72 60.5 -120t150.5 -48z" />
    <glyph glyph-name="seveneighths" unicode="&#x215e;" horiz-adv-x="2371" 
d="M821 1405q-135 -162 -213 -395.5t-67 -436.5h-174q10 137 87.5 341t211.5 393h-435v127h590v-29zM1530 1434h104l-921 -1434h-105zM1970 455q170 -86 170 -219q0 -111 -91 -179.5t-224 -68.5q-127 0 -214 61.5t-87 155.5q0 68 40 131t103 98q-123 80 -123 199
q0 106 82 172.5t205 66.5q117 0 193.5 -60t76.5 -148q0 -63 -36 -119.5t-95 -89.5zM1847 797q-78 0 -129 -36t-51 -93q0 -35 35 -69t70.5 -53.5t109.5 -51.5q20 -8 31 -15q109 57 108 158q0 70 -49 115t-125 45zM1815 63q88 0 145 36t57 94q0 51 -54 88.5t-165 87.5
q-37 14 -76 34q-53 -25 -85.5 -70.5t-32.5 -101.5q0 -72 60.5 -120t150.5 -48z" />
    <glyph glyph-name="uni215F" unicode="&#x215f;" horiz-adv-x="1245" 
d="M561 573h-151v723q-61 -61 -170 -88l-9 74q61 16 128 59t104 93h98v-861zM1483 1434h104l-921 -1434h-105z" />
    <glyph glyph-name="uni2189" unicode="&#x2189;" horiz-adv-x="2594" 
d="M600 1446q158 0 263.5 -127t105.5 -315.5t-105.5 -315.5t-263.5 -127t-263.5 127t-105.5 315.5t105.5 315.5t263.5 127zM1780 1434h104l-921 -1434h-105zM600 635q98 0 155.5 99.5t57.5 269.5t-57.5 269t-155.5 99t-155.5 -99t-57.5 -269t57.5 -269.5t155.5 -99.5z
M2202 449q74 -31 117.5 -89.5t43.5 -130.5q0 -104 -85 -172.5t-218 -68.5q-123 0 -202.5 54t-79.5 136q0 33 24.5 56.5t59.5 23.5q33 0 55 -23.5t22 -56.5q0 -51 -43 -72q49 -39 138 -38q84 0 132 44t48 119q0 80 -50 130.5t-132 50.5h-84v69h84q72 0 115.5 45t43.5 117
q0 68 -42 109t-115 41q-78 0 -127 -39q45 -16 45 -72q0 -33 -22.5 -56.5t-55.5 -23.5q-35 0 -59.5 23.5t-24.5 56.5q0 84 76 137t194 53q121 0 200 -62t79 -163q0 -61 -37 -114t-100 -84z" />
    <glyph glyph-name="arrowleft" unicode="&#x2190;" horiz-adv-x="1394" 
d="M1200 598v-90h-774q180 -172 266 -342l-41 -23q-156 186 -454 398v24q299 211 454 398l41 -23q-86 -170 -266 -342h774z" />
    <glyph glyph-name="arrowup" unicode="&#x2191;" horiz-adv-x="1210" 
d="M618 1051q211 -299 398 -455l-23 -41q-176 90 -344 268v-776h-88v774q-172 -180 -342 -266l-22 41q186 156 397 455h24z" />
    <glyph glyph-name="arrowright" unicode="&#x2192;" horiz-adv-x="1394" 
d="M745 963q156 -186 455 -398v-24q-299 -211 -455 -398l-40 23q82 166 264 342h-772v90h772q-182 176 -264 342z" />
    <glyph glyph-name="arrowdown" unicode="&#x2193;" horiz-adv-x="1210" 
d="M993 469l23 -41q-186 -156 -398 -455h-24q-211 299 -397 455l22 41q170 -86 342 -266v774h88v-776q168 178 344 268z" />
    <glyph glyph-name="minus" unicode="&#x2212;" horiz-adv-x="1210" 
d="M197 569v90h819v-90h-819z" />
    <glyph glyph-name="approxequal" unicode="&#x2248;" horiz-adv-x="1263" 
d="M827 655q-72 0 -199.5 64.5t-189.5 64.5q-68 0 -107.5 -30.5t-39.5 -83.5h-94q0 94 67.5 152.5t173.5 58.5q72 0 200 -64.5t189 -64.5q66 0 106 31.5t40 82.5h96q0 -92 -69 -151.5t-173 -59.5zM827 348q-72 0 -199.5 64.5t-189.5 64.5q-68 0 -107.5 -30.5t-39.5 -84.5
h-94q0 94 67.5 152.5t173.5 58.5q72 0 200 -64.5t189 -64.5q66 0 106 32t40 83h96q0 -92 -69 -151.5t-173 -59.5z" />
    <glyph glyph-name="notequal" unicode="&#x2260;" horiz-adv-x="1210" 
d="M1016 733h-285l-151 -237h436v-90h-496l-129 -201h-100l129 201h-223v90h282l152 237h-434v90h493l129 201h101l-129 -201h225v-90z" />
    <glyph glyph-name="lessequal" unicode="&#x2264;" horiz-adv-x="1210" 
d="M952 305v-100l-694 397v25l694 397v-100l-555 -310zM197 90h819v-90h-819v90z" />
    <glyph glyph-name="greaterequal" unicode="&#x2265;" horiz-adv-x="1210" 
d="M954 627v-25l-694 -397v100l553 309l-553 310v100zM197 90h819v-90h-819v90z" />
    <glyph glyph-name="uniE016" unicode="&#xe016;" horiz-adv-x="1540" 
d="M1251 0l-174 401h-690l-172 -401h-113l590 1343h-672q-158 0 -265 -99t-107 -238q0 -117 55 -200t145 -114q2 43 34 71t77 28t76 -31t31 -76t-32 -75.5t-79 -30.5q-178 0 -293 118.5t-115 309.5q0 176 137.5 302t335.5 126h791l627 -1434h-187zM426 492h610l-305 704z
" />
    <glyph glyph-name="uniE017" unicode="&#xe017;" horiz-adv-x="1482" 
d="M1065 748q137 -45 218 -144.5t81 -230.5q0 -160 -126 -266.5t-312 -106.5h-688v1343h-381q-158 0 -265.5 -99t-107.5 -238q0 -117 55 -200t146 -114q2 43 33.5 71t76.5 28t76 -31t31 -76t-32 -75.5t-79 -30.5q-178 0 -292.5 118.5t-114.5 309.5q0 176 137 302t336 126
h1007q188 0 313.5 -101.5t125.5 -251.5q0 -111 -63.5 -197.5t-174.5 -135.5zM815 1343h-399v-561h368q152 0 242 78t90 213q0 125 -82 197.5t-219 72.5zM877 90q137 0 219 77t82 204q0 154 -94.5 237.5t-237.5 83.5h-430v-602h461z" />
    <glyph glyph-name="uniE018" unicode="&#xe018;" horiz-adv-x="1679" 
d="M770 1434q328 0 547 -206t219 -511t-219 -511t-547 -206h-532v1343h-381q-158 0 -265.5 -99t-107.5 -238q0 -117 55 -200t146 -114q2 43 33.5 71t76.5 28t76 -31t31 -76t-32 -75.5t-79 -30.5q-178 0 -292.5 118.5t-114.5 309.5q0 176 137 302t336 126h913zM748 90
q272 0 437 171t165 455.5t-165 455.5t-437 171h-332v-1253h332z" />
    <glyph glyph-name="uniE019" unicode="&#xe019;" horiz-adv-x="1370" 
d="M416 90h831v-90h-1009v1343h-381q-158 0 -265.5 -99t-107.5 -238q0 -117 55 -200t146 -114q2 43 33.5 71t76.5 28t76 -31t31 -76t-32 -75.5t-79 -30.5q-178 0 -292.5 118.5t-114.5 309.5q0 176 137 302t336 126h1370v-91h-811v-571h647v-90h-647v-592z" />
    <glyph glyph-name="uniE01A" unicode="&#xe01a;" horiz-adv-x="1306" 
d="M1206 1343h-790v-591h626v-90h-626v-662h-178v1343h-381q-158 0 -265.5 -99t-107.5 -238q0 -117 55 -200t146 -114q2 43 33.5 71t76.5 28t76 -31t31 -76t-32 -75.5t-79 -30.5q-178 0 -292.5 118.5t-114.5 309.5q0 176 137 302t336 126h1349v-91z" />
    <glyph glyph-name="uniE01B" unicode="&#xe01b;" horiz-adv-x="1685" 
d="M1268 1434h178v-1434h-178v682h-852v-682h-178v1343h-381q-158 0 -265.5 -99t-107.5 -238q0 -117 55 -200t146 -114q2 43 33.5 71t76.5 28t76 -31t31 -76t-32 -75.5t-79 -30.5q-178 0 -292.5 118.5t-114.5 309.5q0 176 137 302t336 126h559v-662h852v662z" />
    <glyph glyph-name="uniE01C" unicode="&#xe01c;" horiz-adv-x="655" 
d="M416 1434v-1434h-178v1343h-381q-158 0 -265.5 -99t-107.5 -238q0 -117 55 -200t146 -114q2 43 33.5 71t76.5 28t76 -31t31 -76t-32 -75.5t-79 -30.5q-178 0 -292.5 118.5t-114.5 309.5q0 176 137 302t336 126h559z" />
    <glyph glyph-name="uniE01D" unicode="&#xe01d;" horiz-adv-x="1478" 
d="M1206 0l-577 766l-213 -191v-575h-178v1343h-381q-158 0 -265.5 -99t-107.5 -238q0 -117 55 -200t146 -114q2 43 33.5 71t76.5 28t76 -31t31 -76t-32 -75.5t-79 -30.5q-178 0 -292.5 118.5t-114.5 309.5q0 176 137 302t336 126h559v-738l813 738h141l-616 -553l661 -881
h-209z" />
    <glyph glyph-name="uniE01E" unicode="&#xe01e;" horiz-adv-x="1308" 
d="M416 90h780v-90h-958v1343h-381q-158 0 -265.5 -99t-107.5 -238q0 -117 55 -200t146 -114q2 43 33.5 71t76.5 28t76 -31t31 -76t-32 -75.5t-79 -30.5q-178 0 -292.5 118.5t-114.5 309.5q0 176 137 302t336 126h559v-1344z" />
    <glyph glyph-name="uniE01F" unicode="&#xe01f;" horiz-adv-x="1914" 
d="M1491 1434h186v-1434h-178v1266l-541 -891h-81l-541 889v-1264h-98v1343h-381q-158 0 -265.5 -99t-107.5 -238q0 -117 55 -200t146 -114q2 43 33.5 71t76.5 28t76 -31t31 -76t-32 -75.5t-79 -30.5q-178 0 -292.5 118.5t-114.5 309.5q0 176 137 302t336 126h577l529 -869z
" />
    <glyph glyph-name="uniE020" unicode="&#xe020;" horiz-adv-x="1654" 
d="M1319 1434h98v-1434h-69l-1012 1231v-1231h-98v1343h-381q-158 0 -265.5 -99t-107.5 -238q0 -117 55 -200t146 -114q2 43 33.5 71t76.5 28t76 -31t31 -76t-32 -75.5t-79 -30.5q-178 0 -292.5 118.5t-114.5 309.5q0 176 137 302t336 126h534l928 -1133v1133z" />
    <glyph glyph-name="uniE021" unicode="&#xe021;" horiz-adv-x="1470" 
d="M842 1434q221 0 370.5 -127t149.5 -319.5t-149.5 -319.5t-370.5 -127h-426v-541h-178v1343h-381q-158 0 -265.5 -99t-107.5 -238q0 -117 55 -200t146 -114q2 43 33.5 71t76.5 28t76 -31t31 -76t-32 -75.5t-79 -30.5q-178 0 -292.5 118.5t-114.5 309.5q0 176 137 302
t336 126h985zM803 631q168 0 270.5 97t102.5 259t-102.5 259t-270.5 97h-387v-712h387z" />
    <glyph glyph-name="uniE022" unicode="&#xe022;" horiz-adv-x="1482" 
d="M1292 156q61 -106 133 -156h-206q-63 45 -105 119l-213 368q-39 68 -90 103h-10h-385v-590h-178v1343h-381q-158 0 -265.5 -99t-107.5 -238q0 -117 55 -200t146 -114q2 43 33.5 71t76.5 28t76 -31t31 -76t-32 -75.5t-79 -30.5q-178 0 -292.5 118.5t-114.5 309.5
q0 176 137 302t336 126h944q221 0 370.5 -119t149.5 -299q0 -150 -101.5 -260.5t-265.5 -147.5q100 -43 152 -137zM416 1343v-663h350q168 0 268.5 90t100.5 241.5t-100.5 241.5t-268.5 90h-350z" />
    <glyph glyph-name="uniE023" unicode="&#xe023;" horiz-adv-x="1341" 
d="M1245 1434v-91h-483v-1343h-178v1343h-600q-156 0 -263.5 -99t-107.5 -238q0 -115 54 -198t145 -116q2 43 33.5 71t78.5 28t77 -31t30 -76q0 -47 -32 -76.5t-81 -29.5q-178 0 -292.5 118.5t-114.5 309.5q0 176 137 302t336 126h1261z" />
    <glyph glyph-name="uniE024" unicode="&#xe024;" horiz-adv-x="1642" 
d="M1321 1434h98v-902q0 -252 -153.5 -402t-417.5 -150q-276 0 -450.5 161.5t-174.5 425.5v776h-366q-158 0 -265.5 -99t-107.5 -238q0 -117 55 -200t146 -114q2 43 33.5 71t76.5 28t76 -31t31 -76t-32 -75.5t-79 -30.5q-178 0 -292.5 118.5t-114.5 309.5q0 176 137 302
t336 126h544v-899q0 -203 130.5 -324t342.5 -121q205 0 326 121t121 324v899z" />
    <glyph glyph-name="uniE025" unicode="&#xe025;" horiz-adv-x="1540" 
d="M1325 1434h113l-629 -1434h-80l-588 1343h-164q-158 0 -265 -99t-107 -238q0 -117 55 -200t145 -114q2 43 34 71t77 28q47 0 77 -31t30 -76t-32 -75.5t-79 -30.5q-178 0 -293 118.5t-115 309.5q0 176 137.5 302t335.5 126h314l520 -1196z" />
    <glyph glyph-name="uniE026" unicode="&#xe026;" horiz-adv-x="2359" 
d="M2144 1434h113l-629 -1434h-80l-368 844l-371 -844h-80l-588 1343h-164q-158 0 -265 -99t-107 -238q0 -117 55 -200t145 -114q2 43 34 71t77 28q47 0 77 -31t30 -76t-32 -75.5t-79 -30.5q-178 0 -293 118.5t-115 309.5q0 176 137.5 302t335.5 126h314l520 -1196l311 735
l-200 461h188l520 -1196z" />
    <glyph glyph-name="uniE027" unicode="&#xe027;" horiz-adv-x="1452" 
d="M1317 0h-197l-415 606l-412 -606h-123l477 688l-450 655h-254q-156 0 -263.5 -99t-107.5 -238q0 -115 54.5 -198t144.5 -116q2 43 33.5 71t78.5 28t77 -31t30 -76q0 -47 -32 -76.5t-81 -29.5q-178 0 -292.5 118.5t-114.5 309.5q0 176 137 302t336 126h389l409 -596
l408 596h123l-473 -680z" />
    <glyph glyph-name="uniE028" unicode="&#xe028;" horiz-adv-x="1472" 
d="M1253 1434h117l-545 -820v-614h-178v614l-485 729h-219q-156 0 -263.5 -99t-107.5 -238q0 -115 54.5 -198t144.5 -116q2 43 33.5 71t78.5 28t77 -31t30 -76q0 -47 -32 -76.5t-81 -29.5q-178 0 -292.5 118.5t-114.5 309.5q0 176 137 302t336 126h358l477 -719z" />
    <glyph glyph-name="uniE079" unicode="&#xe079;" horiz-adv-x="905" 
d="M473 1343q-158 0 -264.5 -99t-106.5 -238q0 -117 54.5 -200t146.5 -116q2 45 34 73t77 28t75.5 -31t30.5 -76t-31.5 -75.5t-78.5 -30.5h-2q-178 0 -293 118.5t-115 309.5q0 176 137 302t336 126h432v-91h-432z" />
    <glyph glyph-name="Q.ss02" horiz-adv-x="1792" 
d="M1645 -35q41 0 68.5 -28.5t27.5 -71.5q0 -111 -112.5 -185.5t-272.5 -74.5q-188 0 -336 104.5t-191 272.5q-297 23 -491.5 229.5t-194.5 505.5q0 315 214 526t533.5 211t532.5 -211t213 -526q0 -283 -176 -485.5t-450 -243.5q18 -131 119.5 -213t244.5 -82q145 0 223 82
q-57 27 -57 90q0 43 30 71.5t75 28.5zM330 717q0 -293 153.5 -470t407.5 -177t406.5 177t152.5 470t-152.5 470t-406.5 177t-407.5 -177t-153.5 -470z" />
    <glyph glyph-name="W.ss02" horiz-adv-x="2560" 
d="M2238 1434h99v-930q0 -240 -140.5 -382t-381.5 -142q-180 0 -319.5 78.5t-207.5 220.5q-53 -143 -178 -221t-303 -78q-254 0 -419 154.5t-165 404.5v895h178v-928q0 -186 120 -301t308 -115q184 0 293 113.5t109 302.5v928h178v-928q0 -188 118 -302t310 -114
q184 0 292.5 113.5t108.5 302.5v928z" />
    <glyph glyph-name="Wacute.ss02" horiz-adv-x="2560" 
d="M1585 1837l-280 -246h-95l129 246h246zM2238 1434h99v-930q0 -240 -140.5 -382t-381.5 -142q-180 0 -319.5 78.5t-207.5 220.5q-53 -143 -178 -221t-303 -78q-254 0 -419 154.5t-165 404.5v895h178v-928q0 -186 120 -301t308 -115q184 0 293 113.5t109 302.5v928h178
v-928q0 -188 118 -302t310 -114q184 0 292.5 113.5t108.5 302.5v928z" />
    <glyph glyph-name="Wcircumflex.ss02" horiz-adv-x="2560" 
d="M1286 1720l-231 -139l-47 45l239 227h78l242 -227l-47 -45zM2238 1434h99v-930q0 -240 -140.5 -382t-381.5 -142q-180 0 -319.5 78.5t-207.5 220.5q-53 -143 -178 -221t-303 -78q-254 0 -419 154.5t-165 404.5v895h178v-928q0 -186 120 -301t308 -115q184 0 293 113.5
t109 302.5v928h178v-928q0 -188 118 -302t310 -114q184 0 292.5 113.5t108.5 302.5v928z" />
    <glyph glyph-name="Wdieresis.ss02" horiz-adv-x="2560" 
d="M1092 1583q-43 0 -73 27.5t-30 70.5q0 45 30 74t75 29q43 0 71.5 -29t28.5 -72t-28.5 -71.5t-73.5 -28.5zM1483 1583q-43 0 -73 28.5t-30 71.5t30 72t75 29q41 0 69.5 -29t28.5 -72t-28.5 -71.5t-71.5 -28.5zM2238 1434h99v-930q0 -240 -140.5 -382t-381.5 -142
q-180 0 -319.5 78.5t-207.5 220.5q-53 -143 -178 -221t-303 -78q-254 0 -419 154.5t-165 404.5v895h178v-928q0 -186 120 -301t308 -115q184 0 293 113.5t109 302.5v928h178v-928q0 -188 118 -302t310 -114q184 0 292.5 113.5t108.5 302.5v928z" />
    <glyph glyph-name="Wgrave.ss02" horiz-adv-x="2560" 
d="M1366 1591h-94l-281 246h246zM2238 1434h99v-930q0 -240 -140.5 -382t-381.5 -142q-180 0 -319.5 78.5t-207.5 220.5q-53 -143 -178 -221t-303 -78q-254 0 -419 154.5t-165 404.5v895h178v-928q0 -186 120 -301t308 -115q184 0 293 113.5t109 302.5v928h178v-928
q0 -188 118 -302t310 -114q184 0 292.5 113.5t108.5 302.5v928z" />
    <glyph glyph-name="Q.ss03" horiz-adv-x="1792" 
d="M890.5 -20q-319.5 0 -533.5 210.5t-214 526t214 526.5t533.5 211t532.5 -211t213 -526.5t-213 -526t-532.5 -210.5zM891 1364q-254 0 -407.5 -177t-153.5 -470t153.5 -470t407.5 -177t406.5 177t152.5 470t-152.5 470t-406.5 177zM1645 -39q41 0 68.5 -28.5t27.5 -71.5
q0 -141 -90 -234.5t-224 -93.5q-102 0 -205.5 46t-234.5 128q-115 70 -197.5 106.5t-166.5 36.5q-70 0 -121 -40q51 -27 51 -89q0 -45 -28.5 -72.5t-69.5 -27.5q-45 0 -75 27.5t-30 72.5q0 94 86 159t207 65q70 0 150.5 -24.5t133 -49.5t144.5 -74q244 -131 391 -131
q121 0 172 96q-41 4 -67.5 31t-26.5 68q0 43 30 71.5t75 28.5z" />
    <glyph glyph-name="G.ss04" horiz-adv-x="1701" 
d="M1499 647v-647h-69l-56 119q-72 -63 -195.5 -101t-271.5 -38q-326 0 -545 210.5t-219 526t220.5 526.5t551.5 211q231 0 387 -100.5t156 -249.5q0 -47 -29.5 -77t-74.5 -30q-47 0 -79 31t-32 76q0 80 76 104q-41 72 -136.5 111t-224.5 39q-291 0 -459.5 -175t-168.5 -472
q0 -291 162.5 -466t435.5 -175q147 0 251.5 43t145.5 120v324h-293v90h467z" />
    <glyph glyph-name="uni01F4.ss04" horiz-adv-x="1701" 
d="M1200 1837l-280 -246h-95l129 246h246zM1499 647v-647h-69l-56 119q-72 -63 -195.5 -101t-271.5 -38q-326 0 -545 210.5t-219 526t220.5 526.5t551.5 211q231 0 387 -100.5t156 -249.5q0 -47 -29.5 -77t-74.5 -30q-47 0 -79 31t-32 76q0 80 76 104q-41 72 -136.5 111
t-224.5 39q-291 0 -459.5 -175t-168.5 -472q0 -291 162.5 -466t435.5 -175q147 0 251.5 43t145.5 120v324h-293v90h467z" />
    <glyph glyph-name="Gbreve.ss04" horiz-adv-x="1701" 
d="M901.5 1579q-108.5 0 -193.5 75t-85 179h90q8 -57 61 -93t127 -36q76 0 128 36t63 93h90q-2 -104 -87 -179t-193.5 -75zM1499 647v-647h-69l-56 119q-72 -63 -195.5 -101t-271.5 -38q-326 0 -545 210.5t-219 526t220.5 526.5t551.5 211q231 0 387 -100.5t156 -249.5
q0 -47 -29.5 -77t-74.5 -30q-47 0 -79 31t-32 76q0 80 76 104q-41 72 -136.5 111t-224.5 39q-291 0 -459.5 -175t-168.5 -472q0 -291 162.5 -466t435.5 -175q147 0 251.5 43t145.5 120v324h-293v90h467z" />
    <glyph glyph-name="Gcaron.ss04" horiz-adv-x="1701" 
d="M940 1581h-78l-239 227l47 45l231 -139l234 139l47 -45zM1499 647v-647h-69l-56 119q-72 -63 -195.5 -101t-271.5 -38q-326 0 -545 210.5t-219 526t220.5 526.5t551.5 211q231 0 387 -100.5t156 -249.5q0 -47 -29.5 -77t-74.5 -30q-47 0 -79 31t-32 76q0 80 76 104
q-41 72 -136.5 111t-224.5 39q-291 0 -459.5 -175t-168.5 -472q0 -291 162.5 -466t435.5 -175q147 0 251.5 43t145.5 120v324h-293v90h467z" />
    <glyph glyph-name="Gcircumflex.ss04" horiz-adv-x="1701" 
d="M901 1720l-231 -139l-47 45l239 227h78l242 -227l-47 -45zM1499 647v-647h-69l-56 119q-72 -63 -195.5 -101t-271.5 -38q-326 0 -545 210.5t-219 526t220.5 526.5t551.5 211q231 0 387 -100.5t156 -249.5q0 -47 -29.5 -77t-74.5 -30q-47 0 -79 31t-32 76q0 80 76 104
q-41 72 -136.5 111t-224.5 39q-291 0 -459.5 -175t-168.5 -472q0 -291 162.5 -466t435.5 -175q147 0 251.5 43t145.5 120v324h-293v90h467z" />
    <glyph glyph-name="uni0122.ss04" horiz-adv-x="1701" 
d="M1499 647v-647h-69l-56 119q-72 -63 -195.5 -101t-271.5 -38q-326 0 -545 210.5t-219 526t220.5 526.5t551.5 211q231 0 387 -100.5t156 -249.5q0 -47 -29.5 -77t-74.5 -30q-47 0 -79 31t-32 76q0 80 76 104q-41 72 -136.5 111t-224.5 39q-291 0 -459.5 -175t-168.5 -472
q0 -291 162.5 -466t435.5 -175q147 0 251.5 43t145.5 120v324h-293v90h467zM899 -145q49 0 82 -33t33 -86q0 -70 -49.5 -144.5t-116.5 -109.5l-37 41q55 49 80 123q-45 2 -72.5 32.5t-27.5 75.5q0 41 31.5 71t76.5 30z" />
    <glyph glyph-name="Gdotaccent.ss04" horiz-adv-x="1701" 
d="M903 1579q-45 0 -77.5 28.5t-32.5 75.5q0 45 32.5 76t79.5 31q45 0 75 -29.5t30 -77t-30 -76t-77 -28.5zM1499 647v-647h-69l-56 119q-72 -63 -195.5 -101t-271.5 -38q-326 0 -545 210.5t-219 526t220.5 526.5t551.5 211q231 0 387 -100.5t156 -249.5q0 -47 -29.5 -77
t-74.5 -30q-47 0 -79 31t-32 76q0 80 76 104q-41 72 -136.5 111t-224.5 39q-291 0 -459.5 -175t-168.5 -472q0 -291 162.5 -466t435.5 -175q147 0 251.5 43t145.5 120v324h-293v90h467z" />
    <glyph glyph-name="M.ss04" horiz-adv-x="1918" 
d="M1491 1434h190v-1434h-178v1225l-538 -1225h-91l-538 1221v-1221h-98v1434h194l529 -1198z" />
    <glyph glyph-name="R.ss04" horiz-adv-x="1482" 
d="M1217 0l-457 590h-344v-590h-178v1434h563q221 0 370.5 -121t149.5 -301q0 -150 -104.5 -261.5t-274.5 -146.5q23 -16 39 -43l442 -561h-206zM416 1343v-663h350q168 0 268.5 90t100.5 241.5t-100.5 241.5t-268.5 90h-350z" />
    <glyph glyph-name="Racute.ss04" horiz-adv-x="1482" 
d="M1057 1837l-281 -246h-94l129 246h246zM1217 0l-457 590h-344v-590h-178v1434h563q221 0 370.5 -121t149.5 -301q0 -150 -104.5 -261.5t-274.5 -146.5q23 -16 39 -43l442 -561h-206zM416 1343v-663h350q168 0 268.5 90t100.5 241.5t-100.5 241.5t-268.5 90h-350z" />
    <glyph glyph-name="Rcaron.ss04" horiz-adv-x="1482" 
d="M797 1581h-78l-240 227l47 45l232 -139l233 139l47 -45zM1217 0l-457 590h-344v-590h-178v1434h563q221 0 370.5 -121t149.5 -301q0 -150 -104.5 -261.5t-274.5 -146.5q23 -16 39 -43l442 -561h-206zM416 1343v-663h350q168 0 268.5 90t100.5 241.5t-100.5 241.5
t-268.5 90h-350z" />
    <glyph glyph-name="uni0156.ss04" horiz-adv-x="1482" 
d="M981 561l442 -561h-206l-457 590h-344v-590h-178v1434h563q221 0 370.5 -121t149.5 -301q0 -150 -104.5 -261.5t-274.5 -146.5q23 -16 39 -43zM416 1343v-663h350q168 0 268.5 90t100.5 241.5t-100.5 241.5t-268.5 90h-350zM809 -145q49 0 82 -33t33 -86
q0 -70 -49.5 -144.5t-116.5 -109.5l-37 41q55 49 80 123q-45 2 -73 32.5t-28 75.5q0 41 32 71t77 30z" />
    <glyph glyph-name="uni0210.ss04" horiz-adv-x="1482" 
d="M649 1591h-94l-244 246h207zM987 1591h-94l-244 246h207zM1217 0l-457 590h-344v-590h-178v1434h563q221 0 370.5 -121t149.5 -301q0 -150 -104.5 -261.5t-274.5 -146.5q23 -16 39 -43l442 -561h-206zM416 1343v-663h350q168 0 268.5 90t100.5 241.5t-100.5 241.5
t-268.5 90h-350z" />
    <glyph glyph-name="uni1E5A.ss04" horiz-adv-x="1482" 
d="M981 561l442 -561h-206l-457 590h-344v-590h-178v1434h563q221 0 370.5 -121t149.5 -301q0 -150 -104.5 -261.5t-274.5 -146.5q23 -16 39 -43zM416 1343v-663h350q168 0 268.5 90t100.5 241.5t-100.5 241.5t-268.5 90h-350zM813 -147q45 0 75 -30t30 -77t-30 -75.5
t-77 -28.5q-45 0 -78 28.5t-33 75.5q0 45 33 76t80 31z" />
    <glyph glyph-name="uni0212.ss04" horiz-adv-x="1482" 
d="M758 1731q-74 0 -127 -36t-62 -93h-90q0 104 85 178.5t193.5 74.5t193.5 -74.5t87 -178.5h-90q-10 57 -62 93t-128 36zM1217 0l-457 590h-344v-590h-178v1434h563q221 0 370.5 -121t149.5 -301q0 -150 -104.5 -261.5t-274.5 -146.5q23 -16 39 -43l442 -561h-206z
M416 1343v-663h350q168 0 268.5 90t100.5 241.5t-100.5 241.5t-268.5 90h-350z" />
    <glyph glyph-name="i.locl" horiz-adv-x="614" 
d="M307 1190q-45 0 -77.5 28.5t-32.5 75.5q0 45 32.5 76t79.5 31q45 0 75 -30t30 -77t-30 -75.5t-77 -28.5zM217 0v989l178 45v-1034h-178z" />
    <glyph glyph-name="a.salt" horiz-adv-x="1380" 
d="M983 989l178 45v-1034h-178v143q-133 -164 -352 -163q-205 0 -347.5 153.5t-142.5 378.5t142.5 378.5t343.5 153.5q111 0 204 -49t152 -135v129zM676 86q96 0 178 47t129 127v494q-51 88 -134 136t-179 48q-152 0 -247 -118t-95 -308q0 -193 96 -309.5t252 -116.5z" />
    <glyph glyph-name="aacute.salt" horiz-adv-x="1380" 
d="M993 1448l-280 -246h-95l130 246h245zM983 989l178 45v-1034h-178v143q-133 -164 -352 -163q-205 0 -347.5 153.5t-142.5 378.5t142.5 378.5t343.5 153.5q111 0 204 -49t152 -135v129zM676 86q96 0 178 47t129 127v494q-51 88 -134 136t-179 48q-152 0 -247 -118
t-95 -308q0 -193 96 -309.5t252 -116.5z" />
    <glyph glyph-name="abreve.salt" horiz-adv-x="1380" 
d="M696.5 1190q-108.5 0 -193.5 74.5t-85 179.5h90q8 -57 61.5 -93t126.5 -36q76 0 128.5 35.5t62.5 93.5h90q-2 -104 -87 -179t-193.5 -75zM983 989l178 45v-1034h-178v143q-133 -164 -352 -163q-205 0 -347.5 153.5t-142.5 378.5t142.5 378.5t343.5 153.5q111 0 204 -49
t152 -135v129zM676 86q96 0 178 47t129 127v494q-51 88 -134 136t-179 48q-152 0 -247 -118t-95 -308q0 -193 96 -309.5t252 -116.5z" />
    <glyph glyph-name="uni01CE.salt" horiz-adv-x="1380" 
d="M735 1192h-78l-239 227l47 45l231 -139l234 139l47 -45zM983 989l178 45v-1034h-178v143q-133 -164 -352 -163q-205 0 -347.5 153.5t-142.5 378.5t142.5 378.5t343.5 153.5q111 0 204 -49t152 -135v129zM676 86q96 0 178 47t129 127v494q-51 88 -134 136t-179 48
q-152 0 -247 -118t-95 -308q0 -193 96 -309.5t252 -116.5z" />
    <glyph glyph-name="acircumflex.salt" horiz-adv-x="1380" 
d="M696 1331l-231 -139l-47 45l239 227h78l242 -227l-47 -45zM983 989l178 45v-1034h-178v143q-133 -164 -352 -163q-205 0 -347.5 153.5t-142.5 378.5t142.5 378.5t343.5 153.5q111 0 204 -49t152 -135v129zM676 86q96 0 178 47t129 127v494q-51 88 -134 136t-179 48
q-152 0 -247 -118t-95 -308q0 -193 96 -309.5t252 -116.5z" />
    <glyph glyph-name="uni0201.salt" horiz-adv-x="1380" 
d="M586 1202h-94l-244 246h207zM924 1202h-95l-243 246h207zM983 989l178 45v-1034h-178v143q-133 -164 -352 -163q-205 0 -347.5 153.5t-142.5 378.5t142.5 378.5t343.5 153.5q111 0 204 -49t152 -135v129zM676 86q96 0 178 47t129 127v494q-51 88 -134 136t-179 48
q-152 0 -247 -118t-95 -308q0 -193 96 -309.5t252 -116.5z" />
    <glyph glyph-name="adieresis.salt" horiz-adv-x="1380" 
d="M500 1194q-43 0 -73 27.5t-30 70.5q0 45 30 74t75 29q43 0 71.5 -29t28.5 -72t-28.5 -71.5t-73.5 -28.5zM891 1194q-43 0 -73 28.5t-30 71.5t30 72t75 29q41 0 69.5 -29t28.5 -72t-28.5 -71.5t-71.5 -28.5zM983 989l178 45v-1034h-178v143q-133 -164 -352 -163
q-205 0 -347.5 153.5t-142.5 378.5t142.5 378.5t343.5 153.5q111 0 204 -49t152 -135v129zM676 86q96 0 178 47t129 127v494q-51 88 -134 136t-179 48q-152 0 -247 -118t-95 -308q0 -193 96 -309.5t252 -116.5z" />
    <glyph glyph-name="uni1EA1.salt" horiz-adv-x="1380" 
d="M983 989l178 45v-1034h-178v143q-133 -164 -352 -163q-205 0 -347.5 153.5t-142.5 378.5t142.5 378.5t343.5 153.5q111 0 204 -49t152 -135v129zM676 86q96 0 178 47t129 127v494q-51 88 -134 136t-179 48q-152 0 -247 -118t-95 -308q0 -193 96 -309.5t252 -116.5z
M698 -147q45 0 75 -30t30 -77t-30 -75.5t-77 -28.5q-45 0 -77.5 28.5t-32.5 75.5q0 45 32.5 76t79.5 31z" />
    <glyph glyph-name="agrave.salt" horiz-adv-x="1380" 
d="M774 1202h-94l-281 246h246zM983 989l178 45v-1034h-178v143q-133 -164 -352 -163q-205 0 -347.5 153.5t-142.5 378.5t142.5 378.5t343.5 153.5q111 0 204 -49t152 -135v129zM676 86q96 0 178 47t129 127v494q-51 88 -134 136t-179 48q-152 0 -247 -118t-95 -308
q0 -193 96 -309.5t252 -116.5z" />
    <glyph glyph-name="uni0203.salt" horiz-adv-x="1380" 
d="M696 1341q-74 0 -127 -35.5t-61 -93.5h-90q0 104 85 179t193.5 75t193.5 -74.5t87 -179.5h-90q-10 57 -62.5 93t-128.5 36zM983 989l178 45v-1034h-178v143q-133 -164 -352 -163q-205 0 -347.5 153.5t-142.5 378.5t142.5 378.5t343.5 153.5q111 0 204 -49t152 -135v129z
M676 86q96 0 178 47t129 127v494q-51 88 -134 136t-179 48q-152 0 -247 -118t-95 -308q0 -193 96 -309.5t252 -116.5z" />
    <glyph glyph-name="amacron.salt" horiz-adv-x="1380" 
d="M940 1382v-122h-491v122h491zM983 989l178 45v-1034h-178v143q-133 -164 -352 -163q-205 0 -347.5 153.5t-142.5 378.5t142.5 378.5t343.5 153.5q111 0 204 -49t152 -135v129zM676 86q96 0 178 47t129 127v494q-51 88 -134 136t-179 48q-152 0 -247 -118t-95 -308
q0 -193 96 -309.5t252 -116.5z" />
    <glyph glyph-name="aogonek.salt" horiz-adv-x="1380" 
d="M1159 -305l39 -66q-53 -68 -170 -67q-84 0 -141.5 46t-57.5 113q0 74 63.5 153t160.5 126h-70v143q-133 -164 -352 -163q-205 0 -347.5 153.5t-142.5 378.5t142.5 378.5t343.5 153.5q111 0 204 -49t152 -135v129l178 45v-1034h-2q-94 -45 -150.5 -109.5t-56.5 -123.5
q0 -47 31 -78t82 -31q53 0 94 37zM676 86q96 0 178 47t129 127v494q-51 88 -134 136t-179 48q-152 0 -247 -118t-95 -308q0 -193 96 -309.5t252 -116.5z" />
    <glyph glyph-name="aring.salt" horiz-adv-x="1380" 
d="M700 1167q-70 0 -117.5 45t-47.5 111q0 70 47 115t116.5 45t114.5 -45t45 -115q0 -66 -45 -111t-113 -45zM700 1417q-41 0 -67.5 -25.5t-26.5 -68.5q0 -41 26.5 -65.5t67.5 -24.5q37 0 61.5 24.5t24.5 65.5q0 43 -24.5 68.5t-61.5 25.5zM983 989l178 45v-1034h-178v143
q-133 -164 -352 -163q-205 0 -347.5 153.5t-142.5 378.5t142.5 378.5t343.5 153.5q111 0 204 -49t152 -135v129zM676 86q96 0 178 47t129 127v494q-51 88 -134 136t-179 48q-152 0 -247 -118t-95 -308q0 -193 96 -309.5t252 -116.5z" />
    <glyph glyph-name="atilde.salt" horiz-adv-x="1380" 
d="M567 1337q-37 0 -63.5 -31.5t-28.5 -84.5h-86q0 100 52.5 165.5t131.5 65.5q66 0 139.5 -64.5t112.5 -64.5t63.5 31.5t29.5 87.5h86q0 -100 -52.5 -166t-134.5 -66q-55 0 -99 32t-80 63.5t-71 31.5zM983 989l178 45v-1034h-178v143q-133 -164 -352 -163
q-205 0 -347.5 153.5t-142.5 378.5t142.5 378.5t343.5 153.5q111 0 204 -49t152 -135v129zM676 86q96 0 178 47t129 127v494q-51 88 -134 136t-179 48q-152 0 -247 -118t-95 -308q0 -193 96 -309.5t252 -116.5z" />
    <glyph glyph-name="u.ss02" horiz-adv-x="1255" 
d="M653 -20q-188 0 -321 107.5t-133 264.5v637l178 45v-694q0 -106 86 -178t211 -72t206 70.5t81 179.5v684h98v-696q0 -152 -113 -250t-293 -98z" />
    <glyph glyph-name="uacute.ss02" horiz-adv-x="1255" 
d="M662 1202h-95l129 246h246zM653 -20q-188 0 -321 107.5t-133 264.5v637l178 45v-694q0 -106 86 -178t211 -72t206 70.5t81 179.5v684h98v-696q0 -152 -113 -250t-293 -98z" />
    <glyph glyph-name="ubreve.ss02" horiz-adv-x="1255" 
d="M645.5 1190q-108.5 0 -193.5 74.5t-85 179.5h90q8 -57 61 -93t127 -36q76 0 128 35.5t63 93.5h90q-2 -104 -87 -179t-193.5 -75zM653 -20q-188 0 -321 107.5t-133 264.5v637l178 45v-694q0 -106 86 -178t211 -72t206 70.5t81 179.5v684h98v-696q0 -152 -113 -250
t-293 -98z" />
    <glyph glyph-name="ucircumflex.ss02" horiz-adv-x="1255" 
d="M645 1331l-231 -139l-47 45l239 227h78l242 -227l-47 -45zM961 1024h98v-696q0 -152 -112.5 -250t-293.5 -98q-188 0 -321 107.5t-133 264.5v637l178 45v-694q0 -106 86 -178t211 -72t206 70.5t81 179.5v684z" />
    <glyph glyph-name="uni0215.ss02" horiz-adv-x="1255" 
d="M537 1202h-95l-243 246h207zM874 1202h-94l-243 246h206zM653 -20q-188 0 -321 107.5t-133 264.5v637l178 45v-694q0 -106 86 -178t211 -72t206 70.5t81 179.5v684h98v-696q0 -152 -113 -250t-293 -98z" />
    <glyph glyph-name="udieresis.ss02" horiz-adv-x="1255" 
d="M451 1194q-43 0 -73 27.5t-30 70.5q0 45 30 74t75 29q43 0 71.5 -29t28.5 -72t-28.5 -71.5t-73.5 -28.5zM842 1194q-43 0 -73 28.5t-30 71.5t30 72t75 29q41 0 69.5 -29t28.5 -72t-28.5 -71.5t-71.5 -28.5zM653 -20q-188 0 -321 107.5t-133 264.5v637l178 45v-694
q0 -106 86 -178t211 -72t206 70.5t81 179.5v684h98v-696q0 -152 -113 -250t-293 -98z" />
    <glyph glyph-name="uni1EE5.ss02" horiz-adv-x="1255" 
d="M653 -20q-188 0 -321 107.5t-133 264.5v637l178 45v-694q0 -106 86 -178t211 -72t206 70.5t81 179.5v684h98v-696q0 -152 -113 -250t-293 -98zM649 -358q-45 0 -77.5 28.5t-32.5 75.5q0 45 32.5 76t79.5 31q45 0 75 -30t30 -77t-30 -75.5t-77 -28.5z" />
    <glyph glyph-name="ugrave.ss02" horiz-adv-x="1255" 
d="M629 1202l-281 246h246l129 -246h-94zM653 -20q-188 0 -321 107.5t-133 264.5v637l178 45v-694q0 -106 86 -178t211 -72t206 70.5t81 179.5v684h98v-696q0 -152 -113 -250t-293 -98z" />
    <glyph glyph-name="uhungarumlaut.ss02" horiz-adv-x="1255" 
d="M412 1202l133 246h205l-242 -246h-96zM750 1202l133 246h204l-241 -246h-96zM653 -20q-188 0 -321 107.5t-133 264.5v637l178 45v-694q0 -106 86 -178t211 -72t206 70.5t81 179.5v684h98v-696q0 -152 -113 -250t-293 -98z" />
    <glyph glyph-name="uni0217.ss02" horiz-adv-x="1255" 
d="M645.5 1466q108.5 0 193.5 -74.5t87 -179.5h-90q-10 57 -62.5 93t-128.5 36q-74 0 -127 -35.5t-61 -93.5h-90q0 104 85 179t193.5 75zM653 -20q-188 0 -321 107.5t-133 264.5v637l178 45v-694q0 -106 86 -178t211 -72t206 70.5t81 179.5v684h98v-696q0 -152 -113 -250
t-293 -98z" />
    <glyph glyph-name="umacron.ss02" horiz-adv-x="1255" 
d="M399 1260v122h492v-122h-492zM653 -20q-188 0 -321 107.5t-133 264.5v637l178 45v-694q0 -106 86 -178t211 -72t206 70.5t81 179.5v684h98v-696q0 -152 -113 -250t-293 -98z" />
    <glyph glyph-name="uogonek.ss02" horiz-adv-x="1255" 
d="M961 1024h98v-696q0 -123 -77 -213t-208 -121q-88 -45 -140 -106.5t-52 -120.5q0 -47 30.5 -78t81.5 -31q53 0 94 37l39 -66q-53 -68 -170 -67q-84 0 -141 46t-57 113q0 66 51 137.5t135 121.5q-184 4 -315 110.5t-131 261.5v637l178 45v-694q0 -106 86 -178t211 -72
t206 70.5t81 179.5v684z" />
    <glyph glyph-name="uring.ss02" horiz-adv-x="1255" 
d="M649 1167q-70 0 -118 45t-48 111q0 70 47.5 115t117 45t114.5 -45t45 -115q0 -66 -45 -111t-113 -45zM649 1233q37 0 61.5 24.5t24.5 65.5q0 43 -24.5 68.5t-61.5 25.5q-41 0 -67.5 -25.5t-26.5 -68.5q0 -41 26.5 -65.5t67.5 -24.5zM653 -20q-188 0 -321 107.5
t-133 264.5v637l178 45v-694q0 -106 86 -178t211 -72t206 70.5t81 179.5v684h98v-696q0 -152 -113 -250t-293 -98z" />
    <glyph glyph-name="utilde.ss02" horiz-adv-x="1255" 
d="M766 1210q-55 0 -99 32t-80 63.5t-71 31.5q-37 0 -63.5 -31.5t-28.5 -84.5h-86q0 100 52 165.5t132 65.5q66 0 139.5 -64.5t112.5 -64.5t63.5 31.5t28.5 87.5h86q0 -100 -52 -166t-134 -66zM653 -20q-188 0 -321 107.5t-133 264.5v637l178 45v-694q0 -106 86 -178
t211 -72t206 70.5t81 179.5v684h98v-696q0 -152 -113 -250t-293 -98z" />
    <glyph glyph-name="w.ss02" horiz-adv-x="1812" 
d="M1518 1024h98v-727q0 -137 -99.5 -227t-254.5 -90q-109 0 -201 45t-146 120q-102 -166 -337 -165q-156 0 -267.5 98t-111.5 244v667l178 45v-727q0 -92 66.5 -154.5t162.5 -62.5q111 0 181.5 62.5t70.5 154.5v682l178 45v-743q0 -86 71 -143.5t175 -57.5q102 0 169 62.5
t67 154.5v717z" />
    <glyph glyph-name="wacute.ss02" horiz-adv-x="1812" 
d="M1219 1448l-281 -246h-94l129 246h246zM1518 1024h98v-727q0 -137 -99.5 -227t-254.5 -90q-109 0 -201 45t-146 120q-102 -166 -337 -165q-156 0 -267.5 98t-111.5 244v667l178 45v-727q0 -92 66.5 -154.5t162.5 -62.5q111 0 181.5 62.5t70.5 154.5v682l178 45v-743
q0 -86 71 -143.5t175 -57.5q102 0 169 62.5t67 154.5v717z" />
    <glyph glyph-name="wcircumflex.ss02" horiz-adv-x="1812" 
d="M922 1331l-232 -139l-47 45l240 227h78l241 -227l-47 -45zM1518 1024h98v-727q0 -137 -99.5 -227t-254.5 -90q-109 0 -201 45t-146 120q-102 -166 -337 -165q-156 0 -267.5 98t-111.5 244v667l178 45v-727q0 -92 66.5 -154.5t162.5 -62.5q111 0 181.5 62.5t70.5 154.5
v682l178 45v-743q0 -86 71 -143.5t175 -57.5q102 0 169 62.5t67 154.5v717z" />
    <glyph glyph-name="wdieresis.ss02" horiz-adv-x="1812" 
d="M725 1194q-43 0 -72.5 27.5t-29.5 70.5q0 45 29.5 74t74.5 29q43 0 71.5 -29t28.5 -72t-28.5 -71.5t-73.5 -28.5zM1116 1194q-43 0 -72.5 28.5t-29.5 71.5t29.5 72t74.5 29q41 0 70 -29t29 -72t-29 -71.5t-72 -28.5zM1518 1024h98v-727q0 -137 -99.5 -227t-254.5 -90
q-109 0 -201 45t-146 120q-102 -166 -337 -165q-156 0 -267.5 98t-111.5 244v667l178 45v-727q0 -92 66.5 -154.5t162.5 -62.5q111 0 181.5 62.5t70.5 154.5v682l178 45v-743q0 -86 71 -143.5t175 -57.5q102 0 169 62.5t67 154.5v717z" />
    <glyph glyph-name="wgrave.ss02" horiz-adv-x="1812" 
d="M999 1202h-94l-280 246h245zM1518 1024h98v-727q0 -137 -99.5 -227t-254.5 -90q-109 0 -201 45t-146 120q-102 -166 -337 -165q-156 0 -267.5 98t-111.5 244v667l178 45v-727q0 -92 66.5 -154.5t162.5 -62.5q111 0 181.5 62.5t70.5 154.5v682l178 45v-743
q0 -86 71 -143.5t175 -57.5q102 0 169 62.5t67 154.5v717z" />
    <glyph glyph-name="y.ss02" horiz-adv-x="1333" 
d="M944 989l178 45v-1087q0 -180 -133 -299t-340 -119q-168 0 -292 71.5t-124 174.5q0 45 30 73.5t77 28.5q43 0 71.5 -28.5t28.5 -73.5q0 -61 -47 -88q84 -68 221 -68q147 0 238.5 92t91.5 236v248q-55 -96 -157.5 -155.5t-223.5 -59.5q-156 0 -260 99t-104 249v661l178 45
v-702q0 -102 68.5 -171t172.5 -69q98 0 189.5 62.5t136.5 160.5v674z" />
    <glyph glyph-name="yacute.ss02" horiz-adv-x="1333" 
d="M963 1448l-281 -246h-94l129 246h246zM944 989l178 45v-1087q0 -180 -133 -299t-340 -119q-168 0 -292 71.5t-124 174.5q0 45 30 73.5t77 28.5q43 0 71.5 -28.5t28.5 -73.5q0 -61 -47 -88q84 -68 221 -68q147 0 238.5 92t91.5 236v248q-55 -96 -157.5 -155.5
t-223.5 -59.5q-156 0 -260 99t-104 249v661l178 45v-702q0 -102 68.5 -171t172.5 -69q98 0 189.5 62.5t136.5 160.5v674z" />
    <glyph glyph-name="ycircumflex.ss02" horiz-adv-x="1333" 
d="M664 1331l-232 -139l-47 45l240 227h77l242 -227l-47 -45zM944 989l178 45v-1087q0 -180 -133 -299t-340 -119q-168 0 -292 71.5t-124 174.5q0 45 30 73.5t77 28.5q43 0 71.5 -28.5t28.5 -73.5q0 -61 -47 -88q84 -68 221 -68q147 0 238.5 92t91.5 236v248
q-55 -96 -157.5 -155.5t-223.5 -59.5q-156 0 -260 99t-104 249v661l178 45v-702q0 -102 68.5 -171t172.5 -69q98 0 189.5 62.5t136.5 160.5v674z" />
    <glyph glyph-name="ydieresis.ss02" horiz-adv-x="1333" 
d="M469 1194q-43 0 -72.5 27.5t-29.5 70.5q0 45 29.5 74t74.5 29q43 0 71.5 -29t28.5 -72t-28.5 -71.5t-73.5 -28.5zM860 1194q-43 0 -72.5 28.5t-29.5 71.5t29.5 72t74.5 29q41 0 70 -29t29 -72t-29 -71.5t-72 -28.5zM944 989l178 45v-1087q0 -180 -133 -299t-340 -119
q-168 0 -292 71.5t-124 174.5q0 45 30 73.5t77 28.5q43 0 71.5 -28.5t28.5 -73.5q0 -61 -47 -88q84 -68 221 -68q147 0 238.5 92t91.5 236v248q-55 -96 -157.5 -155.5t-223.5 -59.5q-156 0 -260 99t-104 249v661l178 45v-702q0 -102 68.5 -171t172.5 -69q98 0 189.5 62.5
t136.5 160.5v674z" />
    <glyph glyph-name="ygrave.ss02" horiz-adv-x="1333" 
d="M741 1202h-94l-280 246h245zM944 989l178 45v-1087q0 -180 -133 -299t-340 -119q-168 0 -292 71.5t-124 174.5q0 45 30 73.5t77 28.5q43 0 71.5 -28.5t28.5 -73.5q0 -61 -47 -88q84 -68 221 -68q147 0 238.5 92t91.5 236v248q-55 -96 -157.5 -155.5t-223.5 -59.5
q-156 0 -260 99t-104 249v661l178 45v-702q0 -102 68.5 -171t172.5 -69q98 0 189.5 62.5t136.5 160.5v674z" />
    <glyph glyph-name="uni0233.ss02" horiz-adv-x="1333" 
d="M909 1382v-122h-491v122h491zM944 989l178 45v-1087q0 -180 -133 -299t-340 -119q-168 0 -292 71.5t-124 174.5q0 45 30 73.5t77 28.5q43 0 71.5 -28.5t28.5 -73.5q0 -61 -47 -88q84 -68 221 -68q147 0 238.5 92t91.5 236v248q-55 -96 -157.5 -155.5t-223.5 -59.5
q-156 0 -260 99t-104 249v661l178 45v-702q0 -102 68.5 -171t172.5 -69q98 0 189.5 62.5t136.5 160.5v674z" />
    <glyph glyph-name="uni1EF9.ss02" horiz-adv-x="1333" 
d="M535 1337q-37 0 -64 -31.5t-29 -84.5h-86q0 100 52.5 165.5t132.5 65.5q66 0 139.5 -64.5t112 -64.5t63.5 31.5t29 87.5h86q0 -100 -52.5 -166t-134.5 -66q-55 0 -99 32t-79.5 63.5t-70.5 31.5zM944 989l178 45v-1087q0 -180 -133 -299t-340 -119q-168 0 -292 71.5
t-124 174.5q0 45 30 73.5t77 28.5q43 0 71.5 -28.5t28.5 -73.5q0 -61 -47 -88q84 -68 221 -68q147 0 238.5 92t91.5 236v248q-55 -96 -157.5 -155.5t-223.5 -59.5q-156 0 -260 99t-104 249v661l178 45v-702q0 -102 68.5 -171t172.5 -69q98 0 189.5 62.5t136.5 160.5v674z
" />
    <glyph glyph-name="f.ss03" horiz-adv-x="784" 
d="M590 1495q113 0 187.5 -50t74.5 -126q0 -45 -27.5 -72.5t-70.5 -27.5q-45 0 -75 27.5t-30 72.5q0 47 37 78q-25 8 -59 8q-88 0 -143.5 -57.5t-55.5 -145.5v-178h240v-90h-240v-1139h-178v1139h-131v90h131v160q0 133 98.5 222t241.5 89z" />
    <glyph glyph-name="ae.ss05" horiz-adv-x="2050" 
d="M1495 74q104 0 192.5 39t129.5 102l61 -55q-47 -82 -161.5 -131t-258.5 -49q-150 0 -270.5 60t-196.5 165q-68 -98 -196.5 -161.5t-272.5 -63.5q-156 0 -267.5 83.5t-111.5 204.5q0 129 122 213t313 84q213 0 317 -67v186q0 119 -86 195.5t-223 76.5t-211 -69
q47 -27 47 -88q0 -45 -28.5 -74t-71.5 -29q-47 0 -78 29t-31 74q0 104 116.5 174.5t284.5 70.5q135 0 241 -53t161 -141q158 195 407 194q213 0 349.5 -149.5t136.5 -376.5h-828q2 -207 114 -325.5t300 -118.5zM1417 954q-131 0 -221 -94t-111 -252h644q-12 160 -95.5 253
t-216.5 93zM594 92q109 0 204 50.5t148 136.5q-27 61 -43 133q-84 70 -270 69q-143 0 -223 -53t-80 -141t73.5 -141.5t190.5 -53.5z" />
    <glyph glyph-name="aeacute.ss05" horiz-adv-x="2050" 
d="M1327 1448l-280 -246h-95l129 246h246zM1495 74q104 0 192.5 39t129.5 102l61 -55q-47 -82 -161.5 -131t-258.5 -49q-150 0 -270.5 60t-196.5 165q-68 -98 -196.5 -161.5t-272.5 -63.5q-156 0 -267.5 83.5t-111.5 204.5q0 129 122 213t313 84q213 0 317 -67v186
q0 119 -86 195.5t-223 76.5t-211 -69q47 -27 47 -88q0 -45 -28.5 -74t-71.5 -29q-47 0 -78 29t-31 74q0 104 116.5 174.5t284.5 70.5q135 0 241 -53t161 -141q158 195 407 194q213 0 349.5 -149.5t136.5 -376.5h-828q2 -207 114 -325.5t300 -118.5zM1417 954
q-131 0 -221 -94t-111 -252h644q-12 160 -95.5 253t-216.5 93zM594 92q109 0 204 50.5t148 136.5q-27 61 -43 133q-84 70 -270 69q-143 0 -223 -53t-80 -141t73.5 -141.5t190.5 -53.5z" />
    <glyph glyph-name="e.ss05" 
d="M741 74q104 0 192.5 39t129.5 102l61 -55q-47 -82 -161.5 -131t-255.5 -49q-246 0 -406 152.5t-160 379.5t154 379.5t375 152.5q213 0 349 -149.5t136 -376.5h-827q2 -207 113.5 -325.5t299.5 -118.5zM666 954q-133 0 -223.5 -94t-110.5 -252h643q-12 160 -95 253
t-214 93z" />
    </font>
</defs>
</svg>
