<?xml version="1.0" standalone="no"?>
<!DOCTYPE svg PUBLIC "-//W3C//DTD SVG 1.1//EN" "http://www.w3.org/Graphics/SVG/1.1/DTD/svg11.dtd" >
<svg xmlns="http://www.w3.org/2000/svg" xmlns:xlink="http://www.w3.org/1999/xlink" version="1.1">
<metadata>
Created by FontForge 20201107 at Fri May 11 10:06:16 2018
 By 
Copyright (c) 2018 by Adam Ladd. All rights reserved.
</metadata>
<defs>
<font id="QuicheFine-Thin" horiz-adv-x="1230" >
  <font-face 
    font-family="Quiche Fine Thin"
    font-weight="100"
    font-stretch="normal"
    units-per-em="2048"
    panose-1="0 0 2 0 0 0 0 0 0 0"
    ascent="1475"
    descent="-573"
    x-height="1024"
    cap-height="1434"
    bbox="-1456 -573 2738 1898"
    underline-thickness="0"
    underline-position="0"
    unicode-range="U+0020-FB02"
  />
<missing-glyph horiz-adv-x="1024" 
d="M840 1475v-2048h-650v2048h650zM682 1337h-338v-67h133v-76h-135v-68h340v68h-135v76h135v67zM547 1073h-205v-213h340v70h-135v143zM477 1004v-74h-67v74h67zM682 805h-340v-68h135v-75h-135v-68h205v143h135v68zM682 682h-68v-135h-272v-70h340v205zM682 432h-205v-115
h70v48h67v-97h-204v164h-68v-231h340v231zM682 78h-340v-232h340v232zM614 10v-96h-204v96h204zM682 -201h-340v-67h143l-143 -97v-67h340v67h-209l143 97h66v67z" />
    <glyph glyph-name="uniFB01" unicode="fi" horiz-adv-x="1144" 
d="M903 1335q0 -35 -22.5 -58.5t-55.5 -23.5q-37 0 -61.5 23.5t-24.5 58.5t24.5 58.5t59.5 23.5q-80 59 -202 60q-133 0 -209 -79t-76 -202v-172h262v-20h-262v-1004h-98v1004h-138v20h138v123q0 150 106.5 249t273.5 99q117 0 201 -46t84 -114zM842 995l98 39v-1034h-98
v995z" />
    <glyph glyph-name="uniFB02" unicode="fl" horiz-adv-x="1183" 
d="M883 1456l96 39v-1495h-98v1436q-80 43 -205 43q-160 0 -250 -80t-90 -205v-170h260v-20h-260v-1004h-98v1004h-138v20h138v121q0 152 120.5 251t315.5 99q125 0 209 -39z" />
    <glyph glyph-name="f_f.liga" unicode="ff" horiz-adv-x="1312" 
d="M1143 1495q94 0 156.5 -46t62.5 -114q0 -35 -22.5 -58.5t-55.5 -23.5q-37 0 -61.5 23.5t-24.5 58.5t24.5 58.5t61.5 23.5q10 0 16 -2q-57 61 -157 62q-88 0 -141.5 -61.5t-53.5 -153.5v-238h256v-20h-256v-1004h-98v1004h-514v-1004h-98v1004h-138v20h138v100
q0 150 113.5 250.5t283.5 100.5q188 0 262 -105q84 125 246 125zM850 1024v188q0 70 31 129q-27 51 -94.5 83t-149.5 32q-135 0 -218 -81t-83 -201v-150h514z" />
    <glyph glyph-name="f_f_i.liga" unicode="ffi" horiz-adv-x="1757" 
d="M1516 1335q0 -35 -23 -58.5t-55 -23.5q-37 0 -61.5 23.5t-24.5 58.5t24.5 58.5t61.5 23.5q-80 59 -205 60q-133 0 -209 -79t-76 -202v-172h262v-20h-262v-1004h-98v1004h-514v-1004h-98v1004h-138v20h138v100q0 150 113.5 250.5t283.5 100.5q100 0 175 -35t101 -94
q109 150 320 149q117 0 201 -46t84 -114zM850 1024v123q0 90 41 166q-12 63 -85 104t-169 41q-135 0 -218 -81t-83 -203v-150h514zM1454 995l98 39v-1034h-98v995z" />
    <glyph glyph-name="f_f_l.liga" unicode="ffl" horiz-adv-x="1800" 
d="M1499 1456l96 39v-1495h-98v1436q-82 41 -207 41q-162 0 -252 -81t-90 -206v-166h260v-20h-260v-1004h-98v1004h-514v-1004h-98v1004h-138v20h138v100q0 150 113.5 250.5t283.5 100.5q104 0 181 -38t99 -100q121 158 373 158q127 0 211 -39zM850 1024v121q0 88 43 160
q-8 68 -83 110.5t-173 42.5q-135 0 -218 -81t-83 -203v-150h514z" />
    <glyph glyph-name=".notdef" horiz-adv-x="1024" 
d="M840 1475v-2048h-650v2048h650zM682 1337h-338v-67h133v-76h-135v-68h340v68h-135v76h135v67zM547 1073h-205v-213h340v70h-135v143zM477 1004v-74h-67v74h67zM682 805h-340v-68h135v-75h-135v-68h205v143h135v68zM682 682h-68v-135h-272v-70h340v205zM682 432h-205v-115
h70v48h67v-97h-204v164h-68v-231h340v231zM682 78h-340v-232h340v232zM614 10v-96h-204v96h204zM682 -201h-340v-67h143l-143 -97v-67h340v67h-209l143 97h66v67z" />
    <glyph glyph-name="glyph1" horiz-adv-x="0" 
 />
    <glyph glyph-name="glyph2" horiz-adv-x="681" 
 />
    <glyph glyph-name="space" unicode=" " horiz-adv-x="569" 
 />
    <glyph glyph-name="exclam" unicode="!" horiz-adv-x="530" 
d="M258 416q-2 215 -18.5 435t-31.5 356t-15 153q0 37 20 60.5t53 23.5t53.5 -23.5t20.5 -60.5q0 -16 -15.5 -152.5t-32 -356.5t-18.5 -435h-16zM266 -10q-39 0 -64.5 24.5t-25.5 63.5q0 37 25.5 62.5t64.5 25.5q37 0 61.5 -25.5t24.5 -62.5q0 -39 -24.5 -63.5t-61.5 -24.5z
" />
    <glyph glyph-name="quotedbl" unicode="&#x22;" horiz-adv-x="677" 
d="M184 1071q-6 106 -34.5 195.5t-28.5 107.5q0 35 20.5 57.5t51 22.5t51 -22.5t20.5 -57.5q0 -18 -28.5 -107t-34.5 -196h-17zM477 1071q-6 106 -34.5 195.5t-28.5 107.5q0 35 20.5 57.5t51 22.5t51 -22.5t20.5 -57.5q0 -18 -28.5 -107t-34.5 -196h-17z" />
    <glyph glyph-name="numbersign" unicode="#" horiz-adv-x="1560" 
d="M1464 963h-329l-111 -492h330v-20h-334l-102 -451h-70l102 451h-461l-102 -451h-70l103 451h-326v20h330l111 492h-330v20h334l102 451h70l-103 -451h461l102 451h70l-102 -451h325v-20zM954 471l111 492h-461l-110 -492h460z" />
    <glyph glyph-name="dollar" unicode="$" horiz-adv-x="1196" 
d="M1075 352q0 -168 -127 -268t-325 -104v-164h-29v164q-197 4 -331 97t-134 228q0 35 24.5 57.5t59.5 22.5t56.5 -22.5t21.5 -57.5t-21.5 -57.5t-56.5 -22.5q-12 0 -29 4q33 -100 145.5 -164.5t264.5 -66.5v674q-78 33 -121 52t-110.5 60t-103.5 80t-63.5 98.5t-27.5 127.5
q0 154 121 257t305 107v164h29v-164q170 -4 283.5 -91t113.5 -212q0 -35 -21.5 -57.5t-54.5 -22.5q-37 0 -60.5 22.5t-23.5 57.5t23.5 57.5t60.5 22.5q8 0 25 -4q-29 92 -123 149.5t-223 59.5v-660q6 -4 18 -8q88 -35 135 -56.5t113.5 -60.5t100.5 -76.5t59.5 -95
t25.5 -127.5zM244 1124q0 -115 92 -190.5t258 -145.5v648q-150 -4 -250 -94.5t-100 -217.5zM623 -2q166 4 272 92t106 221q0 63 -29.5 116.5t-90 96.5t-115.5 72t-143 66v-664z" />
    <glyph glyph-name="percent" unicode="%" horiz-adv-x="1482" 
d="M385 799q-123 0 -205 94t-82 233.5t82 233.5t205 94t205 -94t82 -233.5t-82 -233.5t-205 -94zM385 817q86 0 138 84t52 225.5t-52 225.5t-138 84q-88 0 -139 -84t-51 -225.5t51 -225.5t139 -84zM262 0l922 1434h35l-922 -1434h-35zM1098 -20q-123 0 -205 94t-82 233
t82 233.5t205 94.5t204.5 -94.5t81.5 -233.5t-81.5 -233t-204.5 -94zM1098 -2q86 0 138 84t52 225.5t-52 225t-138 83.5q-88 0 -139.5 -83.5t-51.5 -225t51.5 -225.5t139.5 -84z" />
    <glyph glyph-name="ampersand" unicode="&#x26;" horiz-adv-x="1386" 
d="M1403 63l16 -18q-55 -66 -188 -65.5t-283 163.5q-160 -164 -375 -163q-184 0 -312 115.5t-128 281.5q0 133 92 253t242 187q-115 188 -115 316q0 137 88 229t215 92q115 0 193 -71.5t78 -174.5q0 -205 -357 -370q37 -59 172 -256q172 -246 254 -342q121 172 138 415h24
q-18 -258 -145 -436q176 -201 286 -201q68 0 105 45zM662 1436q-96 0 -158 -72t-62 -188q0 -131 115 -316q152 74 228.5 156t76.5 190q0 100 -55 165t-145 65zM584 8q199 0 346 154q-96 106 -301 407q-139 209 -150 226q-109 -59 -173 -168t-64 -240q0 -170 93 -274.5
t249 -104.5z" />
    <glyph glyph-name="quotesingle" unicode="'" horiz-adv-x="385" 
d="M184 1071q-6 106 -34.5 195.5t-28.5 107.5q0 35 20.5 57.5t51 22.5t51 -22.5t20.5 -57.5q0 -18 -28.5 -107t-34.5 -196h-17z" />
    <glyph glyph-name="parenleft" unicode="(" horiz-adv-x="700" 
d="M596 -266q-170 117 -283.5 369.5t-113.5 510.5t113.5 511t283.5 370l12 -18q-305 -242 -305 -862.5t305 -862.5z" />
    <glyph glyph-name="parenright" unicode=")" horiz-adv-x="700" 
d="M104 -266l-12 18q305 244 305 862.5t-305 862.5l12 18q170 -117 284 -370t114 -511t-114 -510.5t-284 -369.5z" />
    <glyph glyph-name="asterisk" unicode="*" horiz-adv-x="720" 
d="M578 1141q35 -20 16 -54q-18 -31 -53 -10q-6 4 -61.5 49t-108.5 78q2 -57 13 -126.5t11 -78.5q0 -45 -37 -45q-39 0 -39 43q0 10 13.5 80t15.5 125q-33 -20 -69.5 -48t-67.5 -52l-31 -25q-33 -20 -53 10q-23 33 14 54q12 8 80 33.5t115 48.5q-51 27 -117.5 52t-77.5 34
q-14 8 -19 23.5t3 27.5q16 33 55 12q8 -4 65.5 -52t102.5 -77q-2 57 -15.5 128t-13.5 81q0 43 39 43q37 0 37 -45q0 -8 -11 -79t-13 -128q37 23 72.5 50.5t63.5 51t34 27.5q31 20 55 -12q16 -33 -18 -51q-10 -6 -80 -34t-115 -52q47 -25 117 -50.5t78 -31.5z" />
    <glyph glyph-name="plus" unicode="+" horiz-adv-x="1189" 
d="M1004 625v-21h-398v-399h-24v399h-398v21h398v399h24v-399h398z" />
    <glyph glyph-name="comma" unicode="," horiz-adv-x="415" 
d="M211 166q37 0 65.5 -27.5t28.5 -81.5q0 -76 -38 -155.5t-95 -124.5l-14 12q45 41 77.5 104.5t36.5 116.5q-25 -20 -59 -20q-39 0 -65.5 24.5t-26.5 63.5q0 37 26.5 62.5t63.5 25.5z" />
    <glyph glyph-name="hyphen" unicode="-" horiz-adv-x="942" 
d="M184 539v28h572v-28h-572z" />
    <glyph glyph-name="period" unicode="." horiz-adv-x="419" 
d="M211 -10q-39 0 -64.5 24.5t-25.5 63.5q0 37 25.5 62.5t64.5 25.5q37 0 61.5 -25.5t24.5 -62.5q0 -39 -24.5 -63.5t-61.5 -24.5z" />
    <glyph glyph-name="slash" unicode="/" horiz-adv-x="931" 
d="M90 -266l678 1761h33l-678 -1761h-33z" />
    <glyph glyph-name="zero" unicode="0" horiz-adv-x="1482" 
d="M741 -20q-254 0 -422.5 210.5t-168.5 526t168.5 526.5t422.5 211t423 -211t169 -526.5t-169 -526t-423 -210.5zM741.5 0q219.5 0 352.5 196.5t133 520t-133 520.5t-352.5 197t-352.5 -197t-133 -520.5t133 -520t352.5 -196.5z" />
    <glyph glyph-name="one" unicode="1" horiz-adv-x="808" 
d="M510 1434h43v-1434h-98v1341q-109 -121 -322 -180l-8 21q102 27 213 98.5t172 153.5z" />
    <glyph glyph-name="two" unicode="2" horiz-adv-x="1214" 
d="M229 84h813v-84h-876v55l420 414q174 174 260 308t86 294q0 168 -88 268.5t-242 100.5q-147 0 -255.5 -73t-137.5 -185q20 4 31 4q33 0 54 -22.5t21 -55.5t-21.5 -55.5t-53.5 -22.5q-35 0 -57.5 21.5t-22.5 56.5q0 147 126 246.5t308 99.5q190 0 317 -108.5t127 -270.5
q0 -78 -30.5 -153.5t-103.5 -163.5t-127 -144.5t-163 -160.5z" />
    <glyph glyph-name="three" unicode="3" horiz-adv-x="1249" 
d="M729 743q168 -35 273.5 -139t105.5 -239q0 -162 -139.5 -273.5t-347.5 -111.5q-186 0 -316.5 88t-130.5 217q0 35 22.5 56t57.5 21q33 0 54.5 -22.5t21.5 -55t-21.5 -55t-54.5 -22.5q-8 0 -29 4q33 -98 140.5 -156.5t255.5 -58.5q180 0 279 99.5t99 267t-103 269
t-278 101.5h-141v21h141q156 0 249.5 94t93.5 249.5t-88.5 248t-251.5 92.5q-141 0 -244 -58.5t-131 -156.5q16 4 28 4q33 0 54.5 -22.5t21.5 -55.5t-21.5 -55.5t-54.5 -22.5q-35 0 -57 21.5t-22 56.5q0 129 123.5 217t304.5 88q193 0 317.5 -101.5t124.5 -252.5
q0 -121 -96.5 -222.5t-239.5 -134.5z" />
    <glyph glyph-name="four" unicode="4" horiz-adv-x="1243" 
d="M1159 428v-20h-246v-408h-98v408h-725v30l731 996h92v-1006h246zM115 428h700v958z" />
    <glyph glyph-name="five" unicode="5" horiz-adv-x="1249" 
d="M629 948q211 0 355 -138t144 -349q0 -207 -144 -344t-368 -137q-186 0 -314 93t-128 232q0 33 23.5 55.5t58.5 22.5q33 0 54.5 -22.5t21.5 -55.5t-21.5 -55.5t-54.5 -22.5q-18 0 -31 6q29 -109 136.5 -173t254.5 -64q190 0 298 125t108 338t-106.5 343t-282.5 130
q-102 0 -202.5 -39t-164.5 -105l-26 15l79 631h697l-10 -84h-672l-70 -531q51 55 155 92t210 37z" />
    <glyph glyph-name="six" unicode="6" horiz-adv-x="1304" 
d="M678 926q211 0 356.5 -135.5t145.5 -335.5q0 -203 -144.5 -339t-355.5 -136q-233 0 -381.5 175t-148.5 476q0 330 172 576.5t432 246.5q133 0 226 -63.5t93 -157.5q0 -33 -23.5 -55.5t-58.5 -22.5q-33 0 -54.5 22.5t-21.5 55.5t21.5 55.5t54.5 22.5q12 0 19 -2
q-29 59 -98.5 93t-161.5 34q-213 0 -347.5 -203t-144.5 -539q45 104 161 168t259 64zM678 0q182 0 288.5 126t106.5 333q0 205 -106.5 327.5t-288.5 122.5q-193 0 -305.5 -125t-112.5 -327q0 -209 114 -333t304 -124z" />
    <glyph glyph-name="seven" unicode="7" horiz-adv-x="1150" 
d="M129 1434h932v-48q-209 -291 -356.5 -670.5t-182.5 -715.5h-123q16 236 182.5 603.5t424.5 746.5h-877v84z" />
    <glyph glyph-name="eight" unicode="8" horiz-adv-x="1269" 
d="M776 723q166 -70 255 -150.5t89 -212.5q0 -168 -138 -274t-343 -106t-347 105t-142 265q0 121 83.5 231.5t215.5 170.5q-262 131 -263 333q0 158 128 263.5t317 105.5q186 0 311 -104.5t125 -253.5q0 -119 -79 -219.5t-212 -153.5zM260 1120q0 -66 29.5 -119t95.5 -96
t125 -70.5t162 -68.5q14 -6 41.5 -17.5t42.5 -15.5q111 49 178 148.5t67 212.5q0 145 -107.5 243.5t-270.5 98.5q-154 0 -258.5 -90.5t-104.5 -225.5zM647 0q172 0 286 89t114 224q0 53 -26 101.5t-59.5 81t-99 68.5t-109.5 55.5t-126 54.5q-100 41 -158 67
q-113 -55 -183.5 -164.5t-70.5 -222.5q0 -154 124 -254t308 -100z" />
    <glyph glyph-name="nine" unicode="9" horiz-adv-x="1304" 
d="M623 1454q233 0 382.5 -175t149.5 -476q0 -213 -75.5 -400.5t-217 -305t-315.5 -117.5q-131 0 -223.5 63t-92.5 158q0 33 24 55.5t58 22.5q33 0 54.5 -23t21.5 -55.5t-21.5 -55t-54.5 -22.5q-12 0 -18 2q59 -127 252 -127q217 0 352 204t148 537q-47 -104 -163 -167.5
t-259 -63.5q-211 0 -355.5 134t-144.5 337t144.5 339t353.5 136zM637 524q188 0 297.5 125t109.5 328q0 209 -110.5 333t-296.5 124t-296 -126t-110 -333q0 -205 110 -328t296 -123z" />
    <glyph glyph-name="colon" unicode=":" horiz-adv-x="462" 
d="M231 745q-37 0 -62.5 25t-25.5 64q0 37 26 62.5t62 25.5q39 0 63.5 -26t24.5 -62q0 -39 -24.5 -64t-63.5 -25zM231 -10q-37 0 -62.5 24.5t-25.5 63.5q0 37 26 62.5t62 25.5q39 0 63.5 -25.5t24.5 -62.5q0 -39 -24.5 -63.5t-63.5 -24.5z" />
    <glyph glyph-name="semicolon" unicode=";" horiz-adv-x="456" 
d="M231 745q-37 0 -62.5 25t-25.5 64q0 37 26 62.5t62 25.5q39 0 63.5 -26t24.5 -62q0 -39 -24.5 -64t-63.5 -25zM233 166q37 0 65 -27.5t28 -81.5q0 -76 -38 -155.5t-93 -124.5l-17 12q45 41 77 102.5t36 114.5q-20 -16 -55 -16q-41 0 -67 24.5t-26 63.5q0 37 25.5 62.5
t64.5 25.5z" />
    <glyph glyph-name="less" unicode="&#x3c;" horiz-adv-x="1064" 
d="M879 1024v-31l-664 -379l664 -378v-31l-695 397v25z" />
    <glyph glyph-name="equal" unicode="=" horiz-adv-x="1189" 
d="M184 768v20h820v-20h-820zM184 440v21h820v-21h-820z" />
    <glyph glyph-name="greater" unicode="&#x3e;" horiz-adv-x="1064" 
d="M184 1024l695 -397v-25l-695 -397v31l664 378l-664 379v31z" />
    <glyph glyph-name="question" unicode="?" horiz-adv-x="985" 
d="M182 1243q33 0 54.5 -22.5t21.5 -55t-21.5 -55.5t-54.5 -23q-35 0 -58.5 23t-23.5 55q0 123 111 206t272 83q166 0 278.5 -89t112.5 -220q0 -86 -58 -176t-129 -154.5t-129 -145.5t-58 -153v-100h-29v104q0 68 47 144.5t102.5 137t102.5 153t47 186.5q0 127 -84 212
t-207 85q-119 0 -208 -55.5t-117 -143.5q16 4 28 4zM487 166q37 0 61.5 -25.5t24.5 -62.5q0 -39 -24.5 -63.5t-61.5 -24.5q-39 0 -64.5 24.5t-25.5 63.5q0 37 25.5 62.5t64.5 25.5z" />
    <glyph glyph-name="at" unicode="@" horiz-adv-x="1892" 
d="M1343 891l-94 -617q-10 -66 19.5 -104.5t95.5 -38.5q121 0 194.5 133t73.5 342q0 319 -179 506.5t-476 187.5q-322 0 -517.5 -217t-195.5 -571q0 -362 206 -577.5t546 -215.5q143 0 265 36t179 95l17 -18q-59 -57 -192.5 -95t-278.5 -38q-360 0 -602 233.5t-242 583.5
q0 344 233.5 574.5t583.5 230.5q322 0 536 -194.5t214 -499.5q0 -213 -105.5 -363.5t-267.5 -150.5q-82 0 -137.5 35.5t-61.5 93.5q-106 -129 -264 -129q-145 0 -246.5 109.5t-101.5 269.5q0 176 120.5 296.5t290.5 120.5q199 0 273 -161l16 108zM911 135q162 0 250 160
l60 397q-27 94 -93.5 146.5t-158.5 52.5q-141 0 -232.5 -112.5t-91.5 -297.5q0 -160 72.5 -253t193.5 -93z" />
    <glyph glyph-name="A" unicode="A" horiz-adv-x="1474" 
d="M1294 0l-200 459h-787l-201 -459h-28l629 1434h63l627 -1434h-103zM315 479h770l-385 879z" />
    <glyph glyph-name="B" unicode="B" horiz-adv-x="1404" 
d="M920 743q168 -23 276.5 -126t108.5 -244q0 -160 -122 -266.5t-304 -106.5h-654v1434h592q182 0 304 -101.5t122 -251.5q0 -123 -90 -214t-233 -124zM813 1413h-489v-665h458q160 0 257.5 91t97.5 238q0 152 -89.5 244t-234.5 92zM874 20q145 0 234.5 95.5t89.5 251.5
q0 158 -95 259t-259 101h-520v-707h550z" />
    <glyph glyph-name="C" unicode="C" horiz-adv-x="1558" 
d="M1413 274l25 -12q-68 -125 -222.5 -203.5t-349.5 -78.5q-319 0 -533 210.5t-214 526.5q0 313 213 525t536 212q231 0 391 -106.5t160 -253.5q0 -33 -21.5 -55.5t-54.5 -22.5q-35 0 -58 22.5t-23 55t23.5 55t57.5 22.5q14 0 21 -2q-37 119 -170 193t-324 74
q-293 0 -469 -198t-176 -519q0 -324 178.5 -522.5t462.5 -198.5q182 0 326.5 73.5t220.5 202.5z" />
    <glyph glyph-name="D" unicode="D" horiz-adv-x="1601" 
d="M729 1434q322 0 538 -206t216 -511t-216 -511t-538 -206h-504v1434h504zM713 20q299 0 481 190.5t182 506t-182 506t-481 190.5h-389v-1393h389z" />
    <glyph glyph-name="E" unicode="E" horiz-adv-x="1304" 
d="M324 20h882v-20h-981v1434h961v-21h-862v-676h698v-20h-698v-697z" />
    <glyph glyph-name="F" unicode="F" horiz-adv-x="1236" 
d="M1165 1413h-841v-696h677v-21h-677v-696h-99v1434h940v-21z" />
    <glyph glyph-name="G" unicode="G" horiz-adv-x="1646" 
d="M1348 606h100v-606h-21l-81 143q-68 -76 -194 -119.5t-275 -43.5q-326 0 -542 210.5t-216 526t216 526.5t546 211q225 0 380.5 -97t155.5 -241q0 -33 -21.5 -55.5t-54.5 -22.5q-35 0 -58 22.5t-23 55.5t23.5 55.5t57.5 22.5q12 0 19 -2q-35 111 -163 177.5t-312 66.5
q-301 0 -480.5 -198t-179.5 -517q0 -324 184.5 -521.5t487.5 -197.5q162 0 281.5 56.5t169.5 150.5v397z" />
    <glyph glyph-name="H" unicode="H" horiz-adv-x="1601" 
d="M1278 1434h98v-1434h-98v717h-954v-717h-99v1434h99v-697h954v697z" />
    <glyph glyph-name="I" unicode="I" horiz-adv-x="548" 
d="M225 0v1434h99v-1434h-99z" />
    <glyph glyph-name="J" unicode="J" 
d="M922 1434h98v-979q0 -225 -130 -350t-335 -125q-195 0 -324 97t-129 242q0 33 24 55.5t58 22.5q33 0 54.5 -22.5t21.5 -55t-21.5 -55t-54.5 -22.5q-20 0 -34 6q29 -115 139 -182.5t264 -67.5q174 0 271.5 115.5t97.5 310.5v1010z" />
    <glyph glyph-name="K" unicode="K" horiz-adv-x="1370" 
d="M1219 0l-633 797l-262 -236v-561h-99v1434h99v-834l925 834h43l-641 -576l684 -858h-116z" />
    <glyph glyph-name="L" unicode="L" horiz-adv-x="1243" 
d="M324 20h831v-20h-930v1434h99v-1414z" />
    <glyph glyph-name="M" unicode="M" horiz-adv-x="1843" 
d="M1520 1434h98v-1434h-98v1378l-627 -987h-12l-627 987v-1378h-29v1434h109l594 -945z" />
    <glyph glyph-name="N" unicode="N" horiz-adv-x="1611" 
d="M1358 1434h28v-1434h-69l-1063 1409v-1409h-29v1434h137l996 -1319v1319z" />
    <glyph glyph-name="O" unicode="O" horiz-adv-x="1708" 
d="M854 -20q-315 0 -525 210.5t-210 526t210 526.5t525 211t525 -211t210 -526.5t-210 -526t-525 -210.5zM854 0q285 0 457 196.5t172 520t-172 520.5t-457 197t-457 -197t-172 -520.5t172 -520t457 -196.5z" />
    <glyph glyph-name="P" unicode="P" horiz-adv-x="1388" 
d="M801 1434q217 0 362.5 -127t145.5 -319.5t-145.5 -319.5t-362.5 -127h-477v-541h-99v1434h576zM791 561q186 0 298.5 117t112.5 309.5t-112.5 309t-298.5 116.5h-467v-852h467z" />
    <glyph glyph-name="Q" unicode="Q" horiz-adv-x="1720" 
d="M1614 -55q35 0 57.5 -23.5t22.5 -58.5q0 -131 -80 -212t-211 -81q-72 0 -150.5 37t-127 73.5t-136.5 110.5q-80 70 -128 105.5t-119.5 69.5t-135.5 34q-164 0 -217 -104q16 6 35 6q35 0 57.5 -23.5t22.5 -58.5t-22.5 -58.5t-57.5 -23.5q-39 0 -62.5 23.5t-23.5 58.5
q0 88 72.5 142t191.5 58q-217 74 -350 263.5t-133 433.5q0 315 210 526t525 211t525 -211t210 -526.5t-210 -526t-525 -210.5q-43 0 -66 2q76 -31 244 -144q86 -59 134 -89t123 -58.5t141 -28.5q94 0 158.5 38t80.5 103q-23 -23 -55 -22q-37 0 -61.5 23.5t-24.5 58.5
t24.5 58.5t61.5 23.5zM225 716.5q0 -323.5 172 -520t457 -196.5t457 196.5t172 520t-172 520.5t-457 197t-457 -197t-172 -520.5z" />
    <glyph glyph-name="R" unicode="R" horiz-adv-x="1400" 
d="M1229 156q68 -102 143 -156h-127q-72 55 -115 119l-247 387q-35 53 -66 78.5t-82 40.5h-411v-625h-99v1434h535q217 0 362.5 -116t145.5 -290q0 -160 -129 -272.5t-326 -128.5q133 -31 184 -107zM324 1413v-768h424q188 0 300.5 103.5t112.5 275.5q0 176 -112.5 282.5
t-300.5 106.5h-424z" />
    <glyph glyph-name="S" unicode="S" horiz-adv-x="1263" 
d="M678 766q94 -35 144 -56.5t122 -60.5t107.5 -76.5t63.5 -95t28 -125.5q0 -170 -140.5 -271t-359.5 -101q-215 0 -362.5 94t-147.5 231q0 35 23.5 58.5t60.5 23.5q35 0 57.5 -23.5t22.5 -58.5t-22.5 -58.5t-57.5 -23.5q-12 0 -29 4q37 -102 162 -165.5t291 -63.5
q186 0 307 88t121 221q0 55 -25.5 103.5t-60.5 82t-101.5 69.5t-115.5 57.5t-137 56.5q-102 39 -161.5 66.5t-138.5 78.5t-118 119t-39 152q0 156 134 259t337 103q188 0 316 -87t128 -216q0 -35 -22.5 -58.5t-56.5 -23.5q-37 0 -60.5 23.5t-23.5 58.5t23.5 58.5t60.5 23.5
q10 0 26 -4q-35 92 -140.5 149.5t-250.5 57.5q-168 0 -281.5 -89.5t-113.5 -216.5q0 -55 26.5 -103t62.5 -83t100.5 -70.5t113.5 -56t127 -51.5z" />
    <glyph glyph-name="T" unicode="T" horiz-adv-x="1265" 
d="M1196 1434v-21h-512v-1413h-98v1413h-514v21h1124z" />
    <glyph glyph-name="U" unicode="U" horiz-adv-x="1593" 
d="M817 -20q-270 0 -438 161.5t-168 425.5v867h98v-899q0 -238 143.5 -383.5t374.5 -145.5q240 0 383.5 144.5t143.5 384.5v899h28v-897q0 -254 -152.5 -405.5t-412.5 -151.5z" />
    <glyph glyph-name="V" unicode="V" horiz-adv-x="1474" 
d="M1368 1434h29l-629 -1434h-63l-627 1434h102l594 -1358z" />
    <glyph glyph-name="W" unicode="W" horiz-adv-x="2293" 
d="M2187 1434h29l-629 -1434h-63l-379 864l-377 -864h-63l-627 1434h102l592 -1358l361 821l-236 537h102l594 -1358z" />
    <glyph glyph-name="X" unicode="X" horiz-adv-x="1392" 
d="M1270 0h-115l-489 680l-473 -680h-35l491 702l-526 732h115l481 -670l471 670h35l-488 -693z" />
    <glyph glyph-name="Y" unicode="Y" horiz-adv-x="1400" 
d="M1292 1434h31l-573 -820v-614h-99v614l-573 820h115l550 -785z" />
    <glyph glyph-name="Z" unicode="Z" horiz-adv-x="1310" 
d="M1190 1434v-33l-969 -1381h967v-20h-1067v33l966 1380h-937v21h1040z" />
    <glyph glyph-name="bracketleft" unicode="[" horiz-adv-x="632" 
d="M541 1454h-248v-1679h248v-21h-326v1721h326v-21z" />
    <glyph glyph-name="backslash" unicode="\" horiz-adv-x="931" 
d="M809 -266l-678 1761h33l678 -1761h-33z" />
    <glyph glyph-name="bracketright" unicode="]" horiz-adv-x="632" 
d="M418 1475v-1721h-326v21h248v1679h-248v21h326z" />
    <glyph glyph-name="asciicircum" unicode="^" horiz-adv-x="1060" 
d="M940 819h-33l-377 580l-376 -580h-33l397 615h25z" />
    <glyph glyph-name="underscore" unicode="_" horiz-adv-x="1017" 
d="M121 -193v29h776v-29h-776z" />
    <glyph glyph-name="grave" unicode="`" horiz-adv-x="333" 
d="M309 1219l-309 206h182l152 -206h-25z" />
    <glyph glyph-name="a" unicode="a" horiz-adv-x="1175" 
d="M578 1044q186 0 303.5 -99t117.5 -249v-696h-98v156q-68 -78 -179.5 -127t-225.5 -49q-152 0 -260.5 83.5t-108.5 204.5q0 129 123 213t317 84q217 0 334 -67v229q0 129 -92 213t-240 84q-106 0 -194 -41t-125 -106q8 2 24 2q35 0 56.5 -22.5t21.5 -57.5t-21.5 -57.5
t-56 -22.5t-59.5 22.5t-25 57.5q0 104 114 174.5t274 70.5zM522 14q113 0 215.5 48.5t163.5 127.5v281q-102 74 -315 74q-168 0 -260.5 -71t-92.5 -195q0 -117 80 -191t209 -74z" />
    <glyph glyph-name="b" unicode="b" horiz-adv-x="1298" 
d="M672 1044q209 0 358.5 -153.5t149.5 -378.5t-148.5 -378.5t-359.5 -153.5q-227 0 -369 165v-145h-98v1456l98 39v-639q61 90 158.5 139t210.5 49zM668 -2q180 0 292.5 141.5t112.5 372.5q0 229 -112.5 371.5t-290.5 142.5q-225 0 -367 -209v-624q59 -92 155.5 -143.5
t209.5 -51.5z" />
    <glyph glyph-name="c" unicode="c" horiz-adv-x="1150" 
d="M1008 174l24 -12q-39 -80 -141.5 -131t-235.5 -51q-233 0 -384.5 153.5t-151.5 378.5q0 227 152.5 379.5t381.5 152.5q156 0 261.5 -69.5t105.5 -175.5q0 -33 -22.5 -55.5t-55.5 -22.5q-37 0 -60.5 21.5t-23.5 56.5t23.5 57.5t60.5 22.5q14 0 21 -2q-33 70 -117 110.5
t-197 40.5q-195 0 -309.5 -141.5t-114.5 -374.5q0 -231 117 -373.5t305 -142.5q119 0 219.5 49t141.5 129z" />
    <glyph glyph-name="d" unicode="d" horiz-adv-x="1298" 
d="M995 1456l99 39v-1495h-99v145q-139 -166 -368 -165q-211 0 -359.5 153.5t-148.5 378.5t150.5 378.5t359.5 153.5q113 0 209 -49t157 -139v600zM633 -2q111 0 206 51t156 141v627q-137 209 -364 209q-178 0 -292 -142.5t-114 -371.5q0 -231 113 -372.5t295 -141.5z" />
    <glyph glyph-name="e" unicode="e" 
d="M1008 324q33 0 55 -24t22 -56q0 -111 -122.5 -187.5t-292.5 -76.5q-240 0 -395.5 152.5t-155.5 379.5t151.5 379.5t368.5 152.5q207 0 339 -139t132 -348h-885v-39q0 -233 120 -376.5t323 -143.5q125 0 223 46t135 122q-6 -2 -20 -2q-35 0 -58.5 21.5t-23.5 58.5
q0 35 23.5 57.5t60.5 22.5zM635 1024q-170 0 -280.5 -122t-127.5 -324h772q-4 201 -102 323.5t-262 122.5z" />
    <glyph glyph-name="f" unicode="f" horiz-adv-x="700" 
d="M530 1495q94 0 157 -46t63 -114q0 -35 -22.5 -58.5t-55.5 -23.5q-37 0 -61.5 23.5t-24.5 58.5t24.5 58.5t61.5 23.5q8 0 12 -2q-53 63 -152 64q-88 0 -142 -62.5t-54 -154.5v-238h256v-20h-256v-1004h-98v1004h-138v20h138v188q0 121 83.5 202t208.5 81z" />
    <glyph glyph-name="g" unicode="g" horiz-adv-x="1288" 
d="M995 995l99 39v-1116q0 -168 -130 -278.5t-335 -110.5q-174 0 -294 77t-120 191q0 35 23.5 57.5t60.5 22.5q35 0 56.5 -22.5t21.5 -57.5t-21.5 -57.5t-56.5 -22.5q-18 0 -27 2q35 -78 132.5 -125t220.5 -47q164 0 267 96.5t103 243.5v258q-139 -166 -368 -165
q-211 0 -359.5 153.5t-148.5 378.5t150.5 378.5t359.5 153.5q113 0 209 -49t157 -139v139zM633 -2q111 0 206 51t156 141v627q-137 209 -364 209q-178 0 -292 -142.5t-114 -371.5q0 -231 113 -372.5t295 -141.5z" />
    <glyph glyph-name="h" unicode="h" horiz-adv-x="1265" 
d="M711 1044q166 0 272.5 -100t106.5 -254v-690h-99v715q0 129 -83 215t-210 86q-121 0 -233.5 -69.5t-161.5 -178.5v-768h-98v1456l98 39v-680q53 100 165 164.5t243 64.5z" />
    <glyph glyph-name="i" unicode="i" horiz-adv-x="503" 
d="M254 1257q-35 0 -56.5 21.5t-21.5 54.5t21.5 54.5t56.5 21.5q33 0 53.5 -21.5t20.5 -54.5t-20.5 -54.5t-53.5 -21.5zM205 0v995l98 39v-1034h-98z" />
    <glyph glyph-name="j" unicode="j" horiz-adv-x="514" 
d="M266 1409q31 0 52.5 -21.5t21.5 -54.5t-21.5 -54.5t-52.5 -21.5q-35 0 -57.5 21.5t-22.5 54.5t22.5 54.5t57.5 21.5zM215 -242v1237l98 39v-1227q0 -121 -83 -199.5t-203 -78.5q-88 0 -147.5 46t-59.5 114q0 35 22.5 58.5t57.5 23.5q37 0 60.5 -23.5t23.5 -58.5
t-23.5 -58.5t-60.5 -23.5q-14 0 -21 2q55 -61 144 -62q86 0 139 60.5t53 150.5z" />
    <glyph glyph-name="k" unicode="k" horiz-adv-x="1005" 
d="M866 0l-448 571l-115 -104v-467h-98v1456l98 39v-989l569 518h43l-430 -391l504 -633h-123z" />
    <glyph glyph-name="l" unicode="l" horiz-adv-x="507" 
d="M205 0v1456l98 39v-1495h-98z" />
    <glyph glyph-name="m" unicode="m" horiz-adv-x="1918" 
d="M1391 1044q154 0 253 -101t99 -253v-690h-98v727q0 123 -76 206t-189 83q-117 0 -218 -75t-144 -191q4 -37 4 -60v-690h-98v727q0 123 -76 206t-189 83q-111 0 -209 -67.5t-147 -174.5v-774h-98v995l98 39v-215q49 100 149.5 162.5t219.5 62.5q125 0 216 -69.5
t122 -183.5q43 111 149.5 182t231.5 71z" />
    <glyph glyph-name="n" unicode="n" horiz-adv-x="1265" 
d="M711 1044q166 0 272.5 -100t106.5 -254v-690h-99v715q0 129 -83 215t-210 86q-121 0 -233.5 -69.5t-161.5 -178.5v-768h-98v995l98 39v-219q53 100 165 164.5t243 64.5z" />
    <glyph glyph-name="o" unicode="o" horiz-adv-x="1296" 
d="M647 -20q-225 0 -376.5 152.5t-151.5 379.5t151.5 379.5t376.5 152.5t377 -152.5t152 -379.5t-152 -379.5t-377 -152.5zM647.5 0q190.5 0 306 140.5t115.5 371.5t-115.5 371.5t-306 140.5t-306.5 -140.5t-116 -371.5t116 -371.5t306.5 -140.5z" />
    <glyph glyph-name="p" unicode="p" horiz-adv-x="1298" 
d="M672 1044q209 0 358.5 -153.5t149.5 -378.5t-148.5 -378.5t-359.5 -153.5q-227 0 -369 165v-596h-98v1446l98 39v-178q61 90 158.5 139t210.5 49zM668 -2q180 0 292.5 141.5t112.5 372.5q0 229 -112.5 371.5t-290.5 142.5q-225 0 -367 -209v-624q59 -92 155.5 -143.5
t209.5 -51.5z" />
    <glyph glyph-name="q" unicode="q" horiz-adv-x="1298" 
d="M995 995l99 39v-1485h-99v596q-139 -166 -368 -165q-211 0 -359.5 153.5t-148.5 378.5t150.5 378.5t359.5 153.5q113 0 209 -49t157 -139v139zM633 -2q111 0 206 51t156 141v627q-137 209 -364 209q-178 0 -292 -142.5t-114 -371.5q0 -231 113 -372.5t295 -141.5z" />
    <glyph glyph-name="r" unicode="r" horiz-adv-x="929" 
d="M623 1044q100 0 166.5 -50t66.5 -124q0 -35 -22.5 -56t-55.5 -21q-35 0 -57.5 22.5t-22.5 54.5q0 35 22.5 57.5t57.5 22.5h2q-53 70 -162 70q-100 0 -187 -70.5t-128 -183.5v-766h-98v995l98 39v-213q43 100 130.5 161.5t189.5 61.5z" />
    <glyph glyph-name="s" unicode="s" horiz-adv-x="974" 
d="M537 559q74 -31 119.5 -53.5t100 -60t81 -86t26.5 -109.5q0 -119 -100 -194.5t-264 -75.5q-156 0 -267.5 64.5t-113.5 158.5v2q0 37 24.5 60.5t63.5 23.5q35 0 57.5 -23.5t22.5 -60.5t-22.5 -60.5t-57.5 -23.5q-12 0 -17 2q39 -55 122 -89t184 -34q129 0 209.5 60.5
t80.5 150.5q0 49 -23.5 87t-74.5 70.5t-91 51t-116 49.5q-74 29 -122 53.5t-102 62.5t-82 87t-28 108q0 117 101.5 190.5t257.5 73.5q137 0 231 -57t99 -141v-2v-2q0 -37 -24 -60.5t-58 -23.5q-37 0 -61.5 23.5t-24.5 60.5t24.5 60.5t61.5 23.5h12q-74 98 -258 98
q-121 0 -201 -60.5t-80 -146.5q0 -39 19.5 -72.5t44 -57t73 -49.5t81.5 -40t92 -39z" />
    <glyph glyph-name="t" unicode="t" horiz-adv-x="763" 
d="M702 121l23 -15q-23 -53 -87.5 -89.5t-139.5 -36.5q-115 0 -193 70.5t-78 174.5v779h-137v20h137v238l99 36v-274h340v-20h-340v-809q0 -82 53 -137.5t133 -55.5q59 0 114.5 35t75.5 84z" />
    <glyph glyph-name="u" unicode="u" horiz-adv-x="1259" 
d="M956 995l99 39v-1034h-99v209q-53 -100 -162.5 -164.5t-236.5 -64.5q-162 0 -268.5 101t-106.5 253v661l99 39v-725q0 -129 80.5 -215t205.5 -86q121 0 229.5 69.5t159.5 180.5v737z" />
    <glyph glyph-name="v" unicode="v" horiz-adv-x="1054" 
d="M977 1024h29l-449 -1024h-63l-449 1024h100l416 -950z" />
    <glyph glyph-name="w" unicode="w" horiz-adv-x="1665" 
d="M1587 1024h29l-449 -1024h-63l-273 623l-274 -623h-63l-449 1024h100l416 -950l256 583l-162 367h101l415 -954z" />
    <glyph glyph-name="x" unicode="x" horiz-adv-x="978" 
d="M915 0h-114l-340 471l-330 -471h-35l348 496l-381 528h113l334 -463l326 463h34l-344 -483z" />
    <glyph glyph-name="y" unicode="y" horiz-adv-x="1067" 
d="M989 1024h29l-606 -1380q-23 -53 -69 -84t-101 -31q-59 0 -103.5 36t-46.5 87v2q0 33 24.5 56.5t57.5 23.5q35 0 56.5 -22.5t21.5 -57.5t-21.5 -57.5t-56.5 -22.5h-6q29 -29 74 -29q43 0 85 28t64 77l133 305l-469 1069h101l417 -954z" />
    <glyph glyph-name="z" unicode="z" horiz-adv-x="1003" 
d="M893 1024v-33l-682 -971h678v-20h-780v33l684 971h-654v20h754z" />
    <glyph glyph-name="braceleft" unicode="{" horiz-adv-x="675" 
d="M541 1475q-225 -4 -226 -213q0 -78 50.5 -225.5t50.5 -217.5q0 -152 -137 -205q137 -53 137 -202q0 -72 -50.5 -219.5t-50.5 -223.5q0 -211 226 -215v-20q-139 4 -223.5 68.5t-84.5 183.5q0 70 50.5 214t50.5 218q0 86 -41 136t-111 50h-51v21h51q70 0 111 50t41 136
q0 74 -50.5 218.5t-50.5 213.5q0 119 84 183.5t224 68.5v-20z" />
    <glyph glyph-name="bar" unicode="|" horiz-adv-x="520" 
d="M246 -266v1761h28v-1761h-28z" />
    <glyph glyph-name="braceright" unicode="}" horiz-adv-x="675" 
d="M494 625h51v-21h-51q-70 0 -111 -50t-41 -136q0 -74 50 -218.5t50 -213.5q0 -119 -84 -183.5t-223 -68.5v20q225 4 225 215q0 76 -50 223.5t-50 219.5q0 150 137 202q-137 53 -137 205q0 70 50 217.5t50 225.5q0 209 -225 213v20q139 -4 223 -68.5t84 -183.5
q0 -70 -50 -214t-50 -218q0 -86 41 -136t111 -50z" />
    <glyph glyph-name="asciitilde" unicode="~" horiz-adv-x="1234" 
d="M846 479q-84 0 -243 99.5t-234 99.5q-74 0 -119 -47t-45 -123h-21q0 109 56.5 175.5t148.5 66.5q84 0 241.5 -99.5t233.5 -99.5q74 0 119 47t45 125h21q0 -111 -55.5 -177.5t-147.5 -66.5z" />
    <glyph glyph-name="exclamdown" unicode="&#xa1;" horiz-adv-x="489" 
d="M246 858q-39 0 -64.5 25.5t-25.5 62.5q0 39 25.5 63.5t64.5 24.5q37 0 61.5 -24.5t24.5 -63.5q0 -37 -24.5 -62.5t-61.5 -25.5zM246 -420q-33 0 -53.5 23.5t-20.5 60.5q0 16 15.5 147.5t32 352.5t18.5 446h16q2 -225 18.5 -446t31.5 -353.5t15 -146.5q0 -37 -20 -60.5
t-53 -23.5z" />
    <glyph glyph-name="cent" unicode="&#xa2;" horiz-adv-x="1198" 
d="M1024 176l20 -14q-39 -80 -135 -131t-221 -51q-70 0 -127 14l-31 -178h-26l33 184q-164 49 -263.5 188.5t-99.5 323.5q0 227 147.5 379.5t366.5 152.5h33l29 164h26l-28 -168q125 -14 204.5 -79.5t79.5 -161.5q0 -35 -23.5 -58.5t-58.5 -23.5q-37 0 -61.5 23.5
t-24.5 58.5q0 37 24.5 60.5t61.5 23.5q4 0 12.5 -1t12.5 -1q-55 125 -232 143l-178 -1012q55 -16 113 -16q113 0 206 49t140 131zM283 512q0 -182 68.5 -312t189.5 -177l176 1005h-29q-184 0 -294.5 -141.5t-110.5 -374.5z" />
    <glyph glyph-name="sterling" unicode="&#xa3;" horiz-adv-x="1169" 
d="M258 88h793v-88h-875v55q98 68 158.5 185.5t60.5 236.5q0 90 -43 209h-200v21h194q-8 25 -29 77q-82 221 -81 324q0 152 114.5 249t288.5 97q160 0 266.5 -81t106.5 -202q0 -35 -23.5 -57t-60.5 -22q-33 0 -55.5 22.5t-22.5 57t22.5 57t55.5 22.5q18 0 33 -6
q-27 88 -110 139.5t-206 51.5q-141 0 -226 -75t-85 -200q0 -123 80 -358q6 -16 17 -48t15 -48h416v-21h-409q35 -119 34 -201q0 -115 -61.5 -220t-167.5 -177z" />
    <glyph glyph-name="currency" unicode="&#xa4;" horiz-adv-x="1187" 
d="M989 635q0 -154 -98 -262l125 -125l-23 -23l-125 125q-111 -100 -270 -100q-162 0 -276 102l-127 -127l-23 23l127 127q-102 106 -102 258q0 154 102 266l-127 127l23 23l129 -129q111 104 274 104q162 0 270 -102l125 127l23 -23l-127 -127q100 -106 100 -264zM598 315
q141 0 224 86t83 232q0 147 -84 236t-223 89q-141 0 -229 -90t-88 -235q0 -143 87 -230.5t230 -87.5z" />
    <glyph glyph-name="yen" unicode="&#xa5;" horiz-adv-x="1294" 
d="M1182 1434l-482 -809h308v-21h-314v-254h314v-20h-314v-330h-98v330h-311v20h311v254h-311v21h305l-481 809h108l467 -789l467 789h31z" />
    <glyph glyph-name="brokenbar" unicode="&#xa6;" horiz-adv-x="520" 
d="M246 717v778h28v-778h-28zM246 -266v778h28v-778h-28z" />
    <glyph glyph-name="section" unicode="&#xa7;" horiz-adv-x="1150" 
d="M666 274q125 -55 195.5 -123.5t70.5 -183.5q0 -129 -94.5 -212t-253.5 -83q-145 0 -255 64.5t-110 157.5q0 37 23.5 59t60.5 22t59.5 -23.5t22.5 -58t-22.5 -58t-57.5 -23.5q-10 0 -16 2q41 -55 120.5 -89t172.5 -34q121 0 194.5 66.5t73.5 168.5q0 49 -21.5 88t-70.5 73
t-89 54.5t-114 53.5q-70 33 -118 60.5t-102 71.5t-82 101t-28 129q0 117 75 193.5t202 105.5q-127 61 -199 131t-72 180q0 127 97.5 207t244.5 80q129 0 221.5 -58.5t92.5 -140.5q0 -35 -23.5 -58t-58.5 -23q-37 0 -61.5 23.5t-24.5 58t24.5 58t61.5 23.5h12
q-35 45 -100.5 72t-141.5 27q-113 0 -187.5 -65.5t-74.5 -166.5q0 -51 22.5 -91t74 -73.5t88.5 -52t106 -49.5q78 -35 123 -60.5t99.5 -68.5t80 -100.5t25.5 -128.5q0 -119 -69.5 -198t-196.5 -108zM307 588q0 -94 74 -156.5t223 -130.5q4 -2 12.5 -5t12.5 -5
q102 25 161.5 91.5t59.5 160.5q0 53 -22.5 96t-71.5 79t-88 57.5t-111 53.5q-2 2 -9 5.5l-11 5.5q-102 -23 -166 -90.5t-64 -161.5z" />
    <glyph glyph-name="dieresis" unicode="&#xa8;" horiz-adv-x="538" 
d="M82 1212q-35 0 -58.5 22.5t-23.5 57.5t24.5 59.5t61.5 24.5q33 0 55.5 -23.5t22.5 -58t-22.5 -58.5t-59.5 -24zM459 1212q-35 0 -59.5 22.5t-24.5 59.5q0 35 24.5 58.5t61.5 23.5q33 0 55.5 -23.5t22.5 -58t-22.5 -58.5t-57.5 -24z" />
    <glyph glyph-name="copyright" unicode="&#xa9;" horiz-adv-x="1777" 
d="M891 1454q315 0 525 -210t210 -525q0 -317 -210 -528t-525 -211q-317 0 -528 210.5t-211 528.5q0 315 211 525t528 210zM891 2q301 0 502.5 205t201.5 512q0 305 -201.5 509t-502.5 204q-303 0 -506 -204t-203 -509q0 -307 203 -512t506 -205zM930 348q86 0 156.5 35
t105.5 94l20 -12q-29 -61 -106.5 -99t-177.5 -38q-172 0 -286 115.5t-114 281.5q0 170 115 283.5t287 113.5q115 0 193.5 -51t78.5 -129q0 -27 -17.5 -44t-41.5 -17q-29 0 -46.5 17t-17.5 44q0 25 18.5 41t45.5 16q8 0 12 -2q-23 49 -82 78t-137 29q-147 0 -232.5 -102.5
t-85.5 -276.5q0 -172 85.5 -274.5t226.5 -102.5z" />
    <glyph glyph-name="ordfeminine" unicode="&#xaa;" horiz-adv-x="776" 
d="M393 1454q115 0 188.5 -58.5t73.5 -146.5v-418h-88v80q-88 -92 -227 -92q-94 0 -156.5 49.5t-62.5 118.5q0 78 75.5 128t192.5 50q104 0 178 -32v133q0 78 -49 123t-137 45q-113 0 -158 -64q23 -2 38 -18.5t15 -40.5q0 -27 -16 -44.5t-41 -17.5q-27 0 -44 17.5t-17 44.5
q0 59 69.5 101t165.5 42zM369 850q125 0 198 94v164q-59 35 -159 35q-90 0 -140.5 -40t-50.5 -105.5t42 -106.5t110 -41z" />
    <glyph glyph-name="guillemotleft" unicode="&#xab;" horiz-adv-x="972" 
d="M467 893q-39 -88 -112.5 -183.5t-153.5 -160.5q80 -66 153.5 -161t112.5 -183l-14 -15q-57 90 -168 190.5t-222 158.5v20q109 55 220.5 155.5t169.5 192.5zM608 549q80 -66 154 -161t112 -183l-14 -15q-57 90 -167.5 190.5t-221.5 158.5v20q109 55 220.5 155.5
t168.5 192.5l14 -14q-39 -88 -112.5 -183t-153.5 -161z" />
    <glyph glyph-name="registered" unicode="&#xae;" horiz-adv-x="929" 
d="M464.5 1454q147.5 0 246 -98.5t98.5 -243.5q0 -147 -98.5 -246.5t-246 -99.5t-245.5 99.5t-98 246.5q0 145 98 243.5t245.5 98.5zM465 784q135 0 226 93.5t91 234.5q0 139 -91 231.5t-226 92.5t-226.5 -92.5t-91.5 -231.5q0 -141 91.5 -234.5t226.5 -93.5zM618 1196
q0 -37 -26.5 -64.5t-67.5 -35.5l115 -150h-78l-110 148h-45v-148h-66v350h154q53 0 88.5 -28.5t35.5 -71.5zM406 1280v-170h65q35 0 55.5 22.5t20.5 61.5t-20.5 62.5t-55.5 23.5h-65z" />
    <glyph glyph-name="macron" unicode="&#xaf;" horiz-adv-x="468" 
d="M0 1276v49h469v-49h-469z" />
    <glyph glyph-name="degree" unicode="&#xb0;" horiz-adv-x="712" 
d="M356.5 985q-102.5 0 -169 66.5t-66.5 169.5q0 100 67.5 166.5t168 66.5t168 -66.5t67.5 -166.5q0 -102 -66.5 -169t-169 -67zM356 1004q90 0 150.5 61t60.5 156q0 92 -60.5 153.5t-150.5 61.5t-150.5 -61.5t-60.5 -153.5q0 -94 60.5 -155.5t150.5 -61.5z" />
    <glyph glyph-name="plusminus" unicode="&#xb1;" horiz-adv-x="1189" 
d="M606 625h398v-21h-398v-399h-24v399h-398v21h398v399h24v-399zM184 0v20h820v-20h-820z" />
    <glyph glyph-name="uni00B2" unicode="&#xb2;" horiz-adv-x="974" 
d="M293 858h469v-80h-543v33l234 256q92 104 138 182t46 170q0 94 -50 151.5t-138 57.5q-68 0 -119 -34.5t-70 -92.5q16 4 25 4q27 0 45 -18.5t18 -48.5q0 -27 -18.5 -46.5t-44.5 -19.5q-31 0 -51.5 18.5t-20.5 47.5q0 90 77 151.5t193.5 61.5t196.5 -65.5t80 -162.5
q0 -88 -65.5 -172t-196.5 -202z" />
    <glyph glyph-name="uni00B3" unicode="&#xb3;" horiz-adv-x="1001" 
d="M567 1225q100 -20 160.5 -84t60.5 -146q0 -98 -83.5 -163.5t-215.5 -65.5q-119 0 -197.5 53t-78.5 135q0 29 20.5 47.5t51.5 18.5q27 0 45 -19.5t18 -46.5q0 -31 -18.5 -49t-44.5 -18q-14 0 -21 2q47 -100 193 -101q100 0 157.5 58.5t57.5 157.5q0 96 -54.5 154.5
t-146.5 58.5h-84v16h84q82 0 130 53t48 141q0 92 -51 146.5t-141 54.5q-63 0 -111.5 -26.5t-69.5 -73.5q6 2 21 2q27 0 45 -18.5t18 -49.5q0 -27 -18 -46t-45 -19q-31 0 -51.5 18.5t-20.5 46.5q0 82 75 135.5t189 53.5q119 0 197 -59.5t78 -153.5q0 -72 -55.5 -131
t-141.5 -82z" />
    <glyph glyph-name="acute" unicode="&#xb4;" horiz-adv-x="333" 
d="M25 1219h-25l152 206h182z" />
    <glyph glyph-name="paragraph" unicode="&#xb6;" horiz-adv-x="1390" 
d="M1171 1434v-21h-145v-1741h-29v1741h-217v-1741h-28v828h-64q-201 0 -335 133t-134 333.5t134 334t335 133.5h483z" />
    <glyph glyph-name="periodcentered" unicode="&#xb7;" horiz-adv-x="546" 
d="M274.5 467q-36.5 0 -63.5 25.5t-27 62.5t27 63.5t63.5 26.5t62 -26.5t25.5 -63.5t-25.5 -62.5t-62 -25.5z" />
    <glyph glyph-name="cedilla" unicode="&#xb8;" horiz-adv-x="346" 
d="M188 -125q68 0 113 -43t45 -104q0 -66 -54 -110t-134 -44q-96 0 -158 61l14 19q49 -59 133 -60q47 0 80 38t33 92q0 55 -28.5 90.5t-71.5 35.5q-47 0 -72 -45l-16 5l90 184h26l-73 -137q36 18 73 18z" />
    <glyph glyph-name="uni00B9" unicode="&#xb9;" horiz-adv-x="727" 
d="M444 1638h70v-860h-117v787q-61 -68 -176 -95l-8 17q61 16 127.5 59t103.5 92z" />
    <glyph glyph-name="ordmasculine" unicode="&#xba;" horiz-adv-x="901" 
d="M451 819q-141 0 -235.5 91t-94.5 226.5t94 226.5t236 91q139 0 234 -91t95 -226.5t-95 -226.5t-234 -91zM450.5 840q106.5 0 170 82t63.5 215t-63.5 215t-170 82t-170 -82t-63.5 -215t63.5 -215t170 -82z" />
    <glyph glyph-name="guillemotright" unicode="&#xbb;" horiz-adv-x="972" 
d="M113 907q55 -90 166.5 -190.5t222.5 -157.5v-20q-111 -59 -222.5 -158.5t-166.5 -190.5l-15 15q39 88 113 183t154 161q-80 66 -154 161t-113 183zM520 907q55 -90 167 -190.5t222 -157.5v-20q-111 -59 -222.5 -158.5t-166.5 -190.5l-14 15q39 88 112.5 183t153.5 161
q-80 66 -153.5 161t-112.5 183z" />
    <glyph glyph-name="onequarter" unicode="&#xbc;" horiz-adv-x="1945" 
d="M514 573h-117v787q-61 -68 -176 -94l-8 16q61 16 128 59t103 93h70v-861zM1386 1434h35l-921 -1434h-35zM1733 260v-16h-136v-244h-116v244h-414v18l430 598h100v-600h136zM1094 260h387v543z" />
    <glyph glyph-name="onehalf" unicode="&#xbd;" horiz-adv-x="2031" 
d="M514 573h-117v787q-61 -68 -176 -94l-8 16q61 16 128 59t103 93h70v-861zM1386 1434h35l-921 -1434h-35zM1352 80h469v-80h-543v33l233 256q92 104 138.5 182t46.5 170q0 94 -50.5 151.5t-138.5 57.5q-68 0 -119 -35t-69 -92q16 4 24 4q27 0 45.5 -18.5t18.5 -49.5
q0 -27 -18.5 -46t-45.5 -19q-31 0 -51 18.5t-20 46.5q0 90 76.5 151.5t193.5 61.5t197 -65.5t80 -161.5q0 -88 -65.5 -172t-197.5 -203z" />
    <glyph glyph-name="threequarters" unicode="&#xbe;" horiz-adv-x="2121" 
d="M788 791q0 -98 -83.5 -164t-215.5 -66q-119 0 -197.5 53.5t-78.5 135.5q0 29 20.5 47t51.5 18q27 0 45 -19.5t18 -45.5q0 -31 -18.5 -49.5t-44.5 -18.5q-14 0 -21 2q47 -100 193 -100q100 0 157.5 58t57.5 157q0 96 -54.5 154.5t-146.5 58.5h-84v16h84q82 0 130 53.5
t48 141.5q0 92 -51 146t-141 54q-63 0 -111.5 -26.5t-69.5 -73.5q6 2 21 2q27 0 45 -18.5t18 -49.5q0 -27 -18 -46t-45 -19q-31 0 -51.5 18.5t-20.5 46.5q0 82 75 135.5t189 53.5q119 0 197 -59.5t78 -153.5q0 -72 -55.5 -131.5t-141.5 -81.5q100 -20 160.5 -83.5
t60.5 -145.5zM1563 1434h34l-921 -1434h-35zM1909 260v-16h-135v-244h-117v244h-414v18l430 598h101v-600h135zM1270 260h387v543z" />
    <glyph glyph-name="questiondown" unicode="&#xbf;" horiz-adv-x="944" 
d="M477 858q-37 0 -62.5 25.5t-25.5 62.5q0 39 25.5 63.5t62.5 24.5t62.5 -24.5t25.5 -63.5q0 -37 -25.5 -62.5t-62.5 -25.5zM782 -63q35 0 58.5 -23t23.5 -55q0 -123 -110.5 -206t-272.5 -83q-166 0 -278.5 89t-112.5 220q0 72 39 143.5t94.5 130t109.5 115t93 120
t39 120.5v102h29v-106q0 -68 -47.5 -144.5t-102.5 -138t-102 -154t-47 -188.5q0 -127 85 -210t214 -83q115 0 201.5 55.5t115.5 143.5q-16 -4 -29 -4q-33 0 -54 22.5t-21 55t21 55.5t54 23z" />
    <glyph glyph-name="Agrave" unicode="&#xc0;" horiz-adv-x="1474" 
d="M807 1608h-25l-309 207h182zM1294 0l-200 459h-787l-201 -459h-28l629 1434h63l627 -1434h-103zM315 479h770l-385 879z" />
    <glyph glyph-name="Aacute" unicode="&#xc1;" horiz-adv-x="1474" 
d="M1004 1815l-310 -207h-24l151 207h183zM1294 0l-200 459h-787l-201 -459h-28l629 1434h63l627 -1434h-103zM315 479h770l-385 879z" />
    <glyph glyph-name="Acircumflex" unicode="&#xc2;" horiz-adv-x="1474" 
d="M737 1739l-254 -135l-8 12l240 221h45l239 -221l-8 -12zM1294 0l-200 459h-787l-201 -459h-28l629 1434h63l627 -1434h-103zM315 479h770l-385 879z" />
    <glyph glyph-name="Atilde" unicode="&#xc3;" horiz-adv-x="1474" 
d="M582 1755q-41 0 -75 -33.5t-38 -89.5h-23q0 84 50.5 140.5t121.5 56.5q68 0 158 -82q57 -51 115 -51q43 0 75.5 33.5t37.5 89.5h22q0 -84 -50 -140.5t-124 -56.5q-14 0 -28.5 2t-30 9t-24.5 11.5t-23.5 15.5t-18.5 15t-18 17l-17 14q-55 49 -110 49zM1294 0l-200 459
h-787l-201 -459h-28l629 1434h63l627 -1434h-103zM315 479h770l-385 879z" />
    <glyph glyph-name="Adieresis" unicode="&#xc4;" horiz-adv-x="1474" 
d="M549 1602q-35 0 -58.5 22.5t-23.5 57t24.5 59t61.5 24.5q33 0 55.5 -23.5t22.5 -58t-22.5 -58t-59.5 -23.5zM926 1602q-35 0 -59.5 22.5t-24.5 58.5q0 35 24.5 58.5t61.5 23.5q33 0 55.5 -23.5t22.5 -58t-22.5 -58t-57.5 -23.5zM1294 0l-200 459h-787l-201 -459h-28
l629 1434h63l627 -1434h-103zM315 479h770l-385 879z" />
    <glyph glyph-name="Aring" unicode="&#xc5;" horiz-adv-x="1474" 
d="M739.5 1571q-63.5 0 -106.5 40t-43 101q0 63 43 105.5t108 42.5q61 0 102.5 -42t41.5 -106q0 -61 -41 -101t-104.5 -40zM739 1841q-55 0 -90 -36t-35 -93q0 -55 35 -89t90 -34q53 0 87 34t34 89q0 57 -34 93t-87 36zM1294 0l-200 459h-787l-201 -459h-28l629 1434h63
l627 -1434h-103zM315 479h770l-385 879z" />
    <glyph glyph-name="AE" unicode="&#xc6;" horiz-adv-x="1835" 
d="M944 20h793v-20h-891v451h-561l-262 -451h-33l833 1434h893v-21h-772v-676h608v-20h-608v-697zM297 471h549v948l-551 -950z" />
    <glyph glyph-name="Ccedilla" unicode="&#xc7;" horiz-adv-x="1558" 
d="M1438 262q-68 -123 -220.5 -201.5t-345.5 -80.5l-65 -123q37 18 74 18q68 0 112.5 -43t44.5 -104q0 -66 -54 -110t-134 -44q-96 0 -158 61l15 19q49 -59 133 -60q47 0 79.5 38t32.5 92q0 55 -28.5 90.5t-71.5 35.5q-47 0 -72 -45l-16 5l84 170q-313 8 -521 217t-208 520
q0 313 213 525t536 212q231 0 391 -106.5t160 -253.5q0 -33 -21.5 -55.5t-54.5 -22.5q-35 0 -58 22.5t-23 55t23.5 55t57.5 22.5q14 0 21 -2q-37 119 -170 193t-324 74q-293 0 -469 -198t-176 -519q0 -324 178.5 -522.5t462.5 -198.5q182 0 326.5 73.5t220.5 202.5z" />
    <glyph glyph-name="Egrave" unicode="&#xc8;" horiz-adv-x="1304" 
d="M803 1608h-25l-309 207h182zM324 20h882v-20h-981v1434h961v-21h-862v-676h698v-20h-698v-697z" />
    <glyph glyph-name="Eacute" unicode="&#xc9;" horiz-adv-x="1304" 
d="M999 1815l-309 -207h-24l151 207h182zM324 20h882v-20h-981v1434h961v-21h-862v-676h698v-20h-698v-697z" />
    <glyph glyph-name="Ecircumflex" unicode="&#xca;" horiz-adv-x="1304" 
d="M735 1739l-254 -135l-8 12l240 221h45l239 -221l-8 -12zM324 20h882v-20h-981v1434h961v-21h-862v-676h698v-20h-698v-697z" />
    <glyph glyph-name="Edieresis" unicode="&#xcb;" horiz-adv-x="1304" 
d="M547 1602q-35 0 -58.5 22.5t-23.5 57t23.5 59t62.5 24.5q33 0 55.5 -23.5t22.5 -58t-22.5 -58t-59.5 -23.5zM923.5 1602q-34.5 0 -59 22.5t-24.5 58.5q0 35 24.5 58.5t61.5 23.5q33 0 55.5 -23.5t22.5 -58t-23 -58t-57.5 -23.5zM324 20h882v-20h-981v1434h961v-21h-862
v-676h698v-20h-698v-697z" />
    <glyph glyph-name="Igrave" unicode="&#xcc;" horiz-adv-x="548" 
d="M317 1608l-309 207h182l152 -207h-25zM225 0v1434h99v-1434h-99z" />
    <glyph glyph-name="Iacute" unicode="&#xcd;" horiz-adv-x="548" 
d="M229 1608h-24l151 207h183zM225 0v1434h99v-1434h-99z" />
    <glyph glyph-name="Icircumflex" unicode="&#xce;" horiz-adv-x="548" 
d="M297 1837l240 -221l-9 -12l-254 135l-254 -135l-8 12l240 221h45zM225 0v1434h99v-1434h-99z" />
    <glyph glyph-name="Idieresis" unicode="&#xcf;" horiz-adv-x="548" 
d="M86 1602q-35 0 -58.5 22.5t-23.5 57t24.5 59t61.5 24.5q33 0 55.5 -23.5t22.5 -58t-22.5 -58t-59.5 -23.5zM463 1602q-35 0 -59.5 22.5t-24.5 58.5q0 35 24.5 58.5t61.5 23.5q33 0 55.5 -23.5t22.5 -58t-22.5 -58t-57.5 -23.5zM225 0v1434h99v-1434h-99z" />
    <glyph glyph-name="Eth" unicode="&#xd0;" horiz-adv-x="1601" 
d="M729 1434q322 0 538 -206t216 -511t-216 -511t-538 -206h-504v707h-151v20h151v707h504zM713 20q299 0 481 190.5t182 506t-182 506t-481 190.5h-389v-686h264v-20h-264v-687h389z" />
    <glyph glyph-name="Ntilde" unicode="&#xd1;" horiz-adv-x="1611" 
d="M668 1755q-41 0 -75 -33.5t-38 -89.5h-23q0 84 50.5 140.5t122.5 56.5q68 0 157 -82q57 -51 115 -51q43 0 75.5 33.5t37.5 89.5h22q0 -84 -50 -140.5t-124 -56.5q-14 0 -28.5 2t-30 9t-24.5 11.5t-23.5 15.5t-18.5 15t-18 17l-17 14q-55 49 -110 49zM1358 1434h28v-1434
h-69l-1063 1409v-1409h-29v1434h137l996 -1319v1319z" />
    <glyph glyph-name="Ograve" unicode="&#xd2;" horiz-adv-x="1708" 
d="M897 1608l-309 207h182l152 -207h-25zM854 -20q-315 0 -525 210.5t-210 526t210 526.5t525 211t525 -211t210 -526.5t-210 -526t-525 -210.5zM854 0q285 0 457 196.5t172 520t-172 520.5t-457 197t-457 -197t-172 -520.5t172 -520t457 -196.5z" />
    <glyph glyph-name="Oacute" unicode="&#xd3;" horiz-adv-x="1708" 
d="M809 1608h-25l152 207h182zM854 -20q-315 0 -525 210.5t-210 526t210 526.5t525 211t525 -211t210 -526.5t-210 -526t-525 -210.5zM854 0q285 0 457 196.5t172 520t-172 520.5t-457 197t-457 -197t-172 -520.5t172 -520t457 -196.5z" />
    <glyph glyph-name="Ocircumflex" unicode="&#xd4;" horiz-adv-x="1708" 
d="M854 1739l-254 -135l-8 12l239 221h46l239 -221l-8 -12zM854 1454q315 0 525 -211t210 -526.5t-210 -526t-525 -210.5t-525 210.5t-210 526t210 526.5t525 211zM854 0q285 0 457 196.5t172 520t-172 520.5t-457 197t-457 -197t-172 -520.5t172 -520t457 -196.5z" />
    <glyph glyph-name="Otilde" unicode="&#xd5;" horiz-adv-x="1708" 
d="M969 1622q-14 0 -28.5 2t-30 9t-24.5 11.5t-23.5 15.5t-18.5 15t-21 17l-14 14q-55 49 -111 49q-41 0 -74.5 -33.5t-37.5 -89.5h-23q0 84 50.5 140.5t121.5 56.5q68 0 158 -82q57 -51 115 -51q43 0 75.5 33.5t36.5 89.5h23q0 -84 -50 -140.5t-124 -56.5zM854 -20
q-315 0 -525 210.5t-210 526t210 526.5t525 211t525 -211t210 -526.5t-210 -526t-525 -210.5zM854 0q285 0 457 196.5t172 520t-172 520.5t-457 197t-457 -197t-172 -520.5t172 -520t457 -196.5z" />
    <glyph glyph-name="Odieresis" unicode="&#xd6;" horiz-adv-x="1708" 
d="M666 1602q-35 0 -58.5 22.5t-23.5 57t23.5 59t62.5 24.5q33 0 55.5 -23.5t22.5 -58t-22.5 -58t-59.5 -23.5zM1042.5 1602q-34.5 0 -59.5 22.5t-25 58.5q0 35 25 58.5t61 23.5q33 0 55.5 -23.5t22.5 -58t-22.5 -58t-57 -23.5zM854 -20q-315 0 -525 210.5t-210 526
t210 526.5t525 211t525 -211t210 -526.5t-210 -526t-525 -210.5zM854 0q285 0 457 196.5t172 520t-172 520.5t-457 197t-457 -197t-172 -520.5t172 -520t457 -196.5z" />
    <glyph glyph-name="multiply" unicode="&#xd7;" horiz-adv-x="964" 
d="M778 897l-282 -283l282 -282l-14 -15l-283 283l-282 -283l-15 15l281 282l-281 281l15 16l282 -282l281 282z" />
    <glyph glyph-name="Oslash" unicode="&#xd8;" horiz-adv-x="1708" 
d="M1321 1294q127 -102 197.5 -251.5t70.5 -325.5q0 -315 -210 -526t-525 -211q-254 0 -446 143l-113 -143h-33l125 159q-127 102 -197.5 252t-70.5 326q0 315 210 526t525 211q254 0 446 -143l113 143h33zM225 717q0 -340 191 -541l858 1100q-168 158 -420 158
q-285 0 -457 -196.5t-172 -520.5zM854 0q285 0 457 196.5t172 520.5q0 340 -191 540l-858 -1099q168 -158 420 -158z" />
    <glyph glyph-name="Ugrave" unicode="&#xd9;" horiz-adv-x="1593" 
d="M858 1608l-309 207h182l152 -207h-25zM817 -20q-270 0 -438 161.5t-168 425.5v867h98v-899q0 -238 143.5 -383.5t374.5 -145.5q240 0 383.5 144.5t143.5 384.5v899h28v-897q0 -254 -152.5 -405.5t-412.5 -151.5z" />
    <glyph glyph-name="Uacute" unicode="&#xda;" horiz-adv-x="1593" 
d="M770 1608h-25l152 207h182zM817 -20q-270 0 -438 161.5t-168 425.5v867h98v-899q0 -238 143.5 -383.5t374.5 -145.5q240 0 383.5 144.5t143.5 384.5v899h28v-897q0 -254 -152.5 -405.5t-412.5 -151.5z" />
    <glyph glyph-name="Ucircumflex" unicode="&#xdb;" horiz-adv-x="1593" 
d="M813 1739l-254 -135l-8 12l240 221h45l239 -221l-8 -12zM1354 1434h28v-897q0 -254 -152.5 -405.5t-412.5 -151.5q-270 0 -438 161.5t-168 425.5v867h98v-899q0 -238 143.5 -383.5t374.5 -145.5q240 0 383.5 144.5t143.5 384.5v899z" />
    <glyph glyph-name="Udieresis" unicode="&#xdc;" horiz-adv-x="1593" 
d="M625 1602q-35 0 -58.5 22.5t-23.5 57t23.5 59t62.5 24.5q33 0 55.5 -23.5t22.5 -58t-22.5 -58t-59.5 -23.5zM1001.5 1602q-34.5 0 -59 22.5t-24.5 58.5q0 35 24.5 58.5t61.5 23.5q33 0 55 -23.5t22 -58t-22.5 -58t-57 -23.5zM817 -20q-270 0 -438 161.5t-168 425.5v867
h98v-899q0 -238 143.5 -383.5t374.5 -145.5q240 0 383.5 144.5t143.5 384.5v899h28v-897q0 -254 -152.5 -405.5t-412.5 -151.5z" />
    <glyph glyph-name="Yacute" unicode="&#xdd;" horiz-adv-x="1400" 
d="M965 1815l-310 -207h-24l151 207h183zM1292 1434h31l-573 -820v-614h-99v614l-573 820h115l550 -785z" />
    <glyph glyph-name="Thorn" unicode="&#xde;" horiz-adv-x="1335" 
d="M778 1143q203 0 340 -119t137 -297t-137 -297t-340 -119h-454v-311h-99v1434h99v-291h454zM770 332q170 0 274.5 108.5t104.5 286.5t-104.5 286.5t-274.5 108.5h-446v-790h446z" />
    <glyph glyph-name="germandbls" unicode="&#xdf;" horiz-adv-x="1091" 
d="M807 559q111 -57 172 -123.5t61 -179.5q0 -125 -81.5 -200.5t-221.5 -75.5q-133 0 -224 65.5t-91 159.5q0 37 24.5 60.5t63.5 23.5q35 0 58.5 -23.5t23.5 -60.5t-23.5 -60.5t-58.5 -23.5q-12 0 -16 2q31 -55 97 -89t146 -34q102 0 165 61.5t63 159.5q0 84 -55.5 140.5
t-149.5 103.5q-66 35 -99.5 55.5t-79.5 58t-66.5 84t-20.5 101.5q0 33 7 60.5t28.5 55t32.5 40t46 42t43 37.5q55 49 77 102.5t22 133.5q0 109 -59.5 174.5t-158.5 65.5q-113 0 -179 -87.5t-66 -234.5v-1153h-99v1112q0 164 96.5 273.5t243.5 109.5q129 0 216 -76t87 -188
q0 -53 -23.5 -99.5t-47 -72t-68.5 -62.5q-41 -35 -61.5 -55t-40 -58t-19.5 -79q0 -45 15.5 -79t54.5 -65.5t69.5 -49t96.5 -52.5z" />
    <glyph glyph-name="agrave" unicode="&#xe0;" horiz-adv-x="1175" 
d="M664 1219h-25l-309 206h182zM578 1044q186 0 303.5 -99t117.5 -249v-696h-98v156q-68 -78 -179.5 -127t-225.5 -49q-152 0 -260.5 83.5t-108.5 204.5q0 129 123 213t317 84q217 0 334 -67v229q0 129 -92 213t-240 84q-106 0 -194 -41t-125 -106q8 2 24 2q35 0 56.5 -22.5
t21.5 -57.5t-21.5 -57.5t-56 -22.5t-59.5 22.5t-25 57.5q0 104 114 174.5t274 70.5zM522 14q113 0 215.5 48.5t163.5 127.5v281q-102 74 -315 74q-168 0 -260.5 -71t-92.5 -195q0 -117 80 -191t209 -74z" />
    <glyph glyph-name="aacute" unicode="&#xe1;" horiz-adv-x="1175" 
d="M860 1425l-309 -206h-25l152 206h182zM578 1044q186 0 303.5 -99t117.5 -249v-696h-98v156q-68 -78 -179.5 -127t-225.5 -49q-152 0 -260.5 83.5t-108.5 204.5q0 129 123 213t317 84q217 0 334 -67v229q0 129 -92 213t-240 84q-106 0 -194 -41t-125 -106q8 2 24 2
q35 0 56.5 -22.5t21.5 -57.5t-21.5 -57.5t-56 -22.5t-59.5 22.5t-25 57.5q0 104 114 174.5t274 70.5zM522 14q113 0 215.5 48.5t163.5 127.5v281q-102 74 -315 74q-168 0 -260.5 -71t-92.5 -195q0 -117 80 -191t209 -74z" />
    <glyph glyph-name="acircumflex" unicode="&#xe2;" horiz-adv-x="1175" 
d="M594 1350l-254 -136l-8 13l239 221h45l240 -221l-8 -13zM578 1044q186 0 303.5 -99t117.5 -249v-696h-98v156q-68 -78 -179.5 -127t-225.5 -49q-152 0 -260.5 83.5t-108.5 204.5q0 129 123 213t317 84q217 0 334 -67v229q0 129 -92 213t-240 84q-106 0 -194 -41
t-125 -106q8 2 24 2q35 0 56.5 -22.5t21.5 -57.5t-21.5 -57.5t-56 -22.5t-59.5 22.5t-25 57.5q0 104 114 174.5t274 70.5zM522 14q113 0 215.5 48.5t163.5 127.5v281q-102 74 -315 74q-168 0 -260.5 -71t-92.5 -195q0 -117 80 -191t209 -74z" />
    <glyph glyph-name="atilde" unicode="&#xe3;" horiz-adv-x="1175" 
d="M438 1366q-41 0 -74.5 -34t-37.5 -89h-23q0 84 50 140.5t122 56.5q68 0 158 -82q57 -51 115 -51q43 0 75.5 33.5t36.5 89.5h23q0 -84 -50.5 -140.5t-123.5 -56.5q-14 0 -28.5 2t-30 9t-25 11.5t-23.5 15.5t-18 15t-19 17l-16 14q-56 49 -111 49zM578 1044
q186 0 303.5 -99t117.5 -249v-696h-98v156q-68 -78 -179.5 -127t-225.5 -49q-152 0 -260.5 83.5t-108.5 204.5q0 129 123 213t317 84q217 0 334 -67v229q0 129 -92 213t-240 84q-106 0 -194 -41t-125 -106q8 2 24 2q35 0 56.5 -22.5t21.5 -57.5t-21.5 -57.5t-56 -22.5
t-59.5 22.5t-25 57.5q0 104 114 174.5t274 70.5zM522 14q113 0 215.5 48.5t163.5 127.5v281q-102 74 -315 74q-168 0 -260.5 -71t-92.5 -195q0 -117 80 -191t209 -74z" />
    <glyph glyph-name="adieresis" unicode="&#xe4;" horiz-adv-x="1175" 
d="M406 1212q-35 0 -58.5 22.5t-23.5 57.5t24.5 59.5t61.5 24.5q33 0 55 -23.5t22 -58t-22 -58.5t-59 -24zM782.5 1212q-34.5 0 -59.5 22.5t-25 59.5q0 35 25 58.5t61 23.5q33 0 55.5 -23.5t22.5 -58t-22.5 -58.5t-57 -24zM578 1044q186 0 303.5 -99t117.5 -249v-696h-98
v156q-68 -78 -179.5 -127t-225.5 -49q-152 0 -260.5 83.5t-108.5 204.5q0 129 123 213t317 84q217 0 334 -67v229q0 129 -92 213t-240 84q-106 0 -194 -41t-125 -106q8 2 24 2q35 0 56.5 -22.5t21.5 -57.5t-21.5 -57.5t-56 -22.5t-59.5 22.5t-25 57.5q0 104 114 174.5
t274 70.5zM522 14q113 0 215.5 48.5t163.5 127.5v281q-102 74 -315 74q-168 0 -260.5 -71t-92.5 -195q0 -117 80 -191t209 -74z" />
    <glyph glyph-name="aring" unicode="&#xe5;" horiz-adv-x="1175" 
d="M595.5 1182q-63.5 0 -106.5 40t-43 101q0 63 43 105t109 42q61 0 102 -42t41 -105q0 -61 -41 -101t-104.5 -40zM596 1452q-55 0 -90 -36t-35 -93q0 -55 35 -89t90 -34q53 0 87 34t34 89q0 57 -34 93t-87 36zM578 1044q186 0 303.5 -99t117.5 -249v-696h-98v156
q-68 -78 -179.5 -127t-225.5 -49q-152 0 -260.5 83.5t-108.5 204.5q0 129 123 213t317 84q217 0 334 -67v229q0 129 -92 213t-240 84q-106 0 -194 -41t-125 -106q8 2 24 2q35 0 56.5 -22.5t21.5 -57.5t-21.5 -57.5t-56 -22.5t-59.5 22.5t-25 57.5q0 104 114 174.5t274 70.5z
M522 14q113 0 215.5 48.5t163.5 127.5v281q-102 74 -315 74q-168 0 -260.5 -71t-92.5 -195q0 -117 80 -191t209 -74z" />
    <glyph glyph-name="ae" unicode="&#xe6;" horiz-adv-x="2013" 
d="M1790 324q33 0 54.5 -22.5t21.5 -57.5q0 -111 -122 -187.5t-292 -76.5q-154 0 -278.5 67.5t-194.5 181.5q-70 -109 -199 -179t-270 -70q-154 0 -268.5 83.5t-114.5 204.5q0 129 123 213t317 84q217 0 334 -67v223q0 131 -90 217t-236 86q-109 0 -198.5 -41t-126.5 -106
q8 2 24 2q35 0 56.5 -22.5t21.5 -57.5t-21.5 -57.5t-56 -22.5t-59.5 22.5t-25 57.5q0 102 115 173.5t275 71.5q150 0 257 -63t148 -172q70 111 184.5 173t249.5 62q209 0 341 -139t132 -348h-884v-39q0 -233 120.5 -376.5t325.5 -143.5q123 0 220.5 46t131.5 122
q-6 -2 -18 -2q-35 0 -58.5 21.5t-23.5 58.5q0 35 23.5 57.5t60.5 22.5zM1415 1024q-168 0 -279.5 -122t-125.5 -324h772q-4 201 -103.5 323.5t-263.5 122.5zM537 12q131 0 246.5 66.5t181.5 175.5q-51 94 -62 213q-43 35 -132 56.5t-185 21.5q-168 0 -260.5 -71t-92.5 -193
q0 -119 84.5 -194t219.5 -75z" />
    <glyph glyph-name="ccedilla" unicode="&#xe7;" horiz-adv-x="1150" 
d="M655 -20h-18l-66 -123q37 18 74 18q68 0 113 -43t45 -104q0 -66 -54.5 -110t-134.5 -44q-96 0 -157 61l14 19q49 -59 133 -60q47 0 80 38t33 92q0 55 -29 90.5t-72 35.5q-47 0 -71 -45l-17 5l84 172q-217 14 -355 165.5t-138 364.5q0 227 152.5 379.5t381.5 152.5
q156 0 261.5 -69.5t105.5 -175.5q0 -33 -22.5 -55.5t-55.5 -22.5q-37 0 -60.5 21.5t-23.5 56.5t23.5 57.5t60.5 22.5q14 0 21 -2q-33 70 -117 110.5t-197 40.5q-195 0 -309.5 -141.5t-114.5 -374.5q0 -231 117 -373.5t305 -142.5q119 0 219.5 49t141.5 129l24 -12
q-39 -80 -141.5 -131t-235.5 -51z" />
    <glyph glyph-name="egrave" unicode="&#xe8;" 
d="M694 1219h-24l-310 206h183zM1008 324q33 0 55 -24t22 -56q0 -111 -122.5 -187.5t-292.5 -76.5q-240 0 -395.5 152.5t-155.5 379.5t151.5 379.5t368.5 152.5q207 0 339 -139t132 -348h-885v-39q0 -233 120 -376.5t323 -143.5q125 0 223 46t135 122q-6 -2 -20 -2
q-35 0 -58.5 21.5t-23.5 58.5q0 35 23.5 57.5t60.5 22.5zM635 1024q-170 0 -280.5 -122t-127.5 -324h772q-4 201 -102 323.5t-262 122.5z" />
    <glyph glyph-name="eacute" unicode="&#xe9;" 
d="M891 1425l-309 -206h-25l152 206h182zM1008 324q33 0 55 -24t22 -56q0 -111 -122.5 -187.5t-292.5 -76.5q-240 0 -395.5 152.5t-155.5 379.5t151.5 379.5t368.5 152.5q207 0 339 -139t132 -348h-885v-39q0 -233 120 -376.5t323 -143.5q125 0 223 46t135 122q-6 -2 -20 -2
q-35 0 -58.5 21.5t-23.5 58.5q0 35 23.5 57.5t60.5 22.5zM635 1024q-170 0 -280.5 -122t-127.5 -324h772q-4 201 -102 323.5t-262 122.5z" />
    <glyph glyph-name="ecircumflex" unicode="&#xea;" 
d="M625 1350l-254 -136l-9 13l240 221h45l240 -221l-8 -13zM1008 324q33 0 55 -24t22 -56q0 -111 -122.5 -187.5t-292.5 -76.5q-240 0 -395.5 152.5t-155.5 379.5t151.5 379.5t368.5 152.5q207 0 339 -139t132 -348h-885v-39q0 -233 120 -376.5t323 -143.5q125 0 223 46
t135 122q-6 -2 -20 -2q-35 0 -58.5 21.5t-23.5 58.5q0 35 23.5 57.5t60.5 22.5zM635 1024q-170 0 -280.5 -122t-127.5 -324h772q-4 201 -102 323.5t-262 122.5z" />
    <glyph glyph-name="edieresis" unicode="&#xeb;" 
d="M436 1212q-35 0 -58.5 22.5t-23.5 57.5t23.5 59.5t62.5 24.5q33 0 55.5 -23.5t22.5 -58t-22.5 -58.5t-59.5 -24zM813 1212q-35 0 -59.5 22.5t-24.5 59.5q0 35 24.5 58.5t61.5 23.5q33 0 55.5 -23.5t22.5 -58t-22.5 -58.5t-57.5 -24zM1008 324q33 0 55 -24t22 -56
q0 -111 -122.5 -187.5t-292.5 -76.5q-240 0 -395.5 152.5t-155.5 379.5t151.5 379.5t368.5 152.5q207 0 339 -139t132 -348h-885v-39q0 -233 120 -376.5t323 -143.5q125 0 223 46t135 122q-6 -2 -20 -2q-35 0 -58.5 21.5t-23.5 58.5q0 35 23.5 57.5t60.5 22.5zM635 1024
q-170 0 -280.5 -122t-127.5 -324h772q-4 201 -102 323.5t-262 122.5z" />
    <glyph glyph-name="igrave" unicode="&#xec;" horiz-adv-x="507" 
d="M297 1219l-309 206h182l152 -206h-25zM205 0v995l98 39v-1034h-98z" />
    <glyph glyph-name="iacute" unicode="&#xed;" horiz-adv-x="507" 
d="M209 1219h-25l152 206h182zM205 0v995l98 39v-1034h-98z" />
    <glyph glyph-name="icircumflex" unicode="&#xee;" horiz-adv-x="507" 
d="M276 1448l240 -221l-8 -13l-254 136l-254 -136l-8 13l239 221h45zM205 0v995l98 39v-1034h-98z" />
    <glyph glyph-name="idieresis" unicode="&#xef;" horiz-adv-x="507" 
d="M66 1212q-35 0 -58.5 22.5t-23.5 57.5t24.5 59.5t61.5 24.5q33 0 55 -23.5t22 -58t-22 -58.5t-59 -24zM442.5 1212q-34.5 0 -59.5 22.5t-25 59.5q0 35 25 58.5t61 23.5q33 0 55.5 -23.5t22.5 -58t-22.5 -58.5t-57 -24zM205 0v995l98 39v-1034h-98z" />
    <glyph glyph-name="eth" unicode="&#xf0;" horiz-adv-x="1296" 
d="M870 1341q145 -119 225.5 -306t80.5 -408q0 -307 -146.5 -477t-380.5 -170q-227 0 -378.5 152.5t-151.5 379.5t151.5 379.5t378.5 152.5q219 0 379 -143q-63 272 -203 416l-229 -125l-12 20l225 123q-121 115 -307 144l6 16q193 -25 344 -137l176 96l12 -20zM645 0
q190 0 307 143.5t117 374.5q0 229 -115.5 367.5t-306 138.5t-306.5 -140.5t-116 -371.5q0 -233 117 -372.5t303 -139.5z" />
    <glyph glyph-name="ntilde" unicode="&#xf1;" horiz-adv-x="1265" 
d="M492 1366q-41 0 -75 -34t-38 -89h-23q0 84 50.5 140.5t121.5 56.5q68 0 158 -82q57 -51 115 -51q43 0 75.5 33.5t36.5 89.5h23q0 -84 -50 -140.5t-124 -56.5q-14 0 -28.5 2t-30 9t-24.5 11.5t-23.5 15.5t-18.5 15t-19 17l-16 14q-55 49 -110 49zM711 1044
q166 0 272.5 -100t106.5 -254v-690h-99v715q0 129 -83 215t-210 86q-121 0 -233.5 -69.5t-161.5 -178.5v-768h-98v995l98 39v-219q53 100 165 164.5t243 64.5z" />
    <glyph glyph-name="ograve" unicode="&#xf2;" horiz-adv-x="1296" 
d="M692 1219l-309 206h182l152 -206h-25zM647 -20q-225 0 -376.5 152.5t-151.5 379.5t151.5 379.5t376.5 152.5t377 -152.5t152 -379.5t-152 -379.5t-377 -152.5zM647.5 0q190.5 0 306 140.5t115.5 371.5t-115.5 371.5t-306 140.5t-306.5 -140.5t-116 -371.5t116 -371.5
t306.5 -140.5z" />
    <glyph glyph-name="oacute" unicode="&#xf3;" horiz-adv-x="1296" 
d="M604 1219h-24l151 206h182zM647 -20q-225 0 -376.5 152.5t-151.5 379.5t151.5 379.5t376.5 152.5t377 -152.5t152 -379.5t-152 -379.5t-377 -152.5zM647.5 0q190.5 0 306 140.5t115.5 371.5t-115.5 371.5t-306 140.5t-306.5 -140.5t-116 -371.5t116 -371.5t306.5 -140.5z
" />
    <glyph glyph-name="ocircumflex" unicode="&#xf4;" horiz-adv-x="1296" 
d="M647 1350l-254 -136l-8 13l240 221h45l239 -221l-8 -13zM647 1044q225 0 377 -152.5t152 -379.5t-152 -379.5t-377 -152.5t-376.5 152.5t-151.5 379.5t151.5 379.5t376.5 152.5zM647.5 0q190.5 0 306 140.5t115.5 371.5t-115.5 371.5t-306 140.5t-306.5 -140.5
t-116 -371.5t116 -371.5t306.5 -140.5z" />
    <glyph glyph-name="otilde" unicode="&#xf5;" horiz-adv-x="1296" 
d="M762 1233q-14 0 -28.5 2t-30 9t-24.5 11.5t-23.5 15.5t-18.5 15t-19 17l-16 14q-55 49 -110 49q-41 0 -75 -34t-38 -89h-23q0 84 50.5 140.5t121.5 56.5q68 0 158 -82q57 -51 115 -51q43 0 75.5 33.5t36.5 89.5h23q0 -84 -50 -140.5t-124 -56.5zM647 -20
q-225 0 -376.5 152.5t-151.5 379.5t151.5 379.5t376.5 152.5t377 -152.5t152 -379.5t-152 -379.5t-377 -152.5zM647.5 0q190.5 0 306 140.5t115.5 371.5t-115.5 371.5t-306 140.5t-306.5 -140.5t-116 -371.5t116 -371.5t306.5 -140.5z" />
    <glyph glyph-name="odieresis" unicode="&#xf6;" horiz-adv-x="1296" 
d="M459 1212q-35 0 -58.5 22.5t-23.5 57.5t24.5 59.5t61.5 24.5q33 0 55.5 -23.5t22.5 -58t-22.5 -58.5t-59.5 -24zM835.5 1212q-34.5 0 -59 22.5t-24.5 59.5q0 35 24.5 58.5t61.5 23.5q33 0 55 -23.5t22 -58t-22.5 -58.5t-57 -24zM647 -20q-225 0 -376.5 152.5
t-151.5 379.5t151.5 379.5t376.5 152.5t377 -152.5t152 -379.5t-152 -379.5t-377 -152.5zM647.5 0q190.5 0 306 140.5t115.5 371.5t-115.5 371.5t-306 140.5t-306.5 -140.5t-116 -371.5t116 -371.5t306.5 -140.5z" />
    <glyph glyph-name="divide" unicode="&#xf7;" horiz-adv-x="1189" 
d="M598 819q-37 0 -62.5 23.5t-25.5 60.5t25.5 60.5t62.5 23.5q35 0 58.5 -23.5t23.5 -60.5t-23.5 -60.5t-58.5 -23.5zM184 604v21h820v-21h-820zM598 242q-37 0 -62.5 23.5t-25.5 60t25.5 60.5t62.5 24q35 0 58.5 -24t23.5 -60.5t-23.5 -60t-58.5 -23.5z" />
    <glyph glyph-name="oslash" unicode="&#xf8;" horiz-adv-x="1296" 
d="M987 926q188 -156 189 -414q0 -227 -152 -379.5t-377 -152.5q-182 0 -319 102l-80 -102h-33l92 118q-188 156 -188 414q0 227 151.5 379.5t376.5 152.5q182 0 320 -102l80 102h32zM225 512q0 -231 115 -371l596 762q-111 121 -289 121q-190 0 -306 -140.5t-116 -371.5z
M647 0q190 0 306 140.5t116 371.5t-115 371l-596 -762q111 -121 289 -121z" />
    <glyph glyph-name="ugrave" unicode="&#xf9;" horiz-adv-x="1259" 
d="M688 1219h-24l-310 206h183zM956 995l99 39v-1034h-99v209q-53 -100 -162.5 -164.5t-236.5 -64.5q-162 0 -268.5 101t-106.5 253v661l99 39v-725q0 -129 80.5 -215t205.5 -86q121 0 229.5 69.5t159.5 180.5v737z" />
    <glyph glyph-name="uacute" unicode="&#xfa;" horiz-adv-x="1259" 
d="M885 1425l-310 -206h-24l151 206h183zM956 995l99 39v-1034h-99v209q-53 -100 -162.5 -164.5t-236.5 -64.5q-162 0 -268.5 101t-106.5 253v661l99 39v-725q0 -129 80.5 -215t205.5 -86q121 0 229.5 69.5t159.5 180.5v737z" />
    <glyph glyph-name="ucircumflex" unicode="&#xfb;" horiz-adv-x="1259" 
d="M618 1350l-253 -136l-9 13l240 221h45l240 -221l-9 -13zM956 995l99 39v-1034h-99v209q-53 -100 -162.5 -164.5t-236.5 -64.5q-162 0 -268.5 101t-106.5 253v661l99 39v-725q0 -129 80.5 -215t205.5 -86q121 0 229.5 69.5t159.5 180.5v737z" />
    <glyph glyph-name="udieresis" unicode="&#xfc;" horiz-adv-x="1259" 
d="M430 1212q-35 0 -58.5 22.5t-23.5 57.5t24.5 59.5t61.5 24.5q33 0 55.5 -23.5t22.5 -58t-22.5 -58.5t-59.5 -24zM807 1212q-35 0 -59.5 22.5t-24.5 59.5q0 35 24.5 58.5t61.5 23.5q33 0 55.5 -23.5t22.5 -58t-22.5 -58.5t-57.5 -24zM956 995l99 39v-1034h-99v209
q-53 -100 -162.5 -164.5t-236.5 -64.5q-162 0 -268.5 101t-106.5 253v661l99 39v-725q0 -129 80.5 -215t205.5 -86q121 0 229.5 69.5t159.5 180.5v737z" />
    <glyph glyph-name="yacute" unicode="&#xfd;" horiz-adv-x="1067" 
d="M811 1425l-309 -206h-25l152 206h182zM989 1024h29l-606 -1380q-23 -53 -69 -84t-101 -31q-59 0 -103.5 36t-46.5 87v2q0 33 24.5 56.5t57.5 23.5q35 0 56.5 -22.5t21.5 -57.5t-21.5 -57.5t-56.5 -22.5h-6q29 -29 74 -29q43 0 85 28t64 77l133 305l-469 1069h101
l417 -954z" />
    <glyph glyph-name="thorn" unicode="&#xfe;" horiz-adv-x="1298" 
d="M672 1044q209 0 358.5 -153.5t149.5 -378.5t-148.5 -378.5t-359.5 -153.5q-227 0 -369 165v-596h-98v1907l98 39v-639q61 90 158.5 139t210.5 49zM668 -2q180 0 292.5 141.5t112.5 372.5q0 229 -112.5 371.5t-290.5 142.5q-225 0 -367 -209v-624q59 -92 155.5 -143.5
t209.5 -51.5z" />
    <glyph glyph-name="ydieresis" unicode="&#xff;" horiz-adv-x="1067" 
d="M356 1212q-35 0 -58.5 22.5t-23.5 57.5t25 59.5t61 24.5q33 0 55.5 -23.5t22.5 -58t-22.5 -58.5t-59.5 -24zM733 1212q-35 0 -59.5 22.5t-24.5 59.5q0 35 24.5 58.5t61.5 23.5q33 0 55.5 -23.5t22.5 -58t-22.5 -58.5t-57.5 -24zM989 1024h29l-606 -1380q-23 -53 -69 -84
t-101 -31q-59 0 -103.5 36t-46.5 87v2q0 33 24.5 56.5t57.5 23.5q35 0 56.5 -22.5t21.5 -57.5t-21.5 -57.5t-56.5 -22.5h-6q29 -29 74 -29q43 0 85 28t64 77l133 305l-469 1069h101l417 -954z" />
    <glyph glyph-name="Amacron" unicode="&#x100;" horiz-adv-x="1474" 
d="M971 1714v-49h-469v49h469zM1294 0l-200 459h-787l-201 -459h-28l629 1434h63l627 -1434h-103zM315 479h770l-385 879z" />
    <glyph glyph-name="amacron" unicode="&#x101;" horiz-adv-x="1175" 
d="M827 1325v-49h-469v49h469zM578 1044q186 0 303.5 -99t117.5 -249v-696h-98v156q-68 -78 -179.5 -127t-225.5 -49q-152 0 -260.5 83.5t-108.5 204.5q0 129 123 213t317 84q217 0 334 -67v229q0 129 -92 213t-240 84q-106 0 -194 -41t-125 -106q8 2 24 2q35 0 56.5 -22.5
t21.5 -57.5t-21.5 -57.5t-56 -22.5t-59.5 22.5t-25 57.5q0 104 114 174.5t274 70.5zM522 14q113 0 215.5 48.5t163.5 127.5v281q-102 74 -315 74q-168 0 -260.5 -71t-92.5 -195q0 -117 80 -191t209 -74z" />
    <glyph glyph-name="Abreve" unicode="&#x102;" horiz-adv-x="1474" 
d="M737 1599q-94 0 -169.5 62.5t-92.5 155.5h25q8 -55 76.5 -90t160.5 -35t161 34.5t77 90.5h24q-16 -92 -92 -155t-170 -63zM1294 0l-200 459h-787l-201 -459h-28l629 1434h63l627 -1434h-103zM315 479h770l-385 879z" />
    <glyph glyph-name="abreve" unicode="&#x103;" horiz-adv-x="1175" 
d="M594 1210q-94 0 -170 62.5t-92 154.5h24q8 -55 77 -89.5t161 -34.5t160.5 34.5t76.5 89.5h25q-16 -92 -92 -154.5t-170 -62.5zM578 1044q186 0 303.5 -99t117.5 -249v-696h-98v156q-68 -78 -179.5 -127t-225.5 -49q-152 0 -260.5 83.5t-108.5 204.5q0 129 123 213t317 84
q217 0 334 -67v229q0 129 -92 213t-240 84q-106 0 -194 -41t-125 -106q8 2 24 2q35 0 56.5 -22.5t21.5 -57.5t-21.5 -57.5t-56 -22.5t-59.5 22.5t-25 57.5q0 104 114 174.5t274 70.5zM522 14q113 0 215.5 48.5t163.5 127.5v281q-102 74 -315 74q-168 0 -260.5 -71
t-92.5 -195q0 -117 80 -191t209 -74z" />
    <glyph glyph-name="Aogonek" unicode="&#x104;" horiz-adv-x="1474" 
d="M1403 -350l16 -15q-51 -61 -155 -61q-74 0 -128.5 45t-54.5 109q0 72 79 149.5t198 122.5h-64l-200 459h-787l-201 -459h-28l629 1434h63l627 -1434h-4q-102 -53 -164 -125t-62 -141q0 -61 34 -98t91 -37q64 0 111 51zM315 479h770l-385 879z" />
    <glyph glyph-name="aogonek" unicode="&#x105;" horiz-adv-x="1175" 
d="M1010 -350l16 -15q-51 -61 -156 -61q-74 0 -128 45t-54 109q0 72 79 149.5t198 122.5h-64v156q-68 -78 -179.5 -127t-225.5 -49q-152 0 -260.5 83.5t-108.5 204.5q0 129 123 213t317 84q217 0 334 -67v229q0 129 -92 213t-240 84q-106 0 -194 -41t-125 -106q8 2 24 2
q35 0 56.5 -22.5t21.5 -57.5t-21.5 -57.5t-56 -22.5t-59.5 22.5t-25 57.5q0 104 114 174.5t274 70.5q186 0 303.5 -99t117.5 -249v-696q-102 -53 -163.5 -125t-61.5 -141q0 -61 34 -98t91 -37q64 0 111 51zM522 14q113 0 215.5 48.5t163.5 127.5v281q-102 74 -315 74
q-168 0 -260.5 -71t-92.5 -195q0 -117 80 -191t209 -74z" />
    <glyph glyph-name="Cacute" unicode="&#x106;" horiz-adv-x="1558" 
d="M1126 1815l-309 -207h-24l151 207h182zM1413 274l25 -12q-68 -125 -222.5 -203.5t-349.5 -78.5q-319 0 -533 210.5t-214 526.5q0 313 213 525t536 212q231 0 391 -106.5t160 -253.5q0 -33 -21.5 -55.5t-54.5 -22.5q-35 0 -58 22.5t-23 55t23.5 55t57.5 22.5q14 0 21 -2
q-37 119 -170 193t-324 74q-293 0 -469 -198t-176 -519q0 -324 178.5 -522.5t462.5 -198.5q182 0 326.5 73.5t220.5 202.5z" />
    <glyph glyph-name="cacute" unicode="&#x107;" horiz-adv-x="1150" 
d="M883 1425l-310 -206h-24l151 206h183zM1008 174l24 -12q-39 -80 -141.5 -131t-235.5 -51q-233 0 -384.5 153.5t-151.5 378.5q0 227 152.5 379.5t381.5 152.5q156 0 261.5 -69.5t105.5 -175.5q0 -33 -22.5 -55.5t-55.5 -22.5q-37 0 -60.5 21.5t-23.5 56.5t23.5 57.5
t60.5 22.5q14 0 21 -2q-33 70 -117 110.5t-197 40.5q-195 0 -309.5 -141.5t-114.5 -374.5q0 -231 117 -373.5t305 -142.5q119 0 219.5 49t141.5 129z" />
    <glyph glyph-name="Ccircumflex" unicode="&#x108;" horiz-adv-x="1558" 
d="M862 1739l-254 -135l-8 12l240 221h45l239 -221l-8 -12zM1413 274l25 -12q-68 -125 -222.5 -203.5t-349.5 -78.5q-319 0 -533 210.5t-214 526.5q0 313 213 525t536 212q231 0 391 -106.5t160 -253.5q0 -33 -21.5 -55.5t-54.5 -22.5q-35 0 -58 22.5t-23 55t23.5 55
t57.5 22.5q14 0 21 -2q-37 119 -170 193t-324 74q-293 0 -469 -198t-176 -519q0 -324 178.5 -522.5t462.5 -198.5q182 0 326.5 73.5t220.5 202.5z" />
    <glyph glyph-name="ccircumflex" unicode="&#x109;" horiz-adv-x="1150" 
d="M616 1350l-254 -136l-8 13l240 221h45l240 -221l-9 -13zM1008 174l24 -12q-39 -80 -141.5 -131t-235.5 -51q-233 0 -384.5 153.5t-151.5 378.5q0 227 152.5 379.5t381.5 152.5q156 0 261.5 -69.5t105.5 -175.5q0 -33 -22.5 -55.5t-55.5 -22.5q-37 0 -60.5 21.5
t-23.5 56.5t23.5 57.5t60.5 22.5q14 0 21 -2q-33 70 -117 110.5t-197 40.5q-195 0 -309.5 -141.5t-114.5 -374.5q0 -231 117 -373.5t305 -142.5q119 0 219.5 49t141.5 129z" />
    <glyph glyph-name="Cdotaccent" unicode="&#x10a;" horiz-adv-x="1558" 
d="M862 1599q-37 0 -62.5 24t-25.5 60.5t25.5 61t64.5 24.5q37 0 61.5 -24.5t24.5 -61t-24.5 -60.5t-63.5 -24zM1413 274l25 -12q-68 -125 -222.5 -203.5t-349.5 -78.5q-319 0 -533 210.5t-214 526.5q0 313 213 525t536 212q231 0 391 -106.5t160 -253.5q0 -33 -21.5 -55.5
t-54.5 -22.5q-35 0 -58 22.5t-23 55t23.5 55t57.5 22.5q14 0 21 -2q-37 119 -170 193t-324 74q-293 0 -469 -198t-176 -519q0 -324 178.5 -522.5t462.5 -198.5q182 0 326.5 73.5t220.5 202.5z" />
    <glyph glyph-name="cdotaccent" unicode="&#x10b;" horiz-adv-x="1150" 
d="M616 1210q-37 0 -62.5 23.5t-25.5 60.5t26 61.5t64 24.5q37 0 62 -24.5t25 -61.5t-25 -60.5t-64 -23.5zM1008 174l24 -12q-39 -80 -141.5 -131t-235.5 -51q-233 0 -384.5 153.5t-151.5 378.5q0 227 152.5 379.5t381.5 152.5q156 0 261.5 -69.5t105.5 -175.5
q0 -33 -22.5 -55.5t-55.5 -22.5q-37 0 -60.5 21.5t-23.5 56.5t23.5 57.5t60.5 22.5q14 0 21 -2q-33 70 -117 110.5t-197 40.5q-195 0 -309.5 -141.5t-114.5 -374.5q0 -231 117 -373.5t305 -142.5q119 0 219.5 49t141.5 129z" />
    <glyph glyph-name="Ccaron" unicode="&#x10c;" horiz-adv-x="1558" 
d="M885 1597h-45l-240 222l8 12l254 -135l254 135l8 -12zM1413 274l25 -12q-68 -125 -222.5 -203.5t-349.5 -78.5q-319 0 -533 210.5t-214 526.5q0 313 213 525t536 212q231 0 391 -106.5t160 -253.5q0 -33 -21.5 -55.5t-54.5 -22.5q-35 0 -58 22.5t-23 55t23.5 55
t57.5 22.5q14 0 21 -2q-37 119 -170 193t-324 74q-293 0 -469 -198t-176 -519q0 -324 178.5 -522.5t462.5 -198.5q182 0 326.5 73.5t220.5 202.5z" />
    <glyph glyph-name="ccaron" unicode="&#x10d;" horiz-adv-x="1150" 
d="M639 1208h-45l-240 222l8 12l254 -135l254 135l9 -12zM1008 174l24 -12q-39 -80 -141.5 -131t-235.5 -51q-233 0 -384.5 153.5t-151.5 378.5q0 227 152.5 379.5t381.5 152.5q156 0 261.5 -69.5t105.5 -175.5q0 -33 -22.5 -55.5t-55.5 -22.5q-37 0 -60.5 21.5t-23.5 56.5
t23.5 57.5t60.5 22.5q14 0 21 -2q-33 70 -117 110.5t-197 40.5q-195 0 -309.5 -141.5t-114.5 -374.5q0 -231 117 -373.5t305 -142.5q119 0 219.5 49t141.5 129z" />
    <glyph glyph-name="Dcaron" unicode="&#x10e;" horiz-adv-x="1601" 
d="M815 1597h-45l-240 222l9 12l254 -135l254 135l8 -12zM729 1434q322 0 538 -206t216 -511t-216 -511t-538 -206h-504v1434h504zM713 20q299 0 481 190.5t182 506t-182 506t-481 190.5h-389v-1393h389z" />
    <glyph glyph-name="dcaron" unicode="&#x10f;" horiz-adv-x="1402" 
d="M995 856v600l99 39v-1495h-99v145q-139 -166 -368 -165q-211 0 -359.5 153.5t-148.5 378.5t150.5 378.5t359.5 153.5q113 0 209 -49t157 -139zM1284 1475h131l-145 -248h-27zM633 -2q111 0 206 51t156 141v627q-137 209 -364 209q-180 0 -293 -141.5t-113 -372.5
t113 -372.5t295 -141.5z" />
    <glyph glyph-name="Dcroat" unicode="&#x110;" horiz-adv-x="1601" 
d="M729 1434q322 0 538 -206t216 -511t-216 -511t-538 -206h-504v707h-151v20h151v707h504zM713 20q299 0 481 190.5t182 506t-182 506t-481 190.5h-389v-686h264v-20h-264v-687h389z" />
    <glyph glyph-name="dcroat" unicode="&#x111;" horiz-adv-x="1298" 
d="M1237 1260v-21h-143v-1239h-99v145q-139 -166 -368 -165q-211 0 -359.5 153.5t-148.5 378.5t150.5 378.5t359.5 153.5q113 0 209 -49t157 -139v383h-272v21h272v196l99 39v-235h143zM633 -2q111 0 206 51t156 141v627q-137 209 -364 209q-178 0 -292 -142.5t-114 -371.5
q0 -231 113 -372.5t295 -141.5z" />
    <glyph glyph-name="Emacron" unicode="&#x112;" horiz-adv-x="1304" 
d="M969 1714v-49h-469v49h469zM324 20h882v-20h-981v1434h961v-21h-862v-676h698v-20h-698v-697z" />
    <glyph glyph-name="emacron" unicode="&#x113;" 
d="M858 1325v-49h-469v49h469zM1008 324q33 0 55 -24t22 -56q0 -111 -122.5 -187.5t-292.5 -76.5q-240 0 -395.5 152.5t-155.5 379.5t151.5 379.5t368.5 152.5q207 0 339 -139t132 -348h-885v-39q0 -233 120 -376.5t323 -143.5q125 0 223 46t135 122q-6 -2 -20 -2
q-35 0 -58.5 21.5t-23.5 58.5q0 35 23.5 57.5t60.5 22.5zM635 1024q-170 0 -280.5 -122t-127.5 -324h772q-4 201 -102 323.5t-262 122.5z" />
    <glyph glyph-name="Ebreve" unicode="&#x114;" horiz-adv-x="1304" 
d="M735 1599q-94 0 -170 62.5t-92 155.5h25q8 -55 76.5 -90t160.5 -35t161 34.5t77 90.5h24q-16 -92 -92 -155t-170 -63zM324 20h882v-20h-981v1434h961v-21h-862v-676h698v-20h-698v-697z" />
    <glyph glyph-name="ebreve" unicode="&#x115;" 
d="M624.5 1210q-94.5 0 -170 62.5t-92.5 154.5h25q8 -55 76.5 -89.5t161 -34.5t161 34.5t76.5 89.5h25q-16 -92 -92 -154.5t-170.5 -62.5zM1008 324q33 0 55 -24t22 -56q0 -111 -122.5 -187.5t-292.5 -76.5q-240 0 -395.5 152.5t-155.5 379.5t151.5 379.5t368.5 152.5
q207 0 339 -139t132 -348h-885v-39q0 -233 120 -376.5t323 -143.5q125 0 223 46t135 122q-6 -2 -20 -2q-35 0 -58.5 21.5t-23.5 58.5q0 35 23.5 57.5t60.5 22.5zM635 1024q-170 0 -280.5 -122t-127.5 -324h772q-4 201 -102 323.5t-262 122.5z" />
    <glyph glyph-name="Edotaccent" unicode="&#x116;" horiz-adv-x="1304" 
d="M735 1599q-37 0 -62.5 24t-25.5 60.5t25.5 61t64.5 24.5q37 0 61.5 -24.5t24.5 -61t-24.5 -60.5t-63.5 -24zM324 20h882v-20h-981v1434h961v-21h-862v-676h698v-20h-698v-697z" />
    <glyph glyph-name="edotaccent" unicode="&#x117;" 
d="M625 1210q-37 0 -62.5 23.5t-25.5 60.5t25.5 61.5t64.5 24.5q37 0 61.5 -24.5t24.5 -61.5t-24.5 -60.5t-63.5 -23.5zM1008 324q33 0 55 -24t22 -56q0 -111 -122.5 -187.5t-292.5 -76.5q-240 0 -395.5 152.5t-155.5 379.5t151.5 379.5t368.5 152.5q207 0 339 -139
t132 -348h-885v-39q0 -233 120 -376.5t323 -143.5q125 0 223 46t135 122q-6 -2 -20 -2q-35 0 -58.5 21.5t-23.5 58.5q0 35 23.5 57.5t60.5 22.5zM635 1024q-170 0 -280.5 -122t-127.5 -324h772q-4 201 -102 323.5t-262 122.5z" />
    <glyph glyph-name="Eogonek" unicode="&#x118;" horiz-adv-x="1304" 
d="M1214 -350l17 -15q-51 -61 -156 -61q-74 0 -128 45t-54 109q0 72 79 149.5t197 122.5h-944v1434h961v-21h-862v-676h698v-20h-698v-697h882v-20h-2q-102 -53 -163.5 -125t-61.5 -141q0 -61 34 -98t91 -37q63 0 110 51z" />
    <glyph glyph-name="eogonek" unicode="&#x119;" 
d="M1008 324q33 0 55 -24t22 -56q0 -82 -69.5 -147.5t-181.5 -96.5q-102 -53 -164 -125t-62 -141q0 -61 34 -98t91 -37q63 0 111 51l16 -15q-51 -61 -155 -61q-74 0 -128.5 45t-54.5 109q0 66 68.5 138.5t175.5 121.5q-41 -8 -96 -8q-240 0 -395.5 152.5t-155.5 379.5
t151.5 379.5t368.5 152.5q207 0 339 -139t132 -348h-885v-39q0 -233 120 -376.5t323 -143.5q125 0 223 46t135 122q-6 -2 -20 -2q-35 0 -58.5 21.5t-23.5 58.5q0 35 23.5 57.5t60.5 22.5zM635 1024q-170 0 -280.5 -122t-127.5 -324h772q-4 201 -102 323.5t-262 122.5z" />
    <glyph glyph-name="Ecaron" unicode="&#x11a;" horiz-adv-x="1304" 
d="M758 1597h-45l-240 222l8 12l254 -135l254 135l8 -12zM324 20h882v-20h-981v1434h961v-21h-862v-676h698v-20h-698v-697z" />
    <glyph glyph-name="ecaron" unicode="&#x11b;" 
d="M647 1208h-45l-240 222l9 12l254 -135l254 135l8 -12zM1008 324q33 0 55 -24t22 -56q0 -111 -122.5 -187.5t-292.5 -76.5q-240 0 -395.5 152.5t-155.5 379.5t151.5 379.5t368.5 152.5q207 0 339 -139t132 -348h-885v-39q0 -233 120 -376.5t323 -143.5q125 0 223 46
t135 122q-6 -2 -20 -2q-35 0 -58.5 21.5t-23.5 58.5q0 35 23.5 57.5t60.5 22.5zM635 1024q-170 0 -280.5 -122t-127.5 -324h772q-4 201 -102 323.5t-262 122.5z" />
    <glyph glyph-name="Gcircumflex" unicode="&#x11c;" horiz-adv-x="1646" 
d="M866 1739l-254 -135l-8 12l240 221h45l239 -221l-8 -12zM1348 606h100v-606h-21l-81 143q-68 -76 -194 -119.5t-275 -43.5q-326 0 -542 210.5t-216 526t216 526.5t546 211q225 0 380.5 -97t155.5 -241q0 -33 -21.5 -55.5t-54.5 -22.5q-35 0 -58 22.5t-23 55.5t23.5 55.5
t57.5 22.5q12 0 19 -2q-35 111 -163 177.5t-312 66.5q-301 0 -480.5 -198t-179.5 -517q0 -324 184.5 -521.5t487.5 -197.5q162 0 281.5 56.5t169.5 150.5v397z" />
    <glyph glyph-name="gcircumflex" unicode="&#x11d;" horiz-adv-x="1288" 
d="M639 1350l-254 -136l-8 13l239 221h46l239 -221l-8 -13zM995 995l99 39v-1116q0 -168 -130 -278.5t-335 -110.5q-174 0 -294 77t-120 191q0 35 23.5 57.5t60.5 22.5q35 0 56.5 -22.5t21.5 -57.5t-21.5 -57.5t-56.5 -22.5q-18 0 -27 2q35 -78 132.5 -125t220.5 -47
q164 0 267 96.5t103 243.5v258q-139 -166 -368 -165q-211 0 -359.5 153.5t-148.5 378.5t150.5 378.5t359.5 153.5q113 0 209 -49t157 -139v139zM633 -2q111 0 206 51t156 141v627q-137 209 -364 209q-178 0 -292 -142.5t-114 -371.5q0 -231 113 -372.5t295 -141.5z" />
    <glyph glyph-name="Gbreve" unicode="&#x11e;" horiz-adv-x="1646" 
d="M866.5 1599q-94.5 0 -170 62.5t-92.5 155.5h25q8 -55 76.5 -90t160.5 -35t161 34.5t77 90.5h24q-16 -92 -91.5 -155t-170 -63zM1348 606h100v-606h-21l-81 143q-68 -76 -194 -119.5t-275 -43.5q-326 0 -542 210.5t-216 526t216 526.5t546 211q225 0 380.5 -97t155.5 -241
q0 -33 -21.5 -55.5t-54.5 -22.5q-35 0 -58 22.5t-23 55.5t23.5 55.5t57.5 22.5q12 0 19 -2q-35 111 -163 177.5t-312 66.5q-301 0 -480.5 -198t-179.5 -517q0 -324 184.5 -521.5t487.5 -197.5q162 0 281.5 56.5t169.5 150.5v397z" />
    <glyph glyph-name="gbreve" unicode="&#x11f;" horiz-adv-x="1288" 
d="M639 1210q-94 0 -170 62.5t-92 154.5h24q8 -55 77 -89.5t161 -34.5t160.5 34.5t77.5 89.5h24q-16 -92 -92 -154.5t-170 -62.5zM995 995l99 39v-1116q0 -168 -130 -278.5t-335 -110.5q-174 0 -294 77t-120 191q0 35 23.5 57.5t60.5 22.5q35 0 56.5 -22.5t21.5 -57.5
t-21.5 -57.5t-56.5 -22.5q-18 0 -27 2q35 -78 132.5 -125t220.5 -47q164 0 267 96.5t103 243.5v258q-139 -166 -368 -165q-211 0 -359.5 153.5t-148.5 378.5t150.5 378.5t359.5 153.5q113 0 209 -49t157 -139v139zM633 -2q111 0 206 51t156 141v627q-137 209 -364 209
q-178 0 -292 -142.5t-114 -371.5q0 -231 113 -372.5t295 -141.5z" />
    <glyph glyph-name="Gdotaccent" unicode="&#x120;" horiz-adv-x="1646" 
d="M866 1599q-37 0 -62.5 24t-25.5 60.5t25.5 61t64.5 24.5q37 0 61.5 -24.5t24.5 -61t-24.5 -60.5t-63.5 -24zM1348 606h100v-606h-21l-81 143q-68 -76 -194 -119.5t-275 -43.5q-326 0 -542 210.5t-216 526t216 526.5t546 211q225 0 380.5 -97t155.5 -241
q0 -33 -21.5 -55.5t-54.5 -22.5q-35 0 -58 22.5t-23 55.5t23.5 55.5t57.5 22.5q12 0 19 -2q-35 111 -163 177.5t-312 66.5q-301 0 -480.5 -198t-179.5 -517q0 -324 184.5 -521.5t487.5 -197.5q162 0 281.5 56.5t169.5 150.5v397z" />
    <glyph glyph-name="gdotaccent" unicode="&#x121;" horiz-adv-x="1288" 
d="M637 1210q-37 0 -62.5 23.5t-25.5 60.5t25.5 61.5t64.5 24.5q37 0 61.5 -24.5t24.5 -61.5t-24.5 -60.5t-63.5 -23.5zM995 995l99 39v-1116q0 -168 -130 -278.5t-335 -110.5q-174 0 -294 77t-120 191q0 35 23.5 57.5t60.5 22.5q35 0 56.5 -22.5t21.5 -57.5t-21.5 -57.5
t-56.5 -22.5q-18 0 -27 2q35 -78 132.5 -125t220.5 -47q164 0 267 96.5t103 243.5v258q-139 -166 -368 -165q-211 0 -359.5 153.5t-148.5 378.5t150.5 378.5t359.5 153.5q113 0 209 -49t157 -139v139zM633 -2q111 0 206 51t156 141v627q-137 209 -364 209
q-178 0 -292 -142.5t-114 -371.5q0 -231 113 -372.5t295 -141.5z" />
    <glyph glyph-name="uni0122" unicode="&#x122;" horiz-adv-x="1646" 
d="M1348 606h100v-606h-21l-81 143q-68 -76 -194 -119.5t-275 -43.5q-326 0 -542 210.5t-216 526t216 526.5t546 211q225 0 380.5 -97t155.5 -241q0 -33 -21.5 -55.5t-54.5 -22.5q-35 0 -58 22.5t-23 55.5t23.5 55.5t57.5 22.5q12 0 19 -2q-35 111 -163 177.5t-312 66.5
q-301 0 -480.5 -198t-179.5 -517q0 -324 184.5 -521.5t487.5 -197.5q162 0 281.5 56.5t169.5 150.5v397zM864 -168q41 0 66.5 -26.5t25.5 -71.5q0 -61 -41 -127t-94 -96l-10 16q39 23 67.5 65.5t32.5 85.5q-16 -16 -51 -16q-37 0 -61.5 25.5t-24.5 64.5q0 33 25.5 56.5
t64.5 23.5z" />
    <glyph glyph-name="uni0123" unicode="&#x123;" horiz-adv-x="1288" 
d="M639 1180q-39 0 -65.5 27.5t-26.5 72.5q0 61 41 127t94 94l10 -16q-39 -20 -67.5 -63.5t-32.5 -86.5q16 16 53 17q35 0 59.5 -26t24.5 -64q0 -35 -25.5 -58.5t-64.5 -23.5zM995 995l99 39v-1116q0 -168 -130 -278.5t-335 -110.5q-174 0 -294 77t-120 191q0 35 23.5 57.5
t60.5 22.5q35 0 56.5 -22.5t21.5 -57.5t-21.5 -57.5t-56.5 -22.5q-18 0 -27 2q35 -78 132.5 -125t220.5 -47q164 0 267 96.5t103 243.5v258q-139 -166 -368 -165q-211 0 -359.5 153.5t-148.5 378.5t150.5 378.5t359.5 153.5q113 0 209 -49t157 -139v139zM633 -2
q111 0 206 51t156 141v627q-137 209 -364 209q-178 0 -292 -142.5t-114 -371.5q0 -231 113 -372.5t295 -141.5z" />
    <glyph glyph-name="Hcircumflex" unicode="&#x124;" horiz-adv-x="1601" 
d="M801 1739l-254 -135l-8 12l239 221h45l240 -221l-8 -12zM1278 1434h98v-1434h-98v717h-954v-717h-99v1434h99v-697h954v697z" />
    <glyph glyph-name="hcircumflex" unicode="&#x125;" horiz-adv-x="1265" 
d="M514 1665l-254 135l-254 -135l-8 12l240 221h45l239 -221zM711 1044q166 0 272.5 -100t106.5 -254v-690h-99v715q0 129 -83 215t-210 86q-121 0 -233.5 -69.5t-161.5 -178.5v-768h-98v1456l98 39v-680q53 100 165 164.5t243 64.5z" />
    <glyph glyph-name="Hbar" unicode="&#x126;" horiz-adv-x="1601" 
d="M1528 1075v-20h-152v-1055h-98v717h-954v-717h-99v1055h-153v20h153v359h99v-359h954v359h98v-359h152zM1278 737v318h-954v-318h954z" />
    <glyph glyph-name="hbar" unicode="&#x127;" horiz-adv-x="1265" 
d="M711 1044q166 0 272.5 -100t106.5 -254v-690h-99v715q0 129 -83 215t-210 86q-121 0 -233.5 -69.5t-161.5 -178.5v-768h-98v1239h-148v21h148v196l98 39v-235h268v-21h-268v-424q53 100 165 164.5t243 64.5z" />
    <glyph glyph-name="Itilde" unicode="&#x128;" horiz-adv-x="548" 
d="M389 1622q-14 0 -28.5 2t-30 9t-24.5 11.5t-23.5 15.5t-18.5 15t-18 17l-17 14q-55 49 -110 49q-41 0 -75 -33.5t-38 -89.5h-22q0 84 50 140.5t122 56.5q68 0 157 -82q57 -51 115 -51q43 0 76 33.5t37 89.5h22q0 -84 -50 -140.5t-124 -56.5zM225 0v1434h99v-1434h-99z
" />
    <glyph glyph-name="itilde" unicode="&#x129;" horiz-adv-x="507" 
d="M369 1233q-14 0 -28.5 2t-30 9t-25 11.5t-23.5 15.5t-18 15t-19 17l-16 14q-55 49 -111 49q-41 0 -74.5 -34t-37.5 -89h-23q0 84 50 140.5t122 56.5q68 0 158 -82q57 -51 115 -51q43 0 75.5 33.5t36.5 89.5h23q0 -84 -50 -140.5t-124 -56.5zM205 0v995l98 39v-1034h-98z
" />
    <glyph glyph-name="Imacron" unicode="&#x12a;" horiz-adv-x="548" 
d="M39 1665v49h469v-49h-469zM225 0v1434h99v-1434h-99z" />
    <glyph glyph-name="imacron" unicode="&#x12b;" horiz-adv-x="507" 
d="M18 1276v49h469v-49h-469zM205 0v995l98 39v-1034h-98z" />
    <glyph glyph-name="Ibreve" unicode="&#x12c;" horiz-adv-x="548" 
d="M274.5 1599q-94.5 0 -170 62.5t-92.5 155.5h25q8 -55 76.5 -90t161 -35t161 34.5t76.5 90.5h25q-16 -92 -92 -155t-170.5 -63zM225 0v1434h99v-1434h-99z" />
    <glyph glyph-name="ibreve" unicode="&#x12d;" horiz-adv-x="507" 
d="M254 1210q-94 0 -170 62.5t-92 154.5h24q8 -55 77 -89.5t161 -34.5t160.5 34.5t77.5 89.5h24q-16 -92 -92 -154.5t-170 -62.5zM205 0v995l98 39v-1034h-98z" />
    <glyph glyph-name="Iogonek" unicode="&#x12e;" horiz-adv-x="548" 
d="M332 -350l16 -15q-51 -61 -155 -61q-74 0 -128.5 45t-54.5 109q0 72 79 149.5t198 122.5h-62v1434h99v-1434h-2q-102 -53 -164 -125t-62 -141q0 -61 34 -98t91 -37q64 0 111 51z" />
    <glyph glyph-name="iogonek" unicode="&#x12f;" horiz-adv-x="507" 
d="M254 1210q-37 0 -62.5 23.5t-25.5 60.5t25.5 61.5t64.5 24.5q37 0 61.5 -24.5t24.5 -61.5t-24.5 -60.5t-63.5 -23.5zM201 -401q63 0 110 51l17 -15q-51 -61 -156 -61q-74 0 -128 45t-54 109q0 72 78.5 149.5t197.5 122.5h-61v995l98 39v-1034h-2q-102 -53 -163.5 -125
t-61.5 -141q0 -61 34 -98t91 -37z" />
    <glyph glyph-name="Idotaccent" unicode="&#x130;" horiz-adv-x="548" 
d="M274 1599q-37 0 -62.5 24t-25.5 60.5t26 61t64 24.5q37 0 61.5 -24.5t24.5 -61t-24.5 -60.5t-63.5 -24zM225 0v1434h99v-1434h-99z" />
    <glyph glyph-name="dotlessi" unicode="&#x131;" horiz-adv-x="507" 
d="M205 0v995l98 39v-1034h-98z" />
    <glyph glyph-name="IJ" unicode="&#x132;" horiz-adv-x="1777" 
d="M225 0v1434h99v-1434h-99zM1470 1434h99v-979q0 -225 -130 -350t-335 -125q-195 0 -324 97t-129 242q0 33 23.5 55.5t58.5 22.5q33 0 54.5 -22.5t21.5 -55t-21.5 -55t-54.5 -22.5q-18 0 -35 6q29 -115 139.5 -182.5t264.5 -67.5q174 0 271 115.5t97 310.5v1010z" />
    <glyph glyph-name="ij" unicode="&#x133;" horiz-adv-x="1017" 
d="M254 1409q33 0 53.5 -21.5t20.5 -54.5t-20.5 -54.5t-53.5 -21.5q-35 0 -56.5 21.5t-21.5 54.5t21.5 54.5t56.5 21.5zM770 1409q31 0 52.5 -21.5t21.5 -54.5t-21.5 -54.5t-52.5 -21.5q-35 0 -57.5 21.5t-22.5 54.5t22.5 54.5t57.5 21.5zM205 0v995l98 39v-1034h-98z
M719 -242v1237l98 39v-1227q0 -121 -83 -199.5t-204 -78.5q-88 0 -147 46t-59 114q0 35 22.5 58.5t56.5 23.5q37 0 60.5 -23.5t23.5 -58.5t-23.5 -58.5t-60.5 -23.5q-14 0 -20 2q55 -61 143 -62q86 0 139.5 60.5t53.5 150.5z" />
    <glyph glyph-name="Jcircumflex" unicode="&#x134;" 
d="M995 1837l240 -221l-8 -12l-254 135l-254 -135l-8 12l239 221h45zM922 424v1010h98v-979q0 -225 -130 -350t-335 -125q-195 0 -324 97t-129 242q0 33 24 55.5t58 22.5q33 0 54.5 -22.5t21.5 -55t-21.5 -55t-54.5 -22.5q-20 0 -34 6q29 -115 139 -182.5t264 -67.5
q174 0 271.5 115.5t97.5 310.5z" />
    <glyph glyph-name="jcircumflex" unicode="&#x135;" horiz-adv-x="505" 
d="M283 1448l239 -221l-8 -13l-254 136l-254 -136l-8 13l240 221h45zM215 -242v1237l98 39v-1227q0 -121 -83 -199.5t-203 -78.5q-88 0 -147.5 46t-59.5 114q0 35 22.5 58.5t57.5 23.5q37 0 60.5 -23.5t23.5 -58.5t-23.5 -58.5t-60.5 -23.5q-14 0 -21 2q55 -61 144 -62
q86 0 139 60.5t53 150.5z" />
    <glyph glyph-name="uni0136" unicode="&#x136;" horiz-adv-x="1370" 
d="M651 858l684 -858h-116l-633 797l-262 -236v-561h-99v1434h99v-834l925 834h43zM780 -168q41 0 66.5 -26.5t25.5 -71.5q0 -61 -40.5 -127t-94.5 -96l-10 16q39 23 67.5 65.5t32.5 85.5q-16 -16 -51 -16q-37 0 -61.5 25.5t-24.5 64.5q0 33 25.5 56.5t64.5 23.5z" />
    <glyph glyph-name="uni0137" unicode="&#x137;" horiz-adv-x="1005" 
d="M485 633l504 -633h-123l-448 571l-115 -104v-467h-98v1456l98 39v-989l569 518h43zM602 -168q41 0 66.5 -26.5t25.5 -71.5q0 -61 -41 -127t-94 -96l-10 16q39 23 67.5 65.5t32.5 85.5q-16 -16 -51 -16q-37 0 -61.5 25.5t-24.5 64.5q0 33 25.5 56.5t64.5 23.5z" />
    <glyph glyph-name="kgreenlandic" unicode="&#x138;" horiz-adv-x="1005" 
d="M866 0l-454 516l-109 -108v-408h-98v995l98 39v-588l569 578h43l-438 -440l512 -584h-123z" />
    <glyph glyph-name="Lacute" unicode="&#x139;" horiz-adv-x="1243" 
d="M545 1815l-309 -207h-25l151 207h183zM324 20h831v-20h-930v1434h99v-1414z" />
    <glyph glyph-name="lacute" unicode="&#x13a;" horiz-adv-x="507" 
d="M209 1669h-25l152 207h182zM205 0v1456l98 39v-1495h-98z" />
    <glyph glyph-name="uni013B" unicode="&#x13b;" horiz-adv-x="1243" 
d="M324 20h831v-20h-930v1434h99v-1414zM688 -168q41 0 66.5 -26.5t25.5 -71.5q0 -61 -41 -127t-94 -96l-10 16q39 23 67.5 65.5t32.5 85.5q-16 -16 -51 -16q-37 0 -61.5 25.5t-24.5 64.5q0 33 25.5 56.5t64.5 23.5z" />
    <glyph glyph-name="uni013C" unicode="&#x13c;" horiz-adv-x="507" 
d="M303 1495v-1495h-98v1456zM252 -168q41 0 66.5 -26.5t25.5 -71.5q0 -61 -41 -127t-94 -96l-10 16q39 23 67.5 65.5t32.5 85.5q-16 -16 -51 -16q-37 0 -61.5 25.5t-24.5 64.5q0 33 25.5 56.5t64.5 23.5z" />
    <glyph glyph-name="Lcaron" unicode="&#x13d;" horiz-adv-x="1243" 
d="M324 20h831v-20h-930v1434h99v-1414zM719 1434l-146 -248h-26l41 248h131z" />
    <glyph glyph-name="lcaron" unicode="&#x13e;" horiz-adv-x="610" 
d="M205 0v1456l98 39v-1495h-98zM451 1227l41 248h131l-146 -248h-26z" />
    <glyph glyph-name="Ldot" unicode="&#x13f;" horiz-adv-x="1243" 
d="M324 20h831v-20h-930v1434h99v-1414zM762 625q-39 0 -66.5 26.5t-27.5 65.5q0 41 26.5 67.5t67.5 26.5q39 0 64.5 -26.5t25.5 -67.5q0 -39 -25.5 -65.5t-64.5 -26.5z" />
    <glyph glyph-name="ldot" unicode="&#x140;" horiz-adv-x="669" 
d="M205 0v1456l98 39v-1495h-98zM522 645q-39 0 -66.5 26.5t-27.5 65.5q0 41 27.5 67.5t66.5 26.5t64.5 -26.5t25.5 -67.5q0 -39 -25.5 -65.5t-64.5 -26.5z" />
    <glyph glyph-name="Lslash" unicode="&#x141;" horiz-adv-x="1263" 
d="M344 20h832v-20h-930v623l-168 -93l-12 21l180 98v785h98v-732l229 125l13 -20l-242 -131v-656z" />
    <glyph glyph-name="lslash" unicode="&#x142;" horiz-adv-x="638" 
d="M584 872l-215 -116v-756h-99v702l-202 -110l-13 20l215 117v727l99 39v-713l202 111z" />
    <glyph glyph-name="Nacute" unicode="&#x143;" horiz-adv-x="1611" 
d="M1090 1815l-310 -207h-24l151 207h183zM1358 1434h28v-1434h-69l-1063 1409v-1409h-29v1434h137l996 -1319v1319z" />
    <glyph glyph-name="nacute" unicode="&#x144;" horiz-adv-x="1265" 
d="M913 1425l-309 -206h-24l151 206h182zM711 1044q166 0 272.5 -100t106.5 -254v-690h-99v715q0 129 -83 215t-210 86q-121 0 -233.5 -69.5t-161.5 -178.5v-768h-98v995l98 39v-219q53 100 165 164.5t243 64.5z" />
    <glyph glyph-name="uni0145" unicode="&#x145;" horiz-adv-x="1611" 
d="M1358 1434h28v-1434h-69l-1063 1409v-1409h-29v1434h137l996 -1319v1319zM823 -168q41 0 66.5 -26.5t25.5 -71.5q0 -61 -40.5 -127t-94.5 -96l-10 16q39 23 67.5 65.5t32.5 85.5q-16 -16 -51 -16q-37 0 -61.5 25.5t-24.5 64.5q0 33 25.5 56.5t64.5 23.5z" />
    <glyph glyph-name="uni0146" unicode="&#x146;" horiz-adv-x="1265" 
d="M711 1044q166 0 272.5 -100t106.5 -254v-690h-99v715q0 129 -83 215t-210 86q-121 0 -233.5 -69.5t-161.5 -178.5v-768h-98v995l98 39v-219q53 100 165 164.5t243 64.5zM647 -168q41 0 66.5 -26.5t25.5 -71.5q0 -61 -41 -127t-94 -96l-10 16q39 23 67.5 65.5t32.5 85.5
q-16 -16 -51 -16q-37 0 -61.5 25.5t-24.5 64.5q0 33 25.5 56.5t64.5 23.5z" />
    <glyph glyph-name="Ncaron" unicode="&#x147;" horiz-adv-x="1611" 
d="M846 1597h-45l-240 222l8 12l254 -135l254 135l8 -12zM1358 1434h28v-1434h-69l-1063 1409v-1409h-29v1434h137l996 -1319v1319z" />
    <glyph glyph-name="ncaron" unicode="&#x148;" horiz-adv-x="1265" 
d="M670 1208h-45l-240 222l8 12l254 -135l254 135l8 -12zM711 1044q166 0 272.5 -100t106.5 -254v-690h-99v715q0 129 -83 215t-210 86q-121 0 -233.5 -69.5t-161.5 -178.5v-768h-98v995l98 39v-219q53 100 165 164.5t243 64.5z" />
    <glyph glyph-name="Eng" unicode="&#x14a;" horiz-adv-x="1611" 
d="M1358 1434h28v-1538q0 -119 -68.5 -192t-182.5 -73q-125 0 -185 80l15 17q55 -72 155 -72q84 0 135.5 56.5t51.5 148.5v153l-1053 1395v-1409h-29v1434h137l996 -1319v1319z" />
    <glyph glyph-name="eng" unicode="&#x14b;" horiz-adv-x="1265" 
d="M711 1044q166 0 272.5 -100t106.5 -254v-778q0 -119 -82 -200t-199 -81q-119 0 -184 80l14 17q61 -72 166 -72q84 0 135 57.5t51 151.5v850q0 129 -83 215t-210 86q-121 0 -233.5 -69.5t-161.5 -178.5v-768h-98v995l98 39v-219q53 100 165 164.5t243 64.5z" />
    <glyph glyph-name="Omacron" unicode="&#x14c;" horiz-adv-x="1708" 
d="M618 1665v49h469v-49h-469zM854 -20q-315 0 -525 210.5t-210 526t210 526.5t525 211t525 -211t210 -526.5t-210 -526t-525 -210.5zM854 0q285 0 457 196.5t172 520t-172 520.5t-457 197t-457 -197t-172 -520.5t172 -520t457 -196.5z" />
    <glyph glyph-name="omacron" unicode="&#x14d;" horiz-adv-x="1296" 
d="M412 1276v49h469v-49h-469zM647 -20q-225 0 -376.5 152.5t-151.5 379.5t151.5 379.5t376.5 152.5t377 -152.5t152 -379.5t-152 -379.5t-377 -152.5zM647.5 0q190.5 0 306 140.5t115.5 371.5t-115.5 371.5t-306 140.5t-306.5 -140.5t-116 -371.5t116 -371.5t306.5 -140.5z
" />
    <glyph glyph-name="Obreve" unicode="&#x14e;" horiz-adv-x="1708" 
d="M854 1599q-94 0 -170 62.5t-92 155.5h24q8 -55 77 -90t161 -35t160.5 34.5t77.5 90.5h24q-16 -92 -92 -155t-170 -63zM854 -20q-315 0 -525 210.5t-210 526t210 526.5t525 211t525 -211t210 -526.5t-210 -526t-525 -210.5zM854 0q285 0 457 196.5t172 520t-172 520.5
t-457 197t-457 -197t-172 -520.5t172 -520t457 -196.5z" />
    <glyph glyph-name="obreve" unicode="&#x14f;" horiz-adv-x="1296" 
d="M647 1210q-94 0 -170 62.5t-92 154.5h25q8 -55 76.5 -89.5t160.5 -34.5t161 34.5t77 89.5h24q-16 -92 -92 -154.5t-170 -62.5zM647 -20q-225 0 -376.5 152.5t-151.5 379.5t151.5 379.5t376.5 152.5t377 -152.5t152 -379.5t-152 -379.5t-377 -152.5zM647.5 0
q190.5 0 306 140.5t115.5 371.5t-115.5 371.5t-306 140.5t-306.5 -140.5t-116 -371.5t116 -371.5t306.5 -140.5z" />
    <glyph glyph-name="Ohungarumlaut" unicode="&#x150;" horiz-adv-x="1708" 
d="M633 1608l149 207h172l-295 -207h-26zM954 1608l150 207h172l-295 -207h-27zM854 -20q-315 0 -525 210.5t-210 526t210 526.5t525 211t525 -211t210 -526.5t-210 -526t-525 -210.5zM854 0q285 0 457 196.5t172 520t-172 520.5t-457 197t-457 -197t-172 -520.5t172 -520
t457 -196.5z" />
    <glyph glyph-name="ohungarumlaut" unicode="&#x151;" horiz-adv-x="1296" 
d="M428 1219l150 206h172l-295 -206h-27zM750 1219l149 206h172l-295 -206h-26zM647 -20q-225 0 -376.5 152.5t-151.5 379.5t151.5 379.5t376.5 152.5t377 -152.5t152 -379.5t-152 -379.5t-377 -152.5zM647.5 0q190.5 0 306 140.5t115.5 371.5t-115.5 371.5t-306 140.5
t-306.5 -140.5t-116 -371.5t116 -371.5t306.5 -140.5z" />
    <glyph glyph-name="OE" unicode="&#x152;" horiz-adv-x="2334" 
d="M1393 20h843v-20h-940q-168 -20 -376 -20q-348 0 -574.5 209.5t-226.5 527t226 527.5t575 210q209 0 376 -20h920v-21h-823v-676h659v-20h-659v-697zM225 716.5q0 -325.5 190.5 -521t514.5 -195.5q229 0 364 66v1304q-131 63 -366 64q-322 0 -512.5 -196t-190.5 -521.5z
" />
    <glyph glyph-name="oe" unicode="&#x153;" horiz-adv-x="2181" 
d="M1958 324q31 0 53.5 -22.5t22.5 -57.5q0 -111 -121 -187.5t-295 -76.5q-168 0 -298 78.5t-196 211.5q-66 -133 -191.5 -211.5t-283.5 -78.5q-227 0 -378.5 152.5t-151.5 379.5t151.5 379.5t378.5 152.5q158 0 284 -78.5t191 -211.5q63 133 187.5 211.5t275.5 78.5
q209 0 341 -139t132 -348h-884v-4q2 -14 2 -41q0 -23 -2 -35q10 -217 128.5 -348t311.5 -131q127 0 224 46t134 122q-6 -2 -18 -2q-35 0 -58.5 21.5t-23.5 58.5q0 35 23.5 57.5t60.5 22.5zM647.5 0q190.5 0 306 140.5t115.5 371.5t-115.5 371.5t-306 140.5t-306.5 -140.5
t-116 -371.5t116 -371.5t306.5 -140.5zM1583 1024q-168 0 -278.5 -122t-126.5 -324h772q-4 201 -103.5 323.5t-263.5 122.5z" />
    <glyph glyph-name="Racute" unicode="&#x154;" horiz-adv-x="1400" 
d="M993 1815l-309 -207h-25l152 207h182zM1229 156q68 -102 143 -156h-127q-72 55 -115 119l-247 387q-35 53 -66 78.5t-82 40.5h-411v-625h-99v1434h535q217 0 362.5 -116t145.5 -290q0 -160 -129 -272.5t-326 -128.5q133 -31 184 -107zM324 1413v-768h424
q188 0 300.5 103.5t112.5 275.5q0 176 -112.5 282.5t-300.5 106.5h-424z" />
    <glyph glyph-name="racute" unicode="&#x155;" horiz-adv-x="929" 
d="M795 1425l-310 -206h-24l151 206h183zM623 1044q100 0 166.5 -50t66.5 -124q0 -35 -22.5 -56t-55.5 -21q-35 0 -57.5 22.5t-22.5 54.5q0 35 22.5 57.5t57.5 22.5h2q-53 70 -162 70q-100 0 -187 -70.5t-128 -183.5v-766h-98v995l98 39v-213q43 100 130.5 161.5t189.5 61.5
z" />
    <glyph glyph-name="uni0156" unicode="&#x156;" horiz-adv-x="1400" 
d="M1229 156q68 -102 143 -156h-127q-72 55 -115 119l-247 387q-35 53 -66 78.5t-82 40.5h-411v-625h-99v1434h535q217 0 362.5 -116t145.5 -290q0 -160 -129 -272.5t-326 -128.5q133 -31 184 -107zM324 1413v-768h424q188 0 300.5 103.5t112.5 275.5q0 176 -112.5 282.5
t-300.5 106.5h-424zM778 -168q41 0 66.5 -26.5t25.5 -71.5q0 -61 -41 -127t-94 -96l-10 16q39 23 67.5 65.5t32.5 85.5q-16 -16 -51 -16q-37 0 -61.5 25.5t-24.5 64.5q0 33 25.5 56.5t64.5 23.5z" />
    <glyph glyph-name="uni0157" unicode="&#x157;" horiz-adv-x="929" 
d="M623 1044q100 0 166.5 -50t66.5 -124q0 -35 -22.5 -56t-55.5 -21q-35 0 -57.5 22.5t-22.5 54.5q0 35 22.5 57.5t57.5 22.5h2q-53 70 -162 70q-100 0 -187 -70.5t-128 -183.5v-766h-98v995l98 39v-213q43 100 130.5 161.5t189.5 61.5zM256 -168q41 0 66.5 -26.5
t25.5 -71.5q0 -61 -41 -127t-94 -96l-10 16q39 23 67.5 65.5t32.5 85.5q-16 -16 -51 -16q-37 0 -61.5 25.5t-24.5 64.5q0 33 25.5 56.5t64.5 23.5z" />
    <glyph glyph-name="Rcaron" unicode="&#x158;" horiz-adv-x="1400" 
d="M752 1597h-45l-240 222l8 12l254 -135l254 135l8 -12zM1229 156q68 -102 143 -156h-127q-72 55 -115 119l-247 387q-35 53 -66 78.5t-82 40.5h-411v-625h-99v1434h535q217 0 362.5 -116t145.5 -290q0 -160 -129 -272.5t-326 -128.5q133 -31 184 -107zM324 1413v-768h424
q188 0 300.5 103.5t112.5 275.5q0 176 -112.5 282.5t-300.5 106.5h-424z" />
    <glyph glyph-name="rcaron" unicode="&#x159;" horiz-adv-x="929" 
d="M551 1208h-45l-240 222l8 12l254 -135l254 135l9 -12zM623 1044q100 0 166.5 -50t66.5 -124q0 -35 -22.5 -56t-55.5 -21q-35 0 -57.5 22.5t-22.5 54.5q0 35 22.5 57.5t57.5 22.5h2q-53 70 -162 70q-100 0 -187 -70.5t-128 -183.5v-766h-98v995l98 39v-213
q43 100 130.5 161.5t189.5 61.5z" />
    <glyph glyph-name="Sacute" unicode="&#x15a;" horiz-adv-x="1263" 
d="M903 1815l-309 -207h-25l152 207h182zM678 766q94 -35 144 -56.5t122 -60.5t107.5 -76.5t63.5 -95t28 -125.5q0 -170 -140.5 -271t-359.5 -101q-215 0 -362.5 94t-147.5 231q0 35 23.5 58.5t60.5 23.5q35 0 57.5 -23.5t22.5 -58.5t-22.5 -58.5t-57.5 -23.5q-12 0 -29 4
q37 -102 162 -165.5t291 -63.5q186 0 307 88t121 221q0 55 -25.5 103.5t-60.5 82t-101.5 69.5t-115.5 57.5t-137 56.5q-102 39 -161.5 66.5t-138.5 78.5t-118 119t-39 152q0 156 134 259t337 103q188 0 316 -87t128 -216q0 -35 -22.5 -58.5t-56.5 -23.5q-37 0 -60.5 23.5
t-23.5 58.5t23.5 58.5t60.5 23.5q10 0 26 -4q-35 92 -140.5 149.5t-250.5 57.5q-168 0 -281.5 -89.5t-113.5 -216.5q0 -55 26.5 -103t62.5 -83t100.5 -70.5t113.5 -56t127 -51.5z" />
    <glyph glyph-name="sacute" unicode="&#x15b;" horiz-adv-x="974" 
d="M758 1425l-309 -206h-25l151 206h183zM537 559q74 -31 119.5 -53.5t100 -60t81 -86t26.5 -109.5q0 -119 -100 -194.5t-264 -75.5q-156 0 -267.5 64.5t-113.5 158.5v2q0 37 24.5 60.5t63.5 23.5q35 0 57.5 -23.5t22.5 -60.5t-22.5 -60.5t-57.5 -23.5q-12 0 -17 2
q39 -55 122 -89t184 -34q129 0 209.5 60.5t80.5 150.5q0 49 -23.5 87t-74.5 70.5t-91 51t-116 49.5q-74 29 -122 53.5t-102 62.5t-82 87t-28 108q0 117 101.5 190.5t257.5 73.5q137 0 231 -57t99 -141v-2v-2q0 -37 -24 -60.5t-58 -23.5q-37 0 -61.5 23.5t-24.5 60.5
t24.5 60.5t61.5 23.5h12q-74 98 -258 98q-121 0 -201 -60.5t-80 -146.5q0 -39 19.5 -72.5t44 -57t73 -49.5t81.5 -40t92 -39z" />
    <glyph glyph-name="Scircumflex" unicode="&#x15c;" horiz-adv-x="1263" 
d="M639 1739l-254 -135l-8 12l239 221h46l239 -221l-8 -12zM678 766q94 -35 144 -56.5t122 -60.5t107.5 -76.5t63.5 -95t28 -125.5q0 -170 -140.5 -271t-359.5 -101q-215 0 -362.5 94t-147.5 231q0 35 23.5 58.5t60.5 23.5q35 0 57.5 -23.5t22.5 -58.5t-22.5 -58.5
t-57.5 -23.5q-12 0 -29 4q37 -102 162 -165.5t291 -63.5q186 0 307 88t121 221q0 55 -25.5 103.5t-60.5 82t-101.5 69.5t-115.5 57.5t-137 56.5q-102 39 -161.5 66.5t-138.5 78.5t-118 119t-39 152q0 156 134 259t337 103q188 0 316 -87t128 -216q0 -35 -22.5 -58.5
t-56.5 -23.5q-37 0 -60.5 23.5t-23.5 58.5t23.5 58.5t60.5 23.5q10 0 26 -4q-35 92 -140.5 149.5t-250.5 57.5q-168 0 -281.5 -89.5t-113.5 -216.5q0 -55 26.5 -103t62.5 -83t100.5 -70.5t113.5 -56t127 -51.5z" />
    <glyph glyph-name="scircumflex" unicode="&#x15d;" horiz-adv-x="974" 
d="M492 1350l-254 -136l-9 13l240 221h45l240 -221l-9 -13zM537 559q74 -31 119.5 -53.5t100 -60t81 -86t26.5 -109.5q0 -119 -100 -194.5t-264 -75.5q-156 0 -267.5 64.5t-113.5 158.5v2q0 37 24.5 60.5t63.5 23.5q35 0 57.5 -23.5t22.5 -60.5t-22.5 -60.5t-57.5 -23.5
q-12 0 -17 2q39 -55 122 -89t184 -34q129 0 209.5 60.5t80.5 150.5q0 49 -23.5 87t-74.5 70.5t-91 51t-116 49.5q-74 29 -122 53.5t-102 62.5t-82 87t-28 108q0 117 101.5 190.5t257.5 73.5q137 0 231 -57t99 -141v-2v-2q0 -37 -24 -60.5t-58 -23.5q-37 0 -61.5 23.5
t-24.5 60.5t24.5 60.5t61.5 23.5h12q-74 98 -258 98q-121 0 -201 -60.5t-80 -146.5q0 -39 19.5 -72.5t44 -57t73 -49.5t81.5 -40t92 -39z" />
    <glyph glyph-name="Scedilla" unicode="&#x15e;" horiz-adv-x="1263" 
d="M1143 352q0 -164 -132 -265t-341 -107l-66 -123q37 18 74 18q68 0 113 -43t45 -104q0 -66 -54.5 -110t-134.5 -44q-96 0 -158 61l15 19q49 -59 133 -60q47 0 80 38t33 92q0 55 -29 90.5t-72 35.5q-47 0 -71 -45l-17 5l84 170h-2q-215 0 -362.5 94t-147.5 231
q0 35 23.5 58.5t60.5 23.5q35 0 57.5 -23.5t22.5 -58.5t-22.5 -58.5t-57.5 -23.5q-12 0 -29 4q37 -102 162 -165.5t291 -63.5q186 0 307 88t121 221q0 55 -25.5 103.5t-60.5 82t-101.5 69.5t-115.5 57.5t-137 56.5q-102 39 -161.5 66.5t-138.5 78.5t-118 119t-39 152
q0 156 134 259t337 103q188 0 316 -87t128 -216q0 -35 -22.5 -58.5t-56.5 -23.5q-37 0 -60.5 23.5t-23.5 58.5t23.5 58.5t60.5 23.5q10 0 26 -4q-35 92 -140.5 149.5t-250.5 57.5q-168 0 -281.5 -89.5t-113.5 -216.5q0 -55 26.5 -103t62.5 -83t100.5 -70.5t113.5 -56
t127 -51.5q94 -35 144 -56.5t122 -60.5t107.5 -76.5t63.5 -95t28 -125.5z" />
    <glyph glyph-name="scedilla" unicode="&#x15f;" horiz-adv-x="974" 
d="M864 250q0 -117 -96 -192.5t-256 -77.5l-66 -123q37 18 74 18q68 0 113 -43t45 -104q0 -66 -54.5 -110t-134.5 -44q-96 0 -157 61l14 19q49 -59 133 -60q47 0 80 38t33 92q0 55 -28.5 90.5t-71.5 35.5q-47 0 -72 -45l-17 5l84 170q-152 4 -259 67.5t-109 155.5v2
q0 37 24.5 60.5t63.5 23.5q35 0 57.5 -23.5t22.5 -60.5t-22.5 -60.5t-57.5 -23.5q-12 0 -17 2q39 -55 122 -89t184 -34q129 0 209.5 60.5t80.5 150.5q0 49 -23.5 87t-74.5 70.5t-91 51t-116 49.5q-74 29 -122 53.5t-102 62.5t-82 87t-28 108q0 117 101.5 190.5t257.5 73.5
q137 0 231 -57t99 -141v-2v-2q0 -37 -24 -60.5t-58 -23.5q-37 0 -61.5 23.5t-24.5 60.5t24.5 60.5t61.5 23.5h12q-74 98 -258 98q-121 0 -201 -60.5t-80 -146.5q0 -39 19.5 -72.5t44 -57t73 -49.5t81 -40t92.5 -39q74 -31 119.5 -53.5t100 -60t81 -86t26.5 -109.5z" />
    <glyph glyph-name="Scaron" unicode="&#x160;" horiz-adv-x="1263" 
d="M662 1597h-46l-239 222l8 12l254 -135l254 135l8 -12zM678 766q94 -35 144 -56.5t122 -60.5t107.5 -76.5t63.5 -95t28 -125.5q0 -170 -140.5 -271t-359.5 -101q-215 0 -362.5 94t-147.5 231q0 35 23.5 58.5t60.5 23.5q35 0 57.5 -23.5t22.5 -58.5t-22.5 -58.5
t-57.5 -23.5q-12 0 -29 4q37 -102 162 -165.5t291 -63.5q186 0 307 88t121 221q0 55 -25.5 103.5t-60.5 82t-101.5 69.5t-115.5 57.5t-137 56.5q-102 39 -161.5 66.5t-138.5 78.5t-118 119t-39 152q0 156 134 259t337 103q188 0 316 -87t128 -216q0 -35 -22.5 -58.5
t-56.5 -23.5q-37 0 -60.5 23.5t-23.5 58.5t23.5 58.5t60.5 23.5q10 0 26 -4q-35 92 -140.5 149.5t-250.5 57.5q-168 0 -281.5 -89.5t-113.5 -216.5q0 -55 26.5 -103t62.5 -83t100.5 -70.5t113.5 -56t127 -51.5z" />
    <glyph glyph-name="scaron" unicode="&#x161;" horiz-adv-x="974" 
d="M514 1208h-45l-240 222l9 12l254 -135l253 135l9 -12zM537 559q74 -31 119.5 -53.5t100 -60t81 -86t26.5 -109.5q0 -119 -100 -194.5t-264 -75.5q-156 0 -267.5 64.5t-113.5 158.5v2q0 37 24.5 60.5t63.5 23.5q35 0 57.5 -23.5t22.5 -60.5t-22.5 -60.5t-57.5 -23.5
q-12 0 -17 2q39 -55 122 -89t184 -34q129 0 209.5 60.5t80.5 150.5q0 49 -23.5 87t-74.5 70.5t-91 51t-116 49.5q-74 29 -122 53.5t-102 62.5t-82 87t-28 108q0 117 101.5 190.5t257.5 73.5q137 0 231 -57t99 -141v-2v-2q0 -37 -24 -60.5t-58 -23.5q-37 0 -61.5 23.5
t-24.5 60.5t24.5 60.5t61.5 23.5h12q-74 98 -258 98q-121 0 -201 -60.5t-80 -146.5q0 -39 19.5 -72.5t44 -57t73 -49.5t81.5 -40t92 -39z" />
    <glyph glyph-name="uni0162" unicode="&#x162;" horiz-adv-x="1265" 
d="M1196 1434v-21h-512v-1413h-98v1413h-514v21h1124zM653 -125q68 0 113 -43t45 -104q0 -66 -54.5 -110t-133.5 -44q-96 0 -158 61l14 19q49 -59 133 -60q47 0 80 38t33 92q0 55 -28.5 90.5t-71.5 35.5q-47 0 -72 -45l-16 5l90 184h26l-73 -137q36 18 73 18z" />
    <glyph glyph-name="uni0163" unicode="&#x163;" horiz-adv-x="763" 
d="M498 -20q-29 0 -41 2l-68 -125q37 18 74 18q68 0 113 -43t45 -104q0 -66 -54.5 -110t-134.5 -44q-96 0 -158 61l15 19q49 -59 133 -60q47 0 80 38t33 92q0 55 -29 90.5t-72 35.5q-47 0 -72 -45l-16 5l86 176q-90 20 -147.5 84.5t-57.5 154.5v779h-137v20h137v238l99 36
v-274h340v-20h-340v-809q0 -82 53 -137.5t133 -55.5q59 0 114.5 35t75.5 84l23 -15q-23 -53 -87 -89.5t-140 -36.5z" />
    <glyph glyph-name="Tcaron" unicode="&#x164;" horiz-adv-x="1265" 
d="M657 1597h-45l-239 222l8 12l254 -135l254 135l8 -12zM1196 1434v-21h-512v-1413h-98v1413h-514v21h1124z" />
    <glyph glyph-name="tcaron" unicode="&#x165;" horiz-adv-x="763" 
d="M688 1470l-145 -247h-27l41 247h131zM702 121l23 -15q-23 -53 -87.5 -89.5t-139.5 -36.5q-115 0 -193 70.5t-78 174.5v779h-137v20h137v238l99 36v-274h340v-20h-340v-809q0 -82 53 -137.5t133 -55.5q59 0 114.5 35t75.5 84z" />
    <glyph glyph-name="Tbar" unicode="&#x166;" horiz-adv-x="1265" 
d="M1196 1413h-512v-686h207v-20h-207v-707h-98v707h-209v20h209v686h-514v21h1124v-21z" />
    <glyph glyph-name="tbar" unicode="&#x167;" horiz-adv-x="763" 
d="M702 121l23 -15q-23 -53 -87.5 -89.5t-139.5 -36.5q-115 0 -193 70.5t-78 174.5v379h-131v21h131v379h-137v20h137v238l99 36v-274h340v-20h-340v-379h284v-21h-284v-409q0 -82 53 -137.5t133 -55.5q59 0 114.5 35t75.5 84z" />
    <glyph glyph-name="Utilde" unicode="&#x168;" horiz-adv-x="1593" 
d="M928 1622q-14 0 -28.5 2t-30 9t-24.5 11.5t-23.5 15.5t-18.5 15t-21 17l-14 14q-55 49 -111 49q-41 0 -74.5 -33.5t-37.5 -89.5h-23q0 84 50.5 140.5t121.5 56.5q68 0 158 -82q57 -51 115 -51q43 0 75.5 33.5t36.5 89.5h23q0 -84 -50 -140.5t-124 -56.5zM817 -20
q-270 0 -438 161.5t-168 425.5v867h98v-899q0 -238 143.5 -383.5t374.5 -145.5q240 0 383.5 144.5t143.5 384.5v899h28v-897q0 -254 -152.5 -405.5t-412.5 -151.5z" />
    <glyph glyph-name="utilde" unicode="&#x169;" horiz-adv-x="1259" 
d="M463 1366q-41 0 -75 -34t-38 -89h-22q0 84 50 140.5t122 56.5q68 0 157 -82q57 -51 115 -51q43 0 76 33.5t37 89.5h22q0 -84 -50 -140.5t-124 -56.5q-14 0 -28.5 2t-30 9t-24.5 11.5t-23.5 15.5t-18.5 15t-18 17l-17 14q-55 49 -110 49zM956 995l99 39v-1034h-99v209
q-53 -100 -162.5 -164.5t-236.5 -64.5q-162 0 -268.5 101t-106.5 253v661l99 39v-725q0 -129 80.5 -215t205.5 -86q121 0 229.5 69.5t159.5 180.5v737z" />
    <glyph glyph-name="Umacron" unicode="&#x16a;" horiz-adv-x="1593" 
d="M578 1665v49h469v-49h-469zM817 -20q-270 0 -438 161.5t-168 425.5v867h98v-899q0 -238 143.5 -383.5t374.5 -145.5q240 0 383.5 144.5t143.5 384.5v899h28v-897q0 -254 -152.5 -405.5t-412.5 -151.5z" />
    <glyph glyph-name="umacron" unicode="&#x16b;" horiz-adv-x="1259" 
d="M852 1325v-49h-469v49h469zM956 995l99 39v-1034h-99v209q-53 -100 -162.5 -164.5t-236.5 -64.5q-162 0 -268.5 101t-106.5 253v661l99 39v-725q0 -129 80.5 -215t205.5 -86q121 0 229.5 69.5t159.5 180.5v737z" />
    <glyph glyph-name="Ubreve" unicode="&#x16c;" horiz-adv-x="1593" 
d="M813 1599q-94 0 -170 62.5t-92 155.5h24q8 -55 77 -90t161 -35t160.5 34.5t77.5 90.5h24q-16 -92 -92 -155t-170 -63zM817 -20q-270 0 -438 161.5t-168 425.5v867h98v-899q0 -238 143.5 -383.5t374.5 -145.5q240 0 383.5 144.5t143.5 384.5v899h28v-897
q0 -254 -152.5 -405.5t-412.5 -151.5z" />
    <glyph glyph-name="ubreve" unicode="&#x16d;" horiz-adv-x="1259" 
d="M618.5 1210q-94.5 0 -170 62.5t-92.5 154.5h25q8 -55 76.5 -89.5t161 -34.5t161 34.5t76.5 89.5h25q-16 -92 -92 -154.5t-170.5 -62.5zM956 995l99 39v-1034h-99v209q-53 -100 -162.5 -164.5t-236.5 -64.5q-162 0 -268.5 101t-106.5 253v661l99 39v-725q0 -129 80.5 -215
t205.5 -86q121 0 229.5 69.5t159.5 180.5v737z" />
    <glyph glyph-name="Uring" unicode="&#x16e;" horiz-adv-x="1593" 
d="M815.5 1571q-63.5 0 -106.5 40t-43 101q0 63 43 105.5t108 42.5q61 0 102.5 -42t41.5 -106q0 -61 -41 -101t-104.5 -40zM815 1589q53 0 87 34t34 89q0 57 -34 93t-87 36q-55 0 -90 -36t-35 -93q0 -55 35 -89t90 -34zM817 -20q-270 0 -438 161.5t-168 425.5v867h98v-899
q0 -238 143.5 -383.5t374.5 -145.5q240 0 383.5 144.5t143.5 384.5v899h28v-897q0 -254 -152.5 -405.5t-412.5 -151.5z" />
    <glyph glyph-name="uring" unicode="&#x16f;" horiz-adv-x="1259" 
d="M620.5 1182q-63.5 0 -106.5 40t-43 101q0 63 43 105t109 42q61 0 102 -42t41 -105q0 -61 -41 -101t-104.5 -40zM621 1452q-55 0 -90 -36t-35 -93q0 -55 34.5 -89t90.5 -34q53 0 86.5 34t33.5 89q0 57 -33.5 93t-86.5 36zM956 995l99 39v-1034h-99v209
q-53 -100 -162.5 -164.5t-236.5 -64.5q-162 0 -268.5 101t-106.5 253v661l99 39v-725q0 -129 80.5 -215t205.5 -86q121 0 229.5 69.5t159.5 180.5v737z" />
    <glyph glyph-name="Uhungarumlaut" unicode="&#x170;" horiz-adv-x="1593" 
d="M594 1608l149 207h172l-294 -207h-27zM915 1608l150 207h172l-295 -207h-27zM817 -20q-270 0 -438 161.5t-168 425.5v867h98v-899q0 -238 143.5 -383.5t374.5 -145.5q240 0 383.5 144.5t143.5 384.5v899h28v-897q0 -254 -152.5 -405.5t-412.5 -151.5z" />
    <glyph glyph-name="uhungarumlaut" unicode="&#x171;" horiz-adv-x="1259" 
d="M721 1425l-295 -206h-27l150 206h172zM748 1219h-27l149 206h172zM956 995l99 39v-1034h-99v209q-53 -100 -162.5 -164.5t-236.5 -64.5q-162 0 -268.5 101t-106.5 253v661l99 39v-725q0 -129 80.5 -215t205.5 -86q121 0 229.5 69.5t159.5 180.5v737z" />
    <glyph glyph-name="Uogonek" unicode="&#x172;" horiz-adv-x="1593" 
d="M1354 1434h28v-897q0 -211 -107.5 -353.5t-297.5 -187.5q-100 -53 -159.5 -124t-59.5 -138q0 -61 33.5 -98t91.5 -37q63 0 110 51l17 -15q-51 -61 -156 -61q-74 0 -128 45t-54 109q0 66 67.5 138.5t173.5 119.5q-45 -6 -96 -6q-270 0 -438 161.5t-168 425.5v867h98v-899
q0 -238 143.5 -383.5t374.5 -145.5q240 0 383.5 144.5t143.5 384.5v899z" />
    <glyph glyph-name="uogonek" unicode="&#x173;" horiz-adv-x="1259" 
d="M1063 -350l16 -15q-51 -61 -155 -61q-74 0 -128.5 45t-54.5 109q0 72 79 149.5t198 122.5h-62v209q-53 -100 -162.5 -164.5t-236.5 -64.5q-162 0 -268.5 101t-106.5 253v661l99 39v-725q0 -129 80.5 -215t205.5 -86q121 0 229.5 69.5t159.5 180.5v737l99 39v-1034h-2
q-102 -53 -164 -125t-62 -141q0 -61 34 -98t91 -37q64 0 111 51z" />
    <glyph glyph-name="Wcircumflex" unicode="&#x174;" horiz-adv-x="2293" 
d="M1145 1739l-254 -135l-8 12l239 221h45l240 -221l-8 -12zM2187 1434h29l-629 -1434h-63l-379 864l-377 -864h-63l-627 1434h102l592 -1358l361 821l-236 537h102l594 -1358z" />
    <glyph glyph-name="wcircumflex" unicode="&#x175;" horiz-adv-x="1665" 
d="M829 1350l-254 -136l-8 13l240 221h45l240 -221l-9 -13zM1587 1024h29l-449 -1024h-63l-273 623l-274 -623h-63l-449 1024h100l416 -950l256 583l-162 367h101l415 -954z" />
    <glyph glyph-name="Ycircumflex" unicode="&#x176;" horiz-adv-x="1400" 
d="M700 1739l-254 -135l-8 12l240 221h45l240 -221l-9 -12zM1292 1434h31l-573 -820v-614h-99v614l-573 820h115l550 -785z" />
    <glyph glyph-name="ycircumflex" unicode="&#x177;" horiz-adv-x="1067" 
d="M545 1350l-254 -136l-8 13l239 221h45l240 -221l-8 -13zM989 1024h29l-606 -1380q-23 -53 -69 -84t-101 -31q-59 0 -103.5 36t-46.5 87v2q0 33 24.5 56.5t57.5 23.5q35 0 56.5 -22.5t21.5 -57.5t-21.5 -57.5t-56.5 -22.5h-6q29 -29 74 -29q43 0 85 28t64 77l133 305
l-469 1069h101l417 -954z" />
    <glyph glyph-name="Ydieresis" unicode="&#x178;" horiz-adv-x="1400" 
d="M512 1602q-35 0 -58.5 22.5t-23.5 57t24.5 59t61.5 24.5q33 0 55.5 -23.5t22.5 -58t-22.5 -58t-59.5 -23.5zM889 1602q-35 0 -59.5 22.5t-24.5 58.5q0 35 24.5 58.5t61.5 23.5q33 0 55.5 -23.5t22.5 -58t-22.5 -58t-57.5 -23.5zM1292 1434h31l-573 -820v-614h-99v614
l-573 820h115l550 -785z" />
    <glyph glyph-name="Zacute" unicode="&#x179;" horiz-adv-x="1310" 
d="M954 1815l-309 -207h-24l151 207h182zM1190 1434v-33l-969 -1381h967v-20h-1067v33l966 1380h-937v21h1040z" />
    <glyph glyph-name="zacute" unicode="&#x17a;" horiz-adv-x="1003" 
d="M786 1425l-309 -206h-24l151 206h182zM893 1024v-33l-682 -971h678v-20h-780v33l684 971h-654v20h754z" />
    <glyph glyph-name="Zdotaccent" unicode="&#x17b;" horiz-adv-x="1310" 
d="M690 1599q-37 0 -62.5 24t-25.5 60.5t25.5 61t64.5 24.5q37 0 61.5 -24.5t24.5 -61t-24.5 -60.5t-63.5 -24zM1190 1434v-33l-969 -1381h967v-20h-1067v33l966 1380h-937v21h1040z" />
    <glyph glyph-name="zdotaccent" unicode="&#x17c;" horiz-adv-x="1003" 
d="M522 1210q-37 0 -62.5 23.5t-25.5 60.5t25.5 61.5t64.5 24.5q37 0 61.5 -24.5t24.5 -61.5t-24.5 -60.5t-63.5 -23.5zM893 1024v-33l-682 -971h678v-20h-780v33l684 971h-654v20h754z" />
    <glyph glyph-name="Zcaron" unicode="&#x17d;" horiz-adv-x="1310" 
d="M713 1597h-45l-240 222l8 12l254 -135l254 135l8 -12zM1190 1434v-33l-969 -1381h967v-20h-1067v33l966 1380h-937v21h1040z" />
    <glyph glyph-name="zcaron" unicode="&#x17e;" horiz-adv-x="1003" 
d="M545 1208h-45l-240 222l8 12l254 -135l254 135l8 -12zM893 1024v-33l-682 -971h678v-20h-780v33l684 971h-654v20h754z" />
    <glyph glyph-name="florin" unicode="&#x192;" horiz-adv-x="1216" 
d="M932 1454q82 0 138 -45t56 -111q0 -35 -22.5 -58t-56.5 -23q-37 0 -61.5 23.5t-24.5 58t24.5 58t61.5 23.5q12 0 18 -2q-49 59 -139 60q-76 0 -128.5 -59.5t-64.5 -149.5l-57 -420h227l-4 -21h-227l-115 -831q-14 -119 -101 -196.5t-202 -77.5q-84 0 -139.5 45t-55.5 110
q0 35 22.5 58.5t57.5 23.5q37 0 60.5 -23.5t23.5 -58.5t-23.5 -58.5t-60.5 -23.5q-12 0 -16 2q49 -59 137 -59q76 0 128 59.5t63 149.5l122 880h-135l4 21h133l52 371q16 119 102 196.5t203 77.5z" />
    <glyph glyph-name="uni01C4" unicode="&#x1c4;" horiz-adv-x="2856" 
d="M2261 1597h-45l-240 222l9 12l253 -135l254 135l9 -12zM729 1434q322 0 538 -206t216 -511t-216 -511t-538 -206h-504v1434h504zM2738 1434v-33l-969 -1381h967v-20h-1067v33l967 1380h-938v21h1040zM713 20q299 0 481 190.5t182 506t-182 506t-481 190.5h-389v-1393h389
z" />
    <glyph glyph-name="uni01C5" unicode="&#x1c5;" horiz-adv-x="2621" 
d="M2165 1208h-45l-240 222l8 12l254 -135l254 135l8 -12zM729 1434q322 0 538 -206t216 -511t-216 -511t-538 -206h-504v1434h504zM713 20q299 0 481 190.5t182 506t-182 506t-481 190.5h-389v-1393h389zM2513 1024v-33l-682 -971h678v-20h-780v33l684 971h-654v20h754z
" />
    <glyph glyph-name="uni01C6" unicode="&#x1c6;" horiz-adv-x="2301" 
d="M995 856v600l99 39v-1495h-99v145q-139 -166 -368 -165q-211 0 -359.5 153.5t-148.5 378.5t150.5 378.5t359.5 153.5q113 0 209 -49t157 -139zM1843 1208h-45l-239 222l8 12l254 -135l254 135l8 -12zM633 -2q111 0 206 51t156 141v627q-137 209 -364 209
q-178 0 -292 -142.5t-114 -371.5q0 -231 113 -372.5t295 -141.5zM2191 1024v-33l-682 -971h678v-20h-780v33l684 971h-653v20h753z" />
    <glyph glyph-name="uni01C7" unicode="&#x1c7;" horiz-adv-x="2451" 
d="M324 1434v-1414h831v-20h-930v1434h99zM2144 1434h99v-979q0 -225 -130.5 -350t-334.5 -125q-195 0 -324 97t-129 242q0 33 23.5 55.5t58.5 22.5q33 0 54.5 -22.5t21.5 -55t-21.5 -55t-54.5 -22.5q-18 0 -35 6q29 -115 139.5 -182.5t264.5 -67.5q174 0 271 115.5
t97 310.5v1010z" />
    <glyph glyph-name="uni01C8" unicode="&#x1c8;" horiz-adv-x="1798" 
d="M1155 20v-20h-930v1434h99v-1414h831zM1550 1409q31 0 52.5 -21.5t21.5 -54.5t-21.5 -54.5t-52.5 -21.5q-35 0 -57.5 21.5t-22.5 54.5t22.5 54.5t57.5 21.5zM1499 -242v1237l98 39v-1227q0 -121 -82.5 -199.5t-203.5 -78.5q-88 0 -147.5 46t-59.5 114q0 35 22.5 58.5
t57.5 23.5q37 0 60.5 -23.5t23.5 -58.5t-23.5 -58.5t-60.5 -23.5q-14 0 -21 2q55 -61 144 -62q86 0 139 60.5t53 150.5z" />
    <glyph glyph-name="uni01C9" unicode="&#x1c9;" horiz-adv-x="1021" 
d="M205 0v1456l98 39v-1495h-98zM774 1409q31 0 52.5 -21.5t21.5 -54.5t-21.5 -54.5t-52.5 -21.5q-35 0 -57.5 21.5t-22.5 54.5t22.5 54.5t57.5 21.5zM723 -242v1237l98 39v-1227q0 -121 -83 -199.5t-203 -78.5q-88 0 -147.5 46t-59.5 114q0 35 22.5 58.5t57.5 23.5
q37 0 60.5 -23.5t23.5 -58.5t-24 -58.5t-60 -23.5q-14 0 -21 2q55 -61 143 -62q86 0 139.5 60.5t53.5 150.5z" />
    <glyph glyph-name="uni01CA" unicode="&#x1ca;" horiz-adv-x="2840" 
d="M1358 115v1319h28v-1434h-69l-1063 1409v-1409h-29v1434h137zM2533 1434h99v-979q0 -225 -130 -350t-335 -125q-195 0 -324 97t-129 242q0 33 23.5 55.5t58.5 22.5q33 0 54.5 -22.5t21.5 -55t-21.5 -55t-54.5 -22.5q-18 0 -35 6q29 -115 139.5 -182.5t264.5 -67.5
q174 0 271 115.5t97 310.5v1010z" />
    <glyph glyph-name="uni01CB" unicode="&#x1cb;" horiz-adv-x="2123" 
d="M1358 115v1319h28v-1434h-69l-1063 1409v-1409h-29v1434h137zM1876 1409q31 0 52.5 -21.5t21.5 -54.5t-21.5 -54.5t-52.5 -21.5q-35 0 -57.5 21.5t-22.5 54.5t22.5 54.5t57.5 21.5zM1825 -242v1237l98 39v-1227q0 -121 -83 -199.5t-204 -78.5q-88 0 -147 46t-59 114
q0 35 22.5 58.5t56.5 23.5q37 0 60.5 -23.5t23.5 -58.5t-23.5 -58.5t-60.5 -23.5q-14 0 -20 2q55 -61 143 -62q86 0 139.5 60.5t53.5 150.5z" />
    <glyph glyph-name="uni01CC" unicode="&#x1cc;" horiz-adv-x="1779" 
d="M1532 1409q31 0 52.5 -21.5t21.5 -54.5t-21.5 -54.5t-52.5 -21.5q-35 0 -57.5 21.5t-22.5 54.5t22.5 54.5t57.5 21.5zM1090 0h-99v715q0 129 -83 215t-210 86q-121 0 -233.5 -69.5t-161.5 -178.5v-768h-98v995l98 39v-219q53 100 165 164.5t243 64.5q166 0 272.5 -100
t106.5 -254v-690zM1481 -242v1237l98 39v-1227q0 -121 -83 -199.5t-204 -78.5q-88 0 -147.5 46t-59.5 114q0 35 22.5 58.5t57.5 23.5q37 0 60.5 -23.5t23.5 -58.5t-23.5 -58.5t-60.5 -23.5q-14 0 -20 2q55 -61 143 -62q86 0 139.5 60.5t53.5 150.5z" />
    <glyph glyph-name="uni01CD" unicode="&#x1cd;" horiz-adv-x="1474" 
d="M760 1597h-45l-240 222l8 12l254 -135l254 135l8 -12zM1294 0l-200 459h-787l-201 -459h-28l629 1434h63l627 -1434h-103zM315 479h770l-385 879z" />
    <glyph glyph-name="uni01CE" unicode="&#x1ce;" horiz-adv-x="1175" 
d="M616 1208h-45l-239 222l8 12l254 -135l254 135l8 -12zM578 1044q186 0 303.5 -99t117.5 -249v-696h-98v156q-68 -78 -179.5 -127t-225.5 -49q-152 0 -260.5 83.5t-108.5 204.5q0 129 123 213t317 84q217 0 334 -67v229q0 129 -92 213t-240 84q-106 0 -194 -41t-125 -106
q8 2 24 2q35 0 56.5 -22.5t21.5 -57.5t-21.5 -57.5t-56 -22.5t-59.5 22.5t-25 57.5q0 104 114 174.5t274 70.5zM522 14q113 0 215.5 48.5t163.5 127.5v281q-102 74 -315 74q-168 0 -260.5 -71t-92.5 -195q0 -117 80 -191t209 -74z" />
    <glyph glyph-name="Gcaron" unicode="&#x1e6;" horiz-adv-x="1646" 
d="M889 1597h-45l-240 222l8 12l254 -135l254 135l8 -12zM1348 606h100v-606h-21l-81 143q-68 -76 -194 -119.5t-275 -43.5q-326 0 -542 210.5t-216 526t216 526.5t546 211q225 0 380.5 -97t155.5 -241q0 -33 -21.5 -55.5t-54.5 -22.5q-35 0 -58 22.5t-23 55.5t23.5 55.5
t57.5 22.5q12 0 19 -2q-35 111 -163 177.5t-312 66.5q-301 0 -480.5 -198t-179.5 -517q0 -324 184.5 -521.5t487.5 -197.5q162 0 281.5 56.5t169.5 150.5v397z" />
    <glyph glyph-name="gcaron" unicode="&#x1e7;" horiz-adv-x="1288" 
d="M662 1208h-46l-239 222l8 12l254 -135l254 135l8 -12zM995 995l99 39v-1116q0 -168 -130 -278.5t-335 -110.5q-174 0 -294 77t-120 191q0 35 23.5 57.5t60.5 22.5q35 0 56.5 -22.5t21.5 -57.5t-21.5 -57.5t-56.5 -22.5q-18 0 -27 2q35 -78 132.5 -125t220.5 -47
q164 0 267 96.5t103 243.5v258q-139 -166 -368 -165q-211 0 -359.5 153.5t-148.5 378.5t150.5 378.5t359.5 153.5q113 0 209 -49t157 -139v139zM633 -2q111 0 206 51t156 141v627q-137 209 -364 209q-178 0 -292 -142.5t-114 -371.5q0 -231 113 -372.5t295 -141.5z" />
    <glyph glyph-name="uni01EA" unicode="&#x1ea;" horiz-adv-x="1708" 
d="M1030 0q-100 -53 -161.5 -125t-61.5 -141q0 -61 33.5 -98t91.5 -37q63 0 110 51l17 -15q-51 -61 -156 -61q-74 0 -128 45t-54 109q0 66 69.5 139.5t176.5 120.5q-49 -8 -113 -8q-315 0 -525 210.5t-210 526t210 526.5t525 211t525 -211t210 -526q0 -266 -154.5 -464
t-404.5 -253zM225 716.5q0 -323.5 172 -520t457 -196.5t457 196.5t172 520t-172 520.5t-457 197t-457 -197t-172 -520.5z" />
    <glyph glyph-name="uni01EB" unicode="&#x1eb;" horiz-adv-x="1296" 
d="M795 -2q-102 -53 -163 -124t-61 -140q0 -61 34 -98t91 -37q63 0 111 51l16 -15q-51 -61 -155 -61q-74 0 -128.5 45t-54.5 108.5t68 136.5t172 122q-37 -6 -78 -6q-225 0 -376.5 152.5t-151.5 379.5t151.5 379.5t376.5 152.5t377 -152.5t152 -379.5q0 -186 -105.5 -326.5
t-275.5 -187.5zM225 512q0 -231 116 -371.5t306.5 -140.5t306 140.5t115.5 371.5t-115.5 371.5t-306 140.5t-306.5 -140.5t-116 -371.5z" />
    <glyph glyph-name="uni01F1" unicode="&#x1f1;" horiz-adv-x="2856" 
d="M729 1434q322 0 538 -206t216 -511t-216 -511t-538 -206h-504v1434h504zM2738 1434v-33l-969 -1381h967v-20h-1067v33l967 1380h-938v21h1040zM713 20q299 0 481 190.5t182 506t-182 506t-481 190.5h-389v-1393h389z" />
    <glyph glyph-name="uni01F2" unicode="&#x1f2;" horiz-adv-x="2621" 
d="M729 1434q322 0 538 -206t216 -511t-216 -511t-538 -206h-504v1434h504zM713 20q299 0 481 190.5t182 506t-182 506t-481 190.5h-389v-1393h389zM2513 1024v-33l-682 -971h678v-20h-780v33l684 971h-654v20h754z" />
    <glyph glyph-name="uni01F3" unicode="&#x1f3;" horiz-adv-x="2301" 
d="M995 856v600l99 39v-1495h-99v145q-139 -166 -368 -165q-211 0 -359.5 153.5t-148.5 378.5t150.5 378.5t359.5 153.5q113 0 209 -49t157 -139zM633 -2q111 0 206 51t156 141v627q-137 209 -364 209q-178 0 -292 -142.5t-114 -371.5q0 -231 113 -372.5t295 -141.5z
M2191 1024v-33l-682 -971h678v-20h-780v33l684 971h-653v20h753z" />
    <glyph glyph-name="uni01F4" unicode="&#x1f4;" horiz-adv-x="1646" 
d="M1130 1815l-309 -207h-24l151 207h182zM1348 606h100v-606h-21l-81 143q-68 -76 -194 -119.5t-275 -43.5q-326 0 -542 210.5t-216 526t216 526.5t546 211q225 0 380.5 -97t155.5 -241q0 -33 -21.5 -55.5t-54.5 -22.5q-35 0 -58 22.5t-23 55.5t23.5 55.5t57.5 22.5
q12 0 19 -2q-35 111 -163 177.5t-312 66.5q-301 0 -480.5 -198t-179.5 -517q0 -324 184.5 -521.5t487.5 -197.5q162 0 281.5 56.5t169.5 150.5v397z" />
    <glyph glyph-name="uni01F5" unicode="&#x1f5;" horiz-adv-x="1288" 
d="M903 1425l-309 -206h-25l152 206h182zM995 995l99 39v-1116q0 -168 -130 -278.5t-335 -110.5q-174 0 -294 77t-120 191q0 35 23.5 57.5t60.5 22.5q35 0 56.5 -22.5t21.5 -57.5t-21.5 -57.5t-56.5 -22.5q-18 0 -27 2q35 -78 132.5 -125t220.5 -47q164 0 267 96.5
t103 243.5v258q-139 -166 -368 -165q-211 0 -359.5 153.5t-148.5 378.5t150.5 378.5t359.5 153.5q113 0 209 -49t157 -139v139zM633 -2q111 0 206 51t156 141v627q-137 209 -364 209q-178 0 -292 -142.5t-114 -371.5q0 -231 113 -372.5t295 -141.5z" />
    <glyph glyph-name="AEacute" unicode="&#x1fc;" horiz-adv-x="1835" 
d="M1374 1815l-309 -207h-25l152 207h182zM944 20h793v-20h-891v451h-561l-262 -451h-33l833 1434h893v-21h-772v-676h608v-20h-608v-697zM297 471h549v948l-551 -950z" />
    <glyph glyph-name="aeacute" unicode="&#x1fd;" horiz-adv-x="2013" 
d="M1274 1425l-309 -206h-25l152 206h182zM1790 324q33 0 54.5 -22.5t21.5 -57.5q0 -111 -122 -187.5t-292 -76.5q-154 0 -278.5 67.5t-194.5 181.5q-70 -109 -199 -179t-270 -70q-154 0 -268.5 83.5t-114.5 204.5q0 129 123 213t317 84q217 0 334 -67v223q0 131 -90 217
t-236 86q-109 0 -198.5 -41t-126.5 -106q8 2 24 2q35 0 56.5 -22.5t21.5 -57.5t-21.5 -57.5t-56 -22.5t-59.5 22.5t-25 57.5q0 102 115 173.5t275 71.5q150 0 257 -63t148 -172q70 111 184.5 173t249.5 62q209 0 341 -139t132 -348h-884v-39q0 -233 120.5 -376.5
t325.5 -143.5q123 0 220.5 46t131.5 122q-6 -2 -18 -2q-35 0 -58.5 21.5t-23.5 58.5q0 35 23.5 57.5t60.5 22.5zM1415 1024q-168 0 -279.5 -122t-125.5 -324h772q-4 201 -103.5 323.5t-263.5 122.5zM537 12q131 0 246.5 66.5t181.5 175.5q-51 94 -62 213q-43 35 -132 56.5
t-185 21.5q-168 0 -260.5 -71t-92.5 -193q0 -119 84.5 -194t219.5 -75z" />
    <glyph glyph-name="Oslashacute" unicode="&#x1fe;" horiz-adv-x="1708" 
d="M1118 1815l-309 -207h-25l152 207h182zM1321 1294q127 -102 197.5 -251.5t70.5 -325.5q0 -315 -210 -526t-525 -211q-254 0 -446 143l-113 -143h-33l125 159q-127 102 -197.5 252t-70.5 326q0 315 210 526t525 211q254 0 446 -143l113 143h33zM225 717q0 -340 191 -541
l858 1100q-168 158 -420 158q-285 0 -457 -196.5t-172 -520.5zM854 0q285 0 457 196.5t172 520.5q0 340 -191 540l-858 -1099q168 -158 420 -158z" />
    <glyph glyph-name="oslashacute" unicode="&#x1ff;" horiz-adv-x="1296" 
d="M913 1425l-309 -206h-24l151 206h182zM987 926q188 -156 189 -414q0 -227 -152 -379.5t-377 -152.5q-182 0 -319 102l-80 -102h-33l92 118q-188 156 -188 414q0 227 151.5 379.5t376.5 152.5q182 0 320 -102l80 102h32zM225 512q0 -231 115 -371l596 762
q-111 121 -289 121q-190 0 -306 -140.5t-116 -371.5zM647 0q190 0 306 140.5t116 371.5t-115 371l-596 -762q111 -121 289 -121z" />
    <glyph glyph-name="uni0200" unicode="&#x200;" horiz-adv-x="1474" 
d="M639 1608h-27l-295 207h172zM961 1608h-27l-295 207h172zM1294 0l-200 459h-787l-201 -459h-28l629 1434h63l627 -1434h-103zM315 479h770l-385 879z" />
    <glyph glyph-name="uni0201" unicode="&#x201;" horiz-adv-x="1175" 
d="M496 1219h-27l-295 206h172zM817 1219h-26l-295 206h172zM578 1044q186 0 303.5 -99t117.5 -249v-696h-98v156q-68 -78 -179.5 -127t-225.5 -49q-152 0 -260.5 83.5t-108.5 204.5q0 129 123 213t317 84q217 0 334 -67v229q0 129 -92 213t-240 84q-106 0 -194 -41
t-125 -106q8 2 24 2q35 0 56.5 -22.5t21.5 -57.5t-21.5 -57.5t-56 -22.5t-59.5 22.5t-25 57.5q0 104 114 174.5t274 70.5zM522 14q113 0 215.5 48.5t163.5 127.5v281q-102 74 -315 74q-168 0 -260.5 -71t-92.5 -195q0 -117 80 -191t209 -74z" />
    <glyph glyph-name="uni0202" unicode="&#x202;" horiz-adv-x="1474" 
d="M737 1743q-92 0 -160.5 -35t-76.5 -90h-25q16 92 92 155.5t170 63.5t170 -63.5t92 -155.5h-24q-8 55 -77 90t-161 35zM1294 0l-200 459h-787l-201 -459h-28l629 1434h63l627 -1434h-103zM315 479h770l-385 879z" />
    <glyph glyph-name="uni0203" unicode="&#x203;" horiz-adv-x="1175" 
d="M594 1354q-92 0 -160.5 -35t-77.5 -90h-24q16 92 92 155.5t170 63.5t170 -63.5t92 -155.5h-25q-8 55 -76.5 90t-160.5 35zM578 1044q186 0 303.5 -99t117.5 -249v-696h-98v156q-68 -78 -179.5 -127t-225.5 -49q-152 0 -260.5 83.5t-108.5 204.5q0 129 123 213t317 84
q217 0 334 -67v229q0 129 -92 213t-240 84q-106 0 -194 -41t-125 -106q8 2 24 2q35 0 56.5 -22.5t21.5 -57.5t-21.5 -57.5t-56 -22.5t-59.5 22.5t-25 57.5q0 104 114 174.5t274 70.5zM522 14q113 0 215.5 48.5t163.5 127.5v281q-102 74 -315 74q-168 0 -260.5 -71
t-92.5 -195q0 -117 80 -191t209 -74z" />
    <glyph glyph-name="uni0204" unicode="&#x204;" horiz-adv-x="1304" 
d="M637 1608h-27l-295 207h172zM958 1608h-26l-295 207h172zM324 20h882v-20h-981v1434h961v-21h-862v-676h698v-20h-698v-697z" />
    <glyph glyph-name="uni0205" unicode="&#x205;" 
d="M526 1219h-26l-295 206h172zM848 1219h-27l-295 206h172zM1008 324q33 0 55 -24t22 -56q0 -111 -122.5 -187.5t-292.5 -76.5q-240 0 -395.5 152.5t-155.5 379.5t151.5 379.5t368.5 152.5q207 0 339 -139t132 -348h-885v-39q0 -233 120 -376.5t323 -143.5q125 0 223 46
t135 122q-6 -2 -20 -2q-35 0 -58.5 21.5t-23.5 58.5q0 35 23.5 57.5t60.5 22.5zM635 1024q-170 0 -280.5 -122t-127.5 -324h772q-4 201 -102 323.5t-262 122.5z" />
    <glyph glyph-name="uni0206" unicode="&#x206;" horiz-adv-x="1304" 
d="M735 1743q-92 0 -160.5 -35t-76.5 -90h-25q16 92 92 155.5t170 63.5t170 -63.5t92 -155.5h-24q-8 55 -77 90t-161 35zM324 20h882v-20h-981v1434h961v-21h-862v-676h698v-20h-698v-697z" />
    <glyph glyph-name="uni0207" unicode="&#x207;" 
d="M624.5 1354q-92.5 0 -161 -35t-76.5 -90h-25q16 92 92 155.5t170.5 63.5t170 -63.5t92.5 -155.5h-25q-8 55 -76.5 90t-161 35zM1008 324q33 0 55 -24t22 -56q0 -111 -122.5 -187.5t-292.5 -76.5q-240 0 -395.5 152.5t-155.5 379.5t151.5 379.5t368.5 152.5
q207 0 339 -139t132 -348h-885v-39q0 -233 120 -376.5t323 -143.5q125 0 223 46t135 122q-6 -2 -20 -2q-35 0 -58.5 21.5t-23.5 58.5q0 35 23.5 57.5t60.5 22.5zM635 1024q-170 0 -280.5 -122t-127.5 -324h772q-4 201 -102 323.5t-262 122.5z" />
    <glyph glyph-name="uni0208" unicode="&#x208;" horiz-adv-x="548" 
d="M176 1608h-26l-295 207h172zM498 1608h-27l-295 207h172zM225 0v1434h99v-1434h-99z" />
    <glyph glyph-name="uni0209" unicode="&#x209;" horiz-adv-x="507" 
d="M156 1219h-27l-295 206h172zM477 1219h-26l-295 206h172zM205 0v995l98 39v-1034h-98z" />
    <glyph glyph-name="uni020A" unicode="&#x20a;" horiz-adv-x="548" 
d="M274.5 1837q94.5 0 170 -63.5t92.5 -155.5h-25q-8 55 -76.5 90t-161 35t-161 -35t-76.5 -90h-25q16 92 92 155.5t170.5 63.5zM225 0v1434h99v-1434h-99z" />
    <glyph glyph-name="uni020B" unicode="&#x20b;" horiz-adv-x="507" 
d="M254 1448q94 0 170 -63.5t92 -155.5h-24q-8 55 -77 90t-161 35t-160.5 -35t-77.5 -90h-24q16 92 92 155.5t170 63.5zM205 0v995l98 39v-1034h-98z" />
    <glyph glyph-name="uni020C" unicode="&#x20c;" horiz-adv-x="1708" 
d="M756 1608h-27l-295 207h172zM1077 1608h-26l-295 207h172zM854 -20q-315 0 -525 210.5t-210 526t210 526.5t525 211t525 -211t210 -526.5t-210 -526t-525 -210.5zM854 0q285 0 457 196.5t172 520t-172 520.5t-457 197t-457 -197t-172 -520.5t172 -520t457 -196.5z" />
    <glyph glyph-name="uni020D" unicode="&#x20d;" horiz-adv-x="1296" 
d="M549 1219h-27l-295 206h172zM870 1219h-26l-295 206h172zM647 -20q-225 0 -376.5 152.5t-151.5 379.5t151.5 379.5t376.5 152.5t377 -152.5t152 -379.5t-152 -379.5t-377 -152.5zM647.5 0q190.5 0 306 140.5t115.5 371.5t-115.5 371.5t-306 140.5t-306.5 -140.5
t-116 -371.5t116 -371.5t306.5 -140.5z" />
    <glyph glyph-name="uni020E" unicode="&#x20e;" horiz-adv-x="1708" 
d="M854 1837q94 0 170 -63.5t92 -155.5h-24q-8 55 -77 90t-161 35t-160.5 -35t-77.5 -90h-24q16 92 92 155.5t170 63.5zM854 -20q-315 0 -525 210.5t-210 526t210 526.5t525 211t525 -211t210 -526.5t-210 -526t-525 -210.5zM854 0q285 0 457 196.5t172 520t-172 520.5
t-457 197t-457 -197t-172 -520.5t172 -520t457 -196.5z" />
    <glyph glyph-name="uni020F" unicode="&#x20f;" horiz-adv-x="1296" 
d="M647 1448q94 0 170 -63.5t92 -155.5h-24q-8 55 -77 90t-161 35t-160.5 -35t-76.5 -90h-25q16 92 92 155.5t170 63.5zM647 -20q-225 0 -376.5 152.5t-151.5 379.5t151.5 379.5t376.5 152.5t377 -152.5t152 -379.5t-152 -379.5t-377 -152.5zM647.5 0q190.5 0 306 140.5
t115.5 371.5t-115.5 371.5t-306 140.5t-306.5 -140.5t-116 -371.5t116 -371.5t306.5 -140.5z" />
    <glyph glyph-name="uni0210" unicode="&#x210;" horiz-adv-x="1400" 
d="M631 1608h-27l-295 207h172zM952 1608h-26l-295 207h172zM1229 156q68 -102 143 -156h-127q-72 55 -115 119l-247 387q-35 53 -66 78.5t-82 40.5h-411v-625h-99v1434h535q217 0 362.5 -116t145.5 -290q0 -160 -129 -272.5t-326 -128.5q133 -31 184 -107zM324 1413v-768
h424q188 0 300.5 103.5t112.5 275.5q0 176 -112.5 282.5t-300.5 106.5h-424z" />
    <glyph glyph-name="uni0211" unicode="&#x211;" horiz-adv-x="929" 
d="M430 1219h-27l-294 206h172zM752 1219h-27l-295 206h172zM623 1044q100 0 166.5 -50t66.5 -124q0 -35 -22.5 -56t-55.5 -21q-35 0 -57.5 22.5t-22.5 54.5q0 35 22.5 57.5t57.5 22.5h2q-53 70 -162 70q-100 0 -187 -70.5t-128 -183.5v-766h-98v995l98 39v-213
q43 100 130.5 161.5t189.5 61.5z" />
    <glyph glyph-name="uni0212" unicode="&#x212;" horiz-adv-x="1400" 
d="M729 1743q-92 0 -160.5 -35t-76.5 -90h-25q16 92 92 155.5t170 63.5t170 -63.5t92 -155.5h-24q-8 55 -77 90t-161 35zM1229 156q68 -102 143 -156h-127q-72 55 -115 119l-247 387q-35 53 -66 78.5t-82 40.5h-411v-625h-99v1434h535q217 0 362.5 -116t145.5 -290
q0 -160 -129 -272.5t-326 -128.5q133 -31 184 -107zM324 1413v-768h424q188 0 300.5 103.5t112.5 275.5q0 176 -112.5 282.5t-300.5 106.5h-424z" />
    <glyph glyph-name="uni0213" unicode="&#x213;" horiz-adv-x="929" 
d="M528.5 1354q-92.5 0 -161 -35t-76.5 -90h-25q16 92 92 155.5t170.5 63.5t170 -63.5t92.5 -155.5h-25q-8 55 -76.5 90t-161 35zM623 1044q100 0 166.5 -50t66.5 -124q0 -35 -22.5 -56t-55.5 -21q-35 0 -57.5 22.5t-22.5 54.5q0 35 22.5 57.5t57.5 22.5h2q-53 70 -162 70
q-100 0 -187 -70.5t-128 -183.5v-766h-98v995l98 39v-213q43 100 130.5 161.5t189.5 61.5z" />
    <glyph glyph-name="uni0214" unicode="&#x214;" horiz-adv-x="1593" 
d="M715 1608h-27l-295 207h172zM1036 1608h-26l-295 207h172zM817 -20q-270 0 -438 161.5t-168 425.5v867h98v-899q0 -238 143.5 -383.5t374.5 -145.5q240 0 383.5 144.5t143.5 384.5v899h28v-897q0 -254 -152.5 -405.5t-412.5 -151.5z" />
    <glyph glyph-name="uni0215" unicode="&#x215;" horiz-adv-x="1259" 
d="M520 1219h-26l-295 206h172zM842 1219h-27l-295 206h172zM956 995l99 39v-1034h-99v209q-53 -100 -162.5 -164.5t-236.5 -64.5q-162 0 -268.5 101t-106.5 253v661l99 39v-725q0 -129 80.5 -215t205.5 -86q121 0 229.5 69.5t159.5 180.5v737z" />
    <glyph glyph-name="uni0216" unicode="&#x216;" horiz-adv-x="1593" 
d="M813 1837q94 0 170 -63.5t92 -155.5h-24q-8 55 -77 90t-161 35t-160.5 -35t-77.5 -90h-24q16 92 92 155.5t170 63.5zM817 -20q-270 0 -438 161.5t-168 425.5v867h98v-899q0 -238 143.5 -383.5t374.5 -145.5q240 0 383.5 144.5t143.5 384.5v899h28v-897
q0 -254 -152.5 -405.5t-412.5 -151.5z" />
    <glyph glyph-name="uni0217" unicode="&#x217;" horiz-adv-x="1259" 
d="M618.5 1354q-92.5 0 -161 -35t-76.5 -90h-25q16 92 92 155.5t170.5 63.5t170 -63.5t92.5 -155.5h-25q-8 55 -76.5 90t-161 35zM956 995l99 39v-1034h-99v209q-53 -100 -162.5 -164.5t-236.5 -64.5q-162 0 -268.5 101t-106.5 253v661l99 39v-725q0 -129 80.5 -215
t205.5 -86q121 0 229.5 69.5t159.5 180.5v737z" />
    <glyph glyph-name="uni0218" unicode="&#x218;" horiz-adv-x="1263" 
d="M678 766q94 -35 144 -56.5t122 -60.5t107.5 -76.5t63.5 -95t28 -125.5q0 -170 -140.5 -271t-359.5 -101q-215 0 -362.5 94t-147.5 231q0 35 23.5 58.5t60.5 23.5q35 0 57.5 -23.5t22.5 -58.5t-22.5 -58.5t-57.5 -23.5q-12 0 -29 4q37 -102 162 -165.5t291 -63.5
q186 0 307 88t121 221q0 55 -25.5 103.5t-60.5 82t-101.5 69.5t-115.5 57.5t-137 56.5q-102 39 -161.5 66.5t-138.5 78.5t-118 119t-39 152q0 156 134 259t337 103q188 0 316 -87t128 -216q0 -35 -22.5 -58.5t-56.5 -23.5q-37 0 -60.5 23.5t-23.5 58.5t23.5 58.5t60.5 23.5
q10 0 26 -4q-35 92 -140.5 149.5t-250.5 57.5q-168 0 -281.5 -89.5t-113.5 -216.5q0 -55 26.5 -103t62.5 -83t100.5 -70.5t113.5 -56t127 -51.5zM657 -168q41 0 67 -26.5t26 -71.5q0 -61 -41 -127t-95 -96l-10 16q39 23 67.5 65.5t33.5 85.5q-16 -16 -52 -16
q-37 0 -61.5 25.5t-24.5 64.5q0 33 25.5 56.5t64.5 23.5z" />
    <glyph glyph-name="uni0219" unicode="&#x219;" horiz-adv-x="974" 
d="M537 559q74 -31 119.5 -53.5t100 -60t81 -86t26.5 -109.5q0 -119 -100 -194.5t-264 -75.5q-156 0 -267.5 64.5t-113.5 158.5v2q0 37 24.5 60.5t63.5 23.5q35 0 57.5 -23.5t22.5 -60.5t-22.5 -60.5t-57.5 -23.5q-12 0 -17 2q39 -55 122 -89t184 -34q129 0 209.5 60.5
t80.5 150.5q0 49 -23.5 87t-74.5 70.5t-91 51t-116 49.5q-74 29 -122 53.5t-102 62.5t-82 87t-28 108q0 117 101.5 190.5t257.5 73.5q137 0 231 -57t99 -141v-2v-2q0 -37 -24 -60.5t-58 -23.5q-37 0 -61.5 23.5t-24.5 60.5t24.5 60.5t61.5 23.5h12q-74 98 -258 98
q-121 0 -201 -60.5t-80 -146.5q0 -39 19.5 -72.5t44 -57t73 -49.5t81.5 -40t92 -39zM500 -168q41 0 66.5 -26.5t25.5 -71.5q0 -61 -41 -127t-94 -96l-11 16q39 23 68 65.5t33 85.5q-16 -16 -51 -16q-37 0 -61.5 25.5t-24.5 64.5q0 33 25.5 56.5t64.5 23.5z" />
    <glyph glyph-name="uni021A" unicode="&#x21a;" horiz-adv-x="1265" 
d="M1196 1434v-21h-512v-1413h-98v1413h-514v21h1124zM633 -168q41 0 66.5 -26.5t25.5 -71.5q0 -61 -41 -127t-94 -96l-10 16q39 23 67.5 65.5t32.5 85.5q-16 -16 -51 -16q-37 0 -61.5 25.5t-24.5 64.5q0 33 25.5 56.5t64.5 23.5z" />
    <glyph glyph-name="uni021B" unicode="&#x21b;" horiz-adv-x="763" 
d="M702 121l23 -15q-23 -53 -87.5 -89.5t-139.5 -36.5q-115 0 -193 70.5t-78 174.5v779h-137v20h137v238l99 36v-274h340v-20h-340v-809q0 -82 53 -137.5t133 -55.5q59 0 114.5 35t75.5 84zM442 -168q41 0 67 -26.5t26 -71.5q0 -61 -41 -127t-95 -96l-10 16q39 23 67.5 65.5
t32.5 85.5q-16 -16 -51 -16q-37 0 -61.5 25.5t-24.5 64.5q0 33 25.5 56.5t64.5 23.5z" />
    <glyph glyph-name="uni0232" unicode="&#x232;" horiz-adv-x="1400" 
d="M934 1714v-49h-469v49h469zM1292 1434h31l-573 -820v-614h-99v614l-573 820h115l550 -785z" />
    <glyph glyph-name="uni0233" unicode="&#x233;" horiz-adv-x="1067" 
d="M778 1325v-49h-469v49h469zM989 1024h29l-606 -1380q-23 -53 -69 -84t-101 -31q-59 0 -103.5 36t-46.5 87v2q0 33 24.5 56.5t57.5 23.5q35 0 56.5 -22.5t21.5 -57.5t-21.5 -57.5t-56.5 -22.5h-6q29 -29 74 -29q43 0 85 28t64 77l133 305l-469 1069h101l417 -954z" />
    <glyph glyph-name="uni0237" unicode="&#x237;" horiz-adv-x="505" 
d="M215 995l98 39v-1227q0 -121 -83 -199.5t-203 -78.5q-88 0 -147.5 46t-59.5 114q0 35 22.5 58.5t57.5 23.5q37 0 60.5 -23.5t23.5 -58.5t-23.5 -58.5t-60.5 -23.5q-14 0 -21 2q55 -61 144 -62q86 0 139 60.5t53 150.5v1237z" />
    <glyph glyph-name="uni02BC" unicode="&#x2bc;" horiz-adv-x="172" 
d="M0 1206l41 248h131l-145 -248h-27z" />
    <glyph glyph-name="circumflex" unicode="&#x2c6;" horiz-adv-x="524" 
d="M524 1227l-8 -13l-254 136l-254 -136l-8 13l240 221h45z" />
    <glyph glyph-name="caron" unicode="&#x2c7;" horiz-adv-x="524" 
d="M516 1442l8 -12l-239 -222h-45l-240 222l8 12l254 -135z" />
    <glyph glyph-name="breve" unicode="&#x2d8;" horiz-adv-x="524" 
d="M262 1210q-94 0 -170 62.5t-92 154.5h25q8 -55 76.5 -89.5t160.5 -34.5t161 34.5t77 89.5h24q-16 -92 -92 -154.5t-170 -62.5z" />
    <glyph glyph-name="dotaccent" unicode="&#x2d9;" horiz-adv-x="176" 
d="M88 1210q-37 0 -62.5 23.5t-25.5 60.5t25.5 61.5t64.5 24.5q37 0 61.5 -24.5t24.5 -61.5t-24.5 -60.5t-63.5 -23.5z" />
    <glyph glyph-name="ring" unicode="&#x2da;" horiz-adv-x="294" 
d="M149.5 1182q-63.5 0 -106.5 40t-43 101q0 63 43 105t109 42q61 0 102 -42t41 -105q0 -61 -41 -101t-104.5 -40zM150 1200q53 0 86.5 34t33.5 89q0 57 -33.5 93t-86.5 36q-55 0 -90 -36t-35 -93q0 -55 35 -89t90 -34z" />
    <glyph glyph-name="ogonek" unicode="&#x2db;" horiz-adv-x="337" 
d="M182 -426q-74 0 -128 45t-54 109q0 72 79 149.5t197 122.5l-14 4l33 6l16 -10q-102 -53 -163.5 -125t-61.5 -141q0 -61 34 -98t91 -37q63 0 111 51l16 -15q-52 -61 -156 -61z" />
    <glyph glyph-name="tilde" unicode="&#x2dc;" horiz-adv-x="579" 
d="M406 1233q-14 0 -29 2t-30 9t-24.5 11.5t-23.5 15.5t-18.5 15t-18.5 17l-16 14q-55 49 -111 49q-41 0 -74.5 -34t-37.5 -89h-23q0 84 50 140.5t122 56.5q68 0 158 -82q57 -51 114 -51q43 0 76 33.5t37 89.5h23q0 -84 -50 -140.5t-124 -56.5z" />
    <glyph glyph-name="hungarumlaut" unicode="&#x2dd;" horiz-adv-x="643" 
d="M0 1219l150 206h172l-295 -206h-27zM322 1219l149 206h172l-295 -206h-26z" />
    <glyph glyph-name="gravecomb" unicode="&#x300;" horiz-adv-x="0" 
d="M-25 1219l-309 206h182l152 -206h-25z" />
    <glyph glyph-name="acutecomb" unicode="&#x301;" horiz-adv-x="0" 
d="M-309 1219h-25l152 206h182z" />
    <glyph glyph-name="uni0302" unicode="&#x302;" horiz-adv-x="0" 
d="M0 1227l-8 -13l-254 136l-254 -136l-8 13l239 221h45z" />
    <glyph glyph-name="tildecomb" unicode="&#x303;" horiz-adv-x="0" 
d="M-174 1233q-14 0 -28.5 2t-30 9t-24.5 11.5t-23.5 15.5t-18.5 15t-20 17l-15 14q-55 49 -110 49q-41 0 -75 -34t-38 -89h-23q0 84 50.5 140.5t121.5 56.5q68 0 158 -82q57 -51 115 -51q43 0 75.5 33.5t36.5 89.5h23q0 -84 -50 -140.5t-124 -56.5z" />
    <glyph glyph-name="uni0304" unicode="&#x304;" horiz-adv-x="0" 
d="M-469 1276v49h469v-49h-469z" />
    <glyph glyph-name="uni0306" unicode="&#x306;" horiz-adv-x="0" 
d="M-262 1210q-94 0 -170 62.5t-92 154.5h24q8 -55 77 -89.5t161 -34.5t160.5 34.5t76.5 89.5h25q-16 -92 -92 -154.5t-170 -62.5z" />
    <glyph glyph-name="uni0307" unicode="&#x307;" horiz-adv-x="0" 
d="M-88 1210q-37 0 -62.5 23.5t-25.5 60.5t25.5 61.5t64.5 24.5q37 0 61.5 -24.5t24.5 -61.5t-24.5 -60.5t-63.5 -23.5z" />
    <glyph glyph-name="uni0308" unicode="&#x308;" horiz-adv-x="0" 
d="M-457 1212q-35 0 -58.5 22.5t-23.5 57.5t23.5 59.5t62.5 24.5q33 0 55.5 -23.5t22.5 -58t-22.5 -58.5t-59.5 -24zM-80 1212q-35 0 -59.5 22.5t-24.5 59.5q0 35 24.5 58.5t61.5 23.5q33 0 55.5 -23.5t22.5 -58t-22.5 -58.5t-57.5 -24z" />
    <glyph glyph-name="uni030A" unicode="&#x30a;" horiz-adv-x="0" 
d="M-145.5 1182q-63.5 0 -106.5 40t-43 101q0 63 43 105t109 42q61 0 102 -42t41 -105q0 -61 -41 -101t-104.5 -40zM-145 1200q53 0 86.5 34t33.5 89q0 57 -33.5 93t-86.5 36q-55 0 -90 -36t-35 -93q0 -55 35 -89t90 -34z" />
    <glyph glyph-name="uni030B" unicode="&#x30b;" horiz-adv-x="0" 
d="M-643 1219l149 206h172l-294 -206h-27zM-322 1219l150 206h172l-295 -206h-27z" />
    <glyph glyph-name="uni030C" unicode="&#x30c;" horiz-adv-x="0" 
d="M-8 1442l8 -12l-240 -222h-45l-239 222l8 12l254 -135z" />
    <glyph glyph-name="uni030F" unicode="&#x30f;" horiz-adv-x="0" 
d="M-322 1219h-26l-295 206h172zM0 1219h-27l-295 206h172z" />
    <glyph glyph-name="uni0311" unicode="&#x311;" horiz-adv-x="0" 
d="M-262 1448q94 0 170 -63.5t92 -155.5h-25q-8 55 -76.5 90t-160.5 35t-161 -35t-77 -90h-24q16 92 92 155.5t170 63.5z" />
    <glyph glyph-name="uni0312" unicode="&#x312;" horiz-adv-x="0" 
d="M-84 1352q35 0 59.5 -26t24.5 -64q0 -35 -25.5 -58.5t-64.5 -23.5t-65.5 27.5t-26.5 72.5q0 61 41 127t94 94l10 -16q-39 -20 -67.5 -63.5t-32.5 -86.5q16 17 53 17z" />
    <glyph glyph-name="dotbelowcomb" unicode="&#x323;" horiz-adv-x="0" 
d="M-88 -338q-37 0 -62.5 23.5t-25.5 60.5t25.5 61.5t64.5 24.5q37 0 61.5 -24.5t24.5 -61.5t-24.5 -60.5t-63.5 -23.5z" />
    <glyph glyph-name="uni0326" unicode="&#x326;" horiz-adv-x="0" 
d="M-92 -168q41 0 66.5 -26.5t25.5 -71.5q0 -61 -41 -127t-94 -96l-10 16q39 23 67.5 65.5t32.5 85.5q-16 -16 -51 -16q-37 0 -61.5 25.5t-24.5 64.5q0 33 25.5 56.5t64.5 23.5z" />
    <glyph glyph-name="uni0327" unicode="&#x327;" horiz-adv-x="0" 
d="M-158 -125q68 0 113 -43t45 -104q0 -66 -54.5 -110t-133.5 -44q-96 0 -158 61l14 19q49 -59 133 -60q47 0 80 38t33 92q0 55 -28.5 90.5t-71.5 35.5q-47 0 -72 -45l-16 5l90 184h26l-73 -137q36 18 73 18z" />
    <glyph glyph-name="uni0328" unicode="&#x328;" horiz-adv-x="0" 
d="M-156 -426q-74 0 -128 45t-54 109q0 72 79 149.5t198 122.5l-15 4l33 6l16 -10q-102 -53 -163.5 -125t-61.5 -141q0 -61 34 -98t91 -37q63 0 111 51l16 -15q-52 -61 -156 -61z" />
    <glyph glyph-name="uni0335" unicode="&#x335;" horiz-adv-x="0" 
d="M-514 543v20h514v-20h-514z" />
    <glyph glyph-name="uni0336" unicode="&#x336;" horiz-adv-x="0" 
d="M-1456 543v20h1456v-20h-1456z" />
    <glyph glyph-name="uni0337" unicode="&#x337;" horiz-adv-x="0" 
d="M-864 -20l831 1064h33l-831 -1064h-33z" />
    <glyph glyph-name="uni0338" unicode="&#x338;" horiz-adv-x="0" 
d="M-1184 -20l1151 1474h33l-1151 -1474h-33z" />
    <glyph glyph-name="uni1E0C" unicode="&#x1e0c;" horiz-adv-x="1601" 
d="M729 1434q322 0 538 -206t216 -511t-216 -511t-538 -206h-504v1434h504zM713 20q299 0 481 190.5t182 506t-182 506t-481 190.5h-389v-1393h389zM795 -168q37 0 61.5 -24.5t24.5 -61.5t-25 -60.5t-63 -23.5q-37 0 -62.5 23.5t-25.5 60.5t25.5 61.5t64.5 24.5z" />
    <glyph glyph-name="uni1E0D" unicode="&#x1e0d;" horiz-adv-x="1298" 
d="M995 1456l99 39v-1495h-99v145q-139 -166 -368 -165q-211 0 -359.5 153.5t-148.5 378.5t150.5 378.5t359.5 153.5q113 0 209 -49t157 -139v600zM633 -2q111 0 206 51t156 141v627q-137 209 -364 209q-178 0 -292 -142.5t-114 -371.5q0 -231 113 -372.5t295 -141.5z
M662 -168q37 0 61.5 -24.5t24.5 -61.5t-25 -60.5t-64 -23.5q-37 0 -62.5 23.5t-25.5 60.5t26 61.5t65 24.5z" />
    <glyph glyph-name="uni1E24" unicode="&#x1e24;" horiz-adv-x="1601" 
d="M1278 1434h98v-1434h-98v717h-954v-717h-99v1434h99v-697h954v697zM803 -168q37 0 61.5 -24.5t24.5 -61.5t-24.5 -60.5t-63.5 -23.5q-37 0 -62.5 23.5t-25.5 60.5t25.5 61.5t64.5 24.5z" />
    <glyph glyph-name="uni1E25" unicode="&#x1e25;" horiz-adv-x="1265" 
d="M711 1044q166 0 272.5 -100t106.5 -254v-690h-99v715q0 129 -83 215t-210 86q-121 0 -233.5 -69.5t-161.5 -178.5v-768h-98v1456l98 39v-680q53 100 165 164.5t243 64.5zM649 -168q37 0 61.5 -24.5t24.5 -61.5t-24.5 -60.5t-63.5 -23.5q-37 0 -62.5 23.5t-25.5 60.5
t25.5 61.5t64.5 24.5z" />
    <glyph glyph-name="uni1E44" unicode="&#x1e44;" horiz-adv-x="1611" 
d="M823 1599q-37 0 -62.5 24t-25.5 60.5t25.5 61t64.5 24.5q37 0 61.5 -24.5t24.5 -61t-24.5 -60.5t-63.5 -24zM1358 1434h28v-1434h-69l-1063 1409v-1409h-29v1434h137l996 -1319v1319z" />
    <glyph glyph-name="uni1E45" unicode="&#x1e45;" horiz-adv-x="1265" 
d="M647 1210q-37 0 -62.5 23.5t-25.5 60.5t25.5 61.5t64.5 24.5q37 0 61.5 -24.5t24.5 -61.5t-24.5 -60.5t-63.5 -23.5zM711 1044q166 0 272.5 -100t106.5 -254v-690h-99v715q0 129 -83 215t-210 86q-121 0 -233.5 -69.5t-161.5 -178.5v-768h-98v995l98 39v-219
q53 100 165 164.5t243 64.5z" />
    <glyph glyph-name="uni1E5A" unicode="&#x1e5a;" horiz-adv-x="1400" 
d="M1229 156q68 -102 143 -156h-127q-72 55 -115 119l-247 387q-35 53 -66 78.5t-82 40.5h-411v-625h-99v1434h535q217 0 362.5 -116t145.5 -290q0 -160 -129 -272.5t-326 -128.5q133 -31 184 -107zM324 1413v-768h424q188 0 300.5 103.5t112.5 275.5q0 176 -112.5 282.5
t-300.5 106.5h-424zM782 -168q37 0 61.5 -24.5t24.5 -61.5t-24.5 -60.5t-63.5 -23.5q-37 0 -62.5 23.5t-25.5 60.5t25.5 61.5t64.5 24.5z" />
    <glyph glyph-name="uni1E5B" unicode="&#x1e5b;" horiz-adv-x="929" 
d="M623 1044q100 0 166.5 -50t66.5 -124q0 -35 -22.5 -56t-55.5 -21q-35 0 -57.5 22.5t-22.5 54.5q0 35 22.5 57.5t57.5 22.5h2q-53 70 -162 70q-100 0 -187 -70.5t-128 -183.5v-766h-98v995l98 39v-213q43 100 130.5 161.5t189.5 61.5zM260 -168q37 0 61.5 -24.5
t24.5 -61.5t-24.5 -60.5t-63.5 -23.5q-37 0 -62.5 23.5t-25.5 60.5t25.5 61.5t64.5 24.5z" />
    <glyph glyph-name="uni1E62" unicode="&#x1e62;" horiz-adv-x="1263" 
d="M678 766q94 -35 144 -56.5t122 -60.5t107.5 -76.5t63.5 -95t28 -125.5q0 -170 -140.5 -271t-359.5 -101q-215 0 -362.5 94t-147.5 231q0 35 23.5 58.5t60.5 23.5q35 0 57.5 -23.5t22.5 -58.5t-22.5 -58.5t-57.5 -23.5q-12 0 -29 4q37 -102 162 -165.5t291 -63.5
q186 0 307 88t121 221q0 55 -25.5 103.5t-60.5 82t-101.5 69.5t-115.5 57.5t-137 56.5q-102 39 -161.5 66.5t-138.5 78.5t-118 119t-39 152q0 156 134 259t337 103q188 0 316 -87t128 -216q0 -35 -22.5 -58.5t-56.5 -23.5q-37 0 -60.5 23.5t-23.5 58.5t23.5 58.5t60.5 23.5
q10 0 26 -4q-35 92 -140.5 149.5t-250.5 57.5q-168 0 -281.5 -89.5t-113.5 -216.5q0 -55 26.5 -103t62.5 -83t100.5 -70.5t113.5 -56t127 -51.5zM662 -168q37 0 61.5 -24.5t24.5 -61.5t-25 -60.5t-64 -23.5q-37 0 -62.5 23.5t-25.5 60.5t26 61.5t65 24.5z" />
    <glyph glyph-name="uni1E63" unicode="&#x1e63;" horiz-adv-x="974" 
d="M537 559q74 -31 119.5 -53.5t100 -60t81 -86t26.5 -109.5q0 -119 -100 -194.5t-264 -75.5q-156 0 -267.5 64.5t-113.5 158.5v2q0 37 24.5 60.5t63.5 23.5q35 0 57.5 -23.5t22.5 -60.5t-22.5 -60.5t-57.5 -23.5q-12 0 -17 2q39 -55 122 -89t184 -34q129 0 209.5 60.5
t80.5 150.5q0 49 -23.5 87t-74.5 70.5t-91 51t-116 49.5q-74 29 -122 53.5t-102 62.5t-82 87t-28 108q0 117 101.5 190.5t257.5 73.5q137 0 231 -57t99 -141v-2v-2q0 -37 -24 -60.5t-58 -23.5q-37 0 -61.5 23.5t-24.5 60.5t24.5 60.5t61.5 23.5h12q-74 98 -258 98
q-121 0 -201 -60.5t-80 -146.5q0 -39 19.5 -72.5t44 -57t73 -49.5t81.5 -40t92 -39zM502 -168q37 0 61.5 -24.5t24.5 -61.5t-24.5 -60.5t-63.5 -23.5q-37 0 -62.5 23.5t-25.5 60.5t25.5 61.5t64.5 24.5z" />
    <glyph glyph-name="uni1E6C" unicode="&#x1e6c;" horiz-adv-x="1265" 
d="M1196 1434v-21h-512v-1413h-98v1413h-514v21h1124zM635 -168q37 0 61.5 -24.5t24.5 -61.5t-24.5 -60.5t-63.5 -23.5q-37 0 -62.5 23.5t-25.5 60.5t25.5 61.5t64.5 24.5z" />
    <glyph glyph-name="uni1E6D" unicode="&#x1e6d;" horiz-adv-x="763" 
d="M702 121l23 -15q-23 -53 -87.5 -89.5t-139.5 -36.5q-115 0 -193 70.5t-78 174.5v779h-137v20h137v238l99 36v-274h340v-20h-340v-809q0 -82 53 -137.5t133 -55.5q59 0 114.5 35t75.5 84zM444 -168q37 0 61.5 -24.5t24.5 -61.5t-24.5 -60.5t-63.5 -23.5q-37 0 -62.5 23.5
t-25.5 60.5t25.5 61.5t64.5 24.5z" />
    <glyph glyph-name="Wgrave" unicode="&#x1e80;" horiz-adv-x="2293" 
d="M1212 1608h-24l-309 207h182zM2187 1434h29l-629 -1434h-63l-379 864l-377 -864h-63l-627 1434h102l592 -1358l361 821l-236 537h102l594 -1358z" />
    <glyph glyph-name="wgrave" unicode="&#x1e81;" horiz-adv-x="1665" 
d="M897 1219h-25l-309 206h182zM1587 1024h29l-449 -1024h-63l-273 623l-274 -623h-63l-449 1024h100l416 -950l256 583l-162 367h101l415 -954z" />
    <glyph glyph-name="Wacute" unicode="&#x1e82;" horiz-adv-x="2293" 
d="M1409 1815l-309 -207h-25l152 207h182zM2187 1434h29l-629 -1434h-63l-379 864l-377 -864h-63l-627 1434h102l592 -1358l361 821l-236 537h102l594 -1358z" />
    <glyph glyph-name="wacute" unicode="&#x1e83;" horiz-adv-x="1665" 
d="M1094 1425l-310 -206h-24l151 206h183zM1587 1024h29l-449 -1024h-63l-273 623l-274 -623h-63l-449 1024h100l416 -950l256 583l-162 367h101l415 -954z" />
    <glyph glyph-name="Wdieresis" unicode="&#x1e84;" horiz-adv-x="2293" 
d="M956 1602q-35 0 -58.5 22.5t-23.5 57t24 59t63 24.5q33 0 55 -23.5t22 -58t-22.5 -58t-59.5 -23.5zM1333 1602q-35 0 -59.5 22.5t-24.5 58.5q0 35 24.5 58.5t61.5 23.5q33 0 55.5 -23.5t22.5 -58t-22.5 -58t-57.5 -23.5zM2187 1434h29l-629 -1434h-63l-379 864l-377 -864
h-63l-627 1434h102l592 -1358l361 821l-236 537h102l594 -1358z" />
    <glyph glyph-name="wdieresis" unicode="&#x1e85;" horiz-adv-x="1665" 
d="M641 1212q-35 0 -58.5 22.5t-23.5 57.5t23.5 59.5t62.5 24.5q33 0 55.5 -23.5t22.5 -58t-22.5 -58.5t-59.5 -24zM1018 1212q-35 0 -59.5 22.5t-24.5 59.5q0 35 24.5 58.5t61.5 23.5q33 0 55.5 -23.5t22.5 -58t-22.5 -58.5t-57.5 -24zM1587 1024h29l-449 -1024h-63
l-273 623l-274 -623h-63l-449 1024h100l416 -950l256 583l-162 367h101l415 -954z" />
    <glyph glyph-name="uni1E92" unicode="&#x1e92;" horiz-adv-x="1310" 
d="M1190 1434v-33l-969 -1381h967v-20h-1067v33l966 1380h-937v21h1040zM692 -168q37 0 61.5 -24.5t24.5 -61.5t-24.5 -60.5t-63.5 -23.5q-37 0 -62.5 23.5t-25.5 60.5t25.5 61.5t64.5 24.5z" />
    <glyph glyph-name="uni1E93" unicode="&#x1e93;" horiz-adv-x="1003" 
d="M893 1024v-33l-682 -971h678v-20h-780v33l684 971h-654v20h754zM524 -168q37 0 61.5 -24.5t24.5 -61.5t-24.5 -60.5t-63.5 -23.5q-37 0 -62.5 23.5t-25.5 60.5t25.5 61.5t64.5 24.5z" />
    <glyph glyph-name="uni1E9E" unicode="&#x1e9e;" horiz-adv-x="1460" 
d="M883 842q205 0 341 -125t136 -311q0 -182 -130 -304t-327 -122q-172 0 -290.5 88t-118.5 217q0 35 23.5 57.5t58 22.5t56 -23t21.5 -57.5t-21.5 -57t-56.5 -22.5q-10 0 -30 4q29 -98 126 -155.5t230 -57.5q168 0 262 109.5t94 295.5q0 193 -99 306.5t-261 113.5h-131v13
l348 579h-582q-94 0 -151 -59.5t-57 -159.5v-1194h-99v1157q0 119 83 198t206 79h733v-29l-424 -563h60z" />
    <glyph glyph-name="uni1EA0" unicode="&#x1ea0;" horiz-adv-x="1474" 
d="M1397 0h-103l-200 459h-787l-201 -459h-28l629 1434h63zM315 479h770l-385 879zM739 -168q37 0 61.5 -24.5t24.5 -61.5t-24.5 -60.5t-63.5 -23.5q-37 0 -62.5 23.5t-25.5 60.5t25.5 61.5t64.5 24.5z" />
    <glyph glyph-name="uni1EA1" unicode="&#x1ea1;" horiz-adv-x="1175" 
d="M578 1044q186 0 303.5 -99t117.5 -249v-696h-98v156q-68 -78 -179.5 -127t-225.5 -49q-152 0 -260.5 83.5t-108.5 204.5q0 129 123 213t317 84q217 0 334 -67v229q0 129 -92 213t-240 84q-106 0 -194 -41t-125 -106q8 2 24 2q35 0 56.5 -22.5t21.5 -57.5t-21.5 -57.5
t-56 -22.5t-59.5 22.5t-25 57.5q0 104 114 174.5t274 70.5zM522 14q113 0 215.5 48.5t163.5 127.5v281q-102 74 -315 74q-168 0 -260.5 -71t-92.5 -195q0 -117 80 -191t209 -74zM596 -168q37 0 61.5 -24.5t24.5 -61.5t-24.5 -60.5t-63.5 -23.5q-37 0 -62.5 23.5t-25.5 60.5
t25.5 61.5t64.5 24.5z" />
    <glyph glyph-name="uni1EB8" unicode="&#x1eb8;" horiz-adv-x="1304" 
d="M324 20h882v-20h-981v1434h961v-21h-862v-676h698v-20h-698v-697zM737 -168q37 0 61.5 -24.5t24.5 -61.5t-24.5 -60.5t-63.5 -23.5q-37 0 -62.5 23.5t-25.5 60.5t25.5 61.5t64.5 24.5z" />
    <glyph glyph-name="uni1EB9" unicode="&#x1eb9;" 
d="M1008 324q33 0 55 -24t22 -56q0 -111 -122.5 -187.5t-292.5 -76.5q-240 0 -395.5 152.5t-155.5 379.5t151.5 379.5t368.5 152.5q207 0 339 -139t132 -348h-885v-39q0 -233 120 -376.5t323 -143.5q125 0 223 46t135 122q-6 -2 -20 -2q-35 0 -58.5 21.5t-23.5 58.5
q0 35 23.5 57.5t60.5 22.5zM635 1024q-170 0 -280.5 -122t-127.5 -324h772q-4 201 -102 323.5t-262 122.5zM627 -168q37 0 61.5 -24.5t24.5 -61.5t-24.5 -60.5t-63.5 -23.5q-37 0 -62.5 23.5t-25.5 60.5t25.5 61.5t64.5 24.5z" />
    <glyph glyph-name="uni1EBC" unicode="&#x1ebc;" horiz-adv-x="1304" 
d="M580 1755q-41 0 -75 -33.5t-38 -89.5h-23q0 84 50.5 140.5t121.5 56.5q68 0 158 -82q57 -51 115 -51q43 0 75.5 33.5t36.5 89.5h23q0 -84 -50 -140.5t-124 -56.5q-14 0 -28.5 2t-30 9t-24.5 11.5t-23.5 15.5t-18.5 15t-20 17l-15 14q-55 49 -110 49zM324 20h882v-20h-981
v1434h961v-21h-862v-676h698v-20h-698v-697z" />
    <glyph glyph-name="uni1EBD" unicode="&#x1ebd;" 
d="M469 1366q-41 0 -75 -34t-38 -89h-22q0 84 50 140.5t122 56.5q68 0 158 -82q57 -51 114 -51q43 0 76 33.5t37 89.5h22q0 -84 -50 -140.5t-124 -56.5q-14 0 -28.5 2t-29.5 9t-24.5 11.5t-24 15.5t-18.5 15t-20 17l-14 14q-56 49 -111 49zM1008 324q33 0 55 -24t22 -56
q0 -111 -122.5 -187.5t-292.5 -76.5q-240 0 -395.5 152.5t-155.5 379.5t151.5 379.5t368.5 152.5q207 0 339 -139t132 -348h-885v-39q0 -233 120 -376.5t323 -143.5q125 0 223 46t135 122q-6 -2 -20 -2q-35 0 -58.5 21.5t-23.5 58.5q0 35 23.5 57.5t60.5 22.5zM635 1024
q-170 0 -280.5 -122t-127.5 -324h772q-4 201 -102 323.5t-262 122.5z" />
    <glyph glyph-name="uni1ECA" unicode="&#x1eca;" horiz-adv-x="548" 
d="M225 0v1434h99v-1434h-99zM274 -338q-37 0 -62.5 23.5t-25.5 60.5t26 61.5t64 24.5q37 0 61.5 -24.5t24.5 -61.5t-24.5 -60.5t-63.5 -23.5z" />
    <glyph glyph-name="uni1ECB" unicode="&#x1ecb;" horiz-adv-x="503" 
d="M254 1257q-35 0 -56.5 21.5t-21.5 54.5t21.5 54.5t56.5 21.5q33 0 53.5 -21.5t20.5 -54.5t-20.5 -54.5t-53.5 -21.5zM205 0v995l98 39v-1034h-98zM252 -338q-37 0 -62.5 23.5t-25.5 60.5t25.5 61.5t64.5 24.5q37 0 61.5 -24.5t24.5 -61.5t-24.5 -60.5t-63.5 -23.5z" />
    <glyph glyph-name="uni1ECC" unicode="&#x1ecc;" horiz-adv-x="1708" 
d="M854 -20q-315 0 -525 210.5t-210 526t210 526.5t525 211t525 -211t210 -526.5t-210 -526t-525 -210.5zM854 0q285 0 457 196.5t172 520t-172 520.5t-457 197t-457 -197t-172 -520.5t172 -520t457 -196.5zM854 -338q-37 0 -62.5 23.5t-25.5 60.5t25.5 61.5t64.5 24.5
q37 0 61.5 -24.5t24.5 -61.5t-24.5 -60.5t-63.5 -23.5z" />
    <glyph glyph-name="uni1ECD" unicode="&#x1ecd;" horiz-adv-x="1296" 
d="M647 -20q-225 0 -376.5 152.5t-151.5 379.5t151.5 379.5t376.5 152.5t377 -152.5t152 -379.5t-152 -379.5t-377 -152.5zM647.5 0q190.5 0 306 140.5t115.5 371.5t-115.5 371.5t-306 140.5t-306.5 -140.5t-116 -371.5t116 -371.5t306.5 -140.5zM647 -338q-37 0 -62.5 23.5
t-25.5 60.5t25.5 61.5t64.5 24.5q37 0 61.5 -24.5t24.5 -61.5t-24.5 -60.5t-63.5 -23.5z" />
    <glyph glyph-name="uni1EE4" unicode="&#x1ee4;" horiz-adv-x="1593" 
d="M817 -20q-270 0 -438 161.5t-168 425.5v867h98v-899q0 -238 143.5 -383.5t374.5 -145.5q240 0 383.5 144.5t143.5 384.5v899h28v-897q0 -254 -152.5 -405.5t-412.5 -151.5zM813 -338q-37 0 -62.5 23.5t-25.5 60.5t25.5 61.5t64.5 24.5q37 0 61.5 -24.5t24.5 -61.5
t-24.5 -60.5t-63.5 -23.5z" />
    <glyph glyph-name="uni1EE5" unicode="&#x1ee5;" horiz-adv-x="1259" 
d="M956 995l99 39v-1034h-99v209q-53 -100 -162.5 -164.5t-236.5 -64.5q-162 0 -268.5 101t-106.5 253v661l99 39v-725q0 -129 80.5 -215t205.5 -86q121 0 229.5 69.5t159.5 180.5v737zM621 -168q37 0 61.5 -24.5t24.5 -61.5t-25 -60.5t-64 -23.5q-37 0 -62.5 23.5
t-25.5 60.5t26 61.5t65 24.5z" />
    <glyph glyph-name="Ygrave" unicode="&#x1ef2;" horiz-adv-x="1400" 
d="M768 1608h-25l-309 207h182zM1292 1434h31l-573 -820v-614h-99v614l-573 820h115l550 -785z" />
    <glyph glyph-name="ygrave" unicode="&#x1ef3;" horiz-adv-x="1067" 
d="M614 1219h-24l-309 206h182zM989 1024h29l-606 -1380q-23 -53 -69 -84t-101 -31q-59 0 -103.5 36t-46.5 87v2q0 33 24.5 56.5t57.5 23.5q35 0 56.5 -22.5t21.5 -57.5t-21.5 -57.5t-56.5 -22.5h-6q29 -29 74 -29q43 0 85 28t64 77l133 305l-469 1069h101l417 -954z" />
    <glyph glyph-name="uni1EF8" unicode="&#x1ef8;" horiz-adv-x="1400" 
d="M545 1755q-41 0 -75 -33.5t-38 -89.5h-22q0 84 50 140.5t122 56.5q68 0 157 -82q57 -51 115 -51q43 0 76 33.5t37 89.5h22q0 -84 -50 -140.5t-124 -56.5q-14 0 -28.5 2t-30 9t-24.5 11.5t-23.5 15.5t-18.5 15t-18 17l-17 14q-55 49 -110 49zM1292 1434h31l-573 -820v-614
h-99v614l-573 820h115l550 -785z" />
    <glyph glyph-name="uni1EF9" unicode="&#x1ef9;" horiz-adv-x="1067" 
d="M389 1366q-41 0 -74.5 -34t-38.5 -89h-22q0 84 50 140.5t122 56.5q68 0 158 -82q57 -51 114 -51q43 0 76 33.5t37 89.5h23q0 -84 -50.5 -140.5t-124.5 -56.5q-14 0 -28.5 2t-29.5 9t-24.5 11.5t-23.5 15.5t-18.5 15t-18.5 17l-16 14q-56 49 -111 49zM989 1024h29
l-606 -1380q-23 -53 -69 -84t-101 -31q-59 0 -103.5 36t-46.5 87v2q0 33 24.5 56.5t57.5 23.5q35 0 56.5 -22.5t21.5 -57.5t-21.5 -57.5t-56.5 -22.5h-6q29 -29 74 -29q43 0 85 28t64 77l133 305l-469 1069h101l417 -954z" />
    <glyph glyph-name="endash" unicode="&#x2013;" horiz-adv-x="1556" 
d="M184 539v28h1186v-28h-1186z" />
    <glyph glyph-name="emdash" unicode="&#x2014;" horiz-adv-x="2580" 
d="M184 539v28h2210v-28h-2210z" />
    <glyph glyph-name="quoteleft" unicode="&#x2018;" horiz-adv-x="358" 
d="M178 1262q41 0 67.5 -25t26.5 -63q0 -37 -26.5 -63t-63.5 -26t-65.5 28t-28.5 81q0 76 38 156t95 125l15 -13q-45 -41 -78 -104.5t-37 -116.5q24 21 57 21z" />
    <glyph glyph-name="quoteright" unicode="&#x2019;" horiz-adv-x="358" 
d="M178 1454q37 0 65.5 -27.5t28.5 -80.5q0 -76 -38.5 -157t-94.5 -124l-14 10q45 43 76.5 106.5t36.5 116.5q-25 -20 -58 -20q-39 0 -65.5 24.5t-26.5 61.5q0 39 25.5 64.5t64.5 25.5z" />
    <glyph glyph-name="quotesinglbase" unicode="&#x201a;" horiz-adv-x="415" 
d="M211 166q37 0 65.5 -27.5t28.5 -81.5q0 -76 -38 -155.5t-95 -124.5l-14 12q43 43 75.5 103.5t36.5 113.5q-20 -16 -57 -16q-39 0 -65.5 24.5t-26.5 63.5q0 37 26.5 62.5t63.5 25.5z" />
    <glyph glyph-name="quotedblleft" unicode="&#x201c;" horiz-adv-x="673" 
d="M178 1262q41 0 67.5 -25t26.5 -63q0 -37 -26.5 -63t-63.5 -26t-65.5 28t-28.5 81q0 76 38 156t95 125l15 -13q-45 -41 -78 -104.5t-37 -116.5q24 21 57 21zM494 1262q41 0 66.5 -25t25.5 -63q0 -37 -27 -63t-63.5 -26t-65.5 28t-29 81q0 76 38 156t96 125l14 -13
q-45 -41 -78 -104.5t-37 -116.5q25 21 60 21z" />
    <glyph glyph-name="quotedblright" unicode="&#x201d;" horiz-adv-x="673" 
d="M178 1454q37 0 65.5 -27.5t28.5 -80.5q0 -76 -38.5 -157t-94.5 -124l-14 10q45 43 76.5 106.5t36.5 116.5q-25 -20 -58 -20q-39 0 -65.5 24.5t-26.5 61.5q0 39 25.5 64.5t64.5 25.5zM491.5 1454q36.5 0 65.5 -27.5t29 -80.5q0 -76 -38 -157t-95 -124l-15 10
q45 43 78 106.5t37 116.5q-25 -20 -59 -20q-39 0 -66 24.5t-27 61.5q0 39 27 64.5t63.5 25.5z" />
    <glyph glyph-name="quotedblbase" unicode="&#x201e;" horiz-adv-x="729" 
d="M211 166q37 0 65.5 -27.5t28.5 -81.5q0 -76 -38 -155.5t-95 -124.5l-14 12q43 43 75.5 103.5t36.5 113.5q-20 -16 -57 -16q-39 0 -65.5 24.5t-26.5 63.5q0 37 26.5 62.5t63.5 25.5zM524 166q37 0 65.5 -27.5t28.5 -81.5q0 -76 -37.5 -155.5t-95.5 -124.5l-14 12
q45 41 77 102.5t36 114.5q-20 -16 -56 -16q-41 0 -66.5 24.5t-25.5 63.5q0 37 25.5 62.5t62.5 25.5z" />
    <glyph glyph-name="dagger" unicode="&#x2020;" horiz-adv-x="849" 
d="M709 1096v-21h-246q-25 -301 -27 -643h-20q-6 350 -29 643h-246v21h244q-6 68 -12 134t-9.5 100t-3.5 44q0 35 18.5 57.5t47.5 22.5t47.5 -22.5t18.5 -57.5q0 -12 -3.5 -45t-10.5 -100.5t-13 -132.5h244z" />
    <glyph glyph-name="daggerdbl" unicode="&#x2021;" horiz-adv-x="849" 
d="M444 1075q-6 -63 -6 -141t6 -143h265v-21h-263q8 -84 27 -174t19 -107q0 -33 -18.5 -55t-47.5 -22t-47.5 22.5t-18.5 54.5q0 16 18.5 106.5t27.5 174.5h-265v21h267q6 63 6 143q0 78 -6 141h-267v21h265q-8 84 -27 174t-19 106q0 33 18.5 55.5t47.5 22.5t47.5 -22.5
t18.5 -55.5q0 -16 -18.5 -106t-27.5 -174h263v-21h-265z" />
    <glyph glyph-name="bullet" unicode="&#x2022;" horiz-adv-x="606" 
d="M305 438q-51 0 -86 33t-35 84t35 85t86 34t84 -34t33 -85t-33 -84t-84 -33z" />
    <glyph glyph-name="ellipsis" unicode="&#x2026;" horiz-adv-x="1210" 
d="M211 -10q-39 0 -64.5 24.5t-25.5 63.5q0 37 25.5 62.5t64.5 25.5q37 0 61.5 -25.5t24.5 -62.5q0 -39 -24.5 -63.5t-61.5 -24.5zM606 -10q-39 0 -64.5 24.5t-25.5 63.5q0 37 25.5 62.5t64.5 25.5q37 0 61.5 -25.5t24.5 -62.5q0 -39 -24.5 -63.5t-61.5 -24.5zM1001 -10
q-39 0 -64.5 24.5t-25.5 63.5q0 37 26 62.5t64 25.5q37 0 61.5 -25.5t24.5 -62.5q0 -39 -24.5 -63.5t-61.5 -24.5z" />
    <glyph glyph-name="perthousand" unicode="&#x2030;" horiz-adv-x="2185" 
d="M385 799q-123 0 -205 94t-82 233.5t82 233.5t205 94t205 -94t82 -233.5t-82 -233.5t-205 -94zM385 817q86 0 138 84t52 225.5t-52 225.5t-138 84q-88 0 -139 -84t-51 -225.5t51 -225.5t139 -84zM262 0l922 1434h35l-922 -1434h-35zM1098 -20q-123 0 -205 94t-82 233
t82 233.5t205 94.5t204.5 -94.5t81.5 -233.5t-81.5 -233t-204.5 -94zM1800 -20q-123 0 -205 94t-82 233t82 233.5t205 94.5t205 -94.5t82 -233.5t-82 -233t-205 -94zM1098 -2q86 0 138 84t52 225.5t-52 225t-138 83.5q-88 0 -139.5 -83.5t-51.5 -225t51.5 -225.5t139.5 -84z
M1800 -2q88 0 140.5 84t52.5 225.5t-52.5 225t-140.5 83.5q-86 0 -138 -83.5t-52 -225t52 -225.5t138 -84z" />
    <glyph glyph-name="guilsinglleft" unicode="&#x2039;" horiz-adv-x="565" 
d="M201 549q80 -66 153.5 -161t112.5 -183l-14 -15q-57 90 -168 190.5t-222 158.5v20q109 55 220.5 155.5t169.5 192.5l14 -14q-39 -88 -112.5 -183t-153.5 -161z" />
    <glyph glyph-name="guilsinglright" unicode="&#x203a;" horiz-adv-x="565" 
d="M113 907q55 -90 166.5 -190.5t222.5 -157.5v-20q-111 -59 -222.5 -158.5t-166.5 -190.5l-15 15q39 88 113 183t154 161q-80 66 -154 161t-113 183z" />
    <glyph glyph-name="fraction" unicode="&#x2044;" horiz-adv-x="235" 
d="M-360 0l921 1434h35l-922 -1434h-34z" />
    <glyph glyph-name="uni2070" unicode="&#x2070;" horiz-adv-x="1153" 
d="M575.5 766q-155.5 0 -259 127t-103.5 315.5t103.5 315.5t259 127t260 -127t104.5 -315.5t-104.5 -315.5t-260 -127zM575.5 782q110.5 0 176 116t65.5 310.5t-65.5 310t-176 115.5t-176 -115.5t-65.5 -310.5q0 -193 65.5 -309.5t176 -116.5z" />
    <glyph glyph-name="uni2074" unicode="&#x2074;" horiz-adv-x="1091" 
d="M879 1038v-16h-136v-244h-116v244h-414v18l430 598h100v-600h136zM240 1038h387v543z" />
    <glyph glyph-name="uni2075" unicode="&#x2075;" horiz-adv-x="1013" 
d="M494 1348q131 0 219 -83t88 -210q0 -125 -87 -207t-227 -82q-117 0 -195.5 58.5t-78.5 142.5q0 29 20.5 47t51.5 18q27 0 45 -19.5t18 -45.5q0 -31 -18.5 -49.5t-44.5 -18.5q-16 0 -23 2q23 -51 75 -82t120 -31q106 0 164.5 72t58.5 195q0 121 -58.5 195.5t-156.5 74.5
q-119 0 -186 -78l-23 13l47 378h438l-12 -79h-416l-39 -289q33 35 95 56.5t125 21.5z" />
    <glyph glyph-name="uni2076" unicode="&#x2076;" horiz-adv-x="1060" 
d="M557 1325q121 0 206 -78t85 -196q0 -121 -88 -203t-217 -82q-145 0 -237.5 107.5t-92.5 287.5q0 197 105.5 343.5t265.5 146.5q86 0 146.5 -43t60.5 -107q0 -29 -20.5 -48t-49.5 -19t-47.5 19.5t-18.5 48t19.5 49t46.5 20.5h12q-43 59 -129 59q-119 0 -191.5 -114.5
t-78.5 -313.5q25 55 85 89t138 34zM532.5 782q90.5 0 141.5 72t51 192.5t-51 189.5t-142 69q-92 0 -144 -70t-52 -188q0 -121 53 -193t143.5 -72z" />
    <glyph glyph-name="uni2077" unicode="&#x2077;" horiz-adv-x="1003" 
d="M213 1638h578v-28q-129 -166 -211 -400.5t-86 -431.5h-136q10 127 113.5 347.5t257.5 433.5h-516v79z" />
    <glyph glyph-name="uni2078" unicode="&#x2078;" horiz-adv-x="1030" 
d="M623 1231q94 -45 144 -94.5t50 -128.5q0 -106 -89 -174t-218 -68q-125 0 -211 61.5t-86 157.5q0 68 46 130.5t120 96.5q-145 82 -146 205q0 102 81 168t200 66q113 0 189.5 -60.5t76.5 -150.5q0 -63 -42.5 -121.5t-114.5 -87.5zM328 1462q0 -70 56 -111.5t171 -90.5
q25 -10 51 -23q57 31 93 85t36 114q0 84 -60.5 140t-150.5 56q-84 0 -140 -48t-56 -122zM504 784q94 0 156.5 48.5t62.5 121.5q0 70 -60.5 115t-170.5 90q-94 43 -97 45q-61 -33 -99 -92t-38 -125q0 -86 71 -144.5t175 -58.5z" />
    <glyph glyph-name="uni2079" unicode="&#x2079;" horiz-adv-x="1060" 
d="M518 1651q145 0 237.5 -106.5t92.5 -287.5q0 -199 -105.5 -345t-261.5 -146q-88 0 -150.5 43t-62.5 106q0 29 20.5 48.5t49.5 19.5t47 -19.5t18 -48t-19 -49t-46 -20.5h-10q45 -59 131 -60q121 0 190.5 114t75.5 317q-27 -55 -86 -90t-137 -35q-121 0 -205 78.5
t-84 195.5q0 121 89 203t216 82zM528.5 1112q92.5 0 143.5 69.5t51 188.5q0 121 -52.5 192.5t-142.5 71.5t-142 -71.5t-52 -192.5q0 -119 51 -188.5t143.5 -69.5z" />
    <glyph glyph-name="uni2080" unicode="&#x2080;" horiz-adv-x="1153" 
d="M575.5 -217q-155.5 0 -259 127t-103.5 315.5t103.5 315.5t259 127t260 -127t104.5 -315.5t-104.5 -315.5t-260 -127zM575.5 -201q110.5 0 176 116t65.5 310.5t-65.5 310t-176 115.5t-176 -115.5t-65.5 -310t65.5 -310.5t176 -116z" />
    <glyph glyph-name="uni2081" unicode="&#x2081;" horiz-adv-x="727" 
d="M444 655h70v-860h-117v787q-61 -68 -176 -95l-8 17q61 16 127.5 59t103.5 92z" />
    <glyph glyph-name="uni2082" unicode="&#x2082;" horiz-adv-x="974" 
d="M293 -125h469v-80h-543v33l234 256q92 104 138 182t46 170q0 94 -50 151.5t-138 57.5q-68 0 -119 -35t-70 -92q16 4 25 4q27 0 45 -18.5t18 -48.5q0 -27 -18.5 -46.5t-44.5 -19.5q-31 0 -51.5 18.5t-20.5 47.5q0 90 77 151.5t193.5 61.5t196.5 -65.5t80 -162.5
q0 -88 -65.5 -172t-196.5 -202z" />
    <glyph glyph-name="uni2083" unicode="&#x2083;" horiz-adv-x="1001" 
d="M567 242q100 -20 160.5 -84t60.5 -146q0 -98 -83.5 -163.5t-215.5 -65.5q-119 0 -197.5 53t-78.5 135q0 29 20.5 47.5t51.5 18.5q27 0 45 -19.5t18 -46.5q0 -31 -18.5 -49t-44.5 -18q-14 0 -21 2q47 -100 193 -101q100 0 157.5 58.5t57.5 156.5q0 96 -54.5 154.5
t-146.5 58.5h-84v17h84q82 0 130 53t48 141q0 92 -51 146.5t-141 54.5q-63 0 -111.5 -26.5t-69.5 -73.5q6 2 21 2q27 0 45 -18.5t18 -49.5q0 -27 -18 -46t-45 -19q-31 0 -51.5 18.5t-20.5 46.5q0 82 75 135.5t189 53.5q119 0 197 -59.5t78 -153.5q0 -72 -55.5 -132.5
t-141.5 -80.5z" />
    <glyph glyph-name="uni2084" unicode="&#x2084;" horiz-adv-x="1091" 
d="M879 55v-16h-136v-244h-116v244h-414v18l430 598h100v-600h136zM240 55h387v543z" />
    <glyph glyph-name="uni2085" unicode="&#x2085;" horiz-adv-x="1013" 
d="M494 365q131 0 219 -83t88 -210q0 -125 -87 -207t-227 -82q-117 0 -195.5 57.5t-78.5 143.5q0 29 20.5 47t51.5 18q27 0 45 -19.5t18 -45.5q0 -31 -18.5 -49.5t-44.5 -18.5q-16 0 -23 2q23 -51 75 -82t120 -31q106 0 164.5 72t58.5 195q0 121 -58.5 195.5t-156.5 74.5
q-119 0 -186 -78l-23 12l47 379h438l-12 -80h-416l-39 -288q33 35 95 56.5t125 21.5z" />
    <glyph glyph-name="uni2086" unicode="&#x2086;" horiz-adv-x="1060" 
d="M557 342q121 0 206 -78t85 -196q0 -121 -88 -203t-217 -82q-145 0 -237.5 107.5t-92.5 285.5q0 199 105.5 345.5t265.5 146.5q86 0 146.5 -43t60.5 -107q0 -29 -20.5 -48t-49.5 -19t-47.5 19t-18.5 48t19.5 49.5t46.5 20.5h12q-43 59 -129 59q-119 0 -191.5 -114.5
t-78.5 -313.5q25 55 85 89t138 34zM532.5 -201q90.5 0 141.5 72t51 192.5t-51 189.5t-142 69q-92 0 -144 -70t-52 -189q0 -121 53 -192.5t143.5 -71.5z" />
    <glyph glyph-name="uni2087" unicode="&#x2087;" horiz-adv-x="1003" 
d="M213 655h578v-28q-129 -166 -211 -400.5t-86 -431.5h-136q10 127 113.5 347t257.5 433h-516v80z" />
    <glyph glyph-name="uni2088" unicode="&#x2088;" horiz-adv-x="1030" 
d="M623 248q94 -45 144 -94.5t50 -128.5q0 -106 -89 -174t-218 -68q-125 0 -211 61.5t-86 157.5q0 68 46 130.5t120 96.5q-145 82 -146 205q0 102 81 168t200 66q113 0 189.5 -60.5t76.5 -150.5q0 -63 -42.5 -121.5t-114.5 -87.5zM328 479q0 -70 56 -111.5t171 -91.5
q25 -10 51 -22q57 31 93 85t36 114q0 84 -60.5 140t-150.5 56q-84 0 -140 -48t-56 -122zM504 -199q94 0 156.5 48.5t62.5 121.5q0 70 -60.5 115t-170.5 90q-94 43 -97 45q-61 -33 -99 -92t-38 -125q0 -86 71 -144.5t175 -58.5z" />
    <glyph glyph-name="uni2089" unicode="&#x2089;" horiz-adv-x="1060" 
d="M518 668q145 0 237.5 -106.5t92.5 -287.5q0 -199 -105.5 -345t-261.5 -146q-88 0 -150.5 43t-62.5 106q0 29 20.5 48.5t49.5 19.5t47 -19.5t18 -48.5q0 -31 -18 -50t-47 -19h-10q45 -59 131 -60q121 0 190.5 114t75.5 316q-27 -55 -86 -89.5t-137 -34.5q-121 0 -205 78.5
t-84 195.5q0 121 89 203t216 82zM528.5 129q92.5 0 143.5 69.5t51 188.5q0 121 -52.5 192.5t-142.5 71.5t-142 -71.5t-52 -192.5q0 -119 51 -188.5t143.5 -69.5z" />
    <glyph glyph-name="franc" unicode="&#x20a3;" horiz-adv-x="1175" 
d="M1102 1413h-735v-674h571v-20h-571v-330h331v-20h-331v-369h-99v369h-155v20h155v1045h834v-21z" />
    <glyph glyph-name="uni20A8" unicode="&#x20a8;" horiz-adv-x="2379" 
d="M1229 156q68 -102 143 -156h-127q-72 55 -115 119l-247 387q-35 53 -66 78.5t-82 40.5h-411v-625h-99v1434h535q217 0 362.5 -116t145.5 -290q0 -160 -129 -272.5t-326 -128.5q133 -31 184 -107zM324 1413v-768h424q188 0 300.5 103.5t112.5 275.5q0 176 -112.5 282.5
t-300.5 106.5h-424zM1942 559q74 -31 119.5 -53.5t100 -60t81 -86t26.5 -109.5q0 -119 -100.5 -194.5t-263.5 -75.5q-156 0 -267.5 64.5t-113.5 158.5v2q0 37 24.5 60.5t63.5 23.5q35 0 57.5 -23.5t22.5 -60.5t-22.5 -60.5t-57.5 -23.5q-12 0 -17 2q39 -55 122 -89t184 -34
q129 0 209.5 60.5t80.5 150.5q0 49 -23.5 87t-74.5 70.5t-91 51t-116 49.5q-74 29 -122 53.5t-102 62.5t-82 87t-28 108q0 117 101.5 190.5t257.5 73.5q137 0 231 -57t99 -141v-2v-2q0 -37 -24 -60.5t-58 -23.5q-37 0 -61.5 23.5t-24.5 60.5t24.5 60.5t61.5 23.5h12
q-74 98 -258 98q-121 0 -201 -60.5t-80 -146.5q0 -39 19.5 -72.5t44 -57t73 -49.5t81.5 -40t92 -39z" />
    <glyph glyph-name="Euro" unicode="&#x20ac;" horiz-adv-x="1431" 
d="M1278 276l22 -14q-55 -125 -182 -203.5t-274 -78.5q-213 0 -372 165.5t-200 423.5h-184l21 21h161q-8 55 -8 126.5t8 127.5h-182l21 20h163q41 260 200 425t382 165q180 0 304 -101.5t124 -240.5q0 -35 -21.5 -57.5t-56.5 -22.5t-59.5 22.5t-24.5 57.5q0 33 24.5 55.5
t59.5 22.5q8 0 25 -4q-29 111 -126 179.5t-237 68.5q-197 0 -327.5 -154t-161.5 -416h612l-22 -20h-592q-6 -61 -6 -129q0 -63 6 -125h467l-23 -21h-442q29 -262 155.5 -416.5t315.5 -154.5q137 0 253 76.5t177 201.5z" />
    <glyph glyph-name="uni2116" unicode="&#x2116;" horiz-adv-x="2885" 
d="M2193.5 389q-225.5 0 -377 152.5t-151.5 380t151.5 380t377 152.5t377 -152.5t151.5 -380t-151.5 -380t-377 -152.5zM1358 115v1319h28v-1434h-69l-1063 1409v-1409h-29v1434h137zM2193.5 1434q-190.5 0 -306 -140.5t-115.5 -372t115.5 -371.5t306 -140t306 140
t115.5 371.5t-115.5 372t-306 140.5zM1810 0v20h768v-20h-768z" />
    <glyph glyph-name="trademark" unicode="&#x2122;" horiz-adv-x="1075" 
d="M449 1434v-17h-127v-393h-74v393h-127v17h328zM870 1434h84v-410h-71v385l-152 -336h-14l-152 336v-385h-20v410h88l119 -267z" />
    <glyph glyph-name="uni2150" unicode="&#x2150;" horiz-adv-x="2097" 
d="M514 573h-117v787q-61 -68 -176 -94l-8 16q61 16 128 59t103 93h70v-861zM1386 1434h35l-921 -1434h-35zM1309 860h577v-29q-129 -166 -211 -400t-86 -431h-135q10 127 113.5 347t257.5 433h-516v80z" />
    <glyph glyph-name="uni2151" unicode="&#x2151;" horiz-adv-x="2119" 
d="M514 573h-117v787q-61 -68 -176 -94l-8 16q61 16 128 59t103 93h70v-861zM1386 1434h35l-921 -1434h-35zM1579 872q145 0 237.5 -106.5t92.5 -286.5q0 -199 -105.5 -345t-261.5 -146q-88 0 -150.5 43t-62.5 106q0 29 20.5 48.5t49 19.5t47 -19.5t18.5 -48t-19.5 -49
t-45.5 -20.5h-10q45 -59 131 -60q121 0 190.5 114t75.5 316q-27 -55 -86.5 -90t-136.5 -35q-121 0 -205 79t-84 196q0 121 89 202.5t216 81.5zM1589 334q92 0 143.5 69.5t51.5 188.5q0 121 -52.5 192.5t-142.5 71.5t-142 -71.5t-52 -192.5q0 -119 51 -188.5t143 -69.5z" />
    <glyph glyph-name="uni2152" unicode="&#x2152;" horiz-adv-x="2787" 
d="M514 573h-117v787q-61 -68 -176 -94l-8 16q61 16 128 59t103 93h70v-861zM1386 1434h35l-921 -1434h-35zM2209.5 872q155.5 0 260 -127t104.5 -315t-104.5 -315t-260 -127t-259 127t-103.5 315t103.5 315t259 127zM1270 709q61 16 127.5 59t103.5 92h70v-860h-117v786
q-61 -68 -176 -94zM2209.5 4q110.5 0 176 116t65.5 310.5t-65.5 310t-176 115.5t-176 -115.5t-65.5 -310.5q0 -193 65.5 -309.5t176 -116.5z" />
    <glyph glyph-name="onethird" unicode="&#x2153;" horiz-adv-x="2058" 
d="M514 573h-117v787q-61 -68 -176 -94l-8 16q61 16 128 59t103 93h70v-861zM1386 1434h35l-921 -1434h-35zM1626 446q100 -20 160.5 -83.5t60.5 -145.5q0 -98 -84 -163.5t-215 -65.5q-119 0 -197.5 53t-78.5 135q0 29 20.5 47.5t50.5 18.5q27 0 45.5 -19.5t18.5 -46.5
q0 -31 -18.5 -49t-45.5 -18q-14 0 -20 2q47 -100 193 -101q100 0 157.5 58.5t57.5 156.5q0 96 -54.5 154.5t-146.5 58.5h-84v17h84q82 0 130 53t48 141q0 92 -51 146.5t-141 54.5q-63 0 -111.5 -26.5t-69.5 -73.5q6 2 21 2q27 0 45 -18.5t18 -49.5q0 -27 -18.5 -46.5
t-44.5 -19.5q-31 0 -51.5 18.5t-20.5 47.5q0 82 75 135t189 53q119 0 197 -59t78 -154q0 -72 -55.5 -131t-141.5 -82z" />
    <glyph glyph-name="twothirds" unicode="&#x2154;" horiz-adv-x="2267" 
d="M219 606l234 256q92 104 138 182t46 170q0 94 -50 151.5t-138 57.5q-68 0 -119 -34.5t-70 -92.5q16 4 25 4q27 0 45 -18t18 -49q0 -27 -18.5 -46.5t-44.5 -19.5q-31 0 -51.5 18.5t-20.5 47.5q0 90 77 151.5t193.5 61.5t196.5 -65.5t80 -161.5q0 -88 -65.5 -172
t-196.5 -203l-205 -191h469v-80h-543v33zM1593 1434h35l-921 -1434h-35zM1833 446q100 -20 160.5 -83.5t60.5 -145.5q0 -98 -84 -163.5t-215 -65.5q-119 0 -197.5 53t-78.5 135q0 29 20.5 47.5t50.5 18.5q27 0 45.5 -19.5t18.5 -46.5q0 -31 -18.5 -49t-45.5 -18q-14 0 -20 2
q47 -100 192 -101q100 0 157.5 58.5t57.5 156.5q0 96 -54 154.5t-146 58.5h-84v17h84q82 0 130 53t48 141q0 92 -51.5 146.5t-141.5 54.5q-63 0 -111 -26.5t-69 -73.5q6 2 21 2q27 0 45 -18.5t18 -49.5q0 -27 -18.5 -46.5t-44.5 -19.5q-31 0 -51.5 18.5t-20.5 47.5
q0 82 74.5 135t189.5 53q119 0 197 -59t78 -154q0 -72 -55.5 -131t-141.5 -82z" />
    <glyph glyph-name="uni2155" unicode="&#x2155;" horiz-adv-x="2072" 
d="M514 573h-117v787q-61 -68 -176 -94l-8 16q61 16 128 59t103 93h70v-861zM1386 1434h35l-921 -1434h-35zM1554 569q131 0 219.5 -83t88.5 -210q0 -125 -87 -206.5t-227 -81.5q-117 0 -195.5 58t-78.5 142q0 29 20.5 47.5t51.5 18.5q27 0 45 -19.5t18 -46.5
q0 -31 -18.5 -49t-44.5 -18q-16 0 -23 2q23 -51 75 -82t120 -31q106 0 164.5 72t58.5 194q0 121 -58.5 196t-156.5 75q-119 0 -187 -78l-22 12l47 379h438l-12 -80h-416l-39 -288q33 35 94.5 56t124.5 21z" />
    <glyph glyph-name="uni2156" unicode="&#x2156;" horiz-adv-x="2281" 
d="M219 606l234 256q92 104 138 182t46 170q0 94 -50 151.5t-138 57.5q-68 0 -119 -34.5t-70 -92.5q16 4 25 4q27 0 45 -18t18 -49q0 -27 -18.5 -46.5t-44.5 -19.5q-31 0 -51.5 18.5t-20.5 47.5q0 90 77 151.5t193.5 61.5t196.5 -65.5t80 -161.5q0 -88 -65.5 -172
t-196.5 -203l-205 -191h469v-80h-543v33zM1593 1434h35l-921 -1434h-35zM1761 569q131 0 219 -83t88 -210q0 -125 -87 -206.5t-226 -81.5q-117 0 -195.5 58t-78.5 142q0 29 20.5 47.5t50.5 18.5q27 0 45.5 -19.5t18.5 -46.5q0 -31 -18.5 -49t-45.5 -18q-16 0 -22 2
q23 -51 75 -82t119 -31q106 0 165 72t59 194q0 121 -58.5 196t-156.5 75q-119 0 -187 -78l-22 12l47 379h438l-12 -80h-416l-39 -288q33 35 94.5 56t124.5 21z" />
    <glyph glyph-name="uni2157" unicode="&#x2157;" horiz-adv-x="2248" 
d="M788 791q0 -98 -83.5 -164t-215.5 -66q-119 0 -197.5 53.5t-78.5 135.5q0 29 20.5 47t51.5 18q27 0 45 -19.5t18 -45.5q0 -31 -18.5 -49.5t-44.5 -18.5q-14 0 -21 2q47 -100 193 -100q100 0 157.5 58t57.5 157q0 96 -54.5 154.5t-146.5 58.5h-84v16h84q82 0 130 53.5
t48 141.5q0 92 -51 146t-141 54q-63 0 -111.5 -26.5t-69.5 -73.5q6 2 21 2q27 0 45 -18.5t18 -49.5q0 -27 -18 -46t-45 -19q-31 0 -51.5 18.5t-20.5 46.5q0 82 75 135.5t189 53.5q119 0 197 -59.5t78 -153.5q0 -72 -55.5 -131.5t-141.5 -81.5q100 -20 160.5 -83.5
t60.5 -145.5zM1563 1434h34l-921 -1434h-35zM1731 569q131 0 219 -83t88 -210q0 -125 -87 -206.5t-227 -81.5q-117 0 -195.5 58t-78.5 142q0 29 20.5 47.5t51.5 18.5q27 0 45 -19.5t18 -46.5q0 -31 -18.5 -49t-44.5 -18q-16 0 -23 2q23 -51 75 -82t120 -31q106 0 164.5 72
t58.5 194q0 121 -58.5 196t-156.5 75q-119 0 -186 -78l-23 12l47 379h438l-12 -80h-416l-39 -288q33 35 95 56t125 21z" />
    <glyph glyph-name="uni2158" unicode="&#x2158;" horiz-adv-x="2334" 
d="M743 573h-116v244h-414v19l430 598h100v-600h136v-17h-136v-244zM1647 1434h34l-921 -1434h-35zM240 834h387v542zM1815 569q131 0 219 -83t88 -210q0 -125 -87 -206.5t-227 -81.5q-117 0 -195.5 58t-78.5 142q0 29 20.5 47.5t51.5 18.5q27 0 45 -19.5t18 -46.5
q0 -31 -18.5 -49t-44.5 -18q-16 0 -23 2q23 -51 75 -82t120 -31q106 0 164.5 72t58.5 194q0 121 -58.5 196t-156.5 75q-119 0 -187 -78l-22 12l47 379h438l-12 -80h-416l-39 -288q33 35 95 56t125 21z" />
    <glyph glyph-name="uni2159" unicode="&#x2159;" horiz-adv-x="2099" 
d="M514 573h-117v787q-61 -68 -176 -94l-8 16q61 16 128 59t103 93h70v-861zM1386 1434h35l-921 -1434h-35zM1597 547q121 0 206 -78t85 -197q0 -121 -88 -202.5t-217 -81.5q-145 0 -237.5 107.5t-92.5 287.5q0 197 105.5 343t265.5 146q86 0 146.5 -43t60.5 -106
q0 -29 -20.5 -48.5t-49 -19.5t-47 19.5t-18.5 48.5t19.5 49.5t45.5 20.5h13q-43 59 -129 59q-119 0 -192 -114.5t-79 -313.5q25 55 85 89t138 34zM1573 4q90 0 141 71.5t51 192.5t-51 189.5t-141 68.5q-92 0 -144.5 -69.5t-52.5 -188.5q0 -121 53.5 -192.5t143.5 -71.5z" />
    <glyph glyph-name="uni215A" unicode="&#x215a;" horiz-adv-x="2287" 
d="M801 850q0 -125 -87 -207t-227 -82q-117 0 -195.5 58.5t-78.5 142.5q0 29 20.5 47t51.5 18q27 0 45 -19.5t18 -45.5q0 -31 -18.5 -49.5t-44.5 -18.5q-16 0 -23 2q23 -51 75 -81.5t120 -30.5q106 0 164.5 71.5t58.5 194.5q0 121 -58.5 195.5t-156.5 74.5q-119 0 -186 -78
l-23 13l47 379h438l-12 -80h-416l-39 -289q33 35 94.5 56.5t125.5 21.5q131 0 219 -83t88 -210zM1575 1434h35l-922 -1434h-35zM1786 547q121 0 206 -78t85 -197q0 -121 -88 -202.5t-217 -81.5q-145 0 -237.5 107.5t-92.5 287.5q0 197 105.5 343t264.5 146q86 0 146.5 -43
t60.5 -106q0 -29 -20.5 -48.5t-49 -19.5t-47 19.5t-18.5 48.5t19.5 49.5t46.5 20.5h12q-43 59 -129 59q-119 0 -191.5 -114.5t-78.5 -313.5q25 55 85 89t138 34zM1761 4q90 0 141.5 71.5t51.5 192.5t-51.5 189.5t-141.5 68.5q-92 0 -144 -69.5t-52 -188.5q0 -121 53 -192.5
t143 -71.5z" />
    <glyph glyph-name="oneeighth" unicode="&#x215b;" horiz-adv-x="2088" 
d="M514 573h-117v787q-61 -68 -176 -94l-8 16q61 16 128 59t103 93h70v-861zM1386 1434h35l-921 -1434h-35zM1683 453q94 -45 144.5 -94.5t50.5 -129.5q0 -106 -89 -173.5t-218 -67.5q-125 0 -211 61.5t-86 157.5q0 68 46 130t120 97q-145 82 -146 205q0 102 81 167.5
t200 65.5q113 0 189.5 -60t76.5 -150q0 -63 -43 -121.5t-115 -87.5zM1389 684q0 -70 56 -112t171 -91q25 -8 51 -22q57 31 93 85t36 113q0 84 -60.5 140.5t-150.5 56.5q-84 0 -140 -48t-56 -122zM1565 6q94 0 156.5 48t62.5 122q0 70 -60.5 115t-171.5 90q-94 43 -96 45
q-61 -33 -99 -92.5t-38 -124.5q0 -86 71 -144.5t175 -58.5z" />
    <glyph glyph-name="threeeighths" unicode="&#x215c;" horiz-adv-x="2265" 
d="M788 791q0 -98 -83.5 -164t-215.5 -66q-119 0 -197.5 53.5t-78.5 135.5q0 29 20.5 47t51.5 18q27 0 45 -19.5t18 -45.5q0 -31 -18.5 -49.5t-44.5 -18.5q-14 0 -21 2q47 -100 193 -100q100 0 157.5 58t57.5 157q0 96 -54.5 154.5t-146.5 58.5h-84v16h84q82 0 130 53.5
t48 141.5q0 92 -51 146t-141 54q-63 0 -111.5 -26.5t-69.5 -73.5q6 2 21 2q27 0 45 -18.5t18 -49.5q0 -27 -18 -46t-45 -19q-31 0 -51.5 18.5t-20.5 46.5q0 82 75 135.5t189 53.5q119 0 197 -59.5t78 -153.5q0 -72 -55.5 -131.5t-141.5 -81.5q100 -20 160.5 -83.5
t60.5 -145.5zM1563 1434h34l-921 -1434h-35zM1860 453q94 -45 144 -94.5t50 -129.5q0 -106 -89 -173.5t-218 -67.5q-125 0 -211 61.5t-86 157.5q0 68 46 130t120 97q-145 82 -146 205q0 102 81 167.5t200 65.5q113 0 189.5 -60t76.5 -150q0 -63 -42.5 -121.5t-114.5 -87.5z
M1565 684q0 -70 56 -112t171 -91q25 -8 51 -22q57 31 93 85t36 113q0 84 -60.5 140.5t-150.5 56.5q-84 0 -140 -48t-56 -122zM1741 6q94 0 156.5 48t62.5 122q0 70 -60.5 115t-170.5 90q-94 43 -97 45q-61 -33 -99 -92.5t-38 -124.5q0 -86 71 -144.5t175 -58.5z" />
    <glyph glyph-name="fiveeighths" unicode="&#x215d;" horiz-adv-x="2277" 
d="M801 850q0 -125 -87 -207t-227 -82q-117 0 -195.5 58.5t-78.5 142.5q0 29 20.5 47t51.5 18q27 0 45 -19.5t18 -45.5q0 -31 -18.5 -49.5t-44.5 -18.5q-16 0 -23 2q23 -51 75 -81.5t120 -30.5q106 0 164.5 71.5t58.5 194.5q0 121 -58.5 195.5t-156.5 74.5q-119 0 -186 -78
l-23 13l47 379h438l-12 -80h-416l-39 -289q33 35 94.5 56.5t125.5 21.5q131 0 219 -83t88 -210zM1575 1434h35l-922 -1434h-35zM1872 453q94 -45 144 -94.5t50 -129.5q0 -106 -89 -173.5t-218 -67.5q-125 0 -211 61.5t-86 157.5q0 68 46 130t120 97q-145 82 -145 205
q0 102 81 167.5t199 65.5q113 0 190 -60t77 -150q0 -63 -43 -121.5t-115 -87.5zM1577 684q0 -70 56.5 -112t170.5 -91q25 -8 51 -22q57 31 93.5 85t36.5 113q0 84 -60.5 140.5t-150.5 56.5q-84 0 -140.5 -48t-56.5 -122zM1753 6q94 0 156.5 48t62.5 122q0 70 -60.5 115
t-170.5 90q-94 43 -96 45q-61 -33 -99.5 -92.5t-38.5 -124.5q0 -86 71 -144.5t175 -58.5z" />
    <glyph glyph-name="seveneighths" unicode="&#x215e;" horiz-adv-x="2164" 
d="M791 1434v-29q-129 -166 -211 -400.5t-86 -431.5h-136q10 127 113.5 347.5t257.5 433.5h-516v80h578zM1462 1434h35l-922 -1434h-34zM1759 453q94 -45 144.5 -94.5t50.5 -129.5q0 -106 -89 -173.5t-218 -67.5q-125 0 -211 61.5t-86 157.5q0 68 46 130t120 97
q-145 82 -146 205q0 102 81 167.5t200 65.5q113 0 189.5 -60t76.5 -150q0 -63 -43 -121.5t-115 -87.5zM1464 684q0 -70 56.5 -112t171.5 -91q25 -8 51 -22q57 31 93 85t36 113q0 84 -60.5 140.5t-150.5 56.5q-84 0 -140.5 -48t-56.5 -122zM1640 6q94 0 157 48t63 122
q0 70 -60.5 115t-171.5 90q-94 43 -96 45q-61 -33 -99 -92.5t-38 -124.5q0 -86 70.5 -144.5t174.5 -58.5z" />
    <glyph glyph-name="uni215F" unicode="&#x215f;" horiz-adv-x="1060" 
d="M514 573h-117v787q-61 -68 -176 -94l-8 16q61 16 128 59t103 93h70v-861zM1386 1434h35l-921 -1434h-35z" />
    <glyph glyph-name="uni2189" unicode="&#x2189;" horiz-adv-x="2385" 
d="M940 1003.5q0 -188.5 -104.5 -315.5t-260 -127t-259 127t-103.5 315.5t103.5 315.5t259 127t260 -127t104.5 -315.5zM1714 1434h35l-922 -1434h-34zM575.5 578q110.5 0 176 115.5t65.5 310t-65.5 310.5t-176 116t-176 -116t-65.5 -310q0 -193 65.5 -309.5t176 -116.5z
M1954 446q100 -20 160.5 -83.5t60.5 -145.5q0 -98 -84 -163.5t-215 -65.5q-119 0 -198 53t-79 135q0 29 20.5 47.5t51.5 18.5q27 0 45.5 -19.5t18.5 -46.5q0 -31 -18.5 -49t-45.5 -18q-14 0 -20 2q47 -100 192 -101q100 0 157.5 58.5t57.5 156.5q0 96 -54 154.5t-146 58.5
h-84v17h84q82 0 130 53t48 141q0 92 -51.5 146.5t-141.5 54.5q-63 0 -111.5 -26.5t-68.5 -73.5q6 2 20 2q27 0 45.5 -18.5t18.5 -49.5q0 -27 -18.5 -46.5t-45.5 -19.5q-31 0 -51 18.5t-20 47.5q0 82 74.5 135t189.5 53q119 0 196.5 -59t77.5 -154q0 -72 -55 -131t-141 -82z
" />
    <glyph glyph-name="arrowleft" unicode="&#x2190;" horiz-adv-x="1374" 
d="M1188 563v-20h-844q90 -70 176 -176.5t129 -210.5l-10 -13q-68 96 -198 210t-257 188v24q127 74 257 187.5t198 210.5l10 -13q-43 -104 -129 -210.5t-176 -176.5h844z" />
    <glyph glyph-name="arrowup" unicode="&#x2191;" horiz-adv-x="1189" 
d="M606 1051q74 -127 187.5 -257t210.5 -198l-13 -10q-104 43 -210.5 129t-176.5 176v-844h-20v844q-70 -90 -176.5 -176t-210.5 -129l-13 10q96 68 210 198t188 257h24z" />
    <glyph glyph-name="arrowright" unicode="&#x2192;" horiz-adv-x="1374" 
d="M733 963q68 -96 198 -210t257 -188v-24q-127 -74 -257 -187.5t-198 -210.5l-10 13q45 104 131 210.5t176 176.5h-846v20h846q-90 70 -176 176.5t-131 210.5z" />
    <glyph glyph-name="arrowdown" unicode="&#x2193;" horiz-adv-x="1189" 
d="M991 438l13 -10q-96 -68 -210 -198t-188 -257h-24q-74 127 -187.5 257t-210.5 198l13 10q104 -43 210.5 -129t176.5 -176v844h20v-844q70 90 176.5 176t210.5 129z" />
    <glyph glyph-name="minus" unicode="&#x2212;" horiz-adv-x="1189" 
d="M184 604v21h820v-21h-820z" />
    <glyph glyph-name="approxequal" unicode="&#x2248;" horiz-adv-x="1243" 
d="M856 659q-86 0 -240.5 96.5t-230.5 96.5q-80 0 -127 -49t-47 -133h-27q0 92 56.5 149.5t144.5 57.5q86 0 240.5 -96.5t230.5 -96.5q80 0 127 49t47 133h27q0 -92 -56.5 -149.5t-144.5 -57.5zM856 352q-86 0 -240.5 96.5t-230.5 96.5q-80 0 -127 -49.5t-47 -133.5h-27
q0 92 56.5 149.5t144.5 57.5q86 0 240.5 -96t230.5 -96q80 0 127 49t47 133h27q0 -92 -56.5 -149.5t-144.5 -57.5z" />
    <glyph glyph-name="notequal" unicode="&#x2260;" horiz-adv-x="1189" 
d="M1004 768h-295l-197 -307h492v-21h-506l-152 -235h-33l152 235h-281v21h295l197 307h-492v20h506l152 236h32l-151 -236h281v-20z" />
    <glyph glyph-name="lessequal" unicode="&#x2264;" horiz-adv-x="1189" 
d="M940 236v-31l-694 397v25l694 397v-31l-664 -379zM184 20h820v-20h-820v20z" />
    <glyph glyph-name="greaterequal" unicode="&#x2265;" horiz-adv-x="1189" 
d="M942 627v-25l-694 -397v31l663 378l-663 379v31zM184 20h820v-20h-820v20z" />
    <glyph glyph-name="uniE016" unicode="&#xe016;" horiz-adv-x="1474" 
d="M1294 0l-200 459h-787l-201 -459h-28l620 1413h-645q-188 0 -317 -121t-129 -286q0 -164 90 -272.5t231 -129.5q-18 23 -18 51q0 33 23.5 55.5t58.5 22.5q33 0 55.5 -22.5t22.5 -55t-23.5 -55t-58.5 -22.5q-178 0 -293 118.5t-115 309.5q0 176 137.5 302t335.5 126h717
l627 -1434h-103zM315 479h770l-385 879z" />
    <glyph glyph-name="uniE017" unicode="&#xe017;" horiz-adv-x="1404" 
d="M920 743q168 -23 276.5 -126t108.5 -244q0 -160 -122 -266.5t-304 -106.5h-654v1413h-354q-188 0 -317 -121t-129 -286q0 -164 90 -272.5t231 -129.5q-18 23 -18 51q0 33 23.5 55.5t58 22.5t56 -22.5t21.5 -55t-23.5 -55t-58.5 -22.5q-178 0 -292.5 118.5t-114.5 309.5
q0 176 137 302t336 126h946q182 0 304 -101.5t122 -251.5q0 -123 -90 -214t-233 -124zM813 1413h-489v-665h458q160 0 257.5 91t97.5 238q0 152 -89.5 244t-234.5 92zM874 20q145 0 234.5 95.5t89.5 251.5q0 158 -95 259t-259 101h-520v-707h550z" />
    <glyph glyph-name="uniE018" unicode="&#xe018;" horiz-adv-x="1601" 
d="M729 1434q322 0 538 -206t216 -511t-216 -511t-538 -206h-504v1413h-354q-188 0 -317 -121t-129 -286q0 -164 90 -272.5t231 -129.5q-18 23 -18 51q0 33 23.5 55.5t58 22.5t56 -22.5t21.5 -55t-23.5 -55t-58.5 -22.5q-178 0 -292.5 118.5t-114.5 309.5q0 176 137 302
t336 126h858zM713 20q299 0 481 190.5t182 506t-182 506t-481 190.5h-389v-1393h389z" />
    <glyph glyph-name="uniE019" unicode="&#xe019;" horiz-adv-x="1304" 
d="M324 20h882v-20h-981v1413h-354q-188 0 -317 -121t-129 -286q0 -164 90 -272.5t231 -129.5q-18 23 -18 51q0 33 23.5 55.5t58 22.5t56 -22.5t21.5 -55t-23.5 -55t-58.5 -22.5q-178 0 -292.5 118.5t-114.5 309.5q0 176 137 302t336 126h1315v-21h-862v-676h698v-20h-698
v-697z" />
    <glyph glyph-name="uniE01A" unicode="&#xe01a;" horiz-adv-x="1236" 
d="M1165 1413h-841v-696h677v-21h-677v-696h-99v1413h-354q-188 0 -317 -121t-129 -286q0 -164 90 -272.5t231 -129.5q-18 23 -18 51q0 33 23.5 55.5t58 22.5t56 -22.5t21.5 -55t-23.5 -55t-58.5 -22.5q-178 0 -292.5 118.5t-114.5 309.5q0 176 137 302t336 126h1294v-21z
" />
    <glyph glyph-name="uniE01B" unicode="&#xe01b;" horiz-adv-x="1601" 
d="M1278 1434h98v-1434h-98v717h-954v-717h-99v1413h-354q-188 0 -317 -121t-129 -286q0 -164 90 -272.5t231 -129.5q-18 23 -18 51q0 33 23.5 55.5t58 22.5t56 -22.5t21.5 -55t-23.5 -55t-58.5 -22.5q-178 0 -292.5 118.5t-114.5 309.5q0 176 137 302t336 126h453v-697h954
v697z" />
    <glyph glyph-name="uniE01C" unicode="&#xe01c;" horiz-adv-x="548" 
d="M324 1434v-1434h-99v1413h-354q-188 0 -317 -121t-129 -286q0 -164 90 -272.5t231 -129.5q-18 23 -18 51q0 33 23.5 55.5t58 22.5t56 -22.5t21.5 -55t-23.5 -55t-58.5 -22.5q-178 0 -292.5 118.5t-114.5 309.5q0 176 137 302t336 126h453z" />
    <glyph glyph-name="uniE01D" unicode="&#xe01d;" horiz-adv-x="1370" 
d="M1219 0l-633 797l-262 -236v-561h-99v1413h-354q-188 0 -317 -121t-129 -286q0 -164 90 -272.5t231 -129.5q-18 23 -18 51q0 33 23.5 55.5t58 22.5t56 -22.5t21.5 -55t-23.5 -55t-58.5 -22.5q-178 0 -292.5 118.5t-114.5 309.5q0 176 137 302t336 126h453v-834l925 834
h43l-641 -576l684 -858h-116z" />
    <glyph glyph-name="uniE01E" unicode="&#xe01e;" horiz-adv-x="1243" 
d="M324 20h831v-20h-930v1413h-354q-188 0 -317 -121t-129 -286q0 -164 90 -272.5t231 -129.5q-18 23 -18 51q0 33 23.5 55.5t58 22.5t56 -22.5t21.5 -55t-23.5 -55t-58.5 -22.5q-178 0 -292.5 118.5t-114.5 309.5q0 176 137 302t336 126h453v-1414z" />
    <glyph glyph-name="uniE01F" unicode="&#xe01f;" horiz-adv-x="1843" 
d="M1520 1434h98v-1434h-98v1378l-627 -987h-12l-627 987v-1378h-29v1413h-354q-188 0 -317 -121t-129 -286q0 -164 90 -272.5t231 -129.5q-18 23 -18 51q0 33 23.5 55.5t58 22.5t56 -22.5t21.5 -55t-23.5 -55t-58.5 -22.5q-178 0 -292.5 118.5t-114.5 309.5q0 176 137 302
t336 126h463l594 -945z" />
    <glyph glyph-name="uniE020" unicode="&#xe020;" horiz-adv-x="1611" 
d="M1358 1434h28v-1434h-69l-1063 1409v-1409h-29v1413h-354q-188 0 -317 -121t-129 -286q0 -164 90 -272.5t231 -129.5q-18 23 -18 51q0 33 23.5 55.5t58 22.5t56 -22.5t21.5 -55t-23.5 -55t-58.5 -22.5q-178 0 -292.5 118.5t-114.5 309.5q0 176 137 302t336 126h491
l996 -1319v1319z" />
    <glyph glyph-name="uniE021" unicode="&#xe021;" horiz-adv-x="1388" 
d="M801 1434q217 0 362.5 -127t145.5 -319.5t-145.5 -319.5t-362.5 -127h-477v-541h-99v1413h-354q-188 0 -317 -121t-129 -286q0 -164 90 -272.5t231 -129.5q-18 23 -18 51q0 33 23.5 55.5t58 22.5t56 -22.5t21.5 -55t-23.5 -55t-58.5 -22.5q-178 0 -292.5 118.5
t-114.5 309.5q0 176 137 302t336 126h930zM791 561q186 0 298.5 117t112.5 309.5t-112.5 309t-298.5 116.5h-467v-852h467z" />
    <glyph glyph-name="uniE022" unicode="&#xe022;" horiz-adv-x="1400" 
d="M1229 156q68 -102 143 -156h-127q-72 55 -115 119l-247 387q-35 53 -66 78.5t-82 40.5h-411v-625h-99v1413h-354q-188 0 -317 -121t-129 -286q0 -164 90 -272.5t231 -129.5q-18 23 -18 51q0 33 23.5 55.5t58 22.5t56 -22.5t21.5 -55t-23.5 -55t-58.5 -22.5
q-178 0 -292.5 118.5t-114.5 309.5q0 176 137 302t336 126h889q217 0 362.5 -116t145.5 -290q0 -160 -129 -272.5t-326 -128.5q133 -31 184 -107zM324 1413v-768h424q188 0 300.5 103.5t112.5 275.5q0 176 -112.5 282.5t-300.5 106.5h-424z" />
    <glyph glyph-name="uniE023" unicode="&#xe023;" horiz-adv-x="1265" 
d="M1196 1434v-21h-512v-1413h-98v1413h-594q-188 0 -317.5 -121t-129.5 -286q0 -164 90.5 -272.5t231.5 -129.5q-18 23 -19 51q0 33 24 55.5t58 22.5q33 0 55.5 -22.5t22.5 -55t-23.5 -55t-58.5 -22.5q-178 0 -292.5 118.5t-114.5 309.5q0 176 137 302t336 126h1204z" />
    <glyph glyph-name="uniE024" unicode="&#xe024;" horiz-adv-x="1593" 
d="M1354 1434h28v-897q0 -254 -152.5 -405.5t-412.5 -151.5q-270 0 -438 161.5t-168 425.5v846h-340q-188 0 -317 -121t-129 -286q0 -164 90 -272.5t231 -129.5q-18 23 -18 51q0 33 23.5 55.5t58 22.5t56 -22.5t21.5 -55t-23.5 -55t-58.5 -22.5q-178 0 -292.5 118.5
t-114.5 309.5q0 176 137 302t336 126h438v-899q0 -238 143.5 -383.5t374.5 -145.5q240 0 383.5 144.5t143.5 384.5v899z" />
    <glyph glyph-name="uniE025" unicode="&#xe025;" horiz-adv-x="1474" 
d="M1368 1434h29l-629 -1434h-63l-619 1413h-135q-188 0 -317.5 -121t-129.5 -286q0 -164 90.5 -272.5t231.5 -129.5q-18 23 -19 51q0 33 24 55.5t58 22.5q33 0 55.5 -22.5t22.5 -55t-23.5 -55t-58.5 -22.5q-178 0 -292.5 118.5t-114.5 309.5q0 176 137 302t336 126h229
l594 -1358z" />
    <glyph glyph-name="uniE026" unicode="&#xe026;" horiz-adv-x="2293" 
d="M2187 1434h29l-629 -1434h-63l-379 864l-377 -864h-63l-619 1413h-135q-188 0 -317.5 -121t-129.5 -286q0 -164 90.5 -272.5t231.5 -129.5q-18 23 -19 51q0 33 24 55.5t58 22.5q33 0 55.5 -22.5t22.5 -55t-23.5 -55t-58.5 -22.5q-178 0 -292.5 118.5t-114.5 309.5
q0 176 137 302t336 126h229l592 -1358l361 821l-236 537h102l594 -1358z" />
    <glyph glyph-name="uniE027" unicode="&#xe027;" horiz-adv-x="1392" 
d="M1270 0h-115l-489 680l-473 -680h-35l491 702l-512 711h-186q-188 0 -317.5 -121t-129.5 -286q0 -164 90.5 -272.5t231.5 -129.5q-18 23 -19 51q0 33 24 55.5t58 22.5q33 0 55.5 -22.5t22.5 -55t-23.5 -55t-58.5 -22.5q-178 0 -292.5 118.5t-114.5 309.5q0 176 137 302
t336 126h287l481 -670l471 670h35l-488 -693z" />
    <glyph glyph-name="uniE028" unicode="&#xe028;" horiz-adv-x="1400" 
d="M1292 1434h31l-573 -820v-614h-99v614l-559 799h-141q-188 0 -317.5 -121t-129.5 -286q0 -164 90.5 -272.5t231.5 -129.5q-18 23 -19 51q0 33 24 55.5t58 22.5q33 0 55.5 -22.5t22.5 -55t-23.5 -55t-58.5 -22.5q-178 0 -292.5 118.5t-114.5 309.5q0 176 137 302t336 126
h242l550 -785z" />
    <glyph glyph-name="uniE079" unicode="&#xe079;" horiz-adv-x="905" 
d="M473 1413q-188 0 -317 -121t-129 -286q0 -164 90 -272.5t231 -129.5q-18 23 -18 51q0 33 23.5 55.5t58 22.5t56 -22.5t21.5 -55t-23.5 -55t-57.5 -22.5q-178 0 -293 118.5t-115 309.5q0 176 137 302t336 126h432v-21h-432z" />
    <glyph glyph-name="Q.ss02" horiz-adv-x="1720" 
d="M1614 -53q35 0 57.5 -23.5t22.5 -58.5q0 -109 -110.5 -184.5t-264.5 -75.5q-180 0 -316.5 104.5t-173.5 270.5q-305 10 -507.5 219t-202.5 518q0 315 210 526t525 211t525 -211t210 -526q0 -297 -188.5 -504t-478.5 -231q18 -158 129.5 -258.5t267.5 -100.5q111 0 199 45
t122 119q-16 -4 -26 -4q-37 0 -61.5 23.5t-24.5 58.5t24.5 58.5t61.5 23.5zM225 716.5q0 -323.5 172 -520t457 -196.5t457 196.5t172 520t-172 520.5t-457 197t-457 -197t-172 -520.5z" />
    <glyph glyph-name="W.ss02" horiz-adv-x="2560" 
d="M2320 1434h29v-914q0 -246 -142.5 -393t-385.5 -147q-209 0 -349.5 105t-197.5 308q-35 -195 -167 -304t-331 -109q-252 0 -408.5 157.5t-156.5 413.5v883h98v-916q0 -229 132 -369.5t347 -140.5q213 0 340 139.5t127 370.5v916h99v-916q0 -229 132 -369.5t347 -140.5
q221 0 354 139.5t133 370.5v916z" />
    <glyph glyph-name="Wacute.aalt" horiz-adv-x="2560" 
d="M1575 1815l-309 -207h-25l152 207h182zM2320 1434h29v-914q0 -246 -142.5 -393t-385.5 -147q-209 0 -349.5 105t-197.5 308q-35 -195 -167 -304t-331 -109q-252 0 -408.5 157.5t-156.5 413.5v883h98v-916q0 -229 132 -369.5t347 -140.5q213 0 340 139.5t127 370.5v916h99
v-916q0 -229 132 -369.5t347 -140.5q221 0 354 139.5t133 370.5v916z" />
    <glyph glyph-name="Wcircumflex.aalt" horiz-adv-x="2560" 
d="M1311 1739l-254 -135l-8 12l239 221h45l240 -221l-8 -12zM2320 1434h29v-914q0 -246 -142.5 -393t-385.5 -147q-209 0 -349.5 105t-197.5 308q-35 -195 -167 -304t-331 -109q-252 0 -408.5 157.5t-156.5 413.5v883h98v-916q0 -229 132 -369.5t347 -140.5q213 0 340 139.5
t127 370.5v916h99v-916q0 -229 132 -369.5t347 -140.5q221 0 354 139.5t133 370.5v916z" />
    <glyph glyph-name="Wdieresis.aalt" horiz-adv-x="2560" 
d="M1122 1602q-35 0 -58.5 22.5t-23.5 57t25 59t61 24.5q33 0 55.5 -23.5t22.5 -58t-22.5 -58t-59.5 -23.5zM1499 1602q-35 0 -59.5 22.5t-24.5 58.5q0 35 24.5 58.5t61.5 23.5q33 0 55.5 -23.5t22.5 -58t-22.5 -58t-57.5 -23.5zM2320 1434h29v-914q0 -246 -142.5 -393
t-385.5 -147q-209 0 -349.5 105t-197.5 308q-35 -195 -167 -304t-331 -109q-252 0 -408.5 157.5t-156.5 413.5v883h98v-916q0 -229 132 -369.5t347 -140.5q213 0 340 139.5t127 370.5v916h99v-916q0 -229 132 -369.5t347 -140.5q221 0 354 139.5t133 370.5v916z" />
    <glyph glyph-name="Wgrave.aalt" horiz-adv-x="2560" 
d="M1378 1608h-24l-310 207h183zM2320 1434h29v-914q0 -246 -142.5 -393t-385.5 -147q-209 0 -349.5 105t-197.5 308q-35 -195 -167 -304t-331 -109q-252 0 -408.5 157.5t-156.5 413.5v883h98v-916q0 -229 132 -369.5t347 -140.5q213 0 340 139.5t127 370.5v916h99v-916
q0 -229 132 -369.5t347 -140.5q221 0 354 139.5t133 370.5v916z" />
    <glyph glyph-name="Q.ss03" horiz-adv-x="1720" 
d="M1589 716.5q0 -315.5 -210 -526t-525 -210.5t-525 210.5t-210 526t210 526.5t525 211t525 -211t210 -526.5zM225 716.5q0 -323.5 172 -520t457 -196.5t457 196.5t172 520t-172 520.5t-457 197t-457 -197t-172 -520.5zM1614 -51q35 0 57.5 -23.5t22.5 -58.5
q0 -131 -80 -212t-211 -81q-72 0 -150.5 29.5t-127 58.5t-136.5 88q-86 57 -130 84t-116.5 55.5t-136.5 28.5q-164 0 -217 -104q16 6 35 6q35 0 57.5 -23.5t22.5 -58.5t-22.5 -58.5t-57.5 -23.5q-39 0 -62.5 23.5t-23.5 58.5q0 90 75.5 145.5t200.5 55.5q166 0 418 -138
q123 -68 212 -101.5t186 -33.5q94 0 158.5 38t80.5 103q-23 -23 -55 -22q-37 0 -61.5 23.5t-24.5 58.5t24.5 58.5t61.5 23.5z" />
    <glyph glyph-name="G.aalt" horiz-adv-x="1646" 
d="M1448 647v-647h-21l-81 143q-68 -76 -194 -119.5t-275 -43.5q-326 0 -542 210.5t-216 526t216 526.5t546 211q225 0 380.5 -97t155.5 -241q0 -33 -21.5 -55.5t-54.5 -22.5q-35 0 -58 22.5t-23 55.5t23.5 55.5t57.5 22.5q12 0 19 -2q-35 111 -163 177.5t-312 66.5
q-301 0 -480.5 -198t-179.5 -517q0 -324 184.5 -521.5t487.5 -197.5q162 0 281.5 56.5t169.5 150.5v418h-328v20h428z" />
    <glyph glyph-name="uni01F4.aalt" horiz-adv-x="1646" 
d="M1130 1815l-309 -207h-24l151 207h182zM1448 647v-647h-21l-81 143q-68 -76 -194 -119.5t-275 -43.5q-326 0 -542 210.5t-216 526t216 526.5t546 211q225 0 380.5 -97t155.5 -241q0 -33 -21.5 -55.5t-54.5 -22.5q-35 0 -58 22.5t-23 55.5t23.5 55.5t57.5 22.5q12 0 19 -2
q-35 111 -163 177.5t-312 66.5q-301 0 -480.5 -198t-179.5 -517q0 -324 184.5 -521.5t487.5 -197.5q162 0 281.5 56.5t169.5 150.5v418h-328v20h428z" />
    <glyph glyph-name="Gbreve.aalt" horiz-adv-x="1646" 
d="M866.5 1599q-94.5 0 -170 62.5t-92.5 155.5h25q8 -55 76.5 -90t160.5 -35t161 34.5t77 90.5h24q-16 -92 -91.5 -155t-170 -63zM1448 647v-647h-21l-81 143q-68 -76 -194 -119.5t-275 -43.5q-326 0 -542 210.5t-216 526t216 526.5t546 211q225 0 380.5 -97t155.5 -241
q0 -33 -21.5 -55.5t-54.5 -22.5q-35 0 -58 22.5t-23 55.5t23.5 55.5t57.5 22.5q12 0 19 -2q-35 111 -163 177.5t-312 66.5q-301 0 -480.5 -198t-179.5 -517q0 -324 184.5 -521.5t487.5 -197.5q162 0 281.5 56.5t169.5 150.5v418h-328v20h428z" />
    <glyph glyph-name="Gcaron.aalt" horiz-adv-x="1646" 
d="M889 1597h-45l-240 222l8 12l254 -135l254 135l8 -12zM1448 647v-647h-21l-81 143q-68 -76 -194 -119.5t-275 -43.5q-326 0 -542 210.5t-216 526t216 526.5t546 211q225 0 380.5 -97t155.5 -241q0 -33 -21.5 -55.5t-54.5 -22.5q-35 0 -58 22.5t-23 55.5t23.5 55.5
t57.5 22.5q12 0 19 -2q-35 111 -163 177.5t-312 66.5q-301 0 -480.5 -198t-179.5 -517q0 -324 184.5 -521.5t487.5 -197.5q162 0 281.5 56.5t169.5 150.5v418h-328v20h428z" />
    <glyph glyph-name="Gcircumflex.aalt" horiz-adv-x="1646" 
d="M866 1739l-254 -135l-8 12l240 221h45l239 -221l-8 -12zM1448 647v-647h-21l-81 143q-68 -76 -194 -119.5t-275 -43.5q-326 0 -542 210.5t-216 526t216 526.5t546 211q225 0 380.5 -97t155.5 -241q0 -33 -21.5 -55.5t-54.5 -22.5q-35 0 -58 22.5t-23 55.5t23.5 55.5
t57.5 22.5q12 0 19 -2q-35 111 -163 177.5t-312 66.5q-301 0 -480.5 -198t-179.5 -517q0 -324 184.5 -521.5t487.5 -197.5q162 0 281.5 56.5t169.5 150.5v418h-328v20h428z" />
    <glyph glyph-name="uni0122.aalt" horiz-adv-x="1646" 
d="M1448 647v-647h-21l-81 143q-68 -76 -194 -119.5t-275 -43.5q-326 0 -542 210.5t-216 526t216 526.5t546 211q225 0 380.5 -97t155.5 -241q0 -33 -21.5 -55.5t-54.5 -22.5q-35 0 -58 22.5t-23 55.5t23.5 55.5t57.5 22.5q12 0 19 -2q-35 111 -163 177.5t-312 66.5
q-301 0 -480.5 -198t-179.5 -517q0 -324 184.5 -521.5t487.5 -197.5q162 0 281.5 56.5t169.5 150.5v418h-328v20h428zM864 -168q41 0 66.5 -26.5t25.5 -71.5q0 -61 -41 -127t-94 -96l-10 16q39 23 67.5 65.5t32.5 85.5q-16 -16 -51 -16q-37 0 -61.5 25.5t-24.5 64.5
q0 33 25.5 56.5t64.5 23.5z" />
    <glyph glyph-name="Gdotaccent.aalt" horiz-adv-x="1646" 
d="M866 1599q-37 0 -62.5 24t-25.5 60.5t25.5 61t64.5 24.5q37 0 61.5 -24.5t24.5 -61t-24.5 -60.5t-63.5 -24zM1448 647v-647h-21l-81 143q-68 -76 -194 -119.5t-275 -43.5q-326 0 -542 210.5t-216 526t216 526.5t546 211q225 0 380.5 -97t155.5 -241q0 -33 -21.5 -55.5
t-54.5 -22.5q-35 0 -58 22.5t-23 55.5t23.5 55.5t57.5 22.5q12 0 19 -2q-35 111 -163 177.5t-312 66.5q-301 0 -480.5 -198t-179.5 -517q0 -324 184.5 -521.5t487.5 -197.5q162 0 281.5 56.5t169.5 150.5v418h-328v20h428z" />
    <glyph glyph-name="M.ss04" horiz-adv-x="1847" 
d="M1518 1434h104v-1434h-98v1382l-625 -1382h-20l-625 1382v-1382h-29v1434h109l592 -1313z" />
    <glyph glyph-name="R.ss04" horiz-adv-x="1400" 
d="M1245 0l-534 625h-387v-625h-99v1434h535q217 0 362.5 -118t145.5 -292q0 -156 -125 -267.5t-320 -129.5q25 -12 56 -43l493 -584h-127zM324 1413v-768h424q188 0 300.5 103.5t112.5 275.5q0 176 -112.5 282.5t-300.5 106.5h-424z" />
    <glyph glyph-name="Racute.aalt" horiz-adv-x="1400" 
d="M993 1815l-309 -207h-25l152 207h182zM1245 0l-534 625h-387v-625h-99v1434h535q217 0 362.5 -118t145.5 -292q0 -156 -125 -267.5t-320 -129.5q25 -12 56 -43l493 -584h-127zM324 1413v-768h424q188 0 300.5 103.5t112.5 275.5q0 176 -112.5 282.5t-300.5 106.5h-424z
" />
    <glyph glyph-name="Rcaron.aalt" horiz-adv-x="1400" 
d="M752 1597h-45l-240 222l8 12l254 -135l254 135l8 -12zM1245 0l-534 625h-387v-625h-99v1434h535q217 0 362.5 -118t145.5 -292q0 -156 -125 -267.5t-320 -129.5q25 -12 56 -43l493 -584h-127zM324 1413v-768h424q188 0 300.5 103.5t112.5 275.5q0 176 -112.5 282.5
t-300.5 106.5h-424z" />
    <glyph glyph-name="uni0156.aalt" horiz-adv-x="1400" 
d="M879 584l493 -584h-127l-534 625h-387v-625h-99v1434h535q217 0 362.5 -118t145.5 -292q0 -156 -125 -267.5t-320 -129.5q25 -12 56 -43zM324 1413v-768h424q188 0 300.5 103.5t112.5 275.5q0 176 -112.5 282.5t-300.5 106.5h-424zM778 -168q41 0 66.5 -26.5t25.5 -71.5
q0 -61 -41 -127t-94 -96l-10 16q39 23 67.5 65.5t32.5 85.5q-16 -16 -51 -16q-37 0 -61.5 25.5t-24.5 64.5q0 33 25.5 56.5t64.5 23.5z" />
    <glyph glyph-name="uni0210.aalt" horiz-adv-x="1400" 
d="M631 1608h-27l-295 207h172zM952 1608h-26l-295 207h172zM1245 0l-534 625h-387v-625h-99v1434h535q217 0 362.5 -118t145.5 -292q0 -156 -125 -267.5t-320 -129.5q25 -12 56 -43l493 -584h-127zM324 1413v-768h424q188 0 300.5 103.5t112.5 275.5q0 176 -112.5 282.5
t-300.5 106.5h-424z" />
    <glyph glyph-name="uni1E5A.aalt" horiz-adv-x="1400" 
d="M879 584l493 -584h-127l-534 625h-387v-625h-99v1434h535q217 0 362.5 -118t145.5 -292q0 -156 -125 -267.5t-320 -129.5q25 -12 56 -43zM324 1413v-768h424q188 0 300.5 103.5t112.5 275.5q0 176 -112.5 282.5t-300.5 106.5h-424zM782 -168q37 0 61.5 -24.5t24.5 -61.5
t-24.5 -60.5t-63.5 -23.5q-37 0 -62.5 23.5t-25.5 60.5t25.5 61.5t64.5 24.5z" />
    <glyph glyph-name="uni0212.aalt" horiz-adv-x="1400" 
d="M729 1743q-92 0 -160.5 -35t-76.5 -90h-25q16 92 92 155.5t170 63.5t170 -63.5t92 -155.5h-24q-8 55 -77 90t-161 35zM1245 0l-534 625h-387v-625h-99v1434h535q217 0 362.5 -118t145.5 -292q0 -156 -125 -267.5t-320 -129.5q25 -12 56 -43l493 -584h-127zM324 1413v-768
h424q188 0 300.5 103.5t112.5 275.5q0 176 -112.5 282.5t-300.5 106.5h-424z" />
    <glyph glyph-name="i.locl" horiz-adv-x="507" 
d="M254 1210q-37 0 -62.5 23.5t-25.5 60.5t25.5 61.5t64.5 24.5q37 0 61.5 -24.5t24.5 -61.5t-24.5 -60.5t-63.5 -23.5zM205 0v995l98 39v-1034h-98z" />
    <glyph glyph-name="a.salt" horiz-adv-x="1298" 
d="M995 995l99 39v-1034h-99v145q-139 -166 -368 -165q-211 0 -359.5 153.5t-148.5 378.5t150.5 378.5t359.5 153.5q113 0 209 -49t157 -139v139zM633 -2q111 0 206 51t156 141v627q-137 209 -364 209q-178 0 -292 -142.5t-114 -371.5q0 -231 113 -372.5t295 -141.5z" />
    <glyph glyph-name="aacute.aalt" horiz-adv-x="1298" 
d="M911 1425l-309 -206h-24l151 206h182zM995 995l99 39v-1034h-99v145q-139 -166 -368 -165q-211 0 -359.5 153.5t-148.5 378.5t150.5 378.5t359.5 153.5q113 0 209 -49t157 -139v139zM633 -2q111 0 206 51t156 141v627q-137 209 -364 209q-178 0 -292 -142.5t-114 -371.5
q0 -231 113 -372.5t295 -141.5z" />
    <glyph glyph-name="abreve.aalt" horiz-adv-x="1298" 
d="M645 1210q-94 0 -170 62.5t-92 154.5h25q8 -55 76.5 -89.5t160.5 -34.5t160.5 34.5t77.5 89.5h24q-16 -92 -92 -154.5t-170 -62.5zM995 995l99 39v-1034h-99v145q-139 -166 -368 -165q-211 0 -359.5 153.5t-148.5 378.5t150.5 378.5t359.5 153.5q113 0 209 -49t157 -139
v139zM633 -2q111 0 206 51t156 141v627q-137 209 -364 209q-178 0 -292 -142.5t-114 -371.5q0 -231 113 -372.5t295 -141.5z" />
    <glyph glyph-name="uni01CE.aalt" horiz-adv-x="1298" 
d="M668 1208h-45l-240 222l8 12l254 -135l254 135l8 -12zM995 995l99 39v-1034h-99v145q-139 -166 -368 -165q-211 0 -359.5 153.5t-148.5 378.5t150.5 378.5t359.5 153.5q113 0 209 -49t157 -139v139zM633 -2q111 0 206 51t156 141v627q-137 209 -364 209
q-178 0 -292 -142.5t-114 -371.5q0 -231 113 -372.5t295 -141.5z" />
    <glyph glyph-name="acircumflex.aalt" horiz-adv-x="1298" 
d="M645 1350l-254 -136l-8 13l240 221h45l239 -221l-8 -13zM995 995l99 39v-1034h-99v145q-139 -166 -368 -165q-211 0 -359.5 153.5t-148.5 378.5t150.5 378.5t359.5 153.5q113 0 209 -49t157 -139v139zM633 -2q111 0 206 51t156 141v627q-137 209 -364 209
q-178 0 -292 -142.5t-114 -371.5q0 -231 113 -372.5t295 -141.5z" />
    <glyph glyph-name="uni0201.aalt" horiz-adv-x="1298" 
d="M547 1219h-27l-295 206h172zM868 1219h-26l-295 206h172zM995 995l99 39v-1034h-99v145q-139 -166 -368 -165q-211 0 -359.5 153.5t-148.5 378.5t150.5 378.5t359.5 153.5q113 0 209 -49t157 -139v139zM633 -2q111 0 206 51t156 141v627q-137 209 -364 209
q-178 0 -292 -142.5t-114 -371.5q0 -231 113 -372.5t295 -141.5z" />
    <glyph glyph-name="adieresis.aalt" horiz-adv-x="1298" 
d="M457 1212q-35 0 -58.5 22.5t-23.5 57.5t23.5 59.5t62.5 24.5q33 0 55.5 -23.5t22.5 -58t-22.5 -58.5t-59.5 -24zM833.5 1212q-34.5 0 -59 22.5t-24.5 59.5q0 35 24.5 58.5t61.5 23.5q33 0 55 -23.5t22 -58t-22.5 -58.5t-57 -24zM995 995l99 39v-1034h-99v145
q-139 -166 -368 -165q-211 0 -359.5 153.5t-148.5 378.5t150.5 378.5t359.5 153.5q113 0 209 -49t157 -139v139zM633 -2q111 0 206 51t156 141v627q-137 209 -364 209q-178 0 -292 -142.5t-114 -371.5q0 -231 113 -372.5t295 -141.5z" />
    <glyph glyph-name="uni1EA1.aalt" horiz-adv-x="1298" 
d="M995 995l99 39v-1034h-99v145q-139 -166 -368 -165q-211 0 -359.5 153.5t-148.5 378.5t150.5 378.5t359.5 153.5q113 0 209 -49t157 -139v139zM633 -2q111 0 206 51t156 141v627q-137 209 -364 209q-178 0 -292 -142.5t-114 -371.5q0 -231 113 -372.5t295 -141.5z
M647 -168q37 0 61.5 -24.5t24.5 -61.5t-24.5 -60.5t-63.5 -23.5q-37 0 -62.5 23.5t-25.5 60.5t25.5 61.5t64.5 24.5z" />
    <glyph glyph-name="agrave.aalt" horiz-adv-x="1298" 
d="M715 1219h-25l-309 206h182zM995 995l99 39v-1034h-99v145q-139 -166 -368 -165q-211 0 -359.5 153.5t-148.5 378.5t150.5 378.5t359.5 153.5q113 0 209 -49t157 -139v139zM633 -2q111 0 206 51t156 141v627q-137 209 -364 209q-178 0 -292 -142.5t-114 -371.5
q0 -231 113 -372.5t295 -141.5z" />
    <glyph glyph-name="uni0203.aalt" horiz-adv-x="1298" 
d="M645 1354q-92 0 -160.5 -35t-76.5 -90h-25q16 92 92 155.5t170 63.5t170 -63.5t92 -155.5h-24q-8 55 -77 90t-161 35zM995 995l99 39v-1034h-99v145q-139 -166 -368 -165q-211 0 -359.5 153.5t-148.5 378.5t150.5 378.5t359.5 153.5q113 0 209 -49t157 -139v139zM633 -2
q111 0 206 51t156 141v627q-137 209 -364 209q-178 0 -292 -142.5t-114 -371.5q0 -231 113 -372.5t295 -141.5z" />
    <glyph glyph-name="amacron.aalt" horiz-adv-x="1298" 
d="M879 1325v-49h-469v49h469zM995 995l99 39v-1034h-99v145q-139 -166 -368 -165q-211 0 -359.5 153.5t-148.5 378.5t150.5 378.5t359.5 153.5q113 0 209 -49t157 -139v139zM633 -2q111 0 206 51t156 141v627q-137 209 -364 209q-178 0 -292 -142.5t-114 -371.5
q0 -231 113 -372.5t295 -141.5z" />
    <glyph glyph-name="aogonek.aalt" horiz-adv-x="1298" 
d="M1104 -350l16 -15q-51 -61 -155 -61q-74 0 -128.5 45t-54.5 109q0 72 79 149.5t198 122.5h-64v145q-139 -166 -368 -165q-211 0 -359.5 153.5t-148.5 378.5t150.5 378.5t359.5 153.5q113 0 209 -49t157 -139v139l99 39v-1034q-102 -53 -164 -125t-62 -141q0 -61 34 -98
t91 -37q64 0 111 51zM633 -2q111 0 206 51t156 141v627q-137 209 -364 209q-178 0 -292 -142.5t-114 -371.5q0 -231 113 -372.5t295 -141.5z" />
    <glyph glyph-name="aring.aalt" horiz-adv-x="1298" 
d="M647.5 1182q-63.5 0 -106.5 40t-43 101q0 63 43 105t108 42q61 0 102.5 -42t41.5 -105q0 -61 -41 -101t-104.5 -40zM647 1452q-55 0 -90 -36t-35 -93q0 -55 35 -89t90 -34q53 0 87 34t34 89q0 57 -34 93t-87 36zM995 995l99 39v-1034h-99v145q-139 -166 -368 -165
q-211 0 -359.5 153.5t-148.5 378.5t150.5 378.5t359.5 153.5q113 0 209 -49t157 -139v139zM633 -2q111 0 206 51t156 141v627q-137 209 -364 209q-178 0 -292 -142.5t-114 -371.5q0 -231 113 -372.5t295 -141.5z" />
    <glyph glyph-name="atilde.aalt" horiz-adv-x="1298" 
d="M489 1366q-41 0 -74.5 -34t-37.5 -89h-23q0 84 50.5 140.5t121.5 56.5q68 0 158 -82q57 -51 115 -51q43 0 75.5 33.5t36.5 89.5h23q0 -84 -50 -140.5t-124 -56.5q-14 0 -28.5 2t-30 9t-24.5 11.5t-23.5 15.5t-18.5 15t-21 17l-14 14q-56 49 -111 49zM995 995l99 39v-1034
h-99v145q-139 -166 -368 -165q-211 0 -359.5 153.5t-148.5 378.5t150.5 378.5t359.5 153.5q113 0 209 -49t157 -139v139zM633 -2q111 0 206 51t156 141v627q-137 209 -364 209q-178 0 -292 -142.5t-114 -371.5q0 -231 113 -372.5t295 -141.5z" />
    <glyph glyph-name="u.aalt" horiz-adv-x="1214" 
d="M629 -20q-184 0 -315.5 107.5t-131.5 264.5v643l99 39v-715q0 -135 103 -224t255 -89q158 0 260 89t102 224v705h29v-696q0 -150 -112.5 -249t-288.5 -99z" />
    <glyph glyph-name="uacute.aalt" horiz-adv-x="1214" 
d="M580 1219h-25l152 206h182zM629 -20q-184 0 -315.5 107.5t-131.5 264.5v643l99 39v-715q0 -135 103 -224t255 -89q158 0 260 89t102 224v705h29v-696q0 -150 -112.5 -249t-288.5 -99z" />
    </font>
</defs>
</svg>
