<?xml version="1.0" standalone="no"?>
<!DOCTYPE svg PUBLIC "-//W3C//DTD SVG 1.1//EN" "http://www.w3.org/Graphics/SVG/1.1/DTD/svg11.dtd" >
<svg xmlns="http://www.w3.org/2000/svg" xmlns:xlink="http://www.w3.org/1999/xlink" version="1.1">
<metadata>
Created by FontForge 20201107 at Fri May 11 10:06:45 2018
 By 
Copyright (c) 2018 by Adam Ladd. All rights reserved.
</metadata>
<defs>
<font id="QuicheText-Medium" horiz-adv-x="1284" >
  <font-face 
    font-family="Quiche Text Medium"
    font-weight="500"
    font-stretch="normal"
    units-per-em="2048"
    panose-1="0 0 6 0 0 0 0 0 0 0"
    ascent="1475"
    descent="-573"
    x-height="1024"
    cap-height="1434"
    bbox="-3084 -573 2843 1931"
    underline-thickness="0"
    underline-position="0"
    unicode-range="U+0020-FB02"
  />
<missing-glyph horiz-adv-x="1024" 
d="M190 1475h650v-2048h-650v2048zM682 1270v67h-338v-67h133v-76h-135v-68h340v68h-135v76h135zM547 930v143h-205v-213h340v70h-135zM410 1004h67v-74h-67v74zM682 737v68h-340v-68h135v-75h-135v-68h205v143h135zM682 477v205h-68v-135h-272v-70h340zM682 201v231h-205
v-115h70v48h67v-97h-204v164h-68v-231h340zM682 -154v232h-340v-232h340zM410 10h204v-96h-204v96zM682 -268v67h-340v-67h143l-143 -97v-67h340v67h-209l143 97h66z" />
    <glyph glyph-name="uniFB01" unicode="fi" horiz-adv-x="1325" 
d="M1047 1303q0 -51 -33 -84t-82 -33q-54 0 -88.5 33t-34.5 84q0 45 29 77q-33 8 -84 9q-121 0 -200 -76t-79 -189v-100h207v-100h-207v-924h-250v924h-125v100h125v78q0 170 132 282q132 111 339 111q148 0 249 -55q102 -56 102 -137zM883 0v985l250 49v-1034h-250z" />
    <glyph glyph-name="uniFB02" unicode="fl" horiz-adv-x="1415" 
d="M973 1444v2l250 49v-1495h-250v1341q-74 39 -191 39q-138 0 -223 -74q-84 -75 -84 -192v-90h215v-100h-215v-924h-250v924h-125v100h125v68q0 173 137 289q136 114 349 114q155 0 262 -51z" />
    <glyph glyph-name="f_f.liga" unicode="ff" horiz-adv-x="1409" 
d="M1231 1495q128 0 213 -55q86 -56 86 -137q0 -51 -33 -84t-82 -33q-54 0 -88.5 33t-34.5 84q0 49 33 81q-5 1 -43 5q-80 0 -131 -58q-51 -59 -51 -151v-156h223v-100h-223v-924h-250v924h-375v-924h-250v924h-125v100h125v78q0 160 126 267q125 106 317 106q180 0 278 -89
q109 109 285 109zM475 1024h375v135q0 82 39 154q-45 51 -168 51q-110 0 -177 -67q-69 -67 -69 -173v-100z" />
    <glyph glyph-name="f_f_i.liga" unicode="ffi" horiz-adv-x="1988" 
d="M1712 1303q0 -51 -33.5 -84t-83.5 -33q-53 0 -87.5 32.5t-34.5 84.5q0 45 26 77q-57 8 -96 9q-119 0 -190 -75q-72 -75 -72 -190v-100h205v-100h-205v-924h-250v924h-416v-924h-250v924h-125v100h125v57q0 169 131 282q130 112 332 112q219 0 320 -107q130 127 346 127
q147 0 253 -55q105 -56 105 -137zM475 1024h416v70q0 102 49 190q-52 78 -207 78q-115 0 -186 -69q-72 -71 -72 -179v-90zM1546 0v985l250 49v-1034h-250z" />
    <glyph glyph-name="f_f_l.liga" unicode="ffl" horiz-adv-x="2021" 
d="M1595 1450l234 45v-1495h-250v1358q-67 27 -147 26q-135 0 -213 -69q-78 -71 -78 -180v-111h215v-100h-215v-924h-250v924h-416v-924h-250v924h-125v100h125v68q0 164 129 274q128 109 324 109q105 0 189.5 -31.5t123.5 -85.5q137 137 367 137q141 0 237 -45zM475 1024
h416v88q0 99 53 184q-72 66 -196 66q-120 0 -197 -69q-76 -70 -76 -179v-90z" />
    <glyph glyph-name=".notdef" horiz-adv-x="1024" 
d="M190 1475h650v-2048h-650v2048zM682 1270v67h-338v-67h133v-76h-135v-68h340v68h-135v76h135zM547 930v143h-205v-213h340v70h-135zM410 1004h67v-74h-67v74zM682 737v68h-340v-68h135v-75h-135v-68h205v143h135zM682 477v205h-68v-135h-272v-70h340zM682 201v231h-205
v-115h70v48h67v-97h-204v164h-68v-231h340zM682 -154v232h-340v-232h340zM410 10h204v-96h-204v96zM682 -268v67h-340v-67h143l-143 -97v-67h340v67h-209l143 97h66z" />
    <glyph glyph-name="glyph1" horiz-adv-x="0" 
 />
    <glyph glyph-name="glyph2" horiz-adv-x="681" 
 />
    <glyph glyph-name="space" unicode=" " horiz-adv-x="579" 
 />
    <glyph glyph-name="exclam" unicode="!" horiz-adv-x="616" 
d="M354 475h-90q-4 237 -54 515q-50 279 -50 304q0 66 43 108t107 42q62 0 106 -42q43 -42 43 -108q0 -26 -50 -305q-50 -273 -55 -514zM421 35q-43 -45 -111 -45t-114 45t-46 111t46 112q47 47 114 47q68 0 111 -46q44 -47 44 -114q0 -66 -44 -110z" />
    <glyph glyph-name="quotedbl" unicode="&#x22;" horiz-adv-x="849" 
d="M291 926h-90q-7 112 -44 238q-36 124 -36 165q0 54 34.5 89.5t90.5 35.5q53 0 89 -36t36 -89q0 -39 -36 -164q-37 -127 -44 -239zM651 926h-90q-7 112 -44 238q-36 124 -36 165q0 54 35.5 89.5t89.5 35.5q53 0 89 -36t36 -89q0 -39 -36 -164q-37 -127 -44 -239z" />
    <glyph glyph-name="numbersign" unicode="#" horiz-adv-x="1589" 
d="M1491 1012v-99h-297l-90 -393h276v-98h-299l-94 -422h-174l94 422h-358l-94 -422h-176l94 422h-275v98h297l90 393h-276v99h299l94 422h176l-94 -422h358l95 422h174l-94 -422h274zM571 520h359l90 393h-358z" />
    <glyph glyph-name="dollar" unicode="$" horiz-adv-x="1282" 
d="M1155 389q0 -172 -128 -282q-128 -111 -331 -125v-166h-90v164q-200 10 -336 105q-137 95 -137 230q0 54 38 89.5t93 35.5q54 0 88.5 -34.5t34.5 -90.5q0 -90 -80 -116q97 -115 295 -115h4v522l-20 8q-76 33 -122 56q-37 17 -109 62q-71 44 -103 82q-39 44 -64.5 105.5
t-25.5 129.5q0 170 125 281q125 110 319 122v166h90v-166q172 -10 288 -99t116 -212q0 -55 -34 -90t-87 -35q-57 0 -94 34.5t-37 90.5q0 86 82 116q-84 91 -234 95v-529l31 -12q24 -10 69 -29t61 -26q45 -21 111 -61q69 -43 101 -78q37 -41 61.5 -101t24.5 -127zM369 1120
q0 -140 237 -256v482q-108 -17 -171 -77q-66 -61 -66 -149zM696 563v-473q113 18 178.5 76t65.5 143q0 75 -61.5 135.5t-182.5 118.5z" />
    <glyph glyph-name="percent" unicode="%" horiz-adv-x="1546" 
d="M637 893q-88 -94 -219 -94q-132 0 -220 94q-89 95 -89 234q0 138 89 233q88 94 220 94q131 0 219 -94t88 -233q0 -140 -88 -234zM369 0h-115l922 1434h114zM418 893q66 0 104.5 62.5t38.5 171.5q0 108 -39 170.5t-104 62.5q-68 0 -107 -62.5t-39 -170.5q0 -109 39 -171.5
t107 -62.5zM1350 74q-88 -94 -219 -94q-133 0 -221 94q-89 95 -89 233q0 139 89 234q88 94 221 94q131 0 219 -94t88 -234q0 -139 -88 -233zM1130 74q66 0 105 63t39 171t-39 170.5t-105 62.5q-68 0 -106.5 -62.5t-38.5 -170.5q0 -109 38.5 -171.5t106.5 -62.5z" />
    <glyph glyph-name="ampersand" unicode="&#x26;" horiz-adv-x="1544" 
d="M1452 201l76 -41q-20 -81 -87 -130q-68 -50 -159 -50q-139 0 -295 135q-161 -135 -397 -135q-213 0 -343 112q-130 111 -130 273q0 140 92 265q91 124 252 201q-92 186 -92 310q0 133 99 223t249 90q134 0 217 -70q84 -70 84 -180q0 -190 -291 -342q53 -90 141 -223
q102 -158 189 -262q67 147 71 323h99q-6 -243 -99 -409q139 -160 228 -160q74 0 96 70zM764 1350q-72 0 -117 -44t-45 -114q0 -98 82 -252q229 111 229 264q0 64 -41 105t-108 41zM348 446q0 -147 98 -236t250 -89q118 0 213 69q-106 111 -254 326q-112 169 -151 238
q-72 -45 -114 -127.5t-42 -180.5z" />
    <glyph glyph-name="quotesingle" unicode="'" horiz-adv-x="489" 
d="M291 926h-90q-7 112 -44 238q-36 124 -36 165q0 54 34.5 89.5t90.5 35.5q53 0 89 -36t36 -89q0 -39 -36 -164q-37 -127 -44 -239z" />
    <glyph glyph-name="parenleft" unicode="(" horiz-adv-x="774" 
d="M694 -184l-20 -82q-222 118 -365 367q-143 248 -143 514t143 514t365 366l20 -82q-134 -95 -207 -304q-75 -210 -75 -494q0 -285 75 -495q73 -209 207 -304z" />
    <glyph glyph-name="parenright" unicode=")" horiz-adv-x="774" 
d="M100 -266l-20 82q135 95 210 304q75 210 75 495q0 284 -75 494q-75 209 -210 304l20 82q223 -118 367 -366q143 -248 143 -514t-143 -514q-144 -249 -367 -367z" />
    <glyph glyph-name="asterisk" unicode="*" horiz-adv-x="780" 
d="M627 1128q56 -33 24 -86q-12 -23 -37.5 -28.5t-52.5 8.5q-12 7 -59 52t-84 71q5 -50 20 -106q15 -61 15 -81q0 -30 -18 -48.5t-44 -18.5q-27 0 -45 18.5t-18 46.5q0 18 17 83q18 69 22 108q-40 -28 -88 -73q-52 -47 -60 -52q-27 -14 -52.5 -8t-37.5 28q-13 17 -6 44.5
t31 41.5q18 10 81 27q67 18 105 35q-52 23 -106 40q-64 20 -78 27q-24 14 -32.5 40t3.5 46q14 23 38.5 29t51.5 -6q17 -10 63 -57q50 -50 87 -76q-5 49 -21 114q-18 65 -18 83q0 29 18 47t45 18q26 0 44 -19t18 -49q0 -18 -15 -81q-15 -58 -20 -111q33 24 85 76q49 49 60 55
q57 29 90 -23q12 -20 4 -46.5t-32 -39.5q-13 -7 -78 -27q-55 -17 -107 -40q48 -20 107 -35q63 -16 80 -27z" />
    <glyph glyph-name="plus" unicode="+" horiz-adv-x="1157" 
d="M631 664h356v-99h-356v-360h-105v360h-358v99h358v360h105v-360z" />
    <glyph glyph-name="comma" unicode="," horiz-adv-x="542" 
d="M272 303q70 0 116 -51q46 -50 46 -131q0 -115 -72 -229q-75 -114 -182 -160l-43 75q49 27 88 77t54 106h-7q-66 0 -110 45q-45 45 -45 111q0 64 45 111q43 46 110 46z" />
    <glyph glyph-name="hyphen" unicode="-" horiz-adv-x="909" 
d="M739 489h-571v127h571v-127z" />
    <glyph glyph-name="period" unicode="." horiz-adv-x="548" 
d="M276 -10q-68 0 -113 45q-46 45 -46 111t46 112q47 47 113 47t111 -47q45 -46 45 -112t-45 -111t-111 -45z" />
    <glyph glyph-name="slash" unicode="/" horiz-adv-x="1009" 
d="M201 -266h-111l678 1761h111z" />
    <glyph glyph-name="zero" unicode="0" horiz-adv-x="1546" 
d="M1211 191q-175 -211 -437 -211q-263 0 -438 211q-176 211 -176 526q0 314 176 526q175 211 438 211q262 0 437 -211t175 -526q0 -317 -175 -526zM514 251q96 -171 260 -171t259 171q95 172 95 466t-95 466q-94 171 -259 171q-164 0 -260 -171t-96 -466t96 -466z" />
    <glyph glyph-name="one" unicode="1" horiz-adv-x="894" 
d="M487 1434h162v-1434h-250v1225q-109 -103 -282 -144l-15 101q102 27 213 99q110 70 172 153z" />
    <glyph glyph-name="two" unicode="2" horiz-adv-x="1253" 
d="M705 473l-295 -285h673v-188h-919v55l368 449q76 90 114 138q38 49 86 125q89 143 89 296q0 127 -70.5 199.5t-195.5 72.5q-165 0 -244 -106q49 -8 79 -44t30 -87q0 -57 -37 -95t-94 -38q-59 0 -98 37.5t-39 95.5q0 150 130 253t328 103q202 0 336 -108
q133 -109 133 -277q0 -165 -119 -318q-60 -78 -114 -136q-58 -63 -141 -142z" />
    <glyph glyph-name="three" unicode="3" horiz-adv-x="1282" 
d="M825 745q145 -45 232 -145q86 -101 86 -229q0 -171 -142 -280q-143 -111 -368 -111q-202 0 -335 89q-132 89 -132 226q0 57 37 93t96 36q55 0 91 -36t36 -93q0 -45 -23.5 -78t-62.5 -45q82 -76 235 -76q150 0 234 78t84 211q0 138 -83 224q-82 85 -222 85h-142v99h142
q120 0 194 78q72 77 72 204q0 122 -74 192t-207 70q-139 0 -215 -75q39 -10 63.5 -44t24.5 -79q0 -57 -35.5 -93t-91.5 -36q-59 0 -96 35.5t-37 93.5q0 138 127 226q128 89 322 89q204 0 335 -101q130 -102 130 -261q0 -115 -75 -208q-74 -94 -200 -139z" />
    <glyph glyph-name="four" unicode="4" horiz-adv-x="1314" 
d="M1010 477h213v-98h-213v-379h-250v379h-670v59l709 996h211v-957zM760 1210l-522 -733h522v733z" />
    <glyph glyph-name="five" unicode="5" horiz-adv-x="1277" 
d="M637 948q225 0 373 -138q147 -138 147 -349t-148 -346q-149 -135 -382 -135q-201 0 -334 97t-133 238q0 57 40 96q41 38 99 38q55 0 92 -38t37 -96q0 -48 -27 -83t-71 -46q74 -90 227 -90q162 0 252 100q90 99 90 265q0 169 -89 270q-88 100 -243 100q-158 0 -248 -100
l-83 57l79 646h746l-23 -189h-643l-49 -385q112 88 291 88z" />
    <glyph glyph-name="six" unicode="6" horiz-adv-x="1368" 
d="M762 903q198 0 334 -129q137 -129 137 -321q0 -200 -149 -337q-149 -136 -367 -136q-244 0 -400 180q-157 179 -157 483q0 329 179 571q179 240 447 240q152 0 258 -78q105 -78 105 -186q0 -58 -40 -95q-41 -38 -99 -38q-55 0 -92 38t-37 95q0 82 69 121q-51 31 -121 30
q-187 0 -293 -165q-107 -166 -118 -465q38 85 128 138q92 54 216 54zM711 80q125 0 195 96q69 96 69 264q0 166 -68.5 256t-195.5 90q-137 0 -213 -91t-76 -257q0 -168 77 -263t212 -95z" />
    <glyph glyph-name="seven" unicode="7" horiz-adv-x="1208" 
d="M139 1434h983v-48q-212 -256 -343 -646q-130 -389 -115 -740h-299q32 252 176 596q145 345 360 649h-762v189z" />
    <glyph glyph-name="eight" unicode="8" horiz-adv-x="1343" 
d="M887 764q143 -71 219 -155q78 -85 78 -216q0 -184 -149 -298q-149 -115 -373 -115q-213 0 -357 108q-145 106 -145 274q0 106 70 203q69 97 182 150q-219 136 -219 338q0 177 138 290q138 111 341 111q194 0 321 -100t127 -248q0 -106 -63 -198q-65 -94 -170 -144z
M694 1350q-122 0 -204 -59q-82 -60 -82 -156q0 -107 107 -181q50 -35 106 -64q58 -30 135 -65l32 -14q92 41 149 119q56 79 56 166q0 109 -85 182q-86 72 -214 72zM645 84q143 0 234 60q90 58 90 155q0 106 -112 183q-60 42 -106 66q-41 21 -135 64q-106 51 -108 52
q-97 -39 -159 -119t-62 -172q0 -125 102 -207q101 -82 256 -82z" />
    <glyph glyph-name="nine" unicode="9" horiz-adv-x="1368" 
d="M651 1454q243 0 401 -180q156 -180 156 -483q0 -330 -174 -570q-174 -241 -434 -241q-160 0 -270 78q-111 76 -111 186q0 58 40 95q41 38 99 38q57 0 94 -38t37 -95q0 -86 -69 -119q56 -33 131 -33q184 0 286.5 163t112.5 468q-38 -81 -129 -137t-215 -56
q-198 0 -334 129q-137 129 -137 322q0 201 150 337q148 136 366 136zM657 647q137 0 213 91t76 257q0 169 -76 264q-77 95 -213 95q-125 0 -194 -96q-70 -97 -70 -265q0 -166 68.5 -256t195.5 -90z" />
    <glyph glyph-name="colon" unicode=":" horiz-adv-x="581" 
d="M293 662q-67 0 -114 44q-46 43 -46 111q0 66 46 112t114 46q66 0 111 -46q45 -47 45 -112q0 -67 -45 -111q-46 -44 -111 -44zM293 -10q-67 0 -114 45q-46 45 -46 111t46 112q47 47 114 47q66 0 111 -47q45 -46 45 -112t-45 -111t-111 -45z" />
    <glyph glyph-name="semicolon" unicode=";" horiz-adv-x="579" 
d="M293 662q-67 0 -114 44q-46 43 -46 111q0 66 46 112t114 46q66 0 111 -46q45 -47 45 -112q0 -67 -45 -111q-46 -44 -111 -44zM289 303q69 0 116 -51q46 -50 46 -131q0 -116 -74 -231q-74 -113 -180 -158l-43 75q49 27 88 77t53 106h-6q-66 0 -111 45t-45 111q0 64 45 111
q45 46 111 46z" />
    <glyph glyph-name="less" unicode="&#x3c;" horiz-adv-x="1032" 
d="M168 627l694 397v-111l-538 -299l538 -299v-110l-694 397v25z" />
    <glyph glyph-name="equal" unicode="=" horiz-adv-x="1157" 
d="M987 729h-819v98h819v-98zM987 401h-819v99h819v-99z" />
    <glyph glyph-name="greater" unicode="&#x3e;" horiz-adv-x="1032" 
d="M168 913v111l694 -397v-25l-694 -397v110l539 299z" />
    <glyph glyph-name="question" unicode="?" horiz-adv-x="1071" 
d="M225 1365q125 89 310 89q183 0 305 -92q121 -91 121 -234q0 -74 -37 -143t-97 -121q-11 -9 -113 -95q-134 -108 -134 -220v-74h-103v92q0 64 37 134q39 74 82 125q43 50 82 130q37 75 37 154q0 105 -66 167t-182 62q-122 0 -193 -67q43 -12 69 -47t26 -82q0 -57 -37 -94
t-94 -37q-60 0 -99 37t-39 94q0 133 125 222zM417 258q47 47 114 47q68 0 111 -46q44 -47 44 -114q0 -66 -44 -110q-44 -45 -111 -45t-114 45q-46 45 -46 111t46 112z" />
    <glyph glyph-name="at" unicode="@" horiz-adv-x="1925" 
d="M1194 866l205 39l-88 -579q-16 -115 96 -115q102 0 168 111q65 110 65 280q0 285 -176 452t-469 167q-318 0 -508 -196q-192 -197 -192 -513q0 -325 202 -520q200 -193 539 -193q130 0 244 35q113 35 166 92l49 -94q-59 -58 -192 -95q-135 -38 -281 -38q-366 0 -614 233
q-248 234 -248 584q0 344 240 575q239 230 597 230q330 0 551 -197q221 -198 221 -497q0 -218 -118 -369q-119 -152 -299 -152q-85 0 -146.5 34.5t-85.5 92.5q-96 -127 -260 -127q-136 0 -231 107q-94 106 -94 270q0 181 120 305q119 125 285 125q179 0 240 -139zM928 236
q127 0 190 133l45 297q-45 127 -174 127q-105 0 -175 -94q-71 -95 -71 -232q0 -107 51 -169t134 -62z" />
    <glyph glyph-name="A" unicode="A" horiz-adv-x="1527" 
d="M1440 0h-264l-164 377h-635l-162 -377h-127l629 1434h96zM694 1110l-274 -635h549z" />
    <glyph glyph-name="B" unicode="B" horiz-adv-x="1478" 
d="M1071 748q145 -48 227 -146t82 -229q0 -160 -130 -266q-131 -107 -318 -107h-719v1434h657q193 0 321 -101q128 -102 128 -252q0 -226 -248 -333zM780 1333h-317v-547h287q145 0 228 74.5t83 210.5q0 122 -76 192t-205 70zM463 100h379q128 0 205 74q75 74 75 201
q0 164 -93 239q-94 74 -218 74h-348v-588z" />
    <glyph glyph-name="C" unicode="C" horiz-adv-x="1585" 
d="M1399 330l65 -68q-67 -126 -220 -203q-154 -79 -349 -79q-325 0 -545 211q-221 210 -221 526q0 311 218 524q217 213 544 213q237 0 400 -110q161 -111 161 -261v-4q0 -55 -38 -92t-95 -37q-59 0 -98 38t-39 95q0 47 27.5 82t70.5 47q-96 123 -315 123q-263 0 -421 -167
q-157 -166 -157 -449q0 -288 157 -454q156 -167 417 -167q147 0 262 63q114 62 176 169z" />
    <glyph glyph-name="D" unicode="D" horiz-adv-x="1675" 
d="M213 1434h559q332 0 553 -206t221 -511t-221 -511t-553 -206h-559v1434zM463 100h280q246 0 396 169q149 170 149 448q0 277 -149 447q-150 169 -396 169h-280v-1233z" />
    <glyph glyph-name="E" unicode="E" horiz-adv-x="1357" 
d="M463 678v-578h786v-100h-1036v1434h1016v-101h-766v-557h602v-98h-602z" />
    <glyph glyph-name="F" unicode="F" horiz-adv-x="1296" 
d="M1208 1434v-101h-745v-577h581v-99h-581v-657h-250v1434h995z" />
    <glyph glyph-name="G" unicode="G" horiz-adv-x="1677" 
d="M1268 240v366h239v-606h-77l-72 117q-155 -137 -461 -137q-323 0 -546 212q-222 212 -222 527q0 313 223 524t559 211q233 0 391 -102q158 -104 158 -258q0 -57 -37 -94t-94 -37q-60 0 -98.5 37t-38.5 94q0 46 27 81t71 48q-92 116 -311 114q-277 0 -434 -168
q-158 -169 -158 -464q0 -285 144 -455q143 -170 387 -170q133 0 225 42t125 118z" />
    <glyph glyph-name="H" unicode="H" horiz-adv-x="1687" 
d="M1223 776v658h250v-1434h-250v678h-760v-678h-250v1434h250v-658h760z" />
    <glyph glyph-name="I" unicode="I" horiz-adv-x="677" 
d="M463 0h-250v1434h250v-1434z" />
    <glyph glyph-name="J" unicode="J" horiz-adv-x="1261" 
d="M813 432v1002h250v-975q0 -221 -141 -350q-142 -129 -371 -129q-203 0 -332 96t-129 246q0 58 40 95q41 38 99 38q57 0 94 -38t37 -95q0 -51 -29 -87t-77 -45q78 -100 240 -100q153 0 236 90.5t83 251.5z" />
    <glyph glyph-name="K" unicode="K" horiz-adv-x="1503" 
d="M1450 0h-291l-526 739l-170 -151v-588h-250v1434h250v-713l782 713h158l-594 -535z" />
    <glyph glyph-name="L" unicode="L" horiz-adv-x="1296" 
d="M463 1434v-1334h735v-100h-985v1434h250z" />
    <glyph glyph-name="M" unicode="M" horiz-adv-x="1906" 
d="M961 625l473 809h260v-1434h-250v1243l-516 -885h-90l-516 883v-1241h-109v1434h274z" />
    <glyph glyph-name="N" unicode="N" horiz-adv-x="1622" 
d="M1300 393v1041h107v-1434h-70l-1015 1126v-1126h-109v1434h154z" />
    <glyph glyph-name="O" unicode="O" horiz-adv-x="1771" 
d="M1426 191q-215 -211 -539 -211t-541 211q-217 210 -217 526q0 315 217 526t541 211t539 -211q216 -211 216 -526q0 -316 -216 -526zM525 254q137 -174 362 -174t361 174q136 173 136 463t-136 463q-136 174 -361 174t-362 -174q-138 -174 -138 -463t138 -463z" />
    <glyph glyph-name="P" unicode="P" horiz-adv-x="1470" 
d="M213 1434h631q226 0 377 -127t151 -319q0 -193 -151 -320t-377 -127h-381v-541h-250v1434zM463 641h315q153 0 244 94q92 95 92 252t-92 252q-91 94 -244 94h-315v-692z" />
    <glyph glyph-name="Q" unicode="Q" horiz-adv-x="1783" 
d="M1634 -12q49 0 81 -32t32 -83q0 -155 -96 -259q-97 -103 -238 -103q-81 0 -169 36q-91 39 -148 78q-52 35 -144 109q-150 122 -217 153q-73 35 -139 35q-54 0 -100 -31q63 -31 63 -104q0 -49 -31.5 -82t-81.5 -33q-53 0 -86.5 32t-33.5 83q0 98 79 165q79 68 197 77
q-216 83 -344 266q-129 184 -129 422q0 315 217 526t541 211t539 -211q216 -211 216 -526q0 -316 -216 -526q-215 -211 -539 -211h-39q80 -34 231 -138q76 -50 133 -83q45 -25 123 -55q72 -28 138 -28q99 0 151 82q-49 4 -78.5 36t-29.5 79q0 51 33.5 83t84.5 32zM524 1180
q-137 -175 -137 -463q0 -290 136 -463q137 -174 364 -174q225 0 361 174q136 173 136 463t-136 463q-136 174 -361 174q-227 0 -363 -174z" />
    <glyph glyph-name="R" unicode="R" horiz-adv-x="1484" 
d="M1153 449l160 -293q57 -112 123 -156h-277q-57 39 -98 119l-193 368q-38 67 -86 99h-319v-586h-250v1434h590q227 0 378 -120q150 -120 150 -302q0 -146 -98 -256q-97 -110 -258 -150q123 -43 178 -157zM748 1333h-285v-649h285q147 0 236 89t89 237q0 146 -89 235
q-88 88 -236 88z" />
    <glyph glyph-name="S" unicode="S" horiz-adv-x="1325" 
d="M745 819q30 -12 70.5 -28.5t45.5 -18.5q41 -16 105 -48q62 -30 99 -61q101 -86 125 -162q16 -48 16 -112q0 -183 -149 -296q-151 -113 -387 -113q-226 0 -381 97q-156 97 -156 238q0 51 35 85t88 34q49 0 82 -34t33 -85q0 -80 -70 -108q100 -121 326 -121q160 0 259 60
q99 58 99 163q0 68 -70 138q-30 27 -83 57q-48 27 -97 49q-41 18 -114 51q-20 8 -51 20.5t-42 17.5q-35 15 -89 42q-59 28 -90 51q-34 22 -74 57q-40 34 -62 69t-38 86q-15 48 -15 102q0 181 147 293q145 112 369 112q202 0 339 -89q136 -88 136 -224q0 -51 -33 -85t-82 -34
q-53 0 -88 34t-35 85q0 81 72 106q-85 101 -274 103q-147 0 -242 -62q-96 -63 -96 -168q0 -103 119 -178q64 -41 113 -63q57 -27 140 -60z" />
    <glyph glyph-name="T" unicode="T" horiz-adv-x="1337" 
d="M84 1434h1167v-101h-456v-1333h-250v1333h-461v101z" />
    <glyph glyph-name="U" unicode="U" horiz-adv-x="1613" 
d="M840 -20q-281 0 -461 162q-180 161 -180 425v867h250v-899q0 -193 120 -308q119 -116 320 -116q194 0 306 115q112 113 112 309v899h108v-906q0 -250 -153 -399q-155 -149 -422 -149z" />
    <glyph glyph-name="V" unicode="V" horiz-adv-x="1527" 
d="M834 324l479 1110h127l-629 -1434h-96l-627 1434h264z" />
    <glyph glyph-name="W" unicode="W" horiz-adv-x="2347" 
d="M1653 324l479 1110h127l-629 -1434h-96l-360 825l-363 -825h-96l-627 1434h264l482 -1110l276 647l-203 463h264z" />
    <glyph glyph-name="X" unicode="X" horiz-adv-x="1433" 
d="M815 772l508 -772h-270l-377 573l-391 -573h-140l467 670l-501 764h270l371 -564l387 564h139z" />
    <glyph glyph-name="Y" unicode="Y" horiz-adv-x="1464" 
d="M805 731l440 703h131l-518 -820v-614h-250v614l-520 820h274z" />
    <glyph glyph-name="Z" unicode="Z" horiz-adv-x="1374" 
d="M150 1434h1103v-33l-819 -1301h817v-100h-1130v33l819 1300h-790v101z" />
    <glyph glyph-name="bracketleft" unicode="[" horiz-adv-x="729" 
d="M649 1475v-101h-217v-1519h217v-101h-446v1721h446z" />
    <glyph glyph-name="backslash" unicode="\" horiz-adv-x="1009" 
d="M920 -266h-111l-678 1761h111z" />
    <glyph glyph-name="bracketright" unicode="]" horiz-adv-x="729" 
d="M80 1475h446v-1721h-446v101h217v1519h-217v101z" />
    <glyph glyph-name="asciicircum" unicode="^" horiz-adv-x="1058" 
d="M543 1434l397 -615h-113l-297 469l-299 -469h-110l397 615h25z" />
    <glyph glyph-name="underscore" unicode="_" horiz-adv-x="1009" 
d="M893 -264h-776v100h776v-100z" />
    <glyph glyph-name="grave" unicode="`" horiz-adv-x="409" 
d="M410 1186h-105l-305 282h301z" />
    <glyph glyph-name="a" unicode="a" horiz-adv-x="1275" 
d="M621 1044q209 0 345 -105t136 -265v-674h-250v133q-62 -68 -162 -110q-101 -43 -211 -43q-150 0 -254 83t-104 205q0 126 122 212q121 85 308 85q200 0 301 -65v182q0 117 -73 189q-74 71 -197 71q-109 0 -181 -45q47 -38 48 -98q0 -53 -35 -89t-88 -36q-55 0 -93 35.5
t-38 89.5q0 105 124 175t302 70zM590 121q78 0 148.5 32.5t113.5 86.5v163q-72 58 -221 60q-119 0 -185.5 -46t-66.5 -128q0 -75 59 -122q58 -46 152 -46z" />
    <glyph glyph-name="b" unicode="b" horiz-adv-x="1380" 
d="M788 1044q194 0 331 -153q136 -154 136 -379q0 -226 -136 -378q-136 -154 -335 -154q-215 0 -342 163v-143h-249v1446l249 49v-631q55 84 147.5 132t198.5 48zM702 113q133 0 214 110t81 289t-79 288t-209 109q-81 0 -152.5 -44t-114.5 -120v-475q41 -74 110 -115.5
t150 -41.5z" />
    <glyph glyph-name="c" unicode="c" horiz-adv-x="1208" 
d="M1018 227l63 -65q-44 -80 -151 -131q-110 -51 -248 -51q-242 0 -399 154q-158 153 -158 378q0 227 159 380q158 152 396 152q169 0 281 -76t112 -194q0 -53 -34.5 -89t-86.5 -36q-57 0 -94 35.5t-37 89.5q0 82 76 115q-58 43 -149 43q-170 0 -267 -112q-98 -113 -98 -308
q0 -192 101 -304q100 -112 272 -112q84 0 155.5 36t106.5 95z" />
    <glyph glyph-name="d" unicode="d" horiz-adv-x="1380" 
d="M936 866v580l250 49v-1495h-250v141q-129 -162 -340 -161q-198 0 -335 153q-136 151 -136 379q0 224 135 379q135 153 332 153q104 0 197 -48q92 -48 147 -130zM678 113q168 0 258 155v480q-95 162 -264 161q-130 0 -209 -109q-80 -110 -80 -288q0 -180 81 -289
q81 -110 214 -110z" />
    <glyph glyph-name="e" unicode="e" 
d="M1024 377q51 0 84 -35t33 -88q0 -117 -128 -195q-127 -79 -311 -79q-252 0 -414 153q-163 151 -163 381q0 225 157 378q157 152 382 152q215 0 355 -150q140 -152 140 -376h-776q6 -206 106.5 -317t278.5 -111q122 0 193 57q-66 31 -66 107q0 53 37 88t92 35zM662 944
q-112 0 -186 -90q-72 -89 -89 -238h531q-10 152 -78 240q-69 88 -178 88z" />
    <glyph glyph-name="f" unicode="f" horiz-adv-x="786" 
d="M608 1495q128 0 213 -55q86 -56 86 -137q0 -51 -32.5 -84t-81.5 -33q-54 0 -89.5 33t-35.5 84q0 53 34 83q-7 1 -26 3q-90 0 -145 -58q-56 -59 -56 -151v-156h225v-100h-225v-924h-250v924h-125v100h125v135q0 142 110 240q109 96 273 96z" />
    <glyph glyph-name="g" unicode="g" horiz-adv-x="1374" 
d="M938 862v123l250 49v-1093q0 -176 -148 -294t-376 -118q-184 0 -311 73q-128 74 -128 185q0 53 36 87t91 34q51 0 85 -35t34 -86q0 -70 -55 -104q75 -48 192 -50q143 0 237 85q93 86 93 212v213q-128 -164 -342 -163q-198 0 -335 153q-136 151 -136 379q0 224 135 379
q135 153 332 153q107 0 199 -49q92 -50 147 -133zM678 113q80 0 149 43t111 116v471q-94 166 -266 166q-130 0 -209 -109q-80 -110 -80 -288q0 -180 81 -289q81 -110 214 -110z" />
    <glyph glyph-name="h" unicode="h" horiz-adv-x="1349" 
d="M815 1044q155 0 259 -98q102 -98 102 -246v-700h-250v702q0 86 -57 145q-58 58 -144 58q-87 0 -164 -55q-79 -56 -119 -145v-705h-249v1446l249 49v-657q56 94 156 150q101 56 217 56z" />
    <glyph glyph-name="i" unicode="i" horiz-adv-x="641" 
d="M326 1188q-64 0 -105 40q-43 40 -43 101q0 59 42 99q41 40 106 40q59 0 98 -39.5t39 -99.5q0 -61 -39 -101t-98 -40zM446 0h-249v985l249 49v-1034z" />
    <glyph glyph-name="j" unicode="j" horiz-adv-x="649" 
d="M334 1188q-64 0 -105 40q-43 40 -43 101q0 59 42 99q41 40 106 40q59 0 98 -39.5t39 -99.5q0 -61 -39 -101t-98 -40zM205 -160v1145l250 49v-1171q0 -143 -109 -239q-110 -95 -270 -95q-126 0 -208 55q-83 56 -83 137q0 51 32.5 84t82.5 33q54 0 88.5 -33t34.5 -84
q0 -48 -35 -83q6 -1 20 -3q87 0 143 57q54 58 54 148z" />
    <glyph glyph-name="k" unicode="k" horiz-adv-x="1196" 
d="M1169 0h-280l-375 528l-72 -61v-467h-249v1446l249 49v-895l484 424h157l-395 -344z" />
    <glyph glyph-name="l" unicode="l" horiz-adv-x="636" 
d="M442 0h-249v1446l249 49v-1495z" />
    <glyph glyph-name="m" unicode="m" horiz-adv-x="2000" 
d="M1483 1044q148 0 246 -97q98 -98 98 -247v-700h-250v696q0 89 -52 147t-132 58q-77 0 -150 -56q-72 -57 -108 -147v-698h-250v696q0 89 -52 147t-133 58q-79 0 -149 -55q-71 -55 -109 -144v-702h-249v985l249 49v-194q52 93 146 148q95 56 203 56q116 0 202 -61
q87 -62 121 -162q51 100 152 162q100 61 217 61z" />
    <glyph glyph-name="n" unicode="n" horiz-adv-x="1349" 
d="M817 1044q155 0 258 -98q101 -98 101 -246v-700h-250v702q0 86 -57 145q-58 58 -144 58q-87 0 -164 -55q-79 -56 -119 -145v-705h-249v985l249 49v-194q56 93 156 148q101 56 219 56z" />
    <glyph glyph-name="o" unicode="o" horiz-adv-x="1349" 
d="M1067 133q-157 -153 -393 -153t-392 153q-157 151 -157 379q0 227 157 380q157 152 392 152t393 -152q158 -153 158 -380t-158 -379zM462 197q80 -117 212 -117q134 0 213 117q80 116 80 315q0 202 -79 317t-214 115q-133 0 -212 -115t-79 -317q0 -200 79 -315z" />
    <glyph glyph-name="p" unicode="p" horiz-adv-x="1380" 
d="M788 1044q194 0 331 -153q136 -154 136 -379q0 -226 -136 -378q-136 -154 -335 -154q-215 0 -342 163v-594h-249v1436l249 49v-170q55 84 147.5 132t198.5 48zM702 113q133 0 214 110t81 289t-79 288t-209 109q-81 0 -152.5 -44t-114.5 -120v-475q41 -74 110 -115.5
t150 -41.5z" />
    <glyph glyph-name="q" unicode="q" horiz-adv-x="1380" 
d="M936 866v119l250 49v-1485h-250v592q-129 -162 -340 -161q-198 0 -335 153q-136 151 -136 379q0 224 135 379q135 153 332 153q104 0 197 -48q92 -48 147 -130zM678 113q168 0 258 155v480q-95 162 -264 161q-130 0 -209 -109q-80 -110 -80 -288q0 -180 81 -289
q81 -110 214 -110z" />
    <glyph glyph-name="r" unicode="r" horiz-adv-x="1046" 
d="M745 1044q105 0 169 -57q65 -57 65 -147q0 -53 -35 -88t-88 -35q-55 0 -92 34.5t-37 88.5q0 42 27 80q-14 2 -35 2q-92 0 -167 -63q-76 -65 -110 -169v-690h-249v985l249 49v-198q43 96 124 152t179 56z" />
    <glyph glyph-name="s" unicode="s" horiz-adv-x="1067" 
d="M600 625q17 -7 32.5 -14t25.5 -11.5t13 -5.5q1 -1 23.5 -11t43.5 -19q54 -26 71 -39q30 -25 55 -44q34 -28 50.5 -54t30.5 -67q13 -36 13 -79q0 -135 -111 -218q-113 -83 -304 -83q-171 0 -293 65t-123 158v2q0 48 32 78t83 30q45 0 75.5 -30.5t30.5 -77.5q0 -55 -39 -84
q74 -47 189 -47q106 0 170.5 38t64.5 101q0 59 -55 99q-52 38 -174 89q-185 79 -256 138q-104 90 -105 211q0 133 114 214q115 80 294 80q155 0 261 -57t108 -143v-2q0 -47 -31 -78t-76 -31q-49 0 -82 31t-33 78q0 48 35 80q-59 29 -143 28q-97 0 -159 -38t-62 -99t57 -101
t174 -87z" />
    <glyph glyph-name="t" unicode="t" horiz-adv-x="864" 
d="M754 188l49 -59q-16 -62 -96 -106q-79 -43 -179 -43q-132 0 -221 77q-88 76 -88 191v676h-127v100h127v227l250 58v-285h285v-100h-285v-664q0 -67 41 -114q40 -46 104 -46q46 0 86 25t54 63z" />
    <glyph glyph-name="u" unicode="u" horiz-adv-x="1341" 
d="M897 324v661l250 49v-1034h-250v186q-52 -91 -151 -149q-99 -57 -214 -57q-153 0 -253 97q-101 98 -101 247v661l250 49v-712q0 -85 56 -144t141 -59q81 0 158 56q75 55 114 149z" />
    <glyph glyph-name="v" unicode="v" horiz-adv-x="1107" 
d="M633 324l299 700h127l-449 -1024h-96l-448 1024h264z" />
    <glyph glyph-name="w" unicode="w" horiz-adv-x="1734" 
d="M1260 322l301 702h127l-449 -1024h-96l-266 606l-267 -606h-96l-448 1024h264l303 -700l180 430l-119 270h262z" />
    <glyph glyph-name="x" unicode="x" horiz-adv-x="1083" 
d="M651 557l363 -557h-273l-245 377l-248 -377h-139l323 477l-356 547h272l240 -367l241 367h140z" />
    <glyph glyph-name="y" unicode="y" horiz-adv-x="1107" 
d="M637 332l295 692h127l-596 -1358q-59 -137 -209 -137q-73 0 -128 47q-54 46 -54 111q0 47 32.5 78.5t79.5 31.5q45 0 76 -31.5t31 -78.5q0 -36 -19 -64q61 6 90 68l148 344l-436 989h264z" />
    <glyph glyph-name="z" unicode="z" horiz-adv-x="1077" 
d="M150 1024h819v-33l-539 -891h535v-100h-846v33l536 891h-505v100z" />
    <glyph glyph-name="braceleft" unicode="{" horiz-adv-x="772" 
d="M659 1495v-90q-225 11 -225 -170q0 -57 51 -185q50 -129 50 -204q0 -166 -148 -232q146 -66 148 -231q0 -75 -50 -204q-51 -127 -51 -183q0 -182 225 -172v-90q-193 -13 -320 54q-128 69 -128 210q0 67 50 208t50 216q0 66 -34.5 104.5t-94.5 38.5h-51v99h51
q59 0 94 38.5t35 104.5q0 75 -50 216t-50 208q0 141 128 210q128 68 320 54z" />
    <glyph glyph-name="bar" unicode="|" horiz-adv-x="575" 
d="M342 -266h-109v1761h109v-1761z" />
    <glyph glyph-name="braceright" unicode="}" horiz-adv-x="772" 
d="M590 664h51v-99h-51q-59 0 -94 -39t-35 -104q0 -75 50 -216t50 -208q0 -141 -128 -210t-320 -54v90q225 -10 225 172q0 54 -50 183t-50 204q0 167 147 231q-147 66 -147 232q0 75 50 204t50 185q0 181 -225 170v90q193 13 321 -54q127 -69 127 -210q0 -67 -50 -208
t-50 -216q0 -66 35 -104.5t94 -38.5z" />
    <glyph glyph-name="asciitilde" unicode="~" horiz-adv-x="1245" 
d="M819 426q-75 0 -209 89t-198 89q-58 0 -99 -44t-41 -114h-104q0 158 73 258q72 99 183 99q77 0 211 -89t196 -89q61 0 101.5 44t40.5 113h102q0 -157 -71 -257q-72 -99 -185 -99z" />
    <glyph glyph-name="exclamdown" unicode="&#xa1;" horiz-adv-x="575" 
d="M400 765q-43 -46 -111 -46q-67 0 -114 47q-46 46 -46 113q0 65 46 110q47 45 114 45t111 -45q44 -46 44 -110q0 -67 -44 -114zM395 -378q-43 -42 -106 -42q-64 0 -107 42t-43 108q0 29 51 305q50 276 54 514h90q4 -238 54 -514q50 -280 50 -305q0 -66 -43 -108z" />
    <glyph glyph-name="cent" unicode="&#xa2;" horiz-adv-x="1228" 
d="M1020 227l63 -65q-45 -80 -149 -131q-105 -51 -240 -51q-27 0 -45 2l-24 -166h-88l26 180q-178 40 -291 184q-114 142 -114 332q0 225 157 379q156 153 379 153h23l24 164h88l-26 -174q124 -26 198 -95q74 -71 74 -165q0 -45 -28.5 -74.5t-71.5 -29.5q-47 0 -78 29.5
t-31 74.5q0 61 56 90q-46 56 -134 64l-120 -819q43 -11 96 -13q81 0 151 36t105 95zM408 512q0 -270 176 -371l116 785q-138 -20 -214 -129q-78 -109 -78 -285z" />
    <glyph glyph-name="sterling" unicode="&#xa3;" horiz-adv-x="1222" 
d="M424 168h670v-168h-930v55q97 62 158 175t61 225q0 84 -37 192h-194v98h159l-6 17q-82 224 -82 325q0 160 128 264q127 103 321 103q174 0 289 -87q114 -87 114 -218q0 -53 -37 -89t-92 -36q-53 0 -88 36t-35 89q0 94 86 121q-66 66 -182 65q-112 0 -183 -59t-71 -158
q0 -98 70 -293q0 -1 12 -35.5t14 -44.5h346v-98h-321q12 -53 12 -104q0 -247 -182 -375z" />
    <glyph glyph-name="currency" unicode="&#xa4;" horiz-adv-x="1226" 
d="M1057 1006l-129 -129q82 -100 82 -242q0 -140 -80 -240l127 -127l-53 -53l-125 125q-107 -90 -260 -90q-154 0 -267 92l-127 -127l-53 53l127 127q-82 103 -82 238q0 137 84 244l-129 129l53 53l129 -129q110 94 265 94q154 0 260 -94l125 129zM618 362q119 0 190 74
t71 197q0 125 -71 202q-70 76 -190 76q-122 0 -195 -76q-75 -77 -75 -202q0 -123 74 -197t196 -74z" />
    <glyph glyph-name="yen" unicode="&#xa5;" horiz-adv-x="1380" 
d="M1157 1434h117l-428 -770h233v-99h-260v-157h260v-101h-260v-307h-250v307h-258v101h258v157h-258v99h232l-428 770h270l387 -707z" />
    <glyph glyph-name="brokenbar" unicode="&#xa6;" horiz-adv-x="575" 
d="M342 717h-109v778h109v-778zM342 -266h-109v778h109v-778z" />
    <glyph glyph-name="section" unicode="&#xa7;" horiz-adv-x="1128" 
d="M682 295q127 -64 193 -133q67 -70 67 -185q0 -140 -106 -222q-107 -83 -273 -83q-157 0 -266 70q-111 70 -111 172v2q0 49 32 80t81 31t81 -32t32 -79q0 -65 -50 -94q70 -49 166 -49q106 0 170 42t64 109q0 54 -41 104q-40 47 -86 75q-57 32 -129 67q-72 34 -114 60
q-46 26 -95 67q-104 83 -104 221q0 114 69 195.5t193 117.5q-119 61 -188 134q-68 71 -68 186q0 131 107 217t265 86q137 0 232 -63q94 -64 94 -156v-2q0 -48 -30.5 -79.5t-78.5 -31.5q-51 0 -84.5 32t-33.5 79q0 57 45 90q-56 31 -129 31q-89 0 -148 -41t-59 -109
q0 -53 39 -101t72 -69q27 -19 116 -67q18 -12 25 -15q71 -36 117 -62q34 -22 93 -68q101 -83 101 -220q0 -115 -67.5 -193t-192.5 -114zM373 588q0 -72 49 -127t153 -111q87 16 137 66.5t50 124.5t-48.5 127t-154.5 110q-86 -18 -136 -67.5t-50 -122.5z" />
    <glyph glyph-name="dieresis" unicode="&#xa8;" horiz-adv-x="643" 
d="M206 1211q-35 -33 -85 -33q-51 0 -86 33q-35 32 -35 81q0 51 35 86t88 35q51 0 84 -33.5t33 -84.5q0 -53 -34 -84zM609 1211q-35 -33 -85 -33q-52 0 -86 33q-35 32 -35 84q0 51 35 84.5t88 33.5q51 0 84 -33.5t33 -84.5q0 -53 -34 -84z" />
    <glyph glyph-name="copyright" unicode="&#xa9;" horiz-adv-x="1775" 
d="M891 1454q315 0 525 -210t210 -525q0 -317 -210 -528t-525 -211q-317 0 -528 211q-211 210 -211 528q0 315 211 525t528 210zM891 76q269 0 451 183q180 183 180 460q0 274 -180 457q-182 182 -451 182q-273 0 -454 -183q-183 -185 -183 -456q0 -276 183 -459
q181 -184 454 -184zM1044 924q0 50 39 75q-43 27 -104 27q-130 0 -206 -82q-77 -83 -77 -219q0 -137 78 -220t207 -83q67 0 122 26t79 68l55 -59q-31 -61 -114 -100q-81 -40 -189 -40q-189 0 -310 118q-122 119 -122 290q0 174 123 291t303 117q131 0 220 -62
q89 -63 89 -147q0 -41 -26.5 -69t-65.5 -28q-45 0 -73 27.5t-28 69.5z" />
    <glyph glyph-name="ordfeminine" unicode="&#xaa;" horiz-adv-x="819" 
d="M418 1454q122 0 201 -63q79 -64 79 -158v-402h-153v74q-86 -86 -217 -86q-88 0 -147 48q-60 48 -60 120q0 79 73 128q73 50 183 50q106 0 168 -32v90q0 68 -42 107.5t-116 39.5q-46 0 -78 -16q15 -18 17 -49q0 -33 -21.5 -55.5t-54.5 -22.5q-37 0 -59.5 21.5t-22.5 56.5
q0 63 72 106q71 43 178 43zM406 913q83 0 139 62v94q-43 27 -111 27q-71 0 -112 -27t-41 -70q0 -39 35 -62.5t90 -23.5z" />
    <glyph glyph-name="guillemotleft" unicode="&#xab;" horiz-adv-x="1087" 
d="M295 553q70 -64 139 -167q66 -100 96 -191l-77 -29q-51 81 -158 186q-113 109 -221 189v24q116 85 221 190q108 107 158 185l77 -29q-32 -93 -97 -191q-67 -102 -138 -167zM743 553q73 -67 138 -166q66 -102 98 -192l-80 -29q-52 81 -158 187q-104 102 -219 188v24
q111 83 219 189q108 108 158 186l80 -29q-32 -90 -98 -192q-65 -99 -138 -166z" />
    <glyph glyph-name="registered" unicode="&#xae;" horiz-adv-x="927" 
d="M219 1356q98 98 246 98q146 0 246 -98q98 -100 98 -244q0 -146 -98 -246q-99 -100 -246 -100q-149 0 -246 100q-98 100 -98 246q0 144 98 244zM267 907q79 -82 198 -82t197 82q77 83 77 205q0 120 -77 202q-78 81 -197 81t-198 -81q-79 -80 -79 -202q0 -123 79 -205z
M629 1190q0 -80 -78 -105l98 -139h-100l-88 133h-45v-133h-88v350h186q49 0 82 -30.5t33 -75.5zM481 1241h-65v-106h65q52 0 54 53q0 24 -14.5 38.5t-39.5 14.5z" />
    <glyph glyph-name="overscore" unicode="&#xaf;" horiz-adv-x="512" 
d="M512 1243h-512v156h512v-156z" />
    <glyph glyph-name="degree" unicode="&#xb0;" horiz-adv-x="710" 
d="M526 1052q-67 -67 -169 -67q-103 0 -169 67q-67 66 -67 169q0 99 68 167q67 66 168 66t168 -66q67 -67 67 -167q0 -101 -66 -169zM356 1065q63 0 107 44q43 43 43 112q0 67 -43 110t-107 43q-66 0 -108 -44q-43 -43 -43 -109q0 -68 42.5 -112t108.5 -44z" />
    <glyph glyph-name="plusminus" unicode="&#xb1;" horiz-adv-x="1157" 
d="M631 1024v-360h356v-99h-356v-360h-105v360h-358v99h358v360h105zM987 0h-819v100h819v-100z" />
    <glyph glyph-name="uni00B2" unicode="&#xb2;" horiz-adv-x="995" 
d="M563 1061l-153 -139h372v-144h-561v33l211 266q58 74 82 110q32 47 55 103q25 59 25 115q0 72 -37 110.5t-104 38.5q-65 0 -109 -36q53 -23 53 -84q0 -39 -25.5 -65t-64.5 -26q-41 0 -67.5 26t-26.5 65q0 90 79 154q80 63 202 63q121 0 204 -65q82 -66 82 -163
q0 -93 -51 -177t-166 -185z" />
    <glyph glyph-name="uni00B3" unicode="&#xb3;" horiz-adv-x="1019" 
d="M647 1227q75 -31 117.5 -88.5t42.5 -128.5q0 -106 -86 -175q-85 -69 -223 -69q-126 0 -205 54q-80 54 -80 138q0 39 26.5 65t67.5 26q39 0 64.5 -26t25.5 -65q0 -54 -43 -79q46 -23 109 -23q78 0 122 42t44 116q0 78 -46 126t-122 48h-84v74h84q66 0 105.5 43t39.5 112
q0 66 -39 105t-106 39q-55 0 -96 -23q45 -26 45 -80q0 -39 -26 -64.5t-65 -25.5q-41 0 -67.5 25.5t-26.5 64.5q0 83 77 139q76 54 198 54q124 0 204 -63q78 -64 78 -165q0 -129 -135 -196z" />
    <glyph glyph-name="acute" unicode="&#xb4;" horiz-adv-x="409" 
d="M410 1468l-306 -282h-104l109 282h301z" />
    <glyph glyph-name="paragraph" unicode="&#xb6;" horiz-adv-x="1325" 
d="M655 1434h484v-101h-107v-1661h-106v1661h-140v-1661h-106v828h-25q-202 0 -335 133q-134 134 -134 334q0 201 135 334q133 133 334 133z" />
    <glyph glyph-name="middot" unicode="&#xb7;" horiz-adv-x="651" 
d="M439 443q-44 -44 -111 -44t-114 44q-46 43 -46 112q0 66 46 112t114 46t111 -45q44 -46 44 -113q0 -68 -44 -112z" />
    <glyph glyph-name="cedilla" unicode="&#xb8;" horiz-adv-x="411" 
d="M221 -102q82 0 137 -49q54 -48 54 -119q0 -78 -65 -129q-67 -50 -163 -50q-116 0 -184 74l47 64q44 -39 109 -39q49 0 78.5 23.5t29.5 62.5q0 36 -25.5 60t-62.5 24q-53 0 -76 -35l-57 37l115 188h110l-84 -116q23 4 37 4z" />
    <glyph glyph-name="uni00B9" unicode="&#xb9;" horiz-adv-x="778" 
d="M444 1638h121v-860h-182v707q-63 -60 -162 -82l-8 84q62 17 128 59q67 44 103 92z" />
    <glyph glyph-name="ordmasculine" unicode="&#xba;" horiz-adv-x="921" 
d="M704 910q-97 -91 -243 -91t-243 91t-97 227q0 135 97 226t243 91t243 -91t97 -226q0 -136 -97 -227zM329 966q48 -63 132 -63t132 63q48 62 48 171q0 108 -48 171q-48 62 -132 62t-132 -62q-48 -63 -48 -171q0 -109 48 -171z" />
    <glyph glyph-name="guillemotright" unicode="&#xbb;" horiz-adv-x="1087" 
d="M565 565v-24q-117 -87 -218 -188q-105 -105 -159 -187l-79 29q32 90 98 192q63 98 137 166q-74 68 -137 166q-67 102 -98 192l79 29q51 -80 159 -186q105 -105 218 -189zM557 911l78 29q52 -82 158 -185q105 -105 221 -190v-24q-114 -84 -221 -189t-158 -186l-78 29
q33 94 98 191q67 102 138 167q-71 65 -138 167q-65 97 -98 191z" />
    <glyph glyph-name="onequarter" unicode="&#xbc;" horiz-adv-x="2134" 
d="M565 1434v-861h-182v707q-63 -60 -162 -82l-8 84q62 17 128 59q67 43 103 93h121zM539 0l921 1434h113l-922 -1434h-112zM1800 297h121v-82h-121v-215h-180v215h-391v47l420 598h151v-563zM1620 686l-272 -389h272v389z" />
    <glyph glyph-name="onehalf" unicode="&#xbd;" horiz-adv-x="2215" 
d="M565 1434v-861h-182v707q-63 -60 -162 -82l-8 84q62 17 128 59q67 43 103 93h121zM539 0l921 1434h113l-922 -1434h-112zM1784 283l-154 -140h373v-143h-561v33l211 266q58 74 82 110q29 42 54 102q26 61 26 116q0 72 -37 110.5t-105 38.5q-67 0 -108 -37q53 -23 53 -84
q0 -39 -25.5 -64.5t-64.5 -25.5q-41 0 -67.5 25.5t-26.5 64.5q0 90 79 154q78 63 201 63q122 0 205 -65q82 -66 82 -162q0 -92 -51.5 -176t-165.5 -186z" />
    <glyph glyph-name="threequarters" unicode="&#xbe;" horiz-adv-x="2254" 
d="M807 805q0 -106 -86 -175q-85 -69 -223 -69q-126 0 -205 55q-80 54 -80 138q0 39 26.5 64.5t67.5 25.5q39 0 64.5 -25.5t25.5 -64.5q0 -53 -43 -80q46 -23 109 -23q78 0 122 42t44 116q0 78 -46 126t-122 48h-84v74h84q66 0 105.5 43t39.5 112q0 66 -39 105t-106 39
q-55 0 -96 -23q45 -25 45 -80q0 -39 -26 -64.5t-65 -25.5q-41 0 -67.5 25.5t-26.5 64.5q0 83 77 139q76 54 198 54q124 0 204 -63q78 -65 78 -164q0 -129 -135 -197q75 -31 117.5 -88t42.5 -129zM659 0l922 1434h113l-922 -1434h-113zM1921 297h121v-82h-121v-215h-180v215
h-391v47l419 598h152v-563zM1741 686l-273 -389h273v389z" />
    <glyph glyph-name="questiondown" unicode="&#xbf;" horiz-adv-x="1030" 
d="M518 719q-66 0 -111 47t-45 113q0 65 46 110q45 45 110 45q68 0 114 -45t46 -110q0 -67 -46 -113q-47 -47 -114 -47zM811 12q61 0 100 -36.5t39 -94.5q0 -133 -126 -222q-127 -89 -308 -89q-183 0 -305 92q-121 91 -121 234q0 74 37 143t98 121q21 19 112 95
q134 109 134 220v74h102v-92q0 -64 -37 -134t-82 -124q-47 -58 -82 -130q-38 -78 -38 -155q0 -105 67 -167t181 -62q122 0 192 67q-42 12 -67 47t-25 82q0 57 37 94t92 37z" />
    <glyph glyph-name="Agrave" unicode="&#xc0;" horiz-adv-x="1527" 
d="M741 1858l109 -283h-105l-305 283h301zM1440 0h-264l-164 377h-635l-162 -377h-127l629 1434h96zM694 1110l-274 -635h549z" />
    <glyph glyph-name="Aacute" unicode="&#xc1;" horiz-adv-x="1527" 
d="M788 1858h302l-306 -283h-104zM1440 0h-264l-164 377h-635l-162 -377h-127l629 1434h96zM694 1110l-274 -635h549z" />
    <glyph glyph-name="Acircumflex" unicode="&#xc2;" horiz-adv-x="1527" 
d="M1004 1565l-238 141l-238 -141l-57 57l254 248h82l254 -248zM1440 0h-264l-164 377h-635l-162 -377h-127l629 1434h96zM694 1110l-274 -635h549z" />
    <glyph glyph-name="Atilde" unicode="&#xc3;" horiz-adv-x="1527" 
d="M635 1708q-90 0 -96 -121h-97q0 118 55 191q54 73 142 73q69 0 145 -65q74 -66 111 -66q41 0 66.5 33t29.5 88h96q0 -118 -55 -189q-55 -73 -143 -73q-74 0 -145 65q-71 64 -109 64zM1440 0h-264l-164 377h-635l-162 -377h-127l629 1434h96zM694 1110l-274 -635h549z" />
    <glyph glyph-name="Adieresis" unicode="&#xc4;" horiz-adv-x="1527" 
d="M648 1600q-34 -33 -85 -33t-86 33q-35 32 -35 81q0 51 35 86t88 35q51 0 84 -33.5t33 -84.5q0 -53 -34 -84zM1052 1600q-34 -33 -85 -33t-86 33q-35 32 -35 84q0 51 34.5 84.5t88.5 33.5q51 0 83.5 -33.5t32.5 -84.5q0 -52 -33 -84zM1440 0h-264l-164 377h-635l-162 -377
h-127l629 1434h96zM694 1110l-274 -635h549z" />
    <glyph glyph-name="Aring" unicode="&#xc5;" horiz-adv-x="1527" 
d="M768 1542q-77 0 -127 49q-51 49 -51 121q0 74 51 124q52 50 127 50q74 0 122 -50t48 -124q0 -72 -48 -121t-122 -49zM768 1810q-43 0 -70.5 -27t-27.5 -71q0 -42 27.5 -68t70.5 -26q41 0 65.5 25.5t24.5 68.5q0 45 -24.5 71.5t-65.5 26.5zM1440 0h-264l-164 377h-635
l-162 -377h-127l629 1434h96zM694 1110l-274 -635h549z" />
    <glyph glyph-name="AE" unicode="&#xc6;" horiz-adv-x="1992" 
d="M1145 678v-578h739v-100h-989v412h-496l-237 -412h-129l833 1434h998v-101h-719v-557h555v-98h-555zM895 1270l-438 -760h438v760z" />
    <glyph glyph-name="Ccedilla" unicode="&#xc7;" horiz-adv-x="1585" 
d="M1399 330l65 -68q-63 -118 -204 -195q-145 -78 -322 -85l-64 -88q23 4 37 4q82 0 137 -49q54 -48 54 -119q0 -78 -65 -129q-67 -50 -163 -50q-116 0 -184 74l47 64q43 -39 109 -39q49 0 78.5 23.5t29.5 62.5q0 36 -25.5 60t-62.5 24q-52 0 -75 -35l-58 37l98 160
q-301 22 -501 230q-201 206 -201 505q0 311 218 524q217 213 544 213q237 0 400 -110q161 -111 161 -261v-4q0 -55 -38 -92t-95 -37q-59 0 -98 38t-39 95q0 47 27.5 82t70.5 47q-96 123 -315 123q-263 0 -421 -167q-157 -166 -157 -449q0 -288 157 -454q156 -167 417 -167
q145 0 260 61.5t178 170.5z" />
    <glyph glyph-name="Egrave" unicode="&#xc8;" horiz-adv-x="1357" 
d="M733 1858l109 -283h-105l-305 283h301zM463 678v-578h786v-100h-1036v1434h1016v-101h-766v-557h602v-98h-602z" />
    <glyph glyph-name="Eacute" unicode="&#xc9;" horiz-adv-x="1357" 
d="M780 1858h301l-305 -283h-104zM463 678v-578h786v-100h-1036v1434h1016v-101h-766v-557h602v-98h-602z" />
    <glyph glyph-name="Ecircumflex" unicode="&#xca;" horiz-adv-x="1357" 
d="M993 1565l-237 141l-238 -141l-57 57l254 248h82l254 -248zM463 678v-578h786v-100h-1036v1434h1016v-101h-766v-557h602v-98h-602z" />
    <glyph glyph-name="Edieresis" unicode="&#xcb;" horiz-adv-x="1357" 
d="M640 1600q-34 -33 -85 -33t-86 33q-35 32 -35 81q0 51 35 86t88 35q51 0 84 -33.5t33 -84.5q0 -53 -34 -84zM1044 1600q-34 -33 -85 -33t-86 33q-35 32 -35 84q0 51 34.5 84.5t88.5 33.5q51 0 83.5 -33.5t32.5 -84.5q0 -52 -33 -84zM463 678v-578h786v-100h-1036v1434
h1016v-101h-766v-557h602v-98h-602z" />
    <glyph glyph-name="Igrave" unicode="&#xcc;" horiz-adv-x="677" 
d="M424 1575h-105l-305 283h301zM463 0h-250v1434h250v-1434z" />
    <glyph glyph-name="Iacute" unicode="&#xcd;" horiz-adv-x="677" 
d="M664 1858l-306 -283h-104l108 283h302zM463 0h-250v1434h250v-1434z" />
    <glyph glyph-name="Icircumflex" unicode="&#xce;" horiz-adv-x="677" 
d="M299 1870h82l254 -248l-57 -57l-238 141l-238 -141l-57 57zM463 0h-250v1434h250v-1434z" />
    <glyph glyph-name="Idieresis" unicode="&#xcf;" horiz-adv-x="677" 
d="M222 1600q-35 -33 -85 -33q-51 0 -86 33q-35 32 -35 81q0 51 35 86t88 35q51 0 84 -33.5t33 -84.5q0 -53 -34 -84zM626 1600q-34 -33 -85 -33t-86 33q-35 32 -35 84q0 51 34.5 84.5t88.5 33.5q51 0 83.5 -33.5t32.5 -84.5q0 -52 -33 -84zM463 0h-250v1434h250v-1434z" />
    <glyph glyph-name="Eth" unicode="&#xd0;" horiz-adv-x="1675" 
d="M213 1434h559q332 0 553 -206t221 -511t-221 -511t-553 -206h-559v668h-129v98h129v668zM463 100h280q246 0 396 169q149 170 149 448q0 277 -149 447q-150 169 -396 169h-280v-567h221v-98h-221v-568z" />
    <glyph glyph-name="Ntilde" unicode="&#xd1;" horiz-adv-x="1622" 
d="M709 1708q-90 0 -97 -121h-96q0 118 55 191q54 73 142 73q69 0 145 -65q74 -66 111 -66q41 0 66.5 33t29.5 88h96q0 -118 -55 -189q-55 -73 -143 -73q-74 0 -145 65q-71 64 -109 64zM1300 393v1041h107v-1434h-70l-1015 1126v-1126h-109v1434h154z" />
    <glyph glyph-name="Ograve" unicode="&#xd2;" horiz-adv-x="1771" 
d="M971 1575h-105l-305 283h301zM1426 191q-215 -211 -539 -211t-541 211q-217 210 -217 526q0 315 217 526t541 211t539 -211q216 -211 216 -526q0 -316 -216 -526zM525 254q137 -174 362 -174t361 174q136 173 136 463t-136 463q-136 174 -361 174t-362 -174
q-138 -174 -138 -463t138 -463z" />
    <glyph glyph-name="Oacute" unicode="&#xd3;" horiz-adv-x="1771" 
d="M1210 1858l-305 -283h-104l108 283h301zM1426 191q-215 -211 -539 -211t-541 211q-217 210 -217 526q0 315 217 526t541 211t539 -211q216 -211 216 -526q0 -316 -216 -526zM525 254q137 -174 362 -174t361 174q136 173 136 463t-136 463q-136 174 -361 174t-362 -174
q-138 -174 -138 -463t138 -463z" />
    <glyph glyph-name="Ocircumflex" unicode="&#xd4;" horiz-adv-x="1771" 
d="M1124 1565l-237 141l-238 -141l-57 57l254 248h82l254 -248zM346 1243q217 211 541 211t539 -211q216 -211 216 -526q0 -316 -216 -526q-215 -211 -539 -211t-541 211q-217 210 -217 526q0 315 217 526zM525 254q137 -174 362 -174t361 174q136 173 136 463t-136 463
q-136 174 -361 174t-362 -174q-138 -174 -138 -463t138 -463z" />
    <glyph glyph-name="Otilde" unicode="&#xd5;" horiz-adv-x="1771" 
d="M1010 1579q-39 -2 -79 18t-67 45.5t-57 46t-51 19.5q-90 0 -97 -121h-96q0 118 55 191q54 73 142 73q69 0 145 -65q73 -66 111 -66q41 0 66.5 33t29.5 88h96q0 -118 -55 -189q-55 -73 -143 -73zM1426 191q-215 -211 -539 -211t-541 211q-217 210 -217 526q0 315 217 526
t541 211t539 -211q216 -211 216 -526q0 -316 -216 -526zM525 254q137 -174 362 -174t361 174q136 173 136 463t-136 463q-136 174 -361 174t-362 -174q-138 -174 -138 -463t138 -463z" />
    <glyph glyph-name="Odieresis" unicode="&#xd6;" horiz-adv-x="1771" 
d="M769 1600q-35 -33 -85 -33q-52 0 -86 33q-35 32 -35 81q0 51 35 86t88 35q51 0 84 -33.5t33 -84.5q0 -53 -34 -84zM1173 1600q-35 -33 -85 -33q-52 0 -86 33q-35 32 -35 84q0 51 34.5 84.5t88.5 33.5q51 0 83.5 -33.5t32.5 -84.5q0 -52 -33 -84zM1426 191
q-215 -211 -539 -211t-541 211q-217 210 -217 526q0 315 217 526t541 211t539 -211q216 -211 216 -526q0 -316 -216 -526zM525 254q137 -174 362 -174t361 174q136 173 136 463t-136 463q-136 174 -361 174t-362 -174q-138 -174 -138 -463t138 -463z" />
    <glyph glyph-name="multiply" unicode="&#xd7;" horiz-adv-x="989" 
d="M748 940l71 -72l-254 -254l254 -254l-71 -71l-254 254l-254 -254l-72 71l254 254l-254 254l72 72l254 -254z" />
    <glyph glyph-name="Oslash" unicode="&#xd8;" horiz-adv-x="1771" 
d="M1518 1454l-136 -172q124 -100 192 -247t68 -318q0 -315 -216 -526q-215 -211 -539 -211q-241 0 -426 120l-94 -120h-113l135 172q-124 100 -192 247t-68 318q0 315 217 526t541 211q240 0 424 -121l94 121h113zM387 717q0 -258 111 -426l721 923q-133 139 -332 140
q-225 0 -362 -174q-138 -174 -138 -463zM887 80q225 0 361 174q136 173 136 463q0 257 -110 426l-721 -924q133 -139 334 -139z" />
    <glyph glyph-name="Ugrave" unicode="&#xd9;" horiz-adv-x="1613" 
d="M926 1575h-105l-305 283h301zM840 -20q-281 0 -461 162q-180 161 -180 425v867h250v-899q0 -193 120 -308q119 -116 320 -116q194 0 306 115q112 113 112 309v899h108v-906q0 -250 -153 -399q-155 -149 -422 -149z" />
    <glyph glyph-name="Uacute" unicode="&#xda;" horiz-adv-x="1613" 
d="M1165 1858l-305 -283h-104l108 283h301zM840 -20q-281 0 -461 162q-180 161 -180 425v867h250v-899q0 -193 120 -308q119 -116 320 -116q194 0 306 115q112 113 112 309v899h108v-906q0 -250 -153 -399q-155 -149 -422 -149z" />
    <glyph glyph-name="Ucircumflex" unicode="&#xdb;" horiz-adv-x="1613" 
d="M1079 1565l-237 141l-238 -141l-57 57l254 248h82l254 -248zM1307 535v899h108v-906q0 -250 -153 -399q-155 -149 -422 -149q-281 0 -461 162q-180 161 -180 425v867h250v-899q0 -193 120 -308q119 -116 320 -116q194 0 306 115q112 113 112 309z" />
    <glyph glyph-name="Udieresis" unicode="&#xdc;" horiz-adv-x="1613" 
d="M724 1600q-34 -33 -85 -33t-86 33q-35 32 -35 81q0 51 35 86t88 35q51 0 84 -33.5t33 -84.5q0 -53 -34 -84zM1128 1600q-34 -33 -85 -33t-86 33q-35 32 -35 84q0 51 34.5 84.5t87.5 33.5q51 0 84 -33.5t33 -84.5q0 -52 -33 -84zM840 -20q-281 0 -461 162
q-180 161 -180 425v867h250v-899q0 -193 120 -308q119 -116 320 -116q194 0 306 115q112 113 112 309v899h108v-906q0 -250 -153 -399q-155 -149 -422 -149z" />
    <glyph glyph-name="Yacute" unicode="&#xdd;" horiz-adv-x="1464" 
d="M756 1858h301l-305 -283h-105zM805 731l440 703h131l-518 -820v-614h-250v614l-520 820h274z" />
    <glyph glyph-name="Thorn" unicode="&#xde;" horiz-adv-x="1427" 
d="M463 1143h368q212 0 357 -119q143 -119 143 -297t-143 -297q-145 -119 -357 -119h-368v-311h-250v1434h250v-291zM463 412h295q143 0 229 86t86 229t-86 229t-229 86h-295v-630z" />
    <glyph glyph-name="germandbls" unicode="&#xdf;" horiz-adv-x="1345" 
d="M995 627q56 -31 89 -51q33 -21 87 -65q103 -86 103 -222q0 -138 -106 -223q-107 -86 -275 -86q-146 0 -246 65q-100 64 -100 158v2q0 48 32 78t83 30q45 0 75.5 -30.5t30.5 -77.5q0 -55 -45 -90q59 -39 143 -39t131 38t47 99q0 120 -184 211q-19 10 -44.5 24t-31.5 17
q-27 14 -70 47q-45 34 -67 62q-61 72 -61 163t43 152q44 62 119 121q3 2 16.5 13t24.5 19q29 22 41 32q10 9 31 31q27 28 36.5 53t13.5 71q0 76 -56 121t-148 45q-120 0 -197 -77q-76 -76 -76 -200v-1118h-250v1047q0 190 143 319t349 129q155 0 256 -74q100 -75 100 -190
q0 -68 -34 -118.5t-105 -106.5q-29 -22 -56 -47q-22 -22 -37 -52q-18 -33 -18 -69q0 -48 33 -89q33 -40 68 -60q43 -26 112 -62z" />
    <glyph glyph-name="agrave" unicode="&#xe0;" horiz-adv-x="1275" 
d="M618 1468l109 -282h-104l-306 282h301zM621 1044q209 0 345 -105t136 -265v-674h-250v133q-62 -68 -162 -110q-101 -43 -211 -43q-150 0 -254 83t-104 205q0 126 122 212q121 85 308 85q200 0 301 -65v182q0 117 -73 189q-74 71 -197 71q-109 0 -181 -45q47 -38 48 -98
q0 -53 -35 -89t-88 -36q-55 0 -93 35.5t-38 89.5q0 105 124 175t302 70zM590 121q78 0 148.5 32.5t113.5 86.5v163q-72 58 -221 60q-119 0 -185.5 -46t-66.5 -128q0 -75 59 -122q58 -46 152 -46z" />
    <glyph glyph-name="aacute" unicode="&#xe1;" horiz-adv-x="1275" 
d="M666 1468h301l-305 -282h-105zM621 1044q209 0 345 -105t136 -265v-674h-250v133q-62 -68 -162 -110q-101 -43 -211 -43q-150 0 -254 83t-104 205q0 126 122 212q121 85 308 85q200 0 301 -65v182q0 117 -73 189q-74 71 -197 71q-109 0 -181 -45q47 -38 48 -98
q0 -53 -35 -89t-88 -36q-55 0 -93 35.5t-38 89.5q0 105 124 175t302 70zM590 121q78 0 148.5 32.5t113.5 86.5v163q-72 58 -221 60q-119 0 -185.5 -46t-66.5 -128q0 -75 59 -122q58 -46 152 -46z" />
    <glyph glyph-name="acircumflex" unicode="&#xe2;" horiz-adv-x="1275" 
d="M881 1176l-238 141l-237 -141l-58 57l254 248h82l254 -248zM621 1044q209 0 345 -105t136 -265v-674h-250v133q-62 -68 -162 -110q-101 -43 -211 -43q-150 0 -254 83t-104 205q0 126 122 212q121 85 308 85q200 0 301 -65v182q0 117 -73 189q-74 71 -197 71
q-109 0 -181 -45q47 -38 48 -98q0 -53 -35 -89t-88 -36q-55 0 -93 35.5t-38 89.5q0 105 124 175t302 70zM590 121q78 0 148.5 32.5t113.5 86.5v163q-72 58 -221 60q-119 0 -185.5 -46t-66.5 -128q0 -75 59 -122q58 -46 152 -46z" />
    <glyph glyph-name="atilde" unicode="&#xe3;" horiz-adv-x="1275" 
d="M512 1319q-90 0 -96 -121h-97q0 118 55 191q54 73 142 73q69 0 145 -65q73 -66 111 -66q41 0 66.5 33t29.5 88h97q0 -118 -55 -189q-55 -73 -144 -73q-71 0 -144 65q-73 64 -110 64zM621 1044q209 0 345 -105t136 -265v-674h-250v133q-62 -68 -162 -110
q-101 -43 -211 -43q-150 0 -254 83t-104 205q0 126 122 212q121 85 308 85q200 0 301 -65v182q0 117 -73 189q-74 71 -197 71q-109 0 -181 -45q47 -38 48 -98q0 -53 -35 -89t-88 -36q-55 0 -93 35.5t-38 89.5q0 105 124 175t302 70zM590 121q78 0 148.5 32.5t113.5 86.5v163
q-72 58 -221 60q-119 0 -185.5 -46t-66.5 -128q0 -75 59 -122q58 -46 152 -46z" />
    <glyph glyph-name="adieresis" unicode="&#xe4;" horiz-adv-x="1275" 
d="M526 1211q-34 -33 -85 -33q-53 0 -87 33q-35 32 -35 81q0 51 35 86t88 35q51 0 84 -33.5t33 -84.5q0 -53 -33 -84zM929 1211q-35 -33 -85 -33q-52 0 -86 33q-35 32 -35 84q0 51 35 84.5t88 33.5q51 0 84 -33.5t33 -84.5q0 -53 -34 -84zM621 1044q209 0 345 -105t136 -265
v-674h-250v133q-62 -68 -162 -110q-101 -43 -211 -43q-150 0 -254 83t-104 205q0 126 122 212q121 85 308 85q200 0 301 -65v182q0 117 -73 189q-74 71 -197 71q-109 0 -181 -45q47 -38 48 -98q0 -53 -35 -89t-88 -36q-55 0 -93 35.5t-38 89.5q0 105 124 175t302 70z
M590 121q78 0 148.5 32.5t113.5 86.5v163q-72 58 -221 60q-119 0 -185.5 -46t-66.5 -128q0 -75 59 -122q58 -46 152 -46z" />
    <glyph glyph-name="aring" unicode="&#xe5;" horiz-adv-x="1275" 
d="M645 1153q-77 0 -127 49q-51 50 -51 121q0 75 51 124q52 50 127 50q74 0 122 -50t48 -124q0 -71 -48 -121q-48 -49 -122 -49zM645 1421q-43 0 -70.5 -27t-27.5 -71q0 -42 27.5 -68t70.5 -26q41 0 65.5 25.5t24.5 68.5q0 45 -24.5 71.5t-65.5 26.5zM621 1044
q209 0 345 -105t136 -265v-674h-250v133q-62 -68 -162 -110q-101 -43 -211 -43q-150 0 -254 83t-104 205q0 126 122 212q121 85 308 85q200 0 301 -65v182q0 117 -73 189q-74 71 -197 71q-109 0 -181 -45q47 -38 48 -98q0 -53 -35 -89t-88 -36q-55 0 -93 35.5t-38 89.5
q0 105 124 175t302 70zM590 121q78 0 148.5 32.5t113.5 86.5v163q-72 58 -221 60q-119 0 -185.5 -46t-66.5 -128q0 -75 59 -122q58 -46 152 -46z" />
    <glyph glyph-name="ae" unicode="&#xe6;" horiz-adv-x="2011" 
d="M1753 377q51 0 84 -35t33 -88q0 -117 -129 -195q-128 -79 -311 -79q-300 0 -469 210q-64 -93 -191 -151q-130 -59 -274 -59q-158 0 -266 84q-109 82 -109 204q0 126 122 212q121 85 308 85q200 0 301 -65v184q0 113 -79 186q-79 72 -208 72q-101 0 -166 -43
q48 -37 50 -100q0 -53 -35 -89t-88 -36q-55 0 -93 35.5t-38 89.5q0 105 121 175q119 70 292 70q124 0 227 -47t169 -127q164 174 393 174q211 0 350 -150q139 -151 139 -376h-776q6 -204 109.5 -316t283.5 -112q118 0 189 55q-68 35 -68 109q0 53 37 88t92 35zM1389 944
q-111 0 -185 -90t-90 -238h531q-11 152 -78 240q-69 88 -178 88zM608 123q89 0 169 41.5t128 111.5q-33 68 -45 132q-71 55 -221 55q-120 0 -190 -47t-70 -125q0 -76 64 -122q62 -46 165 -46z" />
    <glyph glyph-name="ccedilla" unicode="&#xe7;" horiz-adv-x="1208" 
d="M1018 227l63 -65q-40 -78 -146 -129q-108 -52 -241 -53l-61 -86q23 4 37 4q83 0 136 -49q54 -48 54 -119q0 -78 -65 -129q-67 -50 -162 -50q-116 0 -184 74l47 64q44 -39 108 -39q49 0 79 23.5t30 62.5q0 36 -25.5 60t-62.5 24q-53 0 -76 -35l-57 37l100 164
q-206 28 -337 176q-130 146 -130 350q0 227 159 380q158 152 396 152q169 0 281 -76t112 -194q0 -53 -34.5 -89t-86.5 -36q-57 0 -94 35.5t-37 89.5q0 82 76 115q-58 43 -149 43q-170 0 -267 -112q-98 -113 -98 -308q0 -192 101 -304q100 -112 272 -112q84 0 155.5 36
t106.5 95z" />
    <glyph glyph-name="egrave" unicode="&#xe8;" 
d="M629 1468l108 -282h-104l-305 282h301zM1024 377q51 0 84 -35t33 -88q0 -117 -128 -195q-127 -79 -311 -79q-252 0 -414 153q-163 151 -163 381q0 225 157 378q157 152 382 152q215 0 355 -150q140 -152 140 -376h-776q6 -206 106.5 -317t278.5 -111q122 0 193 57
q-66 31 -66 107q0 53 37 88t92 35zM662 944q-112 0 -186 -90q-72 -89 -89 -238h531q-10 152 -78 240q-69 88 -178 88z" />
    <glyph glyph-name="eacute" unicode="&#xe9;" 
d="M676 1468h301l-305 -282h-105zM1024 377q51 0 84 -35t33 -88q0 -117 -128 -195q-127 -79 -311 -79q-252 0 -414 153q-163 151 -163 381q0 225 157 378q157 152 382 152q215 0 355 -150q140 -152 140 -376h-776q6 -206 106.5 -317t278.5 -111q122 0 193 57q-66 31 -66 107
q0 53 37 88t92 35zM662 944q-112 0 -186 -90q-72 -89 -89 -238h531q-10 152 -78 240q-69 88 -178 88z" />
    <glyph glyph-name="ecircumflex" unicode="&#xea;" 
d="M891 1176l-238 141l-237 -141l-58 57l254 248h82l254 -248zM1024 377q51 0 84 -35t33 -88q0 -117 -128 -195q-127 -79 -311 -79q-252 0 -414 153q-163 151 -163 381q0 225 157 378q157 152 382 152q215 0 355 -150q140 -152 140 -376h-776q6 -206 106.5 -317t278.5 -111
q122 0 193 57q-66 31 -66 107q0 53 37 88t92 35zM662 944q-112 0 -186 -90q-72 -89 -89 -238h531q-10 152 -78 240q-69 88 -178 88z" />
    <glyph glyph-name="edieresis" unicode="&#xeb;" 
d="M536 1211q-35 -33 -85 -33q-51 0 -86 33q-35 32 -35 81q0 52 35 86.5t88 34.5q51 0 83.5 -33.5t32.5 -84.5q0 -53 -33 -84zM939 1211q-35 -33 -85 -33q-51 0 -86 33q-35 32 -35 84q0 51 35 84.5t88 33.5q51 0 84 -33.5t33 -84.5q0 -53 -34 -84zM1024 377q51 0 84 -35
t33 -88q0 -117 -128 -195q-127 -79 -311 -79q-252 0 -414 153q-163 151 -163 381q0 225 157 378q157 152 382 152q215 0 355 -150q140 -152 140 -376h-776q6 -206 106.5 -317t278.5 -111q122 0 193 57q-66 31 -66 107q0 53 37 88t92 35zM662 944q-112 0 -186 -90
q-72 -89 -89 -238h531q-10 152 -78 240q-69 88 -178 88z" />
    <glyph glyph-name="igrave" unicode="&#xec;" horiz-adv-x="636" 
d="M403 1186h-104l-305 282h301zM442 0h-249v985l249 49v-1034z" />
    <glyph glyph-name="iacute" unicode="&#xed;" horiz-adv-x="636" 
d="M643 1468l-305 -282h-105l109 282h301zM442 0h-249v985l249 49v-1034z" />
    <glyph glyph-name="icircumflex" unicode="&#xee;" horiz-adv-x="636" 
d="M279 1481h81l254 -248l-57 -57l-238 141l-237 -141l-57 57zM442 0h-249v985l249 49v-1034z" />
    <glyph glyph-name="idieresis" unicode="&#xef;" horiz-adv-x="636" 
d="M202 1211q-34 -33 -85 -33t-86 33q-35 32 -35 81q0 51 35 86t88 35q51 0 84 -33.5t33 -84.5q0 -53 -34 -84zM605 1211q-34 -33 -85 -33q-52 0 -86 33q-35 32 -35 84q0 51 35 84.5t88 33.5q51 0 84 -33.5t33 -84.5q0 -53 -34 -84zM442 0h-249v985l249 49v-1034z" />
    <glyph glyph-name="eth" unicode="&#xf0;" horiz-adv-x="1349" 
d="M1063 1382l-131 -71q139 -118 216 -296t77 -388q0 -307 -153 -477q-155 -170 -396 -170q-236 0 -393 153q-158 152 -158 379t158 380q158 152 389 152q159 0 266 -79q-45 169 -137 276l-183 -100l-38 71l161 88q-111 87 -262 109l13 86q211 -26 368 -131l164 90zM672 80
q135 0 215 119t80 319q0 197 -79 312q-79 114 -214 114q-133 0 -212 -115t-79 -317q0 -201 79 -316q80 -116 210 -116z" />
    <glyph glyph-name="ntilde" unicode="&#xf1;" horiz-adv-x="1349" 
d="M555 1319q-90 0 -96 -121h-97q0 118 55 191q54 73 142 73q69 0 145 -65q74 -66 111 -66q41 0 66.5 33t29.5 88h97q0 -118 -55 -189q-55 -73 -144 -73q-39 -2 -78.5 18t-66.5 45.5t-57 46t-52 19.5zM817 1044q155 0 258 -98q101 -98 101 -246v-700h-250v702q0 86 -57 145
q-58 58 -144 58q-87 0 -164 -55q-79 -56 -119 -145v-705h-249v985l249 49v-194q56 93 156 148q101 56 219 56z" />
    <glyph glyph-name="ograve" unicode="&#xf2;" horiz-adv-x="1349" 
d="M760 1186h-105l-305 282h301zM1067 133q-157 -153 -393 -153t-392 153q-157 151 -157 379q0 227 157 380q157 152 392 152t393 -152q158 -153 158 -380t-158 -379zM462 197q80 -117 212 -117q134 0 213 117q80 116 80 315q0 202 -79 317t-214 115q-133 0 -212 -115
t-79 -317q0 -200 79 -315z" />
    <glyph glyph-name="oacute" unicode="&#xf3;" horiz-adv-x="1349" 
d="M999 1468l-305 -282h-104l108 282h301zM1067 133q-157 -153 -393 -153t-392 153q-157 151 -157 379q0 227 157 380q157 152 392 152t393 -152q158 -153 158 -380t-158 -379zM462 197q80 -117 212 -117q134 0 213 117q80 116 80 315q0 202 -79 317t-214 115
q-133 0 -212 -115t-79 -317q0 -200 79 -315z" />
    <glyph glyph-name="ocircumflex" unicode="&#xf4;" horiz-adv-x="1349" 
d="M913 1176l-237 141l-238 -141l-57 57l254 248h82l254 -248zM282 892q157 152 392 152t393 -152q158 -153 158 -380t-158 -379q-157 -153 -393 -153t-392 153q-157 151 -157 379q0 227 157 380zM462 197q80 -117 212 -117q134 0 213 117q80 116 80 315q0 202 -79 317
t-214 115q-133 0 -212 -115t-79 -317q0 -200 79 -315z" />
    <glyph glyph-name="otilde" unicode="&#xf5;" horiz-adv-x="1349" 
d="M799 1190q-74 0 -145 65q-71 64 -109 64q-90 0 -96 -121h-97q0 118 55 191q54 73 142 73q69 0 145 -65q74 -66 111 -66q41 0 66.5 33t29.5 88h96q0 -118 -55 -189q-55 -73 -143 -73zM1067 133q-157 -153 -393 -153t-392 153q-157 151 -157 379q0 227 157 380
q157 152 392 152t393 -152q158 -153 158 -380t-158 -379zM462 197q80 -117 212 -117q134 0 213 117q80 116 80 315q0 202 -79 317t-214 115q-133 0 -212 -115t-79 -317q0 -200 79 -315z" />
    <glyph glyph-name="odieresis" unicode="&#xf6;" horiz-adv-x="1349" 
d="M558 1211q-34 -33 -85 -33t-86 33q-35 32 -35 81q0 51 35 86t88 35q51 0 84 -33.5t33 -84.5q0 -53 -34 -84zM962 1211q-34 -33 -85 -33t-86 33q-35 32 -35 84q0 51 34.5 84.5t88.5 33.5q51 0 83.5 -33.5t32.5 -84.5q0 -53 -33 -84zM1067 133q-157 -153 -393 -153
t-392 153q-157 151 -157 379q0 227 157 380q157 152 392 152t393 -152q158 -153 158 -380t-158 -379zM462 197q80 -117 212 -117q134 0 213 117q80 116 80 315q0 202 -79 317t-214 115q-133 0 -212 -115t-79 -317q0 -200 79 -315z" />
    <glyph glyph-name="divide" unicode="&#xf7;" horiz-adv-x="1157" 
d="M584 793q-49 0 -81 29.5t-32 74.5q0 47 32 77t81 30q43 0 72.5 -30t29.5 -77q0 -45 -29.5 -74.5t-72.5 -29.5zM987 565h-819v99h819v-99zM584 225q-49 0 -81 30t-32 77q0 45 32 74.5t81 29.5q43 0 72.5 -29.5t29.5 -74.5q0 -47 -29.5 -77t-72.5 -30z" />
    <glyph glyph-name="oslash" unicode="&#xf8;" horiz-adv-x="1349" 
d="M1147 1044l-103 -131q180 -154 181 -401q0 -227 -158 -379q-157 -153 -393 -153q-167 0 -297 79l-62 -79h-112l102 131q-180 155 -180 401q0 227 157 380q157 152 392 152q165 0 299 -79l61 79h113zM383 512q0 -146 43 -248l451 580q-76 100 -203 100q-133 0 -212 -115
t-79 -317zM674 80q134 0 213 117q80 116 80 315q0 149 -43 248l-451 -580q76 -100 201 -100z" />
    <glyph glyph-name="ugrave" unicode="&#xf9;" horiz-adv-x="1341" 
d="M643 1468l109 -282h-105l-305 282h301zM897 324v661l250 49v-1034h-250v186q-52 -91 -151 -149q-99 -57 -214 -57q-153 0 -253 97q-101 98 -101 247v661l250 49v-712q0 -85 56 -144t141 -59q81 0 158 56q75 55 114 149z" />
    <glyph glyph-name="uacute" unicode="&#xfa;" horiz-adv-x="1341" 
d="M692 1468h301l-305 -282h-104zM897 324v661l250 49v-1034h-250v186q-52 -91 -151 -149q-99 -57 -214 -57q-153 0 -253 97q-101 98 -101 247v661l250 49v-712q0 -85 56 -144t141 -59q81 0 158 56q75 55 114 149z" />
    <glyph glyph-name="ucircumflex" unicode="&#xfb;" horiz-adv-x="1341" 
d="M905 1176l-237 141l-238 -141l-57 57l254 248h82l254 -248zM897 324v661l250 49v-1034h-250v186q-52 -91 -151 -149q-99 -57 -214 -57q-153 0 -253 97q-101 98 -101 247v661l250 49v-712q0 -85 56 -144t141 -59q81 0 158 56q75 55 114 149z" />
    <glyph glyph-name="udieresis" unicode="&#xfc;" horiz-adv-x="1341" 
d="M550 1211q-34 -33 -85 -33t-86 33q-35 32 -35 81q0 51 35 86t88 35q51 0 84 -33.5t33 -84.5q0 -53 -34 -84zM954 1211q-34 -33 -85 -33t-86 33q-35 32 -35 84q0 51 34.5 84.5t87.5 33.5q51 0 84 -33.5t33 -84.5q0 -53 -33 -84zM897 324v661l250 49v-1034h-250v186
q-52 -91 -151 -149q-99 -57 -214 -57q-153 0 -253 97q-101 98 -101 247v661l250 49v-712q0 -85 56 -144t141 -59q81 0 158 56q75 55 114 149z" />
    <glyph glyph-name="yacute" unicode="&#xfd;" horiz-adv-x="1107" 
d="M610 1468h301l-305 -282h-104zM637 332l295 692h127l-596 -1358q-59 -137 -209 -137q-73 0 -128 47q-54 46 -54 111q0 47 32.5 78.5t79.5 31.5q45 0 76 -31.5t31 -78.5q0 -36 -19 -64q61 6 90 68l148 344l-436 989h264z" />
    <glyph glyph-name="thorn" unicode="&#xfe;" horiz-adv-x="1380" 
d="M788 1044q194 0 331 -153q136 -154 136 -379q0 -226 -136 -378q-136 -154 -335 -154q-215 0 -342 163v-594h-249v1897l249 49v-631q55 84 147.5 132t198.5 48zM702 113q133 0 214 110t81 289t-79 288t-209 109q-81 0 -152.5 -44t-114.5 -120v-475q41 -74 110 -115.5
t150 -41.5z" />
    <glyph glyph-name="ydieresis" unicode="&#xff;" horiz-adv-x="1107" 
d="M468 1211q-34 -33 -85 -33t-86 33q-35 32 -35 81q0 51 35 86t88 35q51 0 84 -33.5t33 -84.5q0 -53 -34 -84zM872 1211q-34 -33 -85 -33t-86 33q-35 32 -35 84q0 51 34.5 84.5t87.5 33.5q51 0 84 -33.5t33 -84.5q0 -53 -33 -84zM637 332l295 692h127l-596 -1358
q-59 -137 -209 -137q-73 0 -128 47q-54 46 -54 111q0 47 32.5 78.5t79.5 31.5q45 0 76 -31.5t31 -78.5q0 -36 -19 -64q61 6 90 68l148 344l-436 989h264z" />
    <glyph glyph-name="Amacron" unicode="&#x100;" horiz-adv-x="1527" 
d="M508 1788h512v-156h-512v156zM1440 0h-264l-164 377h-635l-162 -377h-127l629 1434h96zM694 1110l-274 -635h549z" />
    <glyph glyph-name="amacron" unicode="&#x101;" horiz-adv-x="1275" 
d="M385 1399h512v-156h-512v156zM621 1044q209 0 345 -105t136 -265v-674h-250v133q-62 -68 -162 -110q-101 -43 -211 -43q-150 0 -254 83t-104 205q0 126 122 212q121 85 308 85q200 0 301 -65v182q0 117 -73 189q-74 71 -197 71q-109 0 -181 -45q47 -38 48 -98
q0 -53 -35 -89t-88 -36q-55 0 -93 35.5t-38 89.5q0 105 124 175t302 70zM590 121q78 0 148.5 32.5t113.5 86.5v163q-72 58 -221 60q-119 0 -185.5 -46t-66.5 -128q0 -75 59 -122q58 -46 152 -46z" />
    <glyph glyph-name="Abreve" unicode="&#x102;" horiz-adv-x="1527" 
d="M766 1561q-118 0 -207 84q-88 84 -88 204h100q8 -60 63 -97q55 -38 132 -38q78 0 132 37.5t63 97.5h100q-1 -121 -90 -204q-89 -84 -205 -84zM1440 0h-264l-164 377h-635l-162 -377h-127l629 1434h96zM694 1110l-274 -635h549z" />
    <glyph glyph-name="abreve" unicode="&#x103;" horiz-adv-x="1275" 
d="M643 1171q-119 0 -207 84t-88 205h101q8 -59 62 -97q55 -38 132 -38q78 0 132 37.5t63 97.5h100q-1 -121 -90 -205q-88 -84 -205 -84zM621 1044q209 0 345 -105t136 -265v-674h-250v133q-62 -68 -162 -110q-101 -43 -211 -43q-150 0 -254 83t-104 205q0 126 122 212
q121 85 308 85q200 0 301 -65v182q0 117 -73 189q-74 71 -197 71q-109 0 -181 -45q47 -38 48 -98q0 -53 -35 -89t-88 -36q-55 0 -93 35.5t-38 89.5q0 105 124 175t302 70zM590 121q78 0 148.5 32.5t113.5 86.5v163q-72 58 -221 60q-119 0 -185.5 -46t-66.5 -128
q0 -75 59 -122q58 -46 152 -46z" />
    <glyph glyph-name="Aogonek" unicode="&#x104;" horiz-adv-x="1527" 
d="M1446 -297l39 -78q-59 -74 -187 -74q-89 0 -150 47q-61 48 -61 117q0 77 64 156q63 80 166 129h-141l-164 377h-635l-162 -377h-127l629 1434h96l627 -1434h-4q-87 -44 -139 -105q-54 -62 -54 -118q0 -47 33 -78t84 -31t86 35zM694 1110l-274 -635h549z" />
    <glyph glyph-name="aogonek" unicode="&#x105;" horiz-adv-x="1275" 
d="M1110 -297l39 -78q-59 -74 -186 -74q-89 0 -150 47q-61 48 -61 117q0 77 64 156q63 79 165 129h-129v133q-62 -68 -162 -110q-101 -43 -211 -43q-150 0 -254 83t-104 205q0 126 122 212q121 85 308 85q200 0 301 -65v182q0 117 -73 189q-74 71 -197 71q-109 0 -181 -45
q47 -38 48 -98q0 -53 -35 -89t-88 -36q-55 0 -93 35.5t-38 89.5q0 105 124 175q122 70 302 70q209 0 345 -105t136 -265v-674h-2q-87 -44 -139 -105q-54 -62 -54 -118q0 -47 33 -78t84 -31t86 35zM590 121q78 0 148.5 32.5t113.5 86.5v163q-72 58 -221 60q-119 0 -185.5 -46
t-66.5 -128q0 -75 59 -122q58 -46 152 -46z" />
    <glyph glyph-name="Cacute" unicode="&#x106;" horiz-adv-x="1585" 
d="M918 1858h301l-306 -283h-104zM1399 330l65 -68q-67 -126 -220 -203q-154 -79 -349 -79q-325 0 -545 211q-221 210 -221 526q0 311 218 524q217 213 544 213q237 0 400 -110q161 -111 161 -261v-4q0 -55 -38 -92t-95 -37q-59 0 -98 38t-39 95q0 47 27.5 82t70.5 47
q-96 123 -315 123q-263 0 -421 -167q-157 -166 -157 -449q0 -288 157 -454q156 -167 417 -167q147 0 262 63q114 62 176 169z" />
    <glyph glyph-name="cacute" unicode="&#x107;" horiz-adv-x="1208" 
d="M668 1468h301l-305 -282h-105zM1018 227l63 -65q-44 -80 -151 -131q-110 -51 -248 -51q-242 0 -399 154q-158 153 -158 378q0 227 159 380q158 152 396 152q169 0 281 -76t112 -194q0 -53 -34.5 -89t-86.5 -36q-57 0 -94 35.5t-37 89.5q0 82 76 115q-58 43 -149 43
q-170 0 -267 -112q-98 -113 -98 -308q0 -192 101 -304q100 -112 272 -112q84 0 155.5 36t106.5 95z" />
    <glyph glyph-name="Ccircumflex" unicode="&#x108;" horiz-adv-x="1585" 
d="M1133 1565l-238 141l-238 -141l-57 57l254 248h82l254 -248zM1399 330l65 -68q-67 -126 -220 -203q-154 -79 -349 -79q-325 0 -545 211q-221 210 -221 526q0 311 218 524q217 213 544 213q237 0 400 -110q161 -111 161 -261v-4q0 -55 -38 -92t-95 -37q-59 0 -98 38
t-39 95q0 47 27.5 82t70.5 47q-96 123 -315 123q-263 0 -421 -167q-157 -166 -157 -449q0 -288 157 -454q156 -167 417 -167q147 0 262 63q114 62 176 169z" />
    <glyph glyph-name="ccircumflex" unicode="&#x109;" horiz-adv-x="1208" 
d="M883 1176l-238 141l-237 -141l-58 57l254 248h82l254 -248zM1018 227l63 -65q-44 -80 -151 -131q-110 -51 -248 -51q-242 0 -399 154q-158 153 -158 378q0 227 159 380q158 152 396 152q169 0 281 -76t112 -194q0 -53 -34.5 -89t-86.5 -36q-57 0 -94 35.5t-37 89.5
q0 82 76 115q-58 43 -149 43q-170 0 -267 -112q-98 -113 -98 -308q0 -192 101 -304q100 -112 272 -112q84 0 155.5 36t106.5 95z" />
    <glyph glyph-name="Cdotaccent" unicode="&#x10a;" horiz-adv-x="1585" 
d="M895 1561q-53 0 -91 35t-38 88t38 88.5t93 35.5q53 0 89 -35.5t36 -88.5q0 -54 -36 -88.5t-91 -34.5zM1399 330l65 -68q-67 -126 -220 -203q-154 -79 -349 -79q-325 0 -545 211q-221 210 -221 526q0 311 218 524q217 213 544 213q237 0 400 -110q161 -111 161 -261v-4
q0 -55 -38 -92t-95 -37q-59 0 -98 38t-39 95q0 47 27.5 82t70.5 47q-96 123 -315 123q-263 0 -421 -167q-157 -166 -157 -449q0 -288 157 -454q156 -167 417 -167q147 0 262 63q114 62 176 169z" />
    <glyph glyph-name="cdotaccent" unicode="&#x10b;" horiz-adv-x="1208" 
d="M645 1171q-53 0 -91 35t-38 89q0 53 38 88.5t93 35.5q53 0 89 -35.5t36 -88.5q0 -54 -36 -89t-91 -35zM1018 227l63 -65q-44 -80 -151 -131q-110 -51 -248 -51q-242 0 -399 154q-158 153 -158 378q0 227 159 380q158 152 396 152q169 0 281 -76t112 -194q0 -53 -34.5 -89
t-86.5 -36q-57 0 -94 35.5t-37 89.5q0 82 76 115q-58 43 -149 43q-170 0 -267 -112q-98 -113 -98 -308q0 -192 101 -304q100 -112 272 -112q84 0 155.5 36t106.5 95z" />
    <glyph glyph-name="Ccaron" unicode="&#x10c;" horiz-adv-x="1585" 
d="M1190 1812l-254 -247h-82l-254 247l57 58l238 -141l238 141zM1399 330l65 -68q-67 -126 -220 -203q-154 -79 -349 -79q-325 0 -545 211q-221 210 -221 526q0 311 218 524q217 213 544 213q237 0 400 -110q161 -111 161 -261v-4q0 -55 -38 -92t-95 -37q-59 0 -98 38
t-39 95q0 47 27.5 82t70.5 47q-96 123 -315 123q-263 0 -421 -167q-157 -166 -157 -449q0 -288 157 -454q156 -167 417 -167q147 0 262 63q114 62 176 169z" />
    <glyph glyph-name="ccaron" unicode="&#x10d;" horiz-adv-x="1208" 
d="M940 1423l-254 -247h-82l-254 247l58 58l237 -142l238 142zM1018 227l63 -65q-44 -80 -151 -131q-110 -51 -248 -51q-242 0 -399 154q-158 153 -158 378q0 227 159 380q158 152 396 152q169 0 281 -76t112 -194q0 -53 -34.5 -89t-86.5 -36q-57 0 -94 35.5t-37 89.5
q0 82 76 115q-58 43 -149 43q-170 0 -267 -112q-98 -113 -98 -308q0 -192 101 -304q100 -112 272 -112q84 0 155.5 36t106.5 95z" />
    <glyph glyph-name="Dcaron" unicode="&#x10e;" horiz-adv-x="1675" 
d="M1120 1812l-254 -247h-82l-254 247l58 58l237 -141l238 141zM213 1434h559q332 0 553 -206t221 -511t-221 -511t-553 -206h-559v1434zM463 100h280q246 0 396 169q149 170 149 448q0 277 -149 447q-150 169 -396 169h-280v-1233z" />
    <glyph glyph-name="dcaron" unicode="&#x10f;" horiz-adv-x="1615" 
d="M936 866v580l250 49v-1495h-250v141q-129 -162 -340 -161q-198 0 -335 153q-136 151 -136 379q0 224 135 379q135 153 332 153q104 0 197 -48q92 -48 147 -130zM1319 1151l41 324h219l-160 -324h-100zM678 113q168 0 258 155v480q-95 162 -264 161q-130 0 -209 -109
q-80 -110 -80 -288q0 -180 81 -289q81 -110 214 -110z" />
    <glyph glyph-name="Dcroat" unicode="&#x110;" horiz-adv-x="1675" 
d="M213 1434h559q332 0 553 -206t221 -511t-221 -511t-553 -206h-559v668h-129v98h129v668zM463 100h280q246 0 396 169q149 170 149 448q0 277 -149 447q-150 169 -396 169h-280v-567h221v-98h-221v-568z" />
    <glyph glyph-name="dslash" unicode="&#x111;" horiz-adv-x="1380" 
d="M1186 1298h121v-98h-121v-1200h-250v141q-129 -162 -340 -161q-198 0 -335 153q-136 151 -136 379q0 224 135 379q135 153 332 153q104 0 197 -48q92 -48 147 -130v334h-229v98h229v148l250 49v-197zM678 113q168 0 258 155v480q-95 162 -264 161q-130 0 -209 -109
q-80 -110 -80 -288q0 -180 81 -289q81 -110 214 -110z" />
    <glyph glyph-name="Emacron" unicode="&#x112;" horiz-adv-x="1357" 
d="M500 1788h512v-156h-512v156zM463 678v-578h786v-100h-1036v1434h1016v-101h-766v-557h602v-98h-602z" />
    <glyph glyph-name="emacron" unicode="&#x113;" 
d="M395 1399h512v-156h-512v156zM1024 377q51 0 84 -35t33 -88q0 -117 -128 -195q-127 -79 -311 -79q-252 0 -414 153q-163 151 -163 381q0 225 157 378q157 152 382 152q215 0 355 -150q140 -152 140 -376h-776q6 -206 106.5 -317t278.5 -111q122 0 193 57q-66 31 -66 107
q0 53 37 88t92 35zM662 944q-112 0 -186 -90q-72 -89 -89 -238h531q-10 152 -78 240q-69 88 -178 88z" />
    <glyph glyph-name="Ebreve" unicode="&#x114;" horiz-adv-x="1357" 
d="M756 1561q-118 0 -207 84q-88 84 -88 204h100q8 -60 63 -97q55 -38 132 -38t132 38q54 38 62 97h101q-1 -121 -90 -204q-89 -84 -205 -84zM463 678v-578h786v-100h-1036v1434h1016v-101h-766v-557h602v-98h-602z" />
    <glyph glyph-name="ebreve" unicode="&#x115;" 
d="M653 1171q-119 0 -207 84t-88 205h101q8 -59 62 -97q55 -38 132 -38t133 38q54 38 62 97h100q-1 -121 -90 -205q-88 -84 -205 -84zM1024 377q51 0 84 -35t33 -88q0 -117 -128 -195q-127 -79 -311 -79q-252 0 -414 153q-163 151 -163 381q0 225 157 378q157 152 382 152
q215 0 355 -150q140 -152 140 -376h-776q6 -206 106.5 -317t278.5 -111q122 0 193 57q-66 31 -66 107q0 53 37 88t92 35zM662 944q-112 0 -186 -90q-72 -89 -89 -238h531q-10 152 -78 240q-69 88 -178 88z" />
    <glyph glyph-name="Edotaccent" unicode="&#x116;" horiz-adv-x="1357" 
d="M756 1561q-53 0 -91 35t-38 88t37.5 88.5t93.5 35.5q53 0 89 -35.5t36 -88.5q0 -54 -36 -88.5t-91 -34.5zM463 678v-578h786v-100h-1036v1434h1016v-101h-766v-557h602v-98h-602z" />
    <glyph glyph-name="edotaccent" unicode="&#x117;" 
d="M653 1171q-53 0 -91 35t-38 89q0 53 38 88.5t93 35.5q53 0 89 -35.5t36 -88.5q0 -54 -36 -89t-91 -35zM1024 377q51 0 84 -35t33 -88q0 -117 -128 -195q-127 -79 -311 -79q-252 0 -414 153q-163 151 -163 381q0 225 157 378q157 152 382 152q215 0 355 -150
q140 -152 140 -376h-776q6 -206 106.5 -317t278.5 -111q122 0 193 57q-66 31 -66 107q0 53 37 88t92 35zM662 944q-112 0 -186 -90q-72 -89 -89 -238h531q-10 152 -78 240q-69 88 -178 88z" />
    <glyph glyph-name="Eogonek" unicode="&#x118;" horiz-adv-x="1357" 
d="M1257 -297l39 -78q-59 -74 -186 -74q-89 0 -150 47q-61 48 -61 117q0 77 64 156q63 79 165 129h-915v1434h1016v-101h-766v-557h602v-98h-602v-578h786v-100h-2q-87 -44 -139 -105q-53 -62 -53 -118q0 -47 32.5 -78t83.5 -31t86 35z" />
    <glyph glyph-name="eogonek" unicode="&#x119;" 
d="M1024 377q51 0 84 -35t33 -88q0 -90 -82 -160q-84 -72 -211 -100q-82 -43 -132 -102.5t-50 -114.5q0 -47 32.5 -78t84.5 -31q50 0 85 35l39 -78q-59 -74 -186 -74q-89 0 -150 47q-61 48 -61 117t52 140q51 72 138 125q-250 0 -412 153q-163 151 -163 381q0 225 157 378
q157 152 382 152q215 0 355 -150q140 -152 140 -376h-776q6 -206 106.5 -317t278.5 -111q122 0 193 57q-66 31 -66 107q0 53 37 88t92 35zM662 944q-112 0 -186 -90q-72 -89 -89 -238h531q-10 152 -78 240q-69 88 -178 88z" />
    <glyph glyph-name="Ecaron" unicode="&#x11a;" horiz-adv-x="1357" 
d="M1051 1812l-254 -247h-82l-254 247l57 58l238 -141l237 141zM463 678v-578h786v-100h-1036v1434h1016v-101h-766v-557h602v-98h-602z" />
    <glyph glyph-name="ecaron" unicode="&#x11b;" 
d="M948 1423l-254 -247h-82l-254 247l58 58l237 -142l238 142zM1024 377q51 0 84 -35t33 -88q0 -117 -128 -195q-127 -79 -311 -79q-252 0 -414 153q-163 151 -163 381q0 225 157 378q157 152 382 152q215 0 355 -150q140 -152 140 -376h-776q6 -206 106.5 -317t278.5 -111
q122 0 193 57q-66 31 -66 107q0 53 37 88t92 35zM662 944q-112 0 -186 -90q-72 -89 -89 -238h531q-10 152 -78 240q-69 88 -178 88z" />
    <glyph glyph-name="Gcircumflex" unicode="&#x11c;" horiz-adv-x="1677" 
d="M1137 1565l-238 141l-237 -141l-58 57l254 248h82l254 -248zM1268 240v366h239v-606h-77l-72 117q-155 -137 -461 -137q-323 0 -546 212q-222 212 -222 527q0 313 223 524t559 211q233 0 391 -102q158 -104 158 -258q0 -57 -37 -94t-94 -37q-60 0 -98.5 37t-38.5 94
q0 46 27 81t71 48q-92 116 -311 114q-277 0 -434 -168q-158 -169 -158 -464q0 -285 144 -455q143 -170 387 -170q133 0 225 42t125 118z" />
    <glyph glyph-name="gcircumflex" unicode="&#x11d;" horiz-adv-x="1374" 
d="M922 1176l-238 141l-238 -141l-57 57l254 248h82l254 -248zM938 862v123l250 49v-1093q0 -176 -148 -294t-376 -118q-184 0 -311 73q-128 74 -128 185q0 53 36 87t91 34q51 0 85 -35t34 -86q0 -70 -55 -104q75 -48 192 -50q143 0 237 85q93 86 93 212v213
q-128 -164 -342 -163q-198 0 -335 153q-136 151 -136 379q0 224 135 379q135 153 332 153q107 0 199 -49q92 -50 147 -133zM678 113q80 0 149 43t111 116v471q-94 166 -266 166q-130 0 -209 -109q-80 -110 -80 -288q0 -180 81 -289q81 -110 214 -110z" />
    <glyph glyph-name="Gbreve" unicode="&#x11e;" horiz-adv-x="1677" 
d="M899 1561q-119 0 -207 84t-88 204h101q8 -59 62 -97q55 -38 132 -38q78 0 132 37.5t63 97.5h100q-2 -121 -90 -204q-88 -84 -205 -84zM1268 240v366h239v-606h-77l-72 117q-155 -137 -461 -137q-323 0 -546 212q-222 212 -222 527q0 313 223 524t559 211q233 0 391 -102
q158 -104 158 -258q0 -57 -37 -94t-94 -37q-60 0 -98.5 37t-38.5 94q0 46 27 81t71 48q-92 116 -311 114q-277 0 -434 -168q-158 -169 -158 -464q0 -285 144 -455q143 -170 387 -170q133 0 225 42t125 118z" />
    <glyph glyph-name="gbreve" unicode="&#x11f;" horiz-adv-x="1374" 
d="M684 1171q-118 0 -207 84q-88 84 -88 205h100q8 -60 63 -97q55 -38 132 -38q78 0 132 37.5t63 97.5h100q-1 -121 -90 -205q-88 -84 -205 -84zM938 862v123l250 49v-1093q0 -176 -148 -294t-376 -118q-184 0 -311 73q-128 74 -128 185q0 53 36 87t91 34q51 0 85 -35
t34 -86q0 -70 -55 -104q75 -48 192 -50q143 0 237 85q93 86 93 212v213q-128 -164 -342 -163q-198 0 -335 153q-136 151 -136 379q0 224 135 379q135 153 332 153q107 0 199 -49q92 -50 147 -133zM678 113q80 0 149 43t111 116v471q-94 166 -266 166q-130 0 -209 -109
q-80 -110 -80 -288q0 -180 81 -289q81 -110 214 -110z" />
    <glyph glyph-name="Gdotaccent" unicode="&#x120;" horiz-adv-x="1677" 
d="M899 1561q-53 0 -91 35t-38 88t38 88.5t93 35.5q53 0 89 -35.5t36 -88.5q0 -54 -36 -88.5t-91 -34.5zM1268 240v366h239v-606h-77l-72 117q-155 -137 -461 -137q-323 0 -546 212q-222 212 -222 527q0 313 223 524t559 211q233 0 391 -102q158 -104 158 -258
q0 -57 -37 -94t-94 -37q-60 0 -98.5 37t-38.5 94q0 46 27 81t71 48q-92 116 -311 114q-277 0 -434 -168q-158 -169 -158 -464q0 -285 144 -455q143 -170 387 -170q133 0 225 42t125 118z" />
    <glyph glyph-name="gdotaccent" unicode="&#x121;" horiz-adv-x="1374" 
d="M684 1171q-53 0 -91 35t-38 89q0 53 38 88.5t93 35.5q53 0 89 -35.5t36 -88.5q0 -54 -36 -89t-91 -35zM938 862v123l250 49v-1093q0 -176 -148 -294t-376 -118q-184 0 -311 73q-128 74 -128 185q0 53 36 87t91 34q51 0 85 -35t34 -86q0 -70 -55 -104q75 -48 192 -50
q143 0 237 85q93 86 93 212v213q-128 -164 -342 -163q-198 0 -335 153q-136 151 -136 379q0 224 135 379q135 153 332 153q107 0 199 -49q92 -50 147 -133zM678 113q80 0 149 43t111 116v471q-94 166 -266 166q-130 0 -209 -109q-80 -110 -80 -288q0 -180 81 -289
q81 -110 214 -110z" />
    <glyph glyph-name="uni0122" unicode="&#x122;" horiz-adv-x="1677" 
d="M1268 240v366h239v-606h-77l-72 117q-155 -137 -461 -137q-323 0 -546 212q-222 212 -222 527q0 313 223 524t559 211q233 0 391 -102q158 -104 158 -258q0 -57 -37 -94t-94 -37q-60 0 -98.5 37t-38.5 94q0 46 27 81t71 48q-92 116 -311 114q-277 0 -434 -168
q-158 -169 -158 -464q0 -285 144 -455q143 -170 387 -170q133 0 225 42t125 118zM897 -127q57 0 94 -38.5t37 -98.5q0 -77 -56 -160q-57 -82 -134 -123l-41 53q65 50 88 125q-51 4 -83 39t-32 86t36 84t91 33z" />
    <glyph glyph-name="uni0123" unicode="&#x123;" horiz-adv-x="1374" 
d="M686 1155q-57 0 -94 38.5t-37 98.5q0 78 57 160q55 82 133 123l41 -53q-65 -50 -88 -125q51 -4 83 -39t32 -86t-36 -84t-91 -33zM938 862v123l250 49v-1093q0 -176 -148 -294t-376 -118q-184 0 -311 73q-128 74 -128 185q0 53 36 87t91 34q51 0 85 -35t34 -86
q0 -70 -55 -104q75 -48 192 -50q143 0 237 85q93 86 93 212v213q-128 -164 -342 -163q-198 0 -335 153q-136 151 -136 379q0 224 135 379q135 153 332 153q107 0 199 -49q92 -50 147 -133zM678 113q80 0 149 43t111 116v471q-94 166 -266 166q-130 0 -209 -109
q-80 -110 -80 -288q0 -180 81 -289q81 -110 214 -110z" />
    <glyph glyph-name="Hcircumflex" unicode="&#x124;" horiz-adv-x="1687" 
d="M1081 1565l-237 141l-238 -141l-57 57l254 248h82l254 -248zM1223 776v658h250v-1434h-250v678h-760v-678h-250v1434h250v-658h760z" />
    <glyph glyph-name="hcircumflex" unicode="&#x125;" horiz-adv-x="1349" 
d="M621 1683l-58 -57l-237 141l-238 -141l-57 57l254 248h82zM815 1044q155 0 259 -98q102 -98 102 -246v-700h-250v702q0 86 -57 145q-58 58 -144 58q-87 0 -164 -55q-79 -56 -119 -145v-705h-249v1446l249 49v-657q56 94 156 150q101 56 217 56z" />
    <glyph glyph-name="Hbar" unicode="&#x126;" horiz-adv-x="1687" 
d="M1473 1114h141v-98h-141v-1016h-250v678h-760v-678h-250v1016h-141v98h141v320h250v-320h760v320h250v-320zM463 776h760v240h-760v-240z" />
    <glyph glyph-name="hbar" unicode="&#x127;" horiz-adv-x="1349" 
d="M815 1044q155 0 259 -98q102 -98 102 -246v-700h-250v702q0 86 -57 145q-58 58 -144 58q-87 0 -164 -55q-79 -56 -119 -145v-705h-249v1200h-125v98h125v148l249 49v-197h226v-98h-226v-362q56 94 156 150q101 56 217 56z" />
    <glyph glyph-name="Itilde" unicode="&#x128;" horiz-adv-x="677" 
d="M463 1579q-39 -2 -79 18t-66.5 45.5t-57 46t-51.5 19.5q-90 0 -96 -121h-97q0 118 55 191q54 73 142 73q69 0 145 -65q74 -66 111 -66q41 0 66.5 33t29.5 88h97q0 -118 -55 -189q-55 -73 -144 -73zM463 0h-250v1434h250v-1434z" />
    <glyph glyph-name="itilde" unicode="&#x129;" horiz-adv-x="636" 
d="M442 1190q-74 0 -145 65q-71 64 -109 64q-90 0 -96 -121h-96q0 118 54 191t143 73q69 0 145 -65q74 -66 111 -66q41 0 66.5 33t29.5 88h96q0 -118 -55 -189q-55 -73 -144 -73zM442 0h-249v985l249 49v-1034z" />
    <glyph glyph-name="Imacron" unicode="&#x12a;" horiz-adv-x="677" 
d="M594 1632h-512v156h512v-156zM463 0h-250v1434h250v-1434z" />
    <glyph glyph-name="imacron" unicode="&#x12b;" horiz-adv-x="636" 
d="M573 1243h-512v156h512v-156zM442 0h-249v985l249 49v-1034z" />
    <glyph glyph-name="Ibreve" unicode="&#x12c;" horiz-adv-x="677" 
d="M340 1561q-118 0 -207 84q-88 84 -88 204h100q8 -60 63 -97q55 -38 132 -38q78 0 132 37.5t63 97.5h100q-1 -121 -90 -204q-88 -84 -205 -84zM463 0h-250v1434h250v-1434z" />
    <glyph glyph-name="ibreve" unicode="&#x12d;" horiz-adv-x="636" 
d="M319 1171q-119 0 -206 84q-88 84 -88 205h100q8 -60 63 -97q55 -38 132 -38q76 0 132 38q54 38 62 97h100q-1 -121 -90 -205t-205 -84zM442 0h-249v985l249 49v-1034z" />
    <glyph glyph-name="Iogonek" unicode="&#x12e;" horiz-adv-x="677" 
d="M471 -297l39 -78q-59 -74 -186 -74q-89 0 -150 47q-61 48 -61 117q0 77 64 156q63 79 165 129h-129v1434h250v-1434h-2q-87 -44 -139 -105q-54 -61 -54 -118q0 -47 33 -78t84 -31t86 35z" />
    <glyph glyph-name="iogonek" unicode="&#x12f;" horiz-adv-x="636" 
d="M319 1171q-53 0 -91 35t-38 89q0 53 38 88.5t94 35.5q53 0 88.5 -35.5t35.5 -88.5q0 -54 -36 -89t-91 -35zM451 -297l38 -78q-59 -74 -186 -74q-89 0 -150 47q-61 48 -61 117q0 77 64 156q63 80 166 129h-129v985l249 49v-1034h-2q-87 -44 -139 -105q-53 -62 -53 -118
q0 -47 32.5 -78t84.5 -31q51 0 86 35z" />
    <glyph glyph-name="Idot" unicode="&#x130;" horiz-adv-x="677" 
d="M340 1561q-53 0 -91 35t-38 88t38 88.5t93 35.5q53 0 89 -35.5t36 -88.5q0 -54 -36 -88.5t-91 -34.5zM463 0h-250v1434h250v-1434z" />
    <glyph glyph-name="dotlessi" unicode="&#x131;" horiz-adv-x="636" 
d="M442 0h-249v985l249 49v-1034z" />
    <glyph glyph-name="IJ" unicode="&#x132;" horiz-adv-x="1939" 
d="M463 0h-250v1434h250v-1434zM1491 432v1002h250v-975q0 -221 -141 -350q-142 -129 -371 -129q-203 0 -332 96t-129 246q0 58 40 95q41 38 99 38q57 0 94 -38t37 -95q0 -51 -29 -87t-77 -45q78 -100 239 -100q153 0 236.5 90.5t83.5 251.5z" />
    <glyph glyph-name="ij" unicode="&#x133;" horiz-adv-x="1290" 
d="M326 1188q-64 0 -105 40q-43 40 -43 101q0 59 42 99q41 40 106 40q59 0 98 -39.5t39 -99.5q0 -61 -39 -101t-98 -40zM975 1188q-64 0 -105 40q-43 40 -43 101q0 59 42 99q41 40 106 40q59 0 98 -39.5t39 -99.5q0 -61 -39 -101t-98 -40zM197 985l249 49v-1034h-249v985z
M846 -160v1145l250 49v-1171q0 -143 -109 -239q-110 -95 -270 -95q-126 0 -208 55q-83 56 -83 137q0 51 33 84t82 33q54 0 88.5 -33t34.5 -84q0 -48 -35 -83q6 -1 20 -3q87 0 143 57q54 58 54 148z" />
    <glyph glyph-name="Jcircumflex" unicode="&#x134;" horiz-adv-x="1261" 
d="M899 1870h82l254 -248l-57 -57l-238 141l-238 -141l-57 57zM813 432v1002h250v-975q0 -221 -141 -350q-142 -129 -371 -129q-203 0 -332 96t-129 246q0 58 40 95q41 38 99 38q57 0 94 -38t37 -95q0 -51 -29 -87t-77 -45q78 -100 240 -100q153 0 236 90.5t83 251.5z" />
    <glyph glyph-name="jcircumflex" unicode="&#x135;" horiz-adv-x="641" 
d="M285 1481h82l254 -248l-58 -57l-237 141l-238 -141l-57 57zM205 -160v1145l250 49v-1171q0 -143 -109 -239q-110 -95 -270 -95q-126 0 -208 55q-83 56 -83 137q0 51 32.5 84t82.5 33q54 0 88.5 -33t34.5 -84q0 -47 -31 -81h6q91 0 150 56q57 56 57 144z" />
    <glyph glyph-name="uni0136" unicode="&#x136;" horiz-adv-x="1503" 
d="M1403 1434l-594 -535l641 -899h-291l-526 739l-170 -151v-588h-250v1434h250v-713l782 713h158zM823 -127q57 0 94 -38.5t37 -98.5q0 -77 -56 -160q-55 -82 -134 -123l-41 53q65 50 88 125q-51 4 -83 39t-32 86t36 84t91 33z" />
    <glyph glyph-name="uni0137" unicode="&#x137;" horiz-adv-x="1196" 
d="M1083 1024l-395 -344l481 -680h-280l-375 528l-72 -61v-467h-249v1446l249 49v-895l484 424h157zM659 -127q57 0 94.5 -38.5t37.5 -98.5q0 -77 -56 -160q-57 -82 -135 -123l-41 53q65 50 88 125q-51 4 -83 39t-32 86t36 84t91 33z" />
    <glyph glyph-name="kgreenlandic" unicode="&#x138;" horiz-adv-x="1196" 
d="M1169 0h-280l-379 473l-68 -65v-408h-249v985l249 49v-485l488 475h153l-405 -389z" />
    <glyph glyph-name="Lacute" unicode="&#x139;" horiz-adv-x="1296" 
d="M369 1858h301l-305 -283h-105zM463 1434v-1334h735v-100h-985v1434h250z" />
    <glyph glyph-name="lacute" unicode="&#x13a;" horiz-adv-x="636" 
d="M643 1919l-305 -283h-105l109 283h301zM442 0h-249v1446l249 49v-1495z" />
    <glyph glyph-name="uni013B" unicode="&#x13b;" horiz-adv-x="1296" 
d="M463 1434v-1334h735v-100h-985v1434h250zM713 -127q57 0 94 -38.5t37 -98.5q0 -77 -56 -160q-57 -82 -135 -123l-41 53q65 50 88 125q-51 4 -82.5 39t-31.5 86t36 84t91 33z" />
    <glyph glyph-name="uni013C" unicode="&#x13c;" horiz-adv-x="636" 
d="M193 1446l249 49v-1495h-249v1446zM315 -127q57 0 94 -38.5t37 -98.5q0 -77 -56 -160q-55 -82 -134 -123l-41 53q65 50 88 125q-51 4 -83 39t-32 86t36 84t91 33z" />
    <glyph glyph-name="Lcaron" unicode="&#x13d;" horiz-adv-x="1296" 
d="M463 1434v-1334h735v-100h-985v1434h250zM670 1434h217l-158 -324h-100z" />
    <glyph glyph-name="lcaron" unicode="&#x13e;" horiz-adv-x="872" 
d="M442 0h-249v1446l249 49v-1495zM676 1151h-98l40 324h218z" />
    <glyph glyph-name="Ldot" unicode="&#x13f;" horiz-adv-x="1296" 
d="M463 1434v-1334h735v-100h-985v1434h250zM937 618q-40 -40 -99 -40q-61 0 -101 40q-41 39 -41 99q0 56 41 99q41 42 101 42q58 0 99 -41q40 -40 40 -100t-40 -99z" />
    <glyph glyph-name="ldot" unicode="&#x140;" horiz-adv-x="894" 
d="M442 0h-249v1446l249 49v-1495zM783 638q-40 -40 -99 -40q-60 0 -100 40q-41 41 -41 99q0 57 42 100q42 42 99 42q58 0 99 -41q40 -40 40 -100t-40 -100z" />
    <glyph glyph-name="Lslash" unicode="&#x141;" horiz-adv-x="1310" 
d="M479 680v-580h733v-100h-983v549l-147 -76v96l147 76v789h250v-658l221 115v-96z" />
    <glyph glyph-name="lslash" unicode="&#x142;" horiz-adv-x="735" 
d="M494 854l165 86v-96l-165 -86v-758h-250v629l-168 -88v96l168 88v721l250 49v-641z" />
    <glyph glyph-name="Nacute" unicode="&#x143;" horiz-adv-x="1622" 
d="M864 1858h301l-305 -283h-104zM1300 393v1041h107v-1434h-70l-1015 1126v-1126h-109v1434h154z" />
    <glyph glyph-name="nacute" unicode="&#x144;" horiz-adv-x="1349" 
d="M709 1468h301l-305 -282h-105zM817 1044q155 0 258 -98q101 -98 101 -246v-700h-250v702q0 86 -57 145q-58 58 -144 58q-87 0 -164 -55q-79 -56 -119 -145v-705h-249v985l249 49v-194q56 93 156 148q101 56 219 56z" />
    <glyph glyph-name="uni0145" unicode="&#x145;" horiz-adv-x="1622" 
d="M1300 393v1041h107v-1434h-70l-1015 1126v-1126h-109v1434h154zM838 -127q57 0 94 -38.5t37 -98.5q0 -77 -56 -160q-57 -82 -135 -123l-41 53q65 50 88 125q-51 4 -82.5 39t-31.5 86t36 84t91 33z" />
    <glyph glyph-name="uni0146" unicode="&#x146;" horiz-adv-x="1349" 
d="M817 1044q155 0 258 -98q101 -98 101 -246v-700h-250v702q0 86 -57 145q-58 58 -144 58q-87 0 -164 -55q-79 -56 -119 -145v-705h-249v985l249 49v-194q56 93 156 148q101 56 219 56zM684 -127q57 0 94 -38.5t37 -98.5q0 -77 -56 -160q-57 -82 -134 -123l-41 53
q65 50 88 125q-51 4 -83 39t-32 86t36 84t91 33z" />
    <glyph glyph-name="Ncaron" unicode="&#x147;" horiz-adv-x="1622" 
d="M1135 1812l-254 -247h-82l-254 247l57 58l238 -141l237 141zM1300 393v1041h107v-1434h-70l-1015 1126v-1126h-109v1434h154z" />
    <glyph glyph-name="ncaron" unicode="&#x148;" horiz-adv-x="1349" 
d="M981 1423l-254 -247h-82l-254 247l58 58l237 -142l238 142zM817 1044q155 0 258 -98q101 -98 101 -246v-700h-250v702q0 86 -57 145q-58 58 -144 58q-87 0 -164 -55q-79 -56 -119 -145v-705h-249v985l249 49v-194q56 93 156 148q101 56 219 56z" />
    <glyph glyph-name="Eng" unicode="&#x14a;" horiz-adv-x="1622" 
d="M1300 393v1041h107v-1538q0 -118 -68 -192q-69 -73 -184 -73q-125 0 -184 80l45 62q45 -49 125 -49q76 0 123 49t47 129v127l-989 1097v-1126h-109v1434h154z" />
    <glyph glyph-name="eng" unicode="&#x14b;" horiz-adv-x="1349" 
d="M817 1044q155 0 258 -98q101 -98 101 -246v-766q0 -129 -97 -216t-239 -87q-158 0 -232 80l21 76q49 -55 135 -55q72 0 117 47q45 46 45 119v804q0 86 -57 145q-58 58 -144 58q-87 0 -164 -55q-79 -56 -119 -145v-705h-249v985l249 49v-194q56 93 156 148q101 56 219 56z
" />
    <glyph glyph-name="Omacron" unicode="&#x14c;" horiz-adv-x="1771" 
d="M1141 1632h-512v156h512v-156zM1426 191q-215 -211 -539 -211t-541 211q-217 210 -217 526q0 315 217 526t541 211t539 -211q216 -211 216 -526q0 -316 -216 -526zM525 254q137 -174 362 -174t361 174q136 173 136 463t-136 463q-136 174 -361 174t-362 -174
q-138 -174 -138 -463t138 -463z" />
    <glyph glyph-name="omacron" unicode="&#x14d;" horiz-adv-x="1349" 
d="M930 1243h-512v156h512v-156zM1067 133q-157 -153 -393 -153t-392 153q-157 151 -157 379q0 227 157 380q157 152 392 152t393 -152q158 -153 158 -380t-158 -379zM462 197q80 -117 212 -117q134 0 213 117q80 116 80 315q0 202 -79 317t-214 115q-133 0 -212 -115
t-79 -317q0 -200 79 -315z" />
    <glyph glyph-name="Obreve" unicode="&#x14e;" horiz-adv-x="1771" 
d="M887 1561q-119 0 -207 84t-88 204h100q8 -60 63 -97q55 -38 132 -38t132 38q54 38 62 97h101q-2 -121 -90 -204q-89 -84 -205 -84zM1426 191q-215 -211 -539 -211t-541 211q-217 210 -217 526q0 315 217 526t541 211t539 -211q216 -211 216 -526q0 -316 -216 -526z
M525 254q137 -174 362 -174t361 174q136 173 136 463t-136 463q-136 174 -361 174t-362 -174q-138 -174 -138 -463t138 -463z" />
    <glyph glyph-name="obreve" unicode="&#x14f;" horiz-adv-x="1349" 
d="M676 1171q-118 0 -207 84q-88 84 -88 205h100q8 -60 63 -97q55 -38 132 -38t132 38q54 38 62 97h101q-1 -121 -90 -205t-205 -84zM1067 133q-157 -153 -393 -153t-392 153q-157 151 -157 379q0 227 157 380q157 152 392 152t393 -152q158 -153 158 -380t-158 -379z
M462 197q80 -117 212 -117q134 0 213 117q80 116 80 315q0 202 -79 317t-214 115q-133 0 -212 -115t-79 -317q0 -200 79 -315z" />
    <glyph glyph-name="Ohungarumlaut" unicode="&#x150;" horiz-adv-x="1771" 
d="M745 1575h-106l117 283h237zM1098 1575h-107l117 283h238zM1426 191q-215 -211 -539 -211t-541 211q-217 210 -217 526q0 315 217 526t541 211t539 -211q216 -211 216 -526q0 -316 -216 -526zM525 254q137 -174 362 -174t361 174q136 173 136 463t-136 463
q-136 174 -361 174t-362 -174q-138 -174 -138 -463t138 -463z" />
    <glyph glyph-name="ohungarumlaut" unicode="&#x151;" horiz-adv-x="1349" 
d="M535 1186h-107l117 282h237zM887 1186h-107l117 282h238zM1067 133q-157 -153 -393 -153t-392 153q-157 151 -157 379q0 227 157 380q157 152 392 152t393 -152q158 -153 158 -380t-158 -379zM462 197q80 -117 212 -117q134 0 213 117q80 116 80 315q0 202 -79 317
t-214 115q-133 0 -212 -115t-79 -317q0 -200 79 -315z" />
    <glyph glyph-name="OE" unicode="&#x152;" horiz-adv-x="2387" 
d="M1544 678v-578h735v-100h-983q-137 -20 -315 -20q-373 0 -612 210q-240 208 -240 527q0 317 240 527q239 210 612 210q178 0 315 -20h963v-101h-715v-557h551v-98h-551zM551 1180q-164 -175 -164 -463q0 -289 165 -463t439 -174q200 0 303 76v1124q-104 74 -303 74
q-277 0 -440 -174z" />
    <glyph glyph-name="oe" unicode="&#x153;" horiz-adv-x="2125" 
d="M1776 341q36 36 90 36q53 0 86 -38q33 -37 33 -85q0 -114 -128 -194t-307 -80q-145 0 -262.5 59.5t-189.5 165.5q-70 -107 -182 -166t-248 -59q-228 0 -385 153q-158 152 -158 379t158 380q158 152 385 152q276 0 428 -221q71 103 179.5 162t235.5 59q211 0 351 -150
q139 -151 139 -376h-776q6 -204 109 -314t284 -110q117 0 186 51q-67 35 -65 109q0 51 37 87zM462 197q80 -117 212 -117q134 0 213 117q80 116 80 315q0 202 -79 317t-214 115q-133 0 -212 -115t-79 -317q0 -200 79 -315zM1503 944q-111 0 -184 -90q-74 -90 -90 -238h530
q-11 152 -78 240q-69 88 -178 88z" />
    <glyph glyph-name="Racute" unicode="&#x154;" horiz-adv-x="1484" 
d="M774 1858h301l-305 -283h-104zM1153 449l160 -293q57 -112 123 -156h-277q-57 39 -98 119l-193 368q-38 67 -86 99h-319v-586h-250v1434h590q227 0 378 -120q150 -120 150 -302q0 -146 -98 -256q-97 -110 -258 -150q123 -43 178 -157zM748 1333h-285v-649h285
q147 0 236 89t89 237q0 146 -89 235q-88 88 -236 88z" />
    <glyph glyph-name="racute" unicode="&#x155;" horiz-adv-x="1046" 
d="M612 1468h301l-305 -282h-104zM745 1044q105 0 169 -57q65 -57 65 -147q0 -53 -35 -88t-88 -35q-55 0 -92 34.5t-37 88.5q0 42 27 80q-14 2 -35 2q-92 0 -167 -63q-76 -65 -110 -169v-690h-249v985l249 49v-198q43 96 124 152t179 56z" />
    <glyph glyph-name="uni0156" unicode="&#x156;" horiz-adv-x="1484" 
d="M1153 449l160 -293q57 -112 123 -156h-277q-57 39 -98 119l-193 368q-38 67 -86 99h-319v-586h-250v1434h590q227 0 378 -120q150 -120 150 -302q0 -146 -98 -256q-97 -110 -258 -150q123 -43 178 -157zM748 1333h-285v-649h285q147 0 236 89t89 237q0 146 -89 235
q-88 88 -236 88zM799 -127q57 0 94 -38.5t37 -98.5q0 -77 -56 -160q-57 -82 -135 -123l-41 53q65 50 88 125q-51 4 -82.5 39t-31.5 86t36 84t91 33z" />
    <glyph glyph-name="uni0157" unicode="&#x157;" horiz-adv-x="1046" 
d="M745 1044q105 0 169 -57q65 -57 65 -147q0 -53 -35 -88t-88 -35q-55 0 -92 34.5t-37 88.5q0 42 27 80q-14 2 -35 2q-92 0 -167 -63q-76 -65 -110 -169v-690h-249v985l249 49v-198q43 96 124 152t179 56zM319 -127q57 0 94.5 -38.5t37.5 -98.5q0 -77 -56 -160
q-57 -82 -135 -123l-41 53q65 50 88 125q-51 4 -82.5 39t-31.5 86t35.5 84t90.5 33z" />
    <glyph glyph-name="Rcaron" unicode="&#x158;" horiz-adv-x="1484" 
d="M1044 1812l-253 -247h-82l-254 247l57 58l238 -141l237 141zM1153 449l160 -293q57 -112 123 -156h-277q-57 39 -98 119l-193 368q-38 67 -86 99h-319v-586h-250v1434h590q227 0 378 -120q150 -120 150 -302q0 -146 -98 -256q-97 -110 -258 -150q123 -43 178 -157z
M748 1333h-285v-649h285q147 0 236 89t89 237q0 146 -89 235q-88 88 -236 88z" />
    <glyph glyph-name="rcaron" unicode="&#x159;" horiz-adv-x="1046" 
d="M883 1423l-254 -247h-82l-254 247l57 58l238 -142l237 142zM745 1044q105 0 169 -57q65 -57 65 -147q0 -53 -35 -88t-88 -35q-55 0 -92 34.5t-37 88.5q0 42 27 80q-14 2 -35 2q-92 0 -167 -63q-76 -65 -110 -169v-690h-249v985l249 49v-198q43 96 124 152t179 56z" />
    <glyph glyph-name="Sacute" unicode="&#x15a;" horiz-adv-x="1325" 
d="M694 1858h301l-305 -283h-104zM745 819q30 -12 70.5 -28.5t45.5 -18.5q41 -16 105 -48q62 -30 99 -61q101 -86 125 -162q16 -48 16 -112q0 -183 -149 -296q-151 -113 -387 -113q-226 0 -381 97q-156 97 -156 238q0 51 35 85t88 34q49 0 82 -34t33 -85q0 -80 -70 -108
q100 -121 326 -121q160 0 259 60q99 58 99 163q0 68 -70 138q-30 27 -83 57q-48 27 -97 49q-41 18 -114 51q-20 8 -51 20.5t-42 17.5q-35 15 -89 42q-59 28 -90 51q-34 22 -74 57q-40 34 -62 69t-38 86q-15 48 -15 102q0 181 147 293q145 112 369 112q202 0 339 -89
q136 -88 136 -224q0 -51 -33 -85t-82 -34q-53 0 -88 34t-35 85q0 81 72 106q-85 101 -274 103q-147 0 -242 -62q-96 -63 -96 -168q0 -103 119 -178q64 -41 113 -63q57 -27 140 -60z" />
    <glyph glyph-name="sacute" unicode="&#x15b;" horiz-adv-x="1067" 
d="M565 1468h301l-305 -282h-104zM600 625q17 -7 32.5 -14t25.5 -11.5t13 -5.5q1 -1 23.5 -11t43.5 -19q54 -26 71 -39q30 -25 55 -44q34 -28 50.5 -54t30.5 -67q13 -36 13 -79q0 -135 -111 -218q-113 -83 -304 -83q-171 0 -293 65t-123 158v2q0 48 32 78t83 30
q45 0 75.5 -30.5t30.5 -77.5q0 -55 -39 -84q74 -47 189 -47q106 0 170.5 38t64.5 101q0 59 -55 99q-52 38 -174 89q-185 79 -256 138q-104 90 -105 211q0 133 114 214q115 80 294 80q155 0 261 -57t108 -143v-2q0 -47 -31 -78t-76 -31q-49 0 -82 31t-33 78q0 48 35 80
q-59 29 -143 28q-97 0 -159 -38t-62 -99t57 -101t174 -87z" />
    <glyph glyph-name="Scircumflex" unicode="&#x15c;" horiz-adv-x="1325" 
d="M909 1565l-237 141l-238 -141l-57 57l254 248h82l254 -248zM745 819q30 -12 70.5 -28.5t45.5 -18.5q41 -16 105 -48q62 -30 99 -61q101 -86 125 -162q16 -48 16 -112q0 -183 -149 -296q-151 -113 -387 -113q-226 0 -381 97q-156 97 -156 238q0 51 35 85t88 34
q49 0 82 -34t33 -85q0 -80 -70 -108q100 -121 326 -121q160 0 259 60q99 58 99 163q0 68 -70 138q-30 27 -83 57q-48 27 -97 49q-41 18 -114 51q-20 8 -51 20.5t-42 17.5q-35 15 -89 42q-59 28 -90 51q-34 22 -74 57q-40 34 -62 69t-38 86q-15 48 -15 102q0 181 147 293
q145 112 369 112q202 0 339 -89q136 -88 136 -224q0 -51 -33 -85t-82 -34q-53 0 -88 34t-35 85q0 81 72 106q-85 101 -274 103q-147 0 -242 -62q-96 -63 -96 -168q0 -103 119 -178q64 -41 113 -63q57 -27 140 -60z" />
    <glyph glyph-name="scircumflex" unicode="&#x15d;" horiz-adv-x="1067" 
d="M778 1176l-237 141l-238 -141l-57 57l254 248h82l254 -248zM600 625q17 -7 32.5 -14t25.5 -11.5t13 -5.5q1 -1 23.5 -11t43.5 -19q54 -26 71 -39q30 -25 55 -44q34 -28 50.5 -54t30.5 -67q13 -36 13 -79q0 -135 -111 -218q-113 -83 -304 -83q-171 0 -293 65t-123 158v2
q0 48 32 78t83 30q45 0 75.5 -30.5t30.5 -77.5q0 -55 -39 -84q74 -47 189 -47q106 0 170.5 38t64.5 101q0 59 -55 99q-52 38 -174 89q-185 79 -256 138q-104 90 -105 211q0 133 114 214q115 80 294 80q155 0 261 -57t108 -143v-2q0 -47 -31 -78t-76 -31q-49 0 -82 31t-33 78
q0 48 35 80q-59 29 -143 28q-97 0 -159 -38t-62 -99t57 -101t174 -87z" />
    <glyph glyph-name="Scedilla" unicode="&#x15e;" horiz-adv-x="1325" 
d="M1206 389q0 -170 -129 -280q-128 -110 -342 -127l-63 -88q23 4 37 4q83 0 136 -49q54 -48 54 -119q0 -78 -65 -129q-67 -50 -162 -50q-117 0 -185 74l48 64q43 -39 108 -39q49 0 79 23.5t30 62.5q0 36 -25.5 60t-62.5 24q-53 0 -76 -35l-58 37l97 158q-211 10 -352 105
q-142 94 -142 230q0 51 35 85t88 34q49 0 82 -34t33 -85q0 -80 -70 -108q100 -121 326 -121q160 0 259 60q99 58 99 163q0 68 -70 138q-30 27 -83 57q-48 27 -97 49q-41 18 -114 51q-20 8 -51 20.5t-42 17.5q-35 15 -89 42q-59 28 -90 51q-34 22 -74 57q-40 34 -62 69
t-38 86q-15 48 -15 102q0 181 147 293q145 112 369 112q202 0 339 -89q136 -88 136 -224q0 -51 -33 -85t-82 -34q-53 0 -88 34t-35 85q0 81 72 106q-85 101 -274 103q-147 0 -242 -62q-96 -63 -96 -168q0 -103 119 -178q64 -41 113 -63q57 -27 140 -60q30 -12 70.5 -28.5
t45.5 -18.5q41 -16 105 -48q62 -30 99 -61q101 -86 125 -162q16 -49 16 -112z" />
    <glyph glyph-name="scedilla" unicode="&#x15f;" horiz-adv-x="1067" 
d="M958 281q0 -127 -97 -208t-269 -91l-64 -88q23 4 37 4q82 0 137 -49q54 -48 54 -119q0 -78 -65 -129q-67 -50 -163 -50q-116 0 -184 74l47 64q43 -39 109 -39q49 0 78.5 23.5t29.5 62.5q0 36 -25.5 60t-62.5 24q-53 0 -76 -35l-57 37l98 160q-153 11 -254 73
q-102 62 -104 148v2q0 48 32 78t83 30q45 0 75.5 -30.5t30.5 -77.5q0 -55 -39 -84q74 -47 189 -47q106 0 170.5 38t64.5 101q0 59 -55 99q-52 38 -174 89q-185 79 -256 138q-104 90 -105 211q0 133 114 214q115 80 294 80q155 0 261 -57t108 -143v-2q0 -47 -31 -78t-76 -31
q-49 0 -82 31t-33 78q0 48 35 80q-59 29 -143 28q-97 0 -159 -38t-62 -99t57 -101t174 -87q17 -7 32.5 -14t25.5 -11.5t13 -5.5q1 -1 23.5 -11t43.5 -19q54 -26 71 -39q30 -25 55 -44q34 -28 50.5 -54t30.5 -67q13 -36 13 -79z" />
    <glyph glyph-name="Scaron" unicode="&#x160;" horiz-adv-x="1325" 
d="M967 1812l-254 -247h-82l-254 247l57 58l238 -141l237 141zM745 819q30 -12 70.5 -28.5t45.5 -18.5q41 -16 105 -48q62 -30 99 -61q101 -86 125 -162q16 -48 16 -112q0 -183 -149 -296q-151 -113 -387 -113q-226 0 -381 97q-156 97 -156 238q0 51 35 85t88 34
q49 0 82 -34t33 -85q0 -80 -70 -108q100 -121 326 -121q160 0 259 60q99 58 99 163q0 68 -70 138q-30 27 -83 57q-48 27 -97 49q-41 18 -114 51q-20 8 -51 20.5t-42 17.5q-35 15 -89 42q-59 28 -90 51q-34 22 -74 57q-40 34 -62 69t-38 86q-15 48 -15 102q0 181 147 293
q145 112 369 112q202 0 339 -89q136 -88 136 -224q0 -51 -33 -85t-82 -34q-53 0 -88 34t-35 85q0 81 72 106q-85 101 -274 103q-147 0 -242 -62q-96 -63 -96 -168q0 -103 119 -178q64 -41 113 -63q57 -27 140 -60z" />
    <glyph glyph-name="scaron" unicode="&#x161;" horiz-adv-x="1067" 
d="M836 1423l-254 -247h-82l-254 247l57 58l238 -142l237 142zM600 625q17 -7 32.5 -14t25.5 -11.5t13 -5.5q1 -1 23.5 -11t43.5 -19q54 -26 71 -39q30 -25 55 -44q34 -28 50.5 -54t30.5 -67q13 -36 13 -79q0 -135 -111 -218q-113 -83 -304 -83q-171 0 -293 65t-123 158v2
q0 48 32 78t83 30q45 0 75.5 -30.5t30.5 -77.5q0 -55 -39 -84q74 -47 189 -47q106 0 170.5 38t64.5 101q0 59 -55 99q-52 38 -174 89q-185 79 -256 138q-104 90 -105 211q0 133 114 214q115 80 294 80q155 0 261 -57t108 -143v-2q0 -47 -31 -78t-76 -31q-49 0 -82 31t-33 78
q0 48 35 80q-59 29 -143 28q-97 0 -159 -38t-62 -99t57 -101t174 -87z" />
    <glyph glyph-name="uni0162" unicode="&#x162;" horiz-adv-x="1337" 
d="M795 1333v-1333h-70l-76 -106q23 4 37 4q82 0 137 -49q54 -48 54 -119q0 -78 -66 -129q-67 -50 -162 -50q-116 0 -184 74l47 64q44 -39 109 -39q49 0 78.5 23.5t29.5 62.5q0 36 -25.5 60t-62.5 24q-53 0 -76 -35l-57 37l108 178h-71v1333h-461v101h1167v-101h-456z" />
    <glyph glyph-name="uni0163" unicode="&#x163;" horiz-adv-x="864" 
d="M528 -20h-8l-61 -86q23 4 37 4q83 0 136 -49q54 -48 54 -119q0 -78 -65 -129q-67 -50 -162 -50q-117 0 -185 74l48 64q44 -39 108 -39q49 0 79 23.5t30 62.5q0 36 -25.5 60t-62.5 24q-53 0 -76 -35l-58 37l105 172q-93 30 -148 97.5t-55 156.5v676h-127v100h127v227
l250 58v-285h285v-100h-285v-664q0 -67 41 -114q40 -46 104 -46q45 0 85 25t55 63l49 -59q-16 -62 -96 -106q-80 -43 -179 -43z" />
    <glyph glyph-name="Tcaron" unicode="&#x164;" horiz-adv-x="1337" 
d="M965 1812l-254 -247h-82l-254 247l57 58l238 -141l237 141zM84 1434h1167v-101h-456v-1333h-250v1333h-461v101z" />
    <glyph glyph-name="tcaron" unicode="&#x165;" horiz-adv-x="864" 
d="M655 1493h217l-157 -324h-101zM614 100q45 0 85 25t55 63l49 -59q-16 -62 -96 -106q-79 -43 -179 -43q-132 0 -221 77q-88 76 -88 191v676h-127v100h127v227l250 58v-285h285v-100h-285v-664q0 -67 41 -114q40 -46 104 -46z" />
    <glyph glyph-name="Tbar" unicode="&#x166;" horiz-adv-x="1337" 
d="M1251 1434v-101h-456v-567h174v-98h-174v-668h-250v668h-176v98h176v567h-461v101h1167z" />
    <glyph glyph-name="tbar" unicode="&#x167;" horiz-adv-x="864" 
d="M754 188l49 -59q-16 -62 -96 -106q-79 -43 -179 -43q-132 0 -221 77q-88 76 -88 191v317h-115v99h115v260h-127v100h127v227l250 58v-285h285v-100h-285v-260h236v-99h-236v-305q0 -67 41 -114q40 -46 104 -46q46 0 86 25t54 63z" />
    <glyph glyph-name="Utilde" unicode="&#x168;" horiz-adv-x="1613" 
d="M965 1579q-39 -2 -79 18t-67 45.5t-57 46t-51 19.5q-90 0 -97 -121h-96q0 118 55 191q54 73 142 73q69 0 145 -65q74 -66 111 -66q41 0 66.5 33t29.5 88h96q0 -118 -55 -189q-55 -73 -143 -73zM840 -20q-281 0 -461 162q-180 161 -180 425v867h250v-899q0 -193 120 -308
q119 -116 320 -116q194 0 306 115q112 113 112 309v899h108v-906q0 -250 -153 -399q-155 -149 -422 -149z" />
    <glyph glyph-name="utilde" unicode="&#x169;" horiz-adv-x="1341" 
d="M537 1319q-90 0 -97 -121h-96q0 118 55 191q54 73 142 73q69 0 145 -65q74 -66 111 -66q41 0 66.5 33t29.5 88h96q0 -118 -55 -189q-55 -73 -143 -73q-32 -2 -64 11t-57 33t-48 39.5t-45 33t-40 12.5zM897 324v661l250 49v-1034h-250v186q-52 -91 -151 -149
q-99 -57 -214 -57q-153 0 -253 97q-101 98 -101 247v661l250 49v-712q0 -85 56 -144t141 -59q81 0 158 56q75 55 114 149z" />
    <glyph glyph-name="Umacron" unicode="&#x16a;" horiz-adv-x="1613" 
d="M1096 1632h-512v156h512v-156zM840 -20q-281 0 -461 162q-180 161 -180 425v867h250v-899q0 -193 120 -308q119 -116 320 -116q194 0 306 115q112 113 112 309v899h108v-906q0 -250 -153 -399q-155 -149 -422 -149z" />
    <glyph glyph-name="umacron" unicode="&#x16b;" horiz-adv-x="1341" 
d="M410 1399h512v-156h-512v156zM897 324v661l250 49v-1034h-250v186q-52 -91 -151 -149q-99 -57 -214 -57q-153 0 -253 97q-101 98 -101 247v661l250 49v-712q0 -85 56 -144t141 -59q81 0 158 56q75 55 114 149z" />
    <glyph glyph-name="Ubreve" unicode="&#x16c;" horiz-adv-x="1613" 
d="M842 1561q-118 0 -207 84q-88 84 -88 204h100q8 -60 63 -97q55 -38 132 -38t132 38q54 38 62 97h101q-1 -121 -90 -204q-89 -84 -205 -84zM840 -20q-281 0 -461 162q-180 161 -180 425v867h250v-899q0 -193 120 -308q119 -116 320 -116q194 0 306 115q112 113 112 309
v899h108v-906q0 -250 -153 -399q-155 -149 -422 -149z" />
    <glyph glyph-name="ubreve" unicode="&#x16d;" horiz-adv-x="1341" 
d="M668 1171q-118 0 -207 84q-88 84 -88 205h100q8 -60 63 -97q55 -38 132 -38q76 0 132 38q54 38 62 97h101q-1 -121 -90 -205t-205 -84zM897 324v661l250 49v-1034h-250v186q-52 -91 -151 -149q-99 -57 -214 -57q-153 0 -253 97q-101 98 -101 247v661l250 49v-712
q0 -85 56 -144t141 -59q81 0 158 56q75 55 114 149z" />
    <glyph glyph-name="Uring" unicode="&#x16e;" horiz-adv-x="1613" 
d="M844 1542q-77 0 -127 49q-51 49 -51 121q0 74 51 124q52 50 127 50q74 0 122 -50t48 -124q0 -72 -48 -121t-122 -49zM844 1618q41 0 65.5 25.5t24.5 68.5q0 45 -24.5 71.5t-65.5 26.5q-43 0 -71 -27t-28 -71q0 -42 28 -68t71 -26zM840 -20q-281 0 -461 162
q-180 161 -180 425v867h250v-899q0 -193 120 -308q119 -116 320 -116q194 0 306 115q112 113 112 309v899h108v-906q0 -250 -153 -399q-155 -149 -422 -149z" />
    <glyph glyph-name="uring" unicode="&#x16f;" horiz-adv-x="1341" 
d="M670 1153q-77 0 -127 49q-51 50 -51 121q0 75 51 124q52 50 127 50q74 0 122 -50t48 -124q0 -71 -48 -121q-48 -49 -122 -49zM670 1421q-43 0 -71 -27t-28 -71q0 -42 28 -68t71 -26q41 0 65.5 25.5t24.5 68.5q0 45 -24.5 71.5t-65.5 26.5zM897 324v661l250 49v-1034h-250
v186q-52 -91 -151 -149q-99 -57 -214 -57q-153 0 -253 97q-101 98 -101 247v661l250 49v-712q0 -85 56 -144t141 -59q81 0 158 56q75 55 114 149z" />
    <glyph glyph-name="Uhungarumlaut" unicode="&#x170;" horiz-adv-x="1613" 
d="M700 1575h-106l117 283h237zM1053 1575h-107l117 283h237zM840 -20q-281 0 -461 162q-180 161 -180 425v867h250v-899q0 -193 120 -308q119 -116 320 -116q194 0 306 115q112 113 112 309v899h108v-906q0 -250 -153 -399q-155 -149 -422 -149z" />
    <glyph glyph-name="uhungarumlaut" unicode="&#x171;" horiz-adv-x="1341" 
d="M539 1468h237l-248 -282h-106zM1128 1468l-247 -282h-107l117 282h237zM897 324v661l250 49v-1034h-250v186q-52 -91 -151 -149q-99 -57 -214 -57q-153 0 -253 97q-101 98 -101 247v661l250 49v-712q0 -85 56 -144t141 -59q81 0 158 56q75 55 114 149z" />
    <glyph glyph-name="Uogonek" unicode="&#x172;" horiz-adv-x="1613" 
d="M1307 535v899h108v-906q0 -216 -115 -358q-116 -144 -323 -178q-80 -43 -128 -101.5t-48 -113.5q0 -47 32.5 -78t84.5 -31q51 0 86 35l38 -78q-59 -74 -186 -74q-89 0 -150 47q-61 48 -61 117q0 67 53 140q51 72 138 125q-279 1 -458 164q-179 161 -179 423v867h250v-899
q0 -193 120 -308q119 -116 320 -116q194 0 306 115q112 113 112 309z" />
    <glyph glyph-name="uogonek" unicode="&#x173;" horiz-adv-x="1341" 
d="M1155 -297l39 -78q-59 -74 -186 -74q-89 0 -150 47q-61 48 -61 117q0 77 64 156q63 79 165 129h-129v186q-52 -91 -151 -149q-99 -57 -214 -57q-153 0 -253 97q-101 98 -101 247v661l250 49v-712q0 -85 56 -144t141 -59q81 0 158 56q75 55 114 149v661l250 49v-1034h-2
q-87 -44 -139 -105q-54 -62 -54 -118q0 -47 33 -78t84 -31t86 35z" />
    <glyph glyph-name="Wcircumflex" unicode="&#x174;" horiz-adv-x="2347" 
d="M1425 1565l-237 141l-238 -141l-57 57l254 248h82l254 -248zM1653 324l479 1110h127l-629 -1434h-96l-360 825l-363 -825h-96l-627 1434h264l482 -1110l276 647l-203 463h264z" />
    <glyph glyph-name="wcircumflex" unicode="&#x175;" horiz-adv-x="1734" 
d="M1120 1176l-237 141l-238 -141l-57 57l254 248h82l254 -248zM1260 322l301 702h127l-449 -1024h-96l-266 606l-267 -606h-96l-448 1024h264l303 -700l180 430l-119 270h262z" />
    <glyph glyph-name="Ycircumflex" unicode="&#x176;" horiz-adv-x="1464" 
d="M971 1565l-238 141l-237 -141l-58 57l254 248h82l254 -248zM805 731l440 703h131l-518 -820v-614h-250v614l-520 820h274z" />
    <glyph glyph-name="ycircumflex" unicode="&#x177;" horiz-adv-x="1107" 
d="M823 1176l-237 141l-238 -141l-57 57l254 248h82l254 -248zM637 332l295 692h127l-596 -1358q-59 -137 -209 -137q-73 0 -128 47q-54 46 -54 111q0 47 32.5 78.5t79.5 31.5q45 0 76 -31.5t31 -78.5q0 -36 -19 -64q61 6 90 68l148 344l-436 989h264z" />
    <glyph glyph-name="Ydieresis" unicode="&#x178;" horiz-adv-x="1464" 
d="M616 1600q-34 -33 -85 -33t-86 33q-35 32 -35 81q0 51 34.5 86t87.5 35q51 0 84 -33.5t33 -84.5q0 -52 -33 -84zM1019 1600q-35 -33 -85 -33q-52 0 -86 33q-35 32 -35 84q0 51 35 84.5t88 33.5q51 0 84 -33.5t33 -84.5q0 -53 -34 -84zM805 731l440 703h131l-518 -820
v-614h-250v614l-520 820h274z" />
    <glyph glyph-name="Zacute" unicode="&#x179;" horiz-adv-x="1374" 
d="M745 1858h302l-306 -283h-104zM150 1434h1103v-33l-819 -1301h817v-100h-1130v33l819 1300h-790v101z" />
    <glyph glyph-name="zacute" unicode="&#x17a;" horiz-adv-x="1077" 
d="M588 1468h301l-305 -282h-105zM150 1024h819v-33l-539 -891h535v-100h-846v33l536 891h-505v100z" />
    <glyph glyph-name="Zdotaccent" unicode="&#x17b;" horiz-adv-x="1374" 
d="M723 1561q-53 0 -91 35t-38 88t38 88.5t93 35.5q53 0 89 -35.5t36 -88.5q0 -54 -36 -88.5t-91 -34.5zM150 1434h1103v-33l-819 -1301h817v-100h-1130v33l819 1300h-790v101z" />
    <glyph glyph-name="zdotaccent" unicode="&#x17c;" horiz-adv-x="1077" 
d="M565 1171q-53 0 -91 35t-38 89q0 53 38 88.5t93 35.5q53 0 89 -35.5t36 -88.5q0 -54 -36 -89t-91 -35zM150 1024h819v-33l-539 -891h535v-100h-846v33l536 891h-505v100z" />
    <glyph glyph-name="Zcaron" unicode="&#x17d;" horiz-adv-x="1374" 
d="M1018 1812l-254 -247h-82l-254 247l57 58l238 -141l238 141zM150 1434h1103v-33l-819 -1301h817v-100h-1130v33l819 1300h-790v101z" />
    <glyph glyph-name="zcaron" unicode="&#x17e;" horiz-adv-x="1077" 
d="M860 1423l-254 -247h-82l-254 247l58 58l237 -142l238 142zM150 1024h819v-33l-539 -891h535v-100h-846v33l536 891h-505v100z" />
    <glyph glyph-name="florin" unicode="&#x192;" horiz-adv-x="1345" 
d="M1255 1245q0 -51 -31.5 -84t-80.5 -33q-51 0 -85 33t-34 84q0 53 41 88q-23 4 -39 4q-74 0 -122 -47t-62 -141l-43 -301h223l-4 -98h-234l-112 -793q-19 -141 -130 -236q-109 -94 -255 -94q-121 0 -201 60q-80 62 -80 151q0 49 33 82t80 33q51 0 86 -33t35 -82
q0 -55 -41 -90q17 -4 37 -4q156 0 182 188l119 818h-131l4 98h141l41 278q19 140 129 235q108 93 254 93q118 0 200 -59q80 -60 80 -150z" />
    <glyph glyph-name="uni01C4" unicode="&#x1c4;" horiz-adv-x="2955" 
d="M2595 1812l-252 -247h-84l-252 247l55 58l240 -141l238 141zM213 1434h559q332 0 553 -206t221 -511t-221 -511t-553 -206h-559v1434zM1729 1434h1103v-33l-819 -1301h817v-100h-1130v33l819 1300h-790v101zM463 100h280q246 0 396 169q149 170 149 448q0 277 -149 447
q-150 169 -396 169h-280v-1233z" />
    <glyph glyph-name="uni01C5" unicode="&#x1c5;" horiz-adv-x="2750" 
d="M2531 1423l-254 -247h-82l-253 247l57 58l237 -142l238 142zM213 1434h559q332 0 553 -206t221 -511t-221 -511t-553 -206h-559v1434zM463 100h280q246 0 396 169q149 170 149 448q0 277 -149 447q-150 169 -396 169h-280v-1233zM1821 1024h819v-33l-539 -891h535v-100
h-846v33l537 891h-506v100z" />
    <glyph glyph-name="uni01C6" unicode="&#x1c6;" horiz-adv-x="2457" 
d="M936 866v580l250 49v-1495h-250v141q-129 -162 -340 -161q-198 0 -335 153q-136 151 -136 379q0 224 135 379q135 153 332 153q104 0 197 -48q92 -48 147 -130zM2241 1423l-254 -247h-82l-254 247l57 58l238 -142l237 142zM1530 1024h819v-33l-539 -891h535v-100h-846v33
l537 891h-506v100zM678 113q168 0 258 155v480q-95 162 -264 161q-130 0 -209 -109q-80 -110 -80 -288q0 -180 81 -289q81 -110 214 -110z" />
    <glyph glyph-name="uni01C7" unicode="&#x1c7;" horiz-adv-x="2537" 
d="M213 1434h250v-1334h735v-100h-985v1434zM2089 432v1002h250v-975q0 -221 -141 -350q-142 -129 -371 -129q-203 0 -332 96t-129 246q0 58 40 95q41 38 99 38q57 0 94 -38t37 -95q0 -51 -29 -87t-77 -45q78 -100 239 -100q153 0 236.5 90.5t83.5 251.5z" />
    <glyph glyph-name="uni01C8" unicode="&#x1c8;" horiz-adv-x="1986" 
d="M1671 1188q-64 0 -105 40q-42 41 -42 101q0 59 42 99q41 40 105 40q59 0 98 -39.5t39 -99.5q0 -61 -39 -101t-98 -40zM463 100h735v-100h-985v1434h250v-1334zM1542 -160v1145l250 49v-1171q0 -143 -109 -239q-110 -95 -270 -95q-126 0 -208 55q-83 56 -83 137
q0 51 33 84t82 33q54 0 88.5 -33t34.5 -84q0 -48 -35 -83q6 -2 21 -3q88 0 142 57q54 58 54 148z" />
    <glyph glyph-name="uni01C9" unicode="&#x1c9;" horiz-adv-x="1286" 
d="M193 1446l249 49v-1495h-249v1446zM971 1188q-64 0 -105 40q-43 40 -43 101q0 59 42 99q41 40 106 40q59 0 98 -39.5t39 -99.5q0 -61 -39 -101t-98 -40zM842 -160v1145l250 49v-1171q0 -143 -110 -239q-110 -95 -269 -95q-126 0 -208 55q-83 56 -83 137q0 51 32.5 84
t82.5 33q53 0 87.5 -32.5t34.5 -84.5q0 -49 -34 -83q6 -1 20 -3q87 0 143 57q54 58 54 148z" />
    <glyph glyph-name="uni01CA" unicode="&#x1ca;" horiz-adv-x="2883" 
d="M367 1434l933 -1041v1041h107v-1434h-70l-1015 1126v-1126h-109v1434h154zM2435 432v1002h250v-975q0 -221 -141 -350q-142 -129 -371 -129q-203 0 -332 96t-129 246q0 58 40 95q41 38 99 38q57 0 94 -38t37 -95q0 -51 -29 -87t-77 -45q78 -100 240 -100q153 0 236 90.5
t83 251.5z" />
    <glyph glyph-name="uni01CB" unicode="&#x1cb;" horiz-adv-x="2281" 
d="M1966 1188q-64 0 -105 40q-42 41 -42 101q0 59 42 99q41 40 105 40q59 0 98 -39.5t39 -99.5q0 -61 -39 -101t-98 -40zM367 1434l933 -1041v1041h107v-1434h-70l-1015 1126v-1126h-109v1434h154zM1837 -160v1145l250 49v-1171q0 -143 -109 -239q-110 -95 -270 -95
q-126 0 -208 55q-83 56 -83 137q0 51 33 84t82 33q54 0 88.5 -33t34.5 -84q0 -48 -35 -83q6 -1 20 -3q88 0 143 57q54 58 54 148z" />
    <glyph glyph-name="uni01CC" unicode="&#x1cc;" horiz-adv-x="2019" 
d="M1704 1188q-64 0 -105 40q-43 40 -43 101q0 59 42 99q41 40 106 40q59 0 98 -39.5t39 -99.5q0 -61 -39 -101t-98 -40zM1176 700v-700h-250v702q0 86 -57 145q-58 58 -144 58q-87 0 -164 -55q-79 -56 -119 -145v-705h-249v985l249 49v-194q56 93 156 148q101 56 219 56
q155 0 258 -98q101 -98 101 -246zM1575 -160v1145l250 49v-1171q0 -143 -109 -239q-110 -95 -270 -95q-126 0 -208 55q-83 56 -83 137q0 51 33 84t82 33q54 0 88.5 -33t34.5 -84q0 -48 -35 -83q6 -1 20 -3q88 0 143 57q54 58 54 148z" />
    <glyph glyph-name="uni01CD" unicode="&#x1cd;" horiz-adv-x="1527" 
d="M1061 1812l-254 -247h-82l-254 247l57 58l238 -141l238 141zM1440 0h-264l-164 377h-635l-162 -377h-127l629 1434h96zM694 1110l-274 -635h549z" />
    <glyph glyph-name="uni01CE" unicode="&#x1ce;" horiz-adv-x="1275" 
d="M938 1423l-254 -247h-82l-254 247l58 58l237 -142l238 142zM621 1044q209 0 345 -105t136 -265v-674h-250v133q-62 -68 -162 -110q-101 -43 -211 -43q-150 0 -254 83t-104 205q0 126 122 212q121 85 308 85q200 0 301 -65v182q0 117 -73 189q-74 71 -197 71
q-109 0 -181 -45q47 -38 48 -98q0 -53 -35 -89t-88 -36q-55 0 -93 35.5t-38 89.5q0 105 124 175t302 70zM590 121q78 0 148.5 32.5t113.5 86.5v163q-72 58 -221 60q-119 0 -185.5 -46t-66.5 -128q0 -75 59 -122q58 -46 152 -46z" />
    <glyph glyph-name="Gcaron" unicode="&#x1e6;" horiz-adv-x="1677" 
d="M1194 1812l-254 -247h-82l-254 247l58 58l237 -141l238 141zM1268 240v366h239v-606h-77l-72 117q-155 -137 -461 -137q-323 0 -546 212q-222 212 -222 527q0 313 223 524t559 211q233 0 391 -102q158 -104 158 -258q0 -57 -37 -94t-94 -37q-60 0 -98.5 37t-38.5 94
q0 46 27 81t71 48q-92 116 -311 114q-277 0 -434 -168q-158 -169 -158 -464q0 -285 144 -455q143 -170 387 -170q133 0 225 42t125 118z" />
    <glyph glyph-name="gcaron" unicode="&#x1e7;" horiz-adv-x="1374" 
d="M979 1423l-254 -247h-82l-254 247l57 58l238 -142l238 142zM938 862v123l250 49v-1093q0 -176 -148 -294t-376 -118q-184 0 -311 73q-128 74 -128 185q0 53 36 87t91 34q51 0 85 -35t34 -86q0 -70 -55 -104q75 -48 192 -50q143 0 237 85q93 86 93 212v213
q-128 -164 -342 -163q-198 0 -335 153q-136 151 -136 379q0 224 135 379q135 153 332 153q107 0 199 -49q92 -50 147 -133zM678 113q80 0 149 43t111 116v471q-94 166 -266 166q-130 0 -209 -109q-80 -110 -80 -288q0 -180 81 -289q81 -110 214 -110z" />
    <glyph glyph-name="uni01EA" unicode="&#x1ea;" horiz-adv-x="1771" 
d="M1061 -2q-85 -44 -136 -104q-53 -61 -53 -117q0 -47 33 -78t84 -31t86 35l39 -78q-59 -74 -186 -74q-89 0 -150 47q-61 48 -61 117q0 70 53 141q51 70 139 124h-22q-324 0 -541 211q-217 210 -217 526q0 315 217 526t541 211t539 -211q216 -211 216 -526
q0 -267 -161 -467q-162 -200 -420 -252zM525 1180q-138 -174 -138 -463t138 -463q137 -174 362 -174t361 174q136 173 136 463t-136 463q-136 174 -361 174t-362 -174z" />
    <glyph glyph-name="uni01EB" unicode="&#x1eb;" horiz-adv-x="1349" 
d="M811 -6q-82 -43 -132 -102.5t-50 -114.5q0 -47 32.5 -78t84.5 -31q50 0 85 35l39 -78q-59 -74 -186 -74q-89 0 -150 47q-61 48 -61 117q0 67 53 140q51 72 138 125q-230 4 -385 156q-154 151 -154 376q0 227 157 380q157 152 392 152t393 -152q158 -153 158 -380
q0 -194 -115 -334q-115 -141 -299 -184zM383 512q0 -200 79 -315q80 -117 212 -117q134 0 213 117q80 116 80 315q0 202 -79 317t-214 115q-133 0 -212 -115t-79 -317z" />
    <glyph glyph-name="uni01F1" unicode="&#x1f1;" horiz-adv-x="2955" 
d="M213 1434h559q332 0 553 -206t221 -511t-221 -511t-553 -206h-559v1434zM1729 1434h1103v-33l-819 -1301h817v-100h-1130v33l819 1300h-790v101zM463 100h280q246 0 396 169q149 170 149 448q0 277 -149 447q-150 169 -396 169h-280v-1233z" />
    <glyph glyph-name="uni01F2" unicode="&#x1f2;" horiz-adv-x="2750" 
d="M213 1434h559q332 0 553 -206t221 -511t-221 -511t-553 -206h-559v1434zM463 100h280q246 0 396 169q149 170 149 448q0 277 -149 447q-150 169 -396 169h-280v-1233zM1821 1024h819v-33l-539 -891h535v-100h-846v33l537 891h-506v100z" />
    <glyph glyph-name="uni01F3" unicode="&#x1f3;" horiz-adv-x="2457" 
d="M936 866v580l250 49v-1495h-250v141q-129 -162 -340 -161q-198 0 -335 153q-136 151 -136 379q0 224 135 379q135 153 332 153q104 0 197 -48q92 -48 147 -130zM1530 1024h819v-33l-539 -891h535v-100h-846v33l537 891h-506v100zM678 113q168 0 258 155v480
q-95 162 -264 161q-130 0 -209 -109q-80 -110 -80 -288q0 -180 81 -289q81 -110 214 -110z" />
    <glyph glyph-name="uni01F4" unicode="&#x1f4;" horiz-adv-x="1677" 
d="M922 1858h301l-305 -283h-105zM1268 240v366h239v-606h-77l-72 117q-155 -137 -461 -137q-323 0 -546 212q-222 212 -222 527q0 313 223 524t559 211q233 0 391 -102q158 -104 158 -258q0 -57 -37 -94t-94 -37q-60 0 -98.5 37t-38.5 94q0 46 27 81t71 48
q-92 116 -311 114q-277 0 -434 -168q-158 -169 -158 -464q0 -285 144 -455q143 -170 387 -170q133 0 225 42t125 118z" />
    <glyph glyph-name="uni01F5" unicode="&#x1f5;" horiz-adv-x="1374" 
d="M709 1468h301l-305 -282h-105zM938 862v123l250 49v-1093q0 -176 -148 -294t-376 -118q-184 0 -311 73q-128 74 -128 185q0 53 36 87t91 34q51 0 85 -35t34 -86q0 -70 -55 -104q75 -48 192 -50q143 0 237 85q93 86 93 212v213q-128 -164 -342 -163q-198 0 -335 153
q-136 151 -136 379q0 224 135 379q135 153 332 153q107 0 199 -49q92 -50 147 -133zM678 113q80 0 149 43t111 116v471q-94 166 -266 166q-130 0 -209 -109q-80 -110 -80 -288q0 -180 81 -289q81 -110 214 -110z" />
    <glyph glyph-name="AEacute" unicode="&#x1fc;" horiz-adv-x="1992" 
d="M1249 1858h301l-305 -283h-104zM1145 678v-578h739v-100h-989v412h-496l-237 -412h-129l833 1434h998v-101h-719v-557h555v-98h-555zM895 1270l-438 -760h438v760z" />
    <glyph glyph-name="aeacute" unicode="&#x1fd;" horiz-adv-x="2011" 
d="M1036 1468h301l-305 -282h-104zM1753 377q51 0 84 -35t33 -88q0 -117 -129 -195q-128 -79 -311 -79q-300 0 -469 210q-64 -93 -191 -151q-130 -59 -274 -59q-158 0 -266 84q-109 82 -109 204q0 126 122 212q121 85 308 85q200 0 301 -65v184q0 113 -79 186
q-79 72 -208 72q-101 0 -166 -43q48 -37 50 -100q0 -53 -35 -89t-88 -36q-55 0 -93 35.5t-38 89.5q0 105 121 175q119 70 292 70q124 0 227 -47t169 -127q164 174 393 174q211 0 350 -150q139 -151 139 -376h-776q6 -204 109.5 -316t283.5 -112q118 0 189 55q-68 35 -68 109
q0 53 37 88t92 35zM1389 944q-111 0 -185 -90t-90 -238h531q-11 152 -78 240q-69 88 -178 88zM608 123q89 0 169 41.5t128 111.5q-33 68 -45 132q-71 55 -221 55q-120 0 -190 -47t-70 -125q0 -76 64 -122q62 -46 165 -46z" />
    <glyph glyph-name="Oslashacute" unicode="&#x1fe;" horiz-adv-x="1771" 
d="M877 1858h301l-306 -283h-104zM1518 1454l-136 -172q124 -100 192 -247t68 -318q0 -315 -216 -526q-215 -211 -539 -211q-241 0 -426 120l-94 -120h-113l135 172q-124 100 -192 247t-68 318q0 315 217 526t541 211q240 0 424 -121l94 121h113zM387 717q0 -258 111 -426
l721 923q-133 139 -332 140q-225 0 -362 -174q-138 -174 -138 -463zM887 80q225 0 361 174q136 173 136 463q0 257 -110 426l-721 -924q133 -139 334 -139z" />
    <glyph glyph-name="oslashacute" unicode="&#x1ff;" horiz-adv-x="1349" 
d="M655 1468h301l-305 -282h-104zM1147 1044l-103 -131q180 -154 181 -401q0 -227 -158 -379q-157 -153 -393 -153q-167 0 -297 79l-62 -79h-112l102 131q-180 155 -180 401q0 227 157 380q157 152 392 152q165 0 299 -79l61 79h113zM383 512q0 -146 43 -248l451 580
q-76 100 -203 100q-133 0 -212 -115t-79 -317zM674 80q134 0 213 117q80 116 80 315q0 149 -43 248l-451 -580q76 -100 201 -100z" />
    <glyph glyph-name="uni0200" unicode="&#x200;" horiz-adv-x="1527" 
d="M530 1858l117 -283h-106l-248 283h237zM883 1858l116 -283h-106l-248 283h238zM1440 0h-264l-164 377h-635l-162 -377h-127l629 1434h96zM694 1110l-274 -635h549z" />
    <glyph glyph-name="uni0201" unicode="&#x201;" horiz-adv-x="1275" 
d="M408 1468l116 -282h-106l-248 282h238zM760 1468l117 -282h-107l-248 282h238zM621 1044q209 0 345 -105t136 -265v-674h-250v133q-62 -68 -162 -110q-101 -43 -211 -43q-150 0 -254 83t-104 205q0 126 122 212q121 85 308 85q200 0 301 -65v182q0 117 -73 189
q-74 71 -197 71q-109 0 -181 -45q47 -38 48 -98q0 -53 -35 -89t-88 -36q-55 0 -93 35.5t-38 89.5q0 105 124 175t302 70zM590 121q78 0 148.5 32.5t113.5 86.5v163q-72 58 -221 60q-119 0 -185.5 -46t-66.5 -128q0 -75 59 -122q58 -46 152 -46z" />
    <glyph glyph-name="uni0202" unicode="&#x202;" horiz-adv-x="1527" 
d="M899 1682q-56 38 -133 38q-79 0 -132 -37q-54 -37 -63 -98h-100q0 121 88 205q89 84 207 84q116 0 205 -84t90 -205h-100q-8 59 -62 97zM1440 0h-264l-164 377h-635l-162 -377h-127l629 1434h96zM694 1110l-274 -635h549z" />
    <glyph glyph-name="uni0203" unicode="&#x203;" horiz-adv-x="1275" 
d="M776 1293q-56 38 -133 38t-132 -38q-54 -38 -62 -97h-101q0 121 88 205t207 84q117 0 205 -84q89 -84 90 -205h-100q-8 59 -62 97zM621 1044q209 0 345 -105t136 -265v-674h-250v133q-62 -68 -162 -110q-101 -43 -211 -43q-150 0 -254 83t-104 205q0 126 122 212
q121 85 308 85q200 0 301 -65v182q0 117 -73 189q-74 71 -197 71q-109 0 -181 -45q47 -38 48 -98q0 -53 -35 -89t-88 -36q-55 0 -93 35.5t-38 89.5q0 105 124 175t302 70zM590 121q78 0 148.5 32.5t113.5 86.5v163q-72 58 -221 60q-119 0 -185.5 -46t-66.5 -128
q0 -75 59 -122q58 -46 152 -46z" />
    <glyph glyph-name="uni0204" unicode="&#x204;" horiz-adv-x="1357" 
d="M522 1858l117 -283h-107l-247 283h237zM874 1858l117 -283h-106l-248 283h237zM463 678v-578h786v-100h-1036v1434h1016v-101h-766v-557h602v-98h-602z" />
    <glyph glyph-name="uni0205" unicode="&#x205;" 
d="M418 1468l117 -282h-107l-248 282h238zM770 1468l117 -282h-107l-248 282h238zM1024 377q51 0 84 -35t33 -88q0 -117 -128 -195q-127 -79 -311 -79q-252 0 -414 153q-163 151 -163 381q0 225 157 378q157 152 382 152q215 0 355 -150q140 -152 140 -376h-776
q6 -206 106.5 -317t278.5 -111q122 0 193 57q-66 31 -66 107q0 53 37 88t92 35zM662 944q-112 0 -186 -90q-72 -89 -89 -238h531q-10 152 -78 240q-69 88 -178 88z" />
    <glyph glyph-name="uni0206" unicode="&#x206;" horiz-adv-x="1357" 
d="M888 1682q-55 38 -132 38q-79 0 -132 -37q-55 -37 -63 -98h-100q0 121 88 205q89 84 207 84q116 0 205 -84t90 -205h-101q-8 59 -62 97zM463 678v-578h786v-100h-1036v1434h1016v-101h-766v-557h602v-98h-602z" />
    <glyph glyph-name="uni0207" unicode="&#x207;" 
d="M786 1293q-56 38 -133 38t-132 -38q-54 -38 -62 -97h-101q0 121 89 205t206 84t205 -84q89 -84 90 -205h-100q-8 59 -62 97zM1024 377q51 0 84 -35t33 -88q0 -117 -128 -195q-127 -79 -311 -79q-252 0 -414 153q-163 151 -163 381q0 225 157 378q157 152 382 152
q215 0 355 -150q140 -152 140 -376h-776q6 -206 106.5 -317t278.5 -111q122 0 193 57q-66 31 -66 107q0 53 37 88t92 35zM662 944q-112 0 -186 -90q-72 -89 -89 -238h531q-10 152 -78 240q-69 88 -178 88z" />
    <glyph glyph-name="uni0208" unicode="&#x208;" horiz-adv-x="677" 
d="M104 1858l117 -283h-106l-248 283h237zM457 1858l116 -283h-106l-248 283h238zM463 0h-250v1434h250v-1434z" />
    <glyph glyph-name="uni0209" unicode="&#x209;" horiz-adv-x="636" 
d="M84 1468l117 -282h-107l-248 282h238zM436 1468l117 -282h-107l-247 282h237zM442 0h-249v985l249 49v-1034z" />
    <glyph glyph-name="uni020A" unicode="&#x20a;" horiz-adv-x="677" 
d="M340 1874q116 0 205 -84t90 -205h-100q-8 59 -62 97q-56 38 -133 38q-78 0 -132 -37.5t-63 -97.5h-100q0 121 88 205q89 84 207 84zM463 0h-250v1434h250v-1434z" />
    <glyph glyph-name="uni020B" unicode="&#x20b;" horiz-adv-x="636" 
d="M319 1485q117 0 205 -84q89 -84 90 -205h-100q-8 59 -62 97q-56 38 -132 38q-77 0 -132 -38q-55 -37 -63 -97h-100q0 121 88 205q87 84 206 84zM442 0h-249v985l249 49v-1034z" />
    <glyph glyph-name="uni020C" unicode="&#x20c;" horiz-adv-x="1771" 
d="M651 1858l117 -283h-106l-248 283h237zM1004 1858l116 -283h-106l-248 283h238zM1426 191q-215 -211 -539 -211t-541 211q-217 210 -217 526q0 315 217 526t541 211t539 -211q216 -211 216 -526q0 -316 -216 -526zM525 254q137 -174 362 -174t361 174q136 173 136 463
t-136 463q-136 174 -361 174t-362 -174q-138 -174 -138 -463t138 -463z" />
    <glyph glyph-name="uni020D" unicode="&#x20d;" horiz-adv-x="1349" 
d="M440 1468l117 -282h-106l-248 282h237zM793 1468l116 -282h-106l-248 282h238zM1067 133q-157 -153 -393 -153t-392 153q-157 151 -157 379q0 227 157 380q157 152 392 152t393 -152q158 -153 158 -380t-158 -379zM462 197q80 -117 212 -117q134 0 213 117q80 116 80 315
q0 202 -79 317t-214 115q-133 0 -212 -115t-79 -317q0 -200 79 -315z" />
    <glyph glyph-name="uni020E" unicode="&#x20e;" horiz-adv-x="1771" 
d="M887 1874q116 0 205 -84t90 -205h-101q-8 59 -62 97q-55 38 -132 38q-78 0 -132.5 -37.5t-62.5 -97.5h-100q0 121 88 205t207 84zM1426 191q-215 -211 -539 -211t-541 211q-217 210 -217 526q0 315 217 526t541 211t539 -211q216 -211 216 -526q0 -316 -216 -526z
M525 254q137 -174 362 -174t361 174q136 173 136 463t-136 463q-136 174 -361 174t-362 -174q-138 -174 -138 -463t138 -463z" />
    <glyph glyph-name="uni020F" unicode="&#x20f;" horiz-adv-x="1349" 
d="M676 1485q116 0 205 -84t90 -205h-101q-8 59 -62 97q-55 38 -132 38t-132 -38q-55 -37 -63 -97h-100q0 121 88 205q89 84 207 84zM1067 133q-157 -153 -393 -153t-392 153q-157 151 -157 379q0 227 157 380q157 152 392 152t393 -152q158 -153 158 -380t-158 -379z
M462 197q80 -117 212 -117q134 0 213 117q80 116 80 315q0 202 -79 317t-214 115q-133 0 -212 -115t-79 -317q0 -200 79 -315z" />
    <glyph glyph-name="uni0210" unicode="&#x210;" horiz-adv-x="1484" 
d="M516 1858l117 -283h-107l-247 283h237zM868 1858l117 -283h-106l-248 283h237zM1153 449l160 -293q57 -112 123 -156h-277q-57 39 -98 119l-193 368q-38 67 -86 99h-319v-586h-250v1434h590q227 0 378 -120q150 -120 150 -302q0 -146 -98 -256q-97 -110 -258 -150
q123 -43 178 -157zM748 1333h-285v-649h285q147 0 236 89t89 237q0 146 -89 235q-88 88 -236 88z" />
    <glyph glyph-name="uni0211" unicode="&#x211;" horiz-adv-x="1046" 
d="M354 1468l117 -282h-106l-248 282h237zM707 1468l116 -282h-106l-248 282h238zM745 1044q105 0 169 -57q65 -57 65 -147q0 -53 -35 -88t-88 -35q-55 0 -92 34.5t-37 88.5q0 42 27 80q-14 2 -35 2q-92 0 -167 -63q-76 -65 -110 -169v-690h-249v985l249 49v-198
q43 96 124 152t179 56z" />
    <glyph glyph-name="uni0212" unicode="&#x212;" horiz-adv-x="1484" 
d="M882 1682q-56 38 -132 38q-79 0 -132 -37q-55 -37 -63 -98h-100q0 121 88 205q89 84 207 84q116 0 205 -84q88 -84 89 -205h-100q-8 59 -62 97zM1153 449l160 -293q57 -112 123 -156h-277q-57 39 -98 119l-193 368q-38 67 -86 99h-319v-586h-250v1434h590q227 0 378 -120
q150 -120 150 -302q0 -146 -98 -256q-97 -110 -258 -150q123 -43 178 -157zM748 1333h-285v-649h285q147 0 236 89t89 237q0 146 -89 235q-88 88 -236 88z" />
    <glyph glyph-name="uni0213" unicode="&#x213;" horiz-adv-x="1046" 
d="M720 1293q-55 38 -132 38t-132 -38q-55 -37 -63 -97h-100q0 121 88 205q89 84 207 84q116 0 205 -84t90 -205h-101q-8 59 -62 97zM745 1044q105 0 169 -57q65 -57 65 -147q0 -53 -35 -88t-88 -35q-55 0 -92 34.5t-37 88.5q0 42 27 80q-14 2 -35 2q-92 0 -167 -63
q-76 -65 -110 -169v-690h-249v985l249 49v-198q43 96 124 152t179 56z" />
    <glyph glyph-name="uni0214" unicode="&#x214;" horiz-adv-x="1613" 
d="M606 1858l117 -283h-107l-247 283h237zM958 1858l117 -283h-106l-248 283h237zM840 -20q-281 0 -461 162q-180 161 -180 425v867h250v-899q0 -193 120 -308q119 -116 320 -116q194 0 306 115q112 113 112 309v899h108v-906q0 -250 -153 -399q-155 -149 -422 -149z" />
    <glyph glyph-name="uni0215" unicode="&#x215;" horiz-adv-x="1341" 
d="M432 1468l117 -282h-107l-247 282h237zM784 1468l117 -282h-106l-248 282h237zM897 324v661l250 49v-1034h-250v186q-52 -91 -151 -149q-99 -57 -214 -57q-153 0 -253 97q-101 98 -101 247v661l250 49v-712q0 -85 56 -144t141 -59q81 0 158 56q75 55 114 149z" />
    <glyph glyph-name="uni0216" unicode="&#x216;" horiz-adv-x="1613" 
d="M842 1874q116 0 205 -84t90 -205h-101q-8 59 -62 97q-55 38 -132 38q-78 0 -132.5 -37.5t-62.5 -97.5h-100q0 121 88 205q89 84 207 84zM840 -20q-281 0 -461 162q-180 161 -180 425v867h250v-899q0 -193 120 -308q119 -116 320 -116q194 0 306 115q112 113 112 309v899
h108v-906q0 -250 -153 -399q-155 -149 -422 -149z" />
    <glyph glyph-name="uni0217" unicode="&#x217;" horiz-adv-x="1341" 
d="M800 1293q-56 38 -132 38q-77 0 -132 -38q-55 -37 -63 -97h-100q0 121 88 205q89 84 207 84q116 0 205 -84t90 -205h-101q-8 59 -62 97zM897 324v661l250 49v-1034h-250v186q-52 -91 -151 -149q-99 -57 -214 -57q-153 0 -253 97q-101 98 -101 247v661l250 49v-712
q0 -85 56 -144t141 -59q81 0 158 56q75 55 114 149z" />
    <glyph glyph-name="uni0218" unicode="&#x218;" horiz-adv-x="1325" 
d="M745 819q30 -12 70.5 -28.5t45.5 -18.5q41 -16 105 -48q62 -30 99 -61q101 -86 125 -162q16 -48 16 -112q0 -183 -149 -296q-151 -113 -387 -113q-226 0 -381 97q-156 97 -156 238q0 51 35 85t88 34q49 0 82 -34t33 -85q0 -80 -70 -108q100 -121 326 -121q160 0 259 60
q99 58 99 163q0 68 -70 138q-30 27 -83 57q-48 27 -97 49q-41 18 -114 51q-20 8 -51 20.5t-42 17.5q-35 15 -89 42q-59 28 -90 51q-34 22 -74 57q-40 34 -62 69t-38 86q-15 48 -15 102q0 181 147 293q145 112 369 112q202 0 339 -89q136 -88 136 -224q0 -51 -33 -85t-82 -34
q-53 0 -88 34t-35 85q0 81 72 106q-85 101 -274 103q-147 0 -242 -62q-96 -63 -96 -168q0 -103 119 -178q64 -41 113 -63q57 -27 140 -60zM690 -127q57 0 94 -38.5t37 -98.5q0 -77 -56 -160q-55 -82 -134 -123l-41 53q65 50 88 125q-51 4 -83 39t-32 86t36 84t91 33z" />
    <glyph glyph-name="uni0219" unicode="&#x219;" horiz-adv-x="1067" 
d="M600 625q17 -7 32.5 -14t25.5 -11.5t13 -5.5q1 -1 23.5 -11t43.5 -19q54 -26 71 -39q30 -25 55 -44q34 -28 50.5 -54t30.5 -67q13 -36 13 -79q0 -135 -111 -218q-113 -83 -304 -83q-171 0 -293 65t-123 158v2q0 48 32 78t83 30q45 0 75.5 -30.5t30.5 -77.5q0 -55 -39 -84
q74 -47 189 -47q106 0 170.5 38t64.5 101q0 59 -55 99q-52 38 -174 89q-185 79 -256 138q-104 90 -105 211q0 133 114 214q115 80 294 80q155 0 261 -57t108 -143v-2q0 -47 -31 -78t-76 -31q-49 0 -82 31t-33 78q0 48 35 80q-59 29 -143 28q-97 0 -159 -38t-62 -99t57 -101
t174 -87zM547 -127q57 0 94 -38.5t37 -98.5q0 -77 -56 -160q-57 -82 -135 -123l-41 53q66 51 89 125q-51 4 -83 39t-32 86t36 84t91 33z" />
    <glyph glyph-name="uni021A" unicode="&#x21a;" horiz-adv-x="1337" 
d="M84 1434h1167v-101h-456v-1333h-250v1333h-461v101zM668 -127q57 0 94 -38.5t37 -98.5q0 -77 -56 -160q-57 -82 -135 -123l-41 53q65 50 88 125q-51 4 -82.5 39t-31.5 86t36 84t91 33z" />
    <glyph glyph-name="uni021B" unicode="&#x21b;" horiz-adv-x="864" 
d="M754 188l49 -59q-16 -62 -96 -106q-79 -43 -179 -43q-132 0 -221 77q-88 76 -88 191v676h-127v100h127v227l250 58v-285h285v-100h-285v-664q0 -67 41 -114q40 -46 104 -46q46 0 86 25t54 63zM477 -127q57 0 94 -38.5t37 -98.5q0 -77 -56 -160q-55 -82 -134 -123l-41 53
q65 50 88 125q-51 4 -83 39t-32 86t36 84t91 33z" />
    <glyph glyph-name="uni0232" unicode="&#x232;" horiz-adv-x="1464" 
d="M475 1788h512v-156h-512v156zM805 731l440 703h131l-518 -820v-614h-250v614l-520 820h274z" />
    <glyph glyph-name="uni0233" unicode="&#x233;" horiz-adv-x="1107" 
d="M328 1399h512v-156h-512v156zM637 332l295 692h127l-596 -1358q-59 -137 -209 -137q-73 0 -128 47q-54 46 -54 111q0 47 32.5 78.5t79.5 31.5q45 0 76 -31.5t31 -78.5q0 -36 -19 -64q61 6 90 68l148 344l-436 989h264z" />
    <glyph glyph-name="uni0237" unicode="&#x237;" horiz-adv-x="641" 
d="M205 -160v1145l250 49v-1171q0 -143 -109 -239q-110 -95 -270 -95q-126 0 -208 55q-83 56 -83 137q0 51 32.5 84t82.5 33q54 0 88.5 -33t34.5 -84q0 -47 -31 -81h6q91 0 150 56q57 56 57 144z" />
    <glyph glyph-name="uni02BC" unicode="&#x2bc;" horiz-adv-x="258" 
d="M100 1130h-100l41 324h217z" />
    <glyph glyph-name="circumflex" unicode="&#x2c6;" horiz-adv-x="589" 
d="M336 1481l254 -248l-58 -57l-237 141l-238 -141l-57 57l254 248h82z" />
    <glyph glyph-name="caron" unicode="&#x2c7;" horiz-adv-x="589" 
d="M295 1339l237 142l58 -58l-254 -247h-82l-254 247l57 58z" />
    <glyph glyph-name="breve" unicode="&#x2d8;" horiz-adv-x="589" 
d="M295 1171q-119 0 -207 84t-88 205h100q8 -60 63 -97q55 -38 132 -38t132 38q54 38 62 97h101q-1 -121 -90 -205t-205 -84z" />
    <glyph glyph-name="dotaccent" unicode="&#x2d9;" horiz-adv-x="256" 
d="M129 1171q-53 0 -91 35t-38 89q0 53 38 88.5t93 35.5q53 0 89 -35.5t36 -88.5q0 -54 -36 -89t-91 -35z" />
    <glyph glyph-name="ring" unicode="&#x2da;" horiz-adv-x="348" 
d="M178 1153q-77 0 -127 49q-51 50 -51 121q0 75 51 124q52 50 127 50q74 0 122 -50q48 -49 48 -124q0 -71 -48 -121q-48 -49 -122 -49zM178 1229q41 0 65.5 25.5t24.5 68.5q0 45 -24.5 71.5t-65.5 26.5q-43 0 -70.5 -27t-27.5 -71q0 -42 27.5 -68t70.5 -26z" />
    <glyph glyph-name="ogonek" unicode="&#x2db;" horiz-adv-x="397" 
d="M211 -449q-89 0 -150 47q-61 48 -61 117q0 77 64 156q63 79 165 129l-14 14h117l16 -14q-87 -44 -139 -105q-53 -62 -53 -118q0 -47 32.5 -78t84.5 -31q50 0 85 35l39 -78q-59 -74 -186 -74z" />
    <glyph glyph-name="tilde" unicode="&#x2dc;" horiz-adv-x="645" 
d="M446 1190q-74 0 -145 65q-71 64 -108 64q-90 0 -97 -121h-96q0 118 55 191q54 73 142 73q69 0 145 -65q74 -66 111 -66q41 0 66.5 33t29.5 88h96q0 -118 -55 -189q-55 -73 -144 -73z" />
    <glyph glyph-name="hungarumlaut" unicode="&#x2dd;" horiz-adv-x="706" 
d="M106 1186h-106l117 282h237zM459 1186h-107l117 282h238z" />
    <glyph glyph-name="gravecomb" unicode="&#x300;" horiz-adv-x="0" 
d="M-410 1186h-104l-306 282h301z" />
    <glyph glyph-name="acutecomb" unicode="&#x301;" horiz-adv-x="0" 
d="M-410 1468l-305 -282h-105l109 282h301z" />
    <glyph glyph-name="uni0302" unicode="&#x302;" horiz-adv-x="0" 
d="M-254 1481l254 -248l-57 -57l-238 141l-237 -141l-58 57l254 248h82z" />
    <glyph glyph-name="tildecomb" unicode="&#x303;" horiz-adv-x="0" 
d="M-199 1190q-39 -2 -78.5 18t-66.5 45.5t-57 46t-52 19.5q-90 0 -96 -121h-96q0 118 54 191t142 73q69 0 145 -65q75 -66 111 -66q41 0 67 33t30 88h96q0 -116 -56 -189q-55 -73 -143 -73z" />
    <glyph glyph-name="uni0304" unicode="&#x304;" horiz-adv-x="0" 
d="M-512 1243h-512v156h512v-156z" />
    <glyph glyph-name="uni0306" unicode="&#x306;" horiz-adv-x="0" 
d="M-295 1171q-119 0 -207 84t-88 205h101q8 -59 62 -97q55 -38 132 -38q78 0 132 37.5t63 97.5h100q-1 -121 -90 -205t-205 -84z" />
    <glyph glyph-name="uni0307" unicode="&#x307;" horiz-adv-x="0" 
d="M-127 1171q-53 0 -91 35t-38 89q0 53 38 88.5t93 35.5q53 0 89 -35.5t36 -88.5q0 -54 -36 -89t-91 -35z" />
    <glyph glyph-name="uni0308" unicode="&#x308;" horiz-adv-x="0" 
d="M-437 1211q-35 -33 -85 -33q-52 0 -86 33q-35 32 -35 81q0 51 35 86t88 35q51 0 84 -33.5t33 -84.5q0 -53 -34 -84zM-34 1211q-34 -33 -85 -33t-86 33q-35 32 -35 84q0 51 35 84.5t88 33.5q51 0 84 -33.5t33 -84.5q0 -53 -34 -84z" />
    <glyph glyph-name="uni030A" unicode="&#x30a;" horiz-adv-x="0" 
d="M-170 1153q-77 0 -127 49q-51 50 -51 121q0 75 51 124q52 50 127 50q74 0 122 -50q48 -49 48 -124q0 -71 -48 -121q-48 -49 -122 -49zM-170 1229q41 0 65.5 25.5t24.5 68.5q0 45 -24.5 71.5t-65.5 26.5q-43 0 -70.5 -27t-27.5 -71q0 -42 27.5 -68t70.5 -26z" />
    <glyph glyph-name="uni030B" unicode="&#x30b;" horiz-adv-x="0" 
d="M-600 1186h-107l117 282h238zM-248 1186h-106l116 282h238z" />
    <glyph glyph-name="uni030C" unicode="&#x30c;" horiz-adv-x="0" 
d="M-295 1339l238 142l57 -58l-254 -247h-82l-254 247l58 58z" />
    <glyph glyph-name="uni030F" unicode="&#x30f;" horiz-adv-x="0" 
d="M-469 1468l117 -282h-107l-248 282h238zM-117 1468l117 -282h-106l-248 282h237z" />
    <glyph glyph-name="uni0311" unicode="&#x311;" horiz-adv-x="0" 
d="M-295 1485q117 0 205 -84q89 -84 90 -205h-100q-8 60 -63 97q-55 38 -132 38t-132 -38q-54 -38 -62 -97h-101q0 121 88 205t207 84z" />
    <glyph glyph-name="uni0312" unicode="&#x312;" horiz-adv-x="0" 
d="M-115 1397q51 -4 83 -39t32 -86t-36 -84t-91 -33q-57 0 -94 38.5t-37 98.5q0 77 56 160q57 82 134 123l41 -53q-66 -52 -88 -125z" />
    <glyph glyph-name="dotbelowcomb" unicode="&#x323;" horiz-adv-x="0" 
d="M-127 -377q-53 0 -91 35t-38 88t38 89t93 36q53 0 89 -36t36 -89t-36 -88t-91 -35z" />
    <glyph glyph-name="uni0326" unicode="&#x326;" horiz-adv-x="0" 
d="M-131 -127q57 0 94 -38.5t37 -98.5q0 -78 -57 -160q-55 -82 -133 -123l-41 53q65 50 88 125q-51 4 -83 39t-32 86t36 84t91 33z" />
    <glyph glyph-name="uni0327" unicode="&#x327;" horiz-adv-x="0" 
d="M-190 -102q83 0 136 -49q54 -48 54 -119q0 -78 -66 -129q-65 -50 -161 -50q-117 0 -185 74l47 64q43 -39 109 -39q49 0 79 23.5t30 62.5q0 36 -26 60t-63 24q-52 0 -75 -35l-58 37l115 188h111l-84 -116q23 4 37 4z" />
    <glyph glyph-name="uni0328" unicode="&#x328;" horiz-adv-x="0" 
d="M-186 -449q-89 0 -151 47q-60 48 -60 117q0 77 63 156q65 80 166 129l-14 14h116l17 -14q-86 -44 -140 -105q-53 -62 -53 -118q0 -47 33 -78t84 -31t86 35l39 -78q-59 -74 -186 -74z" />
    <glyph glyph-name="uni0335" unicode="&#x335;" horiz-adv-x="0" 
d="M-600 504h-600v98h600v-98z" />
    <glyph glyph-name="uni0336" unicode="&#x336;" horiz-adv-x="0" 
d="M-1542 504h-1542v98h1542v-98z" />
    <glyph glyph-name="uni0337" unicode="&#x337;" horiz-adv-x="0" 
d="M-831 -20h-113l831 1064h113z" />
    <glyph glyph-name="uni0338" unicode="&#x338;" horiz-adv-x="0" 
d="M-1151 -20h-113l1151 1474h113z" />
    <glyph glyph-name="uni1E0C" unicode="&#x1e0c;" horiz-adv-x="1675" 
d="M213 1434h559q332 0 553 -206t221 -511t-221 -511t-553 -206h-559v1434zM463 100h280q246 0 396 169q149 170 149 448q0 277 -149 447q-150 169 -396 169h-280v-1233zM827 -129q53 0 89 -36t36 -89q0 -54 -35.5 -88.5t-91.5 -34.5q-53 0 -91 35t-38 88t38 89t93 36z" />
    <glyph glyph-name="uni1E0D" unicode="&#x1e0d;" horiz-adv-x="1380" 
d="M936 866v580l250 49v-1495h-250v141q-129 -162 -340 -161q-198 0 -335 153q-136 151 -136 379q0 224 135 379q135 153 332 153q104 0 197 -48q92 -48 147 -130zM678 113q168 0 258 155v480q-95 162 -264 161q-130 0 -209 -109q-80 -110 -80 -288q0 -180 81 -289
q81 -110 214 -110zM700 -129q53 0 89 -36t36 -89q0 -54 -35.5 -88.5t-91.5 -34.5q-53 0 -91 35t-38 88t38 89q37 36 93 36z" />
    <glyph glyph-name="uni1E24" unicode="&#x1e24;" horiz-adv-x="1687" 
d="M1223 776v658h250v-1434h-250v678h-760v-678h-250v1434h250v-658h760zM846 -129q53 0 89 -36t36 -89t-36 -88t-91 -35q-53 0 -91 35t-38 88t38 89q37 36 93 36z" />
    <glyph glyph-name="uni1E25" unicode="&#x1e25;" horiz-adv-x="1349" 
d="M815 1044q155 0 259 -98q102 -98 102 -246v-700h-250v702q0 86 -57 145q-58 58 -144 58q-87 0 -164 -55q-79 -56 -119 -145v-705h-249v1446l249 49v-657q56 94 156 150q101 56 217 56zM692 -129q53 0 89 -36t36 -89t-36 -88t-91 -35q-53 0 -91 35t-38 88t38 89
q37 36 93 36z" />
    <glyph glyph-name="uni1E44" unicode="&#x1e44;" horiz-adv-x="1622" 
d="M840 1561q-53 0 -91 35t-38 88t37.5 88.5t93.5 35.5q53 0 89 -35.5t36 -88.5q0 -54 -36 -88.5t-91 -34.5zM1300 393v1041h107v-1434h-70l-1015 1126v-1126h-109v1434h154z" />
    <glyph glyph-name="uni1E45" unicode="&#x1e45;" horiz-adv-x="1349" 
d="M686 1171q-53 0 -91 35t-38 89q0 53 38 88.5t93 35.5q53 0 89 -35.5t36 -88.5q0 -54 -36 -89t-91 -35zM817 1044q155 0 258 -98q101 -98 101 -246v-700h-250v702q0 86 -57 145q-58 58 -144 58q-87 0 -164 -55q-79 -56 -119 -145v-705h-249v985l249 49v-194q56 93 156 148
q101 56 219 56z" />
    <glyph glyph-name="uni1E5A" unicode="&#x1e5a;" horiz-adv-x="1484" 
d="M1153 449l160 -293q57 -112 123 -156h-277q-57 39 -98 119l-193 368q-38 67 -86 99h-319v-586h-250v1434h590q227 0 378 -120q150 -120 150 -302q0 -146 -98 -256q-97 -110 -258 -150q123 -43 178 -157zM748 1333h-285v-649h285q147 0 236 89t89 237q0 146 -89 235
q-88 88 -236 88zM803 -129q53 0 89 -36t36 -89t-36 -88t-91 -35q-53 0 -91 35t-38 88t38 89t93 36z" />
    <glyph glyph-name="uni1E5B" unicode="&#x1e5b;" horiz-adv-x="1046" 
d="M745 1044q105 0 169 -57q65 -57 65 -147q0 -53 -35 -88t-88 -35q-55 0 -92 34.5t-37 88.5q0 42 27 80q-14 2 -35 2q-92 0 -167 -63q-76 -65 -110 -169v-690h-249v985l249 49v-198q43 96 124 152t179 56zM326 -129q53 0 89 -36t36 -89t-36 -88t-91 -35q-53 0 -91 35
t-38 88t38 89q37 36 93 36z" />
    <glyph glyph-name="uni1E62" unicode="&#x1e62;" horiz-adv-x="1325" 
d="M745 819q30 -12 70.5 -28.5t45.5 -18.5q41 -16 105 -48q62 -30 99 -61q101 -86 125 -162q16 -48 16 -112q0 -183 -149 -296q-151 -113 -387 -113q-226 0 -381 97q-156 97 -156 238q0 51 35 85t88 34q49 0 82 -34t33 -85q0 -80 -70 -108q100 -121 326 -121q160 0 259 60
q99 58 99 163q0 68 -70 138q-30 27 -83 57q-48 27 -97 49q-41 18 -114 51q-20 8 -51 20.5t-42 17.5q-35 15 -89 42q-59 28 -90 51q-34 22 -74 57q-40 34 -62 69t-38 86q-15 48 -15 102q0 181 147 293q145 112 369 112q202 0 339 -89q136 -88 136 -224q0 -51 -33 -85t-82 -34
q-53 0 -88 34t-35 85q0 81 72 106q-85 101 -274 103q-147 0 -242 -62q-96 -63 -96 -168q0 -103 119 -178q64 -41 113 -63q57 -27 140 -60zM694 -129q53 0 89 -36t36 -89q0 -54 -35.5 -88.5t-91.5 -34.5q-53 0 -91 35t-38 88t38 89q37 36 93 36z" />
    <glyph glyph-name="uni1E63" unicode="&#x1e63;" horiz-adv-x="1067" 
d="M600 625q17 -7 32.5 -14t25.5 -11.5t13 -5.5q1 -1 23.5 -11t43.5 -19q54 -26 71 -39q30 -25 55 -44q34 -28 50.5 -54t30.5 -67q13 -36 13 -79q0 -135 -111 -218q-113 -83 -304 -83q-171 0 -293 65t-123 158v2q0 48 32 78t83 30q45 0 75.5 -30.5t30.5 -77.5q0 -55 -39 -84
q74 -47 189 -47q106 0 170.5 38t64.5 101q0 59 -55 99q-52 38 -174 89q-185 79 -256 138q-104 90 -105 211q0 133 114 214q115 80 294 80q155 0 261 -57t108 -143v-2q0 -47 -31 -78t-76 -31q-49 0 -82 31t-33 78q0 48 35 80q-59 29 -143 28q-97 0 -159 -38t-62 -99t57 -101
t174 -87zM551 -129q53 0 89 -36t36 -89t-36 -88t-91 -35q-53 0 -91 35t-38 88t38 89t93 36z" />
    <glyph glyph-name="uni1E6C" unicode="&#x1e6c;" horiz-adv-x="1337" 
d="M84 1434h1167v-101h-456v-1333h-250v1333h-461v101zM672 -129q53 0 89 -36t36 -89t-36 -88t-91 -35q-53 0 -91 35t-38 88t38 89q37 36 93 36z" />
    <glyph glyph-name="uni1E6D" unicode="&#x1e6d;" horiz-adv-x="864" 
d="M754 188l49 -59q-16 -62 -96 -106q-79 -43 -179 -43q-132 0 -221 77q-88 76 -88 191v676h-127v100h127v227l250 58v-285h285v-100h-285v-664q0 -67 41 -114q40 -46 104 -46q46 0 86 25t54 63zM481 -129q53 0 89 -36t36 -89q0 -54 -35.5 -88.5t-91.5 -34.5q-53 0 -91 35
t-38 88t38 89t93 36z" />
    <glyph glyph-name="Wgrave" unicode="&#x1e80;" horiz-adv-x="2347" 
d="M1163 1858l109 -283h-105l-305 283h301zM1653 324l479 1110h127l-629 -1434h-96l-360 825l-363 -825h-96l-627 1434h264l482 -1110l276 647l-203 463h264z" />
    <glyph glyph-name="wgrave" unicode="&#x1e81;" horiz-adv-x="1734" 
d="M860 1468l109 -282h-105l-305 282h301zM1260 322l301 702h127l-449 -1024h-96l-266 606l-267 -606h-96l-448 1024h264l303 -700l180 430l-119 270h262z" />
    <glyph glyph-name="Wacute" unicode="&#x1e82;" horiz-adv-x="2347" 
d="M1210 1858h301l-305 -283h-104zM1653 324l479 1110h127l-629 -1434h-96l-360 825l-363 -825h-96l-627 1434h264l482 -1110l276 647l-203 463h264z" />
    <glyph glyph-name="wacute" unicode="&#x1e83;" horiz-adv-x="1734" 
d="M907 1468h301l-305 -282h-104zM1260 322l301 702h127l-449 -1024h-96l-266 606l-267 -606h-96l-448 1024h264l303 -700l180 430l-119 270h262z" />
    <glyph glyph-name="Wdieresis" unicode="&#x1e84;" horiz-adv-x="2347" 
d="M1070 1600q-34 -33 -85 -33t-86 33q-35 32 -35 81q0 51 35 86t88 35q51 0 84 -33.5t33 -84.5q0 -53 -34 -84zM1474 1600q-34 -33 -85 -33t-86 33q-35 32 -35 84q0 51 34.5 84.5t88.5 33.5q51 0 83.5 -33.5t32.5 -84.5q0 -52 -33 -84zM1653 324l479 1110h127l-629 -1434
h-96l-360 825l-363 -825h-96l-627 1434h264l482 -1110l276 647l-203 463h264z" />
    <glyph glyph-name="wdieresis" unicode="&#x1e85;" horiz-adv-x="1734" 
d="M767 1211q-35 -33 -85 -33q-52 0 -86 33q-35 32 -35 81q0 51 35 86t88 35q51 0 84 -33.5t33 -84.5q0 -53 -34 -84zM1171 1211q-35 -33 -85 -33q-52 0 -86 33q-35 32 -35 84q0 51 34.5 84.5t87.5 33.5q51 0 84 -33.5t33 -84.5q0 -53 -33 -84zM1260 322l301 702h127
l-449 -1024h-96l-266 606l-267 -606h-96l-448 1024h264l303 -700l180 430l-119 270h262z" />
    <glyph glyph-name="uni1E92" unicode="&#x1e92;" horiz-adv-x="1374" 
d="M150 1434h1103v-33l-819 -1301h817v-100h-1130v33l819 1300h-790v101zM725 -129q53 0 89 -36t36 -89t-36 -88t-91 -35q-53 0 -91 35t-38 88t38 89t93 36z" />
    <glyph glyph-name="uni1E93" unicode="&#x1e93;" horiz-adv-x="1077" 
d="M150 1024h819v-33l-539 -891h535v-100h-846v33l536 891h-505v100zM567 -129q53 0 89 -36t36 -89q0 -54 -35.5 -88.5t-91.5 -34.5q-53 0 -91 35t-38 88t38 89t93 36z" />
    <glyph glyph-name="uni1E9E" unicode="&#x1e9e;" horiz-adv-x="1609" 
d="M1376 1346l-403 -502q230 -6 384 -130t154 -311q0 -179 -140 -301t-347 -122q-180 0 -301 91t-121 224q0 54 37 89.5t92 35.5q53 0 88 -35t35 -90q0 -94 -86 -121q70 -76 193 -76q138 0 217 88t79 234q0 145 -92 235q-91 90 -235 90h-109v89l314 499h-451q-97 0 -158 -64
q-63 -65 -63 -165v-1104h-250v1071q0 157 124 260t306 103h733v-88z" />
    <glyph glyph-name="uni1EA0" unicode="&#x1ea0;" horiz-adv-x="1527" 
d="M813 1434l627 -1434h-264l-164 377h-635l-162 -377h-127l629 1434h96zM694 1110l-274 -635h549zM768 -129q53 0 89 -36t36 -89t-36 -88t-91 -35q-53 0 -91 35t-38 88t38 89q37 36 93 36z" />
    <glyph glyph-name="uni1EA1" unicode="&#x1ea1;" horiz-adv-x="1275" 
d="M621 1044q209 0 345 -105t136 -265v-674h-250v133q-62 -68 -162 -110q-101 -43 -211 -43q-150 0 -254 83t-104 205q0 126 122 212q121 85 308 85q200 0 301 -65v182q0 117 -73 189q-74 71 -197 71q-109 0 -181 -45q47 -38 48 -98q0 -53 -35 -89t-88 -36q-55 0 -93 35.5
t-38 89.5q0 105 124 175t302 70zM590 121q78 0 148.5 32.5t113.5 86.5v163q-72 58 -221 60q-119 0 -185.5 -46t-66.5 -128q0 -75 59 -122q58 -46 152 -46zM645 -129q53 0 89 -36t36 -89t-36 -88t-91 -35q-53 0 -91 35t-38 88t38 89t93 36z" />
    <glyph glyph-name="uni1EB8" unicode="&#x1eb8;" horiz-adv-x="1357" 
d="M463 678v-578h786v-100h-1036v1434h1016v-101h-766v-557h602v-98h-602zM758 -129q53 0 89 -36t36 -89t-36 -88t-91 -35q-53 0 -91 35t-38 88t38 89q37 36 93 36z" />
    <glyph glyph-name="uni1EB9" unicode="&#x1eb9;" 
d="M1024 377q51 0 84 -35t33 -88q0 -117 -128 -195q-127 -79 -311 -79q-252 0 -414 153q-163 151 -163 381q0 225 157 378q157 152 382 152q215 0 355 -150q140 -152 140 -376h-776q6 -206 106.5 -317t278.5 -111q122 0 193 57q-66 31 -66 107q0 53 37 88t92 35zM662 944
q-112 0 -186 -90q-72 -89 -89 -238h531q-10 152 -78 240q-69 88 -178 88zM659 -129q53 0 89 -36t36 -89q0 -54 -35.5 -88.5t-91.5 -34.5q-53 0 -91 35t-38 88t38 89t93 36z" />
    <glyph glyph-name="uni1EBC" unicode="&#x1ebc;" horiz-adv-x="1357" 
d="M625 1708q-90 0 -97 -121h-96q0 118 55 191q54 73 142 73q69 0 145 -65q74 -66 111 -66q41 0 66.5 33t29.5 88h96q0 -118 -55 -189q-55 -73 -143 -73q-39 -2 -79 18t-66.5 45.5t-57 46t-51.5 19.5zM463 678v-578h786v-100h-1036v1434h1016v-101h-766v-557h602v-98h-602z
" />
    <glyph glyph-name="uni1EBD" unicode="&#x1ebd;" 
d="M522 1319q-90 0 -96 -121h-96q0 118 54 191t142 73q69 0 145 -65q73 -66 111 -66q41 0 66.5 32.5t30.5 88.5h96q0 -118 -55 -189q-55 -73 -144 -73q-39 -2 -78.5 18t-66.5 45.5t-57 46t-52 19.5zM1024 377q51 0 84 -35t33 -88q0 -117 -128 -195q-127 -79 -311 -79
q-252 0 -414 153q-163 151 -163 381q0 225 157 378q157 152 382 152q215 0 355 -150q140 -152 140 -376h-776q6 -206 106.5 -317t278.5 -111q122 0 193 57q-66 31 -66 107q0 53 37 88t92 35zM662 944q-112 0 -186 -90q-72 -89 -89 -238h531q-10 152 -78 240q-69 88 -178 88z
" />
    <glyph glyph-name="uni1ECA" unicode="&#x1eca;" horiz-adv-x="677" 
d="M463 0h-250v1434h250v-1434zM340 -377q-53 0 -91 35t-38 88t38 89q37 36 93 36q53 0 89 -36t36 -89t-36 -88t-91 -35z" />
    <glyph glyph-name="uni1ECB" unicode="&#x1ecb;" horiz-adv-x="641" 
d="M326 1188q-64 0 -105 40q-43 40 -43 101q0 59 42 99q41 40 106 40q59 0 98 -39.5t39 -99.5q0 -61 -39 -101t-98 -40zM446 0h-249v985l249 49v-1034zM322 -377q-53 0 -91 35t-38 88t37.5 89t93.5 36q53 0 89 -36t36 -89t-36 -88t-91 -35z" />
    <glyph glyph-name="uni1ECC" unicode="&#x1ecc;" horiz-adv-x="1771" 
d="M1426 191q-215 -211 -539 -211t-541 211q-217 210 -217 526q0 315 217 526t541 211t539 -211q216 -211 216 -526q0 -316 -216 -526zM525 254q137 -174 362 -174t361 174q136 173 136 463t-136 463q-136 174 -361 174t-362 -174q-138 -174 -138 -463t138 -463zM887 -377
q-53 0 -91 35t-38 88t38 89t93 36q53 0 89 -36t36 -89t-36 -88t-91 -35z" />
    <glyph glyph-name="uni1ECD" unicode="&#x1ecd;" horiz-adv-x="1349" 
d="M1067 133q-157 -153 -393 -153t-392 153q-157 151 -157 379q0 227 157 380q157 152 392 152t393 -152q158 -153 158 -380t-158 -379zM462 197q80 -117 212 -117q134 0 213 117q80 116 80 315q0 202 -79 317t-214 115q-133 0 -212 -115t-79 -317q0 -200 79 -315zM676 -377
q-53 0 -91 35t-38 88t38 89q37 36 93 36q53 0 89 -36t36 -89t-36 -88t-91 -35z" />
    <glyph glyph-name="uni1EE4" unicode="&#x1ee4;" horiz-adv-x="1613" 
d="M840 -20q-281 0 -461 162q-180 161 -180 425v867h250v-899q0 -193 120 -308q119 -116 320 -116q194 0 306 115q112 113 112 309v899h108v-906q0 -250 -153 -399q-155 -149 -422 -149zM842 -377q-53 0 -91 35t-38 88t37.5 89t93.5 36q53 0 89 -36t36 -89t-36 -88t-91 -35z
" />
    <glyph glyph-name="uni1EE5" unicode="&#x1ee5;" horiz-adv-x="1341" 
d="M897 324v661l250 49v-1034h-250v186q-52 -91 -151 -149q-99 -57 -214 -57q-153 0 -253 97q-101 98 -101 247v661l250 49v-712q0 -85 56 -144t141 -59q81 0 158 56q75 55 114 149zM670 -129q53 0 89 -36t36 -89t-36 -88t-91 -35q-53 0 -91 35t-38 88t38 89q37 36 93 36z
" />
    <glyph glyph-name="Ygrave" unicode="&#x1ef2;" horiz-adv-x="1464" 
d="M709 1858l108 -283h-104l-305 283h301zM805 731l440 703h131l-518 -820v-614h-250v614l-520 820h274z" />
    <glyph glyph-name="ygrave" unicode="&#x1ef3;" horiz-adv-x="1107" 
d="M561 1468l109 -282h-105l-305 282h301zM637 332l295 692h127l-596 -1358q-59 -137 -209 -137q-73 0 -128 47q-54 46 -54 111q0 47 32.5 78.5t79.5 31.5q45 0 76 -31.5t31 -78.5q0 -36 -19 -64q61 6 90 68l148 344l-436 989h264z" />
    <glyph glyph-name="uni1EF8" unicode="&#x1ef8;" horiz-adv-x="1464" 
d="M602 1708q-90 0 -96 -121h-96q0 118 54 191t142 73q69 0 145 -65q73 -66 111 -66q41 0 66.5 33t29.5 88h97q0 -118 -55 -189q-55 -73 -144 -73q-74 0 -145 65q-71 64 -109 64zM805 731l440 703h131l-518 -820v-614h-250v614l-520 820h274z" />
    <glyph glyph-name="uni1EF9" unicode="&#x1ef9;" horiz-adv-x="1107" 
d="M455 1319q-90 0 -97 -121h-96q0 118 55 191q54 73 142 73q69 0 145 -65q74 -66 111 -66q41 0 66.5 33t29.5 88h96q0 -118 -55 -189q-55 -73 -143 -73q-71 0 -144 65q-73 64 -110 64zM637 332l295 692h127l-596 -1358q-59 -137 -209 -137q-73 0 -128 47q-54 46 -54 111
q0 47 32.5 78.5t79.5 31.5q45 0 76 -31.5t31 -78.5q0 -36 -19 -64q61 6 90 68l148 344l-436 989h264z" />
    <glyph glyph-name="endash" unicode="&#x2013;" horiz-adv-x="1523" 
d="M1354 504h-1186v98h1186v-98z" />
    <glyph glyph-name="emdash" unicode="&#x2014;" horiz-adv-x="2547" 
d="M2378 504h-2210v98h2210v-98z" />
    <glyph glyph-name="quoteleft" unicode="&#x2018;" horiz-adv-x="534" 
d="M252 1217h6q67 0 113 -44q45 -45 45 -112q0 -65 -45 -112q-45 -46 -111 -46q-69 0 -116 53q-46 52 -46 129q0 116 73 229q74 114 181 161l43 -76q-108 -58 -143 -182z" />
    <glyph glyph-name="quoteright" unicode="&#x2019;" horiz-adv-x="534" 
d="M274 1454q70 0 116 -51q46 -50 46 -131q0 -116 -72 -228q-74 -115 -182 -161l-43 75q49 27 88 77t54 106h-7q-66 0 -110 45q-45 45 -45 111q0 65 45 111q43 46 110 46z" />
    <glyph glyph-name="quotesinglbase" unicode="&#x201a;" horiz-adv-x="542" 
d="M272 303q70 0 116 -51q46 -50 46 -131q0 -115 -72 -229q-75 -114 -182 -160l-43 75q49 27 88 77t54 106h-7q-66 0 -110 45q-45 45 -45 111q0 64 45 111q43 46 110 46z" />
    <glyph glyph-name="quotedblleft" unicode="&#x201c;" horiz-adv-x="952" 
d="M252 1217h6q67 0 113 -44q45 -45 45 -112q0 -65 -45 -112q-45 -46 -111 -46q-69 0 -116 53q-46 52 -46 129q0 116 73 229q74 114 181 161l43 -76q-108 -58 -143 -182zM672 1217h6q65 0 111 -44q45 -45 45 -112q0 -65 -45 -112q-46 -46 -111 -46q-70 0 -115 53
q-45 52 -45 129q0 116 73 229q74 114 181 161l41 -76q-111 -62 -141 -182z" />
    <glyph glyph-name="quotedblright" unicode="&#x201d;" horiz-adv-x="952" 
d="M274 1454q70 0 116 -51q46 -50 46 -131q0 -116 -72 -228q-74 -115 -182 -161l-43 75q49 27 88 77t54 106h-7q-66 0 -110 45q-45 45 -45 111q0 65 45 111q43 46 110 46zM694 1454q70 0 115 -51t45 -131q0 -116 -72 -228q-74 -115 -182 -161l-41 75q49 27 88 77t53 106h-6
q-66 0 -110 45q-45 45 -45 111q0 65 45 111q43 46 110 46z" />
    <glyph glyph-name="quotedblbase" unicode="&#x201e;" horiz-adv-x="962" 
d="M272 303q70 0 116 -51q46 -50 46 -131q0 -115 -72 -229q-75 -114 -182 -160l-43 75q49 27 88 77t54 106h-7q-66 0 -110 45q-45 45 -45 111q0 64 45 111q43 46 110 46zM692 303q70 0 115 -51t45 -131q0 -115 -72 -229q-75 -114 -182 -160l-41 75q49 27 88 77t53 106h-6
q-66 0 -110 45q-45 45 -45 111q0 64 45 111q43 46 110 46z" />
    <glyph glyph-name="dagger" unicode="&#x2020;" horiz-adv-x="847" 
d="M498 1135h211v-99h-217q-15 -272 -17 -604h-100q-1 303 -19 604h-215v99h211q-14 208 -14 217q0 44 25.5 73t62.5 29t61.5 -28.5t24.5 -73.5q0 -9 -14 -217z" />
    <glyph glyph-name="daggerdbl" unicode="&#x2021;" horiz-adv-x="847" 
d="M709 1036h-230q-2 -42 -2 -102q0 -61 2 -105h230v-98h-222q5 -48 15 -119q10 -70 10 -100q0 -42 -25 -71t-61 -29q-37 0 -62.5 28.5t-25.5 71.5q0 30 10 100q7 51 14 119h-221v98h230q2 44 2 105q0 62 -2 102h-230v99h224q-3 32 -12.5 95t-10.5 72q-4 25 -4 52
q0 43 25.5 71.5t62.5 28.5t61.5 -28.5t24.5 -71.5q0 -34 -15 -130q-7 -47 -12 -89h224v-99z" />
    <glyph glyph-name="bullet" unicode="&#x2022;" horiz-adv-x="759" 
d="M533 405q-60 -61 -150 -61q-91 0 -152 61q-63 60 -63 150q0 91 63 152q61 61 152 61q90 0 150 -61q59 -62 59 -152q0 -89 -59 -150z" />
    <glyph glyph-name="ellipsis" unicode="&#x2026;" horiz-adv-x="1490" 
d="M276 -10q-68 0 -113 45q-46 45 -46 111t46 112q47 47 113 47t111 -47q45 -46 45 -112t-45 -111t-111 -45zM748 -10q-68 0 -114 45t-46 111t46 112q47 47 114 47q66 0 111 -47q44 -47 44 -112t-44 -111q-45 -45 -111 -45zM1219 -10q-67 0 -114 45q-46 45 -46 111t46 112
q47 47 114 47q66 0 111 -47q44 -47 44 -112t-44 -111q-45 -45 -111 -45z" />
    <glyph glyph-name="perthousand" unicode="&#x2030;" horiz-adv-x="2267" 
d="M637 893q-88 -94 -219 -94q-132 0 -220 94q-89 95 -89 234q0 138 89 233q88 94 220 94q131 0 219 -94t88 -233q0 -140 -88 -234zM369 0h-115l922 1434h114zM418 893q66 0 104.5 62.5t38.5 171.5q0 108 -39 170.5t-104 62.5q-68 0 -107 -62.5t-39 -170.5q0 -109 39 -171.5
t107 -62.5zM1350 74q-88 -94 -219 -94q-133 0 -221 94q-89 95 -89 233q0 139 89 234q88 94 221 94q131 0 219 -94t88 -234q0 -139 -88 -233zM2070 74q-90 -94 -221 -94q-132 0 -220 94q-89 95 -89 233q0 139 89 234q88 94 220 94q131 0 221 -94q89 -95 89 -234
q0 -138 -89 -233zM1130 74q66 0 105 63t39 171t-39 170.5t-105 62.5q-68 0 -106.5 -62.5t-38.5 -170.5q0 -109 38.5 -171.5t106.5 -62.5zM1744 137q41 -63 106 -63q64 0 105 63q40 61 40 171q0 109 -40 171q-41 62 -105 62q-65 0 -106 -62q-40 -62 -40 -171q0 -110 40 -171z
" />
    <glyph glyph-name="guilsinglleft" unicode="&#x2039;" horiz-adv-x="638" 
d="M295 553q70 -64 139 -167q66 -100 96 -191l-77 -29q-51 81 -158 186q-113 109 -221 189v24q116 85 221 190q108 107 158 185l77 -29q-32 -93 -97 -191q-67 -102 -138 -167z" />
    <glyph glyph-name="guilsinglright" unicode="&#x203a;" horiz-adv-x="638" 
d="M109 911l79 29q51 -80 159 -186q106 -105 218 -189v-24q-117 -87 -218 -188q-105 -105 -159 -187l-79 29q32 90 98 192q63 98 137 166q-74 68 -137 166q-67 102 -98 192z" />
    <glyph glyph-name="fraction" unicode="&#x2044;" horiz-adv-x="313" 
d="M-248 0h-112l921 1434h113z" />
    <glyph glyph-name="uni2070" unicode="&#x2070;" horiz-adv-x="1171" 
d="M586 766q-160 0 -266 127q-107 128 -107 316q0 187 107 315q106 127 266 127q159 0 265 -127q107 -128 107 -315q0 -188 -107 -316q-106 -127 -265 -127zM586 850q86 0 135 95t49 263t-49 263.5t-135 95.5q-88 0 -138 -96q-51 -97 -51 -263t51 -262q50 -96 138 -96z" />
    <glyph glyph-name="uni2074" unicode="&#x2074;" horiz-adv-x="1118" 
d="M784 1075h121v-82h-121v-215h-180v215h-391v47l420 598h151v-563zM604 1464l-272 -389h272v389z" />
    <glyph glyph-name="uni2075" unicode="&#x2075;" horiz-adv-x="1032" 
d="M504 1348q137 0 226 -83t89 -210t-90 -208t-231 -81q-125 0 -205 60q-80 59 -80 145q0 39 26.5 64.5t67.5 25.5q39 0 64.5 -25.5t25.5 -64.5q0 -53 -43 -80q43 -27 109 -27q81 0 125.5 53t44.5 144t-44 143.5t-122 52.5q-89 0 -141 -57l-68 37l49 401h459l-16 -143h-383
l-27 -195q68 48 164 48z" />
    <glyph glyph-name="uni2076" unicode="&#x2076;" horiz-adv-x="1079" 
d="M590 1317q112 0 195 -77q81 -76 81 -189q0 -121 -91 -203t-222 -82q-150 0 -245 110t-95 289q0 200 109 343q108 143 270 143q94 0 161 -49q66 -50 66 -119q0 -39 -27.5 -65.5t-68.5 -26.5q-37 0 -62.5 26.5t-25.5 65.5q0 43 29 67q-18 6 -37 6q-104 0 -164 -90t-66 -258
q52 109 193 109zM437 900q38 -50 104 -50q65 0 101 49t36 139q0 179 -137 181q-141 0 -142 -181q0 -88 38 -138z" />
    <glyph glyph-name="uni2077" unicode="&#x2077;" horiz-adv-x="1024" 
d="M213 1638h598v-28q-136 -157 -210 -389q-73 -230 -56 -443h-209q12 140 87 336q76 198 208 381h-418v143z" />
    <glyph glyph-name="uni2078" unicode="&#x2078;" horiz-adv-x="1050" 
d="M674 1243q166 -85 166 -221q0 -114 -93 -185q-95 -71 -231 -71q-128 0 -216 62q-87 62 -87 155q0 67 38.5 126t100.5 93q-121 79 -121 201q0 111 85 180q86 68 210 68q116 0 195 -59q78 -60 78 -148q0 -60 -34 -115t-91 -86zM543 1565q-72 0 -117 -32t-45 -83
q0 -32 32 -64q33 -33 68 -51q37 -19 105 -51q2 -1 12 -4.5t12 -5.5q90 51 90 143q0 62 -44 106q-45 42 -113 42zM504 852q82 0 134 32t52 83q0 49 -65 91l-60 36q-44 22 -84 41q-46 22 -69 34q-101 -51 -103 -155q0 -69 56 -116q55 -46 139 -46z" />
    <glyph glyph-name="uni2079" unicode="&#x2079;" horiz-adv-x="1079" 
d="M526 1651q147 0 244 -109q96 -110 96 -291q0 -199 -105 -342q-107 -143 -261 -143q-101 0 -171 49q-71 50 -71 119q0 39 27.5 65.5t68.5 26.5q37 0 62.5 -26.5t25.5 -65.5q0 -40 -26 -68q20 -6 45 -6q211 0 217 346q-21 -47 -71.5 -76.5t-117.5 -29.5q-115 0 -195 77
q-81 77 -81 189q0 121 91 203t222 82zM397 1378q0 -180 140 -180q139 0 139 180q0 90 -36 139.5t-103 49.5q-66 0 -103 -49.5t-37 -139.5z" />
    <glyph glyph-name="uni2080" unicode="&#x2080;" horiz-adv-x="1171" 
d="M586 -217q-160 0 -266 127q-107 128 -107 316q0 187 107 315q106 127 266 127q159 0 265 -127q107 -128 107 -315q0 -188 -107 -316q-106 -127 -265 -127zM586 -133q86 0 135 95t49 263t-49 263.5t-135 95.5q-88 0 -138 -96q-51 -98 -51 -263q0 -166 51 -262
q50 -96 138 -96z" />
    <glyph glyph-name="uni2081" unicode="&#x2081;" horiz-adv-x="778" 
d="M444 655h121v-860h-182v707q-63 -60 -162 -82l-8 84q62 17 128 59q67 44 103 92z" />
    <glyph glyph-name="uni2082" unicode="&#x2082;" horiz-adv-x="995" 
d="M563 78l-153 -139h372v-144h-561v33l211 266q58 74 82 110q32 47 55 103q25 59 25 115q0 72 -37 110.5t-104 38.5q-65 0 -109 -36q53 -23 53 -84q0 -39 -25.5 -65t-64.5 -26q-41 0 -67.5 26t-26.5 65q0 90 79 154q80 63 202 63q121 0 204 -65q82 -66 82 -163
q0 -93 -51 -177t-166 -185z" />
    <glyph glyph-name="uni2083" unicode="&#x2083;" horiz-adv-x="1019" 
d="M647 244q75 -31 117.5 -88.5t42.5 -128.5q0 -106 -86 -175q-85 -69 -223 -69q-126 0 -205 54q-80 54 -80 138q0 39 26.5 65t67.5 26q39 0 64.5 -26t25.5 -65q0 -54 -43 -79q46 -23 109 -23q78 0 122 42t44 116q0 78 -46 126t-122 48h-84v74h84q66 0 105.5 43t39.5 112
q0 66 -39 105t-106 39q-55 0 -96 -23q45 -25 45 -80q0 -39 -26 -64.5t-65 -25.5q-41 0 -67.5 25.5t-26.5 64.5q0 83 77 139q76 54 198 54q124 0 204 -63q78 -65 78 -165q0 -128 -135 -196z" />
    <glyph glyph-name="uni2084" unicode="&#x2084;" horiz-adv-x="1118" 
d="M784 92h121v-82h-121v-215h-180v215h-391v47l420 598h151v-563zM604 481l-272 -389h272v389z" />
    <glyph glyph-name="uni2085" unicode="&#x2085;" horiz-adv-x="1032" 
d="M504 365q137 0 226 -83t89 -210t-90 -208t-231 -81q-125 0 -205 59q-80 60 -80 146q0 39 26.5 64.5t67.5 25.5q39 0 64.5 -25.5t25.5 -64.5q0 -53 -43 -80q44 -27 109 -27q81 0 125.5 53t44.5 144t-44 143.5t-122 52.5q-89 0 -141 -57l-68 37l49 401h459l-16 -143h-383
l-27 -195q68 48 164 48z" />
    <glyph glyph-name="uni2086" unicode="&#x2086;" horiz-adv-x="1079" 
d="M590 334q112 0 195 -77q81 -77 81 -189q0 -121 -91 -203t-222 -82q-151 0 -245 109q-95 110 -95 290q0 200 109 343q108 143 270 143q94 0 161 -49q66 -49 66 -119q0 -39 -27.5 -65.5t-68.5 -26.5q-37 0 -62.5 26.5t-25.5 65.5q0 43 29 67q-18 6 -37 6q-104 0 -164 -90
t-66 -258q52 109 193 109zM437 -83q38 -50 104 -50q65 0 101 49t36 139q0 179 -137 181q-141 0 -142 -181q0 -88 38 -138z" />
    <glyph glyph-name="uni2087" unicode="&#x2087;" horiz-adv-x="1024" 
d="M213 655h598v-28q-136 -157 -210 -389q-73 -230 -56 -443h-209q12 139 87 336q76 198 208 381h-418v143z" />
    <glyph glyph-name="uni2088" unicode="&#x2088;" horiz-adv-x="1050" 
d="M674 260q166 -85 166 -221q0 -115 -93 -186q-94 -70 -231 -70q-130 0 -216 61q-87 62 -87 156q0 67 38.5 126t100.5 93q-121 79 -121 201q0 111 85 180q86 68 210 68q116 0 195 -59q78 -60 78 -148q0 -60 -34 -115t-91 -86zM543 582q-72 0 -117 -32t-45 -83q0 -32 32 -64
q33 -33 68 -51q37 -20 105 -51q2 -2 12 -5.5t12 -4.5q90 51 90 143q0 62 -44 106q-45 42 -113 42zM504 -131q82 0 134 32t52 83q0 49 -65 91l-60 36q-44 22 -84 41q-46 22 -69 34q-101 -51 -103 -155q0 -69 56 -116q55 -46 139 -46z" />
    <glyph glyph-name="uni2089" unicode="&#x2089;" horiz-adv-x="1079" 
d="M526 668q147 0 244 -109q96 -109 96 -291q0 -200 -105 -342q-107 -143 -261 -143q-101 0 -171 49q-71 50 -71 119q0 39 27.5 65.5t68.5 26.5q37 0 62.5 -26.5t25.5 -65.5q0 -40 -26 -68q22 -6 45 -6q211 0 217 346q-21 -47 -71.5 -76.5t-117.5 -29.5q-115 0 -195 77
q-81 76 -81 189q0 121 91 203t222 82zM397 395q0 -180 140 -180q139 0 139 180q0 90 -36 139.5t-103 49.5q-66 0 -103 -49.5t-37 -139.5z" />
    <glyph glyph-name="franc" unicode="&#x20a3;" horiz-adv-x="1249" 
d="M1145 1434v-101h-660v-565h496v-100h-496v-240h277v-98h-277v-330h-249v330h-136v98h136v1006h909z" />
    <glyph glyph-name="uni20A8" unicode="&#x20a8;" horiz-adv-x="2535" 
d="M1153 449l160 -293q57 -112 123 -156h-277q-57 39 -98 119l-193 368q-38 67 -86 99h-319v-586h-250v1434h590q227 0 378 -120q150 -120 150 -302q0 -146 -98 -256q-97 -110 -258 -150q123 -43 178 -157zM748 1333h-285v-649h285q147 0 236 89t89 237q0 146 -89 235
q-88 88 -236 88zM2068 625q17 -7 32.5 -14t25.5 -11.5t13 -5.5q1 -1 23.5 -11t43.5 -19q52 -26 72 -39q30 -25 55 -44q34 -28 50 -53t31 -68q13 -36 13 -79q0 -135 -111 -218q-113 -83 -305 -83q-171 0 -293 65t-123 158v2q0 47 32 77.5t83 30.5q45 0 76 -30.5t31 -77.5
q0 -55 -39 -84q74 -47 188 -47q106 0 171 38t65 101q0 59 -55 99q-51 37 -175 89q-185 79 -256 138q-104 90 -104 211q0 133 114 214q113 80 293 80q155 0 261 -57t108 -143v-2q0 -47 -30.5 -78t-76.5 -31q-49 0 -81.5 31t-32.5 78q0 48 35 80q-59 29 -144 28
q-97 0 -159 -38t-62 -99t57 -101t174 -87z" />
    <glyph glyph-name="Euro" unicode="&#x20ac;" horiz-adv-x="1462" 
d="M1270 328l63 -66q-50 -126 -176 -203q-127 -79 -285 -79q-222 0 -389 155q-165 153 -215 400h-170l21 98h135q-4 47 -4 84q0 35 2 65h-154l21 101h145q46 251 215 412q168 159 400 159q187 0 311 -99q125 -101 125 -239q0 -53 -35 -89t-88 -36q-57 0 -94 35.5t-37 89.5
q0 45 26 78t68 43q-67 100 -207 100q-170 0 -282 -121q-113 -122 -146 -333h506l-22 -101h-494q-2 -26 -2 -65q0 -48 2 -84h455l-23 -98h-420q34 -201 145 -318q109 -115 267 -115q108 0 199 62q90 62 137 164z" />
    <glyph glyph-name="uni2116" unicode="&#x2116;" horiz-adv-x="2787" 
d="M2560 542q-158 -153 -393 -153t-393 153q-158 152 -158 380q0 227 158 380q158 152 393 152t393 -152q158 -153 158 -380q0 -228 -158 -380zM367 1434l933 -1041v1041h107v-1434h-70l-1015 1126v-1126h-109v1434h154zM2381 1239q-79 115 -214 115q-134 0 -214 -116
q-79 -115 -79 -316q0 -198 80 -316q80 -117 213 -117t213 117q80 118 80 316q0 202 -79 317zM2574 0h-813v100h813v-100z" />
    <glyph glyph-name="trademark" unicode="&#x2122;" horiz-adv-x="1097" 
d="M121 1434h328v-60h-115v-350h-101v350h-112v60zM754 1212l96 222h129v-410h-102v315l-121 -266h-45l-121 266v-315h-66v410h133z" />
    <glyph glyph-name="uni2150" unicode="&#x2150;" horiz-adv-x="2304" 
d="M565 1434v-861h-182v707q-63 -60 -162 -82l-8 84q62 17 128 59q67 43 103 93h121zM539 0l921 1434h113l-922 -1434h-112zM1493 860h598v-29q-136 -157 -210 -389q-73 -228 -56 -442h-209q12 140 87 336q76 198 208 381h-418v143z" />
    <glyph glyph-name="uni2151" unicode="&#x2151;" horiz-adv-x="2291" 
d="M565 1434v-861h-182v707q-63 -60 -162 -82l-8 84q62 17 128 59q67 43 103 93h121zM539 0l921 1434h113l-922 -1434h-112zM1739 872q147 0 244 -109q96 -109 96 -290q0 -199 -105 -342q-107 -143 -262 -143q-101 0 -171 49q-71 50 -71 119q0 39 28 65.5t69 26.5
q37 0 62.5 -26.5t25.5 -65.5q0 -41 -27 -68q22 -6 45 -6q211 0 217 346q-21 -47 -71 -76.5t-117 -29.5q-114 0 -196 77q-81 77 -81 189q0 120 92 203q91 81 222 81zM1610 600q0 -180 139 -180t139 180q0 91 -35.5 139.5t-103.5 48.5q-66 0 -102.5 -49t-36.5 -139z" />
    <glyph glyph-name="uni2152" unicode="&#x2152;" horiz-adv-x="3053" 
d="M565 1434v-861h-182v707q-63 -60 -162 -82l-8 84q62 17 128 59q67 43 103 93h121zM539 0l921 1434h113l-922 -1434h-112zM2470 872q158 0 266 -127q107 -128 107 -315t-107 -315q-108 -127 -266 -127q-160 0 -266 127q-107 128 -107 315t107 315q106 127 266 127z
M1452 625l-8 84q62 17 128 59q67 44 103 92h121v-860h-182v707q-63 -60 -162 -82zM2470 72q86 0 135 95t49 263t-49 263t-135 95q-88 0 -138 -96q-51 -96 -51 -262t51 -262q50 -96 138 -96z" />
    <glyph glyph-name="onethird" unicode="&#x2153;" horiz-adv-x="2240" 
d="M565 1434v-861h-182v707q-63 -60 -162 -82l-8 84q62 17 128 59q67 43 103 93h121zM539 0l921 1434h113l-922 -1434h-112zM1868 449q75 -31 117.5 -88.5t42.5 -129.5q0 -106 -86 -174q-87 -69 -224 -69q-124 0 -204 54t-80 138q0 39 26.5 64.5t67.5 25.5q39 0 64.5 -25.5
t25.5 -64.5q0 -53 -43 -80q47 -23 108 -22q78 0 122 42t44 116q0 78 -46 126t-122 48h-84v73h84q66 0 106 43t40 113q0 66 -39 104.5t-107 38.5q-56 0 -96 -22q45 -26 45 -80q0 -39 -25.5 -64.5t-64.5 -25.5q-41 0 -67.5 25.5t-26.5 64.5q0 84 77 138t197 54q124 0 204 -63
q79 -64 79 -164q0 -129 -135 -196z" />
    <glyph glyph-name="twothirds" unicode="&#x2154;" horiz-adv-x="2416" 
d="M221 573v33l211 266q58 74 82 110q32 47 55 103q25 59 25 115q0 72 -37 111t-104 39q-66 0 -109 -37q53 -23 53 -84q0 -39 -25.5 -64.5t-64.5 -25.5q-41 0 -67.5 25.5t-26.5 64.5q0 90 79 154q80 63 202 63q121 0 204 -65q82 -66 82 -162q0 -93 -51 -177.5t-166 -185.5
l-153 -139h372v-144h-561zM715 0l921 1434h113l-922 -1434h-112zM2044 449q75 -31 117.5 -88.5t42.5 -129.5q0 -106 -86 -174q-86 -69 -224 -69q-124 0 -204 54t-80 138q0 39 26.5 64.5t67.5 25.5q39 0 64.5 -25.5t25.5 -64.5q0 -53 -43 -80q47 -23 109 -22q78 0 121.5 42
t43.5 116q0 78 -46 126t-121 48h-84v73h84q66 0 105.5 43t39.5 113q0 66 -39 104.5t-106 38.5q-56 0 -97 -22q45 -26 45 -80q0 -39 -25.5 -64.5t-64.5 -25.5q-41 0 -67.5 25.5t-26.5 64.5q0 84 77 138t197 54q124 0 204 -63q79 -64 79 -164q0 -129 -135 -196z" />
    <glyph glyph-name="uni2155" unicode="&#x2155;" horiz-adv-x="2244" 
d="M565 1434v-861h-182v707q-63 -60 -162 -82l-8 84q62 17 128 59q67 43 103 93h121zM539 0l921 1434h113l-922 -1434h-112zM1716 569q136 0 227 -83q89 -83 89 -209q0 -127 -90 -208q-91 -81 -232 -81q-125 0 -205 59t-80 146q0 39 27 64.5t68 25.5q39 0 64.5 -26t25.5 -64
q0 -53 -43 -80q43 -27 108 -27q81 0 125.5 53t44.5 144t-44 143.5t-122 52.5q-89 0 -141 -57l-68 37l50 401h458l-16 -143h-383l-27 -195q68 47 164 47z" />
    <glyph glyph-name="uni2156" unicode="&#x2156;" horiz-adv-x="2420" 
d="M221 573v33l211 266q58 74 82 110q32 47 55 103q25 59 25 115q0 72 -37 111t-104 39q-66 0 -109 -37q53 -23 53 -84q0 -39 -25.5 -64.5t-64.5 -25.5q-41 0 -67.5 25.5t-26.5 64.5q0 90 79 154q80 63 202 63q121 0 204 -65q82 -66 82 -162q0 -93 -51 -177.5t-166 -185.5
l-153 -139h372v-144h-561zM715 0l921 1434h113l-922 -1434h-112zM1892 569q136 0 227 -83q89 -83 89 -209q0 -127 -90 -208t-232 -81q-124 0 -204 59t-80 146q0 39 26.5 64.5t67.5 25.5q39 0 64.5 -26t25.5 -64q0 -53 -43 -80q43 -27 108 -27q81 0 125.5 53t44.5 144
t-44 143.5t-122 52.5q-89 0 -141 -57l-67 37l49 401h458l-16 -143h-383l-26 -195q68 47 163 47z" />
    <glyph glyph-name="uni2157" unicode="&#x2157;" horiz-adv-x="2365" 
d="M807 805q0 -106 -86 -175q-85 -69 -223 -69q-126 0 -205 55q-80 54 -80 138q0 39 26.5 64.5t67.5 25.5q39 0 64.5 -25.5t25.5 -64.5q0 -53 -43 -80q46 -23 109 -23q78 0 122 42t44 116q0 78 -46 126t-122 48h-84v74h84q66 0 105.5 43t39.5 112q0 66 -39 105t-106 39
q-55 0 -96 -23q45 -25 45 -80q0 -39 -26 -64.5t-65 -25.5q-41 0 -67.5 25.5t-26.5 64.5q0 83 77 139q76 54 198 54q124 0 204 -63q78 -65 78 -164q0 -129 -135 -197q75 -31 117.5 -88t42.5 -129zM659 0l922 1434h113l-922 -1434h-113zM1837 569q137 0 226 -83t89 -209
q0 -127 -90 -208t-231 -81q-125 0 -205 59t-80 146q0 39 26.5 64.5t67.5 25.5q39 0 65 -26t26 -64q0 -53 -43 -80q44 -27 108 -27q81 0 125.5 53t44.5 144t-44 143.5t-122 52.5q-88 0 -141 -57l-68 37l49 401h459l-16 -143h-383l-27 -195q68 47 164 47z" />
    <glyph glyph-name="uni2158" unicode="&#x2158;" horiz-adv-x="2490" 
d="M784 788v-215h-180v215h-391v48l420 598h151v-564h121v-82h-121zM784 0l922 1434h113l-922 -1434h-113zM604 1260l-272 -390h272v390zM1962 569q137 0 226 -83t89 -209q0 -127 -90 -208t-231 -81q-125 0 -205 59t-80 146q0 39 26.5 64.5t67.5 25.5q39 0 64.5 -26
t25.5 -64q0 -53 -43 -80q43 -27 109 -27q81 0 125.5 53t44.5 144t-44 143.5t-122 52.5q-89 0 -141 -57l-68 37l49 401h459l-16 -143h-383l-27 -195q68 47 164 47z" />
    <glyph glyph-name="uni2159" unicode="&#x2159;" horiz-adv-x="2271" 
d="M565 1434v-861h-182v707q-63 -60 -162 -82l-8 84q62 17 128 59q67 43 103 93h121zM539 0l921 1434h113l-922 -1434h-112zM1782 539q112 0 195 -77q81 -77 81 -190q0 -121 -91 -202q-91 -82 -222 -82q-150 0 -245 110t-95 289q0 200 109 342q108 143 270 143q94 0 161 -49
q66 -50 66 -118q0 -39 -27.5 -66t-68.5 -27q-37 0 -62.5 27t-25.5 66q0 43 28 67q-18 6 -36 6q-104 0 -164 -90t-66 -258q52 109 193 109zM1629 122q38 -50 104 -50q65 0 101 49t36 139q0 180 -137 180q-141 0 -142 -180q0 -88 38 -138z" />
    <glyph glyph-name="uni215A" unicode="&#x215a;" horiz-adv-x="2404" 
d="M730 1060q89 -83 89 -210t-90 -208t-231 -81q-125 0 -205 60q-80 59 -80 145q0 39 26.5 64.5t67.5 25.5q39 0 64.5 -25.5t25.5 -64.5q0 -53 -43 -80q43 -27 109 -27q81 0 125.5 53t44.5 144t-44.5 144t-121.5 53q-89 0 -141 -58l-68 37l49 402h459l-16 -144h-383
l-27 -194q68 47 164 47q137 0 226 -83zM672 0l921 1434h113l-922 -1434h-112zM1915 539q112 0 195 -77q81 -77 81 -190q0 -121 -91 -202q-91 -82 -222 -82q-150 0 -245 110t-95 289q0 200 109 342q108 143 270 143q94 0 161 -49q66 -50 66 -118q0 -39 -27.5 -66t-68.5 -27
q-37 0 -62.5 27t-25.5 66q0 43 29 67q-18 6 -37 6q-104 0 -163.5 -90t-66.5 -258q52 109 193 109zM1762 122q38 -50 104 -50q65 0 101 49t36 139q0 180 -137 180q-140 0 -142 -180q0 -88 38 -138z" />
    <glyph glyph-name="oneeighth" unicode="&#x215b;" horiz-adv-x="2263" 
d="M565 1434v-861h-182v707q-63 -60 -162 -82l-8 84q62 17 128 59q67 43 103 93h121zM539 0l921 1434h113l-922 -1434h-112zM1886 465q166 -85 166 -221q0 -114 -93 -185q-94 -71 -230 -71q-128 0 -216 62q-88 61 -88 155q0 67 38.5 126.5t101.5 92.5q-121 79 -121 201
q0 112 85 179q86 68 210 68q116 0 195 -59q77 -59 77 -147q0 -60 -34 -115t-91 -86zM1755 786q-72 0 -117 -31.5t-45 -82.5q0 -33 32 -65q31 -31 69 -51q28 -14 104 -50q2 -2 12 -5.5t13 -4.5q90 51 90 143q0 63 -45 105t-113 42zM1716 74q82 0 134.5 31.5t52.5 82.5
q0 49 -66 92l-60 36q-8 4 -35.5 17t-47.5 23q-52 25 -70 35q-102 -51 -102 -155q0 -70 55 -116t139 -46z" />
    <glyph glyph-name="threeeighths" unicode="&#x215c;" horiz-adv-x="2383" 
d="M807 805q0 -106 -86 -175q-85 -69 -223 -69q-126 0 -205 55q-80 54 -80 138q0 39 26.5 64.5t67.5 25.5q39 0 64.5 -25.5t25.5 -64.5q0 -53 -43 -80q46 -23 109 -23q78 0 122 42t44 116q0 78 -46 126t-122 48h-84v74h84q66 0 105.5 43t39.5 112q0 66 -39 105t-106 39
q-55 0 -96 -23q45 -25 45 -80q0 -39 -26 -64.5t-65 -25.5q-41 0 -67.5 25.5t-26.5 64.5q0 83 77 139q76 54 198 54q124 0 204 -63q78 -65 78 -164q0 -129 -135 -197q75 -31 117.5 -88t42.5 -129zM659 0l922 1434h113l-922 -1434h-113zM2007 465q166 -85 166 -221
q0 -114 -93 -185q-94 -71 -231 -71q-128 0 -216 62q-87 62 -87 155q0 67 38.5 126.5t101.5 92.5q-121 79 -121 201q0 112 85 179q86 68 210 68q116 0 195 -59q77 -59 77 -147q0 -60 -34 -115t-91 -86zM1876 786q-72 0 -117 -31.5t-45 -82.5q0 -33 32 -65q32 -31 69 -51
q20 -11 104 -50q3 -2 13 -5.5t12 -4.5q90 51 90 143q0 63 -45 105t-113 42zM1837 74q82 0 134 31.5t52 82.5q0 50 -65 92l-60 36q-8 4 -35.5 17t-47.5 23q-52 25 -70 35q-101 -51 -103 -155q0 -69 56 -116q55 -46 139 -46z" />
    <glyph glyph-name="fiveeighths" unicode="&#x215d;" horiz-adv-x="2396" 
d="M730 1060q89 -83 89 -210t-90 -208t-231 -81q-125 0 -205 60q-80 59 -80 145q0 39 26.5 64.5t67.5 25.5q39 0 64.5 -25.5t25.5 -64.5q0 -53 -43 -80q43 -27 109 -27q81 0 125.5 53t44.5 144t-44.5 144t-121.5 53q-89 0 -141 -58l-68 37l49 402h459l-16 -144h-383
l-27 -194q68 47 164 47q137 0 226 -83zM672 0l921 1434h113l-922 -1434h-112zM2019 465q166 -85 166 -221q0 -114 -93 -185q-94 -71 -230 -71q-128 0 -216 62q-87 62 -87 155q0 67 38 126.5t101 92.5q-121 79 -121 201q0 112 85 179q86 68 210 68q116 0 195 -59
q77 -59 77 -147q0 -60 -34 -115t-91 -86zM1888 786q-72 0 -117 -31.5t-45 -82.5q0 -33 32 -65q32 -31 69 -51q27 -14 104 -50q3 -2 13 -5.5t12 -4.5q90 51 90 143q0 63 -45 105t-113 42zM1849 74q82 0 134.5 31.5t52.5 82.5q0 49 -66 92l-60 36q-8 4 -35.5 17t-47.5 23
q-53 25 -70 35q-102 -51 -102 -155q0 -70 55 -116t139 -46z" />
    <glyph glyph-name="seveneighths" unicode="&#x215e;" horiz-adv-x="2285" 
d="M811 1434v-29q-136 -157 -210 -389q-73 -230 -56 -443h-209q12 139 87 336q76 198 208 381h-418v144h598zM561 0l922 1434h112l-921 -1434h-113zM1909 465q166 -85 166 -221q0 -114 -93 -185q-95 -71 -231 -71q-128 0 -216 62q-87 62 -87 155q0 67 38.5 126t100.5 93
q-121 79 -121 201q0 112 85 179q86 68 210 68q116 0 195 -59q78 -59 78 -147q0 -60 -34 -115t-91 -86zM1778 786q-72 0 -117 -31.5t-45 -82.5q0 -33 32 -65q33 -33 68 -51q19 -10 105 -50q2 -2 12 -5.5t12 -4.5q90 51 90 143q0 63 -44 105q-45 42 -113 42zM1739 74
q82 0 134 31.5t52 82.5q0 49 -65 92l-60 36q-4 2 -84 40q-46 22 -69 35q-101 -51 -103 -155q0 -69 56 -116q55 -46 139 -46z" />
    <glyph glyph-name="uni215F" unicode="&#x215f;" horiz-adv-x="1212" 
d="M565 1434v-861h-182v707q-63 -60 -162 -82l-8 84q62 17 128 59q67 43 103 93h121zM539 0l921 1434h113l-922 -1434h-112z" />
    <glyph glyph-name="uni2189" unicode="&#x2189;" horiz-adv-x="2512" 
d="M851 1319q107 -128 107 -315q0 -188 -107 -316q-108 -127 -265 -127q-160 0 -266 127q-107 128 -107 316q0 187 107 315q106 127 266 127q159 0 265 -127zM811 0l922 1434h112l-921 -1434h-113zM586 645q86 0 135 95.5t49 263.5q0 167 -49 262.5t-135 95.5
q-88 0 -138 -96q-51 -98 -51 -262q0 -166 51 -262q49 -97 138 -97zM2140 449q75 -31 117.5 -88.5t42.5 -129.5q0 -106 -86 -174q-86 -69 -223 -69q-125 0 -205 54t-80 138q0 39 26.5 64.5t67.5 25.5q39 0 64.5 -25.5t25.5 -64.5q0 -53 -43 -80q47 -23 109 -22q78 0 122 42
t44 116q0 78 -46 126t-122 48h-84v73h84q66 0 105.5 43t39.5 113q0 67 -38.5 105t-106.5 38q-56 0 -96 -22q45 -26 45 -80q0 -39 -26 -64.5t-65 -25.5q-41 0 -67.5 25.5t-26.5 64.5q0 84 77 138t198 54q125 0 204 -63q78 -65 78 -164q0 -129 -135 -196z" />
    <glyph glyph-name="arrowleft" unicode="&#x2190;" horiz-adv-x="1341" 
d="M430 602h741v-98h-741q160 -169 234 -338l-41 -23q-156 186 -455 398v24q302 214 455 398l41 -23q-74 -169 -234 -338z" />
    <glyph glyph-name="arrowup" unicode="&#x2191;" horiz-adv-x="1157" 
d="M987 596l-22 -41q-162 72 -336 233v-741h-101v744q-175 -164 -338 -236l-22 41q184 154 397 455h25q213 -301 397 -455z" />
    <glyph glyph-name="arrowright" unicode="&#x2192;" horiz-adv-x="1341" 
d="M676 940l41 23q158 -188 454 -398v-24q-303 -215 -454 -398l-41 23q79 172 235 338h-743v98h743q-159 170 -235 338z" />
    <glyph glyph-name="arrowdown" unicode="&#x2193;" horiz-adv-x="1157" 
d="M965 469l22 -41q-184 -154 -397 -455h-25q-213 301 -397 455l22 41q163 -72 338 -236v744h101v-741q174 161 336 233z" />
    <glyph glyph-name="minus" unicode="&#x2212;" horiz-adv-x="1157" 
d="M987 565h-819v99h819v-99z" />
    <glyph glyph-name="approxequal" unicode="&#x2248;" horiz-adv-x="1210" 
d="M799 651q-72 0 -200 65q-127 64 -189 64q-59 0 -97.5 -30.5t-38.5 -79.5h-106q0 94 69 155q67 60 173 60q73 0 200 -64q128 -65 189 -65t99 30.5t38 79.5h104q0 -94 -68 -154q-68 -61 -173 -61zM799 344q-72 0 -200 65q-127 64 -189 64q-60 0 -98 -30.5t-38 -80.5h-106
q0 94 69 155q67 61 173 61q73 0 200 -64q128 -65 189 -65t99 30.5t38 79.5h104q0 -94 -68 -154q-68 -61 -173 -61z" />
    <glyph glyph-name="notequal" unicode="&#x2260;" horiz-adv-x="1157" 
d="M987 827v-98h-278l-148 -229h426v-99h-489l-127 -196h-113l127 196h-217v99h281l147 229h-428v98h491l127 197h113l-127 -197h215z" />
    <glyph glyph-name="lessequal" unicode="&#x2264;" horiz-adv-x="1157" 
d="M385 614l539 -299v-110l-695 397v25l695 397v-111zM168 0v100h819v-100h-819z" />
    <glyph glyph-name="greaterequal" unicode="&#x2265;" horiz-adv-x="1157" 
d="M231 1024l695 -397v-25l-695 -397v110l539 299l-539 299v111zM168 0v100h819v-100h-819z" />
    <glyph glyph-name="uniE016" unicode="&#xe016;" horiz-adv-x="1527" 
d="M1440 0h-264l-164 377h-635l-162 -377h-127l586 1333h-643q-155 0 -259 -97q-104 -98 -104 -230q0 -99 44 -175.5t120 -113.5q2 55 42 91t97 36t95 -38q36 -38 36 -95t-38 -95q-40 -38 -99 -38q-177 0 -293 119q-114 119 -114 309q0 176 137 302t336 126h782zM694 1110
l-274 -635h549z" />
    <glyph glyph-name="uniE017" unicode="&#xe017;" horiz-adv-x="1478" 
d="M1071 748q145 -48 227 -146t82 -229q0 -160 -130 -266q-131 -107 -318 -107h-719v1333h-375q-154 0 -257 -96t-103 -231q0 -99 44 -175.5t120 -113.5q4 55 41.5 91t94.5 36t95 -38q37 -37 37 -95q0 -57 -39 -95q-40 -38 -98 -38q-177 0 -293 119q-115 118 -115 309
q0 176 137 302q138 126 336 126h1032q193 0 321 -101q128 -102 128 -252q0 -226 -248 -333zM780 1333h-317v-547h287q145 0 228 74.5t83 210.5q0 122 -76 192t-205 70zM463 100h379q128 0 205 74q75 74 75 201q0 164 -93 239q-94 74 -218 74h-348v-588z" />
    <glyph glyph-name="uniE018" unicode="&#xe018;" horiz-adv-x="1675" 
d="M-162 1434h934q332 0 553 -206t221 -511t-221 -511t-553 -206h-559v1333h-375q-154 0 -257 -96t-103 -231q0 -99 44 -175.5t120 -113.5q4 55 41.5 91t94.5 36t95 -38q37 -37 37 -95q0 -57 -39 -95q-40 -38 -98 -38q-177 0 -293 119q-115 118 -115 309q0 176 137 302
q138 126 336 126zM463 100h280q246 0 396 169q149 170 149 448q0 277 -149 447q-150 169 -396 169h-280v-1233z" />
    <glyph glyph-name="uniE019" unicode="&#xe019;" horiz-adv-x="1357" 
d="M463 678v-578h786v-100h-1036v1333h-375q-154 0 -257 -96t-103 -231q0 -99 44 -175.5t120 -113.5q4 55 41.5 91t94.5 36t95 -38q37 -37 37 -95q0 -57 -39 -95q-40 -38 -98 -38q-177 0 -293 119q-115 118 -115 309q0 176 137 302q138 126 336 126h1391v-101h-766v-557h602
v-98h-602z" />
    <glyph glyph-name="uniE01A" unicode="&#xe01a;" horiz-adv-x="1296" 
d="M1208 1434v-101h-745v-577h581v-99h-581v-657h-250v1333h-375q-154 0 -257 -96t-103 -231q0 -99 44 -175.5t120 -113.5q4 55 41.5 91t94.5 36t95 -38q37 -37 37 -95q0 -57 -39 -95q-40 -38 -98 -38q-177 0 -293 119q-115 118 -115 309q0 176 137 302q138 126 336 126
h1370z" />
    <glyph glyph-name="uniE01B" unicode="&#xe01b;" horiz-adv-x="1687" 
d="M1223 776v658h250v-1434h-250v678h-760v-678h-250v1333h-375q-154 0 -257 -96t-103 -231q0 -99 44 -175.5t120 -113.5q4 55 41.5 91t94.5 36t95 -38q37 -37 37 -95q0 -57 -39 -95q-40 -38 -98 -38q-177 0 -293 119q-115 118 -115 309q0 176 137 302q138 126 336 126h625
v-658h760z" />
    <glyph glyph-name="uniE01C" unicode="&#xe01c;" horiz-adv-x="677" 
d="M-162 1434h625v-1434h-250v1333h-375q-154 0 -257 -96t-103 -231q0 -99 44 -175.5t120 -113.5q4 55 41.5 91t94.5 36t95 -38q37 -37 37 -95q0 -57 -39 -95q-40 -38 -98 -38q-177 0 -293 119q-115 118 -115 309q0 176 137 302q138 126 336 126z" />
    <glyph glyph-name="uniE01D" unicode="&#xe01d;" horiz-adv-x="1503" 
d="M1450 0h-291l-526 739l-170 -151v-588h-250v1333h-375q-154 0 -257 -96t-103 -231q0 -99 44 -175.5t120 -113.5q4 55 41.5 91t94.5 36t95 -38q37 -37 37 -95q0 -57 -39 -95q-40 -38 -98 -38q-177 0 -293 119q-115 118 -115 309q0 176 137 302q138 126 336 126h625v-713
l782 713h158l-594 -535z" />
    <glyph glyph-name="uniE01E" unicode="&#xe01e;" horiz-adv-x="1296" 
d="M463 1434v-1334h735v-100h-985v1333h-375q-154 0 -257 -96t-103 -231q0 -99 44 -175.5t120 -113.5q4 55 41.5 91t94.5 36t95 -38q37 -37 37 -95q0 -57 -39 -95q-40 -38 -98 -38q-177 0 -293 119q-115 118 -115 309q0 176 137 302q138 126 336 126h625z" />
    <glyph glyph-name="uniE01F" unicode="&#xe01f;" horiz-adv-x="1906" 
d="M961 625l473 809h260v-1434h-250v1243l-516 -885h-90l-516 883v-1241h-109v1333h-375q-154 0 -257 -96t-103 -231q0 -99 44 -175.5t120 -113.5q4 55 41.5 91t94.5 36t95 -38q37 -37 37 -95q0 -57 -39 -95q-40 -38 -98 -38q-177 0 -293 119q-115 118 -115 309
q0 176 137 302q138 126 336 126h649z" />
    <glyph glyph-name="uniE020" unicode="&#xe020;" horiz-adv-x="1622" 
d="M1300 393v1041h107v-1434h-70l-1015 1126v-1126h-109v1333h-375q-154 0 -257 -96t-103 -231q0 -99 44 -175.5t120 -113.5q4 55 41.5 91t94.5 36t95 -38q37 -37 37 -95q0 -57 -39 -95q-40 -38 -98 -38q-177 0 -293 119q-115 118 -115 309q0 176 137 302q138 126 336 126
h529z" />
    <glyph glyph-name="uniE021" unicode="&#xe021;" horiz-adv-x="1470" 
d="M-162 1434h1006q226 0 377 -127t151 -319q0 -193 -151 -320t-377 -127h-381v-541h-250v1333h-375q-154 0 -257 -96t-103 -231q0 -99 44 -175.5t120 -113.5q4 55 41.5 91t94.5 36t95 -38q37 -37 37 -95q0 -57 -39 -95q-40 -38 -98 -38q-177 0 -293 119q-115 118 -115 309
q0 176 137 302q138 126 336 126zM463 641h315q153 0 244 94q92 95 92 252t-92 252q-91 94 -244 94h-315v-692z" />
    <glyph glyph-name="uniE022" unicode="&#xe022;" horiz-adv-x="1484" 
d="M1153 449l160 -293q57 -112 123 -156h-277q-57 39 -98 119l-193 368q-38 67 -86 99h-319v-586h-250v1333h-375q-154 0 -257 -96t-103 -231q0 -99 44 -175.5t120 -113.5q4 55 41.5 91t94.5 36t95 -38q37 -37 37 -95q0 -57 -39 -95q-40 -38 -98 -38q-177 0 -293 119
q-115 118 -115 309q0 176 137 302q138 126 336 126h965q227 0 378 -120q150 -120 150 -302q0 -146 -98 -256q-97 -110 -258 -150q123 -43 178 -157zM748 1333h-285v-649h285q147 0 236 89t89 237q0 146 -89 235q-88 88 -236 88z" />
    <glyph glyph-name="uniE023" unicode="&#xe023;" horiz-adv-x="1337" 
d="M-27 1434h1278v-101h-456v-1333h-250v1333h-572q-153 0 -256 -97q-104 -98 -104 -230q0 -99 44 -175.5t120 -113.5q2 57 41 92t98 35q57 0 94 -38t37 -95q0 -58 -39.5 -95.5t-99.5 -37.5q-177 0 -293 119q-115 118 -115 309q0 176 137 302q138 126 336 126z" />
    <glyph glyph-name="uniE024" unicode="&#xe024;" horiz-adv-x="1613" 
d="M1307 535v899h108v-906q0 -250 -153 -399q-155 -149 -422 -149q-281 0 -461 162q-180 161 -180 425v766h-361q-154 0 -257 -96t-103 -231q0 -99 44 -175.5t120 -113.5q4 55 41.5 91t94.5 36t95 -38q37 -37 37 -95q0 -57 -39 -95q-40 -38 -98 -38q-177 0 -293 119
q-115 118 -115 309q0 176 137 302q138 126 336 126h611v-899q0 -193 120 -308q119 -116 320 -116q194 0 306 115q112 113 112 309z" />
    <glyph glyph-name="uniE025" unicode="&#xe025;" horiz-adv-x="1527" 
d="M834 324l479 1110h127l-629 -1434h-96l-584 1333h-174q-155 0 -259 -97q-104 -98 -104 -230q0 -99 44 -175.5t120 -113.5q2 55 42 91t97 36t95 -38q37 -37 37 -95q0 -57 -39 -95q-40 -38 -99 -38q-177 0 -293 119q-114 119 -114 309q0 176 137 302t336 126h395z" />
    <glyph glyph-name="uniE026" unicode="&#xe026;" horiz-adv-x="2347" 
d="M1653 324l479 1110h127l-629 -1434h-96l-360 825l-363 -825h-96l-584 1333h-174q-155 0 -259 -97q-104 -98 -104 -230q0 -99 44 -175.5t120 -113.5q2 55 42 91t97 36t95 -38q37 -37 37 -95q0 -57 -39 -95q-40 -38 -99 -38q-177 0 -293 119q-114 119 -114 309
q0 176 137 302t336 126h395l482 -1110l276 647l-203 463h264z" />
    <glyph glyph-name="uniE027" unicode="&#xe027;" horiz-adv-x="1433" 
d="M815 772l508 -772h-270l-377 573l-391 -573h-140l467 670l-436 663h-244q-153 0 -256 -97q-104 -98 -104 -230q0 -99 44 -175.5t120 -113.5q2 57 41 92t98 35q57 0 94 -38t37 -95q0 -58 -39.5 -95.5t-99.5 -37.5q-177 0 -293 119q-115 118 -115 309q0 176 137 302
q138 126 336 126h449l371 -564l387 564h139z" />
    <glyph glyph-name="uniE028" unicode="&#xe028;" horiz-adv-x="1464" 
d="M805 731l440 703h131l-518 -820v-614h-250v614l-456 719h-220q-153 0 -256 -97q-104 -98 -104 -230q0 -99 44 -175.5t120 -113.5q2 57 41 92t98 35q57 0 94 -38t37 -95q0 -58 -39.5 -95.5t-99.5 -37.5q-177 0 -293 119q-115 118 -115 309q0 176 137 302q138 126 336 126
h430z" />
    <glyph glyph-name="uniE079" unicode="&#xe079;" horiz-adv-x="905" 
d="M905 1333h-432q-153 0 -257 -96q-103 -96 -103 -231q0 -99 43.5 -175.5t119.5 -113.5q2 55 42 91t98 36q56 0 94 -38q37 -37 37 -95q0 -57 -39 -95q-40 -38 -98 -38h-2q-177 0 -293 119q-115 118 -115 309q0 176 137 302t336 126h432v-101z" />
    <glyph glyph-name="Q.ss02" horiz-adv-x="1783" 
d="M1747 -135v-2q0 -109 -114 -184q-116 -74 -279 -74q-199 0 -352 105q-154 106 -199 274q-291 28 -483 235q-191 206 -191 498q0 315 217 526t541 211t539 -211q216 -211 216 -526q0 -279 -172 -478q-174 -201 -442 -247q22 -128 120 -208q97 -79 236 -79q115 0 193 57
q-61 34 -61 103q0 51 33.5 83t84.5 32q49 0 81 -32t32 -83zM524 1180q-137 -175 -137 -463q0 -290 136 -463q137 -174 364 -174q225 0 361 174q136 173 136 463t-136 463q-136 174 -361 174q-227 0 -363 -174z" />
    <glyph glyph-name="W.ss02" horiz-adv-x="2521" 
d="M2214 496v938h108v-945q0 -232 -137 -371q-137 -138 -381 -138q-179 0 -319 76q-142 75 -213 206q-55 -137 -177 -209.5t-298 -72.5q-256 0 -427 153q-171 151 -171 395v906h250v-938q0 -172 112 -278q112 -107 279 -107q168 0 267 104q99 103 99 281v938h250v-938
q0 -174 108 -279q106 -106 283 -106q167 0 268 104q99 103 99 281z" />
    <glyph glyph-name="Wacute.ss02" horiz-adv-x="2521" 
d="M1286 1858h301l-305 -283h-104zM2214 496v938h108v-945q0 -232 -137 -371q-137 -138 -381 -138q-179 0 -319 76q-142 75 -213 206q-55 -137 -177 -209.5t-298 -72.5q-256 0 -427 153q-171 151 -171 395v906h250v-938q0 -172 112 -278q112 -107 279 -107q168 0 267 104
q99 103 99 281v938h250v-938q0 -174 108 -279q106 -106 283 -106q167 0 268 104q99 103 99 281z" />
    <glyph glyph-name="Wcircumflex.ss02" horiz-adv-x="2521" 
d="M1501 1565l-237 141l-238 -141l-57 57l254 248h82l254 -248zM2214 496v938h108v-945q0 -232 -137 -371q-137 -138 -381 -138q-179 0 -319 76q-142 75 -213 206q-55 -137 -177 -209.5t-298 -72.5q-256 0 -427 153q-171 151 -171 395v906h250v-938q0 -172 112 -278
q112 -107 279 -107q168 0 267 104q99 103 99 281v938h250v-938q0 -174 108 -279q106 -106 283 -106q167 0 268 104q99 103 99 281z" />
    <glyph glyph-name="Wdieresis.ss02" horiz-adv-x="2521" 
d="M1146 1600q-34 -33 -85 -33t-86 33q-35 32 -35 81q0 51 35 86t88 35q51 0 84 -33.5t33 -84.5q0 -53 -34 -84zM1550 1600q-34 -33 -85 -33q-53 0 -87 33q-35 32 -35 84q0 51 35 84.5t88 33.5q51 0 84 -33.5t33 -84.5q0 -52 -33 -84zM2214 496v938h108v-945
q0 -232 -137 -371q-137 -138 -381 -138q-179 0 -319 76q-142 75 -213 206q-55 -137 -177 -209.5t-298 -72.5q-256 0 -427 153q-171 151 -171 395v906h250v-938q0 -172 112 -278q112 -107 279 -107q168 0 267 104q99 103 99 281v938h250v-938q0 -174 108 -279
q106 -106 283 -106q167 0 268 104q99 103 99 281z" />
    <glyph glyph-name="Wgrave.ss02" horiz-adv-x="2521" 
d="M1239 1858l109 -283h-105l-305 283h301zM2214 496v938h108v-945q0 -232 -137 -371q-137 -138 -381 -138q-179 0 -319 76q-142 75 -213 206q-55 -137 -177 -209.5t-298 -72.5q-256 0 -427 153q-171 151 -171 395v906h250v-938q0 -172 112 -278q112 -107 279 -107
q168 0 267 104q99 103 99 281v938h250v-938q0 -174 108 -279q106 -106 283 -106q167 0 268 104q99 103 99 281z" />
    <glyph glyph-name="Q.ss03" horiz-adv-x="1783" 
d="M1426 191q-215 -211 -539 -211t-541 211q-217 210 -217 526q0 315 217 526t541 211t539 -211q216 -211 216 -526q0 -316 -216 -526zM887 1354q-227 0 -363 -174q-137 -175 -137 -463q0 -290 136 -463q137 -174 364 -174q225 0 361 174q136 173 136 463t-136 463
q-136 174 -361 174zM1636 -29q47 0 79 -32.5t32 -81.5q0 -157 -96 -260q-97 -103 -238 -103q-74 0 -164 32q-85 30 -145 65q-60 37 -148 94q-47 32 -121 77q-47 29 -112 53q-65 25 -121 25q-58 0 -102 -33q59 -32 59 -102q0 -49 -31.5 -82t-81.5 -33q-53 0 -86.5 32
t-33.5 83q0 103 89 174q88 70 218 70q105 0 206 -40q108 -44 236 -116q232 -125 387 -125q105 0 164 74q-48 2 -79 34.5t-31 80.5q0 49 33.5 81.5t86.5 32.5z" />
    <glyph glyph-name="G.ss04" horiz-adv-x="1677" 
d="M1004 647h503v-647h-77l-72 117q-155 -137 -461 -137q-323 0 -546 212q-222 212 -222 527q0 313 223 524t559 211q233 0 391 -102q158 -104 158 -258q0 -57 -37 -94t-94 -37q-60 0 -98.5 37t-38.5 94q0 46 27 81t71 48q-92 116 -311 114q-277 0 -434 -168
q-158 -169 -158 -464q0 -285 144 -455q143 -170 387 -170q133 0 225 42t125 118v307h-264v100z" />
    <glyph glyph-name="uni01F4.ss04" horiz-adv-x="1677" 
d="M922 1858h301l-305 -283h-105zM1004 647h503v-647h-77l-72 117q-155 -137 -461 -137q-323 0 -546 212q-222 212 -222 527q0 313 223 524t559 211q233 0 391 -102q158 -104 158 -258q0 -57 -37 -94t-94 -37q-60 0 -98.5 37t-38.5 94q0 46 27 81t71 48q-92 116 -311 114
q-277 0 -434 -168q-158 -169 -158 -464q0 -285 144 -455q143 -170 387 -170q133 0 225 42t125 118v307h-264v100z" />
    <glyph glyph-name="Gbreve.ss04" horiz-adv-x="1677" 
d="M899 1561q-119 0 -207 84t-88 204h101q8 -59 62 -97q55 -38 132 -38q78 0 132 37.5t63 97.5h100q-2 -121 -90 -204q-88 -84 -205 -84zM1004 647h503v-647h-77l-72 117q-155 -137 -461 -137q-323 0 -546 212q-222 212 -222 527q0 313 223 524t559 211q233 0 391 -102
q158 -104 158 -258q0 -57 -37 -94t-94 -37q-60 0 -98.5 37t-38.5 94q0 46 27 81t71 48q-92 116 -311 114q-277 0 -434 -168q-158 -169 -158 -464q0 -285 144 -455q143 -170 387 -170q133 0 225 42t125 118v307h-264v100z" />
    <glyph glyph-name="Gcaron.ss04" horiz-adv-x="1677" 
d="M1194 1812l-254 -247h-82l-254 247l58 58l237 -141l238 141zM1004 647h503v-647h-77l-72 117q-155 -137 -461 -137q-323 0 -546 212q-222 212 -222 527q0 313 223 524t559 211q233 0 391 -102q158 -104 158 -258q0 -57 -37 -94t-94 -37q-60 0 -98.5 37t-38.5 94
q0 46 27 81t71 48q-92 116 -311 114q-277 0 -434 -168q-158 -169 -158 -464q0 -285 144 -455q143 -170 387 -170q133 0 225 42t125 118v307h-264v100z" />
    <glyph glyph-name="Gcircumflex.ss04" horiz-adv-x="1677" 
d="M1137 1565l-238 141l-237 -141l-58 57l254 248h82l254 -248zM1004 647h503v-647h-77l-72 117q-155 -137 -461 -137q-323 0 -546 212q-222 212 -222 527q0 313 223 524t559 211q233 0 391 -102q158 -104 158 -258q0 -57 -37 -94t-94 -37q-60 0 -98.5 37t-38.5 94
q0 46 27 81t71 48q-92 116 -311 114q-277 0 -434 -168q-158 -169 -158 -464q0 -285 144 -455q143 -170 387 -170q133 0 225 42t125 118v307h-264v100z" />
    <glyph glyph-name="uni0122.ss04" horiz-adv-x="1677" 
d="M1004 647h503v-647h-77l-72 117q-155 -137 -461 -137q-323 0 -546 212q-222 212 -222 527q0 313 223 524t559 211q233 0 391 -102q158 -104 158 -258q0 -57 -37 -94t-94 -37q-60 0 -98.5 37t-38.5 94q0 46 27 81t71 48q-92 116 -311 114q-277 0 -434 -168
q-158 -169 -158 -464q0 -285 144 -455q143 -170 387 -170q133 0 225 42t125 118v307h-264v100zM897 -127q57 0 94 -38.5t37 -98.5q0 -77 -56 -160q-57 -82 -134 -123l-41 53q65 50 88 125q-51 4 -83 39t-32 86t36 84t91 33z" />
    <glyph glyph-name="Gdotaccent.ss04" horiz-adv-x="1677" 
d="M899 1561q-53 0 -91 35t-38 88t38 88.5t93 35.5q53 0 89 -35.5t36 -88.5q0 -54 -36 -88.5t-91 -34.5zM1004 647h503v-647h-77l-72 117q-155 -137 -461 -137q-323 0 -546 212q-222 212 -222 527q0 313 223 524t559 211q233 0 391 -102q158 -104 158 -258q0 -57 -37 -94
t-94 -37q-60 0 -98.5 37t-38.5 94q0 46 27 81t71 48q-92 116 -311 114q-277 0 -434 -168q-158 -169 -158 -464q0 -285 144 -455q143 -170 387 -170q133 0 225 42t125 118v307h-264v100z" />
    <glyph glyph-name="M.ss04" horiz-adv-x="1910" 
d="M958 328l478 1106h262v-1434h-250v1198l-514 -1198h-98l-514 1194v-1194h-109v1434h268z" />
    <glyph glyph-name="R.ss04" horiz-adv-x="1482" 
d="M1434 0h-279l-410 586h-282v-586h-250v1434h590q226 0 377 -121t151 -303q0 -146 -97 -253q-97 -108 -257 -151q38 -28 61 -65zM748 1333h-285v-649h285q147 0 236 89t89 237q0 146 -89 235q-88 88 -236 88z" />
    <glyph glyph-name="Racute.ss04" horiz-adv-x="1482" 
d="M774 1858h301l-305 -283h-104zM1434 0h-279l-410 586h-282v-586h-250v1434h590q226 0 377 -121t151 -303q0 -146 -97 -253q-97 -108 -257 -151q38 -28 61 -65zM748 1333h-285v-649h285q147 0 236 89t89 237q0 146 -89 235q-88 88 -236 88z" />
    <glyph glyph-name="Rcaron.ss04" horiz-adv-x="1482" 
d="M1044 1812l-253 -247h-82l-254 247l57 58l238 -141l237 141zM1434 0h-279l-410 586h-282v-586h-250v1434h590q226 0 377 -121t151 -303q0 -146 -97 -253q-97 -108 -257 -151q38 -28 61 -65zM748 1333h-285v-649h285q147 0 236 89t89 237q0 146 -89 235q-88 88 -236 88z
" />
    <glyph glyph-name="uni0156.ss04" horiz-adv-x="1482" 
d="M1038 541l396 -541h-279l-410 586h-282v-586h-250v1434h590q226 0 377 -121t151 -303q0 -146 -97 -253q-97 -108 -257 -151q33 -23 61 -65zM748 1333h-285v-649h285q147 0 236 89t89 237q0 146 -89 235q-88 88 -236 88zM799 -127q57 0 94 -38.5t37 -98.5q0 -77 -56 -160
q-57 -82 -135 -123l-41 53q65 50 88 125q-51 4 -82.5 39t-31.5 86t36 84t91 33z" />
    <glyph glyph-name="uni0210.ss04" horiz-adv-x="1482" 
d="M516 1858l117 -283h-107l-247 283h237zM868 1858l117 -283h-106l-248 283h237zM1434 0h-279l-410 586h-282v-586h-250v1434h590q226 0 377 -121t151 -303q0 -146 -97 -253q-97 -108 -257 -151q38 -28 61 -65zM748 1333h-285v-649h285q147 0 236 89t89 237q0 146 -89 235
q-88 88 -236 88z" />
    <glyph glyph-name="uni1E5A.ss04" horiz-adv-x="1482" 
d="M1038 541l396 -541h-279l-410 586h-282v-586h-250v1434h590q226 0 377 -121t151 -303q0 -146 -97 -253q-97 -108 -257 -151q33 -23 61 -65zM748 1333h-285v-649h285q147 0 236 89t89 237q0 146 -89 235q-88 88 -236 88zM803 -129q53 0 89 -36t36 -89t-36 -88t-91 -35
q-53 0 -91 35t-38 88t38 89t93 36z" />
    <glyph glyph-name="uni0212.ss04" horiz-adv-x="1482" 
d="M882 1682q-56 38 -132 38q-79 0 -132 -37q-55 -37 -63 -98h-100q0 121 88 205q89 84 207 84q116 0 205 -84q88 -84 89 -205h-100q-8 59 -62 97zM1434 0h-279l-410 586h-282v-586h-250v1434h590q226 0 377 -121t151 -303q0 -146 -97 -253q-97 -108 -257 -151
q38 -28 61 -65zM748 1333h-285v-649h285q147 0 236 89t89 237q0 146 -89 235q-88 88 -236 88z" />
    <glyph glyph-name="i.locl" horiz-adv-x="636" 
d="M319 1171q-53 0 -91 35t-38 89q0 53 38 88.5t94 35.5q53 0 88.5 -35.5t35.5 -88.5q0 -54 -36 -89t-91 -35zM442 0h-249v985l249 49v-1034z" />
    <glyph glyph-name="a.salt" horiz-adv-x="1380" 
d="M936 866v119l250 49v-1034h-250v141q-129 -162 -340 -161q-198 0 -335 153q-136 151 -136 379q0 224 135 379q135 153 332 153q104 0 197 -48q92 -48 147 -130zM678 113q168 0 258 155v480q-95 162 -264 161q-130 0 -209 -109q-80 -110 -80 -288q0 -180 81 -289
q81 -110 214 -110z" />
    <glyph glyph-name="aacute.salt" horiz-adv-x="1380" 
d="M729 1468h301l-305 -282h-104zM936 866v119l250 49v-1034h-250v141q-129 -162 -340 -161q-198 0 -335 153q-136 151 -136 379q0 224 135 379q135 153 332 153q104 0 197 -48q92 -48 147 -130zM678 113q168 0 258 155v480q-95 162 -264 161q-130 0 -209 -109
q-80 -110 -80 -288q0 -180 81 -289q81 -110 214 -110z" />
    <glyph glyph-name="abreve.salt" horiz-adv-x="1380" 
d="M705 1171q-119 0 -207 84t-88 205h100q8 -60 63 -97q55 -38 132 -38q76 0 132 38q54 38 62 97h100q-1 -121 -89 -205t-205 -84zM936 866v119l250 49v-1034h-250v141q-129 -162 -340 -161q-198 0 -335 153q-136 151 -136 379q0 224 135 379q135 153 332 153q104 0 197 -48
q92 -48 147 -130zM678 113q168 0 258 155v480q-95 162 -264 161q-130 0 -209 -109q-80 -110 -80 -288q0 -180 81 -289q81 -110 214 -110z" />
    <glyph glyph-name="uni01CE.salt" horiz-adv-x="1380" 
d="M999 1423l-254 -247h-81l-254 247l57 58l238 -142l237 142zM936 866v119l250 49v-1034h-250v141q-129 -162 -340 -161q-198 0 -335 153q-136 151 -136 379q0 224 135 379q135 153 332 153q104 0 197 -48q92 -48 147 -130zM678 113q168 0 258 155v480q-95 162 -264 161
q-130 0 -209 -109q-80 -110 -80 -288q0 -180 81 -289q81 -110 214 -110z" />
    <glyph glyph-name="acircumflex.salt" horiz-adv-x="1380" 
d="M942 1176l-237 141l-238 -141l-57 57l254 248h81l254 -248zM936 866v119l250 49v-1034h-250v141q-129 -162 -340 -161q-198 0 -335 153q-136 151 -136 379q0 224 135 379q135 153 332 153q104 0 197 -48q92 -48 147 -130zM678 113q168 0 258 155v480q-95 162 -264 161
q-130 0 -209 -109q-80 -110 -80 -288q0 -180 81 -289q81 -110 214 -110z" />
    <glyph glyph-name="uni0201.salt" horiz-adv-x="1380" 
d="M471 1468l117 -282h-107l-248 282h238zM823 1468l117 -282h-106l-248 282h237zM936 866v119l250 49v-1034h-250v141q-129 -162 -340 -161q-198 0 -335 153q-136 151 -136 379q0 224 135 379q135 153 332 153q104 0 197 -48q92 -48 147 -130zM678 113q168 0 258 155v480
q-95 162 -264 161q-130 0 -209 -109q-80 -110 -80 -288q0 -180 81 -289q81 -110 214 -110z" />
    <glyph glyph-name="adieresis.salt" horiz-adv-x="1380" 
d="M589 1211q-35 -33 -85 -33q-52 0 -86 33q-35 32 -35 81q0 51 35 86t88 35q51 0 84 -33.5t33 -84.5q0 -53 -34 -84zM992 1211q-34 -33 -85 -33t-86 33q-35 32 -35 84q0 51 35 84.5t88 33.5q51 0 84 -33.5t33 -84.5q0 -53 -34 -84zM936 866v119l250 49v-1034h-250v141
q-129 -162 -340 -161q-198 0 -335 153q-136 151 -136 379q0 224 135 379q135 153 332 153q104 0 197 -48q92 -48 147 -130zM678 113q168 0 258 155v480q-95 162 -264 161q-130 0 -209 -109q-80 -110 -80 -288q0 -180 81 -289q81 -110 214 -110z" />
    <glyph glyph-name="uni1EA1.salt" horiz-adv-x="1380" 
d="M936 866v119l250 49v-1034h-250v141q-129 -162 -340 -161q-198 0 -335 153q-136 151 -136 379q0 224 135 379q135 153 332 153q104 0 197 -48q92 -48 147 -130zM678 113q168 0 258 155v480q-95 162 -264 161q-130 0 -209 -109q-80 -110 -80 -288q0 -180 81 -289
q81 -110 214 -110zM707 -129q53 0 88.5 -36t35.5 -89t-35.5 -88t-90.5 -35q-53 0 -91 35q-39 34 -39 88q0 53 39 89q38 36 93 36z" />
    <glyph glyph-name="agrave.salt" horiz-adv-x="1380" 
d="M682 1468l109 -282h-105l-305 282h301zM936 866v119l250 49v-1034h-250v141q-129 -162 -340 -161q-198 0 -335 153q-136 151 -136 379q0 224 135 379q135 153 332 153q104 0 197 -48q92 -48 147 -130zM678 113q168 0 258 155v480q-95 162 -264 161q-130 0 -209 -109
q-80 -110 -80 -288q0 -180 81 -289q81 -110 214 -110z" />
    <glyph glyph-name="uni0203.salt" horiz-adv-x="1380" 
d="M837 1293q-56 38 -132 38q-77 0 -132 -38q-55 -37 -63 -97h-100q0 121 88 205t207 84q117 0 205 -84t89 -205h-100q-8 59 -62 97zM936 866v119l250 49v-1034h-250v141q-129 -162 -340 -161q-198 0 -335 153q-136 151 -136 379q0 224 135 379q135 153 332 153
q104 0 197 -48q92 -48 147 -130zM678 113q168 0 258 155v480q-95 162 -264 161q-130 0 -209 -109q-80 -110 -80 -288q0 -180 81 -289q81 -110 214 -110z" />
    <glyph glyph-name="amacron.salt" horiz-adv-x="1380" 
d="M449 1399h512v-156h-512v156zM936 866v119l250 49v-1034h-250v141q-129 -162 -340 -161q-198 0 -335 153q-136 151 -136 379q0 224 135 379q135 153 332 153q104 0 197 -48q92 -48 147 -130zM678 113q168 0 258 155v480q-95 162 -264 161q-130 0 -209 -109
q-80 -110 -80 -288q0 -180 81 -289q81 -110 214 -110z" />
    <glyph glyph-name="aogonek.salt" horiz-adv-x="1380" 
d="M1194 -297l39 -78q-59 -74 -186 -74q-89 0 -150 47q-61 48 -61 117q0 77 64 156q63 79 165 129h-129v141q-129 -162 -340 -161q-198 0 -335 153q-136 151 -136 379q0 224 135 379q135 153 332 153q104 0 197 -48q92 -48 147 -130v119l250 49v-1034h-2q-87 -44 -139 -105
q-54 -62 -54 -118q0 -47 33 -78t84 -31t86 35zM678 113q168 0 258 155v480q-95 162 -264 161q-130 0 -209 -109q-80 -110 -80 -288q0 -180 81 -289q81 -110 214 -110z" />
    <glyph glyph-name="aring.salt" horiz-adv-x="1380" 
d="M709 1153q-77 0 -127 49q-52 49 -52 121q0 75 52 124q52 50 127 50q74 0 122 -50t48 -124q0 -71 -48 -121q-48 -49 -122 -49zM709 1421q-43 0 -71 -27t-28 -71q0 -42 28 -68t71 -26q41 0 65.5 25.5t24.5 68.5q0 45 -24.5 71.5t-65.5 26.5zM936 866v119l250 49v-1034h-250
v141q-129 -162 -340 -161q-198 0 -335 153q-136 151 -136 379q0 224 135 379q135 153 332 153q104 0 197 -48q92 -48 147 -130zM678 113q168 0 258 155v480q-95 162 -264 161q-130 0 -209 -109q-80 -110 -80 -288q0 -180 81 -289q81 -110 214 -110z" />
    <glyph glyph-name="atilde.salt" horiz-adv-x="1380" 
d="M573 1319q-90 0 -96 -121h-96q0 118 54 191t143 73q69 0 145 -65q73 -66 111 -66q41 0 66.5 33t29.5 88h96q0 -118 -55 -189q-55 -73 -144 -73q-39 -2 -78.5 18t-66.5 45.5t-57 46t-52 19.5zM936 866v119l250 49v-1034h-250v141q-129 -162 -340 -161q-198 0 -335 153
q-136 151 -136 379q0 224 135 379q135 153 332 153q104 0 197 -48q92 -48 147 -130zM678 113q168 0 258 155v480q-95 162 -264 161q-130 0 -209 -109q-80 -110 -80 -288q0 -180 81 -289q81 -110 214 -110z" />
    <glyph glyph-name="u.ss02" horiz-adv-x="1220" 
d="M639 -20q-190 0 -325 108q-136 106 -136 264v633l250 49v-694q0 -98 75 -163q75 -66 183 -66q111 0 183 66q71 65 71 163v684h107v-696q0 -153 -114 -250q-115 -98 -294 -98z" />
    <glyph glyph-name="uacute.ss02" horiz-adv-x="1220" 
d="M952 1468l-305 -282h-104l108 282h301zM639 -20q-190 0 -325 108q-136 106 -136 264v633l250 49v-694q0 -98 75 -163q75 -66 183 -66q111 0 183 66q71 65 71 163v684h107v-696q0 -153 -114 -250q-115 -98 -294 -98z" />
    <glyph glyph-name="ubreve.ss02" horiz-adv-x="1220" 
d="M629 1171q-119 0 -207 84t-88 205h100q8 -60 63 -97q55 -38 132 -38t132 38q54 38 62 97h101q-1 -121 -90 -205q-88 -84 -205 -84zM639 -20q-190 0 -325 108q-136 106 -136 264v633l250 49v-694q0 -98 75 -163q75 -66 183 -66q111 0 183 66q71 65 71 163v684h107v-696
q0 -153 -114 -250q-115 -98 -294 -98z" />
    <glyph glyph-name="ucircumflex.ss02" horiz-adv-x="1220" 
d="M866 1176l-237 141l-238 -141l-57 57l254 248h82l254 -248zM940 340v684h107v-696q0 -153 -114 -250q-115 -98 -294 -98q-190 0 -325 108q-136 106 -136 264v633l250 49v-694q0 -98 75 -163q75 -66 183 -66q111 0 183 66q71 65 71 163z" />
    <glyph glyph-name="uni0215.ss02" horiz-adv-x="1220" 
d="M393 1468l117 -282h-107l-247 282h237zM745 1468l117 -282h-106l-248 282h237zM639 -20q-190 0 -325 108q-136 106 -136 264v633l250 49v-694q0 -98 75 -163q75 -66 183 -66q111 0 183 66q71 65 71 163v684h107v-696q0 -153 -114 -250q-115 -98 -294 -98z" />
    <glyph glyph-name="udieresis.ss02" horiz-adv-x="1220" 
d="M511 1211q-34 -33 -85 -33q-52 0 -86 33q-35 32 -35 81q0 51 35 86t88 35q51 0 84 -33.5t33 -84.5q0 -53 -34 -84zM915 1211q-35 -33 -85 -33q-52 0 -86 33q-35 32 -35 84q0 51 34.5 84.5t87.5 33.5q51 0 84 -33.5t33 -84.5q0 -53 -33 -84zM639 -20q-190 0 -325 108
q-136 106 -136 264v633l250 49v-694q0 -98 75 -163q75 -66 183 -66q111 0 183 66q71 65 71 163v684h107v-696q0 -153 -114 -250q-115 -98 -294 -98z" />
    <glyph glyph-name="uni1EE5.ss02" horiz-adv-x="1220" 
d="M639 -20q-190 0 -325 108q-136 106 -136 264v633l250 49v-694q0 -98 75 -163q75 -66 183 -66q111 0 183 66q71 65 71 163v684h107v-696q0 -153 -114 -250q-115 -98 -294 -98zM637 -377q-53 0 -91 35t-38 88t38 89t93 36q53 0 89 -36t36 -89t-36 -88t-91 -35z" />
    <glyph glyph-name="ugrave.ss02" horiz-adv-x="1220" 
d="M713 1186h-105l-305 282h301zM639 -20q-190 0 -325 108q-136 106 -136 264v633l250 49v-694q0 -98 75 -163q75 -66 183 -66q111 0 183 66q71 65 71 163v684h107v-696q0 -153 -114 -250q-115 -98 -294 -98z" />
    <glyph glyph-name="uhungarumlaut.ss02" horiz-adv-x="1220" 
d="M489 1186h-106l117 282h237zM842 1186h-107l117 282h238zM639 -20q-190 0 -325 108q-136 106 -136 264v633l250 49v-694q0 -98 75 -163q75 -66 183 -66q111 0 183 66q71 65 71 163v684h107v-696q0 -153 -114 -250q-115 -98 -294 -98z" />
    <glyph glyph-name="uni0217.ss02" horiz-adv-x="1220" 
d="M629 1485q117 0 205 -84q89 -84 90 -205h-101q-8 59 -62 97q-55 38 -132 38t-132 -38q-55 -37 -63 -97h-100q0 121 88 205t207 84zM639 -20q-190 0 -325 108q-136 106 -136 264v633l250 49v-694q0 -98 75 -163q75 -66 183 -66q111 0 183 66q71 65 71 163v684h107v-696
q0 -153 -114 -250q-115 -98 -294 -98z" />
    <glyph glyph-name="umacron.ss02" horiz-adv-x="1220" 
d="M883 1243h-512v156h512v-156zM639 -20q-190 0 -325 108q-136 106 -136 264v633l250 49v-694q0 -98 75 -163q75 -66 183 -66q111 0 183 66q71 65 71 163v684h107v-696q0 -153 -114 -250q-115 -98 -294 -98z" />
    <glyph glyph-name="uogonek.ss02" horiz-adv-x="1220" 
d="M940 340v684h107v-696q0 -123 -78 -213q-77 -89 -209 -121q-80 -43 -129 -102.5t-49 -114.5q0 -47 32.5 -78t84.5 -31q50 0 85 35l39 -78q-59 -74 -186 -74q-89 0 -150 47q-61 48 -61 117q0 70 53 141q51 70 139 124q-184 6 -312 113t-128 259v633l250 49v-694
q0 -98 75 -163q75 -66 183 -66q111 0 183 66q71 65 71 163z" />
    </font>
</defs>
</svg>
