<svg id="Group_116658" data-name="Group 116658" xmlns="http://www.w3.org/2000/svg" xmlns:xlink="http://www.w3.org/1999/xlink" width="74.718" height="72.532" viewBox="0 0 74.718 72.532">
  <defs>
    <clipPath id="clip-path">
      <rect id="Rectangle_66780" data-name="Rectangle 66780" width="74.718" height="72.532" fill="#c4a260"/>
    </clipPath>
  </defs>
  <g id="Group_116657" data-name="Group 116657" clip-path="url(#clip-path)">
    <path id="Path_61534" data-name="Path 61534" d="M13.858,97.52c2.136-1.09,4.009-.585,5.885.667,3.451,2.3,6.978,4.5,10.466,6.745a18.1,18.1,0,0,1,6.87,7.829c.058.128.136.247.248.448.123-.213.224-.362.3-.523a18.057,18.057,0,0,1,6.729-7.675c3.524-2.282,7.1-4.487,10.587-6.823,1.879-1.26,3.747-1.749,5.9-.66.79-2.117,1.559-4.178,2.329-6.238.627-1.679,1.239-3.365,1.888-5.036a5.209,5.209,0,0,1,4.175-3.534c3.051-.516,6.106,2.621,5.379,5.617-1.532,6.309-3.058,12.62-4.718,18.9a24.163,24.163,0,0,1-9.286,13.3c-2.115,1.589-4.293,3.1-6.457,4.619a.973.973,0,0,0-.485.952c.039.679.025,1.361.006,2.041a2.893,2.893,0,0,1-2.591,2.859,6.839,6.839,0,0,1-.872.043q-12.871,0-25.743,0c-2.356,0-3.569-1.124-3.421-3.491a3.2,3.2,0,0,0-1.683-3.289,65.255,65.255,0,0,1-6.206-4.463,24.726,24.726,0,0,1-8.712-13.766C3.068,100.267,1.583,94.52.155,88.759a4.781,4.781,0,0,1,2.672-5.616,4.8,4.8,0,0,1,6,1.651,8.33,8.33,0,0,1,.921,1.8c1.289,3.4,2.547,6.807,3.817,10.212.083.223.181.44.292.708M23.92,128.057H35.859c0-2.889.025-5.708-.016-8.526a11.828,11.828,0,0,0-.341-2.3,15.2,15.2,0,0,0-7.027-9.945c-3.688-2.344-7.354-4.723-11.035-7.077a1.9,1.9,0,0,0-2.71.417,1.852,1.852,0,0,0,.516,2.621c1.024.82,2.056,1.631,3.087,2.442,1.2.947,2.41,1.887,3.61,2.837a1.529,1.529,0,0,1,.431,2.169,1.463,1.463,0,0,1-2.186.162c-.1-.072-.2-.141-.294-.216-2.208-1.751-4.408-3.512-6.627-5.251a4.688,4.688,0,0,1-1.713-4.735,2.231,2.231,0,0,0-.07-1.045Q9.253,93.539,6.974,87.483a4.557,4.557,0,0,0-.417-.845,1.9,1.9,0,0,0-2.5-.836,1.868,1.868,0,0,0-1.03,2.357C4.415,93.78,5.858,99.39,7.189,105.025a22.574,22.574,0,0,0,9.34,13.682c2.164,1.524,4.3,3.093,6.464,4.615a1.95,1.95,0,0,1,.939,1.833c-.048.944-.011,1.893-.011,2.9m26.836.021c0-1.017.033-1.987-.01-2.955a1.9,1.9,0,0,1,.908-1.772c2.423-1.7,4.852-3.4,7.225-5.175a21.085,21.085,0,0,0,8.113-11.434c1.7-6.24,3.175-12.542,4.735-18.82a1.848,1.848,0,0,0-.873-2,1.783,1.783,0,0,0-2.278.2,3.985,3.985,0,0,0-.851,1.331Q65.419,93.53,63.184,99.64a2.288,2.288,0,0,0-.053,1.046,4.689,4.689,0,0,1-1.69,4.68c-.785.613-1.56,1.24-2.341,1.857-1.563,1.236-3.112,2.488-4.7,3.7A1.43,1.43,0,0,1,52.033,110a1.634,1.634,0,0,1,.782-1.535c2.221-1.734,4.443-3.469,6.627-5.248a2.452,2.452,0,0,0,.779-1.236,1.637,1.637,0,0,0-.822-1.867,1.889,1.889,0,0,0-2.128.074c-3.881,2.492-7.8,4.925-11.632,7.491A14.415,14.415,0,0,0,38.973,118.7c-.277,3.062-.109,6.164-.136,9.248,0,.036.052.073.095.129Z" transform="translate(0 -58.518)" fill="#c4a260"/>
    <path id="Path_61535" data-name="Path 61535" d="M83.705,31.449c0,2.065,0,4.029,0,5.994a2.9,2.9,0,0,1-3.181,3.216c-.535,0-1.071.015-1.6-.01A1.369,1.369,0,0,1,77.554,39.4a1.348,1.348,0,0,1,1.156-1.586,15.321,15.321,0,0,1,2.077-.019v-.773c0-2.309,0-4.619,0-6.928a4.236,4.236,0,0,0-4.32-4.425q-4.155-.065-8.313,0a4.229,4.229,0,0,0-4.3,4.44q-.007,3.428,0,6.855c0,.236.02.473.033.778.547,0,1.051-.009,1.556,0,1.062.023,1.7.6,1.685,1.5-.013.87-.639,1.4-1.671,1.414-.583.006-1.167.013-1.75-.007a2.826,2.826,0,0,1-2.765-2.814c-.021-2.089-.005-4.178-.005-6.388h-.8q-3.683,0-7.365,0a3.027,3.027,0,0,1-3.353-3.323q0-3.573,0-7.146a7.162,7.162,0,0,1,4.927-7.072,2.781,2.781,0,0,0,.315-.164,8.253,8.253,0,0,1,9.1-13.2c3.66,1.4,5.421,4.555,5.18,9.369a8.683,8.683,0,0,1,6.807.029A8.466,8.466,0,0,1,77.24,3.31,8.115,8.115,0,0,1,81.25.415a8.214,8.214,0,0,1,9.161,2.9,8.33,8.33,0,0,1-.445,10.419c.292.123.573.231.844.358a7.033,7.033,0,0,1,4.4,6.564c.07,2.55.02,5.1.013,7.657a3,3,0,0,1-3.176,3.133c-2.479.006-4.959,0-7.438,0h-.9m8.574-2.956c.01-.225.026-.413.027-.6,0-2.356.011-4.712,0-7.068a4.286,4.286,0,0,0-4.372-4.386c-2.283-.018-4.566-.005-6.849,0-.185,0-.369.035-.606.058a8.18,8.18,0,0,1-1.89,6.278c1.087.773,2.2,1.45,3.173,2.29A6.573,6.573,0,0,1,83.6,28.492ZM66.226,22.966a8.339,8.339,0,0,1-2.067-6.533c-2.528,0-4.951-.009-7.375,0a4.3,4.3,0,0,0-4.454,4.453c-.009,2.332,0,4.664,0,7,0,.207.029.414.045.62H61.04a7.415,7.415,0,0,1,5.186-5.537M55.529,8.234a5.289,5.289,0,1,0,5.3-5.315,5.254,5.254,0,0,0-5.3,5.315m33.577.024a5.289,5.289,0,1,0-5.359,5.25,5.275,5.275,0,0,0,5.359-5.25M72.342,22.72a5.28,5.28,0,1,0-5.3-5.292,5.225,5.225,0,0,0,5.3,5.292" transform="translate(-34.98 0)" fill="#c4a260"/>
    <path id="Path_61536" data-name="Path 61536" d="M124.278,132.14a1.419,1.419,0,0,1-1.435-1.419,1.456,1.456,0,1,1,2.911-.032,1.42,1.42,0,0,1-1.476,1.45" transform="translate(-86.96 -91.488)" fill="#c4a260"/>
  </g>
</svg>
