<svg id="Group_116635" data-name="Group 116635" xmlns="http://www.w3.org/2000/svg" xmlns:xlink="http://www.w3.org/1999/xlink" width="84.468" height="84.406" viewBox="0 0 84.468 84.406">
  <defs>
    <clipPath id="clip-path">
      <rect id="Rectangle_66709" data-name="Rectangle 66709" width="84.468" height="84.406" fill="#d1a761"/>
    </clipPath>
  </defs>
  <g id="Group_116634" data-name="Group 116634" clip-path="url(#clip-path)">
    <path id="Path_61503" data-name="Path 61503" d="M153.563,53.365c1.646-2.4,3.336-4.761,4.928-7.191a70.244,70.244,0,0,0,7.623-14.541,22.585,22.585,0,0,0,1.551-7.455c.039-3.852-1.582-7.072-3.982-9.945-3.629-4.346-8.308-7.3-13.3-9.794-1.322-.661-2.695-1.22-4.05-1.813-.9-.392-1.23-.989-.928-1.719a1.252,1.252,0,0,1,1.8-.594c6.291,2.54,12.124,5.818,16.919,10.71A20.087,20.087,0,0,1,169.9,21.357a19.276,19.276,0,0,1-.825,9.174,52.5,52.5,0,0,1-6.39,13.576c-2.866,4.45-5.98,8.741-8.977,13.107a1.628,1.628,0,0,0-.362.79c-.028,2.417-.016,4.834-.016,7.405.713,0,1.385-.011,2.056,0,1.045.022,1.435.4,1.453,1.454q.029,1.69,0,3.38c-.015.886-.525,1.455-1.239,1.443s-1.2-.591-1.228-1.476c-.021-.736,0-1.474,0-2.269h-4.462V77.1h4.463c0-.78-.02-1.563.006-2.345.028-.863.417-1.328,1.1-1.394A1.1,1.1,0,0,1,156.8,74.4c.056,1.371.051,2.747.008,4.12a1.111,1.111,0,0,1-1.211,1.1q-3.5.045-7.009,0a1.169,1.169,0,0,1-1.207-1.288q-.018-5.813,0-11.626a1.164,1.164,0,0,1,1.274-1.286c.706-.028,1.414-.006,2.161-.006V60.945c-.959,1.164-1.816,2.207-2.676,3.247Q139.645,74.457,130.246,83.9a2.27,2.27,0,0,1-1.412.615,1.2,1.2,0,0,1-.871-.8,1.913,1.913,0,0,1,.417-1.384c1.749-1.9,3.583-3.722,5.357-5.6,5.848-6.2,11.454-12.609,16.681-19.344a2.093,2.093,0,0,0,.421-1.175c.034-3.106.022-6.212.018-9.318,0-1.282-.5-1.768-1.8-1.785a14.366,14.366,0,0,0-1.865.074c2.362,1.116,1.7,3.134,1.457,4.893a3.677,3.677,0,0,1-3.922,2.836,3.774,3.774,0,0,1-3.455-3.489c-.034-.686-.031-1.374-.012-2.061a1.89,1.89,0,0,1,2.019-2.005.955.955,0,0,0,.99-.62,3.69,3.69,0,0,1,3.226-2.09,18.4,18.4,0,0,1,2.06,0,3.869,3.869,0,0,1,3.776,3.978c.016,2.218,0,4.436,0,6.653l.233.093m-7.249-5.516h-2.56c.033.853-.354,1.8.562,2.327a1.614,1.614,0,0,0,1.352.025c.912-.5.658-1.439.647-2.353" transform="translate(-85.688 -0.109)" fill="#d1a761"/>
    <path id="Path_61504" data-name="Path 61504" d="M59.08,17.334c0-3.628,0-7.116,0-10.6,0-1.1-.014-2.2,0-3.3a3.365,3.365,0,0,1,3.392-3.4C64.2-.03,65.707.227,66.635,1.9c.088.158.414.211.641.259a1.764,1.764,0,0,1,1.547,1.666A8.725,8.725,0,0,1,68.715,6.2a3.112,3.112,0,0,1-3.248,2.255,3.153,3.153,0,0,1-2.9-2.793c-.071-1.044-.28-2.154.567-3.071-1.286-.142-1.58.1-1.581,1.257q0,6.346,0,12.691v.8c.471,0,.9-.013,1.323,0,.89.032,1.322.437,1.326,1.315q.021,4.367,0,8.735A1.175,1.175,0,0,1,62.933,28.7q-2.595.06-5.192,0c-.885-.02-1.3-.53-1.3-1.46q-.011-4.2,0-8.406c0-1.067.42-1.48,1.492-1.5.35-.007.7,0,1.151,0m2.6,2.529H58.969V26.2h2.715ZM64.818,4.654a7.326,7.326,0,0,0,.613,1.218.679.679,0,0,0,.639-.061A5.7,5.7,0,0,0,66.5,4.654Z" transform="translate(-37.792 -0.019)" fill="#d1a761"/>
    <path id="Path_61505" data-name="Path 61505" d="M1.321,87.617a1.232,1.232,0,0,1-1.3-1.064,1.221,1.221,0,0,1,1.006-1.39c1.676-.409,3.363-.773,5.039-1.183,12.82-3.138,25.6-6.411,37.989-11.033.359-.134.716-.275,1.077-.4.878-.313,1.546-.1,1.822.566a1.267,1.267,0,0,1-.922,1.729c-2.986,1.081-5.959,2.2-8.98,3.18-11.6,3.754-23.407,6.754-35.277,9.515-.159.037-.322.06-.455.085" transform="translate(0 -48.486)" fill="#d1a761"/>
    <path id="Path_61506" data-name="Path 61506" d="M142.448,15.918a7.005,7.005,0,0,1-3.282,5.611,57.713,57.713,0,0,1-5.116,2.957,1.169,1.169,0,0,1-1.68-.512A1.229,1.229,0,0,1,133,22.259c1.479-.833,2.965-1.655,4.428-2.515a5.683,5.683,0,0,0,1.077-.889,4.135,4.135,0,0,0,.872-5.249,14.75,14.75,0,0,0-3.83-4.583A47.632,47.632,0,0,0,126.4,2.915c-.291-.153-.592-.29-.876-.456A1.214,1.214,0,0,1,124.906.8a1.194,1.194,0,0,1,1.745-.522c1.987,1.107,3.985,2.2,5.9,3.421a29.822,29.822,0,0,1,7.639,6.585,9.424,9.424,0,0,1,2.255,5.636" transform="translate(-83.558 -0.059)" fill="#d1a761"/>
    <path id="Path_61507" data-name="Path 61507" d="M189.7,25.545c-.27.322-.494.819-.855.956a1.487,1.487,0,0,1-1.277-.175c-1.476-1.313-2.9-2.691-4.292-4.091a1.1,1.1,0,0,1,.016-1.632,1.084,1.084,0,0,1,1.621-.142c1.5,1.369,2.949,2.792,4.4,4.216a3.1,3.1,0,0,1,.391.868" transform="translate(-122.502 -13.5)" fill="#d1a761"/>
    <path id="Path_61508" data-name="Path 61508" d="M161.608,4.255c-.028,1.1-.977,1.714-1.763,1.238-1.732-1.05-3.431-2.159-5.108-3.3a1.068,1.068,0,0,1-.275-1.54A1.074,1.074,0,0,1,156.009.17c1.749,1.074,3.47,2.2,5.171,3.347.253.171.343.583.428.738" transform="translate(-103.302 0)" fill="#d1a761"/>
    <path id="Path_61509" data-name="Path 61509" d="M14.482,202.732a5.026,5.026,0,0,1-.785,1.048c-1.493,1.115-3.012,2.2-4.539,3.264a1.255,1.255,0,0,1-1.819-.247,1.182,1.182,0,0,1,.352-1.727c1.522-1.121,3.047-2.243,4.627-3.281a1.712,1.712,0,0,1,1.357-.074c.328.126.514.624.808,1.018" transform="translate(-4.757 -135.017)" fill="#d1a761"/>
    <path id="Path_61510" data-name="Path 61510" d="M206.534,50.484a7.144,7.144,0,0,1-1.392,3.778,1.255,1.255,0,0,1-1.849.421,1.2,1.2,0,0,1-.179-1.815,4.154,4.154,0,0,0,.582-3.905,2.427,2.427,0,0,1-.125-.885,1.2,1.2,0,0,1,2.309-.293c.275.881.441,1.8.653,2.7" transform="translate(-135.806 -31.487)" fill="#d1a761"/>
    <path id="Path_61511" data-name="Path 61511" d="M127.9,120.006a4.97,4.97,0,0,1-.759,1.044c-1.469,1.142-2.964,2.25-4.467,3.347a1.232,1.232,0,1,1-1.486-1.959c1.5-1.148,3-2.3,4.558-3.363a1.673,1.673,0,0,1,1.342-.1c.328.123.514.624.814,1.026" transform="translate(-80.782 -79.616)" fill="#d1a761"/>
    <path id="Path_61512" data-name="Path 61512" d="M99.67,140.838a4.887,4.887,0,0,1-.758,1.066q-2.25,1.725-4.562,3.367a1.227,1.227,0,1,1-1.436-1.987c1.527-1.159,3.062-2.312,4.647-3.39a1.576,1.576,0,0,1,1.283-.061c.33.135.52.61.827,1.005" transform="translate(-61.849 -93.574)" fill="#d1a761"/>
    <path id="Path_61513" data-name="Path 61513" d="M177.646,81.6c-.284-.254-.776-.491-.886-.847a1.525,1.525,0,0,1,.212-1.318c1.516-1.341,3.1-2.612,4.7-3.849a1.2,1.2,0,0,1,1.524,1.842c-1.562,1.332-3.168,2.612-4.769,3.9a3.118,3.118,0,0,1-.783.275" transform="translate(-118.336 -50.46)" fill="#d1a761"/>
    <path id="Path_61514" data-name="Path 61514" d="M43.016,182.178a5.476,5.476,0,0,1-.832,1.092c-1.463,1.1-2.956,2.17-4.452,3.23a1.268,1.268,0,0,1-1.828-.177,1.219,1.219,0,0,1,.349-1.792c1.517-1.124,3.038-2.247,4.608-3.293a1.6,1.6,0,0,1,1.287-.076c.337.134.538.608.867,1.016" transform="translate(-23.874 -121.257)" fill="#d1a761"/>
    <path id="Path_61515" data-name="Path 61515" d="M65.324,166.108c-.29-.271-.8-.531-.905-.906a1.478,1.478,0,0,1,.292-1.3c1.562-1.242,3.187-2.406,4.828-3.544a1.21,1.21,0,0,1,1.427,1.949c-1.591,1.206-3.22,2.363-4.843,3.525a3.624,3.624,0,0,1-.8.274" transform="translate(-43.113 -107.24)" fill="#d1a761"/>
    <path id="Path_61516" data-name="Path 61516" d="M155.881,98.692a4.228,4.228,0,0,1-.663,1.042q-2.252,1.8-4.569,3.516a1.174,1.174,0,0,1-1.741-.269,1.2,1.2,0,0,1,.269-1.683c1.508-1.192,3.02-2.381,4.585-3.493a1.6,1.6,0,0,1,1.294-.088c.332.127.529.6.826.976" transform="translate(-99.567 -65.377)" fill="#d1a761"/>
  </g>
</svg>
