<svg id="Group_116633" data-name="Group 116633" xmlns="http://www.w3.org/2000/svg" xmlns:xlink="http://www.w3.org/1999/xlink" width="79.582" height="79.571" viewBox="0 0 79.582 79.571">
  <defs>
    <clipPath id="clip-path">
      <rect id="Rectangle_66708" data-name="Rectangle 66708" width="79.582" height="79.571" fill="#d1a761"/>
    </clipPath>
  </defs>
  <g id="Group_116632" data-name="Group 116632" clip-path="url(#clip-path)">
    <path id="Path_61489" data-name="Path 61489" d="M7.564,44.213c-.312,0-.569.005-.826,0a2.808,2.808,0,0,1-2.9-2.483,11.982,11.982,0,0,1,.036-3.088A2.756,2.756,0,0,1,6.649,36.3c.621-.017,1.244,0,1.865,0H41.76v-.921q0-4.857,0-9.713a6.707,6.707,0,0,1,.025-.776,1.052,1.052,0,0,1,1.071-1.019,1.026,1.026,0,0,1,1.164.907,9.222,9.222,0,0,1,.072,1.468c.008,1.345,0,2.69,0,4.145H48c2.609,0,2.627.018,2.627,2.649v3.214h2.661V28.69c-1.16,0-2.293.006-3.426,0-.907-.006-1.362-.376-1.385-1.1-.024-.759.465-1.212,1.371-1.224,1.134-.015,2.268,0,3.451,0V18.763h-.846c-2.539,0-5.081-.078-7.615.026a2.153,2.153,0,0,1-2-3.341,13.2,13.2,0,0,1,9.781-7c.225-.038.446-.1.682-.153.183-1-.372-2.559,1.279-2.531,1.566.026.944,1.529,1.159,2.525.5.1,1.021.194,1.541.312a12.9,12.9,0,0,1,8.991,6.99,2.029,2.029,0,0,1-1.889,3.162q-3.963.034-7.927-.007c-.616-.007-.8.173-.786.788.036,2.02.012,4.041.016,6.061,0,.227.027.454.046.759,1.1,0,2.153,0,3.208,0a3.054,3.054,0,0,1,.769.058,1.149,1.149,0,0,1-.285,2.269c-.959,0-1.917,0-2.876,0h-.811v7.551h2.714c0-1.352,0-2.713,0-4.075,0-1.451.325-1.777,1.772-1.777h4.756c0-1.384,0-2.721,0-4.057,0-.388-.01-.777,0-1.165.026-.822.5-1.33,1.213-1.306A1.168,1.168,0,0,1,67.3,25.177c.008,2.59,0,5.18,0,7.771V36.3h2.747c.906,0,1.813-.007,2.72,0a2.841,2.841,0,0,1,3,2.565,11.8,11.8,0,0,1,0,2.788,2.85,2.85,0,0,1-2.925,2.56c-.257.006-.514,0-.88,0v.859q0,5.556,0,11.112c0,.966-.658,1.584-1.436,1.355a1.235,1.235,0,0,1-.895-1.367c.012-3.678.006-7.356.006-11.035v-.88H10.007V75.566h3.433v-1.01q0-10.763,0-21.525a9.224,9.224,0,0,1,.035-1.008,2.359,2.359,0,0,1,2.353-2.236q4.2-.058,8.392,0a2.379,2.379,0,0,1,2.4,2.273,9.721,9.721,0,0,1,.033,1.009q0,10.723,0,21.447V75.57H69.635v-.785q0-6.216,0-12.433a3.681,3.681,0,0,1,.012-.621,1.158,1.158,0,0,1,2.3.012,4.383,4.383,0,0,1,.012.7c0,4.351,0,8.7,0,13.182h2c.881,0,1.762-.016,2.642,0a2.911,2.911,0,0,1,2.97,3.018q.008.932,0,1.865a2.883,2.883,0,0,1-3.029,3.022q-16.864.006-33.729,0c-.951,0-1.5-.454-1.472-1.2.024-.714.551-1.123,1.471-1.123q14.066,0,28.133,0c1.787,0,3.575-.014,5.362.007.649.008.975-.217.94-.9-.026-.517-.016-1.036,0-1.554.015-.561-.264-.806-.8-.8-.155,0-.311,0-.466,0H3.631c-1.274,0-1.3.029-1.3,1.312,0,2.1-.173,1.94,1.91,1.94q16.087,0,32.174,0a5,5,0,0,1,.776.013,1.157,1.157,0,0,1-.008,2.3,3.927,3.927,0,0,1-.621.012q-16.67,0-33.34,0A2.914,2.914,0,0,1,0,80.314c0-.544,0-1.088,0-1.632a2.907,2.907,0,0,1,3.011-3.054c1.5-.02,3,0,4.551,0Zm32.219-2.329q15.926,0,31.851,0c1.866,0,1.881.187,1.862-1.855-.013-1.38-.021-1.4-1.381-1.4H8.023c-1.99,0-1.953-.224-1.937,1.928.009,1.267.058,1.325,1.3,1.325h32.4M24.275,75.58c.019-.2.042-.327.042-.455q0-11.176.013-22.353c0-.57-.221-.686-.733-.681-2.3.021-4.606.043-6.908-.01-.782-.018-.928.251-.925.97.025,7.218.015,14.436.015,21.654v.876Zm27.4-59.2h5.723A12.02,12.02,0,0,0,55.656,11.5c-.8-1.155-1.47-1.157-2.255,0a12.012,12.012,0,0,0-1.728,4.882M48.243,32.763H44.15v3.495h4.094Zm16.688.008h-4.1v3.491h4.1ZM58.494,11.4c.412,1.573.806,3.11,1.229,4.639a.581.581,0,0,0,.39.365c1.28.028,2.561.016,3.965.016A10.707,10.707,0,0,0,58.494,11.4m-13.5,4.986h4.169l1.447-4.994a10.764,10.764,0,0,0-5.616,4.994" transform="translate(0 -3.972)" fill="#d1a761"/>
    <path id="Path_61490" data-name="Path 61490" d="M178.774,156.474c0-2.2,0-4.4,0-6.6a2.509,2.509,0,0,1,2.73-2.766q2.525-.025,5.05,0a2.454,2.454,0,0,1,2.7,2.633q.045,6.72,0,13.44a2.458,2.458,0,0,1-2.683,2.649q-2.525.027-5.05,0a2.512,2.512,0,0,1-2.744-2.751c-.006-2.2,0-4.4,0-6.6m8.143,1.219h-5.771v5.8c1.842,0,3.644.006,5.445-.015a.47.47,0,0,0,.312-.336c.02-1.8.014-3.609.014-5.446m-5.788-2.472h5.794c0-1.8-.011-3.531.007-5.261,0-.492-.263-.53-.642-.527-1.318.01-2.636,0-3.954.006-.4,0-.8.035-1.206.054Z" transform="translate(-123.126 -101.307)" fill="#d1a761"/>
    <path id="Path_61491" data-name="Path 61491" d="M93.4,156.394c0-2.175-.006-4.351,0-6.526a2.521,2.521,0,0,1,2.739-2.764q2.525-.024,5.051,0a2.491,2.491,0,0,1,2.711,2.711q.033,6.643,0,13.286a2.517,2.517,0,0,1-2.777,2.726q-2.448.019-4.9,0A2.548,2.548,0,0,1,93.4,163c0-2.2,0-4.4,0-6.6m8.128,1.293H95.776v5.755h5.752Zm.042-2.449c0-1.831.013-3.609-.026-5.387,0-.143-.365-.393-.565-.4-1.551-.033-3.1,0-4.655-.027-.5-.007-.613.2-.6.649.027.878.008,1.758.008,2.637v2.525Z" transform="translate(-64.326 -101.306)" fill="#d1a761"/>
    <path id="Path_61492" data-name="Path 61492" d="M146.621,156.436c0,2.227,0,4.454,0,6.681a2.47,2.47,0,0,1-2.627,2.7q-2.6.033-5.205,0a2.429,2.429,0,0,1-2.62-2.617q-.027-6.758,0-13.517a2.416,2.416,0,0,1,2.572-2.583q2.641-.038,5.283,0a2.456,2.456,0,0,1,2.595,2.654c.007,2.227,0,4.454,0,6.681m-8.085,6.988h5.727v-5.738h-5.727Zm0-8.2h5.693v-5.73h-5.693Z" transform="translate(-93.774 -101.299)" fill="#d1a761"/>
    <path id="Path_61493" data-name="Path 61493" d="M52.881,24.2a5.085,5.085,0,1,1-5.053-5.138A5.151,5.151,0,0,1,52.881,24.2m-7.833-.019a2.785,2.785,0,0,0,2.781,2.749,2.766,2.766,0,0,0-.035-5.532,2.78,2.78,0,0,0-2.746,2.782" transform="translate(-29.417 -13.127)" fill="#d1a761"/>
    <path id="Path_61494" data-name="Path 61494" d="M55.356,60.615c0-.258-.02-.518,0-.773A1.03,1.03,0,0,1,56.4,58.813a1,1,0,0,1,1.188.86,7.287,7.287,0,0,1,0,1.992,1.015,1.015,0,0,1-1.241.887,1.058,1.058,0,0,1-1-1.086c-.016-.283,0-.567,0-.851h0" transform="translate(-38.119 -40.503)" fill="#d1a761"/>
    <path id="Path_61495" data-name="Path 61495" d="M55.362,1.877c0-.284-.021-.569.005-.85A1.059,1.059,0,0,1,56.36.014a.965.965,0,0,1,1.186.75,7.573,7.573,0,0,1,.017,2.209c-.087.615-.618.857-1.233.779a1.019,1.019,0,0,1-.966-1.024c-.021-.282,0-.567,0-.851" transform="translate(-38.124 0)" fill="#d1a761"/>
    <path id="Path_61496" data-name="Path 61496" d="M77.728,53.361c-.2.249-.389.705-.705.824a1.563,1.563,0,0,1-1.218-.113,5.307,5.307,0,0,1-1.265-1.235.943.943,0,0,1,.062-1.392c.335-.255,1.02-.49,1.279-.321a10.008,10.008,0,0,1,1.686,1.651c.092.1.085.29.162.586" transform="translate(-51.148 -35.171)" fill="#d1a761"/>
    <path id="Path_61497" data-name="Path 61497" d="M77.8,10.512a4.04,4.04,0,0,1-.412.853,10.915,10.915,0,0,1-1.147,1.148,1.063,1.063,0,0,1-1.478.021,1.027,1.027,0,0,1-.225-1.512,5.874,5.874,0,0,1,1.371-1.341,1.382,1.382,0,0,1,1.148-.059c.317.142.5.581.744.889" transform="translate(-51.171 -6.561)" fill="#d1a761"/>
    <path id="Path_61498" data-name="Path 61498" d="M25.37,34.087a6.593,6.593,0,0,1-.9-.084,1.129,1.129,0,0,1,.131-2.232,13.279,13.279,0,0,1,1.7,0,1.043,1.043,0,0,1,1.046,1.12,1.075,1.075,0,0,1-1.028,1.148c-.28.038-.565.032-.946.051" transform="translate(-16.229 -21.862)" fill="#d1a761"/>
    <path id="Path_61499" data-name="Path 61499" d="M84.265,31.669a9.2,9.2,0,0,1,.924.063,1.021,1.021,0,0,1,.93,1.056,1,1,0,0,1-.891,1.159,8.635,8.635,0,0,1-1.846.028,1.027,1.027,0,0,1-1.007-1.145,1.045,1.045,0,0,1,1.041-1.116,8.045,8.045,0,0,1,.849,0v-.04" transform="translate(-56.734 -21.811)" fill="#d1a761"/>
    <path id="Path_61500" data-name="Path 61500" d="M36.35,11.886c-.115.138-.307.563-.623.7a1.392,1.392,0,0,1-1.142-.065,5.025,5.025,0,0,1-1.347-1.355,1.305,1.305,0,0,1-.034-1.134,1.421,1.421,0,0,1,.97-.587c.747-.092,2.2,1.432,2.176,2.446" transform="translate(-22.791 -6.499)" fill="#d1a761"/>
    <path id="Path_61501" data-name="Path 61501" d="M33.973,54.109a1.088,1.088,0,0,1-1.017-1.614,5.6,5.6,0,0,1,1.622-1.606,1.089,1.089,0,0,1,1.578,1.074,3.31,3.31,0,0,1-2.184,2.145" transform="translate(-22.587 -34.948)" fill="#d1a761"/>
    <path id="Path_61502" data-name="Path 61502" d="M65.414,188.486c0-.18-.008-.36,0-.54a1.163,1.163,0,1,1,2.322.022c.015.359.016.72,0,1.079a1.163,1.163,0,1,1-2.322-.022c-.009-.18,0-.36,0-.54" transform="translate(-45.05 -128.608)" fill="#d1a761"/>
  </g>
</svg>
